<?xml version="1.0" encoding="utf-8" standalone="no"?>
<!DOCTYPE svg PUBLIC "-//W3C//DTD SVG 1.1//EN"
  "http://www.w3.org/Graphics/SVG/1.1/DTD/svg11.dtd">
<svg xmlns:xlink="http://www.w3.org/1999/xlink" width="469.19952pt" height="353.99952pt" viewBox="0 0 469.19952 353.99952" xmlns="http://www.w3.org/2000/svg" version="1.1">
 <metadata>
  <rdf:RDF xmlns:dc="http://purl.org/dc/elements/1.1/" xmlns:cc="http://creativecommons.org/ns#" xmlns:rdf="http://www.w3.org/1999/02/22-rdf-syntax-ns#">
   <cc:Work>
    <dc:type rdf:resource="http://purl.org/dc/dcmitype/StillImage"/>
    <dc:date>2025-09-01T22:12:16.534677</dc:date>
    <dc:format>image/svg+xml</dc:format>
    <dc:creator>
     <cc:Agent>
      <dc:title>Matplotlib v3.10.6, https://matplotlib.org/</dc:title>
     </cc:Agent>
    </dc:creator>
   </cc:Work>
  </rdf:RDF>
 </metadata>
 <defs>
  <style type="text/css">*{stroke-linejoin: round; stroke-linecap: butt}</style>
 </defs>
 <g id="figure_1">
  <g id="patch_1">
   <path d="M 0 353.99952 
L 469.19952 353.99952 
L 469.19952 0 
L 0 0 
z
" style="fill: #ffffff"/>
  </g>
  <g id="axes_1">
   <g id="patch_2">
    <path d="M 43.78125 316.44327 
L 461.99952 316.44327 
L 461.99952 10.999219 
L 43.78125 10.999219 
z
" style="fill: #ffffff"/>
   </g>
   <g id="matplotlib.axis_1">
    <g id="xtick_1">
     <g id="line2d_1">
      <defs>
       <path id="m92b4b2d2bf" d="M 0 0 
L 0 3.5 
" style="stroke: #000000; stroke-width: 0.8"/>
      </defs>
      <g>
       <use xlink:href="#m92b4b2d2bf" x="103.801589" y="316.44327" style="stroke: #000000; stroke-width: 0.8"/>
      </g>
     </g>
     <g id="text_1">
      <!-- 2 -->
      <g transform="translate(100.620339 331.041707) scale(0.1 -0.1)">
       <defs>
        <path id="DejaVuSans-32" d="M 1228 531 
L 3431 531 
L 3431 0 
L 469 0 
L 469 531 
Q 828 903 1448 1529 
Q 2069 2156 2228 2338 
Q 2531 2678 2651 2914 
Q 2772 3150 2772 3378 
Q 2772 3750 2511 3984 
Q 2250 4219 1831 4219 
Q 1534 4219 1204 4116 
Q 875 4013 500 3803 
L 500 4441 
Q 881 4594 1212 4672 
Q 1544 4750 1819 4750 
Q 2544 4750 2975 4387 
Q 3406 4025 3406 3419 
Q 3406 3131 3298 2873 
Q 3191 2616 2906 2266 
Q 2828 2175 2409 1742 
Q 1991 1309 1228 531 
z
" transform="scale(0.015625)"/>
       </defs>
       <use xlink:href="#DejaVuSans-32"/>
      </g>
     </g>
    </g>
    <g id="xtick_2">
     <g id="line2d_2">
      <g>
       <use xlink:href="#m92b4b2d2bf" x="190.177225" y="316.44327" style="stroke: #000000; stroke-width: 0.8"/>
      </g>
     </g>
     <g id="text_2">
      <!-- 3 -->
      <g transform="translate(186.995975 331.041707) scale(0.1 -0.1)">
       <defs>
        <path id="DejaVuSans-33" d="M 2597 2516 
Q 3050 2419 3304 2112 
Q 3559 1806 3559 1356 
Q 3559 666 3084 287 
Q 2609 -91 1734 -91 
Q 1441 -91 1130 -33 
Q 819 25 488 141 
L 488 750 
Q 750 597 1062 519 
Q 1375 441 1716 441 
Q 2309 441 2620 675 
Q 2931 909 2931 1356 
Q 2931 1769 2642 2001 
Q 2353 2234 1838 2234 
L 1294 2234 
L 1294 2753 
L 1863 2753 
Q 2328 2753 2575 2939 
Q 2822 3125 2822 3475 
Q 2822 3834 2567 4026 
Q 2313 4219 1838 4219 
Q 1578 4219 1281 4162 
Q 984 4106 628 3988 
L 628 4550 
Q 988 4650 1302 4700 
Q 1616 4750 1894 4750 
Q 2613 4750 3031 4423 
Q 3450 4097 3450 3541 
Q 3450 3153 3228 2886 
Q 3006 2619 2597 2516 
z
" transform="scale(0.015625)"/>
       </defs>
       <use xlink:href="#DejaVuSans-33"/>
      </g>
     </g>
    </g>
    <g id="xtick_3">
     <g id="line2d_3">
      <g>
       <use xlink:href="#m92b4b2d2bf" x="276.552861" y="316.44327" style="stroke: #000000; stroke-width: 0.8"/>
      </g>
     </g>
     <g id="text_3">
      <!-- 4 -->
      <g transform="translate(273.371611 331.041707) scale(0.1 -0.1)">
       <defs>
        <path id="DejaVuSans-34" d="M 2419 4116 
L 825 1625 
L 2419 1625 
L 2419 4116 
z
M 2253 4666 
L 3047 4666 
L 3047 1625 
L 3713 1625 
L 3713 1100 
L 3047 1100 
L 3047 0 
L 2419 0 
L 2419 1100 
L 313 1100 
L 313 1709 
L 2253 4666 
z
" transform="scale(0.015625)"/>
       </defs>
       <use xlink:href="#DejaVuSans-34"/>
      </g>
     </g>
    </g>
    <g id="xtick_4">
     <g id="line2d_4">
      <g>
       <use xlink:href="#m92b4b2d2bf" x="362.928497" y="316.44327" style="stroke: #000000; stroke-width: 0.8"/>
      </g>
     </g>
     <g id="text_4">
      <!-- 5 -->
      <g transform="translate(359.747247 331.041707) scale(0.1 -0.1)">
       <defs>
        <path id="DejaVuSans-35" d="M 691 4666 
L 3169 4666 
L 3169 4134 
L 1269 4134 
L 1269 2991 
Q 1406 3038 1543 3061 
Q 1681 3084 1819 3084 
Q 2600 3084 3056 2656 
Q 3513 2228 3513 1497 
Q 3513 744 3044 326 
Q 2575 -91 1722 -91 
Q 1428 -91 1123 -41 
Q 819 9 494 109 
L 494 744 
Q 775 591 1075 516 
Q 1375 441 1709 441 
Q 2250 441 2565 725 
Q 2881 1009 2881 1497 
Q 2881 1984 2565 2268 
Q 2250 2553 1709 2553 
Q 1456 2553 1204 2497 
Q 953 2441 691 2322 
L 691 4666 
z
" transform="scale(0.015625)"/>
       </defs>
       <use xlink:href="#DejaVuSans-35"/>
      </g>
     </g>
    </g>
    <g id="xtick_5">
     <g id="line2d_5">
      <g>
       <use xlink:href="#m92b4b2d2bf" x="449.304133" y="316.44327" style="stroke: #000000; stroke-width: 0.8"/>
      </g>
     </g>
     <g id="text_5">
      <!-- 6 -->
      <g transform="translate(446.122883 331.041707) scale(0.1 -0.1)">
       <defs>
        <path id="DejaVuSans-36" d="M 2113 2584 
Q 1688 2584 1439 2293 
Q 1191 2003 1191 1497 
Q 1191 994 1439 701 
Q 1688 409 2113 409 
Q 2538 409 2786 701 
Q 3034 994 3034 1497 
Q 3034 2003 2786 2293 
Q 2538 2584 2113 2584 
z
M 3366 4563 
L 3366 3988 
Q 3128 4100 2886 4159 
Q 2644 4219 2406 4219 
Q 1781 4219 1451 3797 
Q 1122 3375 1075 2522 
Q 1259 2794 1537 2939 
Q 1816 3084 2150 3084 
Q 2853 3084 3261 2657 
Q 3669 2231 3669 1497 
Q 3669 778 3244 343 
Q 2819 -91 2113 -91 
Q 1303 -91 875 529 
Q 447 1150 447 2328 
Q 447 3434 972 4092 
Q 1497 4750 2381 4750 
Q 2619 4750 2861 4703 
Q 3103 4656 3366 4563 
z
" transform="scale(0.015625)"/>
       </defs>
       <use xlink:href="#DejaVuSans-36"/>
      </g>
     </g>
    </g>
    <g id="text_6">
     <!-- objective value -->
     <g transform="translate(214.809916 344.719832) scale(0.1 -0.1)">
      <defs>
       <path id="DejaVuSans-6f" d="M 1959 3097 
Q 1497 3097 1228 2736 
Q 959 2375 959 1747 
Q 959 1119 1226 758 
Q 1494 397 1959 397 
Q 2419 397 2687 759 
Q 2956 1122 2956 1747 
Q 2956 2369 2687 2733 
Q 2419 3097 1959 3097 
z
M 1959 3584 
Q 2709 3584 3137 3096 
Q 3566 2609 3566 1747 
Q 3566 888 3137 398 
Q 2709 -91 1959 -91 
Q 1206 -91 779 398 
Q 353 888 353 1747 
Q 353 2609 779 3096 
Q 1206 3584 1959 3584 
z
" transform="scale(0.015625)"/>
       <path id="DejaVuSans-62" d="M 3116 1747 
Q 3116 2381 2855 2742 
Q 2594 3103 2138 3103 
Q 1681 3103 1420 2742 
Q 1159 2381 1159 1747 
Q 1159 1113 1420 752 
Q 1681 391 2138 391 
Q 2594 391 2855 752 
Q 3116 1113 3116 1747 
z
M 1159 2969 
Q 1341 3281 1617 3432 
Q 1894 3584 2278 3584 
Q 2916 3584 3314 3078 
Q 3713 2572 3713 1747 
Q 3713 922 3314 415 
Q 2916 -91 2278 -91 
Q 1894 -91 1617 61 
Q 1341 213 1159 525 
L 1159 0 
L 581 0 
L 581 4863 
L 1159 4863 
L 1159 2969 
z
" transform="scale(0.015625)"/>
       <path id="DejaVuSans-6a" d="M 603 3500 
L 1178 3500 
L 1178 -63 
Q 1178 -731 923 -1031 
Q 669 -1331 103 -1331 
L -116 -1331 
L -116 -844 
L 38 -844 
Q 366 -844 484 -692 
Q 603 -541 603 -63 
L 603 3500 
z
M 603 4863 
L 1178 4863 
L 1178 4134 
L 603 4134 
L 603 4863 
z
" transform="scale(0.015625)"/>
       <path id="DejaVuSans-65" d="M 3597 1894 
L 3597 1613 
L 953 1613 
Q 991 1019 1311 708 
Q 1631 397 2203 397 
Q 2534 397 2845 478 
Q 3156 559 3463 722 
L 3463 178 
Q 3153 47 2828 -22 
Q 2503 -91 2169 -91 
Q 1331 -91 842 396 
Q 353 884 353 1716 
Q 353 2575 817 3079 
Q 1281 3584 2069 3584 
Q 2775 3584 3186 3129 
Q 3597 2675 3597 1894 
z
M 3022 2063 
Q 3016 2534 2758 2815 
Q 2500 3097 2075 3097 
Q 1594 3097 1305 2825 
Q 1016 2553 972 2059 
L 3022 2063 
z
" transform="scale(0.015625)"/>
       <path id="DejaVuSans-63" d="M 3122 3366 
L 3122 2828 
Q 2878 2963 2633 3030 
Q 2388 3097 2138 3097 
Q 1578 3097 1268 2742 
Q 959 2388 959 1747 
Q 959 1106 1268 751 
Q 1578 397 2138 397 
Q 2388 397 2633 464 
Q 2878 531 3122 666 
L 3122 134 
Q 2881 22 2623 -34 
Q 2366 -91 2075 -91 
Q 1284 -91 818 406 
Q 353 903 353 1747 
Q 353 2603 823 3093 
Q 1294 3584 2113 3584 
Q 2378 3584 2631 3529 
Q 2884 3475 3122 3366 
z
" transform="scale(0.015625)"/>
       <path id="DejaVuSans-74" d="M 1172 4494 
L 1172 3500 
L 2356 3500 
L 2356 3053 
L 1172 3053 
L 1172 1153 
Q 1172 725 1289 603 
Q 1406 481 1766 481 
L 2356 481 
L 2356 0 
L 1766 0 
Q 1100 0 847 248 
Q 594 497 594 1153 
L 594 3053 
L 172 3053 
L 172 3500 
L 594 3500 
L 594 4494 
L 1172 4494 
z
" transform="scale(0.015625)"/>
       <path id="DejaVuSans-69" d="M 603 3500 
L 1178 3500 
L 1178 0 
L 603 0 
L 603 3500 
z
M 603 4863 
L 1178 4863 
L 1178 4134 
L 603 4134 
L 603 4863 
z
" transform="scale(0.015625)"/>
       <path id="DejaVuSans-76" d="M 191 3500 
L 800 3500 
L 1894 563 
L 2988 3500 
L 3597 3500 
L 2284 0 
L 1503 0 
L 191 3500 
z
" transform="scale(0.015625)"/>
       <path id="DejaVuSans-20" transform="scale(0.015625)"/>
       <path id="DejaVuSans-61" d="M 2194 1759 
Q 1497 1759 1228 1600 
Q 959 1441 959 1056 
Q 959 750 1161 570 
Q 1363 391 1709 391 
Q 2188 391 2477 730 
Q 2766 1069 2766 1631 
L 2766 1759 
L 2194 1759 
z
M 3341 1997 
L 3341 0 
L 2766 0 
L 2766 531 
Q 2569 213 2275 61 
Q 1981 -91 1556 -91 
Q 1019 -91 701 211 
Q 384 513 384 1019 
Q 384 1609 779 1909 
Q 1175 2209 1959 2209 
L 2766 2209 
L 2766 2266 
Q 2766 2663 2505 2880 
Q 2244 3097 1772 3097 
Q 1472 3097 1187 3025 
Q 903 2953 641 2809 
L 641 3341 
Q 956 3463 1253 3523 
Q 1550 3584 1831 3584 
Q 2591 3584 2966 3190 
Q 3341 2797 3341 1997 
z
" transform="scale(0.015625)"/>
       <path id="DejaVuSans-6c" d="M 603 4863 
L 1178 4863 
L 1178 0 
L 603 0 
L 603 4863 
z
" transform="scale(0.015625)"/>
       <path id="DejaVuSans-75" d="M 544 1381 
L 544 3500 
L 1119 3500 
L 1119 1403 
Q 1119 906 1312 657 
Q 1506 409 1894 409 
Q 2359 409 2629 706 
Q 2900 1003 2900 1516 
L 2900 3500 
L 3475 3500 
L 3475 0 
L 2900 0 
L 2900 538 
Q 2691 219 2414 64 
Q 2138 -91 1772 -91 
Q 1169 -91 856 284 
Q 544 659 544 1381 
z
M 1991 3584 
L 1991 3584 
z
" transform="scale(0.015625)"/>
      </defs>
      <use xlink:href="#DejaVuSans-6f"/>
      <use xlink:href="#DejaVuSans-62" transform="translate(61.181641 0)"/>
      <use xlink:href="#DejaVuSans-6a" transform="translate(124.658203 0)"/>
      <use xlink:href="#DejaVuSans-65" transform="translate(152.441406 0)"/>
      <use xlink:href="#DejaVuSans-63" transform="translate(213.964844 0)"/>
      <use xlink:href="#DejaVuSans-74" transform="translate(268.945312 0)"/>
      <use xlink:href="#DejaVuSans-69" transform="translate(308.154297 0)"/>
      <use xlink:href="#DejaVuSans-76" transform="translate(335.9375 0)"/>
      <use xlink:href="#DejaVuSans-65" transform="translate(395.117188 0)"/>
      <use xlink:href="#DejaVuSans-20" transform="translate(456.640625 0)"/>
      <use xlink:href="#DejaVuSans-76" transform="translate(488.427734 0)"/>
      <use xlink:href="#DejaVuSans-61" transform="translate(547.607422 0)"/>
      <use xlink:href="#DejaVuSans-6c" transform="translate(608.886719 0)"/>
      <use xlink:href="#DejaVuSans-75" transform="translate(636.669922 0)"/>
      <use xlink:href="#DejaVuSans-65" transform="translate(700.048828 0)"/>
     </g>
    </g>
    <g id="text_7">
     <!-- 1e6 -->
     <g transform="translate(443.121395 343.719832) scale(0.1 -0.1)">
      <defs>
       <path id="DejaVuSans-31" d="M 794 531 
L 1825 531 
L 1825 4091 
L 703 3866 
L 703 4441 
L 1819 4666 
L 2450 4666 
L 2450 531 
L 3481 531 
L 3481 0 
L 794 0 
L 794 531 
z
" transform="scale(0.015625)"/>
      </defs>
      <use xlink:href="#DejaVuSans-31"/>
      <use xlink:href="#DejaVuSans-65" transform="translate(63.623047 0)"/>
      <use xlink:href="#DejaVuSans-36" transform="translate(125.146484 0)"/>
     </g>
    </g>
   </g>
   <g id="matplotlib.axis_2">
    <g id="ytick_1">
     <g id="line2d_6">
      <defs>
       <path id="m6a4c48d3e0" d="M 0 0 
L -3.5 0 
" style="stroke: #000000; stroke-width: 0.8"/>
      </defs>
      <g>
       <use xlink:href="#m6a4c48d3e0" x="43.78125" y="316.44327" style="stroke: #000000; stroke-width: 0.8"/>
      </g>
     </g>
     <g id="text_8">
      <!-- 0.0 -->
      <g transform="translate(20.878125 320.242489) scale(0.1 -0.1)">
       <defs>
        <path id="DejaVuSans-30" d="M 2034 4250 
Q 1547 4250 1301 3770 
Q 1056 3291 1056 2328 
Q 1056 1369 1301 889 
Q 1547 409 2034 409 
Q 2525 409 2770 889 
Q 3016 1369 3016 2328 
Q 3016 3291 2770 3770 
Q 2525 4250 2034 4250 
z
M 2034 4750 
Q 2819 4750 3233 4129 
Q 3647 3509 3647 2328 
Q 3647 1150 3233 529 
Q 2819 -91 2034 -91 
Q 1250 -91 836 529 
Q 422 1150 422 2328 
Q 422 3509 836 4129 
Q 1250 4750 2034 4750 
z
" transform="scale(0.015625)"/>
        <path id="DejaVuSans-2e" d="M 684 794 
L 1344 794 
L 1344 0 
L 684 0 
L 684 794 
z
" transform="scale(0.015625)"/>
       </defs>
       <use xlink:href="#DejaVuSans-30"/>
       <use xlink:href="#DejaVuSans-2e" transform="translate(63.623047 0)"/>
       <use xlink:href="#DejaVuSans-30" transform="translate(95.410156 0)"/>
      </g>
     </g>
    </g>
    <g id="ytick_2">
     <g id="line2d_7">
      <g>
       <use xlink:href="#m6a4c48d3e0" x="43.78125" y="255.35446" style="stroke: #000000; stroke-width: 0.8"/>
      </g>
     </g>
     <g id="text_9">
      <!-- 0.2 -->
      <g transform="translate(20.878125 259.153678) scale(0.1 -0.1)">
       <use xlink:href="#DejaVuSans-30"/>
       <use xlink:href="#DejaVuSans-2e" transform="translate(63.623047 0)"/>
       <use xlink:href="#DejaVuSans-32" transform="translate(95.410156 0)"/>
      </g>
     </g>
    </g>
    <g id="ytick_3">
     <g id="line2d_8">
      <g>
       <use xlink:href="#m6a4c48d3e0" x="43.78125" y="194.265649" style="stroke: #000000; stroke-width: 0.8"/>
      </g>
     </g>
     <g id="text_10">
      <!-- 0.4 -->
      <g transform="translate(20.878125 198.064868) scale(0.1 -0.1)">
       <use xlink:href="#DejaVuSans-30"/>
       <use xlink:href="#DejaVuSans-2e" transform="translate(63.623047 0)"/>
       <use xlink:href="#DejaVuSans-34" transform="translate(95.410156 0)"/>
      </g>
     </g>
    </g>
    <g id="ytick_4">
     <g id="line2d_9">
      <g>
       <use xlink:href="#m6a4c48d3e0" x="43.78125" y="133.176839" style="stroke: #000000; stroke-width: 0.8"/>
      </g>
     </g>
     <g id="text_11">
      <!-- 0.6 -->
      <g transform="translate(20.878125 136.976058) scale(0.1 -0.1)">
       <use xlink:href="#DejaVuSans-30"/>
       <use xlink:href="#DejaVuSans-2e" transform="translate(63.623047 0)"/>
       <use xlink:href="#DejaVuSans-36" transform="translate(95.410156 0)"/>
      </g>
     </g>
    </g>
    <g id="ytick_5">
     <g id="line2d_10">
      <g>
       <use xlink:href="#m6a4c48d3e0" x="43.78125" y="72.088029" style="stroke: #000000; stroke-width: 0.8"/>
      </g>
     </g>
     <g id="text_12">
      <!-- 0.8 -->
      <g transform="translate(20.878125 75.887248) scale(0.1 -0.1)">
       <defs>
        <path id="DejaVuSans-38" d="M 2034 2216 
Q 1584 2216 1326 1975 
Q 1069 1734 1069 1313 
Q 1069 891 1326 650 
Q 1584 409 2034 409 
Q 2484 409 2743 651 
Q 3003 894 3003 1313 
Q 3003 1734 2745 1975 
Q 2488 2216 2034 2216 
z
M 1403 2484 
Q 997 2584 770 2862 
Q 544 3141 544 3541 
Q 544 4100 942 4425 
Q 1341 4750 2034 4750 
Q 2731 4750 3128 4425 
Q 3525 4100 3525 3541 
Q 3525 3141 3298 2862 
Q 3072 2584 2669 2484 
Q 3125 2378 3379 2068 
Q 3634 1759 3634 1313 
Q 3634 634 3220 271 
Q 2806 -91 2034 -91 
Q 1263 -91 848 271 
Q 434 634 434 1313 
Q 434 1759 690 2068 
Q 947 2378 1403 2484 
z
M 1172 3481 
Q 1172 3119 1398 2916 
Q 1625 2713 2034 2713 
Q 2441 2713 2670 2916 
Q 2900 3119 2900 3481 
Q 2900 3844 2670 4047 
Q 2441 4250 2034 4250 
Q 1625 4250 1398 4047 
Q 1172 3844 1172 3481 
z
" transform="scale(0.015625)"/>
       </defs>
       <use xlink:href="#DejaVuSans-30"/>
       <use xlink:href="#DejaVuSans-2e" transform="translate(63.623047 0)"/>
       <use xlink:href="#DejaVuSans-38" transform="translate(95.410156 0)"/>
      </g>
     </g>
    </g>
    <g id="ytick_6">
     <g id="line2d_11">
      <g>
       <use xlink:href="#m6a4c48d3e0" x="43.78125" y="10.999219" style="stroke: #000000; stroke-width: 0.8"/>
      </g>
     </g>
     <g id="text_13">
      <!-- 1.0 -->
      <g transform="translate(20.878125 14.798438) scale(0.1 -0.1)">
       <use xlink:href="#DejaVuSans-31"/>
       <use xlink:href="#DejaVuSans-2e" transform="translate(63.623047 0)"/>
       <use xlink:href="#DejaVuSans-30" transform="translate(95.410156 0)"/>
      </g>
     </g>
    </g>
    <g id="text_14">
     <!-- CDF -->
     <g transform="translate(14.798438 173.938432) rotate(-90) scale(0.1 -0.1)">
      <defs>
       <path id="DejaVuSans-43" d="M 4122 4306 
L 4122 3641 
Q 3803 3938 3442 4084 
Q 3081 4231 2675 4231 
Q 1875 4231 1450 3742 
Q 1025 3253 1025 2328 
Q 1025 1406 1450 917 
Q 1875 428 2675 428 
Q 3081 428 3442 575 
Q 3803 722 4122 1019 
L 4122 359 
Q 3791 134 3420 21 
Q 3050 -91 2638 -91 
Q 1578 -91 968 557 
Q 359 1206 359 2328 
Q 359 3453 968 4101 
Q 1578 4750 2638 4750 
Q 3056 4750 3426 4639 
Q 3797 4528 4122 4306 
z
" transform="scale(0.015625)"/>
       <path id="DejaVuSans-44" d="M 1259 4147 
L 1259 519 
L 2022 519 
Q 2988 519 3436 956 
Q 3884 1394 3884 2338 
Q 3884 3275 3436 3711 
Q 2988 4147 2022 4147 
L 1259 4147 
z
M 628 4666 
L 1925 4666 
Q 3281 4666 3915 4102 
Q 4550 3538 4550 2338 
Q 4550 1131 3912 565 
Q 3275 0 1925 0 
L 628 0 
L 628 4666 
z
" transform="scale(0.015625)"/>
       <path id="DejaVuSans-46" d="M 628 4666 
L 3309 4666 
L 3309 4134 
L 1259 4134 
L 1259 2759 
L 3109 2759 
L 3109 2228 
L 1259 2228 
L 1259 0 
L 628 0 
L 628 4666 
z
" transform="scale(0.015625)"/>
      </defs>
      <use xlink:href="#DejaVuSans-43"/>
      <use xlink:href="#DejaVuSans-44" transform="translate(69.824219 0)"/>
      <use xlink:href="#DejaVuSans-46" transform="translate(146.826172 0)"/>
     </g>
    </g>
   </g>
   <g id="line2d_12">
    <path d="M 203.002409 313.388829 
L 216.502575 310.334389 
L 243.91207 307.279948 
L 246.062564 304.225508 
L 249.764343 301.171067 
L 254.183536 298.116627 
L 254.70762 295.062186 
L 263.618261 292.007746 
L 264.767532 288.953305 
L 281.011722 285.898865 
L 285.031947 282.844424 
L 286.629291 279.789984 
L 290.994673 276.735543 
L 291.958474 273.681103 
L 295.296201 270.626662 
L 297.504567 267.572222 
L 305.050645 264.517781 
L 306.566019 261.463341 
L 306.683792 258.4089 
L 309.427946 255.35446 
L 311.481916 252.300019 
L 312.5173 249.245579 
L 312.56403 246.191138 
L 313.695421 243.136698 
L 316.483583 240.082257 
L 318.277087 237.027817 
L 319.012921 233.973376 
L 319.272912 230.918936 
L 323.026019 227.864495 
L 324.213814 224.810055 
L 324.958717 221.755614 
L 326.075641 218.701174 
L 326.328721 215.646733 
L 327.321652 212.592293 
L 327.41429 209.537852 
L 328.239178 206.483412 
L 329.683681 203.428971 
L 331.181391 200.374531 
L 332.658198 197.32009 
L 333.068439 194.265649 
L 333.43247 191.211209 
L 333.793779 188.156768 
L 336.010005 185.102328 
L 336.401157 182.047887 
L 339.624437 178.993447 
L 340.35064 175.939006 
L 341.053997 172.884566 
L 345.938452 169.830125 
L 346.258172 166.775685 
L 346.273935 163.721244 
L 346.585881 160.666804 
L 347.032789 157.612363 
L 348.35615 154.557923 
L 349.714191 151.503482 
L 349.804367 148.449042 
L 350.176646 145.394601 
L 351.292489 142.340161 
L 351.580854 139.28572 
L 352.664653 136.23128 
L 352.873466 133.176839 
L 356.097696 130.122399 
L 357.545783 127.067958 
L 359.68466 124.013518 
L 362.780017 120.959077 
L 363.194318 117.904637 
L 363.25098 114.850196 
L 366.679359 111.795756 
L 368.273983 108.741315 
L 368.510393 105.686875 
L 370.216355 102.632434 
L 371.198273 99.577994 
L 371.481326 96.523553 
L 375.464495 93.469113 
L 380.330423 90.414672 
L 381.771039 87.360232 
L 384.441731 84.305791 
L 385.238589 81.251351 
L 385.795842 78.19691 
L 387.421086 75.14247 
L 388.623046 72.088029 
L 390.068283 69.033588 
L 390.797164 65.979148 
L 391.672106 62.924707 
L 392.570197 59.870267 
L 392.786567 56.815826 
L 392.838825 53.761386 
L 399.262365 50.706945 
L 400.176392 47.652505 
L 402.005439 44.598064 
L 402.101446 41.543624 
L 404.714697 38.489183 
L 406.12763 35.434743 
L 406.289671 32.380302 
L 408.174085 29.325862 
L 412.979334 26.271421 
L 413.97084 23.216981 
L 413.980989 20.16254 
L 437.289627 17.1081 
L 442.145493 14.053659 
L 442.989599 10.999219 
" clip-path="url(#pf90fe64053)" style="fill: none; stroke-dasharray: 5.55,2.4; stroke-dashoffset: 0; stroke: #1f77b4; stroke-opacity: 0.5; stroke-width: 1.5"/>
   </g>
   <g id="line2d_13">
    <path d="M 199.154547 313.388829 
L 212.645342 310.334389 
L 226.635798 307.279948 
L 230.718796 304.225508 
L 235.733484 301.171067 
L 235.899563 298.116627 
L 239.016471 295.062186 
L 243.068266 292.007746 
L 244.427775 288.953305 
L 253.59413 285.898865 
L 266.699215 282.844424 
L 269.87177 279.789984 
L 271.44642 276.735543 
L 273.122625 273.681103 
L 276.16294 270.626662 
L 282.492741 267.572222 
L 282.91177 264.517781 
L 285.039742 261.463341 
L 287.223988 258.4089 
L 288.301869 255.35446 
L 295.863559 252.300019 
L 296.697732 249.245579 
L 297.495282 246.191138 
L 297.507115 243.136698 
L 299.339013 240.082257 
L 300.302533 237.027817 
L 301.264714 233.973376 
L 305.137971 230.918936 
L 305.233934 227.864495 
L 305.500101 224.810055 
L 305.524329 221.755614 
L 306.620436 218.701174 
L 307.456941 215.646733 
L 307.978649 212.592293 
L 308.898377 209.537852 
L 309.100064 206.483412 
L 309.46552 203.428971 
L 311.559654 200.374531 
L 312.666428 197.32009 
L 312.918386 194.265649 
L 314.424258 191.211209 
L 314.700531 188.156768 
L 314.847197 185.102328 
L 315.124938 182.047887 
L 315.158063 178.993447 
L 315.288101 175.939006 
L 316.701423 172.884566 
L 320.026021 169.830125 
L 321.011178 166.775685 
L 321.759148 163.721244 
L 322.23836 160.666804 
L 322.936361 157.612363 
L 325.226741 154.557923 
L 326.297194 151.503482 
L 326.812814 148.449042 
L 327.082435 145.394601 
L 333.753701 142.340161 
L 337.120839 139.28572 
L 337.29264 136.23128 
L 337.432525 133.176839 
L 338.498573 130.122399 
L 338.559339 127.067958 
L 339.537888 124.013518 
L 340.86505 120.959077 
L 341.587323 117.904637 
L 343.262535 114.850196 
L 343.366445 111.795756 
L 343.906681 108.741315 
L 345.823486 105.686875 
L 345.976371 102.632434 
L 348.819728 99.577994 
L 349.529174 96.523553 
L 350.249201 93.469113 
L 351.877727 90.414672 
L 356.378071 87.360232 
L 357.57947 84.305791 
L 361.025555 81.251351 
L 361.860376 78.19691 
L 362.758985 75.14247 
L 364.843445 72.088029 
L 365.686384 69.033588 
L 368.925384 65.979148 
L 370.667711 62.924707 
L 374.736694 59.870267 
L 376.891809 56.815826 
L 377.103732 53.761386 
L 377.865608 50.706945 
L 379.938839 47.652505 
L 381.145291 44.598064 
L 381.805287 41.543624 
L 382.492146 38.489183 
L 386.689225 35.434743 
L 388.782668 32.380302 
L 393.31212 29.325862 
L 395.014713 26.271421 
L 395.647372 23.216981 
L 398.318452 20.16254 
L 398.47721 17.1081 
L 403.223249 14.053659 
L 404.772914 10.999219 
" clip-path="url(#pf90fe64053)" style="fill: none; stroke: #1f77b4; stroke-width: 1.5; stroke-linecap: square"/>
   </g>
   <g id="line2d_14">
    <path d="M 62.791171 313.388829 
L 93.897715 310.334389 
L 96.203254 307.279948 
L 101.924409 304.225508 
L 104.332087 301.171067 
L 109.445524 298.116627 
L 110.663334 295.062186 
L 110.888062 292.007746 
L 112.414277 288.953305 
L 115.498059 285.898865 
L 117.434234 282.844424 
L 119.173818 279.789984 
L 119.896069 276.735543 
L 121.896939 273.681103 
L 122.525495 270.626662 
L 125.347473 267.572222 
L 126.187563 264.517781 
L 129.204664 261.463341 
L 129.211703 258.4089 
L 133.121842 255.35446 
L 135.087795 252.300019 
L 136.342228 249.245579 
L 138.833647 246.191138 
L 143.459105 243.136698 
L 145.067225 240.082257 
L 145.759634 237.027817 
L 145.937611 233.973376 
L 147.680067 230.918936 
L 147.914317 227.864495 
L 148.156471 224.810055 
L 148.306031 221.755614 
L 148.870021 218.701174 
L 149.177259 215.646733 
L 151.082273 212.592293 
L 151.275841 209.537852 
L 151.689494 206.483412 
L 152.175487 203.428971 
L 153.237993 200.374531 
L 154.268239 197.32009 
L 154.581804 194.265649 
L 156.537845 191.211209 
L 158.119987 188.156768 
L 161.276499 185.102328 
L 162.676021 182.047887 
L 167.641519 178.993447 
L 168.847928 175.939006 
L 169.962778 172.884566 
L 171.242088 169.830125 
L 171.764358 166.775685 
L 172.220594 163.721244 
L 174.162189 160.666804 
L 175.045725 157.612363 
L 175.637096 154.557923 
L 177.022388 151.503482 
L 177.936329 148.449042 
L 180.343186 145.394601 
L 180.745221 142.340161 
L 181.218517 139.28572 
L 183.372552 136.23128 
L 187.880454 133.176839 
L 187.98432 130.122399 
L 188.450965 127.067958 
L 192.279219 124.013518 
L 192.872447 120.959077 
L 195.038619 117.904637 
L 197.715831 114.850196 
L 199.079055 111.795756 
L 201.758082 108.741315 
L 201.779675 105.686875 
L 202.479189 102.632434 
L 203.943817 99.577994 
L 206.047193 96.523553 
L 206.712588 93.469113 
L 207.154443 90.414672 
L 207.55894 87.360232 
L 212.715392 84.305791 
L 215.33184 81.251351 
L 215.896348 78.19691 
L 216.583034 75.14247 
L 219.055235 72.088029 
L 220.756575 69.033588 
L 221.949293 65.979148 
L 226.794751 62.924707 
L 233.113819 59.870267 
L 234.580823 56.815826 
L 241.518601 53.761386 
L 245.406325 50.706945 
L 248.116835 47.652505 
L 251.903414 44.598064 
L 262.534268 41.543624 
L 266.275931 38.489183 
L 266.293552 35.434743 
L 266.392668 32.380302 
L 275.156167 29.325862 
L 279.892402 26.271421 
L 300.894724 23.216981 
L 308.779654 20.16254 
L 310.963057 17.1081 
L 336.842925 14.053659 
L 367.141296 10.999219 
" clip-path="url(#pf90fe64053)" style="fill: none; stroke-dasharray: 5.55,2.4; stroke-dashoffset: 0; stroke: #ff7f0e; stroke-opacity: 0.5; stroke-width: 1.5"/>
   </g>
   <g id="line2d_15">
    <path d="M 62.832502 313.388829 
L 96.025882 310.334389 
L 96.375552 307.279948 
L 103.017234 304.225508 
L 108.472006 301.171067 
L 110.718248 298.116627 
L 115.27318 295.062186 
L 115.544659 292.007746 
L 118.610692 288.953305 
L 119.404052 285.898865 
L 119.764973 282.844424 
L 120.038287 279.789984 
L 121.46653 276.735543 
L 125.98363 273.681103 
L 126.258995 270.626662 
L 129.648289 267.572222 
L 138.412911 264.517781 
L 140.178343 261.463341 
L 141.938764 258.4089 
L 142.412708 255.35446 
L 143.513349 252.300019 
L 144.43949 249.245579 
L 145.237364 246.191138 
L 145.261894 243.136698 
L 145.722406 240.082257 
L 145.727006 237.027817 
L 146.277931 233.973376 
L 146.30393 230.918936 
L 146.392076 227.864495 
L 148.460665 224.810055 
L 151.03982 221.755614 
L 151.065581 218.701174 
L 151.146926 215.646733 
L 151.318295 212.592293 
L 154.814305 209.537852 
L 156.456652 206.483412 
L 156.573345 203.428971 
L 157.381648 200.374531 
L 158.869987 197.32009 
L 160.416154 194.265649 
L 160.634598 191.211209 
L 162.600464 188.156768 
L 163.420299 185.102328 
L 168.624992 182.047887 
L 168.7156 178.993447 
L 172.939369 175.939006 
L 175.642322 172.884566 
L 177.716805 169.830125 
L 178.134907 166.775685 
L 178.778016 163.721244 
L 179.826142 160.666804 
L 183.086779 157.612363 
L 183.100167 154.557923 
L 183.873531 151.503482 
L 185.166618 148.449042 
L 185.638358 145.394601 
L 186.73697 142.340161 
L 192.431586 139.28572 
L 192.728027 136.23128 
L 193.346088 133.176839 
L 193.444599 130.122399 
L 193.682262 127.067958 
L 194.460506 124.013518 
L 195.769875 120.959077 
L 196.44883 117.904637 
L 200.782598 114.850196 
L 205.152687 111.795756 
L 206.107311 108.741315 
L 206.353222 105.686875 
L 212.428064 102.632434 
L 214.329364 99.577994 
L 214.934469 96.523553 
L 215.690817 93.469113 
L 217.069502 90.414672 
L 219.148261 87.360232 
L 222.588214 84.305791 
L 225.301748 81.251351 
L 225.812185 78.19691 
L 226.610295 75.14247 
L 227.203955 72.088029 
L 228.669923 69.033588 
L 230.489037 65.979148 
L 232.615821 62.924707 
L 239.305441 59.870267 
L 239.399029 56.815826 
L 243.70425 53.761386 
L 245.416128 50.706945 
L 248.378597 47.652505 
L 257.927683 44.598064 
L 267.653752 41.543624 
L 274.670477 38.489183 
L 289.442999 35.434743 
L 295.17981 32.380302 
L 298.418248 29.325862 
L 306.101404 26.271421 
L 306.209892 23.216981 
L 307.336922 20.16254 
L 308.915782 17.1081 
L 347.127888 14.053659 
L 378.291224 10.999219 
" clip-path="url(#pf90fe64053)" style="fill: none; stroke: #ff7f0e; stroke-width: 1.5; stroke-linecap: square"/>
   </g>
   <g id="line2d_16">
    <path d="M 64.202722 313.388829 
L 67.77565 310.334389 
L 69.333478 307.279948 
L 69.398908 304.225508 
L 69.683342 301.171067 
L 76.613173 298.116627 
L 76.887286 295.062186 
L 78.634925 292.007746 
L 80.645102 288.953305 
L 86.300417 285.898865 
L 86.777124 282.844424 
L 88.635539 279.789984 
L 88.841847 276.735543 
L 89.174437 273.681103 
L 89.228983 270.626662 
L 89.296485 267.572222 
L 91.606861 264.517781 
L 94.190054 261.463341 
L 94.34864 258.4089 
L 95.026429 255.35446 
L 96.098135 252.300019 
L 99.053952 249.245579 
L 101.264823 246.191138 
L 104.35543 243.136698 
L 104.919074 240.082257 
L 105.383343 237.027817 
L 105.505694 233.973376 
L 105.807879 230.918936 
L 106.969329 227.864495 
L 107.820345 224.810055 
L 107.917129 221.755614 
L 109.117146 218.701174 
L 113.39464 215.646733 
L 113.558581 212.592293 
L 114.018099 209.537852 
L 114.188432 206.483412 
L 114.875291 203.428971 
L 115.022562 200.374531 
L 115.652542 197.32009 
L 116.930772 194.265649 
L 119.633034 191.211209 
L 120.787272 188.156768 
L 121.050285 185.102328 
L 122.069172 182.047887 
L 122.16479 178.993447 
L 126.380958 175.939006 
L 127.900823 172.884566 
L 128.510203 169.830125 
L 128.706233 166.775685 
L 129.262406 163.721244 
L 130.18127 160.666804 
L 133.817857 157.612363 
L 134.10471 154.557923 
L 136.665921 151.503482 
L 137.451723 148.449042 
L 137.482775 145.394601 
L 137.78306 142.340161 
L 138.489267 139.28572 
L 138.49825 136.23128 
L 138.614771 133.176839 
L 139.436894 130.122399 
L 139.624373 127.067958 
L 139.763135 124.013518 
L 140.599078 120.959077 
L 140.65708 117.904637 
L 141.693544 114.850196 
L 142.956615 111.795756 
L 142.975315 108.741315 
L 143.220233 105.686875 
L 143.355239 102.632434 
L 143.464331 99.577994 
L 144.088309 96.523553 
L 144.175764 93.469113 
L 145.231663 90.414672 
L 145.675763 87.360232 
L 145.731432 84.305791 
L 146.146035 81.251351 
L 147.882445 78.19691 
L 150.523725 75.14247 
L 153.568855 72.088029 
L 155.422563 69.033588 
L 162.604999 65.979148 
L 166.536818 62.924707 
L 167.109057 59.870267 
L 172.926024 56.815826 
L 175.816066 53.761386 
L 178.523122 50.706945 
L 179.605625 47.652505 
L 179.891614 44.598064 
L 184.739706 41.543624 
L 185.78416 38.489183 
L 186.422519 35.434743 
L 186.932265 32.380302 
L 187.122896 29.325862 
L 187.981815 26.271421 
L 191.366531 23.216981 
L 198.193316 20.16254 
L 202.535333 17.1081 
L 204.299814 14.053659 
L 227.960001 10.999219 
" clip-path="url(#pf90fe64053)" style="fill: none; stroke-dasharray: 5.55,2.4; stroke-dashoffset: 0; stroke: #2ca02c; stroke-opacity: 0.5; stroke-width: 1.5"/>
   </g>
   <g id="line2d_17">
    <path d="M 66.260233 313.388829 
L 69.880063 310.334389 
L 70.048841 307.279948 
L 72.119395 304.225508 
L 73.609893 301.171067 
L 75.242997 298.116627 
L 80.578377 295.062186 
L 83.477359 292.007746 
L 85.704943 288.953305 
L 87.818685 285.898865 
L 88.225341 282.844424 
L 89.703185 279.789984 
L 93.489763 276.735543 
L 94.48412 273.681103 
L 94.616102 270.626662 
L 94.726965 267.572222 
L 95.17046 264.517781 
L 95.907547 261.463341 
L 96.280085 258.4089 
L 96.579549 255.35446 
L 100.43782 252.300019 
L 101.165664 249.245579 
L 103.105186 246.191138 
L 106.898199 243.136698 
L 106.98086 240.082257 
L 107.372272 237.027817 
L 108.123567 233.973376 
L 108.821482 230.918936 
L 109.584827 227.864495 
L 110.63943 224.810055 
L 111.491612 221.755614 
L 111.518518 218.701174 
L 113.411354 215.646733 
L 113.925073 212.592293 
L 115.939093 209.537852 
L 116.772532 206.483412 
L 117.941367 203.428971 
L 120.444792 200.374531 
L 121.674306 197.32009 
L 122.81075 194.265649 
L 123.704177 191.211209 
L 124.066177 188.156768 
L 124.092003 185.102328 
L 126.761097 182.047887 
L 127.650507 178.993447 
L 128.667753 175.939006 
L 129.900592 172.884566 
L 130.11787 169.830125 
L 130.824077 166.775685 
L 134.50856 163.721244 
L 134.752096 160.666804 
L 138.409456 157.612363 
L 139.568531 154.557923 
L 140.285924 151.503482 
L 141.605311 148.449042 
L 141.652429 145.394601 
L 142.041811 142.340161 
L 142.110134 139.28572 
L 143.495513 136.23128 
L 144.418393 133.176839 
L 144.488314 130.122399 
L 144.671646 127.067958 
L 144.719023 124.013518 
L 144.94455 120.959077 
L 145.053859 117.904637 
L 145.122311 114.850196 
L 145.890709 111.795756 
L 146.584435 108.741315 
L 146.600501 105.686875 
L 146.693182 102.632434 
L 148.03805 99.577994 
L 148.668636 96.523553 
L 148.804332 93.469113 
L 150.746834 90.414672 
L 151.438443 87.360232 
L 152.128714 84.305791 
L 152.840406 81.251351 
L 155.33744 78.19691 
L 155.585554 75.14247 
L 157.721839 72.088029 
L 157.996773 69.033588 
L 169.843537 65.979148 
L 170.949922 62.924707 
L 174.786037 59.870267 
L 178.982252 56.815826 
L 182.611065 53.761386 
L 187.045806 50.706945 
L 187.997536 47.652505 
L 188.27722 44.598064 
L 189.335019 41.543624 
L 189.725135 38.489183 
L 190.490941 35.434743 
L 194.488233 32.380302 
L 196.43298 29.325862 
L 197.1594 26.271421 
L 203.670309 23.216981 
L 207.940418 20.16254 
L 209.315647 17.1081 
L 210.501283 14.053659 
L 237.489048 10.999219 
" clip-path="url(#pf90fe64053)" style="fill: none; stroke: #2ca02c; stroke-width: 1.5; stroke-linecap: square"/>
   </g>
   <g id="patch_3">
    <path d="M 43.78125 316.44327 
L 43.78125 10.999219 
" style="fill: none; stroke: #000000; stroke-width: 0.8; stroke-linejoin: miter; stroke-linecap: square"/>
   </g>
   <g id="patch_4">
    <path d="M 461.99952 316.44327 
L 461.99952 10.999219 
" style="fill: none; stroke: #000000; stroke-width: 0.8; stroke-linejoin: miter; stroke-linecap: square"/>
   </g>
   <g id="patch_5">
    <path d="M 43.78125 316.44327 
L 461.99952 316.44327 
" style="fill: none; stroke: #000000; stroke-width: 0.8; stroke-linejoin: miter; stroke-linecap: square"/>
   </g>
   <g id="patch_6">
    <path d="M 43.78125 10.999219 
L 461.99952 10.999219 
" style="fill: none; stroke: #000000; stroke-width: 0.8; stroke-linejoin: miter; stroke-linecap: square"/>
   </g>
  </g>
 </g>
 <defs>
  <clipPath id="pf90fe64053">
   <rect x="43.78125" y="10.999219" width="418.21827" height="305.444051"/>
  </clipPath>
 </defs>
</svg>
