<?xml version="1.0" encoding="utf-8" standalone="no"?>
<!DOCTYPE svg PUBLIC "-//W3C//DTD SVG 1.1//EN"
  "http://www.w3.org/Graphics/SVG/1.1/DTD/svg11.dtd">
<svg xmlns:xlink="http://www.w3.org/1999/xlink" width="1144.41566pt" height="641.330875pt" viewBox="0 0 1144.41566 641.330875" xmlns="http://www.w3.org/2000/svg" version="1.1">
 <metadata>
  <rdf:RDF xmlns:dc="http://purl.org/dc/elements/1.1/" xmlns:cc="http://creativecommons.org/ns#" xmlns:rdf="http://www.w3.org/1999/02/22-rdf-syntax-ns#">
   <cc:Work>
    <dc:type rdf:resource="http://purl.org/dc/dcmitype/StillImage"/>
    <dc:date>2025-08-08T10:44:30.036109</dc:date>
    <dc:format>image/svg+xml</dc:format>
    <dc:creator>
     <cc:Agent>
      <dc:title>Matplotlib v3.10.3, https://matplotlib.org/</dc:title>
     </cc:Agent>
    </dc:creator>
   </cc:Work>
  </rdf:RDF>
 </metadata>
 <defs>
  <style type="text/css">*{stroke-linejoin: round; stroke-linecap: butt}</style>
 </defs>
 <g id="figure_1">
  <g id="patch_1">
   <path d="M 0 641.330875 
L 1144.41566 641.330875 
L 1144.41566 0 
L 0 0 
z
" style="fill: #ffffff"/>
  </g>
  <g id="axes_1">
   <g id="patch_2">
    <path d="M 134.535 573.44025 
L 1112.727898 573.44025 
L 1112.727898 31.43625 
L 134.535 31.43625 
z
" style="fill: #eaeaf2"/>
   </g>
   <g id="matplotlib.axis_1">
    <g id="xtick_1">
     <g id="line2d_1">
      <path d="M 139.452443 573.44025 
L 139.452443 31.43625 
" clip-path="url(#p450a31326e)" style="fill: none; stroke: #ffffff; stroke-width: 0.8; stroke-linecap: round"/>
     </g>
     <g id="text_1">
      <!-- 2023 -->
      <g style="fill: #262626" transform="translate(108.912443 599.9765) scale(0.24 -0.24)">
       <defs>
        <path id="DejaVuSans-32" d="M 1228 531 
L 3431 531 
L 3431 0 
L 469 0 
L 469 531 
Q 828 903 1448 1529 
Q 2069 2156 2228 2338 
Q 2531 2678 2651 2914 
Q 2772 3150 2772 3378 
Q 2772 3750 2511 3984 
Q 2250 4219 1831 4219 
Q 1534 4219 1204 4116 
Q 875 4013 500 3803 
L 500 4441 
Q 881 4594 1212 4672 
Q 1544 4750 1819 4750 
Q 2544 4750 2975 4387 
Q 3406 4025 3406 3419 
Q 3406 3131 3298 2873 
Q 3191 2616 2906 2266 
Q 2828 2175 2409 1742 
Q 1991 1309 1228 531 
z
" transform="scale(0.015625)"/>
        <path id="DejaVuSans-30" d="M 2034 4250 
Q 1547 4250 1301 3770 
Q 1056 3291 1056 2328 
Q 1056 1369 1301 889 
Q 1547 409 2034 409 
Q 2525 409 2770 889 
Q 3016 1369 3016 2328 
Q 3016 3291 2770 3770 
Q 2525 4250 2034 4250 
z
M 2034 4750 
Q 2819 4750 3233 4129 
Q 3647 3509 3647 2328 
Q 3647 1150 3233 529 
Q 2819 -91 2034 -91 
Q 1250 -91 836 529 
Q 422 1150 422 2328 
Q 422 3509 836 4129 
Q 1250 4750 2034 4750 
z
" transform="scale(0.015625)"/>
        <path id="DejaVuSans-33" d="M 2597 2516 
Q 3050 2419 3304 2112 
Q 3559 1806 3559 1356 
Q 3559 666 3084 287 
Q 2609 -91 1734 -91 
Q 1441 -91 1130 -33 
Q 819 25 488 141 
L 488 750 
Q 750 597 1062 519 
Q 1375 441 1716 441 
Q 2309 441 2620 675 
Q 2931 909 2931 1356 
Q 2931 1769 2642 2001 
Q 2353 2234 1838 2234 
L 1294 2234 
L 1294 2753 
L 1863 2753 
Q 2328 2753 2575 2939 
Q 2822 3125 2822 3475 
Q 2822 3834 2567 4026 
Q 2313 4219 1838 4219 
Q 1578 4219 1281 4162 
Q 984 4106 628 3988 
L 628 4550 
Q 988 4650 1302 4700 
Q 1616 4750 1894 4750 
Q 2613 4750 3031 4423 
Q 3450 4097 3450 3541 
Q 3450 3153 3228 2886 
Q 3006 2619 2597 2516 
z
" transform="scale(0.015625)"/>
       </defs>
       <use xlink:href="#DejaVuSans-32"/>
       <use xlink:href="#DejaVuSans-30" transform="translate(63.623047 0)"/>
       <use xlink:href="#DejaVuSans-32" transform="translate(127.246094 0)"/>
       <use xlink:href="#DejaVuSans-33" transform="translate(190.869141 0)"/>
      </g>
     </g>
    </g>
    <g id="xtick_2">
     <g id="line2d_2">
      <path d="M 277.519113 573.44025 
L 277.519113 31.43625 
" clip-path="url(#p450a31326e)" style="fill: none; stroke: #ffffff; stroke-width: 0.8; stroke-linecap: round"/>
     </g>
     <g id="text_2">
      <!-- 2024 -->
      <g style="fill: #262626" transform="translate(246.979113 599.9765) scale(0.24 -0.24)">
       <defs>
        <path id="DejaVuSans-34" d="M 2419 4116 
L 825 1625 
L 2419 1625 
L 2419 4116 
z
M 2253 4666 
L 3047 4666 
L 3047 1625 
L 3713 1625 
L 3713 1100 
L 3047 1100 
L 3047 0 
L 2419 0 
L 2419 1100 
L 313 1100 
L 313 1709 
L 2253 4666 
z
" transform="scale(0.015625)"/>
       </defs>
       <use xlink:href="#DejaVuSans-32"/>
       <use xlink:href="#DejaVuSans-30" transform="translate(63.623047 0)"/>
       <use xlink:href="#DejaVuSans-32" transform="translate(127.246094 0)"/>
       <use xlink:href="#DejaVuSans-34" transform="translate(190.869141 0)"/>
      </g>
     </g>
    </g>
    <g id="xtick_3">
     <g id="line2d_3">
      <path d="M 415.964047 573.44025 
L 415.964047 31.43625 
" clip-path="url(#p450a31326e)" style="fill: none; stroke: #ffffff; stroke-width: 0.8; stroke-linecap: round"/>
     </g>
     <g id="text_3">
      <!-- 2025 -->
      <g style="fill: #262626" transform="translate(385.424047 599.9765) scale(0.24 -0.24)">
       <defs>
        <path id="DejaVuSans-35" d="M 691 4666 
L 3169 4666 
L 3169 4134 
L 1269 4134 
L 1269 2991 
Q 1406 3038 1543 3061 
Q 1681 3084 1819 3084 
Q 2600 3084 3056 2656 
Q 3513 2228 3513 1497 
Q 3513 744 3044 326 
Q 2575 -91 1722 -91 
Q 1428 -91 1123 -41 
Q 819 9 494 109 
L 494 744 
Q 775 591 1075 516 
Q 1375 441 1709 441 
Q 2250 441 2565 725 
Q 2881 1009 2881 1497 
Q 2881 1984 2565 2268 
Q 2250 2553 1709 2553 
Q 1456 2553 1204 2497 
Q 953 2441 691 2322 
L 691 4666 
z
" transform="scale(0.015625)"/>
       </defs>
       <use xlink:href="#DejaVuSans-32"/>
       <use xlink:href="#DejaVuSans-30" transform="translate(63.623047 0)"/>
       <use xlink:href="#DejaVuSans-32" transform="translate(127.246094 0)"/>
       <use xlink:href="#DejaVuSans-35" transform="translate(190.869141 0)"/>
      </g>
     </g>
    </g>
    <g id="xtick_4">
     <g id="line2d_4">
      <path d="M 554.030717 573.44025 
L 554.030717 31.43625 
" clip-path="url(#p450a31326e)" style="fill: none; stroke: #ffffff; stroke-width: 0.8; stroke-linecap: round"/>
     </g>
     <g id="text_4">
      <!-- 2026 -->
      <g style="fill: #262626" transform="translate(523.490717 599.9765) scale(0.24 -0.24)">
       <defs>
        <path id="DejaVuSans-36" d="M 2113 2584 
Q 1688 2584 1439 2293 
Q 1191 2003 1191 1497 
Q 1191 994 1439 701 
Q 1688 409 2113 409 
Q 2538 409 2786 701 
Q 3034 994 3034 1497 
Q 3034 2003 2786 2293 
Q 2538 2584 2113 2584 
z
M 3366 4563 
L 3366 3988 
Q 3128 4100 2886 4159 
Q 2644 4219 2406 4219 
Q 1781 4219 1451 3797 
Q 1122 3375 1075 2522 
Q 1259 2794 1537 2939 
Q 1816 3084 2150 3084 
Q 2853 3084 3261 2657 
Q 3669 2231 3669 1497 
Q 3669 778 3244 343 
Q 2819 -91 2113 -91 
Q 1303 -91 875 529 
Q 447 1150 447 2328 
Q 447 3434 972 4092 
Q 1497 4750 2381 4750 
Q 2619 4750 2861 4703 
Q 3103 4656 3366 4563 
z
" transform="scale(0.015625)"/>
       </defs>
       <use xlink:href="#DejaVuSans-32"/>
       <use xlink:href="#DejaVuSans-30" transform="translate(63.623047 0)"/>
       <use xlink:href="#DejaVuSans-32" transform="translate(127.246094 0)"/>
       <use xlink:href="#DejaVuSans-36" transform="translate(190.869141 0)"/>
      </g>
     </g>
    </g>
    <g id="xtick_5">
     <g id="line2d_5">
      <path d="M 692.097387 573.44025 
L 692.097387 31.43625 
" clip-path="url(#p450a31326e)" style="fill: none; stroke: #ffffff; stroke-width: 0.8; stroke-linecap: round"/>
     </g>
     <g id="text_5">
      <!-- 2027 -->
      <g style="fill: #262626" transform="translate(661.557387 599.9765) scale(0.24 -0.24)">
       <defs>
        <path id="DejaVuSans-37" d="M 525 4666 
L 3525 4666 
L 3525 4397 
L 1831 0 
L 1172 0 
L 2766 4134 
L 525 4134 
L 525 4666 
z
" transform="scale(0.015625)"/>
       </defs>
       <use xlink:href="#DejaVuSans-32"/>
       <use xlink:href="#DejaVuSans-30" transform="translate(63.623047 0)"/>
       <use xlink:href="#DejaVuSans-32" transform="translate(127.246094 0)"/>
       <use xlink:href="#DejaVuSans-37" transform="translate(190.869141 0)"/>
      </g>
     </g>
    </g>
    <g id="xtick_6">
     <g id="line2d_6">
      <path d="M 830.164056 573.44025 
L 830.164056 31.43625 
" clip-path="url(#p450a31326e)" style="fill: none; stroke: #ffffff; stroke-width: 0.8; stroke-linecap: round"/>
     </g>
     <g id="text_6">
      <!-- 2028 -->
      <g style="fill: #262626" transform="translate(799.624056 599.9765) scale(0.24 -0.24)">
       <defs>
        <path id="DejaVuSans-38" d="M 2034 2216 
Q 1584 2216 1326 1975 
Q 1069 1734 1069 1313 
Q 1069 891 1326 650 
Q 1584 409 2034 409 
Q 2484 409 2743 651 
Q 3003 894 3003 1313 
Q 3003 1734 2745 1975 
Q 2488 2216 2034 2216 
z
M 1403 2484 
Q 997 2584 770 2862 
Q 544 3141 544 3541 
Q 544 4100 942 4425 
Q 1341 4750 2034 4750 
Q 2731 4750 3128 4425 
Q 3525 4100 3525 3541 
Q 3525 3141 3298 2862 
Q 3072 2584 2669 2484 
Q 3125 2378 3379 2068 
Q 3634 1759 3634 1313 
Q 3634 634 3220 271 
Q 2806 -91 2034 -91 
Q 1263 -91 848 271 
Q 434 634 434 1313 
Q 434 1759 690 2068 
Q 947 2378 1403 2484 
z
M 1172 3481 
Q 1172 3119 1398 2916 
Q 1625 2713 2034 2713 
Q 2441 2713 2670 2916 
Q 2900 3119 2900 3481 
Q 2900 3844 2670 4047 
Q 2441 4250 2034 4250 
Q 1625 4250 1398 4047 
Q 1172 3844 1172 3481 
z
" transform="scale(0.015625)"/>
       </defs>
       <use xlink:href="#DejaVuSans-32"/>
       <use xlink:href="#DejaVuSans-30" transform="translate(63.623047 0)"/>
       <use xlink:href="#DejaVuSans-32" transform="translate(127.246094 0)"/>
       <use xlink:href="#DejaVuSans-38" transform="translate(190.869141 0)"/>
      </g>
     </g>
    </g>
    <g id="xtick_7">
     <g id="line2d_7">
      <path d="M 968.608991 573.44025 
L 968.608991 31.43625 
" clip-path="url(#p450a31326e)" style="fill: none; stroke: #ffffff; stroke-width: 0.8; stroke-linecap: round"/>
     </g>
     <g id="text_7">
      <!-- 2029 -->
      <g style="fill: #262626" transform="translate(938.068991 599.9765) scale(0.24 -0.24)">
       <defs>
        <path id="DejaVuSans-39" d="M 703 97 
L 703 672 
Q 941 559 1184 500 
Q 1428 441 1663 441 
Q 2288 441 2617 861 
Q 2947 1281 2994 2138 
Q 2813 1869 2534 1725 
Q 2256 1581 1919 1581 
Q 1219 1581 811 2004 
Q 403 2428 403 3163 
Q 403 3881 828 4315 
Q 1253 4750 1959 4750 
Q 2769 4750 3195 4129 
Q 3622 3509 3622 2328 
Q 3622 1225 3098 567 
Q 2575 -91 1691 -91 
Q 1453 -91 1209 -44 
Q 966 3 703 97 
z
M 1959 2075 
Q 2384 2075 2632 2365 
Q 2881 2656 2881 3163 
Q 2881 3666 2632 3958 
Q 2384 4250 1959 4250 
Q 1534 4250 1286 3958 
Q 1038 3666 1038 3163 
Q 1038 2656 1286 2365 
Q 1534 2075 1959 2075 
z
" transform="scale(0.015625)"/>
       </defs>
       <use xlink:href="#DejaVuSans-32"/>
       <use xlink:href="#DejaVuSans-30" transform="translate(63.623047 0)"/>
       <use xlink:href="#DejaVuSans-32" transform="translate(127.246094 0)"/>
       <use xlink:href="#DejaVuSans-39" transform="translate(190.869141 0)"/>
      </g>
     </g>
    </g>
    <g id="xtick_8">
     <g id="line2d_8">
      <path d="M 1106.67566 573.44025 
L 1106.67566 31.43625 
" clip-path="url(#p450a31326e)" style="fill: none; stroke: #ffffff; stroke-width: 0.8; stroke-linecap: round"/>
     </g>
     <g id="text_8">
      <!-- 2030 -->
      <g style="fill: #262626" transform="translate(1076.13566 599.9765) scale(0.24 -0.24)">
       <use xlink:href="#DejaVuSans-32"/>
       <use xlink:href="#DejaVuSans-30" transform="translate(63.623047 0)"/>
       <use xlink:href="#DejaVuSans-33" transform="translate(127.246094 0)"/>
       <use xlink:href="#DejaVuSans-30" transform="translate(190.869141 0)"/>
      </g>
     </g>
    </g>
    <g id="text_9">
     <!-- Date -->
     <g style="fill: #262626" transform="translate(589.035199 628.723687) scale(0.26 -0.26)">
      <defs>
       <path id="DejaVuSans-Bold-44" d="M 1791 3756 
L 1791 909 
L 2222 909 
Q 2959 909 3348 1275 
Q 3738 1641 3738 2338 
Q 3738 3031 3350 3393 
Q 2963 3756 2222 3756 
L 1791 3756 
z
M 588 4666 
L 1856 4666 
Q 2919 4666 3439 4514 
Q 3959 4363 4331 4000 
Q 4659 3684 4818 3271 
Q 4978 2859 4978 2338 
Q 4978 1809 4818 1395 
Q 4659 981 4331 666 
Q 3956 303 3431 151 
Q 2906 0 1856 0 
L 588 0 
L 588 4666 
z
" transform="scale(0.015625)"/>
       <path id="DejaVuSans-Bold-61" d="M 2106 1575 
Q 1756 1575 1579 1456 
Q 1403 1338 1403 1106 
Q 1403 894 1545 773 
Q 1688 653 1941 653 
Q 2256 653 2472 879 
Q 2688 1106 2688 1447 
L 2688 1575 
L 2106 1575 
z
M 3816 1997 
L 3816 0 
L 2688 0 
L 2688 519 
Q 2463 200 2181 54 
Q 1900 -91 1497 -91 
Q 953 -91 614 226 
Q 275 544 275 1050 
Q 275 1666 698 1953 
Q 1122 2241 2028 2241 
L 2688 2241 
L 2688 2328 
Q 2688 2594 2478 2717 
Q 2269 2841 1825 2841 
Q 1466 2841 1156 2769 
Q 847 2697 581 2553 
L 581 3406 
Q 941 3494 1303 3539 
Q 1666 3584 2028 3584 
Q 2975 3584 3395 3211 
Q 3816 2838 3816 1997 
z
" transform="scale(0.015625)"/>
       <path id="DejaVuSans-Bold-74" d="M 1759 4494 
L 1759 3500 
L 2913 3500 
L 2913 2700 
L 1759 2700 
L 1759 1216 
Q 1759 972 1856 886 
Q 1953 800 2241 800 
L 2816 800 
L 2816 0 
L 1856 0 
Q 1194 0 917 276 
Q 641 553 641 1216 
L 641 2700 
L 84 2700 
L 84 3500 
L 641 3500 
L 641 4494 
L 1759 4494 
z
" transform="scale(0.015625)"/>
       <path id="DejaVuSans-Bold-65" d="M 4031 1759 
L 4031 1441 
L 1416 1441 
Q 1456 1047 1700 850 
Q 1944 653 2381 653 
Q 2734 653 3104 758 
Q 3475 863 3866 1075 
L 3866 213 
Q 3469 63 3072 -14 
Q 2675 -91 2278 -91 
Q 1328 -91 801 392 
Q 275 875 275 1747 
Q 275 2603 792 3093 
Q 1309 3584 2216 3584 
Q 3041 3584 3536 3087 
Q 4031 2591 4031 1759 
z
M 2881 2131 
Q 2881 2450 2695 2645 
Q 2509 2841 2209 2841 
Q 1884 2841 1681 2658 
Q 1478 2475 1428 2131 
L 2881 2131 
z
" transform="scale(0.015625)"/>
      </defs>
      <use xlink:href="#DejaVuSans-Bold-44"/>
      <use xlink:href="#DejaVuSans-Bold-61" transform="translate(83.007812 0)"/>
      <use xlink:href="#DejaVuSans-Bold-74" transform="translate(150.488281 0)"/>
      <use xlink:href="#DejaVuSans-Bold-65" transform="translate(198.291016 0)"/>
     </g>
    </g>
   </g>
   <g id="matplotlib.axis_2">
    <g id="ytick_1">
     <g id="line2d_9">
      <path d="M 134.535 548.803705 
L 1112.727898 548.803705 
" clip-path="url(#p450a31326e)" style="fill: none; stroke: #ffffff; stroke-width: 0.8; stroke-linecap: round"/>
     </g>
     <g id="text_10">
      <!-- 0 -->
      <g style="fill: #262626" transform="translate(110.965 557.92183) scale(0.24 -0.24)">
       <use xlink:href="#DejaVuSans-30"/>
      </g>
     </g>
    </g>
    <g id="ytick_2">
     <g id="line2d_10">
      <path d="M 134.535 478.692679 
L 1112.727898 478.692679 
" clip-path="url(#p450a31326e)" style="fill: none; stroke: #ffffff; stroke-width: 0.8; stroke-linecap: round"/>
     </g>
     <g id="text_11">
      <!-- 50000 -->
      <g style="fill: #262626" transform="translate(49.885 487.810804) scale(0.24 -0.24)">
       <use xlink:href="#DejaVuSans-35"/>
       <use xlink:href="#DejaVuSans-30" transform="translate(63.623047 0)"/>
       <use xlink:href="#DejaVuSans-30" transform="translate(127.246094 0)"/>
       <use xlink:href="#DejaVuSans-30" transform="translate(190.869141 0)"/>
       <use xlink:href="#DejaVuSans-30" transform="translate(254.492188 0)"/>
      </g>
     </g>
    </g>
    <g id="ytick_3">
     <g id="line2d_11">
      <path d="M 134.535 408.581654 
L 1112.727898 408.581654 
" clip-path="url(#p450a31326e)" style="fill: none; stroke: #ffffff; stroke-width: 0.8; stroke-linecap: round"/>
     </g>
     <g id="text_12">
      <!-- 100000 -->
      <g style="fill: #262626" transform="translate(34.615 417.699779) scale(0.24 -0.24)">
       <defs>
        <path id="DejaVuSans-31" d="M 794 531 
L 1825 531 
L 1825 4091 
L 703 3866 
L 703 4441 
L 1819 4666 
L 2450 4666 
L 2450 531 
L 3481 531 
L 3481 0 
L 794 0 
L 794 531 
z
" transform="scale(0.015625)"/>
       </defs>
       <use xlink:href="#DejaVuSans-31"/>
       <use xlink:href="#DejaVuSans-30" transform="translate(63.623047 0)"/>
       <use xlink:href="#DejaVuSans-30" transform="translate(127.246094 0)"/>
       <use xlink:href="#DejaVuSans-30" transform="translate(190.869141 0)"/>
       <use xlink:href="#DejaVuSans-30" transform="translate(254.492188 0)"/>
       <use xlink:href="#DejaVuSans-30" transform="translate(318.115234 0)"/>
      </g>
     </g>
    </g>
    <g id="ytick_4">
     <g id="line2d_12">
      <path d="M 134.535 338.470628 
L 1112.727898 338.470628 
" clip-path="url(#p450a31326e)" style="fill: none; stroke: #ffffff; stroke-width: 0.8; stroke-linecap: round"/>
     </g>
     <g id="text_13">
      <!-- 150000 -->
      <g style="fill: #262626" transform="translate(34.615 347.588753) scale(0.24 -0.24)">
       <use xlink:href="#DejaVuSans-31"/>
       <use xlink:href="#DejaVuSans-35" transform="translate(63.623047 0)"/>
       <use xlink:href="#DejaVuSans-30" transform="translate(127.246094 0)"/>
       <use xlink:href="#DejaVuSans-30" transform="translate(190.869141 0)"/>
       <use xlink:href="#DejaVuSans-30" transform="translate(254.492188 0)"/>
       <use xlink:href="#DejaVuSans-30" transform="translate(318.115234 0)"/>
      </g>
     </g>
    </g>
    <g id="ytick_5">
     <g id="line2d_13">
      <path d="M 134.535 268.359603 
L 1112.727898 268.359603 
" clip-path="url(#p450a31326e)" style="fill: none; stroke: #ffffff; stroke-width: 0.8; stroke-linecap: round"/>
     </g>
     <g id="text_14">
      <!-- 200000 -->
      <g style="fill: #262626" transform="translate(34.615 277.477728) scale(0.24 -0.24)">
       <use xlink:href="#DejaVuSans-32"/>
       <use xlink:href="#DejaVuSans-30" transform="translate(63.623047 0)"/>
       <use xlink:href="#DejaVuSans-30" transform="translate(127.246094 0)"/>
       <use xlink:href="#DejaVuSans-30" transform="translate(190.869141 0)"/>
       <use xlink:href="#DejaVuSans-30" transform="translate(254.492188 0)"/>
       <use xlink:href="#DejaVuSans-30" transform="translate(318.115234 0)"/>
      </g>
     </g>
    </g>
    <g id="ytick_6">
     <g id="line2d_14">
      <path d="M 134.535 198.248578 
L 1112.727898 198.248578 
" clip-path="url(#p450a31326e)" style="fill: none; stroke: #ffffff; stroke-width: 0.8; stroke-linecap: round"/>
     </g>
     <g id="text_15">
      <!-- 250000 -->
      <g style="fill: #262626" transform="translate(34.615 207.366703) scale(0.24 -0.24)">
       <use xlink:href="#DejaVuSans-32"/>
       <use xlink:href="#DejaVuSans-35" transform="translate(63.623047 0)"/>
       <use xlink:href="#DejaVuSans-30" transform="translate(127.246094 0)"/>
       <use xlink:href="#DejaVuSans-30" transform="translate(190.869141 0)"/>
       <use xlink:href="#DejaVuSans-30" transform="translate(254.492188 0)"/>
       <use xlink:href="#DejaVuSans-30" transform="translate(318.115234 0)"/>
      </g>
     </g>
    </g>
    <g id="ytick_7">
     <g id="line2d_15">
      <path d="M 134.535 128.137552 
L 1112.727898 128.137552 
" clip-path="url(#p450a31326e)" style="fill: none; stroke: #ffffff; stroke-width: 0.8; stroke-linecap: round"/>
     </g>
     <g id="text_16">
      <!-- 300000 -->
      <g style="fill: #262626" transform="translate(34.615 137.255677) scale(0.24 -0.24)">
       <use xlink:href="#DejaVuSans-33"/>
       <use xlink:href="#DejaVuSans-30" transform="translate(63.623047 0)"/>
       <use xlink:href="#DejaVuSans-30" transform="translate(127.246094 0)"/>
       <use xlink:href="#DejaVuSans-30" transform="translate(190.869141 0)"/>
       <use xlink:href="#DejaVuSans-30" transform="translate(254.492188 0)"/>
       <use xlink:href="#DejaVuSans-30" transform="translate(318.115234 0)"/>
      </g>
     </g>
    </g>
    <g id="ytick_8">
     <g id="line2d_16">
      <path d="M 134.535 58.026527 
L 1112.727898 58.026527 
" clip-path="url(#p450a31326e)" style="fill: none; stroke: #ffffff; stroke-width: 0.8; stroke-linecap: round"/>
     </g>
     <g id="text_17">
      <!-- 350000 -->
      <g style="fill: #262626" transform="translate(34.615 67.144652) scale(0.24 -0.24)">
       <use xlink:href="#DejaVuSans-33"/>
       <use xlink:href="#DejaVuSans-35" transform="translate(63.623047 0)"/>
       <use xlink:href="#DejaVuSans-30" transform="translate(127.246094 0)"/>
       <use xlink:href="#DejaVuSans-30" transform="translate(190.869141 0)"/>
       <use xlink:href="#DejaVuSans-30" transform="translate(254.492188 0)"/>
       <use xlink:href="#DejaVuSans-30" transform="translate(318.115234 0)"/>
      </g>
     </g>
    </g>
    <g id="text_18">
     <!-- WGPR:A2 [Sm³/day] -->
     <g style="fill: #262626" transform="translate(25.43625 436.060125) rotate(-90) scale(0.24 -0.24)">
      <defs>
       <path id="DejaVuSans-Bold-57" d="M 191 4666 
L 1344 4666 
L 2150 1275 
L 2950 4666 
L 4109 4666 
L 4909 1275 
L 5716 4666 
L 6859 4666 
L 5759 0 
L 4372 0 
L 3525 3547 
L 2688 0 
L 1300 0 
L 191 4666 
z
" transform="scale(0.015625)"/>
       <path id="DejaVuSans-Bold-47" d="M 4781 347 
Q 4331 128 3847 18 
Q 3363 -91 2847 -91 
Q 1681 -91 1000 561 
Q 319 1213 319 2328 
Q 319 3456 1012 4103 
Q 1706 4750 2913 4750 
Q 3378 4750 3804 4662 
Q 4231 4575 4609 4403 
L 4609 3438 
Q 4219 3659 3833 3768 
Q 3447 3878 3059 3878 
Q 2341 3878 1952 3476 
Q 1563 3075 1563 2328 
Q 1563 1588 1938 1184 
Q 2313 781 3003 781 
Q 3191 781 3352 804 
Q 3513 828 3641 878 
L 3641 1784 
L 2906 1784 
L 2906 2591 
L 4781 2591 
L 4781 347 
z
" transform="scale(0.015625)"/>
       <path id="DejaVuSans-Bold-50" d="M 588 4666 
L 2584 4666 
Q 3475 4666 3951 4270 
Q 4428 3875 4428 3144 
Q 4428 2409 3951 2014 
Q 3475 1619 2584 1619 
L 1791 1619 
L 1791 0 
L 588 0 
L 588 4666 
z
M 1791 3794 
L 1791 2491 
L 2456 2491 
Q 2806 2491 2997 2661 
Q 3188 2831 3188 3144 
Q 3188 3456 2997 3625 
Q 2806 3794 2456 3794 
L 1791 3794 
z
" transform="scale(0.015625)"/>
       <path id="DejaVuSans-Bold-52" d="M 2297 2597 
Q 2675 2597 2839 2737 
Q 3003 2878 3003 3200 
Q 3003 3519 2839 3656 
Q 2675 3794 2297 3794 
L 1791 3794 
L 1791 2597 
L 2297 2597 
z
M 1791 1766 
L 1791 0 
L 588 0 
L 588 4666 
L 2425 4666 
Q 3347 4666 3776 4356 
Q 4206 4047 4206 3378 
Q 4206 2916 3982 2619 
Q 3759 2322 3309 2181 
Q 3556 2125 3751 1926 
Q 3947 1728 4147 1325 
L 4800 0 
L 3519 0 
L 2950 1159 
Q 2778 1509 2601 1637 
Q 2425 1766 2131 1766 
L 1791 1766 
z
" transform="scale(0.015625)"/>
       <path id="DejaVuSans-Bold-3a" d="M 716 3500 
L 1844 3500 
L 1844 2291 
L 716 2291 
L 716 3500 
z
M 716 1209 
L 1844 1209 
L 1844 0 
L 716 0 
L 716 1209 
z
" transform="scale(0.015625)"/>
       <path id="DejaVuSans-Bold-41" d="M 3419 850 
L 1538 850 
L 1241 0 
L 31 0 
L 1759 4666 
L 3194 4666 
L 4922 0 
L 3713 0 
L 3419 850 
z
M 1838 1716 
L 3116 1716 
L 2478 3572 
L 1838 1716 
z
" transform="scale(0.015625)"/>
       <path id="DejaVuSans-Bold-32" d="M 1844 884 
L 3897 884 
L 3897 0 
L 506 0 
L 506 884 
L 2209 2388 
Q 2438 2594 2547 2791 
Q 2656 2988 2656 3200 
Q 2656 3528 2436 3728 
Q 2216 3928 1850 3928 
Q 1569 3928 1234 3808 
Q 900 3688 519 3450 
L 519 4475 
Q 925 4609 1322 4679 
Q 1719 4750 2100 4750 
Q 2938 4750 3402 4381 
Q 3866 4013 3866 3353 
Q 3866 2972 3669 2642 
Q 3472 2313 2841 1759 
L 1844 884 
z
" transform="scale(0.015625)"/>
       <path id="DejaVuSans-Bold-20" transform="scale(0.015625)"/>
       <path id="DejaVuSans-Bold-5b" d="M 550 4863 
L 2491 4863 
L 2491 4159 
L 1613 4159 
L 1613 -141 
L 2491 -141 
L 2491 -844 
L 550 -844 
L 550 4863 
z
" transform="scale(0.015625)"/>
       <path id="DejaVuSans-Bold-53" d="M 3834 4519 
L 3834 3531 
Q 3450 3703 3084 3790 
Q 2719 3878 2394 3878 
Q 1963 3878 1756 3759 
Q 1550 3641 1550 3391 
Q 1550 3203 1689 3098 
Q 1828 2994 2194 2919 
L 2706 2816 
Q 3484 2659 3812 2340 
Q 4141 2022 4141 1434 
Q 4141 663 3683 286 
Q 3225 -91 2284 -91 
Q 1841 -91 1394 -6 
Q 947 78 500 244 
L 500 1259 
Q 947 1022 1364 901 
Q 1781 781 2169 781 
Q 2563 781 2772 912 
Q 2981 1044 2981 1288 
Q 2981 1506 2839 1625 
Q 2697 1744 2272 1838 
L 1806 1941 
Q 1106 2091 782 2419 
Q 459 2747 459 3303 
Q 459 4000 909 4375 
Q 1359 4750 2203 4750 
Q 2588 4750 2994 4692 
Q 3400 4634 3834 4519 
z
" transform="scale(0.015625)"/>
       <path id="DejaVuSans-Bold-6d" d="M 3781 2919 
Q 3994 3244 4286 3414 
Q 4578 3584 4928 3584 
Q 5531 3584 5847 3212 
Q 6163 2841 6163 2131 
L 6163 0 
L 5038 0 
L 5038 1825 
Q 5041 1866 5042 1909 
Q 5044 1953 5044 2034 
Q 5044 2406 4934 2573 
Q 4825 2741 4581 2741 
Q 4263 2741 4089 2478 
Q 3916 2216 3909 1719 
L 3909 0 
L 2784 0 
L 2784 1825 
Q 2784 2406 2684 2573 
Q 2584 2741 2328 2741 
Q 2006 2741 1831 2477 
Q 1656 2213 1656 1722 
L 1656 0 
L 531 0 
L 531 3500 
L 1656 3500 
L 1656 2988 
Q 1863 3284 2130 3434 
Q 2397 3584 2719 3584 
Q 3081 3584 3359 3409 
Q 3638 3234 3781 2919 
z
" transform="scale(0.015625)"/>
       <path id="DejaVuSans-Bold-b3" d="M 1850 3500 
Q 2138 3444 2297 3272 
Q 2456 3100 2456 2847 
Q 2456 2444 2147 2242 
Q 1838 2041 1209 2041 
Q 956 2041 725 2077 
Q 494 2113 281 2181 
L 281 2725 
Q 488 2613 688 2555 
Q 888 2497 1075 2497 
Q 1372 2497 1534 2597 
Q 1697 2697 1697 2881 
Q 1697 3081 1530 3176 
Q 1363 3272 1006 3272 
L 775 3272 
L 775 3700 
L 1038 3700 
Q 1344 3700 1484 3773 
Q 1625 3847 1625 4006 
Q 1625 4147 1503 4217 
Q 1381 4288 1131 4288 
Q 969 4288 776 4247 
Q 584 4206 366 4122 
L 366 4641 
Q 569 4694 805 4722 
Q 1041 4750 1313 4750 
Q 1834 4750 2111 4575 
Q 2388 4400 2388 4072 
Q 2388 3856 2247 3706 
Q 2106 3556 1850 3500 
z
" transform="scale(0.015625)"/>
       <path id="DejaVuSans-Bold-2f" d="M 1644 4666 
L 2338 4666 
L 691 -594 
L 0 -594 
L 1644 4666 
z
" transform="scale(0.015625)"/>
       <path id="DejaVuSans-Bold-64" d="M 2919 2988 
L 2919 4863 
L 4044 4863 
L 4044 0 
L 2919 0 
L 2919 506 
Q 2688 197 2409 53 
Q 2131 -91 1766 -91 
Q 1119 -91 703 423 
Q 288 938 288 1747 
Q 288 2556 703 3070 
Q 1119 3584 1766 3584 
Q 2128 3584 2408 3439 
Q 2688 3294 2919 2988 
z
M 2181 722 
Q 2541 722 2730 984 
Q 2919 1247 2919 1747 
Q 2919 2247 2730 2509 
Q 2541 2772 2181 2772 
Q 1825 2772 1636 2509 
Q 1447 2247 1447 1747 
Q 1447 1247 1636 984 
Q 1825 722 2181 722 
z
" transform="scale(0.015625)"/>
       <path id="DejaVuSans-Bold-79" d="M 78 3500 
L 1197 3500 
L 2138 1125 
L 2938 3500 
L 4056 3500 
L 2584 -331 
Q 2363 -916 2067 -1148 
Q 1772 -1381 1288 -1381 
L 641 -1381 
L 641 -647 
L 991 -647 
Q 1275 -647 1404 -556 
Q 1534 -466 1606 -231 
L 1638 -134 
L 78 3500 
z
" transform="scale(0.015625)"/>
       <path id="DejaVuSans-Bold-5d" d="M 2375 -844 
L 434 -844 
L 434 -141 
L 1313 -141 
L 1313 4159 
L 434 4159 
L 434 4863 
L 2375 4863 
L 2375 -844 
z
" transform="scale(0.015625)"/>
      </defs>
      <use xlink:href="#DejaVuSans-Bold-57"/>
      <use xlink:href="#DejaVuSans-Bold-47" transform="translate(110.302734 0)"/>
      <use xlink:href="#DejaVuSans-Bold-50" transform="translate(192.382812 0)"/>
      <use xlink:href="#DejaVuSans-Bold-52" transform="translate(265.673828 0)"/>
      <use xlink:href="#DejaVuSans-Bold-3a" transform="translate(342.675781 0)"/>
      <use xlink:href="#DejaVuSans-Bold-41" transform="translate(382.666016 0)"/>
      <use xlink:href="#DejaVuSans-Bold-32" transform="translate(460.058594 0)"/>
      <use xlink:href="#DejaVuSans-Bold-20" transform="translate(529.638672 0)"/>
      <use xlink:href="#DejaVuSans-Bold-5b" transform="translate(564.453125 0)"/>
      <use xlink:href="#DejaVuSans-Bold-53" transform="translate(610.15625 0)"/>
      <use xlink:href="#DejaVuSans-Bold-6d" transform="translate(682.177734 0)"/>
      <use xlink:href="#DejaVuSans-Bold-b3" transform="translate(786.376953 0)"/>
      <use xlink:href="#DejaVuSans-Bold-2f" transform="translate(830.175781 0)"/>
      <use xlink:href="#DejaVuSans-Bold-64" transform="translate(866.699219 0)"/>
      <use xlink:href="#DejaVuSans-Bold-61" transform="translate(938.28125 0)"/>
      <use xlink:href="#DejaVuSans-Bold-79" transform="translate(1002.636719 0)"/>
      <use xlink:href="#DejaVuSans-Bold-5d" transform="translate(1067.822266 0)"/>
     </g>
    </g>
   </g>
   <g id="FillBetweenPolyCollection_1">
    <defs>
     <path id="m25607aa83a" d="M 94.438926 -92.52717 
L 94.438926 -92.52717 
L 95.573721 -92.52717 
L 98.978104 -92.52717 
L 109.191255 -92.52717 
L 120.539201 -92.52717 
L 131.887146 -92.52717 
L 139.452443 -92.52717 
L 173.496279 -92.52717 
L 179.359385 -92.52717 
L 185.22249 -92.52717 
L 207.918381 -378.303084 
L 230.992536 -254.54423 
L 242.718747 -224.386794 
L 276.762583 -206.978643 
L 277.519113 -206.267509 
L 311.941214 -180.136363 
L 322.53263 -178.781917 
L 346.363315 -168.880082 
L 368.302676 -164.4649 
L 381.163681 -162.831067 
L 415.964047 -158.118856 
L 450.007884 -155.308954 
L 484.429985 -160.167045 
L 519.230351 -155.704599 
L 554.030717 -158.805232 
L 588.074553 -157.621977 
L 622.496654 -154.332099 
L 657.29702 -150.627027 
L 692.097387 -152.791223 
L 703.445332 -152.923946 
L 714.793277 -152.828415 
L 726.141223 -152.51561 
L 760.563324 -150.422905 
L 795.36369 -147.494789 
L 806.711636 -146.487349 
L 830.164056 -144.454288 
L 864.586157 -143.771511 
L 899.008259 -147.053747 
L 933.808625 -145.890458 
L 968.608991 -144.261647 
L 1002.652827 -139.81101 
L 1014.000772 -138.50654 
L 1037.074928 -135.992232 
L 1071.875294 -132.126006 
L 1083.22324 -131.667206 
L 1106.67566 -129.897111 
L 1106.67566 -216.806905 
L 1106.67566 -216.806905 
L 1083.22324 -224.284027 
L 1071.875294 -228.376506 
L 1037.074928 -241.198005 
L 1014.000772 -249.033022 
L 1002.652827 -255.431354 
L 968.608991 -271.740438 
L 933.808625 -284.677127 
L 899.008259 -298.634787 
L 864.586157 -312.787004 
L 830.164056 -339.914734 
L 806.711636 -348.53953 
L 795.36369 -354.539982 
L 760.563324 -378.542973 
L 726.141223 -395.786408 
L 714.793277 -403.714759 
L 703.445332 -414.243551 
L 692.097387 -416.125945 
L 657.29702 -446.765164 
L 622.496654 -472.422009 
L 588.074553 -479.168398 
L 554.030717 -496.926864 
L 519.230351 -507.941218 
L 484.429985 -498.41164 
L 450.007884 -485.985162 
L 415.964047 -444.524613 
L 381.163681 -408.013266 
L 368.302676 -388.36498 
L 346.363315 -373.636166 
L 322.53263 -388.944185 
L 311.941214 -406.215444 
L 277.519113 -481.828849 
L 276.762583 -485.082482 
L 242.718747 -558.176118 
L 230.992536 -567.889081 
L 207.918381 -585.25808 
L 185.22249 -92.52717 
L 179.359385 -92.52717 
L 173.496279 -92.52717 
L 139.452443 -92.52717 
L 131.887146 -92.52717 
L 120.539201 -92.52717 
L 109.191255 -92.52717 
L 98.978104 -92.52717 
L 95.573721 -92.52717 
L 94.438926 -92.52717 
z
" style="stroke: #58508d; stroke-opacity: 0.7; stroke-width: 0.8"/>
    </defs>
    <g clip-path="url(#p450a31326e)">
     <use xlink:href="#m25607aa83a" x="0" y="641.330875" style="fill: #58508d; fill-opacity: 0.7; stroke: #58508d; stroke-opacity: 0.7; stroke-width: 0.8"/>
    </g>
   </g>
   <g id="FillBetweenPolyCollection_2">
    <defs>
     <path id="m4a11df59fb" d="M 94.438926 -92.52717 
L 94.438926 -92.52717 
L 95.573721 -92.52717 
L 98.978104 -92.52717 
L 109.191255 -92.52717 
L 120.539201 -92.52717 
L 131.887146 -92.52717 
L 139.452443 -92.52717 
L 173.496279 -92.52717 
L 179.359385 -92.52717 
L 185.22249 -92.52717 
L 207.918381 -92.52717 
L 230.992536 -92.52717 
L 242.718747 -398.107236 
L 276.762583 -234.456162 
L 277.519113 -233.972549 
L 311.941214 -203.582498 
L 322.53263 -196.154311 
L 346.363315 -188.091467 
L 368.302676 -177.921775 
L 381.163681 -177.996164 
L 415.964047 -174.596727 
L 450.007884 -171.77105 
L 484.429985 -166.68582 
L 519.230351 -172.380342 
L 554.030717 -166.220705 
L 588.074553 -160.34355 
L 622.496654 -154.404215 
L 657.29702 -151.897581 
L 692.097387 -151.802866 
L 703.445332 -151.704765 
L 714.793277 -150.254107 
L 726.141223 -149.601577 
L 760.563324 -146.43252 
L 795.36369 -149.611896 
L 806.711636 -149.022416 
L 830.164056 -147.796322 
L 864.586157 -145.200631 
L 899.008259 -142.439363 
L 933.808625 -140.12697 
L 968.608991 -137.956111 
L 1002.652827 -148.285253 
L 1014.000772 -148.968134 
L 1037.074928 -146.455383 
L 1071.875294 -143.904957 
L 1083.22324 -142.931027 
L 1106.67566 -140.971238 
L 1106.67566 -308.73818 
L 1106.67566 -308.73818 
L 1083.22324 -316.896277 
L 1071.875294 -320.883118 
L 1037.074928 -332.422801 
L 1014.000772 -338.25227 
L 1002.652827 -344.185503 
L 968.608991 -362.343076 
L 933.808625 -382.265146 
L 899.008259 -402.238594 
L 864.586157 -421.923732 
L 830.164056 -439.557772 
L 806.711636 -456.837708 
L 795.36369 -460.713906 
L 760.563324 -476.916169 
L 726.141223 -479.41887 
L 714.793277 -488.257986 
L 703.445332 -496.40572 
L 692.097387 -503.472955 
L 657.29702 -516.999475 
L 622.496654 -516.739889 
L 588.074553 -526.374327 
L 554.030717 -515.955084 
L 519.230351 -534.208402 
L 484.429985 -527.167852 
L 450.007884 -498.765306 
L 415.964047 -456.208111 
L 381.163681 -412.365474 
L 368.302676 -412.631918 
L 346.363315 -436.880911 
L 322.53263 -465.171127 
L 311.941214 -490.631244 
L 277.519113 -555.374964 
L 276.762583 -556.000924 
L 242.718747 -582.195586 
L 230.992536 -92.52717 
L 207.918381 -92.52717 
L 185.22249 -92.52717 
L 179.359385 -92.52717 
L 173.496279 -92.52717 
L 139.452443 -92.52717 
L 131.887146 -92.52717 
L 120.539201 -92.52717 
L 109.191255 -92.52717 
L 98.978104 -92.52717 
L 95.573721 -92.52717 
L 94.438926 -92.52717 
z
" style="stroke: #ffa600; stroke-opacity: 0.7; stroke-width: 0.8"/>
    </defs>
    <g clip-path="url(#p450a31326e)">
     <use xlink:href="#m4a11df59fb" x="0" y="641.330875" style="fill: #ffa600; fill-opacity: 0.7; stroke: #ffa600; stroke-opacity: 0.7; stroke-width: 0.8"/>
    </g>
   </g>
   <g id="line2d_17">
    <path d="M 94.438926 548.803705 
L 95.573721 548.803705 
L 98.978104 548.803705 
L 109.191255 548.803705 
L 120.539201 548.803705 
L 131.887146 548.803705 
L 139.452443 548.803705 
L 173.496279 548.803705 
L 179.359385 548.803705 
L 185.22249 548.803705 
L 207.918381 118.934158 
L 230.992536 195.480738 
L 242.718747 231.773252 
L 276.762583 308.439035 
L 277.519113 309.838492 
L 311.941214 351.358158 
L 322.53263 358.778976 
L 346.363315 367.546768 
L 368.302676 367.734474 
L 381.163681 365.001707 
L 415.964047 354.326808 
L 450.007884 344.198725 
L 484.429985 336.028869 
L 519.230351 330.035076 
L 554.030717 328.485344 
L 588.074553 332.404223 
L 622.496654 339.88255 
L 657.29702 348.627837 
L 692.097387 358.622234 
L 703.445332 361.993834 
L 714.793277 365.39877 
L 726.141223 368.871216 
L 760.563324 379.75607 
L 795.36369 390.68173 
L 806.711636 394.187756 
L 830.164056 401.425297 
L 864.586157 411.765415 
L 899.008259 421.680366 
L 933.808625 431.102337 
L 968.608991 439.849652 
L 1002.652827 447.746447 
L 1014.000772 450.240638 
L 1037.074928 455.145456 
L 1071.875294 462.016766 
L 1083.22324 464.119792 
L 1106.67566 468.304548 
" clip-path="url(#p450a31326e)" style="fill: none; stroke: #000000; stroke-width: 4; stroke-linecap: round"/>
   </g>
   <g id="line2d_18">
    <path d="M 94.438926 548.803705 
L 95.573721 548.803705 
L 98.978104 548.803705 
L 109.191255 548.803705 
L 120.539201 548.803705 
L 131.887146 548.803705 
L 139.452443 548.803705 
L 173.496279 548.803705 
L 179.359385 548.803705 
L 185.22249 548.803705 
L 207.918381 56.072795 
L 230.992536 73.441794 
L 242.718747 83.154757 
L 276.762583 156.248393 
L 277.519113 159.502026 
L 311.941214 235.115431 
L 322.53263 252.38669 
L 346.363315 267.694709 
L 368.302676 252.965895 
L 381.163681 233.317609 
L 415.964047 196.806262 
L 450.007884 155.345713 
L 484.429985 142.919235 
L 519.230351 133.389657 
L 554.030717 144.404011 
L 588.074553 162.162477 
L 622.496654 168.908866 
L 657.29702 194.565711 
L 692.097387 225.20493 
L 703.445332 227.087324 
L 714.793277 237.616116 
L 726.141223 245.544467 
L 760.563324 262.787902 
L 795.36369 286.790893 
L 806.711636 292.791345 
L 830.164056 301.416141 
L 864.586157 328.543871 
L 899.008259 342.696088 
L 933.808625 356.653748 
L 968.608991 369.590437 
L 1002.652827 385.899521 
L 1014.000772 392.297853 
L 1037.074928 400.13287 
L 1071.875294 412.954369 
L 1083.22324 417.046848 
L 1106.67566 424.52397 
" clip-path="url(#p450a31326e)" style="fill: none; stroke-dasharray: 7.4,3.2; stroke-dashoffset: 0; stroke: #000000; stroke-width: 2"/>
   </g>
   <g id="line2d_19">
    <path d="M 94.438926 548.803705 
L 95.573721 548.803705 
L 98.978104 548.803705 
L 109.191255 548.803705 
L 120.539201 548.803705 
L 131.887146 548.803705 
L 139.452443 548.803705 
L 173.496279 548.803705 
L 179.359385 548.803705 
L 185.22249 548.803705 
L 207.918381 263.027791 
L 230.992536 386.786645 
L 242.718747 416.944081 
L 276.762583 434.352232 
L 277.519113 435.063366 
L 311.941214 461.194512 
L 322.53263 462.548958 
L 346.363315 472.450793 
L 368.302676 476.865975 
L 381.163681 478.499808 
L 415.964047 483.212019 
L 450.007884 486.021921 
L 484.429985 481.16383 
L 519.230351 485.626276 
L 554.030717 482.525643 
L 588.074553 483.708898 
L 622.496654 486.998776 
L 657.29702 490.703848 
L 692.097387 488.539652 
L 703.445332 488.406929 
L 714.793277 488.50246 
L 726.141223 488.815265 
L 760.563324 490.90797 
L 795.36369 493.836086 
L 806.711636 494.843526 
L 830.164056 496.876587 
L 864.586157 497.559364 
L 899.008259 494.277128 
L 933.808625 495.440417 
L 968.608991 497.069228 
L 1002.652827 501.519865 
L 1014.000772 502.824335 
L 1037.074928 505.338643 
L 1071.875294 509.204869 
L 1083.22324 509.663669 
L 1106.67566 511.433764 
" clip-path="url(#p450a31326e)" style="fill: none; stroke-dasharray: 2,3.3; stroke-dashoffset: 0; stroke: #000000; stroke-width: 2"/>
   </g>
   <g id="line2d_20">
    <path d="M 94.438926 548.803705 
L 95.573721 548.803705 
L 98.978104 548.803705 
L 109.191255 548.803705 
L 120.539201 548.803705 
L 131.887146 548.803705 
L 139.452443 548.803705 
L 173.496279 548.803705 
L 179.359385 548.803705 
L 185.22249 548.803705 
L 207.918381 548.803705 
L 230.992536 548.803705 
L 242.718747 106.298604 
L 276.762583 225.213805 
L 277.519113 228.127118 
L 311.941214 307.017532 
L 322.53263 319.288308 
L 346.363315 336.559987 
L 368.302676 343.595319 
L 381.163681 344.09666 
L 415.964047 339.987886 
L 450.007884 334.532683 
L 484.429985 327.790805 
L 519.230351 321.686042 
L 554.030717 316.635991 
L 588.074553 313.219508 
L 622.496654 313.003855 
L 657.29702 315.427402 
L 692.097387 319.423021 
L 703.445332 321.083085 
L 714.793277 322.980585 
L 726.141223 325.042747 
L 760.563324 332.069033 
L 795.36369 340.145001 
L 806.711636 342.958737 
L 830.164056 348.968965 
L 864.586157 358.219064 
L 899.008259 367.559708 
L 933.808625 376.722666 
L 968.608991 385.364772 
L 1002.652827 393.114048 
L 1014.000772 395.543704 
L 1037.074928 400.339253 
L 1071.875294 407.276633 
L 1083.22324 409.449757 
L 1106.67566 413.800655 
" clip-path="url(#p450a31326e)" style="fill: none; stroke: #808080; stroke-width: 4; stroke-linecap: round"/>
   </g>
   <g id="line2d_21">
    <path d="M 94.438926 548.803705 
L 95.573721 548.803705 
L 98.978104 548.803705 
L 109.191255 548.803705 
L 120.539201 548.803705 
L 131.887146 548.803705 
L 139.452443 548.803705 
L 173.496279 548.803705 
L 179.359385 548.803705 
L 185.22249 548.803705 
L 207.918381 548.803705 
L 230.992536 548.803705 
L 242.718747 59.135289 
L 276.762583 85.329951 
L 277.519113 85.955911 
L 311.941214 150.699631 
L 322.53263 176.159748 
L 346.363315 204.449964 
L 368.302676 228.698957 
L 381.163681 228.965401 
L 415.964047 185.122764 
L 450.007884 142.565569 
L 484.429985 114.163023 
L 519.230351 107.122473 
L 554.030717 125.375791 
L 588.074553 114.956548 
L 622.496654 124.590986 
L 657.29702 124.3314 
L 692.097387 137.85792 
L 703.445332 144.925155 
L 714.793277 153.072889 
L 726.141223 161.912005 
L 760.563324 164.414706 
L 795.36369 180.616969 
L 806.711636 184.493167 
L 830.164056 201.773103 
L 864.586157 219.407143 
L 899.008259 239.092281 
L 933.808625 259.065729 
L 968.608991 278.987799 
L 1002.652827 297.145372 
L 1014.000772 303.078605 
L 1037.074928 308.908074 
L 1071.875294 320.447757 
L 1083.22324 324.434598 
L 1106.67566 332.592695 
" clip-path="url(#p450a31326e)" style="fill: none; stroke-dasharray: 7.4,3.2; stroke-dashoffset: 0; stroke: #808080; stroke-width: 2"/>
   </g>
   <g id="line2d_22">
    <path d="M 94.438926 548.803705 
L 95.573721 548.803705 
L 98.978104 548.803705 
L 109.191255 548.803705 
L 120.539201 548.803705 
L 131.887146 548.803705 
L 139.452443 548.803705 
L 173.496279 548.803705 
L 179.359385 548.803705 
L 185.22249 548.803705 
L 207.918381 548.803705 
L 230.992536 548.803705 
L 242.718747 243.223639 
L 276.762583 406.874713 
L 277.519113 407.358326 
L 311.941214 437.748377 
L 322.53263 445.176564 
L 346.363315 453.239408 
L 368.302676 463.4091 
L 381.163681 463.334711 
L 415.964047 466.734148 
L 450.007884 469.559825 
L 484.429985 474.645055 
L 519.230351 468.950533 
L 554.030717 475.11017 
L 588.074553 480.987325 
L 622.496654 486.92666 
L 657.29702 489.433294 
L 692.097387 489.528009 
L 703.445332 489.62611 
L 714.793277 491.076768 
L 726.141223 491.729298 
L 760.563324 494.898355 
L 795.36369 491.718979 
L 806.711636 492.308459 
L 830.164056 493.534553 
L 864.586157 496.130244 
L 899.008259 498.891512 
L 933.808625 501.203905 
L 968.608991 503.374764 
L 1002.652827 493.045622 
L 1014.000772 492.362741 
L 1037.074928 494.875492 
L 1071.875294 497.425918 
L 1083.22324 498.399848 
L 1106.67566 500.359637 
" clip-path="url(#p450a31326e)" style="fill: none; stroke-dasharray: 2,3.3; stroke-dashoffset: 0; stroke: #808080; stroke-width: 2"/>
   </g>
   <g id="patch_3">
    <path d="M 134.535 573.44025 
L 134.535 31.43625 
" style="fill: none; stroke: #ffffff; stroke-linejoin: miter; stroke-linecap: square"/>
   </g>
   <g id="patch_4">
    <path d="M 1112.727898 573.44025 
L 1112.727898 31.43625 
" style="fill: none; stroke: #ffffff; stroke-linejoin: miter; stroke-linecap: square"/>
   </g>
   <g id="patch_5">
    <path d="M 134.535 573.44025 
L 1112.727898 573.44025 
" style="fill: none; stroke: #ffffff; stroke-linejoin: miter; stroke-linecap: square"/>
   </g>
   <g id="patch_6">
    <path d="M 134.535 31.43625 
L 1112.727898 31.43625 
" style="fill: none; stroke: #ffffff; stroke-linejoin: miter; stroke-linecap: square"/>
   </g>
   <g id="text_19">
    <!-- WGPR:A2 -->
    <g style="fill: #262626" transform="translate(560.076449 25.43625) scale(0.24 -0.24)">
     <use xlink:href="#DejaVuSans-Bold-57"/>
     <use xlink:href="#DejaVuSans-Bold-47" transform="translate(110.302734 0)"/>
     <use xlink:href="#DejaVuSans-Bold-50" transform="translate(192.382812 0)"/>
     <use xlink:href="#DejaVuSans-Bold-52" transform="translate(265.673828 0)"/>
     <use xlink:href="#DejaVuSans-Bold-3a" transform="translate(342.675781 0)"/>
     <use xlink:href="#DejaVuSans-Bold-41" transform="translate(382.666016 0)"/>
     <use xlink:href="#DejaVuSans-Bold-32" transform="translate(460.058594 0)"/>
    </g>
   </g>
   <g id="legend_1">
    <g id="patch_7">
     <path d="M 870.16071 210.495625 
L 1097.327898 210.495625 
Q 1101.727898 210.495625 1101.727898 206.095625 
L 1101.727898 46.83625 
Q 1101.727898 42.43625 1097.327898 42.43625 
L 870.16071 42.43625 
Q 865.76071 42.43625 865.76071 46.83625 
L 865.76071 206.095625 
Q 865.76071 210.495625 870.16071 210.495625 
z
" style="fill: #eaeaf2; opacity: 0.8; stroke: #cccccc; stroke-width: 0.8; stroke-linejoin: miter"/>
    </g>
    <g id="line2d_23">
     <path d="M 874.56071 60.252813 
L 896.56071 60.252813 
L 918.56071 60.252813 
" style="fill: none; stroke: #000000; stroke-width: 4; stroke-linecap: round"/>
    </g>
    <g id="text_20">
     <!-- Mean -->
     <g style="fill: #262626" transform="translate(936.16071 67.952813) scale(0.22 -0.22)">
      <defs>
       <path id="DejaVuSans-4d" d="M 628 4666 
L 1569 4666 
L 2759 1491 
L 3956 4666 
L 4897 4666 
L 4897 0 
L 4281 0 
L 4281 4097 
L 3078 897 
L 2444 897 
L 1241 4097 
L 1241 0 
L 628 0 
L 628 4666 
z
" transform="scale(0.015625)"/>
       <path id="DejaVuSans-65" d="M 3597 1894 
L 3597 1613 
L 953 1613 
Q 991 1019 1311 708 
Q 1631 397 2203 397 
Q 2534 397 2845 478 
Q 3156 559 3463 722 
L 3463 178 
Q 3153 47 2828 -22 
Q 2503 -91 2169 -91 
Q 1331 -91 842 396 
Q 353 884 353 1716 
Q 353 2575 817 3079 
Q 1281 3584 2069 3584 
Q 2775 3584 3186 3129 
Q 3597 2675 3597 1894 
z
M 3022 2063 
Q 3016 2534 2758 2815 
Q 2500 3097 2075 3097 
Q 1594 3097 1305 2825 
Q 1016 2553 972 2059 
L 3022 2063 
z
" transform="scale(0.015625)"/>
       <path id="DejaVuSans-61" d="M 2194 1759 
Q 1497 1759 1228 1600 
Q 959 1441 959 1056 
Q 959 750 1161 570 
Q 1363 391 1709 391 
Q 2188 391 2477 730 
Q 2766 1069 2766 1631 
L 2766 1759 
L 2194 1759 
z
M 3341 1997 
L 3341 0 
L 2766 0 
L 2766 531 
Q 2569 213 2275 61 
Q 1981 -91 1556 -91 
Q 1019 -91 701 211 
Q 384 513 384 1019 
Q 384 1609 779 1909 
Q 1175 2209 1959 2209 
L 2766 2209 
L 2766 2266 
Q 2766 2663 2505 2880 
Q 2244 3097 1772 3097 
Q 1472 3097 1187 3025 
Q 903 2953 641 2809 
L 641 3341 
Q 956 3463 1253 3523 
Q 1550 3584 1831 3584 
Q 2591 3584 2966 3190 
Q 3341 2797 3341 1997 
z
" transform="scale(0.015625)"/>
       <path id="DejaVuSans-6e" d="M 3513 2113 
L 3513 0 
L 2938 0 
L 2938 2094 
Q 2938 2591 2744 2837 
Q 2550 3084 2163 3084 
Q 1697 3084 1428 2787 
Q 1159 2491 1159 1978 
L 1159 0 
L 581 0 
L 581 3500 
L 1159 3500 
L 1159 2956 
Q 1366 3272 1645 3428 
Q 1925 3584 2291 3584 
Q 2894 3584 3203 3211 
Q 3513 2838 3513 2113 
z
" transform="scale(0.015625)"/>
      </defs>
      <use xlink:href="#DejaVuSans-4d"/>
      <use xlink:href="#DejaVuSans-65" transform="translate(86.279297 0)"/>
      <use xlink:href="#DejaVuSans-61" transform="translate(147.802734 0)"/>
      <use xlink:href="#DejaVuSans-6e" transform="translate(209.082031 0)"/>
     </g>
    </g>
    <g id="line2d_24">
     <path d="M 874.56071 92.544688 
L 896.56071 92.544688 
L 918.56071 92.544688 
" style="fill: none; stroke-dasharray: 7.4,3.2; stroke-dashoffset: 0; stroke: #000000; stroke-width: 2"/>
    </g>
    <g id="text_21">
     <!-- P10 Percentile -->
     <g style="fill: #262626" transform="translate(936.16071 100.244688) scale(0.22 -0.22)">
      <defs>
       <path id="DejaVuSans-50" d="M 1259 4147 
L 1259 2394 
L 2053 2394 
Q 2494 2394 2734 2622 
Q 2975 2850 2975 3272 
Q 2975 3691 2734 3919 
Q 2494 4147 2053 4147 
L 1259 4147 
z
M 628 4666 
L 2053 4666 
Q 2838 4666 3239 4311 
Q 3641 3956 3641 3272 
Q 3641 2581 3239 2228 
Q 2838 1875 2053 1875 
L 1259 1875 
L 1259 0 
L 628 0 
L 628 4666 
z
" transform="scale(0.015625)"/>
       <path id="DejaVuSans-20" transform="scale(0.015625)"/>
       <path id="DejaVuSans-72" d="M 2631 2963 
Q 2534 3019 2420 3045 
Q 2306 3072 2169 3072 
Q 1681 3072 1420 2755 
Q 1159 2438 1159 1844 
L 1159 0 
L 581 0 
L 581 3500 
L 1159 3500 
L 1159 2956 
Q 1341 3275 1631 3429 
Q 1922 3584 2338 3584 
Q 2397 3584 2469 3576 
Q 2541 3569 2628 3553 
L 2631 2963 
z
" transform="scale(0.015625)"/>
       <path id="DejaVuSans-63" d="M 3122 3366 
L 3122 2828 
Q 2878 2963 2633 3030 
Q 2388 3097 2138 3097 
Q 1578 3097 1268 2742 
Q 959 2388 959 1747 
Q 959 1106 1268 751 
Q 1578 397 2138 397 
Q 2388 397 2633 464 
Q 2878 531 3122 666 
L 3122 134 
Q 2881 22 2623 -34 
Q 2366 -91 2075 -91 
Q 1284 -91 818 406 
Q 353 903 353 1747 
Q 353 2603 823 3093 
Q 1294 3584 2113 3584 
Q 2378 3584 2631 3529 
Q 2884 3475 3122 3366 
z
" transform="scale(0.015625)"/>
       <path id="DejaVuSans-74" d="M 1172 4494 
L 1172 3500 
L 2356 3500 
L 2356 3053 
L 1172 3053 
L 1172 1153 
Q 1172 725 1289 603 
Q 1406 481 1766 481 
L 2356 481 
L 2356 0 
L 1766 0 
Q 1100 0 847 248 
Q 594 497 594 1153 
L 594 3053 
L 172 3053 
L 172 3500 
L 594 3500 
L 594 4494 
L 1172 4494 
z
" transform="scale(0.015625)"/>
       <path id="DejaVuSans-69" d="M 603 3500 
L 1178 3500 
L 1178 0 
L 603 0 
L 603 3500 
z
M 603 4863 
L 1178 4863 
L 1178 4134 
L 603 4134 
L 603 4863 
z
" transform="scale(0.015625)"/>
       <path id="DejaVuSans-6c" d="M 603 4863 
L 1178 4863 
L 1178 0 
L 603 0 
L 603 4863 
z
" transform="scale(0.015625)"/>
      </defs>
      <use xlink:href="#DejaVuSans-50"/>
      <use xlink:href="#DejaVuSans-31" transform="translate(60.302734 0)"/>
      <use xlink:href="#DejaVuSans-30" transform="translate(123.925781 0)"/>
      <use xlink:href="#DejaVuSans-20" transform="translate(187.548828 0)"/>
      <use xlink:href="#DejaVuSans-50" transform="translate(219.335938 0)"/>
      <use xlink:href="#DejaVuSans-65" transform="translate(276.013672 0)"/>
      <use xlink:href="#DejaVuSans-72" transform="translate(337.537109 0)"/>
      <use xlink:href="#DejaVuSans-63" transform="translate(376.400391 0)"/>
      <use xlink:href="#DejaVuSans-65" transform="translate(431.380859 0)"/>
      <use xlink:href="#DejaVuSans-6e" transform="translate(492.904297 0)"/>
      <use xlink:href="#DejaVuSans-74" transform="translate(556.283203 0)"/>
      <use xlink:href="#DejaVuSans-69" transform="translate(595.492188 0)"/>
      <use xlink:href="#DejaVuSans-6c" transform="translate(623.275391 0)"/>
      <use xlink:href="#DejaVuSans-65" transform="translate(651.058594 0)"/>
     </g>
    </g>
    <g id="line2d_25">
     <path d="M 874.56071 124.836563 
L 896.56071 124.836563 
L 918.56071 124.836563 
" style="fill: none; stroke-dasharray: 2,3.3; stroke-dashoffset: 0; stroke: #000000; stroke-width: 2"/>
    </g>
    <g id="text_22">
     <!-- P90 Percentile -->
     <g style="fill: #262626" transform="translate(936.16071 132.536563) scale(0.22 -0.22)">
      <use xlink:href="#DejaVuSans-50"/>
      <use xlink:href="#DejaVuSans-39" transform="translate(60.302734 0)"/>
      <use xlink:href="#DejaVuSans-30" transform="translate(123.925781 0)"/>
      <use xlink:href="#DejaVuSans-20" transform="translate(187.548828 0)"/>
      <use xlink:href="#DejaVuSans-50" transform="translate(219.335938 0)"/>
      <use xlink:href="#DejaVuSans-65" transform="translate(276.013672 0)"/>
      <use xlink:href="#DejaVuSans-72" transform="translate(337.537109 0)"/>
      <use xlink:href="#DejaVuSans-63" transform="translate(376.400391 0)"/>
      <use xlink:href="#DejaVuSans-65" transform="translate(431.380859 0)"/>
      <use xlink:href="#DejaVuSans-6e" transform="translate(492.904297 0)"/>
      <use xlink:href="#DejaVuSans-74" transform="translate(556.283203 0)"/>
      <use xlink:href="#DejaVuSans-69" transform="translate(595.492188 0)"/>
      <use xlink:href="#DejaVuSans-6c" transform="translate(623.275391 0)"/>
      <use xlink:href="#DejaVuSans-65" transform="translate(651.058594 0)"/>
     </g>
    </g>
    <g id="patch_8">
     <path d="M 874.56071 164.828438 
L 918.56071 164.828438 
L 918.56071 149.428438 
L 874.56071 149.428438 
z
" style="fill: #58508d; fill-opacity: 0.7; stroke: #58508d; stroke-opacity: 0.7; stroke-width: 0.8; stroke-linejoin: miter"/>
    </g>
    <g id="text_23">
     <!-- Batch 0 -->
     <g style="fill: #262626" transform="translate(936.16071 164.828438) scale(0.22 -0.22)">
      <defs>
       <path id="DejaVuSans-42" d="M 1259 2228 
L 1259 519 
L 2272 519 
Q 2781 519 3026 730 
Q 3272 941 3272 1375 
Q 3272 1813 3026 2020 
Q 2781 2228 2272 2228 
L 1259 2228 
z
M 1259 4147 
L 1259 2741 
L 2194 2741 
Q 2656 2741 2882 2914 
Q 3109 3088 3109 3444 
Q 3109 3797 2882 3972 
Q 2656 4147 2194 4147 
L 1259 4147 
z
M 628 4666 
L 2241 4666 
Q 2963 4666 3353 4366 
Q 3744 4066 3744 3513 
Q 3744 3084 3544 2831 
Q 3344 2578 2956 2516 
Q 3422 2416 3680 2098 
Q 3938 1781 3938 1306 
Q 3938 681 3513 340 
Q 3088 0 2303 0 
L 628 0 
L 628 4666 
z
" transform="scale(0.015625)"/>
       <path id="DejaVuSans-68" d="M 3513 2113 
L 3513 0 
L 2938 0 
L 2938 2094 
Q 2938 2591 2744 2837 
Q 2550 3084 2163 3084 
Q 1697 3084 1428 2787 
Q 1159 2491 1159 1978 
L 1159 0 
L 581 0 
L 581 4863 
L 1159 4863 
L 1159 2956 
Q 1366 3272 1645 3428 
Q 1925 3584 2291 3584 
Q 2894 3584 3203 3211 
Q 3513 2838 3513 2113 
z
" transform="scale(0.015625)"/>
      </defs>
      <use xlink:href="#DejaVuSans-42"/>
      <use xlink:href="#DejaVuSans-61" transform="translate(68.603516 0)"/>
      <use xlink:href="#DejaVuSans-74" transform="translate(129.882812 0)"/>
      <use xlink:href="#DejaVuSans-63" transform="translate(169.091797 0)"/>
      <use xlink:href="#DejaVuSans-68" transform="translate(224.072266 0)"/>
      <use xlink:href="#DejaVuSans-20" transform="translate(287.451172 0)"/>
      <use xlink:href="#DejaVuSans-30" transform="translate(319.238281 0)"/>
     </g>
    </g>
    <g id="patch_9">
     <path d="M 874.56071 197.120313 
L 918.56071 197.120313 
L 918.56071 181.720313 
L 874.56071 181.720313 
z
" style="fill: #ffa600; fill-opacity: 0.7; stroke: #ffa600; stroke-opacity: 0.7; stroke-width: 0.8; stroke-linejoin: miter"/>
    </g>
    <g id="text_24">
     <!-- Batch 5 -->
     <g style="fill: #262626" transform="translate(936.16071 197.120313) scale(0.22 -0.22)">
      <use xlink:href="#DejaVuSans-42"/>
      <use xlink:href="#DejaVuSans-61" transform="translate(68.603516 0)"/>
      <use xlink:href="#DejaVuSans-74" transform="translate(129.882812 0)"/>
      <use xlink:href="#DejaVuSans-63" transform="translate(169.091797 0)"/>
      <use xlink:href="#DejaVuSans-68" transform="translate(224.072266 0)"/>
      <use xlink:href="#DejaVuSans-20" transform="translate(287.451172 0)"/>
      <use xlink:href="#DejaVuSans-35" transform="translate(319.238281 0)"/>
     </g>
    </g>
   </g>
  </g>
 </g>
 <defs>
  <clipPath id="p450a31326e">
   <rect x="134.535" y="31.43625" width="978.192898" height="542.004"/>
  </clipPath>
 </defs>
</svg>
