<?xml version="1.0" encoding="utf-8" standalone="no"?>
<!DOCTYPE svg PUBLIC "-//W3C//DTD SVG 1.1//EN"
  "http://www.w3.org/Graphics/SVG/1.1/DTD/svg11.dtd">
<svg xmlns:xlink="http://www.w3.org/1999/xlink" width="1144.092395pt" height="641.330875pt" viewBox="0 0 1144.092395 641.330875" xmlns="http://www.w3.org/2000/svg" version="1.1">
 <metadata>
  <rdf:RDF xmlns:dc="http://purl.org/dc/elements/1.1/" xmlns:cc="http://creativecommons.org/ns#" xmlns:rdf="http://www.w3.org/1999/02/22-rdf-syntax-ns#">
   <cc:Work>
    <dc:type rdf:resource="http://purl.org/dc/dcmitype/StillImage"/>
    <dc:date>2025-08-08T10:44:30.572982</dc:date>
    <dc:format>image/svg+xml</dc:format>
    <dc:creator>
     <cc:Agent>
      <dc:title>Matplotlib v3.10.3, https://matplotlib.org/</dc:title>
     </cc:Agent>
    </dc:creator>
   </cc:Work>
  </rdf:RDF>
 </metadata>
 <defs>
  <style type="text/css">*{stroke-linejoin: round; stroke-linecap: butt}</style>
 </defs>
 <g id="figure_1">
  <g id="patch_1">
   <path d="M 0 641.330875 
L 1144.092395 641.330875 
L 1144.092395 0 
L 0 0 
z
" style="fill: #ffffff"/>
  </g>
  <g id="axes_1">
   <g id="patch_2">
    <path d="M 81.0825 573.44025 
L 1112.735398 573.44025 
L 1112.735398 31.43625 
L 81.0825 31.43625 
z
" style="fill: #eaeaf2"/>
   </g>
   <g id="matplotlib.axis_1">
    <g id="xtick_1">
     <g id="line2d_1">
      <path d="M 86.26869 573.44025 
L 86.26869 31.43625 
" clip-path="url(#pf1fbba0b7b)" style="fill: none; stroke: #ffffff; stroke-width: 0.8; stroke-linecap: round"/>
     </g>
     <g id="text_1">
      <!-- 2023 -->
      <g style="fill: #262626" transform="translate(55.72869 599.9765) scale(0.24 -0.24)">
       <defs>
        <path id="DejaVuSans-32" d="M 1228 531 
L 3431 531 
L 3431 0 
L 469 0 
L 469 531 
Q 828 903 1448 1529 
Q 2069 2156 2228 2338 
Q 2531 2678 2651 2914 
Q 2772 3150 2772 3378 
Q 2772 3750 2511 3984 
Q 2250 4219 1831 4219 
Q 1534 4219 1204 4116 
Q 875 4013 500 3803 
L 500 4441 
Q 881 4594 1212 4672 
Q 1544 4750 1819 4750 
Q 2544 4750 2975 4387 
Q 3406 4025 3406 3419 
Q 3406 3131 3298 2873 
Q 3191 2616 2906 2266 
Q 2828 2175 2409 1742 
Q 1991 1309 1228 531 
z
" transform="scale(0.015625)"/>
        <path id="DejaVuSans-30" d="M 2034 4250 
Q 1547 4250 1301 3770 
Q 1056 3291 1056 2328 
Q 1056 1369 1301 889 
Q 1547 409 2034 409 
Q 2525 409 2770 889 
Q 3016 1369 3016 2328 
Q 3016 3291 2770 3770 
Q 2525 4250 2034 4250 
z
M 2034 4750 
Q 2819 4750 3233 4129 
Q 3647 3509 3647 2328 
Q 3647 1150 3233 529 
Q 2819 -91 2034 -91 
Q 1250 -91 836 529 
Q 422 1150 422 2328 
Q 422 3509 836 4129 
Q 1250 4750 2034 4750 
z
" transform="scale(0.015625)"/>
        <path id="DejaVuSans-33" d="M 2597 2516 
Q 3050 2419 3304 2112 
Q 3559 1806 3559 1356 
Q 3559 666 3084 287 
Q 2609 -91 1734 -91 
Q 1441 -91 1130 -33 
Q 819 25 488 141 
L 488 750 
Q 750 597 1062 519 
Q 1375 441 1716 441 
Q 2309 441 2620 675 
Q 2931 909 2931 1356 
Q 2931 1769 2642 2001 
Q 2353 2234 1838 2234 
L 1294 2234 
L 1294 2753 
L 1863 2753 
Q 2328 2753 2575 2939 
Q 2822 3125 2822 3475 
Q 2822 3834 2567 4026 
Q 2313 4219 1838 4219 
Q 1578 4219 1281 4162 
Q 984 4106 628 3988 
L 628 4550 
Q 988 4650 1302 4700 
Q 1616 4750 1894 4750 
Q 2613 4750 3031 4423 
Q 3450 4097 3450 3541 
Q 3450 3153 3228 2886 
Q 3006 2619 2597 2516 
z
" transform="scale(0.015625)"/>
       </defs>
       <use xlink:href="#DejaVuSans-32"/>
       <use xlink:href="#DejaVuSans-30" transform="translate(63.623047 0)"/>
       <use xlink:href="#DejaVuSans-32" transform="translate(127.246094 0)"/>
       <use xlink:href="#DejaVuSans-33" transform="translate(190.869141 0)"/>
      </g>
     </g>
    </g>
    <g id="xtick_2">
     <g id="line2d_2">
      <path d="M 231.880951 573.44025 
L 231.880951 31.43625 
" clip-path="url(#pf1fbba0b7b)" style="fill: none; stroke: #ffffff; stroke-width: 0.8; stroke-linecap: round"/>
     </g>
     <g id="text_2">
      <!-- 2024 -->
      <g style="fill: #262626" transform="translate(201.340951 599.9765) scale(0.24 -0.24)">
       <defs>
        <path id="DejaVuSans-34" d="M 2419 4116 
L 825 1625 
L 2419 1625 
L 2419 4116 
z
M 2253 4666 
L 3047 4666 
L 3047 1625 
L 3713 1625 
L 3713 1100 
L 3047 1100 
L 3047 0 
L 2419 0 
L 2419 1100 
L 313 1100 
L 313 1709 
L 2253 4666 
z
" transform="scale(0.015625)"/>
       </defs>
       <use xlink:href="#DejaVuSans-32"/>
       <use xlink:href="#DejaVuSans-30" transform="translate(63.623047 0)"/>
       <use xlink:href="#DejaVuSans-32" transform="translate(127.246094 0)"/>
       <use xlink:href="#DejaVuSans-34" transform="translate(190.869141 0)"/>
      </g>
     </g>
    </g>
    <g id="xtick_3">
     <g id="line2d_3">
      <path d="M 377.89215 573.44025 
L 377.89215 31.43625 
" clip-path="url(#pf1fbba0b7b)" style="fill: none; stroke: #ffffff; stroke-width: 0.8; stroke-linecap: round"/>
     </g>
     <g id="text_3">
      <!-- 2025 -->
      <g style="fill: #262626" transform="translate(347.35215 599.9765) scale(0.24 -0.24)">
       <defs>
        <path id="DejaVuSans-35" d="M 691 4666 
L 3169 4666 
L 3169 4134 
L 1269 4134 
L 1269 2991 
Q 1406 3038 1543 3061 
Q 1681 3084 1819 3084 
Q 2600 3084 3056 2656 
Q 3513 2228 3513 1497 
Q 3513 744 3044 326 
Q 2575 -91 1722 -91 
Q 1428 -91 1123 -41 
Q 819 9 494 109 
L 494 744 
Q 775 591 1075 516 
Q 1375 441 1709 441 
Q 2250 441 2565 725 
Q 2881 1009 2881 1497 
Q 2881 1984 2565 2268 
Q 2250 2553 1709 2553 
Q 1456 2553 1204 2497 
Q 953 2441 691 2322 
L 691 4666 
z
" transform="scale(0.015625)"/>
       </defs>
       <use xlink:href="#DejaVuSans-32"/>
       <use xlink:href="#DejaVuSans-30" transform="translate(63.623047 0)"/>
       <use xlink:href="#DejaVuSans-32" transform="translate(127.246094 0)"/>
       <use xlink:href="#DejaVuSans-35" transform="translate(190.869141 0)"/>
      </g>
     </g>
    </g>
    <g id="xtick_4">
     <g id="line2d_4">
      <path d="M 523.504412 573.44025 
L 523.504412 31.43625 
" clip-path="url(#pf1fbba0b7b)" style="fill: none; stroke: #ffffff; stroke-width: 0.8; stroke-linecap: round"/>
     </g>
     <g id="text_4">
      <!-- 2026 -->
      <g style="fill: #262626" transform="translate(492.964412 599.9765) scale(0.24 -0.24)">
       <defs>
        <path id="DejaVuSans-36" d="M 2113 2584 
Q 1688 2584 1439 2293 
Q 1191 2003 1191 1497 
Q 1191 994 1439 701 
Q 1688 409 2113 409 
Q 2538 409 2786 701 
Q 3034 994 3034 1497 
Q 3034 2003 2786 2293 
Q 2538 2584 2113 2584 
z
M 3366 4563 
L 3366 3988 
Q 3128 4100 2886 4159 
Q 2644 4219 2406 4219 
Q 1781 4219 1451 3797 
Q 1122 3375 1075 2522 
Q 1259 2794 1537 2939 
Q 1816 3084 2150 3084 
Q 2853 3084 3261 2657 
Q 3669 2231 3669 1497 
Q 3669 778 3244 343 
Q 2819 -91 2113 -91 
Q 1303 -91 875 529 
Q 447 1150 447 2328 
Q 447 3434 972 4092 
Q 1497 4750 2381 4750 
Q 2619 4750 2861 4703 
Q 3103 4656 3366 4563 
z
" transform="scale(0.015625)"/>
       </defs>
       <use xlink:href="#DejaVuSans-32"/>
       <use xlink:href="#DejaVuSans-30" transform="translate(63.623047 0)"/>
       <use xlink:href="#DejaVuSans-32" transform="translate(127.246094 0)"/>
       <use xlink:href="#DejaVuSans-36" transform="translate(190.869141 0)"/>
      </g>
     </g>
    </g>
    <g id="xtick_5">
     <g id="line2d_5">
      <path d="M 669.116673 573.44025 
L 669.116673 31.43625 
" clip-path="url(#pf1fbba0b7b)" style="fill: none; stroke: #ffffff; stroke-width: 0.8; stroke-linecap: round"/>
     </g>
     <g id="text_5">
      <!-- 2027 -->
      <g style="fill: #262626" transform="translate(638.576673 599.9765) scale(0.24 -0.24)">
       <defs>
        <path id="DejaVuSans-37" d="M 525 4666 
L 3525 4666 
L 3525 4397 
L 1831 0 
L 1172 0 
L 2766 4134 
L 525 4134 
L 525 4666 
z
" transform="scale(0.015625)"/>
       </defs>
       <use xlink:href="#DejaVuSans-32"/>
       <use xlink:href="#DejaVuSans-30" transform="translate(63.623047 0)"/>
       <use xlink:href="#DejaVuSans-32" transform="translate(127.246094 0)"/>
       <use xlink:href="#DejaVuSans-37" transform="translate(190.869141 0)"/>
      </g>
     </g>
    </g>
    <g id="xtick_6">
     <g id="line2d_6">
      <path d="M 814.728934 573.44025 
L 814.728934 31.43625 
" clip-path="url(#pf1fbba0b7b)" style="fill: none; stroke: #ffffff; stroke-width: 0.8; stroke-linecap: round"/>
     </g>
     <g id="text_6">
      <!-- 2028 -->
      <g style="fill: #262626" transform="translate(784.188934 599.9765) scale(0.24 -0.24)">
       <defs>
        <path id="DejaVuSans-38" d="M 2034 2216 
Q 1584 2216 1326 1975 
Q 1069 1734 1069 1313 
Q 1069 891 1326 650 
Q 1584 409 2034 409 
Q 2484 409 2743 651 
Q 3003 894 3003 1313 
Q 3003 1734 2745 1975 
Q 2488 2216 2034 2216 
z
M 1403 2484 
Q 997 2584 770 2862 
Q 544 3141 544 3541 
Q 544 4100 942 4425 
Q 1341 4750 2034 4750 
Q 2731 4750 3128 4425 
Q 3525 4100 3525 3541 
Q 3525 3141 3298 2862 
Q 3072 2584 2669 2484 
Q 3125 2378 3379 2068 
Q 3634 1759 3634 1313 
Q 3634 634 3220 271 
Q 2806 -91 2034 -91 
Q 1263 -91 848 271 
Q 434 634 434 1313 
Q 434 1759 690 2068 
Q 947 2378 1403 2484 
z
M 1172 3481 
Q 1172 3119 1398 2916 
Q 1625 2713 2034 2713 
Q 2441 2713 2670 2916 
Q 2900 3119 2900 3481 
Q 2900 3844 2670 4047 
Q 2441 4250 2034 4250 
Q 1625 4250 1398 4047 
Q 1172 3844 1172 3481 
z
" transform="scale(0.015625)"/>
       </defs>
       <use xlink:href="#DejaVuSans-32"/>
       <use xlink:href="#DejaVuSans-30" transform="translate(63.623047 0)"/>
       <use xlink:href="#DejaVuSans-32" transform="translate(127.246094 0)"/>
       <use xlink:href="#DejaVuSans-38" transform="translate(190.869141 0)"/>
      </g>
     </g>
    </g>
    <g id="xtick_7">
     <g id="line2d_7">
      <path d="M 960.740133 573.44025 
L 960.740133 31.43625 
" clip-path="url(#pf1fbba0b7b)" style="fill: none; stroke: #ffffff; stroke-width: 0.8; stroke-linecap: round"/>
     </g>
     <g id="text_7">
      <!-- 2029 -->
      <g style="fill: #262626" transform="translate(930.200133 599.9765) scale(0.24 -0.24)">
       <defs>
        <path id="DejaVuSans-39" d="M 703 97 
L 703 672 
Q 941 559 1184 500 
Q 1428 441 1663 441 
Q 2288 441 2617 861 
Q 2947 1281 2994 2138 
Q 2813 1869 2534 1725 
Q 2256 1581 1919 1581 
Q 1219 1581 811 2004 
Q 403 2428 403 3163 
Q 403 3881 828 4315 
Q 1253 4750 1959 4750 
Q 2769 4750 3195 4129 
Q 3622 3509 3622 2328 
Q 3622 1225 3098 567 
Q 2575 -91 1691 -91 
Q 1453 -91 1209 -44 
Q 966 3 703 97 
z
M 1959 2075 
Q 2384 2075 2632 2365 
Q 2881 2656 2881 3163 
Q 2881 3666 2632 3958 
Q 2384 4250 1959 4250 
Q 1534 4250 1286 3958 
Q 1038 3666 1038 3163 
Q 1038 2656 1286 2365 
Q 1534 2075 1959 2075 
z
" transform="scale(0.015625)"/>
       </defs>
       <use xlink:href="#DejaVuSans-32"/>
       <use xlink:href="#DejaVuSans-30" transform="translate(63.623047 0)"/>
       <use xlink:href="#DejaVuSans-32" transform="translate(127.246094 0)"/>
       <use xlink:href="#DejaVuSans-39" transform="translate(190.869141 0)"/>
      </g>
     </g>
    </g>
    <g id="xtick_8">
     <g id="line2d_8">
      <path d="M 1106.352395 573.44025 
L 1106.352395 31.43625 
" clip-path="url(#pf1fbba0b7b)" style="fill: none; stroke: #ffffff; stroke-width: 0.8; stroke-linecap: round"/>
     </g>
     <g id="text_8">
      <!-- 2030 -->
      <g style="fill: #262626" transform="translate(1075.812395 599.9765) scale(0.24 -0.24)">
       <use xlink:href="#DejaVuSans-32"/>
       <use xlink:href="#DejaVuSans-30" transform="translate(63.623047 0)"/>
       <use xlink:href="#DejaVuSans-33" transform="translate(127.246094 0)"/>
       <use xlink:href="#DejaVuSans-30" transform="translate(190.869141 0)"/>
      </g>
     </g>
    </g>
    <g id="text_9">
     <!-- Date -->
     <g style="fill: #262626" transform="translate(562.312699 628.723687) scale(0.26 -0.26)">
      <defs>
       <path id="DejaVuSans-Bold-44" d="M 1791 3756 
L 1791 909 
L 2222 909 
Q 2959 909 3348 1275 
Q 3738 1641 3738 2338 
Q 3738 3031 3350 3393 
Q 2963 3756 2222 3756 
L 1791 3756 
z
M 588 4666 
L 1856 4666 
Q 2919 4666 3439 4514 
Q 3959 4363 4331 4000 
Q 4659 3684 4818 3271 
Q 4978 2859 4978 2338 
Q 4978 1809 4818 1395 
Q 4659 981 4331 666 
Q 3956 303 3431 151 
Q 2906 0 1856 0 
L 588 0 
L 588 4666 
z
" transform="scale(0.015625)"/>
       <path id="DejaVuSans-Bold-61" d="M 2106 1575 
Q 1756 1575 1579 1456 
Q 1403 1338 1403 1106 
Q 1403 894 1545 773 
Q 1688 653 1941 653 
Q 2256 653 2472 879 
Q 2688 1106 2688 1447 
L 2688 1575 
L 2106 1575 
z
M 3816 1997 
L 3816 0 
L 2688 0 
L 2688 519 
Q 2463 200 2181 54 
Q 1900 -91 1497 -91 
Q 953 -91 614 226 
Q 275 544 275 1050 
Q 275 1666 698 1953 
Q 1122 2241 2028 2241 
L 2688 2241 
L 2688 2328 
Q 2688 2594 2478 2717 
Q 2269 2841 1825 2841 
Q 1466 2841 1156 2769 
Q 847 2697 581 2553 
L 581 3406 
Q 941 3494 1303 3539 
Q 1666 3584 2028 3584 
Q 2975 3584 3395 3211 
Q 3816 2838 3816 1997 
z
" transform="scale(0.015625)"/>
       <path id="DejaVuSans-Bold-74" d="M 1759 4494 
L 1759 3500 
L 2913 3500 
L 2913 2700 
L 1759 2700 
L 1759 1216 
Q 1759 972 1856 886 
Q 1953 800 2241 800 
L 2816 800 
L 2816 0 
L 1856 0 
Q 1194 0 917 276 
Q 641 553 641 1216 
L 641 2700 
L 84 2700 
L 84 3500 
L 641 3500 
L 641 4494 
L 1759 4494 
z
" transform="scale(0.015625)"/>
       <path id="DejaVuSans-Bold-65" d="M 4031 1759 
L 4031 1441 
L 1416 1441 
Q 1456 1047 1700 850 
Q 1944 653 2381 653 
Q 2734 653 3104 758 
Q 3475 863 3866 1075 
L 3866 213 
Q 3469 63 3072 -14 
Q 2675 -91 2278 -91 
Q 1328 -91 801 392 
Q 275 875 275 1747 
Q 275 2603 792 3093 
Q 1309 3584 2216 3584 
Q 3041 3584 3536 3087 
Q 4031 2591 4031 1759 
z
M 2881 2131 
Q 2881 2450 2695 2645 
Q 2509 2841 2209 2841 
Q 1884 2841 1681 2658 
Q 1478 2475 1428 2131 
L 2881 2131 
z
" transform="scale(0.015625)"/>
      </defs>
      <use xlink:href="#DejaVuSans-Bold-44"/>
      <use xlink:href="#DejaVuSans-Bold-61" transform="translate(83.007812 0)"/>
      <use xlink:href="#DejaVuSans-Bold-74" transform="translate(150.488281 0)"/>
      <use xlink:href="#DejaVuSans-Bold-65" transform="translate(198.291016 0)"/>
     </g>
    </g>
   </g>
   <g id="matplotlib.axis_2">
    <g id="ytick_1">
     <g id="line2d_9">
      <path d="M 81.0825 548.803705 
L 1112.735398 548.803705 
" clip-path="url(#pf1fbba0b7b)" style="fill: none; stroke: #ffffff; stroke-width: 0.8; stroke-linecap: round"/>
     </g>
     <g id="text_10">
      <!-- 0.0 -->
      <g style="fill: #262626" transform="translate(34.615 557.92183) scale(0.24 -0.24)">
       <defs>
        <path id="DejaVuSans-2e" d="M 684 794 
L 1344 794 
L 1344 0 
L 684 0 
L 684 794 
z
" transform="scale(0.015625)"/>
       </defs>
       <use xlink:href="#DejaVuSans-30"/>
       <use xlink:href="#DejaVuSans-2e" transform="translate(63.623047 0)"/>
       <use xlink:href="#DejaVuSans-30" transform="translate(95.410156 0)"/>
      </g>
     </g>
    </g>
    <g id="ytick_2">
     <g id="line2d_10">
      <path d="M 81.0825 451.52627 
L 1112.735398 451.52627 
" clip-path="url(#pf1fbba0b7b)" style="fill: none; stroke: #ffffff; stroke-width: 0.8; stroke-linecap: round"/>
     </g>
     <g id="text_11">
      <!-- 0.2 -->
      <g style="fill: #262626" transform="translate(34.615 460.644395) scale(0.24 -0.24)">
       <use xlink:href="#DejaVuSans-30"/>
       <use xlink:href="#DejaVuSans-2e" transform="translate(63.623047 0)"/>
       <use xlink:href="#DejaVuSans-32" transform="translate(95.410156 0)"/>
      </g>
     </g>
    </g>
    <g id="ytick_3">
     <g id="line2d_11">
      <path d="M 81.0825 354.248835 
L 1112.735398 354.248835 
" clip-path="url(#pf1fbba0b7b)" style="fill: none; stroke: #ffffff; stroke-width: 0.8; stroke-linecap: round"/>
     </g>
     <g id="text_12">
      <!-- 0.4 -->
      <g style="fill: #262626" transform="translate(34.615 363.36696) scale(0.24 -0.24)">
       <use xlink:href="#DejaVuSans-30"/>
       <use xlink:href="#DejaVuSans-2e" transform="translate(63.623047 0)"/>
       <use xlink:href="#DejaVuSans-34" transform="translate(95.410156 0)"/>
      </g>
     </g>
    </g>
    <g id="ytick_4">
     <g id="line2d_12">
      <path d="M 81.0825 256.9714 
L 1112.735398 256.9714 
" clip-path="url(#pf1fbba0b7b)" style="fill: none; stroke: #ffffff; stroke-width: 0.8; stroke-linecap: round"/>
     </g>
     <g id="text_13">
      <!-- 0.6 -->
      <g style="fill: #262626" transform="translate(34.615 266.089525) scale(0.24 -0.24)">
       <use xlink:href="#DejaVuSans-30"/>
       <use xlink:href="#DejaVuSans-2e" transform="translate(63.623047 0)"/>
       <use xlink:href="#DejaVuSans-36" transform="translate(95.410156 0)"/>
      </g>
     </g>
    </g>
    <g id="ytick_5">
     <g id="line2d_13">
      <path d="M 81.0825 159.693965 
L 1112.735398 159.693965 
" clip-path="url(#pf1fbba0b7b)" style="fill: none; stroke: #ffffff; stroke-width: 0.8; stroke-linecap: round"/>
     </g>
     <g id="text_14">
      <!-- 0.8 -->
      <g style="fill: #262626" transform="translate(34.615 168.81209) scale(0.24 -0.24)">
       <use xlink:href="#DejaVuSans-30"/>
       <use xlink:href="#DejaVuSans-2e" transform="translate(63.623047 0)"/>
       <use xlink:href="#DejaVuSans-38" transform="translate(95.410156 0)"/>
      </g>
     </g>
    </g>
    <g id="ytick_6">
     <g id="line2d_14">
      <path d="M 81.0825 62.416531 
L 1112.735398 62.416531 
" clip-path="url(#pf1fbba0b7b)" style="fill: none; stroke: #ffffff; stroke-width: 0.8; stroke-linecap: round"/>
     </g>
     <g id="text_15">
      <!-- 1.0 -->
      <g style="fill: #262626" transform="translate(34.615 71.534656) scale(0.24 -0.24)">
       <defs>
        <path id="DejaVuSans-31" d="M 794 531 
L 1825 531 
L 1825 4091 
L 703 3866 
L 703 4441 
L 1819 4666 
L 2450 4666 
L 2450 531 
L 3481 531 
L 3481 0 
L 794 0 
L 794 531 
z
" transform="scale(0.015625)"/>
       </defs>
       <use xlink:href="#DejaVuSans-31"/>
       <use xlink:href="#DejaVuSans-2e" transform="translate(63.623047 0)"/>
       <use xlink:href="#DejaVuSans-30" transform="translate(95.410156 0)"/>
      </g>
     </g>
    </g>
    <g id="text_16">
     <!-- WGPR:A4 [Sm³/day] -->
     <g style="fill: #262626" transform="translate(25.43625 436.060125) rotate(-90) scale(0.24 -0.24)">
      <defs>
       <path id="DejaVuSans-Bold-57" d="M 191 4666 
L 1344 4666 
L 2150 1275 
L 2950 4666 
L 4109 4666 
L 4909 1275 
L 5716 4666 
L 6859 4666 
L 5759 0 
L 4372 0 
L 3525 3547 
L 2688 0 
L 1300 0 
L 191 4666 
z
" transform="scale(0.015625)"/>
       <path id="DejaVuSans-Bold-47" d="M 4781 347 
Q 4331 128 3847 18 
Q 3363 -91 2847 -91 
Q 1681 -91 1000 561 
Q 319 1213 319 2328 
Q 319 3456 1012 4103 
Q 1706 4750 2913 4750 
Q 3378 4750 3804 4662 
Q 4231 4575 4609 4403 
L 4609 3438 
Q 4219 3659 3833 3768 
Q 3447 3878 3059 3878 
Q 2341 3878 1952 3476 
Q 1563 3075 1563 2328 
Q 1563 1588 1938 1184 
Q 2313 781 3003 781 
Q 3191 781 3352 804 
Q 3513 828 3641 878 
L 3641 1784 
L 2906 1784 
L 2906 2591 
L 4781 2591 
L 4781 347 
z
" transform="scale(0.015625)"/>
       <path id="DejaVuSans-Bold-50" d="M 588 4666 
L 2584 4666 
Q 3475 4666 3951 4270 
Q 4428 3875 4428 3144 
Q 4428 2409 3951 2014 
Q 3475 1619 2584 1619 
L 1791 1619 
L 1791 0 
L 588 0 
L 588 4666 
z
M 1791 3794 
L 1791 2491 
L 2456 2491 
Q 2806 2491 2997 2661 
Q 3188 2831 3188 3144 
Q 3188 3456 2997 3625 
Q 2806 3794 2456 3794 
L 1791 3794 
z
" transform="scale(0.015625)"/>
       <path id="DejaVuSans-Bold-52" d="M 2297 2597 
Q 2675 2597 2839 2737 
Q 3003 2878 3003 3200 
Q 3003 3519 2839 3656 
Q 2675 3794 2297 3794 
L 1791 3794 
L 1791 2597 
L 2297 2597 
z
M 1791 1766 
L 1791 0 
L 588 0 
L 588 4666 
L 2425 4666 
Q 3347 4666 3776 4356 
Q 4206 4047 4206 3378 
Q 4206 2916 3982 2619 
Q 3759 2322 3309 2181 
Q 3556 2125 3751 1926 
Q 3947 1728 4147 1325 
L 4800 0 
L 3519 0 
L 2950 1159 
Q 2778 1509 2601 1637 
Q 2425 1766 2131 1766 
L 1791 1766 
z
" transform="scale(0.015625)"/>
       <path id="DejaVuSans-Bold-3a" d="M 716 3500 
L 1844 3500 
L 1844 2291 
L 716 2291 
L 716 3500 
z
M 716 1209 
L 1844 1209 
L 1844 0 
L 716 0 
L 716 1209 
z
" transform="scale(0.015625)"/>
       <path id="DejaVuSans-Bold-41" d="M 3419 850 
L 1538 850 
L 1241 0 
L 31 0 
L 1759 4666 
L 3194 4666 
L 4922 0 
L 3713 0 
L 3419 850 
z
M 1838 1716 
L 3116 1716 
L 2478 3572 
L 1838 1716 
z
" transform="scale(0.015625)"/>
       <path id="DejaVuSans-Bold-34" d="M 2356 3675 
L 1038 1722 
L 2356 1722 
L 2356 3675 
z
M 2156 4666 
L 3494 4666 
L 3494 1722 
L 4159 1722 
L 4159 850 
L 3494 850 
L 3494 0 
L 2356 0 
L 2356 850 
L 288 850 
L 288 1881 
L 2156 4666 
z
" transform="scale(0.015625)"/>
       <path id="DejaVuSans-Bold-20" transform="scale(0.015625)"/>
       <path id="DejaVuSans-Bold-5b" d="M 550 4863 
L 2491 4863 
L 2491 4159 
L 1613 4159 
L 1613 -141 
L 2491 -141 
L 2491 -844 
L 550 -844 
L 550 4863 
z
" transform="scale(0.015625)"/>
       <path id="DejaVuSans-Bold-53" d="M 3834 4519 
L 3834 3531 
Q 3450 3703 3084 3790 
Q 2719 3878 2394 3878 
Q 1963 3878 1756 3759 
Q 1550 3641 1550 3391 
Q 1550 3203 1689 3098 
Q 1828 2994 2194 2919 
L 2706 2816 
Q 3484 2659 3812 2340 
Q 4141 2022 4141 1434 
Q 4141 663 3683 286 
Q 3225 -91 2284 -91 
Q 1841 -91 1394 -6 
Q 947 78 500 244 
L 500 1259 
Q 947 1022 1364 901 
Q 1781 781 2169 781 
Q 2563 781 2772 912 
Q 2981 1044 2981 1288 
Q 2981 1506 2839 1625 
Q 2697 1744 2272 1838 
L 1806 1941 
Q 1106 2091 782 2419 
Q 459 2747 459 3303 
Q 459 4000 909 4375 
Q 1359 4750 2203 4750 
Q 2588 4750 2994 4692 
Q 3400 4634 3834 4519 
z
" transform="scale(0.015625)"/>
       <path id="DejaVuSans-Bold-6d" d="M 3781 2919 
Q 3994 3244 4286 3414 
Q 4578 3584 4928 3584 
Q 5531 3584 5847 3212 
Q 6163 2841 6163 2131 
L 6163 0 
L 5038 0 
L 5038 1825 
Q 5041 1866 5042 1909 
Q 5044 1953 5044 2034 
Q 5044 2406 4934 2573 
Q 4825 2741 4581 2741 
Q 4263 2741 4089 2478 
Q 3916 2216 3909 1719 
L 3909 0 
L 2784 0 
L 2784 1825 
Q 2784 2406 2684 2573 
Q 2584 2741 2328 2741 
Q 2006 2741 1831 2477 
Q 1656 2213 1656 1722 
L 1656 0 
L 531 0 
L 531 3500 
L 1656 3500 
L 1656 2988 
Q 1863 3284 2130 3434 
Q 2397 3584 2719 3584 
Q 3081 3584 3359 3409 
Q 3638 3234 3781 2919 
z
" transform="scale(0.015625)"/>
       <path id="DejaVuSans-Bold-b3" d="M 1850 3500 
Q 2138 3444 2297 3272 
Q 2456 3100 2456 2847 
Q 2456 2444 2147 2242 
Q 1838 2041 1209 2041 
Q 956 2041 725 2077 
Q 494 2113 281 2181 
L 281 2725 
Q 488 2613 688 2555 
Q 888 2497 1075 2497 
Q 1372 2497 1534 2597 
Q 1697 2697 1697 2881 
Q 1697 3081 1530 3176 
Q 1363 3272 1006 3272 
L 775 3272 
L 775 3700 
L 1038 3700 
Q 1344 3700 1484 3773 
Q 1625 3847 1625 4006 
Q 1625 4147 1503 4217 
Q 1381 4288 1131 4288 
Q 969 4288 776 4247 
Q 584 4206 366 4122 
L 366 4641 
Q 569 4694 805 4722 
Q 1041 4750 1313 4750 
Q 1834 4750 2111 4575 
Q 2388 4400 2388 4072 
Q 2388 3856 2247 3706 
Q 2106 3556 1850 3500 
z
" transform="scale(0.015625)"/>
       <path id="DejaVuSans-Bold-2f" d="M 1644 4666 
L 2338 4666 
L 691 -594 
L 0 -594 
L 1644 4666 
z
" transform="scale(0.015625)"/>
       <path id="DejaVuSans-Bold-64" d="M 2919 2988 
L 2919 4863 
L 4044 4863 
L 4044 0 
L 2919 0 
L 2919 506 
Q 2688 197 2409 53 
Q 2131 -91 1766 -91 
Q 1119 -91 703 423 
Q 288 938 288 1747 
Q 288 2556 703 3070 
Q 1119 3584 1766 3584 
Q 2128 3584 2408 3439 
Q 2688 3294 2919 2988 
z
M 2181 722 
Q 2541 722 2730 984 
Q 2919 1247 2919 1747 
Q 2919 2247 2730 2509 
Q 2541 2772 2181 2772 
Q 1825 2772 1636 2509 
Q 1447 2247 1447 1747 
Q 1447 1247 1636 984 
Q 1825 722 2181 722 
z
" transform="scale(0.015625)"/>
       <path id="DejaVuSans-Bold-79" d="M 78 3500 
L 1197 3500 
L 2138 1125 
L 2938 3500 
L 4056 3500 
L 2584 -331 
Q 2363 -916 2067 -1148 
Q 1772 -1381 1288 -1381 
L 641 -1381 
L 641 -647 
L 991 -647 
Q 1275 -647 1404 -556 
Q 1534 -466 1606 -231 
L 1638 -134 
L 78 3500 
z
" transform="scale(0.015625)"/>
       <path id="DejaVuSans-Bold-5d" d="M 2375 -844 
L 434 -844 
L 434 -141 
L 1313 -141 
L 1313 4159 
L 434 4159 
L 434 4863 
L 2375 4863 
L 2375 -844 
z
" transform="scale(0.015625)"/>
      </defs>
      <use xlink:href="#DejaVuSans-Bold-57"/>
      <use xlink:href="#DejaVuSans-Bold-47" transform="translate(110.302734 0)"/>
      <use xlink:href="#DejaVuSans-Bold-50" transform="translate(192.382812 0)"/>
      <use xlink:href="#DejaVuSans-Bold-52" transform="translate(265.673828 0)"/>
      <use xlink:href="#DejaVuSans-Bold-3a" transform="translate(342.675781 0)"/>
      <use xlink:href="#DejaVuSans-Bold-41" transform="translate(382.666016 0)"/>
      <use xlink:href="#DejaVuSans-Bold-34" transform="translate(460.058594 0)"/>
      <use xlink:href="#DejaVuSans-Bold-20" transform="translate(529.638672 0)"/>
      <use xlink:href="#DejaVuSans-Bold-5b" transform="translate(564.453125 0)"/>
      <use xlink:href="#DejaVuSans-Bold-53" transform="translate(610.15625 0)"/>
      <use xlink:href="#DejaVuSans-Bold-6d" transform="translate(682.177734 0)"/>
      <use xlink:href="#DejaVuSans-Bold-b3" transform="translate(786.376953 0)"/>
      <use xlink:href="#DejaVuSans-Bold-2f" transform="translate(830.175781 0)"/>
      <use xlink:href="#DejaVuSans-Bold-64" transform="translate(866.699219 0)"/>
      <use xlink:href="#DejaVuSans-Bold-61" transform="translate(938.28125 0)"/>
      <use xlink:href="#DejaVuSans-Bold-79" transform="translate(1002.636719 0)"/>
      <use xlink:href="#DejaVuSans-Bold-5d" transform="translate(1067.822266 0)"/>
     </g>
    </g>
    <g id="text_17">
     <!-- 1e6 -->
     <g style="fill: #262626" transform="translate(81.0825 28.43625) scale(0.24 -0.24)">
      <defs>
       <path id="DejaVuSans-65" d="M 3597 1894 
L 3597 1613 
L 953 1613 
Q 991 1019 1311 708 
Q 1631 397 2203 397 
Q 2534 397 2845 478 
Q 3156 559 3463 722 
L 3463 178 
Q 3153 47 2828 -22 
Q 2503 -91 2169 -91 
Q 1331 -91 842 396 
Q 353 884 353 1716 
Q 353 2575 817 3079 
Q 1281 3584 2069 3584 
Q 2775 3584 3186 3129 
Q 3597 2675 3597 1894 
z
M 3022 2063 
Q 3016 2534 2758 2815 
Q 2500 3097 2075 3097 
Q 1594 3097 1305 2825 
Q 1016 2553 972 2059 
L 3022 2063 
z
" transform="scale(0.015625)"/>
      </defs>
      <use xlink:href="#DejaVuSans-31"/>
      <use xlink:href="#DejaVuSans-65" transform="translate(63.623047 0)"/>
      <use xlink:href="#DejaVuSans-36" transform="translate(125.146484 0)"/>
     </g>
    </g>
   </g>
   <g id="FillBetweenPolyCollection_1">
    <defs>
     <path id="m467f78703e" d="M 38.795104 -92.52717 
L 38.795104 -92.52717 
L 39.991917 -92.52717 
L 43.582356 -92.52717 
L 54.353674 -92.52717 
L 66.321805 -92.52717 
L 78.289936 -92.52717 
L 86.26869 -92.52717 
L 122.173083 -92.52717 
L 128.356618 -92.52717 
L 134.540152 -92.52717 
L 158.476414 -92.52717 
L 182.811614 -92.52717 
L 195.178683 -92.52717 
L 231.083076 -92.52717 
L 231.880951 -348.426042 
L 268.184282 -296.066675 
L 279.354538 -285.479227 
L 304.487613 -259.460827 
L 327.626 -241.658281 
L 341.189882 -235.698017 
L 377.89215 -212.330221 
L 413.796544 -186.774839 
L 450.099875 -171.943488 
L 486.802143 -161.278742 
L 523.504412 -151.435041 
L 559.408805 -145.558542 
L 595.712136 -138.135441 
L 632.414404 -131.902963 
L 669.116673 -127.650644 
L 681.084804 -126.154179 
L 693.052935 -124.640887 
L 705.021066 -123.387312 
L 741.324397 -119.432959 
L 778.026666 -114.982146 
L 789.994797 -113.98617 
L 814.728934 -112.151696 
L 851.032265 -109.704798 
L 887.335596 -107.11755 
L 924.037865 -104.261607 
L 960.740133 -102.419445 
L 996.644527 -100.672434 
L 1008.612658 -100.287166 
L 1032.947857 -99.447327 
L 1069.650126 -98.373691 
L 1081.618257 -98.118626 
L 1106.352395 -97.658036 
L 1106.352395 -112.766197 
L 1106.352395 -112.766197 
L 1081.618257 -114.144643 
L 1069.650126 -114.829466 
L 1032.947857 -117.132392 
L 1008.612658 -119.321292 
L 996.644527 -120.395491 
L 960.740133 -123.226056 
L 924.037865 -127.278497 
L 887.335596 -132.373475 
L 851.032265 -136.299854 
L 814.728934 -142.172584 
L 789.994797 -146.497124 
L 778.026666 -148.710213 
L 741.324397 -155.456904 
L 705.021066 -163.589294 
L 693.052935 -166.550092 
L 681.084804 -169.017892 
L 669.116673 -172.770931 
L 632.414404 -182.98529 
L 595.712136 -200.765211 
L 559.408805 -223.82941 
L 523.504412 -255.992962 
L 486.802143 -292.680037 
L 450.099875 -338.02488 
L 413.796544 -364.466604 
L 377.89215 -430.909463 
L 341.189882 -501.318627 
L 327.626 -578.249818 
L 304.487613 -585.25808 
L 279.354538 -531.114858 
L 268.184282 -496.956099 
L 231.880951 -364.584036 
L 231.083076 -92.52717 
L 195.178683 -92.52717 
L 182.811614 -92.52717 
L 158.476414 -92.52717 
L 134.540152 -92.52717 
L 128.356618 -92.52717 
L 122.173083 -92.52717 
L 86.26869 -92.52717 
L 78.289936 -92.52717 
L 66.321805 -92.52717 
L 54.353674 -92.52717 
L 43.582356 -92.52717 
L 39.991917 -92.52717 
L 38.795104 -92.52717 
z
" style="stroke: #58508d; stroke-opacity: 0.7; stroke-width: 0.8"/>
    </defs>
    <g clip-path="url(#pf1fbba0b7b)">
     <use xlink:href="#m467f78703e" x="0" y="641.330875" style="fill: #58508d; fill-opacity: 0.7; stroke: #58508d; stroke-opacity: 0.7; stroke-width: 0.8"/>
    </g>
   </g>
   <g id="FillBetweenPolyCollection_2">
    <defs>
     <path id="m1f69a47207" d="M 38.795104 -92.52717 
L 38.795104 -92.52717 
L 39.991917 -92.52717 
L 43.582356 -92.52717 
L 54.353674 -92.52717 
L 66.321805 -92.52717 
L 78.289936 -92.52717 
L 86.26869 -92.52717 
L 122.173083 -92.52717 
L 128.356618 -92.52717 
L 134.540152 -92.52717 
L 158.476414 -341.766474 
L 182.811614 -318.507348 
L 195.178683 -305.081588 
L 231.083076 -264.649301 
L 231.880951 -263.539867 
L 268.184282 -230.375801 
L 279.354538 -224.842478 
L 304.487613 -215.24362 
L 327.626 -210.486776 
L 341.189882 -200.448565 
L 377.89215 -186.689045 
L 413.796544 -176.497463 
L 450.099875 -173.819293 
L 486.802143 -163.703489 
L 523.504412 -157.937635 
L 559.408805 -152.226131 
L 595.712136 -146.65392 
L 632.414404 -143.277169 
L 669.116673 -140.61431 
L 681.084804 -140.06864 
L 693.052935 -139.136719 
L 705.021066 -138.488136 
L 741.324397 -136.937914 
L 778.026666 -134.737822 
L 789.994797 -134.049113 
L 814.728934 -133.65819 
L 851.032265 -131.678986 
L 887.335596 -129.941922 
L 924.037865 -128.815112 
L 960.740133 -127.335028 
L 996.644527 -125.910898 
L 1008.612658 -125.483439 
L 1032.947857 -124.746205 
L 1069.650126 -123.725072 
L 1081.618257 -123.411675 
L 1106.352395 -122.789859 
L 1106.352395 -166.81797 
L 1106.352395 -166.81797 
L 1081.618257 -168.302325 
L 1069.650126 -168.984316 
L 1032.947857 -172.170281 
L 1008.612658 -174.441686 
L 996.644527 -174.698902 
L 960.740133 -177.858632 
L 924.037865 -181.578993 
L 887.335596 -187.036675 
L 851.032265 -193.771891 
L 814.728934 -200.364284 
L 789.994797 -203.047689 
L 778.026666 -201.745714 
L 741.324397 -209.825525 
L 705.021066 -219.858697 
L 693.052935 -222.782963 
L 681.084804 -227.411089 
L 669.116673 -232.794148 
L 632.414404 -243.949119 
L 595.712136 -256.937937 
L 559.408805 -267.278057 
L 523.504412 -287.624544 
L 486.802143 -307.291959 
L 450.099875 -302.474021 
L 413.796544 -316.639743 
L 377.89215 -340.391883 
L 341.189882 -362.216972 
L 327.626 -379.059891 
L 304.487613 -403.404238 
L 279.354538 -438.114742 
L 268.184282 -444.369408 
L 231.880951 -437.906325 
L 231.083076 -435.97552 
L 195.178683 -415.48491 
L 182.811614 -389.50615 
L 158.476414 -364.83945 
L 134.540152 -92.52717 
L 128.356618 -92.52717 
L 122.173083 -92.52717 
L 86.26869 -92.52717 
L 78.289936 -92.52717 
L 66.321805 -92.52717 
L 54.353674 -92.52717 
L 43.582356 -92.52717 
L 39.991917 -92.52717 
L 38.795104 -92.52717 
z
" style="stroke: #ffa600; stroke-opacity: 0.7; stroke-width: 0.8"/>
    </defs>
    <g clip-path="url(#pf1fbba0b7b)">
     <use xlink:href="#m1f69a47207" x="0" y="641.330875" style="fill: #ffa600; fill-opacity: 0.7; stroke: #ffa600; stroke-opacity: 0.7; stroke-width: 0.8"/>
    </g>
   </g>
   <g id="line2d_15">
    <path d="M 38.795104 548.803705 
L 39.991917 548.803705 
L 43.582356 548.803705 
L 54.353674 548.803705 
L 66.321805 548.803705 
L 78.289936 548.803705 
L 86.26869 548.803705 
L 122.173083 548.803705 
L 128.356618 548.803705 
L 134.540152 548.803705 
L 158.476414 548.803705 
L 182.811614 548.803705 
L 195.178683 546.268435 
L 231.083076 546.567759 
L 231.880951 283.045432 
L 268.184282 270.204041 
L 279.354538 265.629606 
L 304.487613 250.112025 
L 327.626 269.70279 
L 341.189882 285.981203 
L 377.89215 330.334015 
L 413.796544 365.739696 
L 450.099875 395.13647 
L 486.802143 422.798813 
L 523.504412 444.941544 
L 559.408805 461.77291 
L 595.712136 474.546993 
L 632.414404 484.724844 
L 669.116673 493.060545 
L 681.084804 495.451893 
L 693.052935 497.744765 
L 705.021066 499.912887 
L 741.324397 505.974912 
L 778.026666 511.19325 
L 789.994797 512.7155 
L 814.728934 515.642305 
L 851.032265 519.448743 
L 887.335596 522.801776 
L 924.037865 525.727078 
L 960.740133 528.30268 
L 996.644527 530.491116 
L 1008.612658 531.15803 
L 1032.947857 532.427536 
L 1069.650126 534.149526 
L 1081.618257 534.662468 
L 1106.352395 535.675346 
" clip-path="url(#pf1fbba0b7b)" style="fill: none; stroke: #000000; stroke-width: 4; stroke-linecap: round"/>
   </g>
   <g id="line2d_16">
    <path d="M 38.795104 548.803705 
L 39.991917 548.803705 
L 43.582356 548.803705 
L 54.353674 548.803705 
L 66.321805 548.803705 
L 78.289936 548.803705 
L 86.26869 548.803705 
L 122.173083 548.803705 
L 128.356618 548.803705 
L 134.540152 548.803705 
L 158.476414 548.803705 
L 182.811614 548.803705 
L 195.178683 548.803705 
L 231.083076 548.803705 
L 231.880951 276.746839 
L 268.184282 144.374776 
L 279.354538 110.216017 
L 304.487613 56.072795 
L 327.626 63.081057 
L 341.189882 140.012248 
L 377.89215 210.421412 
L 413.796544 276.864271 
L 450.099875 303.305995 
L 486.802143 348.650838 
L 523.504412 385.337913 
L 559.408805 417.501465 
L 595.712136 440.565664 
L 632.414404 458.345585 
L 669.116673 468.559944 
L 681.084804 472.312983 
L 693.052935 474.780783 
L 705.021066 477.741581 
L 741.324397 485.873971 
L 778.026666 492.620662 
L 789.994797 494.833751 
L 814.728934 499.158291 
L 851.032265 505.031021 
L 887.335596 508.9574 
L 924.037865 514.052378 
L 960.740133 518.104819 
L 996.644527 520.935384 
L 1008.612658 522.009583 
L 1032.947857 524.198483 
L 1069.650126 526.501409 
L 1081.618257 527.186232 
L 1106.352395 528.564678 
" clip-path="url(#pf1fbba0b7b)" style="fill: none; stroke-dasharray: 7.4,3.2; stroke-dashoffset: 0; stroke: #000000; stroke-width: 2"/>
   </g>
   <g id="line2d_17">
    <path d="M 38.795104 548.803705 
L 39.991917 548.803705 
L 43.582356 548.803705 
L 54.353674 548.803705 
L 66.321805 548.803705 
L 78.289936 548.803705 
L 86.26869 548.803705 
L 122.173083 548.803705 
L 128.356618 548.803705 
L 134.540152 548.803705 
L 158.476414 548.803705 
L 182.811614 548.803705 
L 195.178683 548.803705 
L 231.083076 548.803705 
L 231.880951 292.904833 
L 268.184282 345.2642 
L 279.354538 355.851648 
L 304.487613 381.870048 
L 327.626 399.672594 
L 341.189882 405.632858 
L 377.89215 429.000654 
L 413.796544 454.556036 
L 450.099875 469.387387 
L 486.802143 480.052133 
L 523.504412 489.895834 
L 559.408805 495.772333 
L 595.712136 503.195434 
L 632.414404 509.427912 
L 669.116673 513.680231 
L 681.084804 515.176696 
L 693.052935 516.689988 
L 705.021066 517.943563 
L 741.324397 521.897916 
L 778.026666 526.348729 
L 789.994797 527.344705 
L 814.728934 529.179179 
L 851.032265 531.626077 
L 887.335596 534.213325 
L 924.037865 537.069268 
L 960.740133 538.91143 
L 996.644527 540.658441 
L 1008.612658 541.043709 
L 1032.947857 541.883548 
L 1069.650126 542.957184 
L 1081.618257 543.212249 
L 1106.352395 543.672839 
" clip-path="url(#pf1fbba0b7b)" style="fill: none; stroke-dasharray: 2,3.3; stroke-dashoffset: 0; stroke: #000000; stroke-width: 2"/>
   </g>
   <g id="line2d_18">
    <path d="M 38.795104 548.803705 
L 39.991917 548.803705 
L 43.582356 548.803705 
L 54.353674 548.803705 
L 66.321805 548.803705 
L 78.289936 548.803705 
L 86.26869 548.803705 
L 122.173083 546.110083 
L 128.356618 546.113899 
L 134.540152 546.130686 
L 158.476414 286.130001 
L 182.811614 280.962553 
L 195.178683 289.038929 
L 231.083076 307.712975 
L 231.880951 308.008351 
L 268.184282 323.574919 
L 279.354538 332.025755 
L 304.487613 346.359325 
L 327.626 355.582404 
L 341.189882 361.855906 
L 377.89215 378.548124 
L 413.796544 394.022686 
L 450.099875 405.720178 
L 486.802143 416.009475 
L 523.504412 425.853747 
L 559.408805 435.669982 
L 595.712136 443.759458 
L 632.414404 451.344168 
L 669.116673 457.624671 
L 681.084804 459.470496 
L 693.052935 461.292666 
L 705.021066 462.96488 
L 741.324397 467.658518 
L 778.026666 471.780115 
L 789.994797 472.98831 
L 814.728934 475.286902 
L 851.032265 478.658365 
L 887.335596 481.872759 
L 924.037865 484.893157 
L 960.740133 487.762679 
L 996.644527 490.333475 
L 1008.612658 491.152759 
L 1032.947857 492.772777 
L 1069.650126 495.206413 
L 1081.618257 495.980373 
L 1106.352395 497.536722 
" clip-path="url(#pf1fbba0b7b)" style="fill: none; stroke: #808080; stroke-width: 4; stroke-linecap: round"/>
   </g>
   <g id="line2d_19">
    <path d="M 38.795104 548.803705 
L 39.991917 548.803705 
L 43.582356 548.803705 
L 54.353674 548.803705 
L 66.321805 548.803705 
L 78.289936 548.803705 
L 86.26869 548.803705 
L 122.173083 548.803705 
L 128.356618 548.803705 
L 134.540152 548.803705 
L 158.476414 276.491425 
L 182.811614 251.824725 
L 195.178683 225.845965 
L 231.083076 205.355355 
L 231.880951 203.42455 
L 268.184282 196.961467 
L 279.354538 203.216133 
L 304.487613 237.926637 
L 327.626 262.270984 
L 341.189882 279.113903 
L 377.89215 300.938992 
L 413.796544 324.691132 
L 450.099875 338.856854 
L 486.802143 334.038916 
L 523.504412 353.706331 
L 559.408805 374.052818 
L 595.712136 384.392938 
L 632.414404 397.381756 
L 669.116673 408.536727 
L 681.084804 413.919786 
L 693.052935 418.547912 
L 705.021066 421.472178 
L 741.324397 431.50535 
L 778.026666 439.585161 
L 789.994797 438.283186 
L 814.728934 440.966591 
L 851.032265 447.558984 
L 887.335596 454.2942 
L 924.037865 459.751882 
L 960.740133 463.472243 
L 996.644527 466.631973 
L 1008.612658 466.889189 
L 1032.947857 469.160594 
L 1069.650126 472.346559 
L 1081.618257 473.02855 
L 1106.352395 474.512905 
" clip-path="url(#pf1fbba0b7b)" style="fill: none; stroke-dasharray: 7.4,3.2; stroke-dashoffset: 0; stroke: #808080; stroke-width: 2"/>
   </g>
   <g id="line2d_20">
    <path d="M 38.795104 548.803705 
L 39.991917 548.803705 
L 43.582356 548.803705 
L 54.353674 548.803705 
L 66.321805 548.803705 
L 78.289936 548.803705 
L 86.26869 548.803705 
L 122.173083 548.803705 
L 128.356618 548.803705 
L 134.540152 548.803705 
L 158.476414 299.564401 
L 182.811614 322.823527 
L 195.178683 336.249287 
L 231.083076 376.681574 
L 231.880951 377.791008 
L 268.184282 410.955074 
L 279.354538 416.488397 
L 304.487613 426.087255 
L 327.626 430.844099 
L 341.189882 440.88231 
L 377.89215 454.64183 
L 413.796544 464.833412 
L 450.099875 467.511582 
L 486.802143 477.627386 
L 523.504412 483.39324 
L 559.408805 489.104744 
L 595.712136 494.676955 
L 632.414404 498.053706 
L 669.116673 500.716565 
L 681.084804 501.262235 
L 693.052935 502.194156 
L 705.021066 502.842739 
L 741.324397 504.392961 
L 778.026666 506.593053 
L 789.994797 507.281762 
L 814.728934 507.672685 
L 851.032265 509.651889 
L 887.335596 511.388953 
L 924.037865 512.515763 
L 960.740133 513.995847 
L 996.644527 515.419977 
L 1008.612658 515.847436 
L 1032.947857 516.58467 
L 1069.650126 517.605803 
L 1081.618257 517.9192 
L 1106.352395 518.541016 
" clip-path="url(#pf1fbba0b7b)" style="fill: none; stroke-dasharray: 2,3.3; stroke-dashoffset: 0; stroke: #808080; stroke-width: 2"/>
   </g>
   <g id="patch_3">
    <path d="M 81.0825 573.44025 
L 81.0825 31.43625 
" style="fill: none; stroke: #ffffff; stroke-linejoin: miter; stroke-linecap: square"/>
   </g>
   <g id="patch_4">
    <path d="M 1112.735398 573.44025 
L 1112.735398 31.43625 
" style="fill: none; stroke: #ffffff; stroke-linejoin: miter; stroke-linecap: square"/>
   </g>
   <g id="patch_5">
    <path d="M 81.0825 573.44025 
L 1112.735398 573.44025 
" style="fill: none; stroke: #ffffff; stroke-linejoin: miter; stroke-linecap: square"/>
   </g>
   <g id="patch_6">
    <path d="M 81.0825 31.43625 
L 1112.735398 31.43625 
" style="fill: none; stroke: #ffffff; stroke-linejoin: miter; stroke-linecap: square"/>
   </g>
   <g id="text_18">
    <!-- WGPR:A4 -->
    <g style="fill: #262626" transform="translate(533.353949 25.43625) scale(0.24 -0.24)">
     <use xlink:href="#DejaVuSans-Bold-57"/>
     <use xlink:href="#DejaVuSans-Bold-47" transform="translate(110.302734 0)"/>
     <use xlink:href="#DejaVuSans-Bold-50" transform="translate(192.382812 0)"/>
     <use xlink:href="#DejaVuSans-Bold-52" transform="translate(265.673828 0)"/>
     <use xlink:href="#DejaVuSans-Bold-3a" transform="translate(342.675781 0)"/>
     <use xlink:href="#DejaVuSans-Bold-41" transform="translate(382.666016 0)"/>
     <use xlink:href="#DejaVuSans-Bold-34" transform="translate(460.058594 0)"/>
    </g>
   </g>
   <g id="legend_1">
    <g id="patch_7">
     <path d="M 870.16821 210.495625 
L 1097.335398 210.495625 
Q 1101.735398 210.495625 1101.735398 206.095625 
L 1101.735398 46.83625 
Q 1101.735398 42.43625 1097.335398 42.43625 
L 870.16821 42.43625 
Q 865.76821 42.43625 865.76821 46.83625 
L 865.76821 206.095625 
Q 865.76821 210.495625 870.16821 210.495625 
z
" style="fill: #eaeaf2; opacity: 0.8; stroke: #cccccc; stroke-width: 0.8; stroke-linejoin: miter"/>
    </g>
    <g id="line2d_21">
     <path d="M 874.56821 60.252813 
L 896.56821 60.252813 
L 918.56821 60.252813 
" style="fill: none; stroke: #000000; stroke-width: 4; stroke-linecap: round"/>
    </g>
    <g id="text_19">
     <!-- Mean -->
     <g style="fill: #262626" transform="translate(936.16821 67.952813) scale(0.22 -0.22)">
      <defs>
       <path id="DejaVuSans-4d" d="M 628 4666 
L 1569 4666 
L 2759 1491 
L 3956 4666 
L 4897 4666 
L 4897 0 
L 4281 0 
L 4281 4097 
L 3078 897 
L 2444 897 
L 1241 4097 
L 1241 0 
L 628 0 
L 628 4666 
z
" transform="scale(0.015625)"/>
       <path id="DejaVuSans-61" d="M 2194 1759 
Q 1497 1759 1228 1600 
Q 959 1441 959 1056 
Q 959 750 1161 570 
Q 1363 391 1709 391 
Q 2188 391 2477 730 
Q 2766 1069 2766 1631 
L 2766 1759 
L 2194 1759 
z
M 3341 1997 
L 3341 0 
L 2766 0 
L 2766 531 
Q 2569 213 2275 61 
Q 1981 -91 1556 -91 
Q 1019 -91 701 211 
Q 384 513 384 1019 
Q 384 1609 779 1909 
Q 1175 2209 1959 2209 
L 2766 2209 
L 2766 2266 
Q 2766 2663 2505 2880 
Q 2244 3097 1772 3097 
Q 1472 3097 1187 3025 
Q 903 2953 641 2809 
L 641 3341 
Q 956 3463 1253 3523 
Q 1550 3584 1831 3584 
Q 2591 3584 2966 3190 
Q 3341 2797 3341 1997 
z
" transform="scale(0.015625)"/>
       <path id="DejaVuSans-6e" d="M 3513 2113 
L 3513 0 
L 2938 0 
L 2938 2094 
Q 2938 2591 2744 2837 
Q 2550 3084 2163 3084 
Q 1697 3084 1428 2787 
Q 1159 2491 1159 1978 
L 1159 0 
L 581 0 
L 581 3500 
L 1159 3500 
L 1159 2956 
Q 1366 3272 1645 3428 
Q 1925 3584 2291 3584 
Q 2894 3584 3203 3211 
Q 3513 2838 3513 2113 
z
" transform="scale(0.015625)"/>
      </defs>
      <use xlink:href="#DejaVuSans-4d"/>
      <use xlink:href="#DejaVuSans-65" transform="translate(86.279297 0)"/>
      <use xlink:href="#DejaVuSans-61" transform="translate(147.802734 0)"/>
      <use xlink:href="#DejaVuSans-6e" transform="translate(209.082031 0)"/>
     </g>
    </g>
    <g id="line2d_22">
     <path d="M 874.56821 92.544688 
L 896.56821 92.544688 
L 918.56821 92.544688 
" style="fill: none; stroke-dasharray: 7.4,3.2; stroke-dashoffset: 0; stroke: #000000; stroke-width: 2"/>
    </g>
    <g id="text_20">
     <!-- P10 Percentile -->
     <g style="fill: #262626" transform="translate(936.16821 100.244688) scale(0.22 -0.22)">
      <defs>
       <path id="DejaVuSans-50" d="M 1259 4147 
L 1259 2394 
L 2053 2394 
Q 2494 2394 2734 2622 
Q 2975 2850 2975 3272 
Q 2975 3691 2734 3919 
Q 2494 4147 2053 4147 
L 1259 4147 
z
M 628 4666 
L 2053 4666 
Q 2838 4666 3239 4311 
Q 3641 3956 3641 3272 
Q 3641 2581 3239 2228 
Q 2838 1875 2053 1875 
L 1259 1875 
L 1259 0 
L 628 0 
L 628 4666 
z
" transform="scale(0.015625)"/>
       <path id="DejaVuSans-20" transform="scale(0.015625)"/>
       <path id="DejaVuSans-72" d="M 2631 2963 
Q 2534 3019 2420 3045 
Q 2306 3072 2169 3072 
Q 1681 3072 1420 2755 
Q 1159 2438 1159 1844 
L 1159 0 
L 581 0 
L 581 3500 
L 1159 3500 
L 1159 2956 
Q 1341 3275 1631 3429 
Q 1922 3584 2338 3584 
Q 2397 3584 2469 3576 
Q 2541 3569 2628 3553 
L 2631 2963 
z
" transform="scale(0.015625)"/>
       <path id="DejaVuSans-63" d="M 3122 3366 
L 3122 2828 
Q 2878 2963 2633 3030 
Q 2388 3097 2138 3097 
Q 1578 3097 1268 2742 
Q 959 2388 959 1747 
Q 959 1106 1268 751 
Q 1578 397 2138 397 
Q 2388 397 2633 464 
Q 2878 531 3122 666 
L 3122 134 
Q 2881 22 2623 -34 
Q 2366 -91 2075 -91 
Q 1284 -91 818 406 
Q 353 903 353 1747 
Q 353 2603 823 3093 
Q 1294 3584 2113 3584 
Q 2378 3584 2631 3529 
Q 2884 3475 3122 3366 
z
" transform="scale(0.015625)"/>
       <path id="DejaVuSans-74" d="M 1172 4494 
L 1172 3500 
L 2356 3500 
L 2356 3053 
L 1172 3053 
L 1172 1153 
Q 1172 725 1289 603 
Q 1406 481 1766 481 
L 2356 481 
L 2356 0 
L 1766 0 
Q 1100 0 847 248 
Q 594 497 594 1153 
L 594 3053 
L 172 3053 
L 172 3500 
L 594 3500 
L 594 4494 
L 1172 4494 
z
" transform="scale(0.015625)"/>
       <path id="DejaVuSans-69" d="M 603 3500 
L 1178 3500 
L 1178 0 
L 603 0 
L 603 3500 
z
M 603 4863 
L 1178 4863 
L 1178 4134 
L 603 4134 
L 603 4863 
z
" transform="scale(0.015625)"/>
       <path id="DejaVuSans-6c" d="M 603 4863 
L 1178 4863 
L 1178 0 
L 603 0 
L 603 4863 
z
" transform="scale(0.015625)"/>
      </defs>
      <use xlink:href="#DejaVuSans-50"/>
      <use xlink:href="#DejaVuSans-31" transform="translate(60.302734 0)"/>
      <use xlink:href="#DejaVuSans-30" transform="translate(123.925781 0)"/>
      <use xlink:href="#DejaVuSans-20" transform="translate(187.548828 0)"/>
      <use xlink:href="#DejaVuSans-50" transform="translate(219.335938 0)"/>
      <use xlink:href="#DejaVuSans-65" transform="translate(276.013672 0)"/>
      <use xlink:href="#DejaVuSans-72" transform="translate(337.537109 0)"/>
      <use xlink:href="#DejaVuSans-63" transform="translate(376.400391 0)"/>
      <use xlink:href="#DejaVuSans-65" transform="translate(431.380859 0)"/>
      <use xlink:href="#DejaVuSans-6e" transform="translate(492.904297 0)"/>
      <use xlink:href="#DejaVuSans-74" transform="translate(556.283203 0)"/>
      <use xlink:href="#DejaVuSans-69" transform="translate(595.492188 0)"/>
      <use xlink:href="#DejaVuSans-6c" transform="translate(623.275391 0)"/>
      <use xlink:href="#DejaVuSans-65" transform="translate(651.058594 0)"/>
     </g>
    </g>
    <g id="line2d_23">
     <path d="M 874.56821 124.836563 
L 896.56821 124.836563 
L 918.56821 124.836563 
" style="fill: none; stroke-dasharray: 2,3.3; stroke-dashoffset: 0; stroke: #000000; stroke-width: 2"/>
    </g>
    <g id="text_21">
     <!-- P90 Percentile -->
     <g style="fill: #262626" transform="translate(936.16821 132.536563) scale(0.22 -0.22)">
      <use xlink:href="#DejaVuSans-50"/>
      <use xlink:href="#DejaVuSans-39" transform="translate(60.302734 0)"/>
      <use xlink:href="#DejaVuSans-30" transform="translate(123.925781 0)"/>
      <use xlink:href="#DejaVuSans-20" transform="translate(187.548828 0)"/>
      <use xlink:href="#DejaVuSans-50" transform="translate(219.335938 0)"/>
      <use xlink:href="#DejaVuSans-65" transform="translate(276.013672 0)"/>
      <use xlink:href="#DejaVuSans-72" transform="translate(337.537109 0)"/>
      <use xlink:href="#DejaVuSans-63" transform="translate(376.400391 0)"/>
      <use xlink:href="#DejaVuSans-65" transform="translate(431.380859 0)"/>
      <use xlink:href="#DejaVuSans-6e" transform="translate(492.904297 0)"/>
      <use xlink:href="#DejaVuSans-74" transform="translate(556.283203 0)"/>
      <use xlink:href="#DejaVuSans-69" transform="translate(595.492188 0)"/>
      <use xlink:href="#DejaVuSans-6c" transform="translate(623.275391 0)"/>
      <use xlink:href="#DejaVuSans-65" transform="translate(651.058594 0)"/>
     </g>
    </g>
    <g id="patch_8">
     <path d="M 874.56821 164.828438 
L 918.56821 164.828438 
L 918.56821 149.428438 
L 874.56821 149.428438 
z
" style="fill: #58508d; fill-opacity: 0.7; stroke: #58508d; stroke-opacity: 0.7; stroke-width: 0.8; stroke-linejoin: miter"/>
    </g>
    <g id="text_22">
     <!-- Batch 0 -->
     <g style="fill: #262626" transform="translate(936.16821 164.828438) scale(0.22 -0.22)">
      <defs>
       <path id="DejaVuSans-42" d="M 1259 2228 
L 1259 519 
L 2272 519 
Q 2781 519 3026 730 
Q 3272 941 3272 1375 
Q 3272 1813 3026 2020 
Q 2781 2228 2272 2228 
L 1259 2228 
z
M 1259 4147 
L 1259 2741 
L 2194 2741 
Q 2656 2741 2882 2914 
Q 3109 3088 3109 3444 
Q 3109 3797 2882 3972 
Q 2656 4147 2194 4147 
L 1259 4147 
z
M 628 4666 
L 2241 4666 
Q 2963 4666 3353 4366 
Q 3744 4066 3744 3513 
Q 3744 3084 3544 2831 
Q 3344 2578 2956 2516 
Q 3422 2416 3680 2098 
Q 3938 1781 3938 1306 
Q 3938 681 3513 340 
Q 3088 0 2303 0 
L 628 0 
L 628 4666 
z
" transform="scale(0.015625)"/>
       <path id="DejaVuSans-68" d="M 3513 2113 
L 3513 0 
L 2938 0 
L 2938 2094 
Q 2938 2591 2744 2837 
Q 2550 3084 2163 3084 
Q 1697 3084 1428 2787 
Q 1159 2491 1159 1978 
L 1159 0 
L 581 0 
L 581 4863 
L 1159 4863 
L 1159 2956 
Q 1366 3272 1645 3428 
Q 1925 3584 2291 3584 
Q 2894 3584 3203 3211 
Q 3513 2838 3513 2113 
z
" transform="scale(0.015625)"/>
      </defs>
      <use xlink:href="#DejaVuSans-42"/>
      <use xlink:href="#DejaVuSans-61" transform="translate(68.603516 0)"/>
      <use xlink:href="#DejaVuSans-74" transform="translate(129.882812 0)"/>
      <use xlink:href="#DejaVuSans-63" transform="translate(169.091797 0)"/>
      <use xlink:href="#DejaVuSans-68" transform="translate(224.072266 0)"/>
      <use xlink:href="#DejaVuSans-20" transform="translate(287.451172 0)"/>
      <use xlink:href="#DejaVuSans-30" transform="translate(319.238281 0)"/>
     </g>
    </g>
    <g id="patch_9">
     <path d="M 874.56821 197.120313 
L 918.56821 197.120313 
L 918.56821 181.720313 
L 874.56821 181.720313 
z
" style="fill: #ffa600; fill-opacity: 0.7; stroke: #ffa600; stroke-opacity: 0.7; stroke-width: 0.8; stroke-linejoin: miter"/>
    </g>
    <g id="text_23">
     <!-- Batch 5 -->
     <g style="fill: #262626" transform="translate(936.16821 197.120313) scale(0.22 -0.22)">
      <use xlink:href="#DejaVuSans-42"/>
      <use xlink:href="#DejaVuSans-61" transform="translate(68.603516 0)"/>
      <use xlink:href="#DejaVuSans-74" transform="translate(129.882812 0)"/>
      <use xlink:href="#DejaVuSans-63" transform="translate(169.091797 0)"/>
      <use xlink:href="#DejaVuSans-68" transform="translate(224.072266 0)"/>
      <use xlink:href="#DejaVuSans-20" transform="translate(287.451172 0)"/>
      <use xlink:href="#DejaVuSans-35" transform="translate(319.238281 0)"/>
     </g>
    </g>
   </g>
  </g>
 </g>
 <defs>
  <clipPath id="pf1fbba0b7b">
   <rect x="81.0825" y="31.43625" width="1031.652898" height="542.004"/>
  </clipPath>
 </defs>
</svg>
