<?xml version="1.0" encoding="utf-8" standalone="no"?>
<!DOCTYPE svg PUBLIC "-//W3C//DTD SVG 1.1//EN"
  "http://www.w3.org/Graphics/SVG/1.1/DTD/svg11.dtd">
<svg xmlns:xlink="http://www.w3.org/1999/xlink" width="1144.22167pt" height="641.330875pt" viewBox="0 0 1144.22167 641.330875" xmlns="http://www.w3.org/2000/svg" version="1.1">
 <metadata>
  <rdf:RDF xmlns:dc="http://purl.org/dc/elements/1.1/" xmlns:cc="http://creativecommons.org/ns#" xmlns:rdf="http://www.w3.org/1999/02/22-rdf-syntax-ns#">
   <cc:Work>
    <dc:type rdf:resource="http://purl.org/dc/dcmitype/StillImage"/>
    <dc:date>2025-08-08T10:44:31.096649</dc:date>
    <dc:format>image/svg+xml</dc:format>
    <dc:creator>
     <cc:Agent>
      <dc:title>Matplotlib v3.10.3, https://matplotlib.org/</dc:title>
     </cc:Agent>
    </dc:creator>
   </cc:Work>
  </rdf:RDF>
 </metadata>
 <defs>
  <style type="text/css">*{stroke-linejoin: round; stroke-linecap: butt}</style>
 </defs>
 <g id="figure_1">
  <g id="patch_1">
   <path d="M 0 641.330875 
L 1144.22167 641.330875 
L 1144.22167 0 
L 0 0 
z
" style="fill: #ffffff"/>
  </g>
  <g id="axes_1">
   <g id="patch_2">
    <path d="M 88.725 573.44025 
L 1112.817898 573.44025 
L 1112.817898 31.43625 
L 88.725 31.43625 
z
" style="fill: #eaeaf2"/>
   </g>
   <g id="matplotlib.axis_1">
    <g id="xtick_1">
     <g id="line2d_1">
      <path d="M 93.873185 573.44025 
L 93.873185 31.43625 
" clip-path="url(#p54c320fb6f)" style="fill: none; stroke: #ffffff; stroke-width: 0.8; stroke-linecap: round"/>
     </g>
     <g id="text_1">
      <!-- 2023 -->
      <g style="fill: #262626" transform="translate(63.333185 599.9765) scale(0.24 -0.24)">
       <defs>
        <path id="DejaVuSans-32" d="M 1228 531 
L 3431 531 
L 3431 0 
L 469 0 
L 469 531 
Q 828 903 1448 1529 
Q 2069 2156 2228 2338 
Q 2531 2678 2651 2914 
Q 2772 3150 2772 3378 
Q 2772 3750 2511 3984 
Q 2250 4219 1831 4219 
Q 1534 4219 1204 4116 
Q 875 4013 500 3803 
L 500 4441 
Q 881 4594 1212 4672 
Q 1544 4750 1819 4750 
Q 2544 4750 2975 4387 
Q 3406 4025 3406 3419 
Q 3406 3131 3298 2873 
Q 3191 2616 2906 2266 
Q 2828 2175 2409 1742 
Q 1991 1309 1228 531 
z
" transform="scale(0.015625)"/>
        <path id="DejaVuSans-30" d="M 2034 4250 
Q 1547 4250 1301 3770 
Q 1056 3291 1056 2328 
Q 1056 1369 1301 889 
Q 1547 409 2034 409 
Q 2525 409 2770 889 
Q 3016 1369 3016 2328 
Q 3016 3291 2770 3770 
Q 2525 4250 2034 4250 
z
M 2034 4750 
Q 2819 4750 3233 4129 
Q 3647 3509 3647 2328 
Q 3647 1150 3233 529 
Q 2819 -91 2034 -91 
Q 1250 -91 836 529 
Q 422 1150 422 2328 
Q 422 3509 836 4129 
Q 1250 4750 2034 4750 
z
" transform="scale(0.015625)"/>
        <path id="DejaVuSans-33" d="M 2597 2516 
Q 3050 2419 3304 2112 
Q 3559 1806 3559 1356 
Q 3559 666 3084 287 
Q 2609 -91 1734 -91 
Q 1441 -91 1130 -33 
Q 819 25 488 141 
L 488 750 
Q 750 597 1062 519 
Q 1375 441 1716 441 
Q 2309 441 2620 675 
Q 2931 909 2931 1356 
Q 2931 1769 2642 2001 
Q 2353 2234 1838 2234 
L 1294 2234 
L 1294 2753 
L 1863 2753 
Q 2328 2753 2575 2939 
Q 2822 3125 2822 3475 
Q 2822 3834 2567 4026 
Q 2313 4219 1838 4219 
Q 1578 4219 1281 4162 
Q 984 4106 628 3988 
L 628 4550 
Q 988 4650 1302 4700 
Q 1616 4750 1894 4750 
Q 2613 4750 3031 4423 
Q 3450 4097 3450 3541 
Q 3450 3153 3228 2886 
Q 3006 2619 2597 2516 
z
" transform="scale(0.015625)"/>
       </defs>
       <use xlink:href="#DejaVuSans-32"/>
       <use xlink:href="#DejaVuSans-30" transform="translate(63.623047 0)"/>
       <use xlink:href="#DejaVuSans-32" transform="translate(127.246094 0)"/>
       <use xlink:href="#DejaVuSans-33" transform="translate(190.869141 0)"/>
      </g>
     </g>
    </g>
    <g id="xtick_2">
     <g id="line2d_2">
      <path d="M 238.418393 573.44025 
L 238.418393 31.43625 
" clip-path="url(#p54c320fb6f)" style="fill: none; stroke: #ffffff; stroke-width: 0.8; stroke-linecap: round"/>
     </g>
     <g id="text_2">
      <!-- 2024 -->
      <g style="fill: #262626" transform="translate(207.878393 599.9765) scale(0.24 -0.24)">
       <defs>
        <path id="DejaVuSans-34" d="M 2419 4116 
L 825 1625 
L 2419 1625 
L 2419 4116 
z
M 2253 4666 
L 3047 4666 
L 3047 1625 
L 3713 1625 
L 3713 1100 
L 3047 1100 
L 3047 0 
L 2419 0 
L 2419 1100 
L 313 1100 
L 313 1709 
L 2253 4666 
z
" transform="scale(0.015625)"/>
       </defs>
       <use xlink:href="#DejaVuSans-32"/>
       <use xlink:href="#DejaVuSans-30" transform="translate(63.623047 0)"/>
       <use xlink:href="#DejaVuSans-32" transform="translate(127.246094 0)"/>
       <use xlink:href="#DejaVuSans-34" transform="translate(190.869141 0)"/>
      </g>
     </g>
    </g>
    <g id="xtick_3">
     <g id="line2d_3">
      <path d="M 383.359616 573.44025 
L 383.359616 31.43625 
" clip-path="url(#p54c320fb6f)" style="fill: none; stroke: #ffffff; stroke-width: 0.8; stroke-linecap: round"/>
     </g>
     <g id="text_3">
      <!-- 2025 -->
      <g style="fill: #262626" transform="translate(352.819616 599.9765) scale(0.24 -0.24)">
       <defs>
        <path id="DejaVuSans-35" d="M 691 4666 
L 3169 4666 
L 3169 4134 
L 1269 4134 
L 1269 2991 
Q 1406 3038 1543 3061 
Q 1681 3084 1819 3084 
Q 2600 3084 3056 2656 
Q 3513 2228 3513 1497 
Q 3513 744 3044 326 
Q 2575 -91 1722 -91 
Q 1428 -91 1123 -41 
Q 819 9 494 109 
L 494 744 
Q 775 591 1075 516 
Q 1375 441 1709 441 
Q 2250 441 2565 725 
Q 2881 1009 2881 1497 
Q 2881 1984 2565 2268 
Q 2250 2553 1709 2553 
Q 1456 2553 1204 2497 
Q 953 2441 691 2322 
L 691 4666 
z
" transform="scale(0.015625)"/>
       </defs>
       <use xlink:href="#DejaVuSans-32"/>
       <use xlink:href="#DejaVuSans-30" transform="translate(63.623047 0)"/>
       <use xlink:href="#DejaVuSans-32" transform="translate(127.246094 0)"/>
       <use xlink:href="#DejaVuSans-35" transform="translate(190.869141 0)"/>
      </g>
     </g>
    </g>
    <g id="xtick_4">
     <g id="line2d_4">
      <path d="M 527.904824 573.44025 
L 527.904824 31.43625 
" clip-path="url(#p54c320fb6f)" style="fill: none; stroke: #ffffff; stroke-width: 0.8; stroke-linecap: round"/>
     </g>
     <g id="text_4">
      <!-- 2026 -->
      <g style="fill: #262626" transform="translate(497.364824 599.9765) scale(0.24 -0.24)">
       <defs>
        <path id="DejaVuSans-36" d="M 2113 2584 
Q 1688 2584 1439 2293 
Q 1191 2003 1191 1497 
Q 1191 994 1439 701 
Q 1688 409 2113 409 
Q 2538 409 2786 701 
Q 3034 994 3034 1497 
Q 3034 2003 2786 2293 
Q 2538 2584 2113 2584 
z
M 3366 4563 
L 3366 3988 
Q 3128 4100 2886 4159 
Q 2644 4219 2406 4219 
Q 1781 4219 1451 3797 
Q 1122 3375 1075 2522 
Q 1259 2794 1537 2939 
Q 1816 3084 2150 3084 
Q 2853 3084 3261 2657 
Q 3669 2231 3669 1497 
Q 3669 778 3244 343 
Q 2819 -91 2113 -91 
Q 1303 -91 875 529 
Q 447 1150 447 2328 
Q 447 3434 972 4092 
Q 1497 4750 2381 4750 
Q 2619 4750 2861 4703 
Q 3103 4656 3366 4563 
z
" transform="scale(0.015625)"/>
       </defs>
       <use xlink:href="#DejaVuSans-32"/>
       <use xlink:href="#DejaVuSans-30" transform="translate(63.623047 0)"/>
       <use xlink:href="#DejaVuSans-32" transform="translate(127.246094 0)"/>
       <use xlink:href="#DejaVuSans-36" transform="translate(190.869141 0)"/>
      </g>
     </g>
    </g>
    <g id="xtick_5">
     <g id="line2d_5">
      <path d="M 672.450032 573.44025 
L 672.450032 31.43625 
" clip-path="url(#p54c320fb6f)" style="fill: none; stroke: #ffffff; stroke-width: 0.8; stroke-linecap: round"/>
     </g>
     <g id="text_5">
      <!-- 2027 -->
      <g style="fill: #262626" transform="translate(641.910032 599.9765) scale(0.24 -0.24)">
       <defs>
        <path id="DejaVuSans-37" d="M 525 4666 
L 3525 4666 
L 3525 4397 
L 1831 0 
L 1172 0 
L 2766 4134 
L 525 4134 
L 525 4666 
z
" transform="scale(0.015625)"/>
       </defs>
       <use xlink:href="#DejaVuSans-32"/>
       <use xlink:href="#DejaVuSans-30" transform="translate(63.623047 0)"/>
       <use xlink:href="#DejaVuSans-32" transform="translate(127.246094 0)"/>
       <use xlink:href="#DejaVuSans-37" transform="translate(190.869141 0)"/>
      </g>
     </g>
    </g>
    <g id="xtick_6">
     <g id="line2d_6">
      <path d="M 816.995239 573.44025 
L 816.995239 31.43625 
" clip-path="url(#p54c320fb6f)" style="fill: none; stroke: #ffffff; stroke-width: 0.8; stroke-linecap: round"/>
     </g>
     <g id="text_6">
      <!-- 2028 -->
      <g style="fill: #262626" transform="translate(786.455239 599.9765) scale(0.24 -0.24)">
       <defs>
        <path id="DejaVuSans-38" d="M 2034 2216 
Q 1584 2216 1326 1975 
Q 1069 1734 1069 1313 
Q 1069 891 1326 650 
Q 1584 409 2034 409 
Q 2484 409 2743 651 
Q 3003 894 3003 1313 
Q 3003 1734 2745 1975 
Q 2488 2216 2034 2216 
z
M 1403 2484 
Q 997 2584 770 2862 
Q 544 3141 544 3541 
Q 544 4100 942 4425 
Q 1341 4750 2034 4750 
Q 2731 4750 3128 4425 
Q 3525 4100 3525 3541 
Q 3525 3141 3298 2862 
Q 3072 2584 2669 2484 
Q 3125 2378 3379 2068 
Q 3634 1759 3634 1313 
Q 3634 634 3220 271 
Q 2806 -91 2034 -91 
Q 1263 -91 848 271 
Q 434 634 434 1313 
Q 434 1759 690 2068 
Q 947 2378 1403 2484 
z
M 1172 3481 
Q 1172 3119 1398 2916 
Q 1625 2713 2034 2713 
Q 2441 2713 2670 2916 
Q 2900 3119 2900 3481 
Q 2900 3844 2670 4047 
Q 2441 4250 2034 4250 
Q 1625 4250 1398 4047 
Q 1172 3844 1172 3481 
z
" transform="scale(0.015625)"/>
       </defs>
       <use xlink:href="#DejaVuSans-32"/>
       <use xlink:href="#DejaVuSans-30" transform="translate(63.623047 0)"/>
       <use xlink:href="#DejaVuSans-32" transform="translate(127.246094 0)"/>
       <use xlink:href="#DejaVuSans-38" transform="translate(190.869141 0)"/>
      </g>
     </g>
    </g>
    <g id="xtick_7">
     <g id="line2d_7">
      <path d="M 961.936462 573.44025 
L 961.936462 31.43625 
" clip-path="url(#p54c320fb6f)" style="fill: none; stroke: #ffffff; stroke-width: 0.8; stroke-linecap: round"/>
     </g>
     <g id="text_7">
      <!-- 2029 -->
      <g style="fill: #262626" transform="translate(931.396462 599.9765) scale(0.24 -0.24)">
       <defs>
        <path id="DejaVuSans-39" d="M 703 97 
L 703 672 
Q 941 559 1184 500 
Q 1428 441 1663 441 
Q 2288 441 2617 861 
Q 2947 1281 2994 2138 
Q 2813 1869 2534 1725 
Q 2256 1581 1919 1581 
Q 1219 1581 811 2004 
Q 403 2428 403 3163 
Q 403 3881 828 4315 
Q 1253 4750 1959 4750 
Q 2769 4750 3195 4129 
Q 3622 3509 3622 2328 
Q 3622 1225 3098 567 
Q 2575 -91 1691 -91 
Q 1453 -91 1209 -44 
Q 966 3 703 97 
z
M 1959 2075 
Q 2384 2075 2632 2365 
Q 2881 2656 2881 3163 
Q 2881 3666 2632 3958 
Q 2384 4250 1959 4250 
Q 1534 4250 1286 3958 
Q 1038 3666 1038 3163 
Q 1038 2656 1286 2365 
Q 1534 2075 1959 2075 
z
" transform="scale(0.015625)"/>
       </defs>
       <use xlink:href="#DejaVuSans-32"/>
       <use xlink:href="#DejaVuSans-30" transform="translate(63.623047 0)"/>
       <use xlink:href="#DejaVuSans-32" transform="translate(127.246094 0)"/>
       <use xlink:href="#DejaVuSans-39" transform="translate(190.869141 0)"/>
      </g>
     </g>
    </g>
    <g id="xtick_8">
     <g id="line2d_8">
      <path d="M 1106.48167 573.44025 
L 1106.48167 31.43625 
" clip-path="url(#p54c320fb6f)" style="fill: none; stroke: #ffffff; stroke-width: 0.8; stroke-linecap: round"/>
     </g>
     <g id="text_8">
      <!-- 2030 -->
      <g style="fill: #262626" transform="translate(1075.94167 599.9765) scale(0.24 -0.24)">
       <use xlink:href="#DejaVuSans-32"/>
       <use xlink:href="#DejaVuSans-30" transform="translate(63.623047 0)"/>
       <use xlink:href="#DejaVuSans-33" transform="translate(127.246094 0)"/>
       <use xlink:href="#DejaVuSans-30" transform="translate(190.869141 0)"/>
      </g>
     </g>
    </g>
    <g id="text_9">
     <!-- Date -->
     <g style="fill: #262626" transform="translate(566.175199 628.723687) scale(0.26 -0.26)">
      <defs>
       <path id="DejaVuSans-Bold-44" d="M 1791 3756 
L 1791 909 
L 2222 909 
Q 2959 909 3348 1275 
Q 3738 1641 3738 2338 
Q 3738 3031 3350 3393 
Q 2963 3756 2222 3756 
L 1791 3756 
z
M 588 4666 
L 1856 4666 
Q 2919 4666 3439 4514 
Q 3959 4363 4331 4000 
Q 4659 3684 4818 3271 
Q 4978 2859 4978 2338 
Q 4978 1809 4818 1395 
Q 4659 981 4331 666 
Q 3956 303 3431 151 
Q 2906 0 1856 0 
L 588 0 
L 588 4666 
z
" transform="scale(0.015625)"/>
       <path id="DejaVuSans-Bold-61" d="M 2106 1575 
Q 1756 1575 1579 1456 
Q 1403 1338 1403 1106 
Q 1403 894 1545 773 
Q 1688 653 1941 653 
Q 2256 653 2472 879 
Q 2688 1106 2688 1447 
L 2688 1575 
L 2106 1575 
z
M 3816 1997 
L 3816 0 
L 2688 0 
L 2688 519 
Q 2463 200 2181 54 
Q 1900 -91 1497 -91 
Q 953 -91 614 226 
Q 275 544 275 1050 
Q 275 1666 698 1953 
Q 1122 2241 2028 2241 
L 2688 2241 
L 2688 2328 
Q 2688 2594 2478 2717 
Q 2269 2841 1825 2841 
Q 1466 2841 1156 2769 
Q 847 2697 581 2553 
L 581 3406 
Q 941 3494 1303 3539 
Q 1666 3584 2028 3584 
Q 2975 3584 3395 3211 
Q 3816 2838 3816 1997 
z
" transform="scale(0.015625)"/>
       <path id="DejaVuSans-Bold-74" d="M 1759 4494 
L 1759 3500 
L 2913 3500 
L 2913 2700 
L 1759 2700 
L 1759 1216 
Q 1759 972 1856 886 
Q 1953 800 2241 800 
L 2816 800 
L 2816 0 
L 1856 0 
Q 1194 0 917 276 
Q 641 553 641 1216 
L 641 2700 
L 84 2700 
L 84 3500 
L 641 3500 
L 641 4494 
L 1759 4494 
z
" transform="scale(0.015625)"/>
       <path id="DejaVuSans-Bold-65" d="M 4031 1759 
L 4031 1441 
L 1416 1441 
Q 1456 1047 1700 850 
Q 1944 653 2381 653 
Q 2734 653 3104 758 
Q 3475 863 3866 1075 
L 3866 213 
Q 3469 63 3072 -14 
Q 2675 -91 2278 -91 
Q 1328 -91 801 392 
Q 275 875 275 1747 
Q 275 2603 792 3093 
Q 1309 3584 2216 3584 
Q 3041 3584 3536 3087 
Q 4031 2591 4031 1759 
z
M 2881 2131 
Q 2881 2450 2695 2645 
Q 2509 2841 2209 2841 
Q 1884 2841 1681 2658 
Q 1478 2475 1428 2131 
L 2881 2131 
z
" transform="scale(0.015625)"/>
      </defs>
      <use xlink:href="#DejaVuSans-Bold-44"/>
      <use xlink:href="#DejaVuSans-Bold-61" transform="translate(83.007812 0)"/>
      <use xlink:href="#DejaVuSans-Bold-74" transform="translate(150.488281 0)"/>
      <use xlink:href="#DejaVuSans-Bold-65" transform="translate(198.291016 0)"/>
     </g>
    </g>
   </g>
   <g id="matplotlib.axis_2">
    <g id="ytick_1">
     <g id="line2d_9">
      <path d="M 88.725 548.803705 
L 1112.817898 548.803705 
" clip-path="url(#p54c320fb6f)" style="fill: none; stroke: #ffffff; stroke-width: 0.8; stroke-linecap: round"/>
     </g>
     <g id="text_10">
      <!-- 0 -->
      <g style="fill: #262626" transform="translate(65.155 557.92183) scale(0.24 -0.24)">
       <use xlink:href="#DejaVuSans-30"/>
      </g>
     </g>
    </g>
    <g id="ytick_2">
     <g id="line2d_10">
      <path d="M 88.725 442.897355 
L 1112.817898 442.897355 
" clip-path="url(#p54c320fb6f)" style="fill: none; stroke: #ffffff; stroke-width: 0.8; stroke-linecap: round"/>
     </g>
     <g id="text_11">
      <!-- 200 -->
      <g style="fill: #262626" transform="translate(34.615 452.01548) scale(0.24 -0.24)">
       <use xlink:href="#DejaVuSans-32"/>
       <use xlink:href="#DejaVuSans-30" transform="translate(63.623047 0)"/>
       <use xlink:href="#DejaVuSans-30" transform="translate(127.246094 0)"/>
      </g>
     </g>
    </g>
    <g id="ytick_3">
     <g id="line2d_11">
      <path d="M 88.725 336.991005 
L 1112.817898 336.991005 
" clip-path="url(#p54c320fb6f)" style="fill: none; stroke: #ffffff; stroke-width: 0.8; stroke-linecap: round"/>
     </g>
     <g id="text_12">
      <!-- 400 -->
      <g style="fill: #262626" transform="translate(34.615 346.10913) scale(0.24 -0.24)">
       <use xlink:href="#DejaVuSans-34"/>
       <use xlink:href="#DejaVuSans-30" transform="translate(63.623047 0)"/>
       <use xlink:href="#DejaVuSans-30" transform="translate(127.246094 0)"/>
      </g>
     </g>
    </g>
    <g id="ytick_4">
     <g id="line2d_12">
      <path d="M 88.725 231.084655 
L 1112.817898 231.084655 
" clip-path="url(#p54c320fb6f)" style="fill: none; stroke: #ffffff; stroke-width: 0.8; stroke-linecap: round"/>
     </g>
     <g id="text_13">
      <!-- 600 -->
      <g style="fill: #262626" transform="translate(34.615 240.20278) scale(0.24 -0.24)">
       <use xlink:href="#DejaVuSans-36"/>
       <use xlink:href="#DejaVuSans-30" transform="translate(63.623047 0)"/>
       <use xlink:href="#DejaVuSans-30" transform="translate(127.246094 0)"/>
      </g>
     </g>
    </g>
    <g id="ytick_5">
     <g id="line2d_13">
      <path d="M 88.725 125.178305 
L 1112.817898 125.178305 
" clip-path="url(#p54c320fb6f)" style="fill: none; stroke: #ffffff; stroke-width: 0.8; stroke-linecap: round"/>
     </g>
     <g id="text_14">
      <!-- 800 -->
      <g style="fill: #262626" transform="translate(34.615 134.29643) scale(0.24 -0.24)">
       <use xlink:href="#DejaVuSans-38"/>
       <use xlink:href="#DejaVuSans-30" transform="translate(63.623047 0)"/>
       <use xlink:href="#DejaVuSans-30" transform="translate(127.246094 0)"/>
      </g>
     </g>
    </g>
    <g id="text_15">
     <!-- WWPR:A2 [Sm³/day] -->
     <g style="fill: #262626" transform="translate(25.43625 439.446375) rotate(-90) scale(0.24 -0.24)">
      <defs>
       <path id="DejaVuSans-Bold-57" d="M 191 4666 
L 1344 4666 
L 2150 1275 
L 2950 4666 
L 4109 4666 
L 4909 1275 
L 5716 4666 
L 6859 4666 
L 5759 0 
L 4372 0 
L 3525 3547 
L 2688 0 
L 1300 0 
L 191 4666 
z
" transform="scale(0.015625)"/>
       <path id="DejaVuSans-Bold-50" d="M 588 4666 
L 2584 4666 
Q 3475 4666 3951 4270 
Q 4428 3875 4428 3144 
Q 4428 2409 3951 2014 
Q 3475 1619 2584 1619 
L 1791 1619 
L 1791 0 
L 588 0 
L 588 4666 
z
M 1791 3794 
L 1791 2491 
L 2456 2491 
Q 2806 2491 2997 2661 
Q 3188 2831 3188 3144 
Q 3188 3456 2997 3625 
Q 2806 3794 2456 3794 
L 1791 3794 
z
" transform="scale(0.015625)"/>
       <path id="DejaVuSans-Bold-52" d="M 2297 2597 
Q 2675 2597 2839 2737 
Q 3003 2878 3003 3200 
Q 3003 3519 2839 3656 
Q 2675 3794 2297 3794 
L 1791 3794 
L 1791 2597 
L 2297 2597 
z
M 1791 1766 
L 1791 0 
L 588 0 
L 588 4666 
L 2425 4666 
Q 3347 4666 3776 4356 
Q 4206 4047 4206 3378 
Q 4206 2916 3982 2619 
Q 3759 2322 3309 2181 
Q 3556 2125 3751 1926 
Q 3947 1728 4147 1325 
L 4800 0 
L 3519 0 
L 2950 1159 
Q 2778 1509 2601 1637 
Q 2425 1766 2131 1766 
L 1791 1766 
z
" transform="scale(0.015625)"/>
       <path id="DejaVuSans-Bold-3a" d="M 716 3500 
L 1844 3500 
L 1844 2291 
L 716 2291 
L 716 3500 
z
M 716 1209 
L 1844 1209 
L 1844 0 
L 716 0 
L 716 1209 
z
" transform="scale(0.015625)"/>
       <path id="DejaVuSans-Bold-41" d="M 3419 850 
L 1538 850 
L 1241 0 
L 31 0 
L 1759 4666 
L 3194 4666 
L 4922 0 
L 3713 0 
L 3419 850 
z
M 1838 1716 
L 3116 1716 
L 2478 3572 
L 1838 1716 
z
" transform="scale(0.015625)"/>
       <path id="DejaVuSans-Bold-32" d="M 1844 884 
L 3897 884 
L 3897 0 
L 506 0 
L 506 884 
L 2209 2388 
Q 2438 2594 2547 2791 
Q 2656 2988 2656 3200 
Q 2656 3528 2436 3728 
Q 2216 3928 1850 3928 
Q 1569 3928 1234 3808 
Q 900 3688 519 3450 
L 519 4475 
Q 925 4609 1322 4679 
Q 1719 4750 2100 4750 
Q 2938 4750 3402 4381 
Q 3866 4013 3866 3353 
Q 3866 2972 3669 2642 
Q 3472 2313 2841 1759 
L 1844 884 
z
" transform="scale(0.015625)"/>
       <path id="DejaVuSans-Bold-20" transform="scale(0.015625)"/>
       <path id="DejaVuSans-Bold-5b" d="M 550 4863 
L 2491 4863 
L 2491 4159 
L 1613 4159 
L 1613 -141 
L 2491 -141 
L 2491 -844 
L 550 -844 
L 550 4863 
z
" transform="scale(0.015625)"/>
       <path id="DejaVuSans-Bold-53" d="M 3834 4519 
L 3834 3531 
Q 3450 3703 3084 3790 
Q 2719 3878 2394 3878 
Q 1963 3878 1756 3759 
Q 1550 3641 1550 3391 
Q 1550 3203 1689 3098 
Q 1828 2994 2194 2919 
L 2706 2816 
Q 3484 2659 3812 2340 
Q 4141 2022 4141 1434 
Q 4141 663 3683 286 
Q 3225 -91 2284 -91 
Q 1841 -91 1394 -6 
Q 947 78 500 244 
L 500 1259 
Q 947 1022 1364 901 
Q 1781 781 2169 781 
Q 2563 781 2772 912 
Q 2981 1044 2981 1288 
Q 2981 1506 2839 1625 
Q 2697 1744 2272 1838 
L 1806 1941 
Q 1106 2091 782 2419 
Q 459 2747 459 3303 
Q 459 4000 909 4375 
Q 1359 4750 2203 4750 
Q 2588 4750 2994 4692 
Q 3400 4634 3834 4519 
z
" transform="scale(0.015625)"/>
       <path id="DejaVuSans-Bold-6d" d="M 3781 2919 
Q 3994 3244 4286 3414 
Q 4578 3584 4928 3584 
Q 5531 3584 5847 3212 
Q 6163 2841 6163 2131 
L 6163 0 
L 5038 0 
L 5038 1825 
Q 5041 1866 5042 1909 
Q 5044 1953 5044 2034 
Q 5044 2406 4934 2573 
Q 4825 2741 4581 2741 
Q 4263 2741 4089 2478 
Q 3916 2216 3909 1719 
L 3909 0 
L 2784 0 
L 2784 1825 
Q 2784 2406 2684 2573 
Q 2584 2741 2328 2741 
Q 2006 2741 1831 2477 
Q 1656 2213 1656 1722 
L 1656 0 
L 531 0 
L 531 3500 
L 1656 3500 
L 1656 2988 
Q 1863 3284 2130 3434 
Q 2397 3584 2719 3584 
Q 3081 3584 3359 3409 
Q 3638 3234 3781 2919 
z
" transform="scale(0.015625)"/>
       <path id="DejaVuSans-Bold-b3" d="M 1850 3500 
Q 2138 3444 2297 3272 
Q 2456 3100 2456 2847 
Q 2456 2444 2147 2242 
Q 1838 2041 1209 2041 
Q 956 2041 725 2077 
Q 494 2113 281 2181 
L 281 2725 
Q 488 2613 688 2555 
Q 888 2497 1075 2497 
Q 1372 2497 1534 2597 
Q 1697 2697 1697 2881 
Q 1697 3081 1530 3176 
Q 1363 3272 1006 3272 
L 775 3272 
L 775 3700 
L 1038 3700 
Q 1344 3700 1484 3773 
Q 1625 3847 1625 4006 
Q 1625 4147 1503 4217 
Q 1381 4288 1131 4288 
Q 969 4288 776 4247 
Q 584 4206 366 4122 
L 366 4641 
Q 569 4694 805 4722 
Q 1041 4750 1313 4750 
Q 1834 4750 2111 4575 
Q 2388 4400 2388 4072 
Q 2388 3856 2247 3706 
Q 2106 3556 1850 3500 
z
" transform="scale(0.015625)"/>
       <path id="DejaVuSans-Bold-2f" d="M 1644 4666 
L 2338 4666 
L 691 -594 
L 0 -594 
L 1644 4666 
z
" transform="scale(0.015625)"/>
       <path id="DejaVuSans-Bold-64" d="M 2919 2988 
L 2919 4863 
L 4044 4863 
L 4044 0 
L 2919 0 
L 2919 506 
Q 2688 197 2409 53 
Q 2131 -91 1766 -91 
Q 1119 -91 703 423 
Q 288 938 288 1747 
Q 288 2556 703 3070 
Q 1119 3584 1766 3584 
Q 2128 3584 2408 3439 
Q 2688 3294 2919 2988 
z
M 2181 722 
Q 2541 722 2730 984 
Q 2919 1247 2919 1747 
Q 2919 2247 2730 2509 
Q 2541 2772 2181 2772 
Q 1825 2772 1636 2509 
Q 1447 2247 1447 1747 
Q 1447 1247 1636 984 
Q 1825 722 2181 722 
z
" transform="scale(0.015625)"/>
       <path id="DejaVuSans-Bold-79" d="M 78 3500 
L 1197 3500 
L 2138 1125 
L 2938 3500 
L 4056 3500 
L 2584 -331 
Q 2363 -916 2067 -1148 
Q 1772 -1381 1288 -1381 
L 641 -1381 
L 641 -647 
L 991 -647 
Q 1275 -647 1404 -556 
Q 1534 -466 1606 -231 
L 1638 -134 
L 78 3500 
z
" transform="scale(0.015625)"/>
       <path id="DejaVuSans-Bold-5d" d="M 2375 -844 
L 434 -844 
L 434 -141 
L 1313 -141 
L 1313 4159 
L 434 4159 
L 434 4863 
L 2375 4863 
L 2375 -844 
z
" transform="scale(0.015625)"/>
      </defs>
      <use xlink:href="#DejaVuSans-Bold-57"/>
      <use xlink:href="#DejaVuSans-Bold-57" transform="translate(110.302734 0)"/>
      <use xlink:href="#DejaVuSans-Bold-50" transform="translate(220.605469 0)"/>
      <use xlink:href="#DejaVuSans-Bold-52" transform="translate(293.896484 0)"/>
      <use xlink:href="#DejaVuSans-Bold-3a" transform="translate(370.898438 0)"/>
      <use xlink:href="#DejaVuSans-Bold-41" transform="translate(410.888672 0)"/>
      <use xlink:href="#DejaVuSans-Bold-32" transform="translate(488.28125 0)"/>
      <use xlink:href="#DejaVuSans-Bold-20" transform="translate(557.861328 0)"/>
      <use xlink:href="#DejaVuSans-Bold-5b" transform="translate(592.675781 0)"/>
      <use xlink:href="#DejaVuSans-Bold-53" transform="translate(638.378906 0)"/>
      <use xlink:href="#DejaVuSans-Bold-6d" transform="translate(710.400391 0)"/>
      <use xlink:href="#DejaVuSans-Bold-b3" transform="translate(814.599609 0)"/>
      <use xlink:href="#DejaVuSans-Bold-2f" transform="translate(858.398438 0)"/>
      <use xlink:href="#DejaVuSans-Bold-64" transform="translate(894.921875 0)"/>
      <use xlink:href="#DejaVuSans-Bold-61" transform="translate(966.503906 0)"/>
      <use xlink:href="#DejaVuSans-Bold-79" transform="translate(1030.859375 0)"/>
      <use xlink:href="#DejaVuSans-Bold-5d" transform="translate(1096.044922 0)"/>
     </g>
    </g>
   </g>
   <g id="FillBetweenPolyCollection_1">
    <defs>
     <path id="m2e426f212a" d="M 46.747488 -92.52717 
L 46.747488 -92.52717 
L 47.93553 -92.52717 
L 51.499659 -92.52717 
L 62.192044 -92.52717 
L 74.072472 -92.52717 
L 85.9529 -92.52717 
L 93.873185 -92.52717 
L 129.51447 -92.52717 
L 135.652691 -92.52717 
L 141.790912 -92.52717 
L 165.551768 -93.838557 
L 189.708638 -98.674714 
L 201.985081 -109.919827 
L 237.626365 -190.071951 
L 238.418393 -190.661921 
L 274.455692 -211.968326 
L 285.544091 -214.434427 
L 310.49299 -214.993508 
L 333.461818 -214.960355 
L 346.926303 -214.337677 
L 383.359616 -214.930524 
L 419.0009 -207.793933 
L 455.038198 -196.816079 
L 491.471511 -189.626322 
L 527.904824 -181.108445 
L 563.546108 -174.727521 
L 599.583406 -168.438612 
L 636.016719 -158.298535 
L 672.450032 -152.166463 
L 684.33046 -148.380521 
L 696.210888 -145.598172 
L 708.091316 -143.414169 
L 744.128614 -136.468993 
L 780.561927 -132.241813 
L 792.442355 -130.579298 
L 816.995239 -127.265709 
L 853.032538 -122.872238 
L 889.069836 -118.313177 
L 925.503149 -115.695009 
L 961.936462 -112.802723 
L 997.577746 -110.202785 
L 1009.458174 -109.431256 
L 1033.615044 -107.859806 
L 1070.048357 -105.922428 
L 1081.928785 -105.314165 
L 1106.48167 -104.237841 
L 1106.48167 -155.58115 
L 1106.48167 -155.58115 
L 1081.928785 -159.545378 
L 1070.048357 -161.527947 
L 1033.615044 -167.945828 
L 1009.458174 -172.506253 
L 997.577746 -174.820708 
L 961.936462 -182.148084 
L 925.503149 -190.776245 
L 889.069836 -198.825078 
L 853.032538 -207.767237 
L 816.995239 -217.206567 
L 792.442355 -223.90266 
L 780.561927 -227.218786 
L 744.128614 -238.822776 
L 708.091316 -249.41047 
L 696.210888 -254.934419 
L 684.33046 -261.676883 
L 672.450032 -268.657708 
L 636.016719 -294.150101 
L 599.583406 -317.7179 
L 563.546108 -345.674907 
L 527.904824 -374.47041 
L 491.471511 -403.220713 
L 455.038198 -443.90817 
L 419.0009 -479.160427 
L 383.359616 -494.985101 
L 346.926303 -534.42733 
L 333.461818 -548.732283 
L 310.49299 -569.380078 
L 285.544091 -583.955129 
L 274.455692 -585.25808 
L 238.418393 -541.124045 
L 237.626365 -538.015179 
L 201.985081 -433.23221 
L 189.708638 -366.514991 
L 165.551768 -190.788656 
L 141.790912 -92.52717 
L 135.652691 -92.52717 
L 129.51447 -92.52717 
L 93.873185 -92.52717 
L 85.9529 -92.52717 
L 74.072472 -92.52717 
L 62.192044 -92.52717 
L 51.499659 -92.52717 
L 47.93553 -92.52717 
L 46.747488 -92.52717 
z
" style="stroke: #58508d; stroke-opacity: 0.7; stroke-width: 0.8"/>
    </defs>
    <g clip-path="url(#p54c320fb6f)">
     <use xlink:href="#m2e426f212a" x="0" y="641.330875" style="fill: #58508d; fill-opacity: 0.7; stroke: #58508d; stroke-opacity: 0.7; stroke-width: 0.8"/>
    </g>
   </g>
   <g id="FillBetweenPolyCollection_2">
    <defs>
     <path id="mffc9479501" d="M 46.747488 -92.52717 
L 46.747488 -92.52717 
L 47.93553 -92.52717 
L 51.499659 -92.52717 
L 62.192044 -92.52717 
L 74.072472 -92.52717 
L 85.9529 -92.52717 
L 93.873185 -92.52717 
L 129.51447 -92.52717 
L 135.652691 -92.52717 
L 141.790912 -92.52717 
L 165.551768 -92.52717 
L 189.708638 -92.52717 
L 201.985081 -93.364267 
L 237.626365 -102.129496 
L 238.418393 -102.44174 
L 274.455692 -164.068335 
L 285.544091 -170.10198 
L 310.49299 -186.50145 
L 333.461818 -187.947255 
L 346.926303 -186.265384 
L 383.359616 -186.885347 
L 419.0009 -191.940187 
L 455.038198 -201.788326 
L 491.471511 -204.233677 
L 527.904824 -206.303187 
L 563.546108 -204.960046 
L 599.583406 -209.806058 
L 636.016719 -204.17504 
L 672.450032 -200.948521 
L 684.33046 -199.102578 
L 696.210888 -197.295143 
L 708.091316 -198.930336 
L 744.128614 -195.838907 
L 780.561927 -197.442919 
L 792.442355 -198.088601 
L 816.995239 -199.690173 
L 853.032538 -212.707518 
L 889.069836 -214.639094 
L 925.503149 -215.727052 
L 961.936462 -217.70015 
L 997.577746 -218.169858 
L 1009.458174 -216.823453 
L 1033.615044 -213.998066 
L 1070.048357 -210.77204 
L 1081.928785 -210.686214 
L 1106.48167 -210.629767 
L 1106.48167 -482.518578 
L 1106.48167 -482.518578 
L 1081.928785 -480.91476 
L 1070.048357 -480.222335 
L 1033.615044 -479.818173 
L 1009.458174 -480.756973 
L 997.577746 -481.311327 
L 961.936462 -478.581672 
L 925.503149 -480.180416 
L 889.069836 -477.807962 
L 853.032538 -479.6727 
L 816.995239 -478.118299 
L 792.442355 -482.771321 
L 780.561927 -479.551306 
L 744.128614 -468.192973 
L 708.091316 -454.174634 
L 696.210888 -448.403727 
L 684.33046 -442.942123 
L 672.450032 -442.560714 
L 636.016719 -441.9413 
L 599.583406 -463.593312 
L 563.546108 -458.604324 
L 527.904824 -479.817235 
L 491.471511 -481.807666 
L 455.038198 -488.450891 
L 419.0009 -489.324405 
L 383.359616 -504.310761 
L 346.926303 -510.624322 
L 333.461818 -511.189891 
L 310.49299 -510.615402 
L 285.544091 -492.527193 
L 274.455692 -468.192811 
L 238.418393 -351.355868 
L 237.626365 -346.349895 
L 201.985081 -127.812455 
L 189.708638 -92.52717 
L 165.551768 -92.52717 
L 141.790912 -92.52717 
L 135.652691 -92.52717 
L 129.51447 -92.52717 
L 93.873185 -92.52717 
L 85.9529 -92.52717 
L 74.072472 -92.52717 
L 62.192044 -92.52717 
L 51.499659 -92.52717 
L 47.93553 -92.52717 
L 46.747488 -92.52717 
z
" style="stroke: #ffa600; stroke-opacity: 0.7; stroke-width: 0.8"/>
    </defs>
    <g clip-path="url(#p54c320fb6f)">
     <use xlink:href="#mffc9479501" x="0" y="641.330875" style="fill: #ffa600; fill-opacity: 0.7; stroke: #ffa600; stroke-opacity: 0.7; stroke-width: 0.8"/>
    </g>
   </g>
   <g id="line2d_14">
    <path d="M 46.747488 548.803705 
L 47.93553 548.803705 
L 51.499659 548.803705 
L 62.192044 548.803705 
L 74.072472 548.803705 
L 85.9529 548.803705 
L 93.873185 548.803705 
L 129.51447 548.803705 
L 135.652691 548.803705 
L 141.790912 548.803705 
L 165.551768 516.17719 
L 189.708638 430.384268 
L 201.985081 382.063306 
L 237.626365 287.640822 
L 238.418393 285.979201 
L 274.455692 249.281543 
L 285.544091 246.438859 
L 310.49299 246.98056 
L 333.461818 253.869548 
L 346.926303 259.631113 
L 383.359616 279.635463 
L 419.0009 301.734305 
L 455.038198 324.220128 
L 491.471511 346.900243 
L 527.904824 367.997699 
L 563.546108 386.319631 
L 599.583406 402.67463 
L 636.016719 417.687405 
L 672.450032 431.152599 
L 684.33046 435.229934 
L 696.210888 439.165658 
L 708.091316 442.972963 
L 744.128614 453.665025 
L 780.561927 463.19218 
L 792.442355 466.032968 
L 816.995239 471.588464 
L 853.032538 478.941059 
L 889.069836 485.467442 
L 925.503149 491.381446 
L 961.936462 496.697202 
L 997.577746 501.356887 
L 1009.458174 502.798377 
L 1033.615044 505.585256 
L 1070.048357 509.402857 
L 1081.928785 510.55118 
L 1106.48167 512.800741 
" clip-path="url(#p54c320fb6f)" style="fill: none; stroke: #000000; stroke-width: 4; stroke-linecap: round"/>
   </g>
   <g id="line2d_15">
    <path d="M 46.747488 548.803705 
L 47.93553 548.803705 
L 51.499659 548.803705 
L 62.192044 548.803705 
L 74.072472 548.803705 
L 85.9529 548.803705 
L 93.873185 548.803705 
L 129.51447 548.803705 
L 135.652691 548.803705 
L 141.790912 548.803705 
L 165.551768 450.542219 
L 189.708638 274.815884 
L 201.985081 208.098665 
L 237.626365 103.315696 
L 238.418393 100.20683 
L 274.455692 56.072795 
L 285.544091 57.375746 
L 310.49299 71.950797 
L 333.461818 92.598592 
L 346.926303 106.903545 
L 383.359616 146.345774 
L 419.0009 162.170448 
L 455.038198 197.422705 
L 491.471511 238.110162 
L 527.904824 266.860465 
L 563.546108 295.655968 
L 599.583406 323.612975 
L 636.016719 347.180774 
L 672.450032 372.673167 
L 684.33046 379.653992 
L 696.210888 386.396456 
L 708.091316 391.920405 
L 744.128614 402.508099 
L 780.561927 414.112089 
L 792.442355 417.428215 
L 816.995239 424.124308 
L 853.032538 433.563638 
L 889.069836 442.505797 
L 925.503149 450.55463 
L 961.936462 459.182791 
L 997.577746 466.510167 
L 1009.458174 468.824622 
L 1033.615044 473.385047 
L 1070.048357 479.802928 
L 1081.928785 481.785497 
L 1106.48167 485.749725 
" clip-path="url(#p54c320fb6f)" style="fill: none; stroke-dasharray: 7.4,3.2; stroke-dashoffset: 0; stroke: #000000; stroke-width: 2"/>
   </g>
   <g id="line2d_16">
    <path d="M 46.747488 548.803705 
L 47.93553 548.803705 
L 51.499659 548.803705 
L 62.192044 548.803705 
L 74.072472 548.803705 
L 85.9529 548.803705 
L 93.873185 548.803705 
L 129.51447 548.803705 
L 135.652691 548.803705 
L 141.790912 548.803705 
L 165.551768 547.492318 
L 189.708638 542.656161 
L 201.985081 531.411048 
L 237.626365 451.258924 
L 238.418393 450.668954 
L 274.455692 429.362549 
L 285.544091 426.896448 
L 310.49299 426.337367 
L 333.461818 426.37052 
L 346.926303 426.993198 
L 383.359616 426.400351 
L 419.0009 433.536942 
L 455.038198 444.514796 
L 491.471511 451.704553 
L 527.904824 460.22243 
L 563.546108 466.603354 
L 599.583406 472.892263 
L 636.016719 483.03234 
L 672.450032 489.164412 
L 684.33046 492.950354 
L 696.210888 495.732703 
L 708.091316 497.916706 
L 744.128614 504.861882 
L 780.561927 509.089062 
L 792.442355 510.751577 
L 816.995239 514.065166 
L 853.032538 518.458637 
L 889.069836 523.017698 
L 925.503149 525.635866 
L 961.936462 528.528152 
L 997.577746 531.12809 
L 1009.458174 531.899619 
L 1033.615044 533.471069 
L 1070.048357 535.408447 
L 1081.928785 536.01671 
L 1106.48167 537.093034 
" clip-path="url(#p54c320fb6f)" style="fill: none; stroke-dasharray: 2,3.3; stroke-dashoffset: 0; stroke: #000000; stroke-width: 2"/>
   </g>
   <g id="line2d_17">
    <path d="M 46.747488 548.803705 
L 47.93553 548.803705 
L 51.499659 548.803705 
L 62.192044 548.803705 
L 74.072472 548.803705 
L 85.9529 548.803705 
L 93.873185 548.803705 
L 129.51447 548.803705 
L 135.652691 548.803705 
L 141.790912 548.803705 
L 165.551768 548.803705 
L 189.708638 548.803705 
L 201.985081 534.65124 
L 237.626365 435.513046 
L 238.418393 432.300401 
L 274.455692 336.807437 
L 285.544091 320.887179 
L 310.49299 300.64952 
L 333.461818 294.348717 
L 346.926303 293.505486 
L 383.359616 297.116435 
L 419.0009 302.923976 
L 455.038198 308.832992 
L 491.471511 314.531992 
L 527.904824 319.593813 
L 563.546108 322.732828 
L 599.583406 323.173713 
L 636.016719 322.083787 
L 672.450032 320.476215 
L 684.33046 319.92865 
L 696.210888 319.389531 
L 708.091316 318.869162 
L 744.128614 317.165102 
L 780.561927 315.473929 
L 792.442355 314.887804 
L 816.995239 313.522742 
L 853.032538 311.100222 
L 889.069836 308.627278 
L 925.503149 306.583307 
L 961.936462 304.556823 
L 997.577746 302.722406 
L 1009.458174 302.13354 
L 1033.615044 300.941475 
L 1070.048357 299.152301 
L 1081.928785 298.559958 
L 1106.48167 297.32483 
" clip-path="url(#p54c320fb6f)" style="fill: none; stroke: #808080; stroke-width: 4; stroke-linecap: round"/>
   </g>
   <g id="line2d_18">
    <path d="M 46.747488 548.803705 
L 47.93553 548.803705 
L 51.499659 548.803705 
L 62.192044 548.803705 
L 74.072472 548.803705 
L 85.9529 548.803705 
L 93.873185 548.803705 
L 129.51447 548.803705 
L 135.652691 548.803705 
L 141.790912 548.803705 
L 165.551768 548.803705 
L 189.708638 548.803705 
L 201.985081 513.51842 
L 237.626365 294.98098 
L 238.418393 289.975007 
L 274.455692 173.138064 
L 285.544091 148.803682 
L 310.49299 130.715473 
L 333.461818 130.140984 
L 346.926303 130.706553 
L 383.359616 137.020114 
L 419.0009 152.00647 
L 455.038198 152.879984 
L 491.471511 159.523209 
L 527.904824 161.51364 
L 563.546108 182.726551 
L 599.583406 177.737563 
L 636.016719 199.389575 
L 672.450032 198.770161 
L 684.33046 198.388752 
L 696.210888 192.927148 
L 708.091316 187.156241 
L 744.128614 173.137902 
L 780.561927 161.779569 
L 792.442355 158.559554 
L 816.995239 163.212576 
L 853.032538 161.658175 
L 889.069836 163.522913 
L 925.503149 161.150459 
L 961.936462 162.749203 
L 997.577746 160.019548 
L 1009.458174 160.573902 
L 1033.615044 161.512702 
L 1070.048357 161.10854 
L 1081.928785 160.416115 
L 1106.48167 158.812297 
" clip-path="url(#p54c320fb6f)" style="fill: none; stroke-dasharray: 7.4,3.2; stroke-dashoffset: 0; stroke: #808080; stroke-width: 2"/>
   </g>
   <g id="line2d_19">
    <path d="M 46.747488 548.803705 
L 47.93553 548.803705 
L 51.499659 548.803705 
L 62.192044 548.803705 
L 74.072472 548.803705 
L 85.9529 548.803705 
L 93.873185 548.803705 
L 129.51447 548.803705 
L 135.652691 548.803705 
L 141.790912 548.803705 
L 165.551768 548.803705 
L 189.708638 548.803705 
L 201.985081 547.966608 
L 237.626365 539.201379 
L 238.418393 538.889135 
L 274.455692 477.26254 
L 285.544091 471.228895 
L 310.49299 454.829425 
L 333.461818 453.38362 
L 346.926303 455.065491 
L 383.359616 454.445528 
L 419.0009 449.390688 
L 455.038198 439.542549 
L 491.471511 437.097198 
L 527.904824 435.027688 
L 563.546108 436.370829 
L 599.583406 431.524817 
L 636.016719 437.155835 
L 672.450032 440.382354 
L 684.33046 442.228297 
L 696.210888 444.035732 
L 708.091316 442.400539 
L 744.128614 445.491968 
L 780.561927 443.887956 
L 792.442355 443.242274 
L 816.995239 441.640702 
L 853.032538 428.623357 
L 889.069836 426.691781 
L 925.503149 425.603823 
L 961.936462 423.630725 
L 997.577746 423.161017 
L 1009.458174 424.507422 
L 1033.615044 427.332809 
L 1070.048357 430.558835 
L 1081.928785 430.644661 
L 1106.48167 430.701108 
" clip-path="url(#p54c320fb6f)" style="fill: none; stroke-dasharray: 2,3.3; stroke-dashoffset: 0; stroke: #808080; stroke-width: 2"/>
   </g>
   <g id="patch_3">
    <path d="M 88.725 573.44025 
L 88.725 31.43625 
" style="fill: none; stroke: #ffffff; stroke-linejoin: miter; stroke-linecap: square"/>
   </g>
   <g id="patch_4">
    <path d="M 1112.817898 573.44025 
L 1112.817898 31.43625 
" style="fill: none; stroke: #ffffff; stroke-linejoin: miter; stroke-linecap: square"/>
   </g>
   <g id="patch_5">
    <path d="M 88.725 573.44025 
L 1112.817898 573.44025 
" style="fill: none; stroke: #ffffff; stroke-linejoin: miter; stroke-linecap: square"/>
   </g>
   <g id="patch_6">
    <path d="M 88.725 31.43625 
L 1112.817898 31.43625 
" style="fill: none; stroke: #ffffff; stroke-linejoin: miter; stroke-linecap: square"/>
   </g>
   <g id="text_16">
    <!-- WWPR:A2 -->
    <g style="fill: #262626" transform="translate(533.830199 25.43625) scale(0.24 -0.24)">
     <use xlink:href="#DejaVuSans-Bold-57"/>
     <use xlink:href="#DejaVuSans-Bold-57" transform="translate(110.302734 0)"/>
     <use xlink:href="#DejaVuSans-Bold-50" transform="translate(220.605469 0)"/>
     <use xlink:href="#DejaVuSans-Bold-52" transform="translate(293.896484 0)"/>
     <use xlink:href="#DejaVuSans-Bold-3a" transform="translate(370.898438 0)"/>
     <use xlink:href="#DejaVuSans-Bold-41" transform="translate(410.888672 0)"/>
     <use xlink:href="#DejaVuSans-Bold-32" transform="translate(488.28125 0)"/>
    </g>
   </g>
   <g id="legend_1">
    <g id="patch_7">
     <path d="M 870.25071 386.467938 
L 1097.417898 386.467938 
Q 1101.817898 386.467938 1101.817898 382.067938 
L 1101.817898 222.808562 
Q 1101.817898 218.408562 1097.417898 218.408562 
L 870.25071 218.408562 
Q 865.85071 218.408562 865.85071 222.808562 
L 865.85071 382.067938 
Q 865.85071 386.467938 870.25071 386.467938 
z
" style="fill: #eaeaf2; opacity: 0.8; stroke: #cccccc; stroke-width: 0.8; stroke-linejoin: miter"/>
    </g>
    <g id="line2d_20">
     <path d="M 874.65071 236.225125 
L 896.65071 236.225125 
L 918.65071 236.225125 
" style="fill: none; stroke: #000000; stroke-width: 4; stroke-linecap: round"/>
    </g>
    <g id="text_17">
     <!-- Mean -->
     <g style="fill: #262626" transform="translate(936.25071 243.925125) scale(0.22 -0.22)">
      <defs>
       <path id="DejaVuSans-4d" d="M 628 4666 
L 1569 4666 
L 2759 1491 
L 3956 4666 
L 4897 4666 
L 4897 0 
L 4281 0 
L 4281 4097 
L 3078 897 
L 2444 897 
L 1241 4097 
L 1241 0 
L 628 0 
L 628 4666 
z
" transform="scale(0.015625)"/>
       <path id="DejaVuSans-65" d="M 3597 1894 
L 3597 1613 
L 953 1613 
Q 991 1019 1311 708 
Q 1631 397 2203 397 
Q 2534 397 2845 478 
Q 3156 559 3463 722 
L 3463 178 
Q 3153 47 2828 -22 
Q 2503 -91 2169 -91 
Q 1331 -91 842 396 
Q 353 884 353 1716 
Q 353 2575 817 3079 
Q 1281 3584 2069 3584 
Q 2775 3584 3186 3129 
Q 3597 2675 3597 1894 
z
M 3022 2063 
Q 3016 2534 2758 2815 
Q 2500 3097 2075 3097 
Q 1594 3097 1305 2825 
Q 1016 2553 972 2059 
L 3022 2063 
z
" transform="scale(0.015625)"/>
       <path id="DejaVuSans-61" d="M 2194 1759 
Q 1497 1759 1228 1600 
Q 959 1441 959 1056 
Q 959 750 1161 570 
Q 1363 391 1709 391 
Q 2188 391 2477 730 
Q 2766 1069 2766 1631 
L 2766 1759 
L 2194 1759 
z
M 3341 1997 
L 3341 0 
L 2766 0 
L 2766 531 
Q 2569 213 2275 61 
Q 1981 -91 1556 -91 
Q 1019 -91 701 211 
Q 384 513 384 1019 
Q 384 1609 779 1909 
Q 1175 2209 1959 2209 
L 2766 2209 
L 2766 2266 
Q 2766 2663 2505 2880 
Q 2244 3097 1772 3097 
Q 1472 3097 1187 3025 
Q 903 2953 641 2809 
L 641 3341 
Q 956 3463 1253 3523 
Q 1550 3584 1831 3584 
Q 2591 3584 2966 3190 
Q 3341 2797 3341 1997 
z
" transform="scale(0.015625)"/>
       <path id="DejaVuSans-6e" d="M 3513 2113 
L 3513 0 
L 2938 0 
L 2938 2094 
Q 2938 2591 2744 2837 
Q 2550 3084 2163 3084 
Q 1697 3084 1428 2787 
Q 1159 2491 1159 1978 
L 1159 0 
L 581 0 
L 581 3500 
L 1159 3500 
L 1159 2956 
Q 1366 3272 1645 3428 
Q 1925 3584 2291 3584 
Q 2894 3584 3203 3211 
Q 3513 2838 3513 2113 
z
" transform="scale(0.015625)"/>
      </defs>
      <use xlink:href="#DejaVuSans-4d"/>
      <use xlink:href="#DejaVuSans-65" transform="translate(86.279297 0)"/>
      <use xlink:href="#DejaVuSans-61" transform="translate(147.802734 0)"/>
      <use xlink:href="#DejaVuSans-6e" transform="translate(209.082031 0)"/>
     </g>
    </g>
    <g id="line2d_21">
     <path d="M 874.65071 268.517 
L 896.65071 268.517 
L 918.65071 268.517 
" style="fill: none; stroke-dasharray: 7.4,3.2; stroke-dashoffset: 0; stroke: #000000; stroke-width: 2"/>
    </g>
    <g id="text_18">
     <!-- P10 Percentile -->
     <g style="fill: #262626" transform="translate(936.25071 276.217) scale(0.22 -0.22)">
      <defs>
       <path id="DejaVuSans-50" d="M 1259 4147 
L 1259 2394 
L 2053 2394 
Q 2494 2394 2734 2622 
Q 2975 2850 2975 3272 
Q 2975 3691 2734 3919 
Q 2494 4147 2053 4147 
L 1259 4147 
z
M 628 4666 
L 2053 4666 
Q 2838 4666 3239 4311 
Q 3641 3956 3641 3272 
Q 3641 2581 3239 2228 
Q 2838 1875 2053 1875 
L 1259 1875 
L 1259 0 
L 628 0 
L 628 4666 
z
" transform="scale(0.015625)"/>
       <path id="DejaVuSans-31" d="M 794 531 
L 1825 531 
L 1825 4091 
L 703 3866 
L 703 4441 
L 1819 4666 
L 2450 4666 
L 2450 531 
L 3481 531 
L 3481 0 
L 794 0 
L 794 531 
z
" transform="scale(0.015625)"/>
       <path id="DejaVuSans-20" transform="scale(0.015625)"/>
       <path id="DejaVuSans-72" d="M 2631 2963 
Q 2534 3019 2420 3045 
Q 2306 3072 2169 3072 
Q 1681 3072 1420 2755 
Q 1159 2438 1159 1844 
L 1159 0 
L 581 0 
L 581 3500 
L 1159 3500 
L 1159 2956 
Q 1341 3275 1631 3429 
Q 1922 3584 2338 3584 
Q 2397 3584 2469 3576 
Q 2541 3569 2628 3553 
L 2631 2963 
z
" transform="scale(0.015625)"/>
       <path id="DejaVuSans-63" d="M 3122 3366 
L 3122 2828 
Q 2878 2963 2633 3030 
Q 2388 3097 2138 3097 
Q 1578 3097 1268 2742 
Q 959 2388 959 1747 
Q 959 1106 1268 751 
Q 1578 397 2138 397 
Q 2388 397 2633 464 
Q 2878 531 3122 666 
L 3122 134 
Q 2881 22 2623 -34 
Q 2366 -91 2075 -91 
Q 1284 -91 818 406 
Q 353 903 353 1747 
Q 353 2603 823 3093 
Q 1294 3584 2113 3584 
Q 2378 3584 2631 3529 
Q 2884 3475 3122 3366 
z
" transform="scale(0.015625)"/>
       <path id="DejaVuSans-74" d="M 1172 4494 
L 1172 3500 
L 2356 3500 
L 2356 3053 
L 1172 3053 
L 1172 1153 
Q 1172 725 1289 603 
Q 1406 481 1766 481 
L 2356 481 
L 2356 0 
L 1766 0 
Q 1100 0 847 248 
Q 594 497 594 1153 
L 594 3053 
L 172 3053 
L 172 3500 
L 594 3500 
L 594 4494 
L 1172 4494 
z
" transform="scale(0.015625)"/>
       <path id="DejaVuSans-69" d="M 603 3500 
L 1178 3500 
L 1178 0 
L 603 0 
L 603 3500 
z
M 603 4863 
L 1178 4863 
L 1178 4134 
L 603 4134 
L 603 4863 
z
" transform="scale(0.015625)"/>
       <path id="DejaVuSans-6c" d="M 603 4863 
L 1178 4863 
L 1178 0 
L 603 0 
L 603 4863 
z
" transform="scale(0.015625)"/>
      </defs>
      <use xlink:href="#DejaVuSans-50"/>
      <use xlink:href="#DejaVuSans-31" transform="translate(60.302734 0)"/>
      <use xlink:href="#DejaVuSans-30" transform="translate(123.925781 0)"/>
      <use xlink:href="#DejaVuSans-20" transform="translate(187.548828 0)"/>
      <use xlink:href="#DejaVuSans-50" transform="translate(219.335938 0)"/>
      <use xlink:href="#DejaVuSans-65" transform="translate(276.013672 0)"/>
      <use xlink:href="#DejaVuSans-72" transform="translate(337.537109 0)"/>
      <use xlink:href="#DejaVuSans-63" transform="translate(376.400391 0)"/>
      <use xlink:href="#DejaVuSans-65" transform="translate(431.380859 0)"/>
      <use xlink:href="#DejaVuSans-6e" transform="translate(492.904297 0)"/>
      <use xlink:href="#DejaVuSans-74" transform="translate(556.283203 0)"/>
      <use xlink:href="#DejaVuSans-69" transform="translate(595.492188 0)"/>
      <use xlink:href="#DejaVuSans-6c" transform="translate(623.275391 0)"/>
      <use xlink:href="#DejaVuSans-65" transform="translate(651.058594 0)"/>
     </g>
    </g>
    <g id="line2d_22">
     <path d="M 874.65071 300.808875 
L 896.65071 300.808875 
L 918.65071 300.808875 
" style="fill: none; stroke-dasharray: 2,3.3; stroke-dashoffset: 0; stroke: #000000; stroke-width: 2"/>
    </g>
    <g id="text_19">
     <!-- P90 Percentile -->
     <g style="fill: #262626" transform="translate(936.25071 308.508875) scale(0.22 -0.22)">
      <use xlink:href="#DejaVuSans-50"/>
      <use xlink:href="#DejaVuSans-39" transform="translate(60.302734 0)"/>
      <use xlink:href="#DejaVuSans-30" transform="translate(123.925781 0)"/>
      <use xlink:href="#DejaVuSans-20" transform="translate(187.548828 0)"/>
      <use xlink:href="#DejaVuSans-50" transform="translate(219.335938 0)"/>
      <use xlink:href="#DejaVuSans-65" transform="translate(276.013672 0)"/>
      <use xlink:href="#DejaVuSans-72" transform="translate(337.537109 0)"/>
      <use xlink:href="#DejaVuSans-63" transform="translate(376.400391 0)"/>
      <use xlink:href="#DejaVuSans-65" transform="translate(431.380859 0)"/>
      <use xlink:href="#DejaVuSans-6e" transform="translate(492.904297 0)"/>
      <use xlink:href="#DejaVuSans-74" transform="translate(556.283203 0)"/>
      <use xlink:href="#DejaVuSans-69" transform="translate(595.492188 0)"/>
      <use xlink:href="#DejaVuSans-6c" transform="translate(623.275391 0)"/>
      <use xlink:href="#DejaVuSans-65" transform="translate(651.058594 0)"/>
     </g>
    </g>
    <g id="patch_8">
     <path d="M 874.65071 340.80075 
L 918.65071 340.80075 
L 918.65071 325.40075 
L 874.65071 325.40075 
z
" style="fill: #58508d; fill-opacity: 0.7; stroke: #58508d; stroke-opacity: 0.7; stroke-width: 0.8; stroke-linejoin: miter"/>
    </g>
    <g id="text_20">
     <!-- Batch 0 -->
     <g style="fill: #262626" transform="translate(936.25071 340.80075) scale(0.22 -0.22)">
      <defs>
       <path id="DejaVuSans-42" d="M 1259 2228 
L 1259 519 
L 2272 519 
Q 2781 519 3026 730 
Q 3272 941 3272 1375 
Q 3272 1813 3026 2020 
Q 2781 2228 2272 2228 
L 1259 2228 
z
M 1259 4147 
L 1259 2741 
L 2194 2741 
Q 2656 2741 2882 2914 
Q 3109 3088 3109 3444 
Q 3109 3797 2882 3972 
Q 2656 4147 2194 4147 
L 1259 4147 
z
M 628 4666 
L 2241 4666 
Q 2963 4666 3353 4366 
Q 3744 4066 3744 3513 
Q 3744 3084 3544 2831 
Q 3344 2578 2956 2516 
Q 3422 2416 3680 2098 
Q 3938 1781 3938 1306 
Q 3938 681 3513 340 
Q 3088 0 2303 0 
L 628 0 
L 628 4666 
z
" transform="scale(0.015625)"/>
       <path id="DejaVuSans-68" d="M 3513 2113 
L 3513 0 
L 2938 0 
L 2938 2094 
Q 2938 2591 2744 2837 
Q 2550 3084 2163 3084 
Q 1697 3084 1428 2787 
Q 1159 2491 1159 1978 
L 1159 0 
L 581 0 
L 581 4863 
L 1159 4863 
L 1159 2956 
Q 1366 3272 1645 3428 
Q 1925 3584 2291 3584 
Q 2894 3584 3203 3211 
Q 3513 2838 3513 2113 
z
" transform="scale(0.015625)"/>
      </defs>
      <use xlink:href="#DejaVuSans-42"/>
      <use xlink:href="#DejaVuSans-61" transform="translate(68.603516 0)"/>
      <use xlink:href="#DejaVuSans-74" transform="translate(129.882812 0)"/>
      <use xlink:href="#DejaVuSans-63" transform="translate(169.091797 0)"/>
      <use xlink:href="#DejaVuSans-68" transform="translate(224.072266 0)"/>
      <use xlink:href="#DejaVuSans-20" transform="translate(287.451172 0)"/>
      <use xlink:href="#DejaVuSans-30" transform="translate(319.238281 0)"/>
     </g>
    </g>
    <g id="patch_9">
     <path d="M 874.65071 373.092625 
L 918.65071 373.092625 
L 918.65071 357.692625 
L 874.65071 357.692625 
z
" style="fill: #ffa600; fill-opacity: 0.7; stroke: #ffa600; stroke-opacity: 0.7; stroke-width: 0.8; stroke-linejoin: miter"/>
    </g>
    <g id="text_21">
     <!-- Batch 5 -->
     <g style="fill: #262626" transform="translate(936.25071 373.092625) scale(0.22 -0.22)">
      <use xlink:href="#DejaVuSans-42"/>
      <use xlink:href="#DejaVuSans-61" transform="translate(68.603516 0)"/>
      <use xlink:href="#DejaVuSans-74" transform="translate(129.882812 0)"/>
      <use xlink:href="#DejaVuSans-63" transform="translate(169.091797 0)"/>
      <use xlink:href="#DejaVuSans-68" transform="translate(224.072266 0)"/>
      <use xlink:href="#DejaVuSans-20" transform="translate(287.451172 0)"/>
      <use xlink:href="#DejaVuSans-35" transform="translate(319.238281 0)"/>
     </g>
    </g>
   </g>
  </g>
 </g>
 <defs>
  <clipPath id="p54c320fb6f">
   <rect x="88.725" y="31.43625" width="1024.092898" height="542.004"/>
  </clipPath>
 </defs>
</svg>
