<?xml version="1.0" encoding="utf-8" standalone="no"?>
<!DOCTYPE svg PUBLIC "-//W3C//DTD SVG 1.1//EN"
  "http://www.w3.org/Graphics/SVG/1.1/DTD/svg11.dtd">
<svg xmlns:xlink="http://www.w3.org/1999/xlink" width="1144.44044pt" height="641.330875pt" viewBox="0 0 1144.44044 641.330875" xmlns="http://www.w3.org/2000/svg" version="1.1">
 <metadata>
  <rdf:RDF xmlns:dc="http://purl.org/dc/elements/1.1/" xmlns:cc="http://creativecommons.org/ns#" xmlns:rdf="http://www.w3.org/1999/02/22-rdf-syntax-ns#">
   <cc:Work>
    <dc:type rdf:resource="http://purl.org/dc/dcmitype/StillImage"/>
    <dc:date>2025-07-10T16:45:13.358860</dc:date>
    <dc:format>image/svg+xml</dc:format>
    <dc:creator>
     <cc:Agent>
      <dc:title>Matplotlib v3.10.3, https://matplotlib.org/</dc:title>
     </cc:Agent>
    </dc:creator>
   </cc:Work>
  </rdf:RDF>
 </metadata>
 <defs>
  <style type="text/css">*{stroke-linejoin: round; stroke-linecap: butt}</style>
 </defs>
 <g id="figure_1">
  <g id="patch_1">
   <path d="M 0 641.330875 
L 1144.44044 641.330875 
L 1144.44044 0 
L 0 0 
z
" style="fill: #ffffff"/>
  </g>
  <g id="axes_1">
   <g id="patch_2">
    <path d="M 119.265 573.44025 
L 1112.847898 573.44025 
L 1112.847898 31.43625 
L 119.265 31.43625 
z
" style="fill: #eaeaf2"/>
   </g>
   <g id="matplotlib.axis_1">
    <g id="xtick_1">
     <g id="line2d_1">
      <path d="M 124.25981 573.44025 
L 124.25981 31.43625 
" clip-path="url(#paaca67cfd1)" style="fill: none; stroke: #ffffff; stroke-width: 0.8; stroke-linecap: round"/>
     </g>
     <g id="text_1">
      <!-- 2023 -->
      <g style="fill: #262626" transform="translate(93.71981 599.9765) scale(0.24 -0.24)">
       <defs>
        <path id="DejaVuSans-32" d="M 1228 531 
L 3431 531 
L 3431 0 
L 469 0 
L 469 531 
Q 828 903 1448 1529 
Q 2069 2156 2228 2338 
Q 2531 2678 2651 2914 
Q 2772 3150 2772 3378 
Q 2772 3750 2511 3984 
Q 2250 4219 1831 4219 
Q 1534 4219 1204 4116 
Q 875 4013 500 3803 
L 500 4441 
Q 881 4594 1212 4672 
Q 1544 4750 1819 4750 
Q 2544 4750 2975 4387 
Q 3406 4025 3406 3419 
Q 3406 3131 3298 2873 
Q 3191 2616 2906 2266 
Q 2828 2175 2409 1742 
Q 1991 1309 1228 531 
z
" transform="scale(0.015625)"/>
        <path id="DejaVuSans-30" d="M 2034 4250 
Q 1547 4250 1301 3770 
Q 1056 3291 1056 2328 
Q 1056 1369 1301 889 
Q 1547 409 2034 409 
Q 2525 409 2770 889 
Q 3016 1369 3016 2328 
Q 3016 3291 2770 3770 
Q 2525 4250 2034 4250 
z
M 2034 4750 
Q 2819 4750 3233 4129 
Q 3647 3509 3647 2328 
Q 3647 1150 3233 529 
Q 2819 -91 2034 -91 
Q 1250 -91 836 529 
Q 422 1150 422 2328 
Q 422 3509 836 4129 
Q 1250 4750 2034 4750 
z
" transform="scale(0.015625)"/>
        <path id="DejaVuSans-33" d="M 2597 2516 
Q 3050 2419 3304 2112 
Q 3559 1806 3559 1356 
Q 3559 666 3084 287 
Q 2609 -91 1734 -91 
Q 1441 -91 1130 -33 
Q 819 25 488 141 
L 488 750 
Q 750 597 1062 519 
Q 1375 441 1716 441 
Q 2309 441 2620 675 
Q 2931 909 2931 1356 
Q 2931 1769 2642 2001 
Q 2353 2234 1838 2234 
L 1294 2234 
L 1294 2753 
L 1863 2753 
Q 2328 2753 2575 2939 
Q 2822 3125 2822 3475 
Q 2822 3834 2567 4026 
Q 2313 4219 1838 4219 
Q 1578 4219 1281 4162 
Q 984 4106 628 3988 
L 628 4550 
Q 988 4650 1302 4700 
Q 1616 4750 1894 4750 
Q 2613 4750 3031 4423 
Q 3450 4097 3450 3541 
Q 3450 3153 3228 2886 
Q 3006 2619 2597 2516 
z
" transform="scale(0.015625)"/>
       </defs>
       <use xlink:href="#DejaVuSans-32"/>
       <use xlink:href="#DejaVuSans-30" transform="translate(63.623047 0)"/>
       <use xlink:href="#DejaVuSans-32" transform="translate(127.246094 0)"/>
       <use xlink:href="#DejaVuSans-33" transform="translate(190.869141 0)"/>
      </g>
     </g>
    </g>
    <g id="xtick_2">
     <g id="line2d_2">
      <path d="M 264.498695 573.44025 
L 264.498695 31.43625 
" clip-path="url(#paaca67cfd1)" style="fill: none; stroke: #ffffff; stroke-width: 0.8; stroke-linecap: round"/>
     </g>
     <g id="text_2">
      <!-- 2024 -->
      <g style="fill: #262626" transform="translate(233.958695 599.9765) scale(0.24 -0.24)">
       <defs>
        <path id="DejaVuSans-34" d="M 2419 4116 
L 825 1625 
L 2419 1625 
L 2419 4116 
z
M 2253 4666 
L 3047 4666 
L 3047 1625 
L 3713 1625 
L 3713 1100 
L 3047 1100 
L 3047 0 
L 2419 0 
L 2419 1100 
L 313 1100 
L 313 1709 
L 2253 4666 
z
" transform="scale(0.015625)"/>
       </defs>
       <use xlink:href="#DejaVuSans-32"/>
       <use xlink:href="#DejaVuSans-30" transform="translate(63.623047 0)"/>
       <use xlink:href="#DejaVuSans-32" transform="translate(127.246094 0)"/>
       <use xlink:href="#DejaVuSans-34" transform="translate(190.869141 0)"/>
      </g>
     </g>
    </g>
    <g id="xtick_3">
     <g id="line2d_3">
      <path d="M 405.121797 573.44025 
L 405.121797 31.43625 
" clip-path="url(#paaca67cfd1)" style="fill: none; stroke: #ffffff; stroke-width: 0.8; stroke-linecap: round"/>
     </g>
     <g id="text_3">
      <!-- 2025 -->
      <g style="fill: #262626" transform="translate(374.581797 599.9765) scale(0.24 -0.24)">
       <defs>
        <path id="DejaVuSans-35" d="M 691 4666 
L 3169 4666 
L 3169 4134 
L 1269 4134 
L 1269 2991 
Q 1406 3038 1543 3061 
Q 1681 3084 1819 3084 
Q 2600 3084 3056 2656 
Q 3513 2228 3513 1497 
Q 3513 744 3044 326 
Q 2575 -91 1722 -91 
Q 1428 -91 1123 -41 
Q 819 9 494 109 
L 494 744 
Q 775 591 1075 516 
Q 1375 441 1709 441 
Q 2250 441 2565 725 
Q 2881 1009 2881 1497 
Q 2881 1984 2565 2268 
Q 2250 2553 1709 2553 
Q 1456 2553 1204 2497 
Q 953 2441 691 2322 
L 691 4666 
z
" transform="scale(0.015625)"/>
       </defs>
       <use xlink:href="#DejaVuSans-32"/>
       <use xlink:href="#DejaVuSans-30" transform="translate(63.623047 0)"/>
       <use xlink:href="#DejaVuSans-32" transform="translate(127.246094 0)"/>
       <use xlink:href="#DejaVuSans-35" transform="translate(190.869141 0)"/>
      </g>
     </g>
    </g>
    <g id="xtick_4">
     <g id="line2d_4">
      <path d="M 545.360682 573.44025 
L 545.360682 31.43625 
" clip-path="url(#paaca67cfd1)" style="fill: none; stroke: #ffffff; stroke-width: 0.8; stroke-linecap: round"/>
     </g>
     <g id="text_4">
      <!-- 2026 -->
      <g style="fill: #262626" transform="translate(514.820682 599.9765) scale(0.24 -0.24)">
       <defs>
        <path id="DejaVuSans-36" d="M 2113 2584 
Q 1688 2584 1439 2293 
Q 1191 2003 1191 1497 
Q 1191 994 1439 701 
Q 1688 409 2113 409 
Q 2538 409 2786 701 
Q 3034 994 3034 1497 
Q 3034 2003 2786 2293 
Q 2538 2584 2113 2584 
z
M 3366 4563 
L 3366 3988 
Q 3128 4100 2886 4159 
Q 2644 4219 2406 4219 
Q 1781 4219 1451 3797 
Q 1122 3375 1075 2522 
Q 1259 2794 1537 2939 
Q 1816 3084 2150 3084 
Q 2853 3084 3261 2657 
Q 3669 2231 3669 1497 
Q 3669 778 3244 343 
Q 2819 -91 2113 -91 
Q 1303 -91 875 529 
Q 447 1150 447 2328 
Q 447 3434 972 4092 
Q 1497 4750 2381 4750 
Q 2619 4750 2861 4703 
Q 3103 4656 3366 4563 
z
" transform="scale(0.015625)"/>
       </defs>
       <use xlink:href="#DejaVuSans-32"/>
       <use xlink:href="#DejaVuSans-30" transform="translate(63.623047 0)"/>
       <use xlink:href="#DejaVuSans-32" transform="translate(127.246094 0)"/>
       <use xlink:href="#DejaVuSans-36" transform="translate(190.869141 0)"/>
      </g>
     </g>
    </g>
    <g id="xtick_5">
     <g id="line2d_5">
      <path d="M 685.599567 573.44025 
L 685.599567 31.43625 
" clip-path="url(#paaca67cfd1)" style="fill: none; stroke: #ffffff; stroke-width: 0.8; stroke-linecap: round"/>
     </g>
     <g id="text_5">
      <!-- 2027 -->
      <g style="fill: #262626" transform="translate(655.059567 599.9765) scale(0.24 -0.24)">
       <defs>
        <path id="DejaVuSans-37" d="M 525 4666 
L 3525 4666 
L 3525 4397 
L 1831 0 
L 1172 0 
L 2766 4134 
L 525 4134 
L 525 4666 
z
" transform="scale(0.015625)"/>
       </defs>
       <use xlink:href="#DejaVuSans-32"/>
       <use xlink:href="#DejaVuSans-30" transform="translate(63.623047 0)"/>
       <use xlink:href="#DejaVuSans-32" transform="translate(127.246094 0)"/>
       <use xlink:href="#DejaVuSans-37" transform="translate(190.869141 0)"/>
      </g>
     </g>
    </g>
    <g id="xtick_6">
     <g id="line2d_6">
      <path d="M 825.838453 573.44025 
L 825.838453 31.43625 
" clip-path="url(#paaca67cfd1)" style="fill: none; stroke: #ffffff; stroke-width: 0.8; stroke-linecap: round"/>
     </g>
     <g id="text_6">
      <!-- 2028 -->
      <g style="fill: #262626" transform="translate(795.298453 599.9765) scale(0.24 -0.24)">
       <defs>
        <path id="DejaVuSans-38" d="M 2034 2216 
Q 1584 2216 1326 1975 
Q 1069 1734 1069 1313 
Q 1069 891 1326 650 
Q 1584 409 2034 409 
Q 2484 409 2743 651 
Q 3003 894 3003 1313 
Q 3003 1734 2745 1975 
Q 2488 2216 2034 2216 
z
M 1403 2484 
Q 997 2584 770 2862 
Q 544 3141 544 3541 
Q 544 4100 942 4425 
Q 1341 4750 2034 4750 
Q 2731 4750 3128 4425 
Q 3525 4100 3525 3541 
Q 3525 3141 3298 2862 
Q 3072 2584 2669 2484 
Q 3125 2378 3379 2068 
Q 3634 1759 3634 1313 
Q 3634 634 3220 271 
Q 2806 -91 2034 -91 
Q 1263 -91 848 271 
Q 434 634 434 1313 
Q 434 1759 690 2068 
Q 947 2378 1403 2484 
z
M 1172 3481 
Q 1172 3119 1398 2916 
Q 1625 2713 2034 2713 
Q 2441 2713 2670 2916 
Q 2900 3119 2900 3481 
Q 2900 3844 2670 4047 
Q 2441 4250 2034 4250 
Q 1625 4250 1398 4047 
Q 1172 3844 1172 3481 
z
" transform="scale(0.015625)"/>
       </defs>
       <use xlink:href="#DejaVuSans-32"/>
       <use xlink:href="#DejaVuSans-30" transform="translate(63.623047 0)"/>
       <use xlink:href="#DejaVuSans-32" transform="translate(127.246094 0)"/>
       <use xlink:href="#DejaVuSans-38" transform="translate(190.869141 0)"/>
      </g>
     </g>
    </g>
    <g id="xtick_7">
     <g id="line2d_7">
      <path d="M 966.461554 573.44025 
L 966.461554 31.43625 
" clip-path="url(#paaca67cfd1)" style="fill: none; stroke: #ffffff; stroke-width: 0.8; stroke-linecap: round"/>
     </g>
     <g id="text_7">
      <!-- 2029 -->
      <g style="fill: #262626" transform="translate(935.921554 599.9765) scale(0.24 -0.24)">
       <defs>
        <path id="DejaVuSans-39" d="M 703 97 
L 703 672 
Q 941 559 1184 500 
Q 1428 441 1663 441 
Q 2288 441 2617 861 
Q 2947 1281 2994 2138 
Q 2813 1869 2534 1725 
Q 2256 1581 1919 1581 
Q 1219 1581 811 2004 
Q 403 2428 403 3163 
Q 403 3881 828 4315 
Q 1253 4750 1959 4750 
Q 2769 4750 3195 4129 
Q 3622 3509 3622 2328 
Q 3622 1225 3098 567 
Q 2575 -91 1691 -91 
Q 1453 -91 1209 -44 
Q 966 3 703 97 
z
M 1959 2075 
Q 2384 2075 2632 2365 
Q 2881 2656 2881 3163 
Q 2881 3666 2632 3958 
Q 2384 4250 1959 4250 
Q 1534 4250 1286 3958 
Q 1038 3666 1038 3163 
Q 1038 2656 1286 2365 
Q 1534 2075 1959 2075 
z
" transform="scale(0.015625)"/>
       </defs>
       <use xlink:href="#DejaVuSans-32"/>
       <use xlink:href="#DejaVuSans-30" transform="translate(63.623047 0)"/>
       <use xlink:href="#DejaVuSans-32" transform="translate(127.246094 0)"/>
       <use xlink:href="#DejaVuSans-39" transform="translate(190.869141 0)"/>
      </g>
     </g>
    </g>
    <g id="xtick_8">
     <g id="line2d_8">
      <path d="M 1106.70044 573.44025 
L 1106.70044 31.43625 
" clip-path="url(#paaca67cfd1)" style="fill: none; stroke: #ffffff; stroke-width: 0.8; stroke-linecap: round"/>
     </g>
     <g id="text_8">
      <!-- 2030 -->
      <g style="fill: #262626" transform="translate(1076.16044 599.9765) scale(0.24 -0.24)">
       <use xlink:href="#DejaVuSans-32"/>
       <use xlink:href="#DejaVuSans-30" transform="translate(63.623047 0)"/>
       <use xlink:href="#DejaVuSans-33" transform="translate(127.246094 0)"/>
       <use xlink:href="#DejaVuSans-30" transform="translate(190.869141 0)"/>
      </g>
     </g>
    </g>
    <g id="text_9">
     <!-- Date -->
     <g style="fill: #262626" transform="translate(581.460199 628.723687) scale(0.26 -0.26)">
      <defs>
       <path id="DejaVuSans-Bold-44" d="M 1791 3756 
L 1791 909 
L 2222 909 
Q 2959 909 3348 1275 
Q 3738 1641 3738 2338 
Q 3738 3031 3350 3393 
Q 2963 3756 2222 3756 
L 1791 3756 
z
M 588 4666 
L 1856 4666 
Q 2919 4666 3439 4514 
Q 3959 4363 4331 4000 
Q 4659 3684 4818 3271 
Q 4978 2859 4978 2338 
Q 4978 1809 4818 1395 
Q 4659 981 4331 666 
Q 3956 303 3431 151 
Q 2906 0 1856 0 
L 588 0 
L 588 4666 
z
" transform="scale(0.015625)"/>
       <path id="DejaVuSans-Bold-61" d="M 2106 1575 
Q 1756 1575 1579 1456 
Q 1403 1338 1403 1106 
Q 1403 894 1545 773 
Q 1688 653 1941 653 
Q 2256 653 2472 879 
Q 2688 1106 2688 1447 
L 2688 1575 
L 2106 1575 
z
M 3816 1997 
L 3816 0 
L 2688 0 
L 2688 519 
Q 2463 200 2181 54 
Q 1900 -91 1497 -91 
Q 953 -91 614 226 
Q 275 544 275 1050 
Q 275 1666 698 1953 
Q 1122 2241 2028 2241 
L 2688 2241 
L 2688 2328 
Q 2688 2594 2478 2717 
Q 2269 2841 1825 2841 
Q 1466 2841 1156 2769 
Q 847 2697 581 2553 
L 581 3406 
Q 941 3494 1303 3539 
Q 1666 3584 2028 3584 
Q 2975 3584 3395 3211 
Q 3816 2838 3816 1997 
z
" transform="scale(0.015625)"/>
       <path id="DejaVuSans-Bold-74" d="M 1759 4494 
L 1759 3500 
L 2913 3500 
L 2913 2700 
L 1759 2700 
L 1759 1216 
Q 1759 972 1856 886 
Q 1953 800 2241 800 
L 2816 800 
L 2816 0 
L 1856 0 
Q 1194 0 917 276 
Q 641 553 641 1216 
L 641 2700 
L 84 2700 
L 84 3500 
L 641 3500 
L 641 4494 
L 1759 4494 
z
" transform="scale(0.015625)"/>
       <path id="DejaVuSans-Bold-65" d="M 4031 1759 
L 4031 1441 
L 1416 1441 
Q 1456 1047 1700 850 
Q 1944 653 2381 653 
Q 2734 653 3104 758 
Q 3475 863 3866 1075 
L 3866 213 
Q 3469 63 3072 -14 
Q 2675 -91 2278 -91 
Q 1328 -91 801 392 
Q 275 875 275 1747 
Q 275 2603 792 3093 
Q 1309 3584 2216 3584 
Q 3041 3584 3536 3087 
Q 4031 2591 4031 1759 
z
M 2881 2131 
Q 2881 2450 2695 2645 
Q 2509 2841 2209 2841 
Q 1884 2841 1681 2658 
Q 1478 2475 1428 2131 
L 2881 2131 
z
" transform="scale(0.015625)"/>
      </defs>
      <use xlink:href="#DejaVuSans-Bold-44"/>
      <use xlink:href="#DejaVuSans-Bold-61" transform="translate(83.007812 0)"/>
      <use xlink:href="#DejaVuSans-Bold-74" transform="translate(150.488281 0)"/>
      <use xlink:href="#DejaVuSans-Bold-65" transform="translate(198.291016 0)"/>
     </g>
    </g>
   </g>
   <g id="matplotlib.axis_2">
    <g id="ytick_1">
     <g id="line2d_9">
      <path d="M 119.265 548.803705 
L 1112.847898 548.803705 
" clip-path="url(#paaca67cfd1)" style="fill: none; stroke: #ffffff; stroke-width: 0.8; stroke-linecap: round"/>
     </g>
     <g id="text_10">
      <!-- 0 -->
      <g style="fill: #262626" transform="translate(95.695 557.92183) scale(0.24 -0.24)">
       <use xlink:href="#DejaVuSans-30"/>
      </g>
     </g>
    </g>
    <g id="ytick_2">
     <g id="line2d_10">
      <path d="M 119.265 454.783625 
L 1112.847898 454.783625 
" clip-path="url(#paaca67cfd1)" style="fill: none; stroke: #ffffff; stroke-width: 0.8; stroke-linecap: round"/>
     </g>
     <g id="text_11">
      <!-- 2000 -->
      <g style="fill: #262626" transform="translate(49.885 463.90175) scale(0.24 -0.24)">
       <use xlink:href="#DejaVuSans-32"/>
       <use xlink:href="#DejaVuSans-30" transform="translate(63.623047 0)"/>
       <use xlink:href="#DejaVuSans-30" transform="translate(127.246094 0)"/>
       <use xlink:href="#DejaVuSans-30" transform="translate(190.869141 0)"/>
      </g>
     </g>
    </g>
    <g id="ytick_3">
     <g id="line2d_11">
      <path d="M 119.265 360.763546 
L 1112.847898 360.763546 
" clip-path="url(#paaca67cfd1)" style="fill: none; stroke: #ffffff; stroke-width: 0.8; stroke-linecap: round"/>
     </g>
     <g id="text_12">
      <!-- 4000 -->
      <g style="fill: #262626" transform="translate(49.885 369.881671) scale(0.24 -0.24)">
       <use xlink:href="#DejaVuSans-34"/>
       <use xlink:href="#DejaVuSans-30" transform="translate(63.623047 0)"/>
       <use xlink:href="#DejaVuSans-30" transform="translate(127.246094 0)"/>
       <use xlink:href="#DejaVuSans-30" transform="translate(190.869141 0)"/>
      </g>
     </g>
    </g>
    <g id="ytick_4">
     <g id="line2d_12">
      <path d="M 119.265 266.743467 
L 1112.847898 266.743467 
" clip-path="url(#paaca67cfd1)" style="fill: none; stroke: #ffffff; stroke-width: 0.8; stroke-linecap: round"/>
     </g>
     <g id="text_13">
      <!-- 6000 -->
      <g style="fill: #262626" transform="translate(49.885 275.861592) scale(0.24 -0.24)">
       <use xlink:href="#DejaVuSans-36"/>
       <use xlink:href="#DejaVuSans-30" transform="translate(63.623047 0)"/>
       <use xlink:href="#DejaVuSans-30" transform="translate(127.246094 0)"/>
       <use xlink:href="#DejaVuSans-30" transform="translate(190.869141 0)"/>
      </g>
     </g>
    </g>
    <g id="ytick_5">
     <g id="line2d_13">
      <path d="M 119.265 172.723388 
L 1112.847898 172.723388 
" clip-path="url(#paaca67cfd1)" style="fill: none; stroke: #ffffff; stroke-width: 0.8; stroke-linecap: round"/>
     </g>
     <g id="text_14">
      <!-- 8000 -->
      <g style="fill: #262626" transform="translate(49.885 181.841513) scale(0.24 -0.24)">
       <use xlink:href="#DejaVuSans-38"/>
       <use xlink:href="#DejaVuSans-30" transform="translate(63.623047 0)"/>
       <use xlink:href="#DejaVuSans-30" transform="translate(127.246094 0)"/>
       <use xlink:href="#DejaVuSans-30" transform="translate(190.869141 0)"/>
      </g>
     </g>
    </g>
    <g id="ytick_6">
     <g id="line2d_14">
      <path d="M 119.265 78.703309 
L 1112.847898 78.703309 
" clip-path="url(#paaca67cfd1)" style="fill: none; stroke: #ffffff; stroke-width: 0.8; stroke-linecap: round"/>
     </g>
     <g id="text_15">
      <!-- 10000 -->
      <g style="fill: #262626" transform="translate(34.615 87.821434) scale(0.24 -0.24)">
       <defs>
        <path id="DejaVuSans-31" d="M 794 531 
L 1825 531 
L 1825 4091 
L 703 3866 
L 703 4441 
L 1819 4666 
L 2450 4666 
L 2450 531 
L 3481 531 
L 3481 0 
L 794 0 
L 794 531 
z
" transform="scale(0.015625)"/>
       </defs>
       <use xlink:href="#DejaVuSans-31"/>
       <use xlink:href="#DejaVuSans-30" transform="translate(63.623047 0)"/>
       <use xlink:href="#DejaVuSans-30" transform="translate(127.246094 0)"/>
       <use xlink:href="#DejaVuSans-30" transform="translate(190.869141 0)"/>
       <use xlink:href="#DejaVuSans-30" transform="translate(254.492188 0)"/>
      </g>
     </g>
    </g>
    <g id="text_16">
     <!-- FOPR [Sm³/day] -->
     <g style="fill: #262626" transform="translate(25.43625 408.940125) rotate(-90) scale(0.24 -0.24)">
      <defs>
       <path id="DejaVuSans-Bold-46" d="M 588 4666 
L 3834 4666 
L 3834 3756 
L 1791 3756 
L 1791 2888 
L 3713 2888 
L 3713 1978 
L 1791 1978 
L 1791 0 
L 588 0 
L 588 4666 
z
" transform="scale(0.015625)"/>
       <path id="DejaVuSans-Bold-4f" d="M 2719 3878 
Q 2169 3878 1866 3472 
Q 1563 3066 1563 2328 
Q 1563 1594 1866 1187 
Q 2169 781 2719 781 
Q 3272 781 3575 1187 
Q 3878 1594 3878 2328 
Q 3878 3066 3575 3472 
Q 3272 3878 2719 3878 
z
M 2719 4750 
Q 3844 4750 4481 4106 
Q 5119 3463 5119 2328 
Q 5119 1197 4481 553 
Q 3844 -91 2719 -91 
Q 1597 -91 958 553 
Q 319 1197 319 2328 
Q 319 3463 958 4106 
Q 1597 4750 2719 4750 
z
" transform="scale(0.015625)"/>
       <path id="DejaVuSans-Bold-50" d="M 588 4666 
L 2584 4666 
Q 3475 4666 3951 4270 
Q 4428 3875 4428 3144 
Q 4428 2409 3951 2014 
Q 3475 1619 2584 1619 
L 1791 1619 
L 1791 0 
L 588 0 
L 588 4666 
z
M 1791 3794 
L 1791 2491 
L 2456 2491 
Q 2806 2491 2997 2661 
Q 3188 2831 3188 3144 
Q 3188 3456 2997 3625 
Q 2806 3794 2456 3794 
L 1791 3794 
z
" transform="scale(0.015625)"/>
       <path id="DejaVuSans-Bold-52" d="M 2297 2597 
Q 2675 2597 2839 2737 
Q 3003 2878 3003 3200 
Q 3003 3519 2839 3656 
Q 2675 3794 2297 3794 
L 1791 3794 
L 1791 2597 
L 2297 2597 
z
M 1791 1766 
L 1791 0 
L 588 0 
L 588 4666 
L 2425 4666 
Q 3347 4666 3776 4356 
Q 4206 4047 4206 3378 
Q 4206 2916 3982 2619 
Q 3759 2322 3309 2181 
Q 3556 2125 3751 1926 
Q 3947 1728 4147 1325 
L 4800 0 
L 3519 0 
L 2950 1159 
Q 2778 1509 2601 1637 
Q 2425 1766 2131 1766 
L 1791 1766 
z
" transform="scale(0.015625)"/>
       <path id="DejaVuSans-Bold-20" transform="scale(0.015625)"/>
       <path id="DejaVuSans-Bold-5b" d="M 550 4863 
L 2491 4863 
L 2491 4159 
L 1613 4159 
L 1613 -141 
L 2491 -141 
L 2491 -844 
L 550 -844 
L 550 4863 
z
" transform="scale(0.015625)"/>
       <path id="DejaVuSans-Bold-53" d="M 3834 4519 
L 3834 3531 
Q 3450 3703 3084 3790 
Q 2719 3878 2394 3878 
Q 1963 3878 1756 3759 
Q 1550 3641 1550 3391 
Q 1550 3203 1689 3098 
Q 1828 2994 2194 2919 
L 2706 2816 
Q 3484 2659 3812 2340 
Q 4141 2022 4141 1434 
Q 4141 663 3683 286 
Q 3225 -91 2284 -91 
Q 1841 -91 1394 -6 
Q 947 78 500 244 
L 500 1259 
Q 947 1022 1364 901 
Q 1781 781 2169 781 
Q 2563 781 2772 912 
Q 2981 1044 2981 1288 
Q 2981 1506 2839 1625 
Q 2697 1744 2272 1838 
L 1806 1941 
Q 1106 2091 782 2419 
Q 459 2747 459 3303 
Q 459 4000 909 4375 
Q 1359 4750 2203 4750 
Q 2588 4750 2994 4692 
Q 3400 4634 3834 4519 
z
" transform="scale(0.015625)"/>
       <path id="DejaVuSans-Bold-6d" d="M 3781 2919 
Q 3994 3244 4286 3414 
Q 4578 3584 4928 3584 
Q 5531 3584 5847 3212 
Q 6163 2841 6163 2131 
L 6163 0 
L 5038 0 
L 5038 1825 
Q 5041 1866 5042 1909 
Q 5044 1953 5044 2034 
Q 5044 2406 4934 2573 
Q 4825 2741 4581 2741 
Q 4263 2741 4089 2478 
Q 3916 2216 3909 1719 
L 3909 0 
L 2784 0 
L 2784 1825 
Q 2784 2406 2684 2573 
Q 2584 2741 2328 2741 
Q 2006 2741 1831 2477 
Q 1656 2213 1656 1722 
L 1656 0 
L 531 0 
L 531 3500 
L 1656 3500 
L 1656 2988 
Q 1863 3284 2130 3434 
Q 2397 3584 2719 3584 
Q 3081 3584 3359 3409 
Q 3638 3234 3781 2919 
z
" transform="scale(0.015625)"/>
       <path id="DejaVuSans-Bold-b3" d="M 1850 3500 
Q 2138 3444 2297 3272 
Q 2456 3100 2456 2847 
Q 2456 2444 2147 2242 
Q 1838 2041 1209 2041 
Q 956 2041 725 2077 
Q 494 2113 281 2181 
L 281 2725 
Q 488 2613 688 2555 
Q 888 2497 1075 2497 
Q 1372 2497 1534 2597 
Q 1697 2697 1697 2881 
Q 1697 3081 1530 3176 
Q 1363 3272 1006 3272 
L 775 3272 
L 775 3700 
L 1038 3700 
Q 1344 3700 1484 3773 
Q 1625 3847 1625 4006 
Q 1625 4147 1503 4217 
Q 1381 4288 1131 4288 
Q 969 4288 776 4247 
Q 584 4206 366 4122 
L 366 4641 
Q 569 4694 805 4722 
Q 1041 4750 1313 4750 
Q 1834 4750 2111 4575 
Q 2388 4400 2388 4072 
Q 2388 3856 2247 3706 
Q 2106 3556 1850 3500 
z
" transform="scale(0.015625)"/>
       <path id="DejaVuSans-Bold-2f" d="M 1644 4666 
L 2338 4666 
L 691 -594 
L 0 -594 
L 1644 4666 
z
" transform="scale(0.015625)"/>
       <path id="DejaVuSans-Bold-64" d="M 2919 2988 
L 2919 4863 
L 4044 4863 
L 4044 0 
L 2919 0 
L 2919 506 
Q 2688 197 2409 53 
Q 2131 -91 1766 -91 
Q 1119 -91 703 423 
Q 288 938 288 1747 
Q 288 2556 703 3070 
Q 1119 3584 1766 3584 
Q 2128 3584 2408 3439 
Q 2688 3294 2919 2988 
z
M 2181 722 
Q 2541 722 2730 984 
Q 2919 1247 2919 1747 
Q 2919 2247 2730 2509 
Q 2541 2772 2181 2772 
Q 1825 2772 1636 2509 
Q 1447 2247 1447 1747 
Q 1447 1247 1636 984 
Q 1825 722 2181 722 
z
" transform="scale(0.015625)"/>
       <path id="DejaVuSans-Bold-79" d="M 78 3500 
L 1197 3500 
L 2138 1125 
L 2938 3500 
L 4056 3500 
L 2584 -331 
Q 2363 -916 2067 -1148 
Q 1772 -1381 1288 -1381 
L 641 -1381 
L 641 -647 
L 991 -647 
Q 1275 -647 1404 -556 
Q 1534 -466 1606 -231 
L 1638 -134 
L 78 3500 
z
" transform="scale(0.015625)"/>
       <path id="DejaVuSans-Bold-5d" d="M 2375 -844 
L 434 -844 
L 434 -141 
L 1313 -141 
L 1313 4159 
L 434 4159 
L 434 4863 
L 2375 4863 
L 2375 -844 
z
" transform="scale(0.015625)"/>
      </defs>
      <use xlink:href="#DejaVuSans-Bold-46"/>
      <use xlink:href="#DejaVuSans-Bold-4f" transform="translate(68.310547 0)"/>
      <use xlink:href="#DejaVuSans-Bold-50" transform="translate(153.320312 0)"/>
      <use xlink:href="#DejaVuSans-Bold-52" transform="translate(226.611328 0)"/>
      <use xlink:href="#DejaVuSans-Bold-20" transform="translate(303.613281 0)"/>
      <use xlink:href="#DejaVuSans-Bold-5b" transform="translate(338.427734 0)"/>
      <use xlink:href="#DejaVuSans-Bold-53" transform="translate(384.130859 0)"/>
      <use xlink:href="#DejaVuSans-Bold-6d" transform="translate(456.152344 0)"/>
      <use xlink:href="#DejaVuSans-Bold-b3" transform="translate(560.351562 0)"/>
      <use xlink:href="#DejaVuSans-Bold-2f" transform="translate(604.150391 0)"/>
      <use xlink:href="#DejaVuSans-Bold-64" transform="translate(640.673828 0)"/>
      <use xlink:href="#DejaVuSans-Bold-61" transform="translate(712.255859 0)"/>
      <use xlink:href="#DejaVuSans-Bold-79" transform="translate(776.611328 0)"/>
      <use xlink:href="#DejaVuSans-Bold-5d" transform="translate(841.796875 0)"/>
     </g>
    </g>
   </g>
   <g id="FillBetweenPolyCollection_1">
    <defs>
     <path id="m80bacb844f" d="M 78.538091 -92.52717 
L 78.538091 -92.52717 
L 79.690739 -92.52717 
L 124.25981 -92.52717 
L 158.839261 -455.346891 
L 193.802928 -382.817745 
L 229.150812 -330.228431 
L 264.498695 -283.827755 
L 276.025179 -270.334209 
L 299.462362 -248.399022 
L 334.42603 -225.013214 
L 345.952513 -217.299184 
L 369.773913 -208.041075 
L 381.300397 -204.419787 
L 392.826881 -200.981983 
L 398.974339 -199.17492 
L 405.121797 -196.78955 
L 439.701248 -184.198968 
L 474.664915 -173.646448 
L 510.012799 -167.024735 
L 545.360682 -161.162546 
L 579.940133 -156.480077 
L 614.903801 -152.726831 
L 650.251684 -151.137287 
L 685.599567 -147.719734 
L 720.179019 -145.064666 
L 731.705502 -144.314232 
L 755.142686 -142.81262 
L 766.66917 -141.798788 
L 778.195653 -140.901924 
L 784.343111 -140.738267 
L 790.490569 -140.476516 
L 802.017053 -139.910504 
L 825.838453 -138.773842 
L 837.364937 -138.056655 
L 848.89142 -137.312895 
L 854.84677 -136.958774 
L 860.80212 -136.639083 
L 895.765788 -135.156384 
L 907.292271 -134.43702 
L 918.818755 -133.741997 
L 924.966213 -133.375756 
L 931.113671 -133.015993 
L 942.640155 -133.068658 
L 966.461554 -132.922791 
L 977.988038 -132.585147 
L 989.514522 -132.312073 
L 1001.041006 -132.103776 
L 1036.004673 -131.253679 
L 1071.352556 -130.245904 
L 1106.70044 -129.434195 
L 1106.70044 -154.791727 
L 1106.70044 -154.791727 
L 1071.352556 -156.857087 
L 1036.004673 -159.015142 
L 1001.041006 -161.292196 
L 989.514522 -162.082535 
L 977.988038 -162.773902 
L 966.461554 -163.463036 
L 942.640155 -165.270708 
L 931.113671 -166.422063 
L 924.966213 -166.918136 
L 918.818755 -167.420275 
L 907.292271 -168.38176 
L 895.765788 -169.381125 
L 860.80212 -173.408139 
L 854.84677 -174.592778 
L 848.89142 -175.484878 
L 837.364937 -176.641347 
L 825.838453 -178.241152 
L 802.017053 -181.788051 
L 790.490569 -183.811004 
L 784.343111 -184.912319 
L 778.195653 -186.027534 
L 766.66917 -188.139881 
L 755.142686 -190.540739 
L 731.705502 -197.969461 
L 720.179019 -199.795932 
L 685.599567 -205.85349 
L 650.251684 -216.011744 
L 614.903801 -223.984663 
L 579.940133 -230.701234 
L 545.360682 -241.761792 
L 510.012799 -263.557774 
L 474.664915 -273.528092 
L 439.701248 -295.280599 
L 405.121797 -314.331807 
L 398.974339 -316.69925 
L 392.826881 -319.061917 
L 381.300397 -324.814518 
L 369.773913 -331.19053 
L 345.952513 -347.726128 
L 334.42603 -357.878598 
L 299.462362 -380.455904 
L 276.025179 -396.416662 
L 264.498695 -405.369986 
L 229.150812 -445.578696 
L 193.802928 -486.402164 
L 158.839261 -514.820972 
L 124.25981 -92.52717 
L 79.690739 -92.52717 
L 78.538091 -92.52717 
z
" style="stroke: #58508d; stroke-opacity: 0.7; stroke-width: 0.8"/>
    </defs>
    <g clip-path="url(#paaca67cfd1)">
     <use xlink:href="#m80bacb844f" x="0" y="641.330875" style="fill: #58508d; fill-opacity: 0.7; stroke: #58508d; stroke-opacity: 0.7; stroke-width: 0.8"/>
    </g>
   </g>
   <g id="FillBetweenPolyCollection_2">
    <defs>
     <path id="m905d1bd2eb" d="M 78.538091 -92.52717 
L 78.538091 -92.52717 
L 79.690739 -92.52717 
L 124.25981 -92.52717 
L 158.839261 -550.903795 
L 193.802928 -484.275786 
L 229.150812 -411.838549 
L 264.498695 -348.878563 
L 276.025179 -331.362388 
L 299.462362 -298.470556 
L 334.42603 -265.023831 
L 345.952513 -257.321863 
L 369.773913 -239.723133 
L 381.300397 -232.554802 
L 392.826881 -226.650842 
L 398.974339 -223.622631 
L 405.121797 -221.018922 
L 439.701248 -207.349663 
L 474.664915 -249.558435 
L 510.012799 -229.666807 
L 545.360682 -221.650987 
L 579.940133 -212.122123 
L 614.903801 -201.205843 
L 650.251684 -192.293217 
L 685.599567 -185.561353 
L 720.179019 -179.869402 
L 731.705502 -178.490835 
L 755.142686 -176.26335 
L 766.66917 -174.785432 
L 778.195653 -172.933338 
L 784.343111 -171.793041 
L 790.490569 -170.64716 
L 802.017053 -168.546089 
L 825.838453 -165.586579 
L 837.364937 -164.356984 
L 848.89142 -162.530158 
L 854.84677 -162.045533 
L 860.80212 -161.142839 
L 895.765788 -156.35387 
L 907.292271 -155.780585 
L 918.818755 -154.575832 
L 924.966213 -153.832962 
L 931.113671 -153.112518 
L 942.640155 -151.647546 
L 966.461554 -148.770867 
L 977.988038 -147.829656 
L 989.514522 -147.005207 
L 1001.041006 -145.955613 
L 1036.004673 -141.626546 
L 1071.352556 -139.124271 
L 1106.70044 -136.71587 
L 1106.70044 -174.281285 
L 1106.70044 -174.281285 
L 1071.352556 -181.683512 
L 1036.004673 -185.420765 
L 1001.041006 -192.038862 
L 989.514522 -193.077318 
L 977.988038 -194.149184 
L 966.461554 -195.225365 
L 942.640155 -198.705129 
L 931.113671 -201.534994 
L 924.966213 -204.227328 
L 918.818755 -207.428269 
L 907.292271 -212.502851 
L 895.765788 -214.078009 
L 860.80212 -222.281479 
L 854.84677 -223.266762 
L 848.89142 -224.230387 
L 837.364937 -229.346379 
L 825.838453 -231.929521 
L 802.017053 -237.568705 
L 790.490569 -240.434711 
L 784.343111 -242.008331 
L 778.195653 -243.621845 
L 766.66917 -245.661823 
L 755.142686 -247.982542 
L 731.705502 -253.519145 
L 720.179019 -255.203059 
L 685.599567 -262.772709 
L 650.251684 -272.748466 
L 614.903801 -286.896055 
L 579.940133 -299.468394 
L 545.360682 -310.030113 
L 510.012799 -327.263218 
L 474.664915 -339.795594 
L 439.701248 -322.21781 
L 405.121797 -348.266009 
L 398.974339 -352.537541 
L 392.826881 -356.050463 
L 381.300397 -369.080439 
L 369.773913 -378.986886 
L 345.952513 -394.796813 
L 334.42603 -413.534376 
L 299.462362 -455.418761 
L 276.025179 -482.29861 
L 264.498695 -494.266797 
L 229.150812 -523.887667 
L 193.802928 -569.57307 
L 158.839261 -585.25808 
L 124.25981 -92.52717 
L 79.690739 -92.52717 
L 78.538091 -92.52717 
z
" style="stroke: #ffa600; stroke-opacity: 0.7; stroke-width: 0.8"/>
    </defs>
    <g clip-path="url(#paaca67cfd1)">
     <use xlink:href="#m905d1bd2eb" x="0" y="641.330875" style="fill: #ffa600; fill-opacity: 0.7; stroke: #ffa600; stroke-opacity: 0.7; stroke-width: 0.8"/>
    </g>
   </g>
   <g id="line2d_15">
    <path d="M 78.538091 548.803705 
L 79.690739 548.803705 
L 124.25981 548.803705 
L 158.839261 150.817001 
L 193.802928 209.506449 
L 229.150812 256.310924 
L 264.498695 295.295504 
L 276.025179 306.847998 
L 299.462362 328.438248 
L 334.42603 355.352607 
L 345.952513 363.230439 
L 369.773913 378.11512 
L 381.300397 384.509831 
L 392.826881 390.46426 
L 398.974339 393.536419 
L 405.121797 396.487373 
L 439.701248 410.957993 
L 474.664915 423.571677 
L 510.012799 433.865322 
L 545.360682 442.918571 
L 579.940133 450.479646 
L 614.903801 457.317557 
L 650.251684 463.255355 
L 685.599567 468.590243 
L 720.179019 473.125459 
L 731.705502 474.526082 
L 755.142686 477.224004 
L 766.66917 478.47493 
L 778.195653 479.674099 
L 784.343111 480.298585 
L 790.490569 480.910716 
L 802.017053 482.031952 
L 825.838453 484.258935 
L 837.364937 485.282965 
L 848.89142 486.272311 
L 854.84677 486.770439 
L 860.80212 487.255694 
L 895.765788 489.913185 
L 907.292271 490.72481 
L 918.818755 491.501797 
L 924.966213 491.902198 
L 931.113671 492.297707 
L 942.640155 493.017326 
L 966.461554 494.418318 
L 977.988038 495.048908 
L 989.514522 495.646959 
L 1001.041006 496.212133 
L 1036.004673 497.781341 
L 1071.352556 499.152283 
L 1106.70044 500.352246 
" clip-path="url(#paaca67cfd1)" style="fill: none; stroke: #000000; stroke-width: 4; stroke-linecap: round"/>
   </g>
   <g id="line2d_16">
    <path d="M 78.538091 548.803705 
L 79.690739 548.803705 
L 124.25981 548.803705 
L 158.839261 126.509903 
L 193.802928 154.928711 
L 229.150812 195.752179 
L 264.498695 235.960889 
L 276.025179 244.914213 
L 299.462362 260.874971 
L 334.42603 283.452277 
L 345.952513 293.604747 
L 369.773913 310.140345 
L 381.300397 316.516357 
L 392.826881 322.268958 
L 398.974339 324.631625 
L 405.121797 326.999068 
L 439.701248 346.050276 
L 474.664915 367.802783 
L 510.012799 377.773101 
L 545.360682 399.569083 
L 579.940133 410.629641 
L 614.903801 417.346212 
L 650.251684 425.319131 
L 685.599567 435.477385 
L 720.179019 441.534943 
L 731.705502 443.361414 
L 755.142686 450.790136 
L 766.66917 453.190994 
L 778.195653 455.303341 
L 784.343111 456.418556 
L 790.490569 457.519871 
L 802.017053 459.542824 
L 825.838453 463.089723 
L 837.364937 464.689528 
L 848.89142 465.845997 
L 854.84677 466.738097 
L 860.80212 467.922736 
L 895.765788 471.94975 
L 907.292271 472.949115 
L 918.818755 473.9106 
L 924.966213 474.412739 
L 931.113671 474.908812 
L 942.640155 476.060167 
L 966.461554 477.867839 
L 977.988038 478.556973 
L 989.514522 479.24834 
L 1001.041006 480.038679 
L 1036.004673 482.315733 
L 1071.352556 484.473788 
L 1106.70044 486.539148 
" clip-path="url(#paaca67cfd1)" style="fill: none; stroke-dasharray: 7.4,3.2; stroke-dashoffset: 0; stroke: #000000; stroke-width: 2"/>
   </g>
   <g id="line2d_17">
    <path d="M 78.538091 548.803705 
L 79.690739 548.803705 
L 124.25981 548.803705 
L 158.839261 185.983984 
L 193.802928 258.51313 
L 229.150812 311.102444 
L 264.498695 357.50312 
L 276.025179 370.996666 
L 299.462362 392.931853 
L 334.42603 416.317661 
L 345.952513 424.031691 
L 369.773913 433.2898 
L 381.300397 436.911088 
L 392.826881 440.348892 
L 398.974339 442.155955 
L 405.121797 444.541325 
L 439.701248 457.131907 
L 474.664915 467.684427 
L 510.012799 474.30614 
L 545.360682 480.168329 
L 579.940133 484.850798 
L 614.903801 488.604044 
L 650.251684 490.193588 
L 685.599567 493.611141 
L 720.179019 496.266209 
L 731.705502 497.016643 
L 755.142686 498.518255 
L 766.66917 499.532087 
L 778.195653 500.428951 
L 784.343111 500.592608 
L 790.490569 500.854359 
L 802.017053 501.420371 
L 825.838453 502.557033 
L 837.364937 503.27422 
L 848.89142 504.01798 
L 854.84677 504.372101 
L 860.80212 504.691792 
L 895.765788 506.174491 
L 907.292271 506.893855 
L 918.818755 507.588878 
L 924.966213 507.955119 
L 931.113671 508.314882 
L 942.640155 508.262217 
L 966.461554 508.408084 
L 977.988038 508.745728 
L 989.514522 509.018802 
L 1001.041006 509.227099 
L 1036.004673 510.077196 
L 1071.352556 511.084971 
L 1106.70044 511.89668 
" clip-path="url(#paaca67cfd1)" style="fill: none; stroke-dasharray: 2,3.3; stroke-dashoffset: 0; stroke: #000000; stroke-width: 2"/>
   </g>
   <g id="line2d_18">
    <path d="M 78.538091 548.803705 
L 79.690739 548.803705 
L 124.25981 548.803705 
L 158.839261 68.522506 
L 193.802928 116.617225 
L 229.150812 170.668591 
L 264.498695 223.357262 
L 276.025179 239.028653 
L 299.462362 269.401947 
L 334.42603 306.471519 
L 345.952513 317.252222 
L 369.773913 338.030899 
L 381.300397 346.838517 
L 392.826881 355.071503 
L 398.974339 359.372566 
L 405.121797 363.486226 
L 439.701248 382.827249 
L 474.664915 345.857937 
L 510.012799 364.833053 
L 545.360682 379.07413 
L 579.940133 391.039751 
L 614.903801 401.964511 
L 650.251684 411.307849 
L 685.599567 419.989082 
L 720.179019 427.438262 
L 731.705502 429.779684 
L 755.142686 434.393115 
L 766.66917 436.583593 
L 778.195653 438.716979 
L 784.343111 439.843345 
L 790.490569 440.958115 
L 802.017053 442.981352 
L 825.838453 447.055185 
L 837.364937 448.94403 
L 848.89142 450.769896 
L 854.84677 451.698157 
L 860.80212 452.621364 
L 895.765788 457.976783 
L 907.292271 459.764955 
L 918.818755 461.56477 
L 924.966213 462.525088 
L 931.113671 463.490118 
L 942.640155 465.286527 
L 966.461554 468.84887 
L 977.988038 470.477582 
L 989.514522 472.055297 
L 1001.041006 473.603331 
L 1036.004673 478.111822 
L 1071.352556 482.197385 
L 1106.70044 485.85716 
" clip-path="url(#paaca67cfd1)" style="fill: none; stroke: #808080; stroke-width: 4; stroke-linecap: round"/>
   </g>
   <g id="line2d_19">
    <path d="M 78.538091 548.803705 
L 79.690739 548.803705 
L 124.25981 548.803705 
L 158.839261 56.072795 
L 193.802928 71.757805 
L 229.150812 117.443208 
L 264.498695 147.064078 
L 276.025179 159.032265 
L 299.462362 185.912114 
L 334.42603 227.796499 
L 345.952513 246.534062 
L 369.773913 262.343989 
L 381.300397 272.250436 
L 392.826881 285.280412 
L 398.974339 288.793334 
L 405.121797 293.064866 
L 439.701248 319.113065 
L 474.664915 301.535281 
L 510.012799 314.067657 
L 545.360682 331.300762 
L 579.940133 341.862481 
L 614.903801 354.43482 
L 650.251684 368.582409 
L 685.599567 378.558166 
L 720.179019 386.127816 
L 731.705502 387.81173 
L 755.142686 393.348333 
L 766.66917 395.669052 
L 778.195653 397.70903 
L 784.343111 399.322544 
L 790.490569 400.896164 
L 802.017053 403.76217 
L 825.838453 409.401354 
L 837.364937 411.984496 
L 848.89142 417.100488 
L 854.84677 418.064113 
L 860.80212 419.049396 
L 895.765788 427.252866 
L 907.292271 428.828024 
L 918.818755 433.902606 
L 924.966213 437.103547 
L 931.113671 439.795881 
L 942.640155 442.625746 
L 966.461554 446.10551 
L 977.988038 447.181691 
L 989.514522 448.253557 
L 1001.041006 449.292013 
L 1036.004673 455.91011 
L 1071.352556 459.647363 
L 1106.70044 467.04959 
" clip-path="url(#paaca67cfd1)" style="fill: none; stroke-dasharray: 7.4,3.2; stroke-dashoffset: 0; stroke: #808080; stroke-width: 2"/>
   </g>
   <g id="line2d_20">
    <path d="M 78.538091 548.803705 
L 79.690739 548.803705 
L 124.25981 548.803705 
L 158.839261 90.42708 
L 193.802928 157.055089 
L 229.150812 229.492326 
L 264.498695 292.452312 
L 276.025179 309.968487 
L 299.462362 342.860319 
L 334.42603 376.307044 
L 345.952513 384.009012 
L 369.773913 401.607742 
L 381.300397 408.776073 
L 392.826881 414.680033 
L 398.974339 417.708244 
L 405.121797 420.311953 
L 439.701248 433.981212 
L 474.664915 391.77244 
L 510.012799 411.664068 
L 545.360682 419.679888 
L 579.940133 429.208752 
L 614.903801 440.125032 
L 650.251684 449.037658 
L 685.599567 455.769522 
L 720.179019 461.461473 
L 731.705502 462.84004 
L 755.142686 465.067525 
L 766.66917 466.545443 
L 778.195653 468.397537 
L 784.343111 469.537834 
L 790.490569 470.683715 
L 802.017053 472.784786 
L 825.838453 475.744296 
L 837.364937 476.973891 
L 848.89142 478.800717 
L 854.84677 479.285342 
L 860.80212 480.188036 
L 895.765788 484.977005 
L 907.292271 485.55029 
L 918.818755 486.755043 
L 924.966213 487.497913 
L 931.113671 488.218357 
L 942.640155 489.683329 
L 966.461554 492.560008 
L 977.988038 493.501219 
L 989.514522 494.325668 
L 1001.041006 495.375262 
L 1036.004673 499.704329 
L 1071.352556 502.206604 
L 1106.70044 504.615005 
" clip-path="url(#paaca67cfd1)" style="fill: none; stroke-dasharray: 2,3.3; stroke-dashoffset: 0; stroke: #808080; stroke-width: 2"/>
   </g>
   <g id="patch_3">
    <path d="M 119.265 573.44025 
L 119.265 31.43625 
" style="fill: none; stroke: #ffffff; stroke-linejoin: miter; stroke-linecap: square"/>
   </g>
   <g id="patch_4">
    <path d="M 1112.847898 573.44025 
L 1112.847898 31.43625 
" style="fill: none; stroke: #ffffff; stroke-linejoin: miter; stroke-linecap: square"/>
   </g>
   <g id="patch_5">
    <path d="M 119.265 573.44025 
L 1112.847898 573.44025 
" style="fill: none; stroke: #ffffff; stroke-linejoin: miter; stroke-linecap: square"/>
   </g>
   <g id="patch_6">
    <path d="M 119.265 31.43625 
L 1112.847898 31.43625 
" style="fill: none; stroke: #ffffff; stroke-linejoin: miter; stroke-linecap: square"/>
   </g>
   <g id="text_17">
    <!-- FOPR -->
    <g style="fill: #262626" transform="translate(579.621449 25.43625) scale(0.24 -0.24)">
     <use xlink:href="#DejaVuSans-Bold-46"/>
     <use xlink:href="#DejaVuSans-Bold-4f" transform="translate(68.310547 0)"/>
     <use xlink:href="#DejaVuSans-Bold-50" transform="translate(153.320312 0)"/>
     <use xlink:href="#DejaVuSans-Bold-52" transform="translate(226.611328 0)"/>
    </g>
   </g>
   <g id="legend_1">
    <g id="patch_7">
     <path d="M 870.28071 210.495625 
L 1097.447898 210.495625 
Q 1101.847898 210.495625 1101.847898 206.095625 
L 1101.847898 46.83625 
Q 1101.847898 42.43625 1097.447898 42.43625 
L 870.28071 42.43625 
Q 865.88071 42.43625 865.88071 46.83625 
L 865.88071 206.095625 
Q 865.88071 210.495625 870.28071 210.495625 
z
" style="fill: #eaeaf2; opacity: 0.8; stroke: #cccccc; stroke-width: 0.8; stroke-linejoin: miter"/>
    </g>
    <g id="line2d_21">
     <path d="M 874.68071 60.252813 
L 896.68071 60.252813 
L 918.68071 60.252813 
" style="fill: none; stroke: #000000; stroke-width: 4; stroke-linecap: round"/>
    </g>
    <g id="text_18">
     <!-- Mean -->
     <g style="fill: #262626" transform="translate(936.28071 67.952813) scale(0.22 -0.22)">
      <defs>
       <path id="DejaVuSans-4d" d="M 628 4666 
L 1569 4666 
L 2759 1491 
L 3956 4666 
L 4897 4666 
L 4897 0 
L 4281 0 
L 4281 4097 
L 3078 897 
L 2444 897 
L 1241 4097 
L 1241 0 
L 628 0 
L 628 4666 
z
" transform="scale(0.015625)"/>
       <path id="DejaVuSans-65" d="M 3597 1894 
L 3597 1613 
L 953 1613 
Q 991 1019 1311 708 
Q 1631 397 2203 397 
Q 2534 397 2845 478 
Q 3156 559 3463 722 
L 3463 178 
Q 3153 47 2828 -22 
Q 2503 -91 2169 -91 
Q 1331 -91 842 396 
Q 353 884 353 1716 
Q 353 2575 817 3079 
Q 1281 3584 2069 3584 
Q 2775 3584 3186 3129 
Q 3597 2675 3597 1894 
z
M 3022 2063 
Q 3016 2534 2758 2815 
Q 2500 3097 2075 3097 
Q 1594 3097 1305 2825 
Q 1016 2553 972 2059 
L 3022 2063 
z
" transform="scale(0.015625)"/>
       <path id="DejaVuSans-61" d="M 2194 1759 
Q 1497 1759 1228 1600 
Q 959 1441 959 1056 
Q 959 750 1161 570 
Q 1363 391 1709 391 
Q 2188 391 2477 730 
Q 2766 1069 2766 1631 
L 2766 1759 
L 2194 1759 
z
M 3341 1997 
L 3341 0 
L 2766 0 
L 2766 531 
Q 2569 213 2275 61 
Q 1981 -91 1556 -91 
Q 1019 -91 701 211 
Q 384 513 384 1019 
Q 384 1609 779 1909 
Q 1175 2209 1959 2209 
L 2766 2209 
L 2766 2266 
Q 2766 2663 2505 2880 
Q 2244 3097 1772 3097 
Q 1472 3097 1187 3025 
Q 903 2953 641 2809 
L 641 3341 
Q 956 3463 1253 3523 
Q 1550 3584 1831 3584 
Q 2591 3584 2966 3190 
Q 3341 2797 3341 1997 
z
" transform="scale(0.015625)"/>
       <path id="DejaVuSans-6e" d="M 3513 2113 
L 3513 0 
L 2938 0 
L 2938 2094 
Q 2938 2591 2744 2837 
Q 2550 3084 2163 3084 
Q 1697 3084 1428 2787 
Q 1159 2491 1159 1978 
L 1159 0 
L 581 0 
L 581 3500 
L 1159 3500 
L 1159 2956 
Q 1366 3272 1645 3428 
Q 1925 3584 2291 3584 
Q 2894 3584 3203 3211 
Q 3513 2838 3513 2113 
z
" transform="scale(0.015625)"/>
      </defs>
      <use xlink:href="#DejaVuSans-4d"/>
      <use xlink:href="#DejaVuSans-65" transform="translate(86.279297 0)"/>
      <use xlink:href="#DejaVuSans-61" transform="translate(147.802734 0)"/>
      <use xlink:href="#DejaVuSans-6e" transform="translate(209.082031 0)"/>
     </g>
    </g>
    <g id="line2d_22">
     <path d="M 874.68071 92.544688 
L 896.68071 92.544688 
L 918.68071 92.544688 
" style="fill: none; stroke-dasharray: 7.4,3.2; stroke-dashoffset: 0; stroke: #000000; stroke-width: 2"/>
    </g>
    <g id="text_19">
     <!-- P10 Percentile -->
     <g style="fill: #262626" transform="translate(936.28071 100.244688) scale(0.22 -0.22)">
      <defs>
       <path id="DejaVuSans-50" d="M 1259 4147 
L 1259 2394 
L 2053 2394 
Q 2494 2394 2734 2622 
Q 2975 2850 2975 3272 
Q 2975 3691 2734 3919 
Q 2494 4147 2053 4147 
L 1259 4147 
z
M 628 4666 
L 2053 4666 
Q 2838 4666 3239 4311 
Q 3641 3956 3641 3272 
Q 3641 2581 3239 2228 
Q 2838 1875 2053 1875 
L 1259 1875 
L 1259 0 
L 628 0 
L 628 4666 
z
" transform="scale(0.015625)"/>
       <path id="DejaVuSans-20" transform="scale(0.015625)"/>
       <path id="DejaVuSans-72" d="M 2631 2963 
Q 2534 3019 2420 3045 
Q 2306 3072 2169 3072 
Q 1681 3072 1420 2755 
Q 1159 2438 1159 1844 
L 1159 0 
L 581 0 
L 581 3500 
L 1159 3500 
L 1159 2956 
Q 1341 3275 1631 3429 
Q 1922 3584 2338 3584 
Q 2397 3584 2469 3576 
Q 2541 3569 2628 3553 
L 2631 2963 
z
" transform="scale(0.015625)"/>
       <path id="DejaVuSans-63" d="M 3122 3366 
L 3122 2828 
Q 2878 2963 2633 3030 
Q 2388 3097 2138 3097 
Q 1578 3097 1268 2742 
Q 959 2388 959 1747 
Q 959 1106 1268 751 
Q 1578 397 2138 397 
Q 2388 397 2633 464 
Q 2878 531 3122 666 
L 3122 134 
Q 2881 22 2623 -34 
Q 2366 -91 2075 -91 
Q 1284 -91 818 406 
Q 353 903 353 1747 
Q 353 2603 823 3093 
Q 1294 3584 2113 3584 
Q 2378 3584 2631 3529 
Q 2884 3475 3122 3366 
z
" transform="scale(0.015625)"/>
       <path id="DejaVuSans-74" d="M 1172 4494 
L 1172 3500 
L 2356 3500 
L 2356 3053 
L 1172 3053 
L 1172 1153 
Q 1172 725 1289 603 
Q 1406 481 1766 481 
L 2356 481 
L 2356 0 
L 1766 0 
Q 1100 0 847 248 
Q 594 497 594 1153 
L 594 3053 
L 172 3053 
L 172 3500 
L 594 3500 
L 594 4494 
L 1172 4494 
z
" transform="scale(0.015625)"/>
       <path id="DejaVuSans-69" d="M 603 3500 
L 1178 3500 
L 1178 0 
L 603 0 
L 603 3500 
z
M 603 4863 
L 1178 4863 
L 1178 4134 
L 603 4134 
L 603 4863 
z
" transform="scale(0.015625)"/>
       <path id="DejaVuSans-6c" d="M 603 4863 
L 1178 4863 
L 1178 0 
L 603 0 
L 603 4863 
z
" transform="scale(0.015625)"/>
      </defs>
      <use xlink:href="#DejaVuSans-50"/>
      <use xlink:href="#DejaVuSans-31" transform="translate(60.302734 0)"/>
      <use xlink:href="#DejaVuSans-30" transform="translate(123.925781 0)"/>
      <use xlink:href="#DejaVuSans-20" transform="translate(187.548828 0)"/>
      <use xlink:href="#DejaVuSans-50" transform="translate(219.335938 0)"/>
      <use xlink:href="#DejaVuSans-65" transform="translate(276.013672 0)"/>
      <use xlink:href="#DejaVuSans-72" transform="translate(337.537109 0)"/>
      <use xlink:href="#DejaVuSans-63" transform="translate(376.400391 0)"/>
      <use xlink:href="#DejaVuSans-65" transform="translate(431.380859 0)"/>
      <use xlink:href="#DejaVuSans-6e" transform="translate(492.904297 0)"/>
      <use xlink:href="#DejaVuSans-74" transform="translate(556.283203 0)"/>
      <use xlink:href="#DejaVuSans-69" transform="translate(595.492188 0)"/>
      <use xlink:href="#DejaVuSans-6c" transform="translate(623.275391 0)"/>
      <use xlink:href="#DejaVuSans-65" transform="translate(651.058594 0)"/>
     </g>
    </g>
    <g id="line2d_23">
     <path d="M 874.68071 124.836563 
L 896.68071 124.836563 
L 918.68071 124.836563 
" style="fill: none; stroke-dasharray: 2,3.3; stroke-dashoffset: 0; stroke: #000000; stroke-width: 2"/>
    </g>
    <g id="text_20">
     <!-- P90 Percentile -->
     <g style="fill: #262626" transform="translate(936.28071 132.536563) scale(0.22 -0.22)">
      <use xlink:href="#DejaVuSans-50"/>
      <use xlink:href="#DejaVuSans-39" transform="translate(60.302734 0)"/>
      <use xlink:href="#DejaVuSans-30" transform="translate(123.925781 0)"/>
      <use xlink:href="#DejaVuSans-20" transform="translate(187.548828 0)"/>
      <use xlink:href="#DejaVuSans-50" transform="translate(219.335938 0)"/>
      <use xlink:href="#DejaVuSans-65" transform="translate(276.013672 0)"/>
      <use xlink:href="#DejaVuSans-72" transform="translate(337.537109 0)"/>
      <use xlink:href="#DejaVuSans-63" transform="translate(376.400391 0)"/>
      <use xlink:href="#DejaVuSans-65" transform="translate(431.380859 0)"/>
      <use xlink:href="#DejaVuSans-6e" transform="translate(492.904297 0)"/>
      <use xlink:href="#DejaVuSans-74" transform="translate(556.283203 0)"/>
      <use xlink:href="#DejaVuSans-69" transform="translate(595.492188 0)"/>
      <use xlink:href="#DejaVuSans-6c" transform="translate(623.275391 0)"/>
      <use xlink:href="#DejaVuSans-65" transform="translate(651.058594 0)"/>
     </g>
    </g>
    <g id="patch_8">
     <path d="M 874.68071 164.828438 
L 918.68071 164.828438 
L 918.68071 149.428438 
L 874.68071 149.428438 
z
" style="fill: #58508d; fill-opacity: 0.7; stroke: #58508d; stroke-opacity: 0.7; stroke-width: 0.8; stroke-linejoin: miter"/>
    </g>
    <g id="text_21">
     <!-- Batch 0 -->
     <g style="fill: #262626" transform="translate(936.28071 164.828438) scale(0.22 -0.22)">
      <defs>
       <path id="DejaVuSans-42" d="M 1259 2228 
L 1259 519 
L 2272 519 
Q 2781 519 3026 730 
Q 3272 941 3272 1375 
Q 3272 1813 3026 2020 
Q 2781 2228 2272 2228 
L 1259 2228 
z
M 1259 4147 
L 1259 2741 
L 2194 2741 
Q 2656 2741 2882 2914 
Q 3109 3088 3109 3444 
Q 3109 3797 2882 3972 
Q 2656 4147 2194 4147 
L 1259 4147 
z
M 628 4666 
L 2241 4666 
Q 2963 4666 3353 4366 
Q 3744 4066 3744 3513 
Q 3744 3084 3544 2831 
Q 3344 2578 2956 2516 
Q 3422 2416 3680 2098 
Q 3938 1781 3938 1306 
Q 3938 681 3513 340 
Q 3088 0 2303 0 
L 628 0 
L 628 4666 
z
" transform="scale(0.015625)"/>
       <path id="DejaVuSans-68" d="M 3513 2113 
L 3513 0 
L 2938 0 
L 2938 2094 
Q 2938 2591 2744 2837 
Q 2550 3084 2163 3084 
Q 1697 3084 1428 2787 
Q 1159 2491 1159 1978 
L 1159 0 
L 581 0 
L 581 4863 
L 1159 4863 
L 1159 2956 
Q 1366 3272 1645 3428 
Q 1925 3584 2291 3584 
Q 2894 3584 3203 3211 
Q 3513 2838 3513 2113 
z
" transform="scale(0.015625)"/>
      </defs>
      <use xlink:href="#DejaVuSans-42"/>
      <use xlink:href="#DejaVuSans-61" transform="translate(68.603516 0)"/>
      <use xlink:href="#DejaVuSans-74" transform="translate(129.882812 0)"/>
      <use xlink:href="#DejaVuSans-63" transform="translate(169.091797 0)"/>
      <use xlink:href="#DejaVuSans-68" transform="translate(224.072266 0)"/>
      <use xlink:href="#DejaVuSans-20" transform="translate(287.451172 0)"/>
      <use xlink:href="#DejaVuSans-30" transform="translate(319.238281 0)"/>
     </g>
    </g>
    <g id="patch_9">
     <path d="M 874.68071 197.120313 
L 918.68071 197.120313 
L 918.68071 181.720313 
L 874.68071 181.720313 
z
" style="fill: #ffa600; fill-opacity: 0.7; stroke: #ffa600; stroke-opacity: 0.7; stroke-width: 0.8; stroke-linejoin: miter"/>
    </g>
    <g id="text_22">
     <!-- Batch 9 -->
     <g style="fill: #262626" transform="translate(936.28071 197.120313) scale(0.22 -0.22)">
      <use xlink:href="#DejaVuSans-42"/>
      <use xlink:href="#DejaVuSans-61" transform="translate(68.603516 0)"/>
      <use xlink:href="#DejaVuSans-74" transform="translate(129.882812 0)"/>
      <use xlink:href="#DejaVuSans-63" transform="translate(169.091797 0)"/>
      <use xlink:href="#DejaVuSans-68" transform="translate(224.072266 0)"/>
      <use xlink:href="#DejaVuSans-20" transform="translate(287.451172 0)"/>
      <use xlink:href="#DejaVuSans-39" transform="translate(319.238281 0)"/>
     </g>
    </g>
   </g>
  </g>
 </g>
 <defs>
  <clipPath id="paaca67cfd1">
   <rect x="119.265" y="31.43625" width="993.582898" height="542.004"/>
  </clipPath>
 </defs>
</svg>
