<?xml version="1.0" encoding="utf-8" standalone="no"?>
<!DOCTYPE svg PUBLIC "-//W3C//DTD SVG 1.1//EN"
  "http://www.w3.org/Graphics/SVG/1.1/DTD/svg11.dtd">
<svg xmlns:xlink="http://www.w3.org/1999/xlink" width="1144.03417pt" height="641.330875pt" viewBox="0 0 1144.03417 641.330875" xmlns="http://www.w3.org/2000/svg" version="1.1">
 <metadata>
  <rdf:RDF xmlns:dc="http://purl.org/dc/elements/1.1/" xmlns:cc="http://creativecommons.org/ns#" xmlns:rdf="http://www.w3.org/1999/02/22-rdf-syntax-ns#">
   <cc:Work>
    <dc:type rdf:resource="http://purl.org/dc/dcmitype/StillImage"/>
    <dc:date>2025-07-10T16:45:15.194176</dc:date>
    <dc:format>image/svg+xml</dc:format>
    <dc:creator>
     <cc:Agent>
      <dc:title>Matplotlib v3.10.3, https://matplotlib.org/</dc:title>
     </cc:Agent>
    </dc:creator>
   </cc:Work>
  </rdf:RDF>
 </metadata>
 <defs>
  <style type="text/css">*{stroke-linejoin: round; stroke-linecap: butt}</style>
 </defs>
 <g id="figure_1">
  <g id="patch_1">
   <path d="M 0 641.330875 
L 1144.03417 641.330875 
L 1144.03417 0 
L 0 0 
z
" style="fill: #ffffff"/>
  </g>
  <g id="axes_1">
   <g id="patch_2">
    <path d="M 88.5375 573.44025 
L 1112.630398 573.44025 
L 1112.630398 31.43625 
L 88.5375 31.43625 
z
" style="fill: #eaeaf2"/>
   </g>
   <g id="matplotlib.axis_1">
    <g id="xtick_1">
     <g id="line2d_1">
      <path d="M 93.685685 573.44025 
L 93.685685 31.43625 
" clip-path="url(#p0cca61b5f7)" style="fill: none; stroke: #ffffff; stroke-width: 0.8; stroke-linecap: round"/>
     </g>
     <g id="text_1">
      <!-- 2023 -->
      <g style="fill: #262626" transform="translate(63.145685 599.9765) scale(0.24 -0.24)">
       <defs>
        <path id="DejaVuSans-32" d="M 1228 531 
L 3431 531 
L 3431 0 
L 469 0 
L 469 531 
Q 828 903 1448 1529 
Q 2069 2156 2228 2338 
Q 2531 2678 2651 2914 
Q 2772 3150 2772 3378 
Q 2772 3750 2511 3984 
Q 2250 4219 1831 4219 
Q 1534 4219 1204 4116 
Q 875 4013 500 3803 
L 500 4441 
Q 881 4594 1212 4672 
Q 1544 4750 1819 4750 
Q 2544 4750 2975 4387 
Q 3406 4025 3406 3419 
Q 3406 3131 3298 2873 
Q 3191 2616 2906 2266 
Q 2828 2175 2409 1742 
Q 1991 1309 1228 531 
z
" transform="scale(0.015625)"/>
        <path id="DejaVuSans-30" d="M 2034 4250 
Q 1547 4250 1301 3770 
Q 1056 3291 1056 2328 
Q 1056 1369 1301 889 
Q 1547 409 2034 409 
Q 2525 409 2770 889 
Q 3016 1369 3016 2328 
Q 3016 3291 2770 3770 
Q 2525 4250 2034 4250 
z
M 2034 4750 
Q 2819 4750 3233 4129 
Q 3647 3509 3647 2328 
Q 3647 1150 3233 529 
Q 2819 -91 2034 -91 
Q 1250 -91 836 529 
Q 422 1150 422 2328 
Q 422 3509 836 4129 
Q 1250 4750 2034 4750 
z
" transform="scale(0.015625)"/>
        <path id="DejaVuSans-33" d="M 2597 2516 
Q 3050 2419 3304 2112 
Q 3559 1806 3559 1356 
Q 3559 666 3084 287 
Q 2609 -91 1734 -91 
Q 1441 -91 1130 -33 
Q 819 25 488 141 
L 488 750 
Q 750 597 1062 519 
Q 1375 441 1716 441 
Q 2309 441 2620 675 
Q 2931 909 2931 1356 
Q 2931 1769 2642 2001 
Q 2353 2234 1838 2234 
L 1294 2234 
L 1294 2753 
L 1863 2753 
Q 2328 2753 2575 2939 
Q 2822 3125 2822 3475 
Q 2822 3834 2567 4026 
Q 2313 4219 1838 4219 
Q 1578 4219 1281 4162 
Q 984 4106 628 3988 
L 628 4550 
Q 988 4650 1302 4700 
Q 1616 4750 1894 4750 
Q 2613 4750 3031 4423 
Q 3450 4097 3450 3541 
Q 3450 3153 3228 2886 
Q 3006 2619 2597 2516 
z
" transform="scale(0.015625)"/>
       </defs>
       <use xlink:href="#DejaVuSans-32"/>
       <use xlink:href="#DejaVuSans-30" transform="translate(63.623047 0)"/>
       <use xlink:href="#DejaVuSans-32" transform="translate(127.246094 0)"/>
       <use xlink:href="#DejaVuSans-33" transform="translate(190.869141 0)"/>
      </g>
     </g>
    </g>
    <g id="xtick_2">
     <g id="line2d_2">
      <path d="M 238.230893 573.44025 
L 238.230893 31.43625 
" clip-path="url(#p0cca61b5f7)" style="fill: none; stroke: #ffffff; stroke-width: 0.8; stroke-linecap: round"/>
     </g>
     <g id="text_2">
      <!-- 2024 -->
      <g style="fill: #262626" transform="translate(207.690893 599.9765) scale(0.24 -0.24)">
       <defs>
        <path id="DejaVuSans-34" d="M 2419 4116 
L 825 1625 
L 2419 1625 
L 2419 4116 
z
M 2253 4666 
L 3047 4666 
L 3047 1625 
L 3713 1625 
L 3713 1100 
L 3047 1100 
L 3047 0 
L 2419 0 
L 2419 1100 
L 313 1100 
L 313 1709 
L 2253 4666 
z
" transform="scale(0.015625)"/>
       </defs>
       <use xlink:href="#DejaVuSans-32"/>
       <use xlink:href="#DejaVuSans-30" transform="translate(63.623047 0)"/>
       <use xlink:href="#DejaVuSans-32" transform="translate(127.246094 0)"/>
       <use xlink:href="#DejaVuSans-34" transform="translate(190.869141 0)"/>
      </g>
     </g>
    </g>
    <g id="xtick_3">
     <g id="line2d_3">
      <path d="M 383.172116 573.44025 
L 383.172116 31.43625 
" clip-path="url(#p0cca61b5f7)" style="fill: none; stroke: #ffffff; stroke-width: 0.8; stroke-linecap: round"/>
     </g>
     <g id="text_3">
      <!-- 2025 -->
      <g style="fill: #262626" transform="translate(352.632116 599.9765) scale(0.24 -0.24)">
       <defs>
        <path id="DejaVuSans-35" d="M 691 4666 
L 3169 4666 
L 3169 4134 
L 1269 4134 
L 1269 2991 
Q 1406 3038 1543 3061 
Q 1681 3084 1819 3084 
Q 2600 3084 3056 2656 
Q 3513 2228 3513 1497 
Q 3513 744 3044 326 
Q 2575 -91 1722 -91 
Q 1428 -91 1123 -41 
Q 819 9 494 109 
L 494 744 
Q 775 591 1075 516 
Q 1375 441 1709 441 
Q 2250 441 2565 725 
Q 2881 1009 2881 1497 
Q 2881 1984 2565 2268 
Q 2250 2553 1709 2553 
Q 1456 2553 1204 2497 
Q 953 2441 691 2322 
L 691 4666 
z
" transform="scale(0.015625)"/>
       </defs>
       <use xlink:href="#DejaVuSans-32"/>
       <use xlink:href="#DejaVuSans-30" transform="translate(63.623047 0)"/>
       <use xlink:href="#DejaVuSans-32" transform="translate(127.246094 0)"/>
       <use xlink:href="#DejaVuSans-35" transform="translate(190.869141 0)"/>
      </g>
     </g>
    </g>
    <g id="xtick_4">
     <g id="line2d_4">
      <path d="M 527.717324 573.44025 
L 527.717324 31.43625 
" clip-path="url(#p0cca61b5f7)" style="fill: none; stroke: #ffffff; stroke-width: 0.8; stroke-linecap: round"/>
     </g>
     <g id="text_4">
      <!-- 2026 -->
      <g style="fill: #262626" transform="translate(497.177324 599.9765) scale(0.24 -0.24)">
       <defs>
        <path id="DejaVuSans-36" d="M 2113 2584 
Q 1688 2584 1439 2293 
Q 1191 2003 1191 1497 
Q 1191 994 1439 701 
Q 1688 409 2113 409 
Q 2538 409 2786 701 
Q 3034 994 3034 1497 
Q 3034 2003 2786 2293 
Q 2538 2584 2113 2584 
z
M 3366 4563 
L 3366 3988 
Q 3128 4100 2886 4159 
Q 2644 4219 2406 4219 
Q 1781 4219 1451 3797 
Q 1122 3375 1075 2522 
Q 1259 2794 1537 2939 
Q 1816 3084 2150 3084 
Q 2853 3084 3261 2657 
Q 3669 2231 3669 1497 
Q 3669 778 3244 343 
Q 2819 -91 2113 -91 
Q 1303 -91 875 529 
Q 447 1150 447 2328 
Q 447 3434 972 4092 
Q 1497 4750 2381 4750 
Q 2619 4750 2861 4703 
Q 3103 4656 3366 4563 
z
" transform="scale(0.015625)"/>
       </defs>
       <use xlink:href="#DejaVuSans-32"/>
       <use xlink:href="#DejaVuSans-30" transform="translate(63.623047 0)"/>
       <use xlink:href="#DejaVuSans-32" transform="translate(127.246094 0)"/>
       <use xlink:href="#DejaVuSans-36" transform="translate(190.869141 0)"/>
      </g>
     </g>
    </g>
    <g id="xtick_5">
     <g id="line2d_5">
      <path d="M 672.262532 573.44025 
L 672.262532 31.43625 
" clip-path="url(#p0cca61b5f7)" style="fill: none; stroke: #ffffff; stroke-width: 0.8; stroke-linecap: round"/>
     </g>
     <g id="text_5">
      <!-- 2027 -->
      <g style="fill: #262626" transform="translate(641.722532 599.9765) scale(0.24 -0.24)">
       <defs>
        <path id="DejaVuSans-37" d="M 525 4666 
L 3525 4666 
L 3525 4397 
L 1831 0 
L 1172 0 
L 2766 4134 
L 525 4134 
L 525 4666 
z
" transform="scale(0.015625)"/>
       </defs>
       <use xlink:href="#DejaVuSans-32"/>
       <use xlink:href="#DejaVuSans-30" transform="translate(63.623047 0)"/>
       <use xlink:href="#DejaVuSans-32" transform="translate(127.246094 0)"/>
       <use xlink:href="#DejaVuSans-37" transform="translate(190.869141 0)"/>
      </g>
     </g>
    </g>
    <g id="xtick_6">
     <g id="line2d_6">
      <path d="M 816.807739 573.44025 
L 816.807739 31.43625 
" clip-path="url(#p0cca61b5f7)" style="fill: none; stroke: #ffffff; stroke-width: 0.8; stroke-linecap: round"/>
     </g>
     <g id="text_6">
      <!-- 2028 -->
      <g style="fill: #262626" transform="translate(786.267739 599.9765) scale(0.24 -0.24)">
       <defs>
        <path id="DejaVuSans-38" d="M 2034 2216 
Q 1584 2216 1326 1975 
Q 1069 1734 1069 1313 
Q 1069 891 1326 650 
Q 1584 409 2034 409 
Q 2484 409 2743 651 
Q 3003 894 3003 1313 
Q 3003 1734 2745 1975 
Q 2488 2216 2034 2216 
z
M 1403 2484 
Q 997 2584 770 2862 
Q 544 3141 544 3541 
Q 544 4100 942 4425 
Q 1341 4750 2034 4750 
Q 2731 4750 3128 4425 
Q 3525 4100 3525 3541 
Q 3525 3141 3298 2862 
Q 3072 2584 2669 2484 
Q 3125 2378 3379 2068 
Q 3634 1759 3634 1313 
Q 3634 634 3220 271 
Q 2806 -91 2034 -91 
Q 1263 -91 848 271 
Q 434 634 434 1313 
Q 434 1759 690 2068 
Q 947 2378 1403 2484 
z
M 1172 3481 
Q 1172 3119 1398 2916 
Q 1625 2713 2034 2713 
Q 2441 2713 2670 2916 
Q 2900 3119 2900 3481 
Q 2900 3844 2670 4047 
Q 2441 4250 2034 4250 
Q 1625 4250 1398 4047 
Q 1172 3844 1172 3481 
z
" transform="scale(0.015625)"/>
       </defs>
       <use xlink:href="#DejaVuSans-32"/>
       <use xlink:href="#DejaVuSans-30" transform="translate(63.623047 0)"/>
       <use xlink:href="#DejaVuSans-32" transform="translate(127.246094 0)"/>
       <use xlink:href="#DejaVuSans-38" transform="translate(190.869141 0)"/>
      </g>
     </g>
    </g>
    <g id="xtick_7">
     <g id="line2d_7">
      <path d="M 961.748962 573.44025 
L 961.748962 31.43625 
" clip-path="url(#p0cca61b5f7)" style="fill: none; stroke: #ffffff; stroke-width: 0.8; stroke-linecap: round"/>
     </g>
     <g id="text_7">
      <!-- 2029 -->
      <g style="fill: #262626" transform="translate(931.208962 599.9765) scale(0.24 -0.24)">
       <defs>
        <path id="DejaVuSans-39" d="M 703 97 
L 703 672 
Q 941 559 1184 500 
Q 1428 441 1663 441 
Q 2288 441 2617 861 
Q 2947 1281 2994 2138 
Q 2813 1869 2534 1725 
Q 2256 1581 1919 1581 
Q 1219 1581 811 2004 
Q 403 2428 403 3163 
Q 403 3881 828 4315 
Q 1253 4750 1959 4750 
Q 2769 4750 3195 4129 
Q 3622 3509 3622 2328 
Q 3622 1225 3098 567 
Q 2575 -91 1691 -91 
Q 1453 -91 1209 -44 
Q 966 3 703 97 
z
M 1959 2075 
Q 2384 2075 2632 2365 
Q 2881 2656 2881 3163 
Q 2881 3666 2632 3958 
Q 2384 4250 1959 4250 
Q 1534 4250 1286 3958 
Q 1038 3666 1038 3163 
Q 1038 2656 1286 2365 
Q 1534 2075 1959 2075 
z
" transform="scale(0.015625)"/>
       </defs>
       <use xlink:href="#DejaVuSans-32"/>
       <use xlink:href="#DejaVuSans-30" transform="translate(63.623047 0)"/>
       <use xlink:href="#DejaVuSans-32" transform="translate(127.246094 0)"/>
       <use xlink:href="#DejaVuSans-39" transform="translate(190.869141 0)"/>
      </g>
     </g>
    </g>
    <g id="xtick_8">
     <g id="line2d_8">
      <path d="M 1106.29417 573.44025 
L 1106.29417 31.43625 
" clip-path="url(#p0cca61b5f7)" style="fill: none; stroke: #ffffff; stroke-width: 0.8; stroke-linecap: round"/>
     </g>
     <g id="text_8">
      <!-- 2030 -->
      <g style="fill: #262626" transform="translate(1075.75417 599.9765) scale(0.24 -0.24)">
       <use xlink:href="#DejaVuSans-32"/>
       <use xlink:href="#DejaVuSans-30" transform="translate(63.623047 0)"/>
       <use xlink:href="#DejaVuSans-33" transform="translate(127.246094 0)"/>
       <use xlink:href="#DejaVuSans-30" transform="translate(190.869141 0)"/>
      </g>
     </g>
    </g>
    <g id="text_9">
     <!-- Date -->
     <g style="fill: #262626" transform="translate(565.987699 628.723687) scale(0.26 -0.26)">
      <defs>
       <path id="DejaVuSans-Bold-44" d="M 1791 3756 
L 1791 909 
L 2222 909 
Q 2959 909 3348 1275 
Q 3738 1641 3738 2338 
Q 3738 3031 3350 3393 
Q 2963 3756 2222 3756 
L 1791 3756 
z
M 588 4666 
L 1856 4666 
Q 2919 4666 3439 4514 
Q 3959 4363 4331 4000 
Q 4659 3684 4818 3271 
Q 4978 2859 4978 2338 
Q 4978 1809 4818 1395 
Q 4659 981 4331 666 
Q 3956 303 3431 151 
Q 2906 0 1856 0 
L 588 0 
L 588 4666 
z
" transform="scale(0.015625)"/>
       <path id="DejaVuSans-Bold-61" d="M 2106 1575 
Q 1756 1575 1579 1456 
Q 1403 1338 1403 1106 
Q 1403 894 1545 773 
Q 1688 653 1941 653 
Q 2256 653 2472 879 
Q 2688 1106 2688 1447 
L 2688 1575 
L 2106 1575 
z
M 3816 1997 
L 3816 0 
L 2688 0 
L 2688 519 
Q 2463 200 2181 54 
Q 1900 -91 1497 -91 
Q 953 -91 614 226 
Q 275 544 275 1050 
Q 275 1666 698 1953 
Q 1122 2241 2028 2241 
L 2688 2241 
L 2688 2328 
Q 2688 2594 2478 2717 
Q 2269 2841 1825 2841 
Q 1466 2841 1156 2769 
Q 847 2697 581 2553 
L 581 3406 
Q 941 3494 1303 3539 
Q 1666 3584 2028 3584 
Q 2975 3584 3395 3211 
Q 3816 2838 3816 1997 
z
" transform="scale(0.015625)"/>
       <path id="DejaVuSans-Bold-74" d="M 1759 4494 
L 1759 3500 
L 2913 3500 
L 2913 2700 
L 1759 2700 
L 1759 1216 
Q 1759 972 1856 886 
Q 1953 800 2241 800 
L 2816 800 
L 2816 0 
L 1856 0 
Q 1194 0 917 276 
Q 641 553 641 1216 
L 641 2700 
L 84 2700 
L 84 3500 
L 641 3500 
L 641 4494 
L 1759 4494 
z
" transform="scale(0.015625)"/>
       <path id="DejaVuSans-Bold-65" d="M 4031 1759 
L 4031 1441 
L 1416 1441 
Q 1456 1047 1700 850 
Q 1944 653 2381 653 
Q 2734 653 3104 758 
Q 3475 863 3866 1075 
L 3866 213 
Q 3469 63 3072 -14 
Q 2675 -91 2278 -91 
Q 1328 -91 801 392 
Q 275 875 275 1747 
Q 275 2603 792 3093 
Q 1309 3584 2216 3584 
Q 3041 3584 3536 3087 
Q 4031 2591 4031 1759 
z
M 2881 2131 
Q 2881 2450 2695 2645 
Q 2509 2841 2209 2841 
Q 1884 2841 1681 2658 
Q 1478 2475 1428 2131 
L 2881 2131 
z
" transform="scale(0.015625)"/>
      </defs>
      <use xlink:href="#DejaVuSans-Bold-44"/>
      <use xlink:href="#DejaVuSans-Bold-61" transform="translate(83.007812 0)"/>
      <use xlink:href="#DejaVuSans-Bold-74" transform="translate(150.488281 0)"/>
      <use xlink:href="#DejaVuSans-Bold-65" transform="translate(198.291016 0)"/>
     </g>
    </g>
   </g>
   <g id="matplotlib.axis_2">
    <g id="ytick_1">
     <g id="line2d_9">
      <path d="M 88.5375 530.015787 
L 1112.630398 530.015787 
" clip-path="url(#p0cca61b5f7)" style="fill: none; stroke: #ffffff; stroke-width: 0.8; stroke-linecap: round"/>
     </g>
     <g id="text_10">
      <!-- 300 -->
      <g style="fill: #262626" transform="translate(34.4275 539.133912) scale(0.24 -0.24)">
       <use xlink:href="#DejaVuSans-33"/>
       <use xlink:href="#DejaVuSans-30" transform="translate(63.623047 0)"/>
       <use xlink:href="#DejaVuSans-30" transform="translate(127.246094 0)"/>
      </g>
     </g>
    </g>
    <g id="ytick_2">
     <g id="line2d_10">
      <path d="M 88.5375 458.326505 
L 1112.630398 458.326505 
" clip-path="url(#p0cca61b5f7)" style="fill: none; stroke: #ffffff; stroke-width: 0.8; stroke-linecap: round"/>
     </g>
     <g id="text_11">
      <!-- 320 -->
      <g style="fill: #262626" transform="translate(34.4275 467.44463) scale(0.24 -0.24)">
       <use xlink:href="#DejaVuSans-33"/>
       <use xlink:href="#DejaVuSans-32" transform="translate(63.623047 0)"/>
       <use xlink:href="#DejaVuSans-30" transform="translate(127.246094 0)"/>
      </g>
     </g>
    </g>
    <g id="ytick_3">
     <g id="line2d_11">
      <path d="M 88.5375 386.637223 
L 1112.630398 386.637223 
" clip-path="url(#p0cca61b5f7)" style="fill: none; stroke: #ffffff; stroke-width: 0.8; stroke-linecap: round"/>
     </g>
     <g id="text_12">
      <!-- 340 -->
      <g style="fill: #262626" transform="translate(34.4275 395.755348) scale(0.24 -0.24)">
       <use xlink:href="#DejaVuSans-33"/>
       <use xlink:href="#DejaVuSans-34" transform="translate(63.623047 0)"/>
       <use xlink:href="#DejaVuSans-30" transform="translate(127.246094 0)"/>
      </g>
     </g>
    </g>
    <g id="ytick_4">
     <g id="line2d_12">
      <path d="M 88.5375 314.94794 
L 1112.630398 314.94794 
" clip-path="url(#p0cca61b5f7)" style="fill: none; stroke: #ffffff; stroke-width: 0.8; stroke-linecap: round"/>
     </g>
     <g id="text_13">
      <!-- 360 -->
      <g style="fill: #262626" transform="translate(34.4275 324.066065) scale(0.24 -0.24)">
       <use xlink:href="#DejaVuSans-33"/>
       <use xlink:href="#DejaVuSans-36" transform="translate(63.623047 0)"/>
       <use xlink:href="#DejaVuSans-30" transform="translate(127.246094 0)"/>
      </g>
     </g>
    </g>
    <g id="ytick_5">
     <g id="line2d_13">
      <path d="M 88.5375 243.258658 
L 1112.630398 243.258658 
" clip-path="url(#p0cca61b5f7)" style="fill: none; stroke: #ffffff; stroke-width: 0.8; stroke-linecap: round"/>
     </g>
     <g id="text_14">
      <!-- 380 -->
      <g style="fill: #262626" transform="translate(34.4275 252.376783) scale(0.24 -0.24)">
       <use xlink:href="#DejaVuSans-33"/>
       <use xlink:href="#DejaVuSans-38" transform="translate(63.623047 0)"/>
       <use xlink:href="#DejaVuSans-30" transform="translate(127.246094 0)"/>
      </g>
     </g>
    </g>
    <g id="ytick_6">
     <g id="line2d_14">
      <path d="M 88.5375 171.569375 
L 1112.630398 171.569375 
" clip-path="url(#p0cca61b5f7)" style="fill: none; stroke: #ffffff; stroke-width: 0.8; stroke-linecap: round"/>
     </g>
     <g id="text_15">
      <!-- 400 -->
      <g style="fill: #262626" transform="translate(34.4275 180.6875) scale(0.24 -0.24)">
       <use xlink:href="#DejaVuSans-34"/>
       <use xlink:href="#DejaVuSans-30" transform="translate(63.623047 0)"/>
       <use xlink:href="#DejaVuSans-30" transform="translate(127.246094 0)"/>
      </g>
     </g>
    </g>
    <g id="ytick_7">
     <g id="line2d_15">
      <path d="M 88.5375 99.880093 
L 1112.630398 99.880093 
" clip-path="url(#p0cca61b5f7)" style="fill: none; stroke: #ffffff; stroke-width: 0.8; stroke-linecap: round"/>
     </g>
     <g id="text_16">
      <!-- 420 -->
      <g style="fill: #262626" transform="translate(34.4275 108.998218) scale(0.24 -0.24)">
       <use xlink:href="#DejaVuSans-34"/>
       <use xlink:href="#DejaVuSans-32" transform="translate(63.623047 0)"/>
       <use xlink:href="#DejaVuSans-30" transform="translate(127.246094 0)"/>
      </g>
     </g>
    </g>
    <g id="text_17">
     <!-- FPR [Bar] -->
     <g style="fill: #262626" transform="translate(25.43625 366.9795) rotate(-90) scale(0.24 -0.24)">
      <defs>
       <path id="DejaVuSans-Bold-46" d="M 588 4666 
L 3834 4666 
L 3834 3756 
L 1791 3756 
L 1791 2888 
L 3713 2888 
L 3713 1978 
L 1791 1978 
L 1791 0 
L 588 0 
L 588 4666 
z
" transform="scale(0.015625)"/>
       <path id="DejaVuSans-Bold-50" d="M 588 4666 
L 2584 4666 
Q 3475 4666 3951 4270 
Q 4428 3875 4428 3144 
Q 4428 2409 3951 2014 
Q 3475 1619 2584 1619 
L 1791 1619 
L 1791 0 
L 588 0 
L 588 4666 
z
M 1791 3794 
L 1791 2491 
L 2456 2491 
Q 2806 2491 2997 2661 
Q 3188 2831 3188 3144 
Q 3188 3456 2997 3625 
Q 2806 3794 2456 3794 
L 1791 3794 
z
" transform="scale(0.015625)"/>
       <path id="DejaVuSans-Bold-52" d="M 2297 2597 
Q 2675 2597 2839 2737 
Q 3003 2878 3003 3200 
Q 3003 3519 2839 3656 
Q 2675 3794 2297 3794 
L 1791 3794 
L 1791 2597 
L 2297 2597 
z
M 1791 1766 
L 1791 0 
L 588 0 
L 588 4666 
L 2425 4666 
Q 3347 4666 3776 4356 
Q 4206 4047 4206 3378 
Q 4206 2916 3982 2619 
Q 3759 2322 3309 2181 
Q 3556 2125 3751 1926 
Q 3947 1728 4147 1325 
L 4800 0 
L 3519 0 
L 2950 1159 
Q 2778 1509 2601 1637 
Q 2425 1766 2131 1766 
L 1791 1766 
z
" transform="scale(0.015625)"/>
       <path id="DejaVuSans-Bold-20" transform="scale(0.015625)"/>
       <path id="DejaVuSans-Bold-5b" d="M 550 4863 
L 2491 4863 
L 2491 4159 
L 1613 4159 
L 1613 -141 
L 2491 -141 
L 2491 -844 
L 550 -844 
L 550 4863 
z
" transform="scale(0.015625)"/>
       <path id="DejaVuSans-Bold-42" d="M 2456 2859 
Q 2741 2859 2887 2984 
Q 3034 3109 3034 3353 
Q 3034 3594 2887 3720 
Q 2741 3847 2456 3847 
L 1791 3847 
L 1791 2859 
L 2456 2859 
z
M 2497 819 
Q 2859 819 3042 972 
Q 3225 1125 3225 1434 
Q 3225 1738 3044 1889 
Q 2863 2041 2497 2041 
L 1791 2041 
L 1791 819 
L 2497 819 
z
M 3616 2497 
Q 4003 2384 4215 2081 
Q 4428 1778 4428 1338 
Q 4428 663 3972 331 
Q 3516 0 2584 0 
L 588 0 
L 588 4666 
L 2394 4666 
Q 3366 4666 3802 4372 
Q 4238 4078 4238 3431 
Q 4238 3091 4078 2852 
Q 3919 2613 3616 2497 
z
" transform="scale(0.015625)"/>
       <path id="DejaVuSans-Bold-72" d="M 3138 2547 
Q 2991 2616 2845 2648 
Q 2700 2681 2553 2681 
Q 2122 2681 1889 2404 
Q 1656 2128 1656 1613 
L 1656 0 
L 538 0 
L 538 3500 
L 1656 3500 
L 1656 2925 
Q 1872 3269 2151 3426 
Q 2431 3584 2822 3584 
Q 2878 3584 2943 3579 
Q 3009 3575 3134 3559 
L 3138 2547 
z
" transform="scale(0.015625)"/>
       <path id="DejaVuSans-Bold-5d" d="M 2375 -844 
L 434 -844 
L 434 -141 
L 1313 -141 
L 1313 4159 
L 434 4159 
L 434 4863 
L 2375 4863 
L 2375 -844 
z
" transform="scale(0.015625)"/>
      </defs>
      <use xlink:href="#DejaVuSans-Bold-46"/>
      <use xlink:href="#DejaVuSans-Bold-50" transform="translate(68.310547 0)"/>
      <use xlink:href="#DejaVuSans-Bold-52" transform="translate(141.601562 0)"/>
      <use xlink:href="#DejaVuSans-Bold-20" transform="translate(218.603516 0)"/>
      <use xlink:href="#DejaVuSans-Bold-5b" transform="translate(253.417969 0)"/>
      <use xlink:href="#DejaVuSans-Bold-42" transform="translate(299.121094 0)"/>
      <use xlink:href="#DejaVuSans-Bold-61" transform="translate(375.341797 0)"/>
      <use xlink:href="#DejaVuSans-Bold-72" transform="translate(442.822266 0)"/>
      <use xlink:href="#DejaVuSans-Bold-5d" transform="translate(492.138672 0)"/>
     </g>
    </g>
   </g>
   <g id="FillBetweenPolyCollection_1">
    <defs>
     <path id="m4fdd29f652" d="M 46.559988 -114.670819 
L 46.559988 -112.779261 
L 47.74803 -115.214374 
L 93.685685 -201.712871 
L 129.32697 -156.677352 
L 165.364268 -147.973803 
L 201.797581 -148.712617 
L 238.230893 -153.411648 
L 250.111321 -156.862548 
L 274.268192 -163.337949 
L 310.30549 -172.640841 
L 322.185918 -175.492179 
L 346.738803 -181.219795 
L 358.619231 -183.93735 
L 370.499659 -186.678424 
L 376.835887 -188.17618 
L 383.172116 -189.696361 
L 418.8134 -200.775515 
L 454.850698 -213.195451 
L 491.284011 -226.393582 
L 527.717324 -240.219825 
L 563.358608 -254.49719 
L 599.395906 -270.504434 
L 635.829219 -287.885606 
L 672.262532 -304.535622 
L 707.903816 -320.389065 
L 719.784244 -326.729261 
L 743.941114 -338.178697 
L 755.821542 -343.817161 
L 767.70197 -349.47455 
L 774.038198 -352.500582 
L 780.374427 -355.528365 
L 792.254855 -361.201506 
L 816.807739 -372.990704 
L 828.688168 -378.753653 
L 840.568596 -384.554561 
L 846.706817 -387.554777 
L 852.845038 -390.563636 
L 888.882336 -408.421307 
L 900.762764 -414.390674 
L 912.643192 -420.194972 
L 918.979421 -423.440987 
L 925.315649 -426.689954 
L 937.196077 -432.788728 
L 961.748962 -445.428099 
L 973.62939 -450.626163 
L 985.509818 -455.758155 
L 997.390246 -459.644096 
L 1033.427544 -474.227094 
L 1069.860857 -484.124188 
L 1106.29417 -494.105839 
L 1106.29417 -585.25808 
L 1106.29417 -585.25808 
L 1069.860857 -575.764085 
L 1033.427544 -563.455178 
L 997.390246 -551.038196 
L 985.509818 -550.307257 
L 973.62939 -547.570122 
L 961.748962 -541.771293 
L 937.196077 -533.401709 
L 925.315649 -530.221438 
L 918.979421 -526.645506 
L 912.643192 -523.075153 
L 900.762764 -517.932878 
L 888.882336 -514.977511 
L 852.845038 -504.47101 
L 846.706817 -502.397538 
L 840.568596 -500.23568 
L 828.688168 -495.875647 
L 816.807739 -491.122031 
L 792.254855 -478.847911 
L 780.374427 -473.411597 
L 774.038198 -470.103122 
L 767.70197 -466.741921 
L 755.821542 -460.339374 
L 743.941114 -453.755021 
L 719.784244 -439.785259 
L 707.903816 -432.827452 
L 672.262532 -417.505968 
L 635.829219 -403.093836 
L 599.395906 -386.173849 
L 563.358608 -369.187352 
L 527.717324 -350.864886 
L 491.284011 -329.570426 
L 454.850698 -307.861927 
L 418.8134 -286.108142 
L 383.172116 -265.623599 
L 376.835887 -262.019882 
L 370.499659 -258.416822 
L 358.619231 -252.019963 
L 346.738803 -245.776138 
L 322.185918 -233.382237 
L 310.30549 -227.611302 
L 274.268192 -210.718005 
L 250.111321 -198.780694 
L 238.230893 -194.316413 
L 201.797581 -185.102673 
L 165.364268 -182.648418 
L 129.32697 -190.963635 
L 93.685685 -236.490858 
L 47.74803 -117.400188 
L 46.559988 -114.670819 
z
" style="stroke: #58508d; stroke-opacity: 0.7; stroke-width: 0.8"/>
    </defs>
    <g clip-path="url(#p0cca61b5f7)">
     <use xlink:href="#m4fdd29f652" x="0" y="641.330875" style="fill: #58508d; fill-opacity: 0.7; stroke: #58508d; stroke-opacity: 0.7; stroke-width: 0.8"/>
    </g>
   </g>
   <g id="FillBetweenPolyCollection_2">
    <defs>
     <path id="mcd49aef984" d="M 46.559988 -114.670819 
L 46.559988 -112.779261 
L 47.74803 -115.214374 
L 93.685685 -201.712871 
L 129.32697 -137.487211 
L 165.364268 -111.698934 
L 201.797581 -101.866927 
L 238.230893 -93.922539 
L 250.111321 -93.537489 
L 274.268192 -92.52717 
L 310.30549 -95.529028 
L 322.185918 -96.758781 
L 346.738803 -100.135843 
L 358.619231 -102.123772 
L 370.499659 -104.205011 
L 376.835887 -104.562604 
L 383.172116 -105.367817 
L 418.8134 -111.235343 
L 454.850698 -139.936325 
L 491.284011 -161.784294 
L 527.717324 -186.441378 
L 563.358608 -206.133834 
L 599.395906 -218.07563 
L 635.829219 -233.835983 
L 672.262532 -248.368224 
L 707.903816 -263.663673 
L 719.784244 -267.47337 
L 743.941114 -276.293527 
L 755.821542 -281.073506 
L 767.70197 -285.904022 
L 774.038198 -288.508797 
L 780.374427 -291.134574 
L 792.254855 -296.113203 
L 816.807739 -304.496351 
L 828.688168 -308.643294 
L 840.568596 -311.50929 
L 846.706817 -314.102032 
L 852.845038 -315.436689 
L 888.882336 -322.785782 
L 900.762764 -327.234967 
L 912.643192 -332.213159 
L 918.979421 -334.901069 
L 925.315649 -337.60145 
L 937.196077 -342.69275 
L 961.748962 -354.271155 
L 973.62939 -360.057623 
L 985.509818 -365.455322 
L 997.390246 -369.950779 
L 1033.427544 -385.739136 
L 1069.860857 -396.855263 
L 1106.29417 -405.48388 
L 1106.29417 -528.617355 
L 1106.29417 -528.617355 
L 1069.860857 -514.226882 
L 1033.427544 -497.932272 
L 997.390246 -490.360792 
L 985.509818 -484.779319 
L 973.62939 -478.450719 
L 961.748962 -474.543775 
L 937.196077 -463.670055 
L 925.315649 -457.428528 
L 918.979421 -454.110098 
L 912.643192 -450.797576 
L 900.762764 -444.599039 
L 888.882336 -439.236891 
L 852.845038 -422.282665 
L 846.706817 -419.273697 
L 840.568596 -416.424 
L 828.688168 -410.467869 
L 816.807739 -404.714546 
L 792.254855 -393.713606 
L 780.374427 -387.317294 
L 774.038198 -384.274525 
L 767.70197 -381.268401 
L 755.821542 -376.049772 
L 743.941114 -372.476466 
L 719.784244 -360.965663 
L 707.903816 -356.323952 
L 672.262532 -339.532606 
L 635.829219 -325.62815 
L 599.395906 -307.265647 
L 563.358608 -288.045205 
L 527.717324 -267.836323 
L 491.284011 -239.187192 
L 454.850698 -204.721729 
L 418.8134 -160.8395 
L 383.172116 -151.542843 
L 376.835887 -150.089936 
L 370.499659 -148.54733 
L 358.619231 -145.744561 
L 346.738803 -142.946058 
L 322.185918 -138.055269 
L 310.30549 -137.19908 
L 274.268192 -130.600835 
L 250.111321 -129.011738 
L 238.230893 -127.758357 
L 201.797581 -129.72605 
L 165.364268 -141.071128 
L 129.32697 -165.045076 
L 93.685685 -236.490858 
L 47.74803 -117.400188 
L 46.559988 -114.670819 
z
" style="stroke: #ffa600; stroke-opacity: 0.7; stroke-width: 0.8"/>
    </defs>
    <g clip-path="url(#p0cca61b5f7)">
     <use xlink:href="#mcd49aef984" x="0" y="641.330875" style="fill: #ffa600; fill-opacity: 0.7; stroke: #ffa600; stroke-opacity: 0.7; stroke-width: 0.8"/>
    </g>
   </g>
   <g id="line2d_16">
    <path d="M 46.559988 527.643564 
L 47.74803 525.105442 
L 93.685685 422.520397 
L 129.32697 468.247935 
L 165.364268 476.451145 
L 201.797581 474.495091 
L 238.230893 467.081109 
L 250.111321 463.827714 
L 274.268192 456.448304 
L 310.30549 443.922323 
L 322.185918 439.467187 
L 346.738803 429.852294 
L 358.619231 425.032567 
L 370.499659 420.107882 
L 376.835887 417.444197 
L 383.172116 414.755889 
L 418.8134 399.208188 
L 454.850698 382.813317 
L 491.284011 366.030191 
L 527.717324 348.598127 
L 563.358608 331.197215 
L 599.395906 313.521542 
L 635.829219 295.640784 
L 672.262532 277.818666 
L 707.903816 260.520129 
L 719.784244 254.794707 
L 743.941114 243.207802 
L 755.821542 237.548856 
L 767.70197 231.910159 
L 774.038198 228.907878 
L 780.374427 225.915609 
L 792.254855 220.341908 
L 816.807739 208.911236 
L 828.688168 203.454289 
L 840.568596 198.044323 
L 846.706817 195.259491 
L 852.845038 192.492909 
L 888.882336 176.636764 
L 900.762764 171.567757 
L 912.643192 166.573225 
L 918.979421 163.933335 
L 925.315649 161.319148 
L 937.196077 156.506579 
L 961.748962 146.814382 
L 973.62939 142.302974 
L 985.509818 137.931437 
L 997.390246 133.702135 
L 1033.427544 121.668338 
L 1069.860857 110.772421 
L 1106.29417 101.134291 
" clip-path="url(#p0cca61b5f7)" style="fill: none; stroke: #000000; stroke-width: 4; stroke-linecap: round"/>
   </g>
   <g id="line2d_17">
    <path d="M 46.559988 526.660056 
L 47.74803 523.930687 
L 93.685685 404.840017 
L 129.32697 450.36724 
L 165.364268 458.682457 
L 201.797581 456.228202 
L 238.230893 447.014462 
L 250.111321 442.550181 
L 274.268192 430.61287 
L 310.30549 413.719573 
L 322.185918 407.948638 
L 346.738803 395.554737 
L 358.619231 389.310912 
L 370.499659 382.914053 
L 376.835887 379.310993 
L 383.172116 375.707276 
L 418.8134 355.222733 
L 454.850698 333.468948 
L 491.284011 311.760449 
L 527.717324 290.465989 
L 563.358608 272.143523 
L 599.395906 255.157026 
L 635.829219 238.237039 
L 672.262532 223.824907 
L 707.903816 208.503423 
L 719.784244 201.545616 
L 743.941114 187.575854 
L 755.821542 180.991501 
L 767.70197 174.588954 
L 774.038198 171.227753 
L 780.374427 167.919278 
L 792.254855 162.482964 
L 816.807739 150.208844 
L 828.688168 145.455228 
L 840.568596 141.095195 
L 846.706817 138.933337 
L 852.845038 136.859865 
L 888.882336 126.353364 
L 900.762764 123.397997 
L 912.643192 118.255722 
L 918.979421 114.685369 
L 925.315649 111.109437 
L 937.196077 107.929166 
L 961.748962 99.559582 
L 973.62939 93.760753 
L 985.509818 91.023618 
L 997.390246 90.292679 
L 1033.427544 77.875697 
L 1069.860857 65.56679 
L 1106.29417 56.072795 
" clip-path="url(#p0cca61b5f7)" style="fill: none; stroke-dasharray: 7.4,3.2; stroke-dashoffset: 0; stroke: #000000; stroke-width: 2"/>
   </g>
   <g id="line2d_18">
    <path d="M 46.559988 528.551614 
L 47.74803 526.116501 
L 93.685685 439.618004 
L 129.32697 484.653523 
L 165.364268 493.357072 
L 201.797581 492.618258 
L 238.230893 487.919227 
L 250.111321 484.468327 
L 274.268192 477.992926 
L 310.30549 468.690034 
L 322.185918 465.838696 
L 346.738803 460.11108 
L 358.619231 457.393525 
L 370.499659 454.652451 
L 376.835887 453.154695 
L 383.172116 451.634514 
L 418.8134 440.55536 
L 454.850698 428.135424 
L 491.284011 414.937293 
L 527.717324 401.11105 
L 563.358608 386.833685 
L 599.395906 370.826441 
L 635.829219 353.445269 
L 672.262532 336.795253 
L 707.903816 320.94181 
L 719.784244 314.601614 
L 743.941114 303.152178 
L 755.821542 297.513714 
L 767.70197 291.856325 
L 774.038198 288.830293 
L 780.374427 285.80251 
L 792.254855 280.129369 
L 816.807739 268.340171 
L 828.688168 262.577222 
L 840.568596 256.776314 
L 846.706817 253.776098 
L 852.845038 250.767239 
L 888.882336 232.909568 
L 900.762764 226.940201 
L 912.643192 221.135903 
L 918.979421 217.889888 
L 925.315649 214.640921 
L 937.196077 208.542147 
L 961.748962 195.902776 
L 973.62939 190.704712 
L 985.509818 185.57272 
L 997.390246 181.686779 
L 1033.427544 167.103781 
L 1069.860857 157.206687 
L 1106.29417 147.225036 
" clip-path="url(#p0cca61b5f7)" style="fill: none; stroke-dasharray: 2,3.3; stroke-dashoffset: 0; stroke: #000000; stroke-width: 2"/>
   </g>
   <g id="line2d_19">
    <path d="M 46.559988 527.643564 
L 47.74803 525.105442 
L 93.685685 422.520397 
L 129.32697 490.462689 
L 165.364268 514.920787 
L 201.797581 525.54305 
L 238.230893 528.376523 
L 250.111321 528.290606 
L 274.268192 527.149064 
L 310.30549 523.637978 
L 322.185918 522.131436 
L 346.738803 518.587428 
L 358.619231 516.676444 
L 370.499659 514.654364 
L 376.835887 513.538189 
L 383.172116 512.389987 
L 418.8134 505.19463 
L 454.850698 472.459293 
L 491.284011 443.118067 
L 527.717324 419.710447 
L 563.358608 400.108914 
L 599.395906 381.983818 
L 635.829219 364.715186 
L 672.262532 348.132688 
L 707.903816 332.354477 
L 719.784244 327.16015 
L 743.941114 316.658854 
L 755.821542 311.537912 
L 767.70197 306.434373 
L 774.038198 303.70998 
L 780.374427 300.991813 
L 792.254855 295.933433 
L 816.807739 285.542928 
L 828.688168 280.564969 
L 840.568596 275.608238 
L 846.706817 273.050071 
L 852.845038 270.49799 
L 888.882336 255.62312 
L 900.762764 250.791807 
L 912.643192 245.99683 
L 918.979421 243.445317 
L 925.315649 240.905386 
L 937.196077 236.181275 
L 961.748962 226.516981 
L 973.62939 221.916497 
L 985.509818 217.357976 
L 997.390246 212.837697 
L 1033.427544 199.374282 
L 1069.860857 186.289867 
L 1106.29417 173.848686 
" clip-path="url(#p0cca61b5f7)" style="fill: none; stroke: #808080; stroke-width: 4; stroke-linecap: round"/>
   </g>
   <g id="line2d_20">
    <path d="M 46.559988 526.660056 
L 47.74803 523.930687 
L 93.685685 404.840017 
L 129.32697 476.285799 
L 165.364268 500.259747 
L 201.797581 511.604825 
L 238.230893 513.572518 
L 250.111321 512.319137 
L 274.268192 510.73004 
L 310.30549 504.131795 
L 322.185918 503.275606 
L 346.738803 498.384817 
L 358.619231 495.586314 
L 370.499659 492.783545 
L 376.835887 491.240939 
L 383.172116 489.788032 
L 418.8134 480.491375 
L 454.850698 436.609146 
L 491.284011 402.143683 
L 527.717324 373.494552 
L 563.358608 353.28567 
L 599.395906 334.065228 
L 635.829219 315.702725 
L 672.262532 301.798269 
L 707.903816 285.006923 
L 719.784244 280.365212 
L 743.941114 268.854409 
L 755.821542 265.281103 
L 767.70197 260.062474 
L 774.038198 257.05635 
L 780.374427 254.013581 
L 792.254855 247.617269 
L 816.807739 236.616329 
L 828.688168 230.863006 
L 840.568596 224.906875 
L 846.706817 222.057178 
L 852.845038 219.04821 
L 888.882336 202.093984 
L 900.762764 196.731836 
L 912.643192 190.533299 
L 918.979421 187.220777 
L 925.315649 183.902347 
L 937.196077 177.66082 
L 961.748962 166.7871 
L 973.62939 162.880156 
L 985.509818 156.551556 
L 997.390246 150.970083 
L 1033.427544 143.398603 
L 1069.860857 127.103993 
L 1106.29417 112.71352 
" clip-path="url(#p0cca61b5f7)" style="fill: none; stroke-dasharray: 7.4,3.2; stroke-dashoffset: 0; stroke: #808080; stroke-width: 2"/>
   </g>
   <g id="line2d_21">
    <path d="M 46.559988 528.551614 
L 47.74803 526.116501 
L 93.685685 439.618004 
L 129.32697 503.843664 
L 165.364268 529.631941 
L 201.797581 539.463948 
L 238.230893 547.408336 
L 250.111321 547.793386 
L 274.268192 548.803705 
L 310.30549 545.801847 
L 322.185918 544.572094 
L 346.738803 541.195032 
L 358.619231 539.207103 
L 370.499659 537.125864 
L 376.835887 536.768271 
L 383.172116 535.963058 
L 418.8134 530.095532 
L 454.850698 501.39455 
L 491.284011 479.546581 
L 527.717324 454.889497 
L 563.358608 435.197041 
L 599.395906 423.255245 
L 635.829219 407.494892 
L 672.262532 392.962651 
L 707.903816 377.667202 
L 719.784244 373.857505 
L 743.941114 365.037348 
L 755.821542 360.257369 
L 767.70197 355.426853 
L 774.038198 352.822078 
L 780.374427 350.196301 
L 792.254855 345.217672 
L 816.807739 336.834524 
L 828.688168 332.687581 
L 840.568596 329.821585 
L 846.706817 327.228843 
L 852.845038 325.894186 
L 888.882336 318.545093 
L 900.762764 314.095908 
L 912.643192 309.117716 
L 918.979421 306.429806 
L 925.315649 303.729425 
L 937.196077 298.638125 
L 961.748962 287.05972 
L 973.62939 281.273252 
L 985.509818 275.875553 
L 997.390246 271.380096 
L 1033.427544 255.591739 
L 1069.860857 244.475612 
L 1106.29417 235.846995 
" clip-path="url(#p0cca61b5f7)" style="fill: none; stroke-dasharray: 2,3.3; stroke-dashoffset: 0; stroke: #808080; stroke-width: 2"/>
   </g>
   <g id="patch_3">
    <path d="M 88.5375 573.44025 
L 88.5375 31.43625 
" style="fill: none; stroke: #ffffff; stroke-linejoin: miter; stroke-linecap: square"/>
   </g>
   <g id="patch_4">
    <path d="M 1112.630398 573.44025 
L 1112.630398 31.43625 
" style="fill: none; stroke: #ffffff; stroke-linejoin: miter; stroke-linecap: square"/>
   </g>
   <g id="patch_5">
    <path d="M 88.5375 573.44025 
L 1112.630398 573.44025 
" style="fill: none; stroke: #ffffff; stroke-linejoin: miter; stroke-linecap: square"/>
   </g>
   <g id="patch_6">
    <path d="M 88.5375 31.43625 
L 1112.630398 31.43625 
" style="fill: none; stroke: #ffffff; stroke-linejoin: miter; stroke-linecap: square"/>
   </g>
   <g id="text_18">
    <!-- FPR -->
    <g style="fill: #262626" transform="translate(574.350824 25.43625) scale(0.24 -0.24)">
     <use xlink:href="#DejaVuSans-Bold-46"/>
     <use xlink:href="#DejaVuSans-Bold-50" transform="translate(68.310547 0)"/>
     <use xlink:href="#DejaVuSans-Bold-52" transform="translate(141.601562 0)"/>
    </g>
   </g>
   <g id="legend_1">
    <g id="patch_7">
     <path d="M 103.9375 210.495625 
L 331.104688 210.495625 
Q 335.504687 210.495625 335.504687 206.095625 
L 335.504687 46.83625 
Q 335.504687 42.43625 331.104688 42.43625 
L 103.9375 42.43625 
Q 99.5375 42.43625 99.5375 46.83625 
L 99.5375 206.095625 
Q 99.5375 210.495625 103.9375 210.495625 
z
" style="fill: #eaeaf2; opacity: 0.8; stroke: #cccccc; stroke-width: 0.8; stroke-linejoin: miter"/>
    </g>
    <g id="line2d_22">
     <path d="M 108.3375 60.252813 
L 130.3375 60.252813 
L 152.3375 60.252813 
" style="fill: none; stroke: #000000; stroke-width: 4; stroke-linecap: round"/>
    </g>
    <g id="text_19">
     <!-- Mean -->
     <g style="fill: #262626" transform="translate(169.9375 67.952813) scale(0.22 -0.22)">
      <defs>
       <path id="DejaVuSans-4d" d="M 628 4666 
L 1569 4666 
L 2759 1491 
L 3956 4666 
L 4897 4666 
L 4897 0 
L 4281 0 
L 4281 4097 
L 3078 897 
L 2444 897 
L 1241 4097 
L 1241 0 
L 628 0 
L 628 4666 
z
" transform="scale(0.015625)"/>
       <path id="DejaVuSans-65" d="M 3597 1894 
L 3597 1613 
L 953 1613 
Q 991 1019 1311 708 
Q 1631 397 2203 397 
Q 2534 397 2845 478 
Q 3156 559 3463 722 
L 3463 178 
Q 3153 47 2828 -22 
Q 2503 -91 2169 -91 
Q 1331 -91 842 396 
Q 353 884 353 1716 
Q 353 2575 817 3079 
Q 1281 3584 2069 3584 
Q 2775 3584 3186 3129 
Q 3597 2675 3597 1894 
z
M 3022 2063 
Q 3016 2534 2758 2815 
Q 2500 3097 2075 3097 
Q 1594 3097 1305 2825 
Q 1016 2553 972 2059 
L 3022 2063 
z
" transform="scale(0.015625)"/>
       <path id="DejaVuSans-61" d="M 2194 1759 
Q 1497 1759 1228 1600 
Q 959 1441 959 1056 
Q 959 750 1161 570 
Q 1363 391 1709 391 
Q 2188 391 2477 730 
Q 2766 1069 2766 1631 
L 2766 1759 
L 2194 1759 
z
M 3341 1997 
L 3341 0 
L 2766 0 
L 2766 531 
Q 2569 213 2275 61 
Q 1981 -91 1556 -91 
Q 1019 -91 701 211 
Q 384 513 384 1019 
Q 384 1609 779 1909 
Q 1175 2209 1959 2209 
L 2766 2209 
L 2766 2266 
Q 2766 2663 2505 2880 
Q 2244 3097 1772 3097 
Q 1472 3097 1187 3025 
Q 903 2953 641 2809 
L 641 3341 
Q 956 3463 1253 3523 
Q 1550 3584 1831 3584 
Q 2591 3584 2966 3190 
Q 3341 2797 3341 1997 
z
" transform="scale(0.015625)"/>
       <path id="DejaVuSans-6e" d="M 3513 2113 
L 3513 0 
L 2938 0 
L 2938 2094 
Q 2938 2591 2744 2837 
Q 2550 3084 2163 3084 
Q 1697 3084 1428 2787 
Q 1159 2491 1159 1978 
L 1159 0 
L 581 0 
L 581 3500 
L 1159 3500 
L 1159 2956 
Q 1366 3272 1645 3428 
Q 1925 3584 2291 3584 
Q 2894 3584 3203 3211 
Q 3513 2838 3513 2113 
z
" transform="scale(0.015625)"/>
      </defs>
      <use xlink:href="#DejaVuSans-4d"/>
      <use xlink:href="#DejaVuSans-65" transform="translate(86.279297 0)"/>
      <use xlink:href="#DejaVuSans-61" transform="translate(147.802734 0)"/>
      <use xlink:href="#DejaVuSans-6e" transform="translate(209.082031 0)"/>
     </g>
    </g>
    <g id="line2d_23">
     <path d="M 108.3375 92.544688 
L 130.3375 92.544688 
L 152.3375 92.544688 
" style="fill: none; stroke-dasharray: 7.4,3.2; stroke-dashoffset: 0; stroke: #000000; stroke-width: 2"/>
    </g>
    <g id="text_20">
     <!-- P10 Percentile -->
     <g style="fill: #262626" transform="translate(169.9375 100.244688) scale(0.22 -0.22)">
      <defs>
       <path id="DejaVuSans-50" d="M 1259 4147 
L 1259 2394 
L 2053 2394 
Q 2494 2394 2734 2622 
Q 2975 2850 2975 3272 
Q 2975 3691 2734 3919 
Q 2494 4147 2053 4147 
L 1259 4147 
z
M 628 4666 
L 2053 4666 
Q 2838 4666 3239 4311 
Q 3641 3956 3641 3272 
Q 3641 2581 3239 2228 
Q 2838 1875 2053 1875 
L 1259 1875 
L 1259 0 
L 628 0 
L 628 4666 
z
" transform="scale(0.015625)"/>
       <path id="DejaVuSans-31" d="M 794 531 
L 1825 531 
L 1825 4091 
L 703 3866 
L 703 4441 
L 1819 4666 
L 2450 4666 
L 2450 531 
L 3481 531 
L 3481 0 
L 794 0 
L 794 531 
z
" transform="scale(0.015625)"/>
       <path id="DejaVuSans-20" transform="scale(0.015625)"/>
       <path id="DejaVuSans-72" d="M 2631 2963 
Q 2534 3019 2420 3045 
Q 2306 3072 2169 3072 
Q 1681 3072 1420 2755 
Q 1159 2438 1159 1844 
L 1159 0 
L 581 0 
L 581 3500 
L 1159 3500 
L 1159 2956 
Q 1341 3275 1631 3429 
Q 1922 3584 2338 3584 
Q 2397 3584 2469 3576 
Q 2541 3569 2628 3553 
L 2631 2963 
z
" transform="scale(0.015625)"/>
       <path id="DejaVuSans-63" d="M 3122 3366 
L 3122 2828 
Q 2878 2963 2633 3030 
Q 2388 3097 2138 3097 
Q 1578 3097 1268 2742 
Q 959 2388 959 1747 
Q 959 1106 1268 751 
Q 1578 397 2138 397 
Q 2388 397 2633 464 
Q 2878 531 3122 666 
L 3122 134 
Q 2881 22 2623 -34 
Q 2366 -91 2075 -91 
Q 1284 -91 818 406 
Q 353 903 353 1747 
Q 353 2603 823 3093 
Q 1294 3584 2113 3584 
Q 2378 3584 2631 3529 
Q 2884 3475 3122 3366 
z
" transform="scale(0.015625)"/>
       <path id="DejaVuSans-74" d="M 1172 4494 
L 1172 3500 
L 2356 3500 
L 2356 3053 
L 1172 3053 
L 1172 1153 
Q 1172 725 1289 603 
Q 1406 481 1766 481 
L 2356 481 
L 2356 0 
L 1766 0 
Q 1100 0 847 248 
Q 594 497 594 1153 
L 594 3053 
L 172 3053 
L 172 3500 
L 594 3500 
L 594 4494 
L 1172 4494 
z
" transform="scale(0.015625)"/>
       <path id="DejaVuSans-69" d="M 603 3500 
L 1178 3500 
L 1178 0 
L 603 0 
L 603 3500 
z
M 603 4863 
L 1178 4863 
L 1178 4134 
L 603 4134 
L 603 4863 
z
" transform="scale(0.015625)"/>
       <path id="DejaVuSans-6c" d="M 603 4863 
L 1178 4863 
L 1178 0 
L 603 0 
L 603 4863 
z
" transform="scale(0.015625)"/>
      </defs>
      <use xlink:href="#DejaVuSans-50"/>
      <use xlink:href="#DejaVuSans-31" transform="translate(60.302734 0)"/>
      <use xlink:href="#DejaVuSans-30" transform="translate(123.925781 0)"/>
      <use xlink:href="#DejaVuSans-20" transform="translate(187.548828 0)"/>
      <use xlink:href="#DejaVuSans-50" transform="translate(219.335938 0)"/>
      <use xlink:href="#DejaVuSans-65" transform="translate(276.013672 0)"/>
      <use xlink:href="#DejaVuSans-72" transform="translate(337.537109 0)"/>
      <use xlink:href="#DejaVuSans-63" transform="translate(376.400391 0)"/>
      <use xlink:href="#DejaVuSans-65" transform="translate(431.380859 0)"/>
      <use xlink:href="#DejaVuSans-6e" transform="translate(492.904297 0)"/>
      <use xlink:href="#DejaVuSans-74" transform="translate(556.283203 0)"/>
      <use xlink:href="#DejaVuSans-69" transform="translate(595.492188 0)"/>
      <use xlink:href="#DejaVuSans-6c" transform="translate(623.275391 0)"/>
      <use xlink:href="#DejaVuSans-65" transform="translate(651.058594 0)"/>
     </g>
    </g>
    <g id="line2d_24">
     <path d="M 108.3375 124.836563 
L 130.3375 124.836563 
L 152.3375 124.836563 
" style="fill: none; stroke-dasharray: 2,3.3; stroke-dashoffset: 0; stroke: #000000; stroke-width: 2"/>
    </g>
    <g id="text_21">
     <!-- P90 Percentile -->
     <g style="fill: #262626" transform="translate(169.9375 132.536563) scale(0.22 -0.22)">
      <use xlink:href="#DejaVuSans-50"/>
      <use xlink:href="#DejaVuSans-39" transform="translate(60.302734 0)"/>
      <use xlink:href="#DejaVuSans-30" transform="translate(123.925781 0)"/>
      <use xlink:href="#DejaVuSans-20" transform="translate(187.548828 0)"/>
      <use xlink:href="#DejaVuSans-50" transform="translate(219.335938 0)"/>
      <use xlink:href="#DejaVuSans-65" transform="translate(276.013672 0)"/>
      <use xlink:href="#DejaVuSans-72" transform="translate(337.537109 0)"/>
      <use xlink:href="#DejaVuSans-63" transform="translate(376.400391 0)"/>
      <use xlink:href="#DejaVuSans-65" transform="translate(431.380859 0)"/>
      <use xlink:href="#DejaVuSans-6e" transform="translate(492.904297 0)"/>
      <use xlink:href="#DejaVuSans-74" transform="translate(556.283203 0)"/>
      <use xlink:href="#DejaVuSans-69" transform="translate(595.492188 0)"/>
      <use xlink:href="#DejaVuSans-6c" transform="translate(623.275391 0)"/>
      <use xlink:href="#DejaVuSans-65" transform="translate(651.058594 0)"/>
     </g>
    </g>
    <g id="patch_8">
     <path d="M 108.3375 164.828438 
L 152.3375 164.828438 
L 152.3375 149.428438 
L 108.3375 149.428438 
z
" style="fill: #58508d; fill-opacity: 0.7; stroke: #58508d; stroke-opacity: 0.7; stroke-width: 0.8; stroke-linejoin: miter"/>
    </g>
    <g id="text_22">
     <!-- Batch 0 -->
     <g style="fill: #262626" transform="translate(169.9375 164.828438) scale(0.22 -0.22)">
      <defs>
       <path id="DejaVuSans-42" d="M 1259 2228 
L 1259 519 
L 2272 519 
Q 2781 519 3026 730 
Q 3272 941 3272 1375 
Q 3272 1813 3026 2020 
Q 2781 2228 2272 2228 
L 1259 2228 
z
M 1259 4147 
L 1259 2741 
L 2194 2741 
Q 2656 2741 2882 2914 
Q 3109 3088 3109 3444 
Q 3109 3797 2882 3972 
Q 2656 4147 2194 4147 
L 1259 4147 
z
M 628 4666 
L 2241 4666 
Q 2963 4666 3353 4366 
Q 3744 4066 3744 3513 
Q 3744 3084 3544 2831 
Q 3344 2578 2956 2516 
Q 3422 2416 3680 2098 
Q 3938 1781 3938 1306 
Q 3938 681 3513 340 
Q 3088 0 2303 0 
L 628 0 
L 628 4666 
z
" transform="scale(0.015625)"/>
       <path id="DejaVuSans-68" d="M 3513 2113 
L 3513 0 
L 2938 0 
L 2938 2094 
Q 2938 2591 2744 2837 
Q 2550 3084 2163 3084 
Q 1697 3084 1428 2787 
Q 1159 2491 1159 1978 
L 1159 0 
L 581 0 
L 581 4863 
L 1159 4863 
L 1159 2956 
Q 1366 3272 1645 3428 
Q 1925 3584 2291 3584 
Q 2894 3584 3203 3211 
Q 3513 2838 3513 2113 
z
" transform="scale(0.015625)"/>
      </defs>
      <use xlink:href="#DejaVuSans-42"/>
      <use xlink:href="#DejaVuSans-61" transform="translate(68.603516 0)"/>
      <use xlink:href="#DejaVuSans-74" transform="translate(129.882812 0)"/>
      <use xlink:href="#DejaVuSans-63" transform="translate(169.091797 0)"/>
      <use xlink:href="#DejaVuSans-68" transform="translate(224.072266 0)"/>
      <use xlink:href="#DejaVuSans-20" transform="translate(287.451172 0)"/>
      <use xlink:href="#DejaVuSans-30" transform="translate(319.238281 0)"/>
     </g>
    </g>
    <g id="patch_9">
     <path d="M 108.3375 197.120313 
L 152.3375 197.120313 
L 152.3375 181.720313 
L 108.3375 181.720313 
z
" style="fill: #ffa600; fill-opacity: 0.7; stroke: #ffa600; stroke-opacity: 0.7; stroke-width: 0.8; stroke-linejoin: miter"/>
    </g>
    <g id="text_23">
     <!-- Batch 9 -->
     <g style="fill: #262626" transform="translate(169.9375 197.120313) scale(0.22 -0.22)">
      <use xlink:href="#DejaVuSans-42"/>
      <use xlink:href="#DejaVuSans-61" transform="translate(68.603516 0)"/>
      <use xlink:href="#DejaVuSans-74" transform="translate(129.882812 0)"/>
      <use xlink:href="#DejaVuSans-63" transform="translate(169.091797 0)"/>
      <use xlink:href="#DejaVuSans-68" transform="translate(224.072266 0)"/>
      <use xlink:href="#DejaVuSans-20" transform="translate(287.451172 0)"/>
      <use xlink:href="#DejaVuSans-39" transform="translate(319.238281 0)"/>
     </g>
    </g>
   </g>
  </g>
 </g>
 <defs>
  <clipPath id="p0cca61b5f7">
   <rect x="88.5375" y="31.43625" width="1024.092898" height="542.004"/>
  </clipPath>
 </defs>
</svg>
