<?xml version="1.0" encoding="utf-8" standalone="no"?>
<!DOCTYPE svg PUBLIC "-//W3C//DTD SVG 1.1//EN"
  "http://www.w3.org/Graphics/SVG/1.1/DTD/svg11.dtd">
<svg xmlns:xlink="http://www.w3.org/1999/xlink" width="1144.44044pt" height="641.330875pt" viewBox="0 0 1144.44044 641.330875" xmlns="http://www.w3.org/2000/svg" version="1.1">
 <metadata>
  <rdf:RDF xmlns:dc="http://purl.org/dc/elements/1.1/" xmlns:cc="http://creativecommons.org/ns#" xmlns:rdf="http://www.w3.org/1999/02/22-rdf-syntax-ns#">
   <cc:Work>
    <dc:type rdf:resource="http://purl.org/dc/dcmitype/StillImage"/>
    <dc:date>2025-07-08T08:17:40.148396</dc:date>
    <dc:format>image/svg+xml</dc:format>
    <dc:creator>
     <cc:Agent>
      <dc:title>Matplotlib v3.10.3, https://matplotlib.org/</dc:title>
     </cc:Agent>
    </dc:creator>
   </cc:Work>
  </rdf:RDF>
 </metadata>
 <defs>
  <style type="text/css">*{stroke-linejoin: round; stroke-linecap: butt}</style>
 </defs>
 <g id="figure_1">
  <g id="patch_1">
   <path d="M 0 641.330875 
L 1144.44044 641.330875 
L 1144.44044 0 
L 0 0 
z
" style="fill: #ffffff"/>
  </g>
  <g id="axes_1">
   <g id="patch_2">
    <path d="M 119.265 573.44025 
L 1112.847898 573.44025 
L 1112.847898 31.43625 
L 119.265 31.43625 
z
" style="fill: #eaeaf2"/>
   </g>
   <g id="matplotlib.axis_1">
    <g id="xtick_1">
     <g id="line2d_1">
      <path d="M 124.25981 573.44025 
L 124.25981 31.43625 
" clip-path="url(#p74671b3f0f)" style="fill: none; stroke: #ffffff; stroke-width: 0.8; stroke-linecap: round"/>
     </g>
     <g id="text_1">
      <!-- 2023 -->
      <g style="fill: #262626" transform="translate(93.71981 599.9765) scale(0.24 -0.24)">
       <defs>
        <path id="DejaVuSans-32" d="M 1228 531 
L 3431 531 
L 3431 0 
L 469 0 
L 469 531 
Q 828 903 1448 1529 
Q 2069 2156 2228 2338 
Q 2531 2678 2651 2914 
Q 2772 3150 2772 3378 
Q 2772 3750 2511 3984 
Q 2250 4219 1831 4219 
Q 1534 4219 1204 4116 
Q 875 4013 500 3803 
L 500 4441 
Q 881 4594 1212 4672 
Q 1544 4750 1819 4750 
Q 2544 4750 2975 4387 
Q 3406 4025 3406 3419 
Q 3406 3131 3298 2873 
Q 3191 2616 2906 2266 
Q 2828 2175 2409 1742 
Q 1991 1309 1228 531 
z
" transform="scale(0.015625)"/>
        <path id="DejaVuSans-30" d="M 2034 4250 
Q 1547 4250 1301 3770 
Q 1056 3291 1056 2328 
Q 1056 1369 1301 889 
Q 1547 409 2034 409 
Q 2525 409 2770 889 
Q 3016 1369 3016 2328 
Q 3016 3291 2770 3770 
Q 2525 4250 2034 4250 
z
M 2034 4750 
Q 2819 4750 3233 4129 
Q 3647 3509 3647 2328 
Q 3647 1150 3233 529 
Q 2819 -91 2034 -91 
Q 1250 -91 836 529 
Q 422 1150 422 2328 
Q 422 3509 836 4129 
Q 1250 4750 2034 4750 
z
" transform="scale(0.015625)"/>
        <path id="DejaVuSans-33" d="M 2597 2516 
Q 3050 2419 3304 2112 
Q 3559 1806 3559 1356 
Q 3559 666 3084 287 
Q 2609 -91 1734 -91 
Q 1441 -91 1130 -33 
Q 819 25 488 141 
L 488 750 
Q 750 597 1062 519 
Q 1375 441 1716 441 
Q 2309 441 2620 675 
Q 2931 909 2931 1356 
Q 2931 1769 2642 2001 
Q 2353 2234 1838 2234 
L 1294 2234 
L 1294 2753 
L 1863 2753 
Q 2328 2753 2575 2939 
Q 2822 3125 2822 3475 
Q 2822 3834 2567 4026 
Q 2313 4219 1838 4219 
Q 1578 4219 1281 4162 
Q 984 4106 628 3988 
L 628 4550 
Q 988 4650 1302 4700 
Q 1616 4750 1894 4750 
Q 2613 4750 3031 4423 
Q 3450 4097 3450 3541 
Q 3450 3153 3228 2886 
Q 3006 2619 2597 2516 
z
" transform="scale(0.015625)"/>
       </defs>
       <use xlink:href="#DejaVuSans-32"/>
       <use xlink:href="#DejaVuSans-30" transform="translate(63.623047 0)"/>
       <use xlink:href="#DejaVuSans-32" transform="translate(127.246094 0)"/>
       <use xlink:href="#DejaVuSans-33" transform="translate(190.869141 0)"/>
      </g>
     </g>
    </g>
    <g id="xtick_2">
     <g id="line2d_2">
      <path d="M 264.498695 573.44025 
L 264.498695 31.43625 
" clip-path="url(#p74671b3f0f)" style="fill: none; stroke: #ffffff; stroke-width: 0.8; stroke-linecap: round"/>
     </g>
     <g id="text_2">
      <!-- 2024 -->
      <g style="fill: #262626" transform="translate(233.958695 599.9765) scale(0.24 -0.24)">
       <defs>
        <path id="DejaVuSans-34" d="M 2419 4116 
L 825 1625 
L 2419 1625 
L 2419 4116 
z
M 2253 4666 
L 3047 4666 
L 3047 1625 
L 3713 1625 
L 3713 1100 
L 3047 1100 
L 3047 0 
L 2419 0 
L 2419 1100 
L 313 1100 
L 313 1709 
L 2253 4666 
z
" transform="scale(0.015625)"/>
       </defs>
       <use xlink:href="#DejaVuSans-32"/>
       <use xlink:href="#DejaVuSans-30" transform="translate(63.623047 0)"/>
       <use xlink:href="#DejaVuSans-32" transform="translate(127.246094 0)"/>
       <use xlink:href="#DejaVuSans-34" transform="translate(190.869141 0)"/>
      </g>
     </g>
    </g>
    <g id="xtick_3">
     <g id="line2d_3">
      <path d="M 405.121797 573.44025 
L 405.121797 31.43625 
" clip-path="url(#p74671b3f0f)" style="fill: none; stroke: #ffffff; stroke-width: 0.8; stroke-linecap: round"/>
     </g>
     <g id="text_3">
      <!-- 2025 -->
      <g style="fill: #262626" transform="translate(374.581797 599.9765) scale(0.24 -0.24)">
       <defs>
        <path id="DejaVuSans-35" d="M 691 4666 
L 3169 4666 
L 3169 4134 
L 1269 4134 
L 1269 2991 
Q 1406 3038 1543 3061 
Q 1681 3084 1819 3084 
Q 2600 3084 3056 2656 
Q 3513 2228 3513 1497 
Q 3513 744 3044 326 
Q 2575 -91 1722 -91 
Q 1428 -91 1123 -41 
Q 819 9 494 109 
L 494 744 
Q 775 591 1075 516 
Q 1375 441 1709 441 
Q 2250 441 2565 725 
Q 2881 1009 2881 1497 
Q 2881 1984 2565 2268 
Q 2250 2553 1709 2553 
Q 1456 2553 1204 2497 
Q 953 2441 691 2322 
L 691 4666 
z
" transform="scale(0.015625)"/>
       </defs>
       <use xlink:href="#DejaVuSans-32"/>
       <use xlink:href="#DejaVuSans-30" transform="translate(63.623047 0)"/>
       <use xlink:href="#DejaVuSans-32" transform="translate(127.246094 0)"/>
       <use xlink:href="#DejaVuSans-35" transform="translate(190.869141 0)"/>
      </g>
     </g>
    </g>
    <g id="xtick_4">
     <g id="line2d_4">
      <path d="M 545.360682 573.44025 
L 545.360682 31.43625 
" clip-path="url(#p74671b3f0f)" style="fill: none; stroke: #ffffff; stroke-width: 0.8; stroke-linecap: round"/>
     </g>
     <g id="text_4">
      <!-- 2026 -->
      <g style="fill: #262626" transform="translate(514.820682 599.9765) scale(0.24 -0.24)">
       <defs>
        <path id="DejaVuSans-36" d="M 2113 2584 
Q 1688 2584 1439 2293 
Q 1191 2003 1191 1497 
Q 1191 994 1439 701 
Q 1688 409 2113 409 
Q 2538 409 2786 701 
Q 3034 994 3034 1497 
Q 3034 2003 2786 2293 
Q 2538 2584 2113 2584 
z
M 3366 4563 
L 3366 3988 
Q 3128 4100 2886 4159 
Q 2644 4219 2406 4219 
Q 1781 4219 1451 3797 
Q 1122 3375 1075 2522 
Q 1259 2794 1537 2939 
Q 1816 3084 2150 3084 
Q 2853 3084 3261 2657 
Q 3669 2231 3669 1497 
Q 3669 778 3244 343 
Q 2819 -91 2113 -91 
Q 1303 -91 875 529 
Q 447 1150 447 2328 
Q 447 3434 972 4092 
Q 1497 4750 2381 4750 
Q 2619 4750 2861 4703 
Q 3103 4656 3366 4563 
z
" transform="scale(0.015625)"/>
       </defs>
       <use xlink:href="#DejaVuSans-32"/>
       <use xlink:href="#DejaVuSans-30" transform="translate(63.623047 0)"/>
       <use xlink:href="#DejaVuSans-32" transform="translate(127.246094 0)"/>
       <use xlink:href="#DejaVuSans-36" transform="translate(190.869141 0)"/>
      </g>
     </g>
    </g>
    <g id="xtick_5">
     <g id="line2d_5">
      <path d="M 685.599567 573.44025 
L 685.599567 31.43625 
" clip-path="url(#p74671b3f0f)" style="fill: none; stroke: #ffffff; stroke-width: 0.8; stroke-linecap: round"/>
     </g>
     <g id="text_5">
      <!-- 2027 -->
      <g style="fill: #262626" transform="translate(655.059567 599.9765) scale(0.24 -0.24)">
       <defs>
        <path id="DejaVuSans-37" d="M 525 4666 
L 3525 4666 
L 3525 4397 
L 1831 0 
L 1172 0 
L 2766 4134 
L 525 4134 
L 525 4666 
z
" transform="scale(0.015625)"/>
       </defs>
       <use xlink:href="#DejaVuSans-32"/>
       <use xlink:href="#DejaVuSans-30" transform="translate(63.623047 0)"/>
       <use xlink:href="#DejaVuSans-32" transform="translate(127.246094 0)"/>
       <use xlink:href="#DejaVuSans-37" transform="translate(190.869141 0)"/>
      </g>
     </g>
    </g>
    <g id="xtick_6">
     <g id="line2d_6">
      <path d="M 825.838453 573.44025 
L 825.838453 31.43625 
" clip-path="url(#p74671b3f0f)" style="fill: none; stroke: #ffffff; stroke-width: 0.8; stroke-linecap: round"/>
     </g>
     <g id="text_6">
      <!-- 2028 -->
      <g style="fill: #262626" transform="translate(795.298453 599.9765) scale(0.24 -0.24)">
       <defs>
        <path id="DejaVuSans-38" d="M 2034 2216 
Q 1584 2216 1326 1975 
Q 1069 1734 1069 1313 
Q 1069 891 1326 650 
Q 1584 409 2034 409 
Q 2484 409 2743 651 
Q 3003 894 3003 1313 
Q 3003 1734 2745 1975 
Q 2488 2216 2034 2216 
z
M 1403 2484 
Q 997 2584 770 2862 
Q 544 3141 544 3541 
Q 544 4100 942 4425 
Q 1341 4750 2034 4750 
Q 2731 4750 3128 4425 
Q 3525 4100 3525 3541 
Q 3525 3141 3298 2862 
Q 3072 2584 2669 2484 
Q 3125 2378 3379 2068 
Q 3634 1759 3634 1313 
Q 3634 634 3220 271 
Q 2806 -91 2034 -91 
Q 1263 -91 848 271 
Q 434 634 434 1313 
Q 434 1759 690 2068 
Q 947 2378 1403 2484 
z
M 1172 3481 
Q 1172 3119 1398 2916 
Q 1625 2713 2034 2713 
Q 2441 2713 2670 2916 
Q 2900 3119 2900 3481 
Q 2900 3844 2670 4047 
Q 2441 4250 2034 4250 
Q 1625 4250 1398 4047 
Q 1172 3844 1172 3481 
z
" transform="scale(0.015625)"/>
       </defs>
       <use xlink:href="#DejaVuSans-32"/>
       <use xlink:href="#DejaVuSans-30" transform="translate(63.623047 0)"/>
       <use xlink:href="#DejaVuSans-32" transform="translate(127.246094 0)"/>
       <use xlink:href="#DejaVuSans-38" transform="translate(190.869141 0)"/>
      </g>
     </g>
    </g>
    <g id="xtick_7">
     <g id="line2d_7">
      <path d="M 966.461554 573.44025 
L 966.461554 31.43625 
" clip-path="url(#p74671b3f0f)" style="fill: none; stroke: #ffffff; stroke-width: 0.8; stroke-linecap: round"/>
     </g>
     <g id="text_7">
      <!-- 2029 -->
      <g style="fill: #262626" transform="translate(935.921554 599.9765) scale(0.24 -0.24)">
       <defs>
        <path id="DejaVuSans-39" d="M 703 97 
L 703 672 
Q 941 559 1184 500 
Q 1428 441 1663 441 
Q 2288 441 2617 861 
Q 2947 1281 2994 2138 
Q 2813 1869 2534 1725 
Q 2256 1581 1919 1581 
Q 1219 1581 811 2004 
Q 403 2428 403 3163 
Q 403 3881 828 4315 
Q 1253 4750 1959 4750 
Q 2769 4750 3195 4129 
Q 3622 3509 3622 2328 
Q 3622 1225 3098 567 
Q 2575 -91 1691 -91 
Q 1453 -91 1209 -44 
Q 966 3 703 97 
z
M 1959 2075 
Q 2384 2075 2632 2365 
Q 2881 2656 2881 3163 
Q 2881 3666 2632 3958 
Q 2384 4250 1959 4250 
Q 1534 4250 1286 3958 
Q 1038 3666 1038 3163 
Q 1038 2656 1286 2365 
Q 1534 2075 1959 2075 
z
" transform="scale(0.015625)"/>
       </defs>
       <use xlink:href="#DejaVuSans-32"/>
       <use xlink:href="#DejaVuSans-30" transform="translate(63.623047 0)"/>
       <use xlink:href="#DejaVuSans-32" transform="translate(127.246094 0)"/>
       <use xlink:href="#DejaVuSans-39" transform="translate(190.869141 0)"/>
      </g>
     </g>
    </g>
    <g id="xtick_8">
     <g id="line2d_8">
      <path d="M 1106.70044 573.44025 
L 1106.70044 31.43625 
" clip-path="url(#p74671b3f0f)" style="fill: none; stroke: #ffffff; stroke-width: 0.8; stroke-linecap: round"/>
     </g>
     <g id="text_8">
      <!-- 2030 -->
      <g style="fill: #262626" transform="translate(1076.16044 599.9765) scale(0.24 -0.24)">
       <use xlink:href="#DejaVuSans-32"/>
       <use xlink:href="#DejaVuSans-30" transform="translate(63.623047 0)"/>
       <use xlink:href="#DejaVuSans-33" transform="translate(127.246094 0)"/>
       <use xlink:href="#DejaVuSans-30" transform="translate(190.869141 0)"/>
      </g>
     </g>
    </g>
    <g id="text_9">
     <!-- Date -->
     <g style="fill: #262626" transform="translate(581.460199 628.723687) scale(0.26 -0.26)">
      <defs>
       <path id="DejaVuSans-Bold-44" d="M 1791 3756 
L 1791 909 
L 2222 909 
Q 2959 909 3348 1275 
Q 3738 1641 3738 2338 
Q 3738 3031 3350 3393 
Q 2963 3756 2222 3756 
L 1791 3756 
z
M 588 4666 
L 1856 4666 
Q 2919 4666 3439 4514 
Q 3959 4363 4331 4000 
Q 4659 3684 4818 3271 
Q 4978 2859 4978 2338 
Q 4978 1809 4818 1395 
Q 4659 981 4331 666 
Q 3956 303 3431 151 
Q 2906 0 1856 0 
L 588 0 
L 588 4666 
z
" transform="scale(0.015625)"/>
       <path id="DejaVuSans-Bold-61" d="M 2106 1575 
Q 1756 1575 1579 1456 
Q 1403 1338 1403 1106 
Q 1403 894 1545 773 
Q 1688 653 1941 653 
Q 2256 653 2472 879 
Q 2688 1106 2688 1447 
L 2688 1575 
L 2106 1575 
z
M 3816 1997 
L 3816 0 
L 2688 0 
L 2688 519 
Q 2463 200 2181 54 
Q 1900 -91 1497 -91 
Q 953 -91 614 226 
Q 275 544 275 1050 
Q 275 1666 698 1953 
Q 1122 2241 2028 2241 
L 2688 2241 
L 2688 2328 
Q 2688 2594 2478 2717 
Q 2269 2841 1825 2841 
Q 1466 2841 1156 2769 
Q 847 2697 581 2553 
L 581 3406 
Q 941 3494 1303 3539 
Q 1666 3584 2028 3584 
Q 2975 3584 3395 3211 
Q 3816 2838 3816 1997 
z
" transform="scale(0.015625)"/>
       <path id="DejaVuSans-Bold-74" d="M 1759 4494 
L 1759 3500 
L 2913 3500 
L 2913 2700 
L 1759 2700 
L 1759 1216 
Q 1759 972 1856 886 
Q 1953 800 2241 800 
L 2816 800 
L 2816 0 
L 1856 0 
Q 1194 0 917 276 
Q 641 553 641 1216 
L 641 2700 
L 84 2700 
L 84 3500 
L 641 3500 
L 641 4494 
L 1759 4494 
z
" transform="scale(0.015625)"/>
       <path id="DejaVuSans-Bold-65" d="M 4031 1759 
L 4031 1441 
L 1416 1441 
Q 1456 1047 1700 850 
Q 1944 653 2381 653 
Q 2734 653 3104 758 
Q 3475 863 3866 1075 
L 3866 213 
Q 3469 63 3072 -14 
Q 2675 -91 2278 -91 
Q 1328 -91 801 392 
Q 275 875 275 1747 
Q 275 2603 792 3093 
Q 1309 3584 2216 3584 
Q 3041 3584 3536 3087 
Q 4031 2591 4031 1759 
z
M 2881 2131 
Q 2881 2450 2695 2645 
Q 2509 2841 2209 2841 
Q 1884 2841 1681 2658 
Q 1478 2475 1428 2131 
L 2881 2131 
z
" transform="scale(0.015625)"/>
      </defs>
      <use xlink:href="#DejaVuSans-Bold-44"/>
      <use xlink:href="#DejaVuSans-Bold-61" transform="translate(83.007812 0)"/>
      <use xlink:href="#DejaVuSans-Bold-74" transform="translate(150.488281 0)"/>
      <use xlink:href="#DejaVuSans-Bold-65" transform="translate(198.291016 0)"/>
     </g>
    </g>
   </g>
   <g id="matplotlib.axis_2">
    <g id="ytick_1">
     <g id="line2d_9">
      <path d="M 119.265 548.803705 
L 1112.847898 548.803705 
" clip-path="url(#p74671b3f0f)" style="fill: none; stroke: #ffffff; stroke-width: 0.8; stroke-linecap: round"/>
     </g>
     <g id="text_10">
      <!-- 0 -->
      <g style="fill: #262626" transform="translate(95.695 557.92183) scale(0.24 -0.24)">
       <use xlink:href="#DejaVuSans-30"/>
      </g>
     </g>
    </g>
    <g id="ytick_2">
     <g id="line2d_10">
      <path d="M 119.265 461.265609 
L 1112.847898 461.265609 
" clip-path="url(#p74671b3f0f)" style="fill: none; stroke: #ffffff; stroke-width: 0.8; stroke-linecap: round"/>
     </g>
     <g id="text_11">
      <!-- 2000 -->
      <g style="fill: #262626" transform="translate(49.885 470.383734) scale(0.24 -0.24)">
       <use xlink:href="#DejaVuSans-32"/>
       <use xlink:href="#DejaVuSans-30" transform="translate(63.623047 0)"/>
       <use xlink:href="#DejaVuSans-30" transform="translate(127.246094 0)"/>
       <use xlink:href="#DejaVuSans-30" transform="translate(190.869141 0)"/>
      </g>
     </g>
    </g>
    <g id="ytick_3">
     <g id="line2d_11">
      <path d="M 119.265 373.727514 
L 1112.847898 373.727514 
" clip-path="url(#p74671b3f0f)" style="fill: none; stroke: #ffffff; stroke-width: 0.8; stroke-linecap: round"/>
     </g>
     <g id="text_12">
      <!-- 4000 -->
      <g style="fill: #262626" transform="translate(49.885 382.845639) scale(0.24 -0.24)">
       <use xlink:href="#DejaVuSans-34"/>
       <use xlink:href="#DejaVuSans-30" transform="translate(63.623047 0)"/>
       <use xlink:href="#DejaVuSans-30" transform="translate(127.246094 0)"/>
       <use xlink:href="#DejaVuSans-30" transform="translate(190.869141 0)"/>
      </g>
     </g>
    </g>
    <g id="ytick_4">
     <g id="line2d_12">
      <path d="M 119.265 286.189418 
L 1112.847898 286.189418 
" clip-path="url(#p74671b3f0f)" style="fill: none; stroke: #ffffff; stroke-width: 0.8; stroke-linecap: round"/>
     </g>
     <g id="text_13">
      <!-- 6000 -->
      <g style="fill: #262626" transform="translate(49.885 295.307543) scale(0.24 -0.24)">
       <use xlink:href="#DejaVuSans-36"/>
       <use xlink:href="#DejaVuSans-30" transform="translate(63.623047 0)"/>
       <use xlink:href="#DejaVuSans-30" transform="translate(127.246094 0)"/>
       <use xlink:href="#DejaVuSans-30" transform="translate(190.869141 0)"/>
      </g>
     </g>
    </g>
    <g id="ytick_5">
     <g id="line2d_13">
      <path d="M 119.265 198.651323 
L 1112.847898 198.651323 
" clip-path="url(#p74671b3f0f)" style="fill: none; stroke: #ffffff; stroke-width: 0.8; stroke-linecap: round"/>
     </g>
     <g id="text_14">
      <!-- 8000 -->
      <g style="fill: #262626" transform="translate(49.885 207.769448) scale(0.24 -0.24)">
       <use xlink:href="#DejaVuSans-38"/>
       <use xlink:href="#DejaVuSans-30" transform="translate(63.623047 0)"/>
       <use xlink:href="#DejaVuSans-30" transform="translate(127.246094 0)"/>
       <use xlink:href="#DejaVuSans-30" transform="translate(190.869141 0)"/>
      </g>
     </g>
    </g>
    <g id="ytick_6">
     <g id="line2d_14">
      <path d="M 119.265 111.113228 
L 1112.847898 111.113228 
" clip-path="url(#p74671b3f0f)" style="fill: none; stroke: #ffffff; stroke-width: 0.8; stroke-linecap: round"/>
     </g>
     <g id="text_15">
      <!-- 10000 -->
      <g style="fill: #262626" transform="translate(34.615 120.231353) scale(0.24 -0.24)">
       <defs>
        <path id="DejaVuSans-31" d="M 794 531 
L 1825 531 
L 1825 4091 
L 703 3866 
L 703 4441 
L 1819 4666 
L 2450 4666 
L 2450 531 
L 3481 531 
L 3481 0 
L 794 0 
L 794 531 
z
" transform="scale(0.015625)"/>
       </defs>
       <use xlink:href="#DejaVuSans-31"/>
       <use xlink:href="#DejaVuSans-30" transform="translate(63.623047 0)"/>
       <use xlink:href="#DejaVuSans-30" transform="translate(127.246094 0)"/>
       <use xlink:href="#DejaVuSans-30" transform="translate(190.869141 0)"/>
       <use xlink:href="#DejaVuSans-30" transform="translate(254.492188 0)"/>
      </g>
     </g>
    </g>
    <g id="text_16">
     <!-- FWPR [Sm³/day] -->
     <g style="fill: #262626" transform="translate(25.43625 411.973875) rotate(-90) scale(0.24 -0.24)">
      <defs>
       <path id="DejaVuSans-Bold-46" d="M 588 4666 
L 3834 4666 
L 3834 3756 
L 1791 3756 
L 1791 2888 
L 3713 2888 
L 3713 1978 
L 1791 1978 
L 1791 0 
L 588 0 
L 588 4666 
z
" transform="scale(0.015625)"/>
       <path id="DejaVuSans-Bold-57" d="M 191 4666 
L 1344 4666 
L 2150 1275 
L 2950 4666 
L 4109 4666 
L 4909 1275 
L 5716 4666 
L 6859 4666 
L 5759 0 
L 4372 0 
L 3525 3547 
L 2688 0 
L 1300 0 
L 191 4666 
z
" transform="scale(0.015625)"/>
       <path id="DejaVuSans-Bold-50" d="M 588 4666 
L 2584 4666 
Q 3475 4666 3951 4270 
Q 4428 3875 4428 3144 
Q 4428 2409 3951 2014 
Q 3475 1619 2584 1619 
L 1791 1619 
L 1791 0 
L 588 0 
L 588 4666 
z
M 1791 3794 
L 1791 2491 
L 2456 2491 
Q 2806 2491 2997 2661 
Q 3188 2831 3188 3144 
Q 3188 3456 2997 3625 
Q 2806 3794 2456 3794 
L 1791 3794 
z
" transform="scale(0.015625)"/>
       <path id="DejaVuSans-Bold-52" d="M 2297 2597 
Q 2675 2597 2839 2737 
Q 3003 2878 3003 3200 
Q 3003 3519 2839 3656 
Q 2675 3794 2297 3794 
L 1791 3794 
L 1791 2597 
L 2297 2597 
z
M 1791 1766 
L 1791 0 
L 588 0 
L 588 4666 
L 2425 4666 
Q 3347 4666 3776 4356 
Q 4206 4047 4206 3378 
Q 4206 2916 3982 2619 
Q 3759 2322 3309 2181 
Q 3556 2125 3751 1926 
Q 3947 1728 4147 1325 
L 4800 0 
L 3519 0 
L 2950 1159 
Q 2778 1509 2601 1637 
Q 2425 1766 2131 1766 
L 1791 1766 
z
" transform="scale(0.015625)"/>
       <path id="DejaVuSans-Bold-20" transform="scale(0.015625)"/>
       <path id="DejaVuSans-Bold-5b" d="M 550 4863 
L 2491 4863 
L 2491 4159 
L 1613 4159 
L 1613 -141 
L 2491 -141 
L 2491 -844 
L 550 -844 
L 550 4863 
z
" transform="scale(0.015625)"/>
       <path id="DejaVuSans-Bold-53" d="M 3834 4519 
L 3834 3531 
Q 3450 3703 3084 3790 
Q 2719 3878 2394 3878 
Q 1963 3878 1756 3759 
Q 1550 3641 1550 3391 
Q 1550 3203 1689 3098 
Q 1828 2994 2194 2919 
L 2706 2816 
Q 3484 2659 3812 2340 
Q 4141 2022 4141 1434 
Q 4141 663 3683 286 
Q 3225 -91 2284 -91 
Q 1841 -91 1394 -6 
Q 947 78 500 244 
L 500 1259 
Q 947 1022 1364 901 
Q 1781 781 2169 781 
Q 2563 781 2772 912 
Q 2981 1044 2981 1288 
Q 2981 1506 2839 1625 
Q 2697 1744 2272 1838 
L 1806 1941 
Q 1106 2091 782 2419 
Q 459 2747 459 3303 
Q 459 4000 909 4375 
Q 1359 4750 2203 4750 
Q 2588 4750 2994 4692 
Q 3400 4634 3834 4519 
z
" transform="scale(0.015625)"/>
       <path id="DejaVuSans-Bold-6d" d="M 3781 2919 
Q 3994 3244 4286 3414 
Q 4578 3584 4928 3584 
Q 5531 3584 5847 3212 
Q 6163 2841 6163 2131 
L 6163 0 
L 5038 0 
L 5038 1825 
Q 5041 1866 5042 1909 
Q 5044 1953 5044 2034 
Q 5044 2406 4934 2573 
Q 4825 2741 4581 2741 
Q 4263 2741 4089 2478 
Q 3916 2216 3909 1719 
L 3909 0 
L 2784 0 
L 2784 1825 
Q 2784 2406 2684 2573 
Q 2584 2741 2328 2741 
Q 2006 2741 1831 2477 
Q 1656 2213 1656 1722 
L 1656 0 
L 531 0 
L 531 3500 
L 1656 3500 
L 1656 2988 
Q 1863 3284 2130 3434 
Q 2397 3584 2719 3584 
Q 3081 3584 3359 3409 
Q 3638 3234 3781 2919 
z
" transform="scale(0.015625)"/>
       <path id="DejaVuSans-Bold-b3" d="M 1850 3500 
Q 2138 3444 2297 3272 
Q 2456 3100 2456 2847 
Q 2456 2444 2147 2242 
Q 1838 2041 1209 2041 
Q 956 2041 725 2077 
Q 494 2113 281 2181 
L 281 2725 
Q 488 2613 688 2555 
Q 888 2497 1075 2497 
Q 1372 2497 1534 2597 
Q 1697 2697 1697 2881 
Q 1697 3081 1530 3176 
Q 1363 3272 1006 3272 
L 775 3272 
L 775 3700 
L 1038 3700 
Q 1344 3700 1484 3773 
Q 1625 3847 1625 4006 
Q 1625 4147 1503 4217 
Q 1381 4288 1131 4288 
Q 969 4288 776 4247 
Q 584 4206 366 4122 
L 366 4641 
Q 569 4694 805 4722 
Q 1041 4750 1313 4750 
Q 1834 4750 2111 4575 
Q 2388 4400 2388 4072 
Q 2388 3856 2247 3706 
Q 2106 3556 1850 3500 
z
" transform="scale(0.015625)"/>
       <path id="DejaVuSans-Bold-2f" d="M 1644 4666 
L 2338 4666 
L 691 -594 
L 0 -594 
L 1644 4666 
z
" transform="scale(0.015625)"/>
       <path id="DejaVuSans-Bold-64" d="M 2919 2988 
L 2919 4863 
L 4044 4863 
L 4044 0 
L 2919 0 
L 2919 506 
Q 2688 197 2409 53 
Q 2131 -91 1766 -91 
Q 1119 -91 703 423 
Q 288 938 288 1747 
Q 288 2556 703 3070 
Q 1119 3584 1766 3584 
Q 2128 3584 2408 3439 
Q 2688 3294 2919 2988 
z
M 2181 722 
Q 2541 722 2730 984 
Q 2919 1247 2919 1747 
Q 2919 2247 2730 2509 
Q 2541 2772 2181 2772 
Q 1825 2772 1636 2509 
Q 1447 2247 1447 1747 
Q 1447 1247 1636 984 
Q 1825 722 2181 722 
z
" transform="scale(0.015625)"/>
       <path id="DejaVuSans-Bold-79" d="M 78 3500 
L 1197 3500 
L 2138 1125 
L 2938 3500 
L 4056 3500 
L 2584 -331 
Q 2363 -916 2067 -1148 
Q 1772 -1381 1288 -1381 
L 641 -1381 
L 641 -647 
L 991 -647 
Q 1275 -647 1404 -556 
Q 1534 -466 1606 -231 
L 1638 -134 
L 78 3500 
z
" transform="scale(0.015625)"/>
       <path id="DejaVuSans-Bold-5d" d="M 2375 -844 
L 434 -844 
L 434 -141 
L 1313 -141 
L 1313 4159 
L 434 4159 
L 434 4863 
L 2375 4863 
L 2375 -844 
z
" transform="scale(0.015625)"/>
      </defs>
      <use xlink:href="#DejaVuSans-Bold-46"/>
      <use xlink:href="#DejaVuSans-Bold-57" transform="translate(68.310547 0)"/>
      <use xlink:href="#DejaVuSans-Bold-50" transform="translate(178.613281 0)"/>
      <use xlink:href="#DejaVuSans-Bold-52" transform="translate(251.904297 0)"/>
      <use xlink:href="#DejaVuSans-Bold-20" transform="translate(328.90625 0)"/>
      <use xlink:href="#DejaVuSans-Bold-5b" transform="translate(363.720703 0)"/>
      <use xlink:href="#DejaVuSans-Bold-53" transform="translate(409.423828 0)"/>
      <use xlink:href="#DejaVuSans-Bold-6d" transform="translate(481.445312 0)"/>
      <use xlink:href="#DejaVuSans-Bold-b3" transform="translate(585.644531 0)"/>
      <use xlink:href="#DejaVuSans-Bold-2f" transform="translate(629.443359 0)"/>
      <use xlink:href="#DejaVuSans-Bold-64" transform="translate(665.966797 0)"/>
      <use xlink:href="#DejaVuSans-Bold-61" transform="translate(737.548828 0)"/>
      <use xlink:href="#DejaVuSans-Bold-79" transform="translate(801.904297 0)"/>
      <use xlink:href="#DejaVuSans-Bold-5d" transform="translate(867.089844 0)"/>
     </g>
    </g>
   </g>
   <g id="FillBetweenPolyCollection_1">
    <defs>
     <path id="m13af11df0e" d="M 78.538091 -92.52717 
L 78.538091 -92.52717 
L 79.690739 -92.52717 
L 83.148684 -92.52717 
L 93.52252 -92.52717 
L 105.049003 -92.52717 
L 116.575487 -92.52717 
L 124.25981 -92.52717 
L 158.839261 -92.604035 
L 164.794611 -92.606354 
L 170.749961 -92.602262 
L 193.802928 -92.761456 
L 217.240112 -93.119213 
L 229.150812 -94.34547 
L 263.730263 -105.274676 
L 264.498695 -106.266712 
L 299.462362 -130.887548 
L 310.220414 -135.274679 
L 334.42603 -149.046203 
L 356.710565 -158.138277 
L 369.773913 -167.159717 
L 405.121797 -189.093882 
L 439.701248 -219.54297 
L 474.664915 -249.904605 
L 510.012799 -282.741468 
L 545.360682 -306.082808 
L 579.940133 -329.259075 
L 614.903801 -349.6129 
L 650.251684 -373.461795 
L 685.599567 -390.252204 
L 720.179019 -407.126903 
L 731.705502 -412.554671 
L 743.231986 -417.376918 
L 749.187336 -419.917916 
L 755.142686 -422.512707 
L 790.490569 -436.755108 
L 825.838453 -449.832949 
L 837.364937 -453.083121 
L 860.80212 -461.014722 
L 872.328604 -464.847891 
L 895.765788 -469.493009 
L 907.292271 -471.389654 
L 931.113671 -476.97944 
L 942.640155 -479.618448 
L 954.166639 -482.299388 
L 960.314096 -483.365489 
L 966.461554 -484.092893 
L 1001.041006 -488.252619 
L 1036.004673 -494.786817 
L 1071.352556 -501.103024 
L 1082.87904 -503.048652 
L 1094.405524 -505.41124 
L 1100.552982 -507.047921 
L 1106.70044 -508.646303 
L 1106.70044 -575.078998 
L 1106.70044 -575.078998 
L 1100.552982 -574.455545 
L 1094.405524 -573.807558 
L 1082.87904 -572.575186 
L 1071.352556 -571.301737 
L 1036.004673 -567.104867 
L 1001.041006 -563.088501 
L 966.461554 -560.065488 
L 960.314096 -559.498328 
L 954.166639 -558.920824 
L 942.640155 -557.811681 
L 931.113671 -556.656973 
L 907.292271 -554.126917 
L 895.765788 -552.839534 
L 872.328604 -549.10771 
L 860.80212 -546.670364 
L 837.364937 -541.928133 
L 825.838453 -540.812877 
L 790.490569 -535.290027 
L 755.142686 -526.165334 
L 749.187336 -524.509206 
L 743.231986 -522.723608 
L 731.705502 -519.383568 
L 720.179019 -515.9951 
L 685.599567 -505.976519 
L 650.251684 -496.042954 
L 614.903801 -481.254017 
L 579.940133 -465.686555 
L 545.360682 -450.639599 
L 510.012799 -431.195306 
L 474.664915 -398.609314 
L 439.701248 -372.069456 
L 405.121797 -330.608563 
L 369.773913 -286.919082 
L 356.710565 -270.659212 
L 334.42603 -246.050364 
L 310.220414 -217.287325 
L 299.462362 -210.430823 
L 264.498695 -156.562591 
L 263.730263 -153.396313 
L 229.150812 -122.284898 
L 217.240112 -115.747625 
L 193.802928 -101.877665 
L 170.749961 -93.532455 
L 164.794611 -93.537658 
L 158.839261 -93.519642 
L 124.25981 -92.52717 
L 116.575487 -92.52717 
L 105.049003 -92.52717 
L 93.52252 -92.52717 
L 83.148684 -92.52717 
L 79.690739 -92.52717 
L 78.538091 -92.52717 
z
" style="stroke: #58508d; stroke-opacity: 0.7; stroke-width: 0.8"/>
    </defs>
    <g clip-path="url(#p74671b3f0f)">
     <use xlink:href="#m13af11df0e" x="0" y="641.330875" style="fill: #58508d; fill-opacity: 0.7; stroke: #58508d; stroke-opacity: 0.7; stroke-width: 0.8"/>
    </g>
   </g>
   <g id="FillBetweenPolyCollection_2">
    <defs>
     <path id="mb52d8ea432" d="M 78.538091 -92.52717 
L 78.538091 -92.52717 
L 79.690739 -92.52717 
L 83.148684 -92.52717 
L 93.52252 -92.52717 
L 105.049003 -92.52717 
L 116.575487 -92.52717 
L 124.25981 -92.52717 
L 158.839261 -92.604035 
L 164.794611 -92.606354 
L 170.749961 -92.602262 
L 193.802928 -93.163987 
L 217.240112 -93.533994 
L 229.150812 -93.933166 
L 263.730263 -97.137805 
L 264.498695 -97.417684 
L 299.462362 -106.687603 
L 310.220414 -111.404422 
L 334.42603 -126.138174 
L 356.710565 -148.262522 
L 369.773913 -166.74061 
L 405.121797 -207.454378 
L 439.701248 -255.458295 
L 474.664915 -284.422344 
L 510.012799 -322.493679 
L 545.360682 -347.9111 
L 579.940133 -368.861728 
L 614.903801 -391.842102 
L 650.251684 -410.11818 
L 685.599567 -423.461969 
L 720.179019 -437.773037 
L 731.705502 -441.890982 
L 743.231986 -446.545483 
L 749.187336 -447.920361 
L 755.142686 -449.667383 
L 790.490569 -460.506976 
L 825.838453 -468.324538 
L 837.364937 -471.370419 
L 860.80212 -477.253167 
L 872.328604 -479.782368 
L 895.765788 -483.372627 
L 907.292271 -485.437423 
L 931.113671 -491.426388 
L 942.640155 -493.559574 
L 954.166639 -495.546535 
L 960.314096 -496.819257 
L 966.461554 -498.078728 
L 1001.041006 -504.846004 
L 1036.004673 -509.826614 
L 1071.352556 -513.329463 
L 1082.87904 -515.137415 
L 1094.405524 -516.920833 
L 1100.552982 -517.859602 
L 1106.70044 -518.782898 
L 1106.70044 -585.25808 
L 1106.70044 -585.25808 
L 1100.552982 -584.831545 
L 1094.405524 -584.406036 
L 1082.87904 -583.590923 
L 1071.352556 -582.735461 
L 1036.004673 -579.989551 
L 1001.041006 -576.018451 
L 966.461554 -572.767103 
L 960.314096 -572.114713 
L 954.166639 -571.45869 
L 942.640155 -570.179044 
L 931.113671 -568.794976 
L 907.292271 -565.661771 
L 895.765788 -563.99641 
L 872.328604 -560.204446 
L 860.80212 -558.329087 
L 837.364937 -555.265853 
L 825.838453 -553.977615 
L 790.490569 -549.57515 
L 755.142686 -543.291 
L 749.187336 -542.099661 
L 743.231986 -540.881565 
L 731.705502 -538.435115 
L 720.179019 -536.572494 
L 685.599567 -529.35261 
L 650.251684 -518.847739 
L 614.903801 -507.36858 
L 579.940133 -492.639013 
L 545.360682 -480.210442 
L 510.012799 -461.97046 
L 474.664915 -437.386361 
L 439.701248 -407.317624 
L 405.121797 -370.504927 
L 369.773913 -314.144028 
L 356.710565 -286.304584 
L 334.42603 -252.428699 
L 310.220414 -216.312075 
L 299.462362 -199.808889 
L 264.498695 -157.104046 
L 263.730263 -155.946309 
L 229.150812 -127.718436 
L 217.240112 -114.809297 
L 193.802928 -100.826499 
L 170.749961 -93.532455 
L 164.794611 -93.537658 
L 158.839261 -93.519642 
L 124.25981 -92.52717 
L 116.575487 -92.52717 
L 105.049003 -92.52717 
L 93.52252 -92.52717 
L 83.148684 -92.52717 
L 79.690739 -92.52717 
L 78.538091 -92.52717 
z
" style="stroke: #ffa600; stroke-opacity: 0.7; stroke-width: 0.8"/>
    </defs>
    <g clip-path="url(#p74671b3f0f)">
     <use xlink:href="#mb52d8ea432" x="0" y="641.330875" style="fill: #ffa600; fill-opacity: 0.7; stroke: #ffa600; stroke-opacity: 0.7; stroke-width: 0.8"/>
    </g>
   </g>
   <g id="line2d_15">
    <path d="M 78.538091 548.803705 
L 79.690739 548.803705 
L 83.148684 548.803705 
L 93.52252 548.803705 
L 105.049003 548.803705 
L 116.575487 548.803705 
L 124.25981 548.803705 
L 158.839261 548.335292 
L 164.794611 548.344241 
L 170.749961 548.349707 
L 193.802928 545.655823 
L 217.240112 538.516175 
L 229.150812 533.924312 
L 263.730263 515.265877 
L 264.498695 511.63349 
L 299.462362 473.477662 
L 310.220414 465.228624 
L 334.42603 446.864989 
L 356.710565 430.724143 
L 369.773913 416.507712 
L 405.121797 377.488927 
L 439.701248 342.957237 
L 474.664915 311.618507 
L 510.012799 282.492897 
L 545.360682 257.902442 
L 579.940133 237.322792 
L 614.903801 218.92437 
L 650.251684 202.283307 
L 685.599567 187.437748 
L 720.179019 174.758394 
L 731.705502 170.883219 
L 743.231986 167.176252 
L 749.187336 165.304003 
L 755.142686 163.463184 
L 790.490569 153.538518 
L 825.838453 144.861998 
L 837.364937 142.238355 
L 860.80212 137.201884 
L 872.328604 134.846278 
L 895.765788 130.153306 
L 907.292271 127.894947 
L 931.113671 123.432319 
L 942.640155 121.401286 
L 954.166639 119.42839 
L 960.314096 118.392755 
L 966.461554 117.371573 
L 1001.041006 111.953104 
L 1036.004673 106.845091 
L 1071.352556 102.130415 
L 1082.87904 100.695286 
L 1094.405524 99.300231 
L 1100.552982 98.565471 
L 1106.70044 97.842542 
" clip-path="url(#p74671b3f0f)" style="fill: none; stroke: #000000; stroke-width: 4; stroke-linecap: round"/>
   </g>
   <g id="line2d_16">
    <path d="M 78.538091 548.803705 
L 79.690739 548.803705 
L 83.148684 548.803705 
L 93.52252 548.803705 
L 105.049003 548.803705 
L 116.575487 548.803705 
L 124.25981 548.803705 
L 158.839261 547.811233 
L 164.794611 547.793217 
L 170.749961 547.79842 
L 193.802928 539.45321 
L 217.240112 525.58325 
L 229.150812 519.045977 
L 263.730263 487.934562 
L 264.498695 484.768284 
L 299.462362 430.900052 
L 310.220414 424.04355 
L 334.42603 395.280511 
L 356.710565 370.671663 
L 369.773913 354.411793 
L 405.121797 310.722312 
L 439.701248 269.261419 
L 474.664915 242.721561 
L 510.012799 210.135569 
L 545.360682 190.691276 
L 579.940133 175.64432 
L 614.903801 160.076858 
L 650.251684 145.287921 
L 685.599567 135.354356 
L 720.179019 125.335775 
L 731.705502 121.947307 
L 743.231986 118.607267 
L 749.187336 116.821669 
L 755.142686 115.165541 
L 790.490569 106.040848 
L 825.838453 100.517998 
L 837.364937 99.402742 
L 860.80212 94.660511 
L 872.328604 92.223165 
L 895.765788 88.491341 
L 907.292271 87.203958 
L 931.113671 84.673902 
L 942.640155 83.519194 
L 954.166639 82.410051 
L 960.314096 81.832547 
L 966.461554 81.265387 
L 1001.041006 78.242374 
L 1036.004673 74.226008 
L 1071.352556 70.029138 
L 1082.87904 68.755689 
L 1094.405524 67.523317 
L 1100.552982 66.87533 
L 1106.70044 66.251877 
" clip-path="url(#p74671b3f0f)" style="fill: none; stroke-dasharray: 7.4,3.2; stroke-dashoffset: 0; stroke: #000000; stroke-width: 2"/>
   </g>
   <g id="line2d_17">
    <path d="M 78.538091 548.803705 
L 79.690739 548.803705 
L 83.148684 548.803705 
L 93.52252 548.803705 
L 105.049003 548.803705 
L 116.575487 548.803705 
L 124.25981 548.803705 
L 158.839261 548.72684 
L 164.794611 548.724521 
L 170.749961 548.728613 
L 193.802928 548.569419 
L 217.240112 548.211662 
L 229.150812 546.985405 
L 263.730263 536.056199 
L 264.498695 535.064163 
L 299.462362 510.443327 
L 310.220414 506.056196 
L 334.42603 492.284672 
L 356.710565 483.192598 
L 369.773913 474.171158 
L 405.121797 452.236993 
L 439.701248 421.787905 
L 474.664915 391.42627 
L 510.012799 358.589407 
L 545.360682 335.248067 
L 579.940133 312.0718 
L 614.903801 291.717975 
L 650.251684 267.86908 
L 685.599567 251.078671 
L 720.179019 234.203972 
L 731.705502 228.776204 
L 743.231986 223.953957 
L 749.187336 221.412959 
L 755.142686 218.818168 
L 790.490569 204.575767 
L 825.838453 191.497926 
L 837.364937 188.247754 
L 860.80212 180.316153 
L 872.328604 176.482984 
L 895.765788 171.837866 
L 907.292271 169.941221 
L 931.113671 164.351435 
L 942.640155 161.712427 
L 954.166639 159.031487 
L 960.314096 157.965386 
L 966.461554 157.237982 
L 1001.041006 153.078256 
L 1036.004673 146.544058 
L 1071.352556 140.227851 
L 1082.87904 138.282223 
L 1094.405524 135.919635 
L 1100.552982 134.282954 
L 1106.70044 132.684572 
" clip-path="url(#p74671b3f0f)" style="fill: none; stroke-dasharray: 2,3.3; stroke-dashoffset: 0; stroke: #000000; stroke-width: 2"/>
   </g>
   <g id="line2d_18">
    <path d="M 78.538091 548.803705 
L 79.690739 548.803705 
L 83.148684 548.803705 
L 93.52252 548.803705 
L 105.049003 548.803705 
L 116.575487 548.803705 
L 124.25981 548.803705 
L 158.839261 548.335292 
L 164.794611 548.344241 
L 170.749961 548.349707 
L 193.802928 544.954778 
L 217.240112 539.179816 
L 229.150812 534.488979 
L 263.730263 517.605216 
L 264.498695 516.616973 
L 299.462362 487.904853 
L 310.220414 476.76846 
L 334.42603 450.29218 
L 356.710565 422.862606 
L 369.773913 401.48981 
L 405.121797 347.205775 
L 439.701248 306.631019 
L 474.664915 274.295626 
L 510.012799 247.44288 
L 545.360682 224.675969 
L 579.940133 205.989848 
L 614.903801 189.769254 
L 650.251684 175.707446 
L 685.599567 163.699565 
L 720.179019 153.586215 
L 731.705502 150.507386 
L 743.231986 147.557359 
L 749.187336 146.066674 
L 755.142686 144.603602 
L 790.490569 136.536436 
L 825.838453 129.174758 
L 837.364937 126.881623 
L 860.80212 122.417828 
L 872.328604 120.366537 
L 895.765788 116.385715 
L 907.292271 114.524047 
L 931.113671 110.810232 
L 942.640155 109.080342 
L 954.166639 107.401488 
L 960.314096 106.522459 
L 966.461554 105.651472 
L 1001.041006 101.046821 
L 1036.004673 96.822388 
L 1071.352556 92.857101 
L 1082.87904 91.617527 
L 1094.405524 90.401792 
L 1100.552982 89.76525 
L 1106.70044 89.131354 
" clip-path="url(#p74671b3f0f)" style="fill: none; stroke: #808080; stroke-width: 4; stroke-linecap: round"/>
   </g>
   <g id="line2d_19">
    <path d="M 78.538091 548.803705 
L 79.690739 548.803705 
L 83.148684 548.803705 
L 93.52252 548.803705 
L 105.049003 548.803705 
L 116.575487 548.803705 
L 124.25981 548.803705 
L 158.839261 547.811233 
L 164.794611 547.793217 
L 170.749961 547.79842 
L 193.802928 540.504376 
L 217.240112 526.521578 
L 229.150812 513.612439 
L 263.730263 485.384566 
L 264.498695 484.226829 
L 299.462362 441.521986 
L 310.220414 425.0188 
L 334.42603 388.902176 
L 356.710565 355.026291 
L 369.773913 327.186847 
L 405.121797 270.825948 
L 439.701248 234.013251 
L 474.664915 203.944514 
L 510.012799 179.360415 
L 545.360682 161.120433 
L 579.940133 148.691862 
L 614.903801 133.962295 
L 650.251684 122.483136 
L 685.599567 111.978265 
L 720.179019 104.758381 
L 731.705502 102.89576 
L 743.231986 100.44931 
L 749.187336 99.231214 
L 755.142686 98.039875 
L 790.490569 91.755725 
L 825.838453 87.35326 
L 837.364937 86.065022 
L 860.80212 83.001788 
L 872.328604 81.126429 
L 895.765788 77.334465 
L 907.292271 75.669104 
L 931.113671 72.535899 
L 942.640155 71.151831 
L 954.166639 69.872185 
L 960.314096 69.216162 
L 966.461554 68.563772 
L 1001.041006 65.312424 
L 1036.004673 61.341324 
L 1071.352556 58.595414 
L 1082.87904 57.739952 
L 1094.405524 56.924839 
L 1100.552982 56.49933 
L 1106.70044 56.072795 
" clip-path="url(#p74671b3f0f)" style="fill: none; stroke-dasharray: 7.4,3.2; stroke-dashoffset: 0; stroke: #808080; stroke-width: 2"/>
   </g>
   <g id="line2d_20">
    <path d="M 78.538091 548.803705 
L 79.690739 548.803705 
L 83.148684 548.803705 
L 93.52252 548.803705 
L 105.049003 548.803705 
L 116.575487 548.803705 
L 124.25981 548.803705 
L 158.839261 548.72684 
L 164.794611 548.724521 
L 170.749961 548.728613 
L 193.802928 548.166888 
L 217.240112 547.796881 
L 229.150812 547.397709 
L 263.730263 544.19307 
L 264.498695 543.913191 
L 299.462362 534.643272 
L 310.220414 529.926453 
L 334.42603 515.192701 
L 356.710565 493.068353 
L 369.773913 474.590265 
L 405.121797 433.876497 
L 439.701248 385.87258 
L 474.664915 356.908531 
L 510.012799 318.837196 
L 545.360682 293.419775 
L 579.940133 272.469147 
L 614.903801 249.488773 
L 650.251684 231.212695 
L 685.599567 217.868906 
L 720.179019 203.557838 
L 731.705502 199.439893 
L 743.231986 194.785392 
L 749.187336 193.410514 
L 755.142686 191.663492 
L 790.490569 180.823899 
L 825.838453 173.006337 
L 837.364937 169.960456 
L 860.80212 164.077708 
L 872.328604 161.548507 
L 895.765788 157.958248 
L 907.292271 155.893452 
L 931.113671 149.904487 
L 942.640155 147.771301 
L 954.166639 145.78434 
L 960.314096 144.511618 
L 966.461554 143.252147 
L 1001.041006 136.484871 
L 1036.004673 131.504261 
L 1071.352556 128.001412 
L 1082.87904 126.19346 
L 1094.405524 124.410042 
L 1100.552982 123.471273 
L 1106.70044 122.547977 
" clip-path="url(#p74671b3f0f)" style="fill: none; stroke-dasharray: 2,3.3; stroke-dashoffset: 0; stroke: #808080; stroke-width: 2"/>
   </g>
   <g id="patch_3">
    <path d="M 119.265 573.44025 
L 119.265 31.43625 
" style="fill: none; stroke: #ffffff; stroke-linejoin: miter; stroke-linecap: square"/>
   </g>
   <g id="patch_4">
    <path d="M 1112.847898 573.44025 
L 1112.847898 31.43625 
" style="fill: none; stroke: #ffffff; stroke-linejoin: miter; stroke-linecap: square"/>
   </g>
   <g id="patch_5">
    <path d="M 119.265 573.44025 
L 1112.847898 573.44025 
" style="fill: none; stroke: #ffffff; stroke-linejoin: miter; stroke-linecap: square"/>
   </g>
   <g id="patch_6">
    <path d="M 119.265 31.43625 
L 1112.847898 31.43625 
" style="fill: none; stroke: #ffffff; stroke-linejoin: miter; stroke-linecap: square"/>
   </g>
   <g id="text_17">
    <!-- FWPR -->
    <g style="fill: #262626" transform="translate(576.587699 25.43625) scale(0.24 -0.24)">
     <use xlink:href="#DejaVuSans-Bold-46"/>
     <use xlink:href="#DejaVuSans-Bold-57" transform="translate(68.310547 0)"/>
     <use xlink:href="#DejaVuSans-Bold-50" transform="translate(178.613281 0)"/>
     <use xlink:href="#DejaVuSans-Bold-52" transform="translate(251.904297 0)"/>
    </g>
   </g>
   <g id="legend_1">
    <g id="patch_7">
     <path d="M 134.665 210.495625 
L 361.832188 210.495625 
Q 366.232188 210.495625 366.232188 206.095625 
L 366.232188 46.83625 
Q 366.232188 42.43625 361.832188 42.43625 
L 134.665 42.43625 
Q 130.265 42.43625 130.265 46.83625 
L 130.265 206.095625 
Q 130.265 210.495625 134.665 210.495625 
z
" style="fill: #eaeaf2; opacity: 0.8; stroke: #cccccc; stroke-width: 0.8; stroke-linejoin: miter"/>
    </g>
    <g id="line2d_21">
     <path d="M 139.065 60.252813 
L 161.065 60.252813 
L 183.065 60.252813 
" style="fill: none; stroke: #000000; stroke-width: 4; stroke-linecap: round"/>
    </g>
    <g id="text_18">
     <!-- Mean -->
     <g style="fill: #262626" transform="translate(200.665 67.952813) scale(0.22 -0.22)">
      <defs>
       <path id="DejaVuSans-4d" d="M 628 4666 
L 1569 4666 
L 2759 1491 
L 3956 4666 
L 4897 4666 
L 4897 0 
L 4281 0 
L 4281 4097 
L 3078 897 
L 2444 897 
L 1241 4097 
L 1241 0 
L 628 0 
L 628 4666 
z
" transform="scale(0.015625)"/>
       <path id="DejaVuSans-65" d="M 3597 1894 
L 3597 1613 
L 953 1613 
Q 991 1019 1311 708 
Q 1631 397 2203 397 
Q 2534 397 2845 478 
Q 3156 559 3463 722 
L 3463 178 
Q 3153 47 2828 -22 
Q 2503 -91 2169 -91 
Q 1331 -91 842 396 
Q 353 884 353 1716 
Q 353 2575 817 3079 
Q 1281 3584 2069 3584 
Q 2775 3584 3186 3129 
Q 3597 2675 3597 1894 
z
M 3022 2063 
Q 3016 2534 2758 2815 
Q 2500 3097 2075 3097 
Q 1594 3097 1305 2825 
Q 1016 2553 972 2059 
L 3022 2063 
z
" transform="scale(0.015625)"/>
       <path id="DejaVuSans-61" d="M 2194 1759 
Q 1497 1759 1228 1600 
Q 959 1441 959 1056 
Q 959 750 1161 570 
Q 1363 391 1709 391 
Q 2188 391 2477 730 
Q 2766 1069 2766 1631 
L 2766 1759 
L 2194 1759 
z
M 3341 1997 
L 3341 0 
L 2766 0 
L 2766 531 
Q 2569 213 2275 61 
Q 1981 -91 1556 -91 
Q 1019 -91 701 211 
Q 384 513 384 1019 
Q 384 1609 779 1909 
Q 1175 2209 1959 2209 
L 2766 2209 
L 2766 2266 
Q 2766 2663 2505 2880 
Q 2244 3097 1772 3097 
Q 1472 3097 1187 3025 
Q 903 2953 641 2809 
L 641 3341 
Q 956 3463 1253 3523 
Q 1550 3584 1831 3584 
Q 2591 3584 2966 3190 
Q 3341 2797 3341 1997 
z
" transform="scale(0.015625)"/>
       <path id="DejaVuSans-6e" d="M 3513 2113 
L 3513 0 
L 2938 0 
L 2938 2094 
Q 2938 2591 2744 2837 
Q 2550 3084 2163 3084 
Q 1697 3084 1428 2787 
Q 1159 2491 1159 1978 
L 1159 0 
L 581 0 
L 581 3500 
L 1159 3500 
L 1159 2956 
Q 1366 3272 1645 3428 
Q 1925 3584 2291 3584 
Q 2894 3584 3203 3211 
Q 3513 2838 3513 2113 
z
" transform="scale(0.015625)"/>
      </defs>
      <use xlink:href="#DejaVuSans-4d"/>
      <use xlink:href="#DejaVuSans-65" transform="translate(86.279297 0)"/>
      <use xlink:href="#DejaVuSans-61" transform="translate(147.802734 0)"/>
      <use xlink:href="#DejaVuSans-6e" transform="translate(209.082031 0)"/>
     </g>
    </g>
    <g id="line2d_22">
     <path d="M 139.065 92.544688 
L 161.065 92.544688 
L 183.065 92.544688 
" style="fill: none; stroke-dasharray: 7.4,3.2; stroke-dashoffset: 0; stroke: #000000; stroke-width: 2"/>
    </g>
    <g id="text_19">
     <!-- P10 Percentile -->
     <g style="fill: #262626" transform="translate(200.665 100.244688) scale(0.22 -0.22)">
      <defs>
       <path id="DejaVuSans-50" d="M 1259 4147 
L 1259 2394 
L 2053 2394 
Q 2494 2394 2734 2622 
Q 2975 2850 2975 3272 
Q 2975 3691 2734 3919 
Q 2494 4147 2053 4147 
L 1259 4147 
z
M 628 4666 
L 2053 4666 
Q 2838 4666 3239 4311 
Q 3641 3956 3641 3272 
Q 3641 2581 3239 2228 
Q 2838 1875 2053 1875 
L 1259 1875 
L 1259 0 
L 628 0 
L 628 4666 
z
" transform="scale(0.015625)"/>
       <path id="DejaVuSans-20" transform="scale(0.015625)"/>
       <path id="DejaVuSans-72" d="M 2631 2963 
Q 2534 3019 2420 3045 
Q 2306 3072 2169 3072 
Q 1681 3072 1420 2755 
Q 1159 2438 1159 1844 
L 1159 0 
L 581 0 
L 581 3500 
L 1159 3500 
L 1159 2956 
Q 1341 3275 1631 3429 
Q 1922 3584 2338 3584 
Q 2397 3584 2469 3576 
Q 2541 3569 2628 3553 
L 2631 2963 
z
" transform="scale(0.015625)"/>
       <path id="DejaVuSans-63" d="M 3122 3366 
L 3122 2828 
Q 2878 2963 2633 3030 
Q 2388 3097 2138 3097 
Q 1578 3097 1268 2742 
Q 959 2388 959 1747 
Q 959 1106 1268 751 
Q 1578 397 2138 397 
Q 2388 397 2633 464 
Q 2878 531 3122 666 
L 3122 134 
Q 2881 22 2623 -34 
Q 2366 -91 2075 -91 
Q 1284 -91 818 406 
Q 353 903 353 1747 
Q 353 2603 823 3093 
Q 1294 3584 2113 3584 
Q 2378 3584 2631 3529 
Q 2884 3475 3122 3366 
z
" transform="scale(0.015625)"/>
       <path id="DejaVuSans-74" d="M 1172 4494 
L 1172 3500 
L 2356 3500 
L 2356 3053 
L 1172 3053 
L 1172 1153 
Q 1172 725 1289 603 
Q 1406 481 1766 481 
L 2356 481 
L 2356 0 
L 1766 0 
Q 1100 0 847 248 
Q 594 497 594 1153 
L 594 3053 
L 172 3053 
L 172 3500 
L 594 3500 
L 594 4494 
L 1172 4494 
z
" transform="scale(0.015625)"/>
       <path id="DejaVuSans-69" d="M 603 3500 
L 1178 3500 
L 1178 0 
L 603 0 
L 603 3500 
z
M 603 4863 
L 1178 4863 
L 1178 4134 
L 603 4134 
L 603 4863 
z
" transform="scale(0.015625)"/>
       <path id="DejaVuSans-6c" d="M 603 4863 
L 1178 4863 
L 1178 0 
L 603 0 
L 603 4863 
z
" transform="scale(0.015625)"/>
      </defs>
      <use xlink:href="#DejaVuSans-50"/>
      <use xlink:href="#DejaVuSans-31" transform="translate(60.302734 0)"/>
      <use xlink:href="#DejaVuSans-30" transform="translate(123.925781 0)"/>
      <use xlink:href="#DejaVuSans-20" transform="translate(187.548828 0)"/>
      <use xlink:href="#DejaVuSans-50" transform="translate(219.335938 0)"/>
      <use xlink:href="#DejaVuSans-65" transform="translate(276.013672 0)"/>
      <use xlink:href="#DejaVuSans-72" transform="translate(337.537109 0)"/>
      <use xlink:href="#DejaVuSans-63" transform="translate(376.400391 0)"/>
      <use xlink:href="#DejaVuSans-65" transform="translate(431.380859 0)"/>
      <use xlink:href="#DejaVuSans-6e" transform="translate(492.904297 0)"/>
      <use xlink:href="#DejaVuSans-74" transform="translate(556.283203 0)"/>
      <use xlink:href="#DejaVuSans-69" transform="translate(595.492188 0)"/>
      <use xlink:href="#DejaVuSans-6c" transform="translate(623.275391 0)"/>
      <use xlink:href="#DejaVuSans-65" transform="translate(651.058594 0)"/>
     </g>
    </g>
    <g id="line2d_23">
     <path d="M 139.065 124.836563 
L 161.065 124.836563 
L 183.065 124.836563 
" style="fill: none; stroke-dasharray: 2,3.3; stroke-dashoffset: 0; stroke: #000000; stroke-width: 2"/>
    </g>
    <g id="text_20">
     <!-- P90 Percentile -->
     <g style="fill: #262626" transform="translate(200.665 132.536563) scale(0.22 -0.22)">
      <use xlink:href="#DejaVuSans-50"/>
      <use xlink:href="#DejaVuSans-39" transform="translate(60.302734 0)"/>
      <use xlink:href="#DejaVuSans-30" transform="translate(123.925781 0)"/>
      <use xlink:href="#DejaVuSans-20" transform="translate(187.548828 0)"/>
      <use xlink:href="#DejaVuSans-50" transform="translate(219.335938 0)"/>
      <use xlink:href="#DejaVuSans-65" transform="translate(276.013672 0)"/>
      <use xlink:href="#DejaVuSans-72" transform="translate(337.537109 0)"/>
      <use xlink:href="#DejaVuSans-63" transform="translate(376.400391 0)"/>
      <use xlink:href="#DejaVuSans-65" transform="translate(431.380859 0)"/>
      <use xlink:href="#DejaVuSans-6e" transform="translate(492.904297 0)"/>
      <use xlink:href="#DejaVuSans-74" transform="translate(556.283203 0)"/>
      <use xlink:href="#DejaVuSans-69" transform="translate(595.492188 0)"/>
      <use xlink:href="#DejaVuSans-6c" transform="translate(623.275391 0)"/>
      <use xlink:href="#DejaVuSans-65" transform="translate(651.058594 0)"/>
     </g>
    </g>
    <g id="patch_8">
     <path d="M 139.065 164.828438 
L 183.065 164.828438 
L 183.065 149.428438 
L 139.065 149.428438 
z
" style="fill: #58508d; fill-opacity: 0.7; stroke: #58508d; stroke-opacity: 0.7; stroke-width: 0.8; stroke-linejoin: miter"/>
    </g>
    <g id="text_21">
     <!-- Batch 0 -->
     <g style="fill: #262626" transform="translate(200.665 164.828438) scale(0.22 -0.22)">
      <defs>
       <path id="DejaVuSans-42" d="M 1259 2228 
L 1259 519 
L 2272 519 
Q 2781 519 3026 730 
Q 3272 941 3272 1375 
Q 3272 1813 3026 2020 
Q 2781 2228 2272 2228 
L 1259 2228 
z
M 1259 4147 
L 1259 2741 
L 2194 2741 
Q 2656 2741 2882 2914 
Q 3109 3088 3109 3444 
Q 3109 3797 2882 3972 
Q 2656 4147 2194 4147 
L 1259 4147 
z
M 628 4666 
L 2241 4666 
Q 2963 4666 3353 4366 
Q 3744 4066 3744 3513 
Q 3744 3084 3544 2831 
Q 3344 2578 2956 2516 
Q 3422 2416 3680 2098 
Q 3938 1781 3938 1306 
Q 3938 681 3513 340 
Q 3088 0 2303 0 
L 628 0 
L 628 4666 
z
" transform="scale(0.015625)"/>
       <path id="DejaVuSans-68" d="M 3513 2113 
L 3513 0 
L 2938 0 
L 2938 2094 
Q 2938 2591 2744 2837 
Q 2550 3084 2163 3084 
Q 1697 3084 1428 2787 
Q 1159 2491 1159 1978 
L 1159 0 
L 581 0 
L 581 4863 
L 1159 4863 
L 1159 2956 
Q 1366 3272 1645 3428 
Q 1925 3584 2291 3584 
Q 2894 3584 3203 3211 
Q 3513 2838 3513 2113 
z
" transform="scale(0.015625)"/>
      </defs>
      <use xlink:href="#DejaVuSans-42"/>
      <use xlink:href="#DejaVuSans-61" transform="translate(68.603516 0)"/>
      <use xlink:href="#DejaVuSans-74" transform="translate(129.882812 0)"/>
      <use xlink:href="#DejaVuSans-63" transform="translate(169.091797 0)"/>
      <use xlink:href="#DejaVuSans-68" transform="translate(224.072266 0)"/>
      <use xlink:href="#DejaVuSans-20" transform="translate(287.451172 0)"/>
      <use xlink:href="#DejaVuSans-30" transform="translate(319.238281 0)"/>
     </g>
    </g>
    <g id="patch_9">
     <path d="M 139.065 197.120313 
L 183.065 197.120313 
L 183.065 181.720313 
L 139.065 181.720313 
z
" style="fill: #ffa600; fill-opacity: 0.7; stroke: #ffa600; stroke-opacity: 0.7; stroke-width: 0.8; stroke-linejoin: miter"/>
    </g>
    <g id="text_22">
     <!-- Batch 5 -->
     <g style="fill: #262626" transform="translate(200.665 197.120313) scale(0.22 -0.22)">
      <use xlink:href="#DejaVuSans-42"/>
      <use xlink:href="#DejaVuSans-61" transform="translate(68.603516 0)"/>
      <use xlink:href="#DejaVuSans-74" transform="translate(129.882812 0)"/>
      <use xlink:href="#DejaVuSans-63" transform="translate(169.091797 0)"/>
      <use xlink:href="#DejaVuSans-68" transform="translate(224.072266 0)"/>
      <use xlink:href="#DejaVuSans-20" transform="translate(287.451172 0)"/>
      <use xlink:href="#DejaVuSans-35" transform="translate(319.238281 0)"/>
     </g>
    </g>
   </g>
  </g>
 </g>
 <defs>
  <clipPath id="p74671b3f0f">
   <rect x="119.265" y="31.43625" width="993.582898" height="542.004"/>
  </clipPath>
 </defs>
</svg>
