<?xml version="1.0" encoding="utf-8" standalone="no"?>
<!DOCTYPE svg PUBLIC "-//W3C//DTD SVG 1.1//EN"
  "http://www.w3.org/Graphics/SVG/1.1/DTD/svg11.dtd">
<svg xmlns:xlink="http://www.w3.org/1999/xlink" width="1143.944726pt" height="641.330875pt" viewBox="0 0 1143.944726 641.330875" xmlns="http://www.w3.org/2000/svg" version="1.1">
 <metadata>
  <rdf:RDF xmlns:dc="http://purl.org/dc/elements/1.1/" xmlns:cc="http://creativecommons.org/ns#" xmlns:rdf="http://www.w3.org/1999/02/22-rdf-syntax-ns#">
   <cc:Work>
    <dc:type rdf:resource="http://purl.org/dc/dcmitype/StillImage"/>
    <dc:date>2025-06-25T17:21:52.859443</dc:date>
    <dc:format>image/svg+xml</dc:format>
    <dc:creator>
     <cc:Agent>
      <dc:title>Matplotlib v3.10.3, https://matplotlib.org/</dc:title>
     </cc:Agent>
    </dc:creator>
   </cc:Work>
  </rdf:RDF>
 </metadata>
 <defs>
  <style type="text/css">*{stroke-linejoin: round; stroke-linecap: butt}</style>
 </defs>
 <g id="figure_1">
  <g id="patch_1">
   <path d="M 0 641.330875 
L 1143.944726 641.330875 
L 1143.944726 0 
L 0 0 
z
" style="fill: #ffffff"/>
  </g>
  <g id="axes_1">
   <g id="patch_2">
    <path d="M 88.5375 573.44025 
L 1112.540398 573.44025 
L 1112.540398 31.43625 
L 88.5375 31.43625 
z
" style="fill: #eaeaf2"/>
   </g>
   <g id="matplotlib.axis_1">
    <g id="xtick_1">
     <g id="line2d_1">
      <path d="M 93.685233 573.44025 
L 93.685233 31.43625 
" clip-path="url(#pf2d65173dc)" style="fill: none; stroke: #ffffff; stroke-width: 0.8; stroke-linecap: round"/>
     </g>
     <g id="text_1">
      <!-- 2023 -->
      <g style="fill: #262626" transform="translate(63.145233 599.9765) scale(0.24 -0.24)">
       <defs>
        <path id="DejaVuSans-32" d="M 1228 531 
L 3431 531 
L 3431 0 
L 469 0 
L 469 531 
Q 828 903 1448 1529 
Q 2069 2156 2228 2338 
Q 2531 2678 2651 2914 
Q 2772 3150 2772 3378 
Q 2772 3750 2511 3984 
Q 2250 4219 1831 4219 
Q 1534 4219 1204 4116 
Q 875 4013 500 3803 
L 500 4441 
Q 881 4594 1212 4672 
Q 1544 4750 1819 4750 
Q 2544 4750 2975 4387 
Q 3406 4025 3406 3419 
Q 3406 3131 3298 2873 
Q 3191 2616 2906 2266 
Q 2828 2175 2409 1742 
Q 1991 1309 1228 531 
z
" transform="scale(0.015625)"/>
        <path id="DejaVuSans-30" d="M 2034 4250 
Q 1547 4250 1301 3770 
Q 1056 3291 1056 2328 
Q 1056 1369 1301 889 
Q 1547 409 2034 409 
Q 2525 409 2770 889 
Q 3016 1369 3016 2328 
Q 3016 3291 2770 3770 
Q 2525 4250 2034 4250 
z
M 2034 4750 
Q 2819 4750 3233 4129 
Q 3647 3509 3647 2328 
Q 3647 1150 3233 529 
Q 2819 -91 2034 -91 
Q 1250 -91 836 529 
Q 422 1150 422 2328 
Q 422 3509 836 4129 
Q 1250 4750 2034 4750 
z
" transform="scale(0.015625)"/>
        <path id="DejaVuSans-33" d="M 2597 2516 
Q 3050 2419 3304 2112 
Q 3559 1806 3559 1356 
Q 3559 666 3084 287 
Q 2609 -91 1734 -91 
Q 1441 -91 1130 -33 
Q 819 25 488 141 
L 488 750 
Q 750 597 1062 519 
Q 1375 441 1716 441 
Q 2309 441 2620 675 
Q 2931 909 2931 1356 
Q 2931 1769 2642 2001 
Q 2353 2234 1838 2234 
L 1294 2234 
L 1294 2753 
L 1863 2753 
Q 2328 2753 2575 2939 
Q 2822 3125 2822 3475 
Q 2822 3834 2567 4026 
Q 2313 4219 1838 4219 
Q 1578 4219 1281 4162 
Q 984 4106 628 3988 
L 628 4550 
Q 988 4650 1302 4700 
Q 1616 4750 1894 4750 
Q 2613 4750 3031 4423 
Q 3450 4097 3450 3541 
Q 3450 3153 3228 2886 
Q 3006 2619 2597 2516 
z
" transform="scale(0.015625)"/>
       </defs>
       <use xlink:href="#DejaVuSans-32"/>
       <use xlink:href="#DejaVuSans-30" transform="translate(63.623047 0)"/>
       <use xlink:href="#DejaVuSans-32" transform="translate(127.246094 0)"/>
       <use xlink:href="#DejaVuSans-33" transform="translate(190.869141 0)"/>
      </g>
     </g>
    </g>
    <g id="xtick_2">
     <g id="line2d_2">
      <path d="M 238.217738 573.44025 
L 238.217738 31.43625 
" clip-path="url(#pf2d65173dc)" style="fill: none; stroke: #ffffff; stroke-width: 0.8; stroke-linecap: round"/>
     </g>
     <g id="text_2">
      <!-- 2024 -->
      <g style="fill: #262626" transform="translate(207.677738 599.9765) scale(0.24 -0.24)">
       <defs>
        <path id="DejaVuSans-34" d="M 2419 4116 
L 825 1625 
L 2419 1625 
L 2419 4116 
z
M 2253 4666 
L 3047 4666 
L 3047 1625 
L 3713 1625 
L 3713 1100 
L 3047 1100 
L 3047 0 
L 2419 0 
L 2419 1100 
L 313 1100 
L 313 1709 
L 2253 4666 
z
" transform="scale(0.015625)"/>
       </defs>
       <use xlink:href="#DejaVuSans-32"/>
       <use xlink:href="#DejaVuSans-30" transform="translate(63.623047 0)"/>
       <use xlink:href="#DejaVuSans-32" transform="translate(127.246094 0)"/>
       <use xlink:href="#DejaVuSans-34" transform="translate(190.869141 0)"/>
      </g>
     </g>
    </g>
    <g id="xtick_3">
     <g id="line2d_3">
      <path d="M 383.146222 573.44025 
L 383.146222 31.43625 
" clip-path="url(#pf2d65173dc)" style="fill: none; stroke: #ffffff; stroke-width: 0.8; stroke-linecap: round"/>
     </g>
     <g id="text_3">
      <!-- 2025 -->
      <g style="fill: #262626" transform="translate(352.606222 599.9765) scale(0.24 -0.24)">
       <defs>
        <path id="DejaVuSans-35" d="M 691 4666 
L 3169 4666 
L 3169 4134 
L 1269 4134 
L 1269 2991 
Q 1406 3038 1543 3061 
Q 1681 3084 1819 3084 
Q 2600 3084 3056 2656 
Q 3513 2228 3513 1497 
Q 3513 744 3044 326 
Q 2575 -91 1722 -91 
Q 1428 -91 1123 -41 
Q 819 9 494 109 
L 494 744 
Q 775 591 1075 516 
Q 1375 441 1709 441 
Q 2250 441 2565 725 
Q 2881 1009 2881 1497 
Q 2881 1984 2565 2268 
Q 2250 2553 1709 2553 
Q 1456 2553 1204 2497 
Q 953 2441 691 2322 
L 691 4666 
z
" transform="scale(0.015625)"/>
       </defs>
       <use xlink:href="#DejaVuSans-32"/>
       <use xlink:href="#DejaVuSans-30" transform="translate(63.623047 0)"/>
       <use xlink:href="#DejaVuSans-32" transform="translate(127.246094 0)"/>
       <use xlink:href="#DejaVuSans-35" transform="translate(190.869141 0)"/>
      </g>
     </g>
    </g>
    <g id="xtick_4">
     <g id="line2d_4">
      <path d="M 527.678727 573.44025 
L 527.678727 31.43625 
" clip-path="url(#pf2d65173dc)" style="fill: none; stroke: #ffffff; stroke-width: 0.8; stroke-linecap: round"/>
     </g>
     <g id="text_4">
      <!-- 2026 -->
      <g style="fill: #262626" transform="translate(497.138727 599.9765) scale(0.24 -0.24)">
       <defs>
        <path id="DejaVuSans-36" d="M 2113 2584 
Q 1688 2584 1439 2293 
Q 1191 2003 1191 1497 
Q 1191 994 1439 701 
Q 1688 409 2113 409 
Q 2538 409 2786 701 
Q 3034 994 3034 1497 
Q 3034 2003 2786 2293 
Q 2538 2584 2113 2584 
z
M 3366 4563 
L 3366 3988 
Q 3128 4100 2886 4159 
Q 2644 4219 2406 4219 
Q 1781 4219 1451 3797 
Q 1122 3375 1075 2522 
Q 1259 2794 1537 2939 
Q 1816 3084 2150 3084 
Q 2853 3084 3261 2657 
Q 3669 2231 3669 1497 
Q 3669 778 3244 343 
Q 2819 -91 2113 -91 
Q 1303 -91 875 529 
Q 447 1150 447 2328 
Q 447 3434 972 4092 
Q 1497 4750 2381 4750 
Q 2619 4750 2861 4703 
Q 3103 4656 3366 4563 
z
" transform="scale(0.015625)"/>
       </defs>
       <use xlink:href="#DejaVuSans-32"/>
       <use xlink:href="#DejaVuSans-30" transform="translate(63.623047 0)"/>
       <use xlink:href="#DejaVuSans-32" transform="translate(127.246094 0)"/>
       <use xlink:href="#DejaVuSans-36" transform="translate(190.869141 0)"/>
      </g>
     </g>
    </g>
    <g id="xtick_5">
     <g id="line2d_5">
      <path d="M 672.211232 573.44025 
L 672.211232 31.43625 
" clip-path="url(#pf2d65173dc)" style="fill: none; stroke: #ffffff; stroke-width: 0.8; stroke-linecap: round"/>
     </g>
     <g id="text_5">
      <!-- 2027 -->
      <g style="fill: #262626" transform="translate(641.671232 599.9765) scale(0.24 -0.24)">
       <defs>
        <path id="DejaVuSans-37" d="M 525 4666 
L 3525 4666 
L 3525 4397 
L 1831 0 
L 1172 0 
L 2766 4134 
L 525 4134 
L 525 4666 
z
" transform="scale(0.015625)"/>
       </defs>
       <use xlink:href="#DejaVuSans-32"/>
       <use xlink:href="#DejaVuSans-30" transform="translate(63.623047 0)"/>
       <use xlink:href="#DejaVuSans-32" transform="translate(127.246094 0)"/>
       <use xlink:href="#DejaVuSans-37" transform="translate(190.869141 0)"/>
      </g>
     </g>
    </g>
    <g id="xtick_6">
     <g id="line2d_6">
      <path d="M 816.743737 573.44025 
L 816.743737 31.43625 
" clip-path="url(#pf2d65173dc)" style="fill: none; stroke: #ffffff; stroke-width: 0.8; stroke-linecap: round"/>
     </g>
     <g id="text_6">
      <!-- 2028 -->
      <g style="fill: #262626" transform="translate(786.203737 599.9765) scale(0.24 -0.24)">
       <defs>
        <path id="DejaVuSans-38" d="M 2034 2216 
Q 1584 2216 1326 1975 
Q 1069 1734 1069 1313 
Q 1069 891 1326 650 
Q 1584 409 2034 409 
Q 2484 409 2743 651 
Q 3003 894 3003 1313 
Q 3003 1734 2745 1975 
Q 2488 2216 2034 2216 
z
M 1403 2484 
Q 997 2584 770 2862 
Q 544 3141 544 3541 
Q 544 4100 942 4425 
Q 1341 4750 2034 4750 
Q 2731 4750 3128 4425 
Q 3525 4100 3525 3541 
Q 3525 3141 3298 2862 
Q 3072 2584 2669 2484 
Q 3125 2378 3379 2068 
Q 3634 1759 3634 1313 
Q 3634 634 3220 271 
Q 2806 -91 2034 -91 
Q 1263 -91 848 271 
Q 434 634 434 1313 
Q 434 1759 690 2068 
Q 947 2378 1403 2484 
z
M 1172 3481 
Q 1172 3119 1398 2916 
Q 1625 2713 2034 2713 
Q 2441 2713 2670 2916 
Q 2900 3119 2900 3481 
Q 2900 3844 2670 4047 
Q 2441 4250 2034 4250 
Q 1625 4250 1398 4047 
Q 1172 3844 1172 3481 
z
" transform="scale(0.015625)"/>
       </defs>
       <use xlink:href="#DejaVuSans-32"/>
       <use xlink:href="#DejaVuSans-30" transform="translate(63.623047 0)"/>
       <use xlink:href="#DejaVuSans-32" transform="translate(127.246094 0)"/>
       <use xlink:href="#DejaVuSans-38" transform="translate(190.869141 0)"/>
      </g>
     </g>
    </g>
    <g id="xtick_7">
     <g id="line2d_7">
      <path d="M 961.672222 573.44025 
L 961.672222 31.43625 
" clip-path="url(#pf2d65173dc)" style="fill: none; stroke: #ffffff; stroke-width: 0.8; stroke-linecap: round"/>
     </g>
     <g id="text_7">
      <!-- 2029 -->
      <g style="fill: #262626" transform="translate(931.132222 599.9765) scale(0.24 -0.24)">
       <defs>
        <path id="DejaVuSans-39" d="M 703 97 
L 703 672 
Q 941 559 1184 500 
Q 1428 441 1663 441 
Q 2288 441 2617 861 
Q 2947 1281 2994 2138 
Q 2813 1869 2534 1725 
Q 2256 1581 1919 1581 
Q 1219 1581 811 2004 
Q 403 2428 403 3163 
Q 403 3881 828 4315 
Q 1253 4750 1959 4750 
Q 2769 4750 3195 4129 
Q 3622 3509 3622 2328 
Q 3622 1225 3098 567 
Q 2575 -91 1691 -91 
Q 1453 -91 1209 -44 
Q 966 3 703 97 
z
M 1959 2075 
Q 2384 2075 2632 2365 
Q 2881 2656 2881 3163 
Q 2881 3666 2632 3958 
Q 2384 4250 1959 4250 
Q 1534 4250 1286 3958 
Q 1038 3666 1038 3163 
Q 1038 2656 1286 2365 
Q 1534 2075 1959 2075 
z
" transform="scale(0.015625)"/>
       </defs>
       <use xlink:href="#DejaVuSans-32"/>
       <use xlink:href="#DejaVuSans-30" transform="translate(63.623047 0)"/>
       <use xlink:href="#DejaVuSans-32" transform="translate(127.246094 0)"/>
       <use xlink:href="#DejaVuSans-39" transform="translate(190.869141 0)"/>
      </g>
     </g>
    </g>
    <g id="xtick_8">
     <g id="line2d_8">
      <path d="M 1106.204726 573.44025 
L 1106.204726 31.43625 
" clip-path="url(#pf2d65173dc)" style="fill: none; stroke: #ffffff; stroke-width: 0.8; stroke-linecap: round"/>
     </g>
     <g id="text_8">
      <!-- 2030 -->
      <g style="fill: #262626" transform="translate(1075.664726 599.9765) scale(0.24 -0.24)">
       <use xlink:href="#DejaVuSans-32"/>
       <use xlink:href="#DejaVuSans-30" transform="translate(63.623047 0)"/>
       <use xlink:href="#DejaVuSans-33" transform="translate(127.246094 0)"/>
       <use xlink:href="#DejaVuSans-30" transform="translate(190.869141 0)"/>
      </g>
     </g>
    </g>
    <g id="text_9">
     <!-- Date -->
     <g style="fill: #262626" transform="translate(565.942699 628.723687) scale(0.26 -0.26)">
      <defs>
       <path id="DejaVuSans-Bold-44" d="M 1791 3756 
L 1791 909 
L 2222 909 
Q 2959 909 3348 1275 
Q 3738 1641 3738 2338 
Q 3738 3031 3350 3393 
Q 2963 3756 2222 3756 
L 1791 3756 
z
M 588 4666 
L 1856 4666 
Q 2919 4666 3439 4514 
Q 3959 4363 4331 4000 
Q 4659 3684 4818 3271 
Q 4978 2859 4978 2338 
Q 4978 1809 4818 1395 
Q 4659 981 4331 666 
Q 3956 303 3431 151 
Q 2906 0 1856 0 
L 588 0 
L 588 4666 
z
" transform="scale(0.015625)"/>
       <path id="DejaVuSans-Bold-61" d="M 2106 1575 
Q 1756 1575 1579 1456 
Q 1403 1338 1403 1106 
Q 1403 894 1545 773 
Q 1688 653 1941 653 
Q 2256 653 2472 879 
Q 2688 1106 2688 1447 
L 2688 1575 
L 2106 1575 
z
M 3816 1997 
L 3816 0 
L 2688 0 
L 2688 519 
Q 2463 200 2181 54 
Q 1900 -91 1497 -91 
Q 953 -91 614 226 
Q 275 544 275 1050 
Q 275 1666 698 1953 
Q 1122 2241 2028 2241 
L 2688 2241 
L 2688 2328 
Q 2688 2594 2478 2717 
Q 2269 2841 1825 2841 
Q 1466 2841 1156 2769 
Q 847 2697 581 2553 
L 581 3406 
Q 941 3494 1303 3539 
Q 1666 3584 2028 3584 
Q 2975 3584 3395 3211 
Q 3816 2838 3816 1997 
z
" transform="scale(0.015625)"/>
       <path id="DejaVuSans-Bold-74" d="M 1759 4494 
L 1759 3500 
L 2913 3500 
L 2913 2700 
L 1759 2700 
L 1759 1216 
Q 1759 972 1856 886 
Q 1953 800 2241 800 
L 2816 800 
L 2816 0 
L 1856 0 
Q 1194 0 917 276 
Q 641 553 641 1216 
L 641 2700 
L 84 2700 
L 84 3500 
L 641 3500 
L 641 4494 
L 1759 4494 
z
" transform="scale(0.015625)"/>
       <path id="DejaVuSans-Bold-65" d="M 4031 1759 
L 4031 1441 
L 1416 1441 
Q 1456 1047 1700 850 
Q 1944 653 2381 653 
Q 2734 653 3104 758 
Q 3475 863 3866 1075 
L 3866 213 
Q 3469 63 3072 -14 
Q 2675 -91 2278 -91 
Q 1328 -91 801 392 
Q 275 875 275 1747 
Q 275 2603 792 3093 
Q 1309 3584 2216 3584 
Q 3041 3584 3536 3087 
Q 4031 2591 4031 1759 
z
M 2881 2131 
Q 2881 2450 2695 2645 
Q 2509 2841 2209 2841 
Q 1884 2841 1681 2658 
Q 1478 2475 1428 2131 
L 2881 2131 
z
" transform="scale(0.015625)"/>
      </defs>
      <use xlink:href="#DejaVuSans-Bold-44"/>
      <use xlink:href="#DejaVuSans-Bold-61" transform="translate(83.007812 0)"/>
      <use xlink:href="#DejaVuSans-Bold-74" transform="translate(150.488281 0)"/>
      <use xlink:href="#DejaVuSans-Bold-65" transform="translate(198.291016 0)"/>
     </g>
    </g>
   </g>
   <g id="matplotlib.axis_2">
    <g id="ytick_1">
     <g id="line2d_9">
      <path d="M 88.5375 470.795792 
L 1112.540398 470.795792 
" clip-path="url(#pf2d65173dc)" style="fill: none; stroke: #ffffff; stroke-width: 0.8; stroke-linecap: round"/>
     </g>
     <g id="text_10">
      <!-- 220 -->
      <g style="fill: #262626" transform="translate(34.4275 479.913917) scale(0.24 -0.24)">
       <use xlink:href="#DejaVuSans-32"/>
       <use xlink:href="#DejaVuSans-32" transform="translate(63.623047 0)"/>
       <use xlink:href="#DejaVuSans-30" transform="translate(127.246094 0)"/>
      </g>
     </g>
    </g>
    <g id="ytick_2">
     <g id="line2d_10">
      <path d="M 88.5375 368.121521 
L 1112.540398 368.121521 
" clip-path="url(#pf2d65173dc)" style="fill: none; stroke: #ffffff; stroke-width: 0.8; stroke-linecap: round"/>
     </g>
     <g id="text_11">
      <!-- 240 -->
      <g style="fill: #262626" transform="translate(34.4275 377.239646) scale(0.24 -0.24)">
       <use xlink:href="#DejaVuSans-32"/>
       <use xlink:href="#DejaVuSans-34" transform="translate(63.623047 0)"/>
       <use xlink:href="#DejaVuSans-30" transform="translate(127.246094 0)"/>
      </g>
     </g>
    </g>
    <g id="ytick_3">
     <g id="line2d_11">
      <path d="M 88.5375 265.447249 
L 1112.540398 265.447249 
" clip-path="url(#pf2d65173dc)" style="fill: none; stroke: #ffffff; stroke-width: 0.8; stroke-linecap: round"/>
     </g>
     <g id="text_12">
      <!-- 260 -->
      <g style="fill: #262626" transform="translate(34.4275 274.565374) scale(0.24 -0.24)">
       <use xlink:href="#DejaVuSans-32"/>
       <use xlink:href="#DejaVuSans-36" transform="translate(63.623047 0)"/>
       <use xlink:href="#DejaVuSans-30" transform="translate(127.246094 0)"/>
      </g>
     </g>
    </g>
    <g id="ytick_4">
     <g id="line2d_12">
      <path d="M 88.5375 162.772978 
L 1112.540398 162.772978 
" clip-path="url(#pf2d65173dc)" style="fill: none; stroke: #ffffff; stroke-width: 0.8; stroke-linecap: round"/>
     </g>
     <g id="text_13">
      <!-- 280 -->
      <g style="fill: #262626" transform="translate(34.4275 171.891103) scale(0.24 -0.24)">
       <use xlink:href="#DejaVuSans-32"/>
       <use xlink:href="#DejaVuSans-38" transform="translate(63.623047 0)"/>
       <use xlink:href="#DejaVuSans-30" transform="translate(127.246094 0)"/>
      </g>
     </g>
    </g>
    <g id="ytick_5">
     <g id="line2d_13">
      <path d="M 88.5375 60.098706 
L 1112.540398 60.098706 
" clip-path="url(#pf2d65173dc)" style="fill: none; stroke: #ffffff; stroke-width: 0.8; stroke-linecap: round"/>
     </g>
     <g id="text_14">
      <!-- 300 -->
      <g style="fill: #262626" transform="translate(34.4275 69.216831) scale(0.24 -0.24)">
       <use xlink:href="#DejaVuSans-33"/>
       <use xlink:href="#DejaVuSans-30" transform="translate(63.623047 0)"/>
       <use xlink:href="#DejaVuSans-30" transform="translate(127.246094 0)"/>
      </g>
     </g>
    </g>
    <g id="text_15">
     <!-- FPR [Bar] -->
     <g style="fill: #262626" transform="translate(25.43625 366.9795) rotate(-90) scale(0.24 -0.24)">
      <defs>
       <path id="DejaVuSans-Bold-46" d="M 588 4666 
L 3834 4666 
L 3834 3756 
L 1791 3756 
L 1791 2888 
L 3713 2888 
L 3713 1978 
L 1791 1978 
L 1791 0 
L 588 0 
L 588 4666 
z
" transform="scale(0.015625)"/>
       <path id="DejaVuSans-Bold-50" d="M 588 4666 
L 2584 4666 
Q 3475 4666 3951 4270 
Q 4428 3875 4428 3144 
Q 4428 2409 3951 2014 
Q 3475 1619 2584 1619 
L 1791 1619 
L 1791 0 
L 588 0 
L 588 4666 
z
M 1791 3794 
L 1791 2491 
L 2456 2491 
Q 2806 2491 2997 2661 
Q 3188 2831 3188 3144 
Q 3188 3456 2997 3625 
Q 2806 3794 2456 3794 
L 1791 3794 
z
" transform="scale(0.015625)"/>
       <path id="DejaVuSans-Bold-52" d="M 2297 2597 
Q 2675 2597 2839 2737 
Q 3003 2878 3003 3200 
Q 3003 3519 2839 3656 
Q 2675 3794 2297 3794 
L 1791 3794 
L 1791 2597 
L 2297 2597 
z
M 1791 1766 
L 1791 0 
L 588 0 
L 588 4666 
L 2425 4666 
Q 3347 4666 3776 4356 
Q 4206 4047 4206 3378 
Q 4206 2916 3982 2619 
Q 3759 2322 3309 2181 
Q 3556 2125 3751 1926 
Q 3947 1728 4147 1325 
L 4800 0 
L 3519 0 
L 2950 1159 
Q 2778 1509 2601 1637 
Q 2425 1766 2131 1766 
L 1791 1766 
z
" transform="scale(0.015625)"/>
       <path id="DejaVuSans-Bold-20" transform="scale(0.015625)"/>
       <path id="DejaVuSans-Bold-5b" d="M 550 4863 
L 2491 4863 
L 2491 4159 
L 1613 4159 
L 1613 -141 
L 2491 -141 
L 2491 -844 
L 550 -844 
L 550 4863 
z
" transform="scale(0.015625)"/>
       <path id="DejaVuSans-Bold-42" d="M 2456 2859 
Q 2741 2859 2887 2984 
Q 3034 3109 3034 3353 
Q 3034 3594 2887 3720 
Q 2741 3847 2456 3847 
L 1791 3847 
L 1791 2859 
L 2456 2859 
z
M 2497 819 
Q 2859 819 3042 972 
Q 3225 1125 3225 1434 
Q 3225 1738 3044 1889 
Q 2863 2041 2497 2041 
L 1791 2041 
L 1791 819 
L 2497 819 
z
M 3616 2497 
Q 4003 2384 4215 2081 
Q 4428 1778 4428 1338 
Q 4428 663 3972 331 
Q 3516 0 2584 0 
L 588 0 
L 588 4666 
L 2394 4666 
Q 3366 4666 3802 4372 
Q 4238 4078 4238 3431 
Q 4238 3091 4078 2852 
Q 3919 2613 3616 2497 
z
" transform="scale(0.015625)"/>
       <path id="DejaVuSans-Bold-72" d="M 3138 2547 
Q 2991 2616 2845 2648 
Q 2700 2681 2553 2681 
Q 2122 2681 1889 2404 
Q 1656 2128 1656 1613 
L 1656 0 
L 538 0 
L 538 3500 
L 1656 3500 
L 1656 2925 
Q 1872 3269 2151 3426 
Q 2431 3584 2822 3584 
Q 2878 3584 2943 3579 
Q 3009 3575 3134 3559 
L 3138 2547 
z
" transform="scale(0.015625)"/>
       <path id="DejaVuSans-Bold-5d" d="M 2375 -844 
L 434 -844 
L 434 -141 
L 1313 -141 
L 1313 4159 
L 434 4159 
L 434 4863 
L 2375 4863 
L 2375 -844 
z
" transform="scale(0.015625)"/>
      </defs>
      <use xlink:href="#DejaVuSans-Bold-46"/>
      <use xlink:href="#DejaVuSans-Bold-50" transform="translate(68.310547 0)"/>
      <use xlink:href="#DejaVuSans-Bold-52" transform="translate(141.601562 0)"/>
      <use xlink:href="#DejaVuSans-Bold-20" transform="translate(218.603516 0)"/>
      <use xlink:href="#DejaVuSans-Bold-5b" transform="translate(253.417969 0)"/>
      <use xlink:href="#DejaVuSans-Bold-42" transform="translate(299.121094 0)"/>
      <use xlink:href="#DejaVuSans-Bold-61" transform="translate(375.341797 0)"/>
      <use xlink:href="#DejaVuSans-Bold-72" transform="translate(442.822266 0)"/>
      <use xlink:href="#DejaVuSans-Bold-5d" transform="translate(492.138672 0)"/>
     </g>
    </g>
   </g>
   <g id="FillBetweenPolyCollection_1">
    <defs>
     <path id="m010160a6f9" d="M 46.563677 -585.25808 
L 46.563677 -582.74731 
L 47.751615 -582.74731 
L 51.31543 -582.74731 
L 62.006876 -582.74731 
L 73.88626 -582.74731 
L 85.765644 -582.74731 
L 93.685233 -582.74731 
L 105.564617 -542.576879 
L 129.323385 -494.4292 
L 135.461067 -486.013595 
L 141.598748 -478.724593 
L 165.357516 -433.30749 
L 189.512264 -400.215811 
L 201.787627 -368.337844 
L 237.425779 -302.969398 
L 238.217738 -299.066786 
L 240.593615 -289.770625 
L 274.251869 -195.506241 
L 285.339294 -176.952695 
L 310.286001 -147.175495 
L 333.25281 -125.980361 
L 346.716112 -127.45422 
L 383.146222 -133.586774 
L 418.784374 -136.618936 
L 454.818506 -139.36228 
L 491.248616 -143.603062 
L 527.678727 -146.380951 
L 563.316879 -151.527903 
L 599.351011 -155.367065 
L 635.781121 -154.100321 
L 672.211232 -157.844307 
L 707.849384 -158.193129 
L 743.883515 -158.286974 
L 780.313626 -161.568239 
L 816.743737 -162.561204 
L 852.777869 -162.053128 
L 888.812 -161.391282 
L 925.242111 -160.085215 
L 937.121495 -159.525125 
L 961.672222 -158.397817 
L 973.551606 -157.868121 
L 997.310373 -156.837007 
L 1009.189757 -156.449879 
L 1021.069141 -156.265715 
L 1027.206823 -156.166857 
L 1033.344505 -156.066903 
L 1069.774616 -155.432709 
L 1081.654 -155.211728 
L 1093.533384 -154.98401 
L 1099.869055 -154.86126 
L 1106.204726 -154.737022 
L 1106.204726 -322.856037 
L 1106.204726 -322.856037 
L 1099.869055 -322.550768 
L 1093.533384 -322.242053 
L 1081.654 -321.657758 
L 1069.774616 -321.056542 
L 1033.344505 -315.800157 
L 1027.206823 -314.685539 
L 1021.069141 -313.570686 
L 1009.189757 -311.414379 
L 997.310373 -309.255409 
L 973.551606 -304.931985 
L 961.672222 -302.769333 
L 937.121495 -298.295272 
L 925.242111 -296.133012 
L 888.812 -289.508127 
L 852.777869 -282.999882 
L 816.743737 -277.40431 
L 780.313626 -274.418992 
L 743.883515 -267.04484 
L 707.849384 -258.987144 
L 672.211232 -257.510465 
L 635.781121 -250.85644 
L 599.351011 -244.073556 
L 563.316879 -241.551193 
L 527.678727 -233.872164 
L 491.248616 -225.791438 
L 454.818506 -216.422034 
L 418.784374 -209.072245 
L 383.146222 -206.243752 
L 346.716112 -211.554266 
L 333.25281 -215.384889 
L 310.286001 -232.447421 
L 285.339294 -252.911226 
L 274.251869 -271.022889 
L 240.593615 -334.744826 
L 238.217738 -341.195339 
L 237.425779 -344.54593 
L 201.787627 -398.467547 
L 189.512264 -425.799152 
L 165.357516 -455.777357 
L 141.598748 -496.841112 
L 135.461067 -503.980026 
L 129.323385 -510.855893 
L 105.564617 -552.463758 
L 93.685233 -585.25808 
L 85.765644 -585.25808 
L 73.88626 -585.25808 
L 62.006876 -585.25808 
L 51.31543 -585.25808 
L 47.751615 -585.25808 
L 46.563677 -585.25808 
z
" style="stroke: #58508d; stroke-opacity: 0.7; stroke-width: 0.8"/>
    </defs>
    <g clip-path="url(#pf2d65173dc)">
     <use xlink:href="#m010160a6f9" x="0" y="641.330875" style="fill: #58508d; fill-opacity: 0.7; stroke: #58508d; stroke-opacity: 0.7; stroke-width: 0.8"/>
    </g>
   </g>
   <g id="FillBetweenPolyCollection_2">
    <defs>
     <path id="m6abb16fd85" d="M 46.563677 -585.25808 
L 46.563677 -582.74731 
L 47.751615 -582.74731 
L 51.31543 -582.74731 
L 62.006876 -582.74731 
L 73.88626 -582.74731 
L 85.765644 -582.74731 
L 93.685233 -582.74731 
L 105.564617 -542.576879 
L 129.323385 -494.4292 
L 135.461067 -486.013595 
L 141.598748 -478.724593 
L 165.357516 -414.922284 
L 189.512264 -368.915324 
L 201.787627 -335.685699 
L 237.425779 -259.154623 
L 238.217738 -255.749354 
L 240.593615 -246.794104 
L 274.251869 -166.837941 
L 285.339294 -149.249394 
L 310.286001 -113.626501 
L 333.25281 -92.52717 
L 346.716112 -96.178173 
L 383.146222 -105.165149 
L 418.784374 -116.743813 
L 454.818506 -126.643304 
L 491.248616 -128.359373 
L 527.678727 -137.272401 
L 563.316879 -143.01344 
L 599.351011 -145.445875 
L 635.781121 -150.26398 
L 672.211232 -153.236921 
L 707.849384 -155.098613 
L 743.883515 -156.994772 
L 780.313626 -157.376808 
L 816.743737 -157.299727 
L 852.777869 -158.508973 
L 888.812 -159.354513 
L 925.242111 -158.716167 
L 937.121495 -158.5284 
L 961.672222 -158.162892 
L 973.551606 -157.99933 
L 997.310373 -157.687403 
L 1009.189757 -157.538177 
L 1021.069141 -157.396862 
L 1027.206823 -157.324089 
L 1033.344505 -157.2521 
L 1069.774616 -156.840297 
L 1081.654 -156.673523 
L 1093.533384 -156.289685 
L 1099.869055 -156.085938 
L 1106.204726 -155.883209 
L 1106.204726 -316.968983 
L 1106.204726 -316.968983 
L 1099.869055 -315.76334 
L 1093.533384 -314.558794 
L 1081.654 -312.30692 
L 1069.774616 -310.058257 
L 1033.344505 -303.172754 
L 1027.206823 -302.013642 
L 1021.069141 -300.855 
L 1009.189757 -298.615111 
L 997.310373 -296.376631 
L 973.551606 -291.903432 
L 961.672222 -289.668791 
L 937.121495 -285.052396 
L 925.242111 -282.823474 
L 888.812 -279.747523 
L 852.777869 -277.809376 
L 816.743737 -272.870167 
L 780.313626 -265.86638 
L 743.883515 -258.097815 
L 707.849384 -258.072748 
L 672.211232 -253.181479 
L 635.781121 -245.488116 
L 599.351011 -237.726131 
L 563.316879 -231.436596 
L 527.678727 -222.577775 
L 491.248616 -211.672394 
L 454.818506 -199.539671 
L 418.784374 -190.827414 
L 383.146222 -181.208595 
L 346.716112 -172.472602 
L 333.25281 -175.116226 
L 310.286001 -197.912591 
L 285.339294 -227.23224 
L 274.251869 -245.873833 
L 240.593615 -307.975897 
L 238.217738 -314.129679 
L 237.425779 -316.388996 
L 201.787627 -374.269 
L 189.512264 -403.467153 
L 165.357516 -440.873638 
L 141.598748 -496.841112 
L 135.461067 -503.980026 
L 129.323385 -510.855893 
L 105.564617 -552.463758 
L 93.685233 -585.25808 
L 85.765644 -585.25808 
L 73.88626 -585.25808 
L 62.006876 -585.25808 
L 51.31543 -585.25808 
L 47.751615 -585.25808 
L 46.563677 -585.25808 
z
" style="stroke: #ffa600; stroke-opacity: 0.7; stroke-width: 0.8"/>
    </defs>
    <g clip-path="url(#pf2d65173dc)">
     <use xlink:href="#m6abb16fd85" x="0" y="641.330875" style="fill: #ffa600; fill-opacity: 0.7; stroke: #ffa600; stroke-opacity: 0.7; stroke-width: 0.8"/>
    </g>
   </g>
   <g id="line2d_14">
    <path d="M 46.563677 57.396599 
L 47.751615 57.396599 
L 51.31543 57.396599 
L 62.006876 57.396599 
L 73.88626 57.396599 
L 85.765644 57.396599 
L 93.685233 57.396599 
L 105.564617 94.084381 
L 129.323385 139.329497 
L 135.461067 146.978838 
L 141.598748 153.996822 
L 165.357516 196.668576 
L 189.512264 228.481654 
L 201.787627 257.896971 
L 237.425779 317.157746 
L 238.217738 320.844454 
L 240.593615 328.034414 
L 274.251869 400.951056 
L 285.339294 422.595971 
L 310.286001 446.545808 
L 333.25281 463.98479 
L 346.716112 467.60404 
L 383.146222 469.821028 
L 418.784374 467.593919 
L 454.818506 463.78601 
L 491.248616 459.394027 
L 527.678727 454.913723 
L 563.316879 450.628419 
L 599.351011 446.43126 
L 635.781121 442.349943 
L 672.211232 438.410661 
L 707.849384 434.696961 
L 743.883515 431.095614 
L 780.313626 427.651419 
L 816.743737 424.42721 
L 852.777869 421.45879 
L 888.812 418.691311 
L 925.242111 416.067945 
L 937.121495 415.251381 
L 961.672222 413.612628 
L 973.551606 412.846363 
L 997.310373 411.35681 
L 1009.189757 410.631974 
L 1021.069141 409.920198 
L 1027.206823 409.554391 
L 1033.344505 409.192204 
L 1069.774616 407.115935 
L 1081.654 406.462633 
L 1093.533384 405.819014 
L 1099.869055 405.477622 
L 1106.204726 405.1397 
" clip-path="url(#pf2d65173dc)" style="fill: none; stroke: #000000; stroke-width: 4; stroke-linecap: round"/>
   </g>
   <g id="line2d_15">
    <path d="M 46.563677 56.072795 
L 47.751615 56.072795 
L 51.31543 56.072795 
L 62.006876 56.072795 
L 73.88626 56.072795 
L 85.765644 56.072795 
L 93.685233 56.072795 
L 105.564617 88.867117 
L 129.323385 130.474982 
L 135.461067 137.350849 
L 141.598748 144.489763 
L 165.357516 185.553518 
L 189.512264 215.531723 
L 201.787627 242.863328 
L 237.425779 296.784945 
L 238.217738 300.135536 
L 240.593615 306.586049 
L 274.251869 370.307986 
L 285.339294 388.419649 
L 310.286001 408.883454 
L 333.25281 425.945986 
L 346.716112 429.776609 
L 383.146222 435.087123 
L 418.784374 432.25863 
L 454.818506 424.908841 
L 491.248616 415.539437 
L 527.678727 407.458711 
L 563.316879 399.779682 
L 599.351011 397.257319 
L 635.781121 390.474435 
L 672.211232 383.82041 
L 707.849384 382.343731 
L 743.883515 374.286035 
L 780.313626 366.911883 
L 816.743737 363.926565 
L 852.777869 358.330993 
L 888.812 351.822748 
L 925.242111 345.197863 
L 937.121495 343.035603 
L 961.672222 338.561542 
L 973.551606 336.39889 
L 997.310373 332.075466 
L 1009.189757 329.916496 
L 1021.069141 327.760189 
L 1027.206823 326.645336 
L 1033.344505 325.530718 
L 1069.774616 320.274333 
L 1081.654 319.673117 
L 1093.533384 319.088822 
L 1099.869055 318.780107 
L 1106.204726 318.474838 
" clip-path="url(#pf2d65173dc)" style="fill: none; stroke-dasharray: 7.4,3.2; stroke-dashoffset: 0; stroke: #000000; stroke-width: 2"/>
   </g>
   <g id="line2d_16">
    <path d="M 46.563677 58.583565 
L 47.751615 58.583565 
L 51.31543 58.583565 
L 62.006876 58.583565 
L 73.88626 58.583565 
L 85.765644 58.583565 
L 93.685233 58.583565 
L 105.564617 98.753996 
L 129.323385 146.901675 
L 135.461067 155.31728 
L 141.598748 162.606282 
L 165.357516 208.023385 
L 189.512264 241.115064 
L 201.787627 272.993031 
L 237.425779 338.361477 
L 238.217738 342.264089 
L 240.593615 351.56025 
L 274.251869 445.824634 
L 285.339294 464.37818 
L 310.286001 494.15538 
L 333.25281 515.350514 
L 346.716112 513.876655 
L 383.146222 507.744101 
L 418.784374 504.711939 
L 454.818506 501.968595 
L 491.248616 497.727813 
L 527.678727 494.949924 
L 563.316879 489.802972 
L 599.351011 485.96381 
L 635.781121 487.230554 
L 672.211232 483.486568 
L 707.849384 483.137746 
L 743.883515 483.043901 
L 780.313626 479.762636 
L 816.743737 478.769671 
L 852.777869 479.277747 
L 888.812 479.939593 
L 925.242111 481.24566 
L 937.121495 481.80575 
L 961.672222 482.933058 
L 973.551606 483.462754 
L 997.310373 484.493868 
L 1009.189757 484.880996 
L 1021.069141 485.06516 
L 1027.206823 485.164018 
L 1033.344505 485.263972 
L 1069.774616 485.898166 
L 1081.654 486.119147 
L 1093.533384 486.346865 
L 1099.869055 486.469615 
L 1106.204726 486.593853 
" clip-path="url(#pf2d65173dc)" style="fill: none; stroke-dasharray: 2,3.3; stroke-dashoffset: 0; stroke: #000000; stroke-width: 2"/>
   </g>
   <g id="line2d_17">
    <path d="M 46.563677 57.396599 
L 47.751615 57.396599 
L 51.31543 57.396599 
L 62.006876 57.396599 
L 73.88626 57.396599 
L 85.765644 57.396599 
L 93.685233 57.396599 
L 105.564617 94.084381 
L 129.323385 139.329497 
L 135.461067 146.978838 
L 141.598748 153.996822 
L 165.357516 213.030635 
L 189.512264 253.663567 
L 201.787627 284.255956 
L 237.425779 350.396828 
L 238.217738 353.298293 
L 240.593615 360.540254 
L 274.251869 432.252999 
L 285.339294 452.437776 
L 310.286001 480.903886 
L 333.25281 499.763248 
L 346.716112 499.447495 
L 383.146222 493.623477 
L 418.784374 486.190713 
L 454.818506 478.258351 
L 491.248616 470.833183 
L 527.678727 464.258601 
L 563.316879 458.642715 
L 599.351011 453.492325 
L 635.781121 448.655755 
L 672.211232 444.059069 
L 707.849384 439.78428 
L 743.883515 435.686297 
L 780.313626 431.795724 
L 816.743737 428.15155 
L 852.777869 424.802957 
L 888.812 421.692631 
L 925.242111 418.741607 
L 937.121495 417.826051 
L 961.672222 415.987095 
L 973.551606 415.129903 
L 997.310373 413.463754 
L 1009.189757 412.655594 
L 1021.069141 411.864167 
L 1027.206823 411.457449 
L 1033.344505 411.055021 
L 1069.774616 408.753961 
L 1081.654 408.031938 
L 1093.533384 407.323033 
L 1099.869055 406.946375 
L 1106.204726 406.573486 
" clip-path="url(#pf2d65173dc)" style="fill: none; stroke: #808080; stroke-width: 4; stroke-linecap: round"/>
   </g>
   <g id="line2d_18">
    <path d="M 46.563677 56.072795 
L 47.751615 56.072795 
L 51.31543 56.072795 
L 62.006876 56.072795 
L 73.88626 56.072795 
L 85.765644 56.072795 
L 93.685233 56.072795 
L 105.564617 88.867117 
L 129.323385 130.474982 
L 135.461067 137.350849 
L 141.598748 144.489763 
L 165.357516 200.457237 
L 189.512264 237.863722 
L 201.787627 267.061875 
L 237.425779 324.941879 
L 238.217738 327.201196 
L 240.593615 333.354978 
L 274.251869 395.457042 
L 285.339294 414.098635 
L 310.286001 443.418284 
L 333.25281 466.214649 
L 346.716112 468.858273 
L 383.146222 460.12228 
L 418.784374 450.503461 
L 454.818506 441.791204 
L 491.248616 429.658481 
L 527.678727 418.7531 
L 563.316879 409.894279 
L 599.351011 403.604744 
L 635.781121 395.842759 
L 672.211232 388.149396 
L 707.849384 383.258127 
L 743.883515 383.23306 
L 780.313626 375.464495 
L 816.743737 368.460708 
L 852.777869 363.521499 
L 888.812 361.583352 
L 925.242111 358.507401 
L 937.121495 356.278479 
L 961.672222 351.662084 
L 973.551606 349.427443 
L 997.310373 344.954244 
L 1009.189757 342.715764 
L 1021.069141 340.475875 
L 1027.206823 339.317233 
L 1033.344505 338.158121 
L 1069.774616 331.272618 
L 1081.654 329.023955 
L 1093.533384 326.772081 
L 1099.869055 325.567535 
L 1106.204726 324.361892 
" clip-path="url(#pf2d65173dc)" style="fill: none; stroke-dasharray: 7.4,3.2; stroke-dashoffset: 0; stroke: #808080; stroke-width: 2"/>
   </g>
   <g id="line2d_19">
    <path d="M 46.563677 58.583565 
L 47.751615 58.583565 
L 51.31543 58.583565 
L 62.006876 58.583565 
L 73.88626 58.583565 
L 85.765644 58.583565 
L 93.685233 58.583565 
L 105.564617 98.753996 
L 129.323385 146.901675 
L 135.461067 155.31728 
L 141.598748 162.606282 
L 165.357516 226.408591 
L 189.512264 272.415551 
L 201.787627 305.645176 
L 237.425779 382.176252 
L 238.217738 385.581521 
L 240.593615 394.536771 
L 274.251869 474.492934 
L 285.339294 492.081481 
L 310.286001 527.704374 
L 333.25281 548.803705 
L 346.716112 545.152702 
L 383.146222 536.165726 
L 418.784374 524.587062 
L 454.818506 514.687571 
L 491.248616 512.971502 
L 527.678727 504.058474 
L 563.316879 498.317435 
L 599.351011 495.885 
L 635.781121 491.066895 
L 672.211232 488.093954 
L 707.849384 486.232262 
L 743.883515 484.336103 
L 780.313626 483.954067 
L 816.743737 484.031148 
L 852.777869 482.821902 
L 888.812 481.976362 
L 925.242111 482.614708 
L 937.121495 482.802475 
L 961.672222 483.167983 
L 973.551606 483.331545 
L 997.310373 483.643472 
L 1009.189757 483.792698 
L 1021.069141 483.934013 
L 1027.206823 484.006786 
L 1033.344505 484.078775 
L 1069.774616 484.490578 
L 1081.654 484.657352 
L 1093.533384 485.04119 
L 1099.869055 485.244937 
L 1106.204726 485.447666 
" clip-path="url(#pf2d65173dc)" style="fill: none; stroke-dasharray: 2,3.3; stroke-dashoffset: 0; stroke: #808080; stroke-width: 2"/>
   </g>
   <g id="patch_3">
    <path d="M 88.5375 573.44025 
L 88.5375 31.43625 
" style="fill: none; stroke: #ffffff; stroke-linejoin: miter; stroke-linecap: square"/>
   </g>
   <g id="patch_4">
    <path d="M 1112.540398 573.44025 
L 1112.540398 31.43625 
" style="fill: none; stroke: #ffffff; stroke-linejoin: miter; stroke-linecap: square"/>
   </g>
   <g id="patch_5">
    <path d="M 88.5375 573.44025 
L 1112.540398 573.44025 
" style="fill: none; stroke: #ffffff; stroke-linejoin: miter; stroke-linecap: square"/>
   </g>
   <g id="patch_6">
    <path d="M 88.5375 31.43625 
L 1112.540398 31.43625 
" style="fill: none; stroke: #ffffff; stroke-linejoin: miter; stroke-linecap: square"/>
   </g>
   <g id="text_16">
    <!-- FPR -->
    <g style="fill: #262626" transform="translate(574.305824 25.43625) scale(0.24 -0.24)">
     <use xlink:href="#DejaVuSans-Bold-46"/>
     <use xlink:href="#DejaVuSans-Bold-50" transform="translate(68.310547 0)"/>
     <use xlink:href="#DejaVuSans-Bold-52" transform="translate(141.601562 0)"/>
    </g>
   </g>
   <g id="legend_1">
    <g id="patch_7">
     <path d="M 869.97321 210.495625 
L 1097.140398 210.495625 
Q 1101.540398 210.495625 1101.540398 206.095625 
L 1101.540398 46.83625 
Q 1101.540398 42.43625 1097.140398 42.43625 
L 869.97321 42.43625 
Q 865.57321 42.43625 865.57321 46.83625 
L 865.57321 206.095625 
Q 865.57321 210.495625 869.97321 210.495625 
z
" style="fill: #eaeaf2; opacity: 0.8; stroke: #cccccc; stroke-width: 0.8; stroke-linejoin: miter"/>
    </g>
    <g id="line2d_20">
     <path d="M 874.37321 60.252813 
L 896.37321 60.252813 
L 918.37321 60.252813 
" style="fill: none; stroke: #000000; stroke-width: 4; stroke-linecap: round"/>
    </g>
    <g id="text_17">
     <!-- Mean -->
     <g style="fill: #262626" transform="translate(935.97321 67.952813) scale(0.22 -0.22)">
      <defs>
       <path id="DejaVuSans-4d" d="M 628 4666 
L 1569 4666 
L 2759 1491 
L 3956 4666 
L 4897 4666 
L 4897 0 
L 4281 0 
L 4281 4097 
L 3078 897 
L 2444 897 
L 1241 4097 
L 1241 0 
L 628 0 
L 628 4666 
z
" transform="scale(0.015625)"/>
       <path id="DejaVuSans-65" d="M 3597 1894 
L 3597 1613 
L 953 1613 
Q 991 1019 1311 708 
Q 1631 397 2203 397 
Q 2534 397 2845 478 
Q 3156 559 3463 722 
L 3463 178 
Q 3153 47 2828 -22 
Q 2503 -91 2169 -91 
Q 1331 -91 842 396 
Q 353 884 353 1716 
Q 353 2575 817 3079 
Q 1281 3584 2069 3584 
Q 2775 3584 3186 3129 
Q 3597 2675 3597 1894 
z
M 3022 2063 
Q 3016 2534 2758 2815 
Q 2500 3097 2075 3097 
Q 1594 3097 1305 2825 
Q 1016 2553 972 2059 
L 3022 2063 
z
" transform="scale(0.015625)"/>
       <path id="DejaVuSans-61" d="M 2194 1759 
Q 1497 1759 1228 1600 
Q 959 1441 959 1056 
Q 959 750 1161 570 
Q 1363 391 1709 391 
Q 2188 391 2477 730 
Q 2766 1069 2766 1631 
L 2766 1759 
L 2194 1759 
z
M 3341 1997 
L 3341 0 
L 2766 0 
L 2766 531 
Q 2569 213 2275 61 
Q 1981 -91 1556 -91 
Q 1019 -91 701 211 
Q 384 513 384 1019 
Q 384 1609 779 1909 
Q 1175 2209 1959 2209 
L 2766 2209 
L 2766 2266 
Q 2766 2663 2505 2880 
Q 2244 3097 1772 3097 
Q 1472 3097 1187 3025 
Q 903 2953 641 2809 
L 641 3341 
Q 956 3463 1253 3523 
Q 1550 3584 1831 3584 
Q 2591 3584 2966 3190 
Q 3341 2797 3341 1997 
z
" transform="scale(0.015625)"/>
       <path id="DejaVuSans-6e" d="M 3513 2113 
L 3513 0 
L 2938 0 
L 2938 2094 
Q 2938 2591 2744 2837 
Q 2550 3084 2163 3084 
Q 1697 3084 1428 2787 
Q 1159 2491 1159 1978 
L 1159 0 
L 581 0 
L 581 3500 
L 1159 3500 
L 1159 2956 
Q 1366 3272 1645 3428 
Q 1925 3584 2291 3584 
Q 2894 3584 3203 3211 
Q 3513 2838 3513 2113 
z
" transform="scale(0.015625)"/>
      </defs>
      <use xlink:href="#DejaVuSans-4d"/>
      <use xlink:href="#DejaVuSans-65" transform="translate(86.279297 0)"/>
      <use xlink:href="#DejaVuSans-61" transform="translate(147.802734 0)"/>
      <use xlink:href="#DejaVuSans-6e" transform="translate(209.082031 0)"/>
     </g>
    </g>
    <g id="line2d_21">
     <path d="M 874.37321 92.544688 
L 896.37321 92.544688 
L 918.37321 92.544688 
" style="fill: none; stroke-dasharray: 7.4,3.2; stroke-dashoffset: 0; stroke: #000000; stroke-width: 2"/>
    </g>
    <g id="text_18">
     <!-- P10 Percentile -->
     <g style="fill: #262626" transform="translate(935.97321 100.244688) scale(0.22 -0.22)">
      <defs>
       <path id="DejaVuSans-50" d="M 1259 4147 
L 1259 2394 
L 2053 2394 
Q 2494 2394 2734 2622 
Q 2975 2850 2975 3272 
Q 2975 3691 2734 3919 
Q 2494 4147 2053 4147 
L 1259 4147 
z
M 628 4666 
L 2053 4666 
Q 2838 4666 3239 4311 
Q 3641 3956 3641 3272 
Q 3641 2581 3239 2228 
Q 2838 1875 2053 1875 
L 1259 1875 
L 1259 0 
L 628 0 
L 628 4666 
z
" transform="scale(0.015625)"/>
       <path id="DejaVuSans-31" d="M 794 531 
L 1825 531 
L 1825 4091 
L 703 3866 
L 703 4441 
L 1819 4666 
L 2450 4666 
L 2450 531 
L 3481 531 
L 3481 0 
L 794 0 
L 794 531 
z
" transform="scale(0.015625)"/>
       <path id="DejaVuSans-20" transform="scale(0.015625)"/>
       <path id="DejaVuSans-72" d="M 2631 2963 
Q 2534 3019 2420 3045 
Q 2306 3072 2169 3072 
Q 1681 3072 1420 2755 
Q 1159 2438 1159 1844 
L 1159 0 
L 581 0 
L 581 3500 
L 1159 3500 
L 1159 2956 
Q 1341 3275 1631 3429 
Q 1922 3584 2338 3584 
Q 2397 3584 2469 3576 
Q 2541 3569 2628 3553 
L 2631 2963 
z
" transform="scale(0.015625)"/>
       <path id="DejaVuSans-63" d="M 3122 3366 
L 3122 2828 
Q 2878 2963 2633 3030 
Q 2388 3097 2138 3097 
Q 1578 3097 1268 2742 
Q 959 2388 959 1747 
Q 959 1106 1268 751 
Q 1578 397 2138 397 
Q 2388 397 2633 464 
Q 2878 531 3122 666 
L 3122 134 
Q 2881 22 2623 -34 
Q 2366 -91 2075 -91 
Q 1284 -91 818 406 
Q 353 903 353 1747 
Q 353 2603 823 3093 
Q 1294 3584 2113 3584 
Q 2378 3584 2631 3529 
Q 2884 3475 3122 3366 
z
" transform="scale(0.015625)"/>
       <path id="DejaVuSans-74" d="M 1172 4494 
L 1172 3500 
L 2356 3500 
L 2356 3053 
L 1172 3053 
L 1172 1153 
Q 1172 725 1289 603 
Q 1406 481 1766 481 
L 2356 481 
L 2356 0 
L 1766 0 
Q 1100 0 847 248 
Q 594 497 594 1153 
L 594 3053 
L 172 3053 
L 172 3500 
L 594 3500 
L 594 4494 
L 1172 4494 
z
" transform="scale(0.015625)"/>
       <path id="DejaVuSans-69" d="M 603 3500 
L 1178 3500 
L 1178 0 
L 603 0 
L 603 3500 
z
M 603 4863 
L 1178 4863 
L 1178 4134 
L 603 4134 
L 603 4863 
z
" transform="scale(0.015625)"/>
       <path id="DejaVuSans-6c" d="M 603 4863 
L 1178 4863 
L 1178 0 
L 603 0 
L 603 4863 
z
" transform="scale(0.015625)"/>
      </defs>
      <use xlink:href="#DejaVuSans-50"/>
      <use xlink:href="#DejaVuSans-31" transform="translate(60.302734 0)"/>
      <use xlink:href="#DejaVuSans-30" transform="translate(123.925781 0)"/>
      <use xlink:href="#DejaVuSans-20" transform="translate(187.548828 0)"/>
      <use xlink:href="#DejaVuSans-50" transform="translate(219.335938 0)"/>
      <use xlink:href="#DejaVuSans-65" transform="translate(276.013672 0)"/>
      <use xlink:href="#DejaVuSans-72" transform="translate(337.537109 0)"/>
      <use xlink:href="#DejaVuSans-63" transform="translate(376.400391 0)"/>
      <use xlink:href="#DejaVuSans-65" transform="translate(431.380859 0)"/>
      <use xlink:href="#DejaVuSans-6e" transform="translate(492.904297 0)"/>
      <use xlink:href="#DejaVuSans-74" transform="translate(556.283203 0)"/>
      <use xlink:href="#DejaVuSans-69" transform="translate(595.492188 0)"/>
      <use xlink:href="#DejaVuSans-6c" transform="translate(623.275391 0)"/>
      <use xlink:href="#DejaVuSans-65" transform="translate(651.058594 0)"/>
     </g>
    </g>
    <g id="line2d_22">
     <path d="M 874.37321 124.836563 
L 896.37321 124.836563 
L 918.37321 124.836563 
" style="fill: none; stroke-dasharray: 2,3.3; stroke-dashoffset: 0; stroke: #000000; stroke-width: 2"/>
    </g>
    <g id="text_19">
     <!-- P90 Percentile -->
     <g style="fill: #262626" transform="translate(935.97321 132.536563) scale(0.22 -0.22)">
      <use xlink:href="#DejaVuSans-50"/>
      <use xlink:href="#DejaVuSans-39" transform="translate(60.302734 0)"/>
      <use xlink:href="#DejaVuSans-30" transform="translate(123.925781 0)"/>
      <use xlink:href="#DejaVuSans-20" transform="translate(187.548828 0)"/>
      <use xlink:href="#DejaVuSans-50" transform="translate(219.335938 0)"/>
      <use xlink:href="#DejaVuSans-65" transform="translate(276.013672 0)"/>
      <use xlink:href="#DejaVuSans-72" transform="translate(337.537109 0)"/>
      <use xlink:href="#DejaVuSans-63" transform="translate(376.400391 0)"/>
      <use xlink:href="#DejaVuSans-65" transform="translate(431.380859 0)"/>
      <use xlink:href="#DejaVuSans-6e" transform="translate(492.904297 0)"/>
      <use xlink:href="#DejaVuSans-74" transform="translate(556.283203 0)"/>
      <use xlink:href="#DejaVuSans-69" transform="translate(595.492188 0)"/>
      <use xlink:href="#DejaVuSans-6c" transform="translate(623.275391 0)"/>
      <use xlink:href="#DejaVuSans-65" transform="translate(651.058594 0)"/>
     </g>
    </g>
    <g id="patch_8">
     <path d="M 874.37321 164.828438 
L 918.37321 164.828438 
L 918.37321 149.428438 
L 874.37321 149.428438 
z
" style="fill: #58508d; fill-opacity: 0.7; stroke: #58508d; stroke-opacity: 0.7; stroke-width: 0.8; stroke-linejoin: miter"/>
    </g>
    <g id="text_20">
     <!-- Batch 0 -->
     <g style="fill: #262626" transform="translate(935.97321 164.828438) scale(0.22 -0.22)">
      <defs>
       <path id="DejaVuSans-42" d="M 1259 2228 
L 1259 519 
L 2272 519 
Q 2781 519 3026 730 
Q 3272 941 3272 1375 
Q 3272 1813 3026 2020 
Q 2781 2228 2272 2228 
L 1259 2228 
z
M 1259 4147 
L 1259 2741 
L 2194 2741 
Q 2656 2741 2882 2914 
Q 3109 3088 3109 3444 
Q 3109 3797 2882 3972 
Q 2656 4147 2194 4147 
L 1259 4147 
z
M 628 4666 
L 2241 4666 
Q 2963 4666 3353 4366 
Q 3744 4066 3744 3513 
Q 3744 3084 3544 2831 
Q 3344 2578 2956 2516 
Q 3422 2416 3680 2098 
Q 3938 1781 3938 1306 
Q 3938 681 3513 340 
Q 3088 0 2303 0 
L 628 0 
L 628 4666 
z
" transform="scale(0.015625)"/>
       <path id="DejaVuSans-68" d="M 3513 2113 
L 3513 0 
L 2938 0 
L 2938 2094 
Q 2938 2591 2744 2837 
Q 2550 3084 2163 3084 
Q 1697 3084 1428 2787 
Q 1159 2491 1159 1978 
L 1159 0 
L 581 0 
L 581 4863 
L 1159 4863 
L 1159 2956 
Q 1366 3272 1645 3428 
Q 1925 3584 2291 3584 
Q 2894 3584 3203 3211 
Q 3513 2838 3513 2113 
z
" transform="scale(0.015625)"/>
      </defs>
      <use xlink:href="#DejaVuSans-42"/>
      <use xlink:href="#DejaVuSans-61" transform="translate(68.603516 0)"/>
      <use xlink:href="#DejaVuSans-74" transform="translate(129.882812 0)"/>
      <use xlink:href="#DejaVuSans-63" transform="translate(169.091797 0)"/>
      <use xlink:href="#DejaVuSans-68" transform="translate(224.072266 0)"/>
      <use xlink:href="#DejaVuSans-20" transform="translate(287.451172 0)"/>
      <use xlink:href="#DejaVuSans-30" transform="translate(319.238281 0)"/>
     </g>
    </g>
    <g id="patch_9">
     <path d="M 874.37321 197.120313 
L 918.37321 197.120313 
L 918.37321 181.720313 
L 874.37321 181.720313 
z
" style="fill: #ffa600; fill-opacity: 0.7; stroke: #ffa600; stroke-opacity: 0.7; stroke-width: 0.8; stroke-linejoin: miter"/>
    </g>
    <g id="text_21">
     <!-- Batch 5 -->
     <g style="fill: #262626" transform="translate(935.97321 197.120313) scale(0.22 -0.22)">
      <use xlink:href="#DejaVuSans-42"/>
      <use xlink:href="#DejaVuSans-61" transform="translate(68.603516 0)"/>
      <use xlink:href="#DejaVuSans-74" transform="translate(129.882812 0)"/>
      <use xlink:href="#DejaVuSans-63" transform="translate(169.091797 0)"/>
      <use xlink:href="#DejaVuSans-68" transform="translate(224.072266 0)"/>
      <use xlink:href="#DejaVuSans-20" transform="translate(287.451172 0)"/>
      <use xlink:href="#DejaVuSans-35" transform="translate(319.238281 0)"/>
     </g>
    </g>
   </g>
  </g>
 </g>
 <defs>
  <clipPath id="pf2d65173dc">
   <rect x="88.5375" y="31.43625" width="1024.002898" height="542.004"/>
  </clipPath>
 </defs>
</svg>
