<?xml version="1.0" encoding="utf-8" standalone="no"?>
<!DOCTYPE svg PUBLIC "-//W3C//DTD SVG 1.1//EN"
  "http://www.w3.org/Graphics/SVG/1.1/DTD/svg11.dtd">
<svg xmlns:xlink="http://www.w3.org/1999/xlink" width="1144.350997pt" height="641.330875pt" viewBox="0 0 1144.350997 641.330875" xmlns="http://www.w3.org/2000/svg" version="1.1">
 <metadata>
  <rdf:RDF xmlns:dc="http://purl.org/dc/elements/1.1/" xmlns:cc="http://creativecommons.org/ns#" xmlns:rdf="http://www.w3.org/1999/02/22-rdf-syntax-ns#">
   <cc:Work>
    <dc:type rdf:resource="http://purl.org/dc/dcmitype/StillImage"/>
    <dc:date>2025-07-08T08:17:39.895178</dc:date>
    <dc:format>image/svg+xml</dc:format>
    <dc:creator>
     <cc:Agent>
      <dc:title>Matplotlib v3.10.3, https://matplotlib.org/</dc:title>
     </cc:Agent>
    </dc:creator>
   </cc:Work>
  </rdf:RDF>
 </metadata>
 <defs>
  <style type="text/css">*{stroke-linejoin: round; stroke-linecap: butt}</style>
 </defs>
 <g id="figure_1">
  <g id="patch_1">
   <path d="M 0 641.330875 
L 1144.350997 641.330875 
L 1144.350997 0 
L 0 0 
z
" style="fill: #ffffff"/>
  </g>
  <g id="axes_1">
   <g id="patch_2">
    <path d="M 119.265 573.44025 
L 1112.757898 573.44025 
L 1112.757898 31.43625 
L 119.265 31.43625 
z
" style="fill: #eaeaf2"/>
   </g>
   <g id="matplotlib.axis_1">
    <g id="xtick_1">
     <g id="line2d_1">
      <path d="M 124.259357 573.44025 
L 124.259357 31.43625 
" clip-path="url(#p66382e8792)" style="fill: none; stroke: #ffffff; stroke-width: 0.8; stroke-linecap: round"/>
     </g>
     <g id="text_1">
      <!-- 2023 -->
      <g style="fill: #262626" transform="translate(93.719357 599.9765) scale(0.24 -0.24)">
       <defs>
        <path id="DejaVuSans-32" d="M 1228 531 
L 3431 531 
L 3431 0 
L 469 0 
L 469 531 
Q 828 903 1448 1529 
Q 2069 2156 2228 2338 
Q 2531 2678 2651 2914 
Q 2772 3150 2772 3378 
Q 2772 3750 2511 3984 
Q 2250 4219 1831 4219 
Q 1534 4219 1204 4116 
Q 875 4013 500 3803 
L 500 4441 
Q 881 4594 1212 4672 
Q 1544 4750 1819 4750 
Q 2544 4750 2975 4387 
Q 3406 4025 3406 3419 
Q 3406 3131 3298 2873 
Q 3191 2616 2906 2266 
Q 2828 2175 2409 1742 
Q 1991 1309 1228 531 
z
" transform="scale(0.015625)"/>
        <path id="DejaVuSans-30" d="M 2034 4250 
Q 1547 4250 1301 3770 
Q 1056 3291 1056 2328 
Q 1056 1369 1301 889 
Q 1547 409 2034 409 
Q 2525 409 2770 889 
Q 3016 1369 3016 2328 
Q 3016 3291 2770 3770 
Q 2525 4250 2034 4250 
z
M 2034 4750 
Q 2819 4750 3233 4129 
Q 3647 3509 3647 2328 
Q 3647 1150 3233 529 
Q 2819 -91 2034 -91 
Q 1250 -91 836 529 
Q 422 1150 422 2328 
Q 422 3509 836 4129 
Q 1250 4750 2034 4750 
z
" transform="scale(0.015625)"/>
        <path id="DejaVuSans-33" d="M 2597 2516 
Q 3050 2419 3304 2112 
Q 3559 1806 3559 1356 
Q 3559 666 3084 287 
Q 2609 -91 1734 -91 
Q 1441 -91 1130 -33 
Q 819 25 488 141 
L 488 750 
Q 750 597 1062 519 
Q 1375 441 1716 441 
Q 2309 441 2620 675 
Q 2931 909 2931 1356 
Q 2931 1769 2642 2001 
Q 2353 2234 1838 2234 
L 1294 2234 
L 1294 2753 
L 1863 2753 
Q 2328 2753 2575 2939 
Q 2822 3125 2822 3475 
Q 2822 3834 2567 4026 
Q 2313 4219 1838 4219 
Q 1578 4219 1281 4162 
Q 984 4106 628 3988 
L 628 4550 
Q 988 4650 1302 4700 
Q 1616 4750 1894 4750 
Q 2613 4750 3031 4423 
Q 3450 4097 3450 3541 
Q 3450 3153 3228 2886 
Q 3006 2619 2597 2516 
z
" transform="scale(0.015625)"/>
       </defs>
       <use xlink:href="#DejaVuSans-32"/>
       <use xlink:href="#DejaVuSans-30" transform="translate(63.623047 0)"/>
       <use xlink:href="#DejaVuSans-32" transform="translate(127.246094 0)"/>
       <use xlink:href="#DejaVuSans-33" transform="translate(190.869141 0)"/>
      </g>
     </g>
    </g>
    <g id="xtick_2">
     <g id="line2d_2">
      <path d="M 264.48554 573.44025 
L 264.48554 31.43625 
" clip-path="url(#p66382e8792)" style="fill: none; stroke: #ffffff; stroke-width: 0.8; stroke-linecap: round"/>
     </g>
     <g id="text_2">
      <!-- 2024 -->
      <g style="fill: #262626" transform="translate(233.94554 599.9765) scale(0.24 -0.24)">
       <defs>
        <path id="DejaVuSans-34" d="M 2419 4116 
L 825 1625 
L 2419 1625 
L 2419 4116 
z
M 2253 4666 
L 3047 4666 
L 3047 1625 
L 3713 1625 
L 3713 1100 
L 3047 1100 
L 3047 0 
L 2419 0 
L 2419 1100 
L 313 1100 
L 313 1709 
L 2253 4666 
z
" transform="scale(0.015625)"/>
       </defs>
       <use xlink:href="#DejaVuSans-32"/>
       <use xlink:href="#DejaVuSans-30" transform="translate(63.623047 0)"/>
       <use xlink:href="#DejaVuSans-32" transform="translate(127.246094 0)"/>
       <use xlink:href="#DejaVuSans-34" transform="translate(190.869141 0)"/>
      </g>
     </g>
    </g>
    <g id="xtick_3">
     <g id="line2d_3">
      <path d="M 405.095903 573.44025 
L 405.095903 31.43625 
" clip-path="url(#p66382e8792)" style="fill: none; stroke: #ffffff; stroke-width: 0.8; stroke-linecap: round"/>
     </g>
     <g id="text_3">
      <!-- 2025 -->
      <g style="fill: #262626" transform="translate(374.555903 599.9765) scale(0.24 -0.24)">
       <defs>
        <path id="DejaVuSans-35" d="M 691 4666 
L 3169 4666 
L 3169 4134 
L 1269 4134 
L 1269 2991 
Q 1406 3038 1543 3061 
Q 1681 3084 1819 3084 
Q 2600 3084 3056 2656 
Q 3513 2228 3513 1497 
Q 3513 744 3044 326 
Q 2575 -91 1722 -91 
Q 1428 -91 1123 -41 
Q 819 9 494 109 
L 494 744 
Q 775 591 1075 516 
Q 1375 441 1709 441 
Q 2250 441 2565 725 
Q 2881 1009 2881 1497 
Q 2881 1984 2565 2268 
Q 2250 2553 1709 2553 
Q 1456 2553 1204 2497 
Q 953 2441 691 2322 
L 691 4666 
z
" transform="scale(0.015625)"/>
       </defs>
       <use xlink:href="#DejaVuSans-32"/>
       <use xlink:href="#DejaVuSans-30" transform="translate(63.623047 0)"/>
       <use xlink:href="#DejaVuSans-32" transform="translate(127.246094 0)"/>
       <use xlink:href="#DejaVuSans-35" transform="translate(190.869141 0)"/>
      </g>
     </g>
    </g>
    <g id="xtick_4">
     <g id="line2d_4">
      <path d="M 545.322086 573.44025 
L 545.322086 31.43625 
" clip-path="url(#p66382e8792)" style="fill: none; stroke: #ffffff; stroke-width: 0.8; stroke-linecap: round"/>
     </g>
     <g id="text_4">
      <!-- 2026 -->
      <g style="fill: #262626" transform="translate(514.782086 599.9765) scale(0.24 -0.24)">
       <defs>
        <path id="DejaVuSans-36" d="M 2113 2584 
Q 1688 2584 1439 2293 
Q 1191 2003 1191 1497 
Q 1191 994 1439 701 
Q 1688 409 2113 409 
Q 2538 409 2786 701 
Q 3034 994 3034 1497 
Q 3034 2003 2786 2293 
Q 2538 2584 2113 2584 
z
M 3366 4563 
L 3366 3988 
Q 3128 4100 2886 4159 
Q 2644 4219 2406 4219 
Q 1781 4219 1451 3797 
Q 1122 3375 1075 2522 
Q 1259 2794 1537 2939 
Q 1816 3084 2150 3084 
Q 2853 3084 3261 2657 
Q 3669 2231 3669 1497 
Q 3669 778 3244 343 
Q 2819 -91 2113 -91 
Q 1303 -91 875 529 
Q 447 1150 447 2328 
Q 447 3434 972 4092 
Q 1497 4750 2381 4750 
Q 2619 4750 2861 4703 
Q 3103 4656 3366 4563 
z
" transform="scale(0.015625)"/>
       </defs>
       <use xlink:href="#DejaVuSans-32"/>
       <use xlink:href="#DejaVuSans-30" transform="translate(63.623047 0)"/>
       <use xlink:href="#DejaVuSans-32" transform="translate(127.246094 0)"/>
       <use xlink:href="#DejaVuSans-36" transform="translate(190.869141 0)"/>
      </g>
     </g>
    </g>
    <g id="xtick_5">
     <g id="line2d_5">
      <path d="M 685.548268 573.44025 
L 685.548268 31.43625 
" clip-path="url(#p66382e8792)" style="fill: none; stroke: #ffffff; stroke-width: 0.8; stroke-linecap: round"/>
     </g>
     <g id="text_5">
      <!-- 2027 -->
      <g style="fill: #262626" transform="translate(655.008268 599.9765) scale(0.24 -0.24)">
       <defs>
        <path id="DejaVuSans-37" d="M 525 4666 
L 3525 4666 
L 3525 4397 
L 1831 0 
L 1172 0 
L 2766 4134 
L 525 4134 
L 525 4666 
z
" transform="scale(0.015625)"/>
       </defs>
       <use xlink:href="#DejaVuSans-32"/>
       <use xlink:href="#DejaVuSans-30" transform="translate(63.623047 0)"/>
       <use xlink:href="#DejaVuSans-32" transform="translate(127.246094 0)"/>
       <use xlink:href="#DejaVuSans-37" transform="translate(190.869141 0)"/>
      </g>
     </g>
    </g>
    <g id="xtick_6">
     <g id="line2d_6">
      <path d="M 825.774451 573.44025 
L 825.774451 31.43625 
" clip-path="url(#p66382e8792)" style="fill: none; stroke: #ffffff; stroke-width: 0.8; stroke-linecap: round"/>
     </g>
     <g id="text_6">
      <!-- 2028 -->
      <g style="fill: #262626" transform="translate(795.234451 599.9765) scale(0.24 -0.24)">
       <defs>
        <path id="DejaVuSans-38" d="M 2034 2216 
Q 1584 2216 1326 1975 
Q 1069 1734 1069 1313 
Q 1069 891 1326 650 
Q 1584 409 2034 409 
Q 2484 409 2743 651 
Q 3003 894 3003 1313 
Q 3003 1734 2745 1975 
Q 2488 2216 2034 2216 
z
M 1403 2484 
Q 997 2584 770 2862 
Q 544 3141 544 3541 
Q 544 4100 942 4425 
Q 1341 4750 2034 4750 
Q 2731 4750 3128 4425 
Q 3525 4100 3525 3541 
Q 3525 3141 3298 2862 
Q 3072 2584 2669 2484 
Q 3125 2378 3379 2068 
Q 3634 1759 3634 1313 
Q 3634 634 3220 271 
Q 2806 -91 2034 -91 
Q 1263 -91 848 271 
Q 434 634 434 1313 
Q 434 1759 690 2068 
Q 947 2378 1403 2484 
z
M 1172 3481 
Q 1172 3119 1398 2916 
Q 1625 2713 2034 2713 
Q 2441 2713 2670 2916 
Q 2900 3119 2900 3481 
Q 2900 3844 2670 4047 
Q 2441 4250 2034 4250 
Q 1625 4250 1398 4047 
Q 1172 3844 1172 3481 
z
" transform="scale(0.015625)"/>
       </defs>
       <use xlink:href="#DejaVuSans-32"/>
       <use xlink:href="#DejaVuSans-30" transform="translate(63.623047 0)"/>
       <use xlink:href="#DejaVuSans-32" transform="translate(127.246094 0)"/>
       <use xlink:href="#DejaVuSans-38" transform="translate(190.869141 0)"/>
      </g>
     </g>
    </g>
    <g id="xtick_7">
     <g id="line2d_7">
      <path d="M 966.384814 573.44025 
L 966.384814 31.43625 
" clip-path="url(#p66382e8792)" style="fill: none; stroke: #ffffff; stroke-width: 0.8; stroke-linecap: round"/>
     </g>
     <g id="text_7">
      <!-- 2029 -->
      <g style="fill: #262626" transform="translate(935.844814 599.9765) scale(0.24 -0.24)">
       <defs>
        <path id="DejaVuSans-39" d="M 703 97 
L 703 672 
Q 941 559 1184 500 
Q 1428 441 1663 441 
Q 2288 441 2617 861 
Q 2947 1281 2994 2138 
Q 2813 1869 2534 1725 
Q 2256 1581 1919 1581 
Q 1219 1581 811 2004 
Q 403 2428 403 3163 
Q 403 3881 828 4315 
Q 1253 4750 1959 4750 
Q 2769 4750 3195 4129 
Q 3622 3509 3622 2328 
Q 3622 1225 3098 567 
Q 2575 -91 1691 -91 
Q 1453 -91 1209 -44 
Q 966 3 703 97 
z
M 1959 2075 
Q 2384 2075 2632 2365 
Q 2881 2656 2881 3163 
Q 2881 3666 2632 3958 
Q 2384 4250 1959 4250 
Q 1534 4250 1286 3958 
Q 1038 3666 1038 3163 
Q 1038 2656 1286 2365 
Q 1534 2075 1959 2075 
z
" transform="scale(0.015625)"/>
       </defs>
       <use xlink:href="#DejaVuSans-32"/>
       <use xlink:href="#DejaVuSans-30" transform="translate(63.623047 0)"/>
       <use xlink:href="#DejaVuSans-32" transform="translate(127.246094 0)"/>
       <use xlink:href="#DejaVuSans-39" transform="translate(190.869141 0)"/>
      </g>
     </g>
    </g>
    <g id="xtick_8">
     <g id="line2d_8">
      <path d="M 1106.610997 573.44025 
L 1106.610997 31.43625 
" clip-path="url(#p66382e8792)" style="fill: none; stroke: #ffffff; stroke-width: 0.8; stroke-linecap: round"/>
     </g>
     <g id="text_8">
      <!-- 2030 -->
      <g style="fill: #262626" transform="translate(1076.070997 599.9765) scale(0.24 -0.24)">
       <use xlink:href="#DejaVuSans-32"/>
       <use xlink:href="#DejaVuSans-30" transform="translate(63.623047 0)"/>
       <use xlink:href="#DejaVuSans-33" transform="translate(127.246094 0)"/>
       <use xlink:href="#DejaVuSans-30" transform="translate(190.869141 0)"/>
      </g>
     </g>
    </g>
    <g id="text_9">
     <!-- Date -->
     <g style="fill: #262626" transform="translate(581.415199 628.723687) scale(0.26 -0.26)">
      <defs>
       <path id="DejaVuSans-Bold-44" d="M 1791 3756 
L 1791 909 
L 2222 909 
Q 2959 909 3348 1275 
Q 3738 1641 3738 2338 
Q 3738 3031 3350 3393 
Q 2963 3756 2222 3756 
L 1791 3756 
z
M 588 4666 
L 1856 4666 
Q 2919 4666 3439 4514 
Q 3959 4363 4331 4000 
Q 4659 3684 4818 3271 
Q 4978 2859 4978 2338 
Q 4978 1809 4818 1395 
Q 4659 981 4331 666 
Q 3956 303 3431 151 
Q 2906 0 1856 0 
L 588 0 
L 588 4666 
z
" transform="scale(0.015625)"/>
       <path id="DejaVuSans-Bold-61" d="M 2106 1575 
Q 1756 1575 1579 1456 
Q 1403 1338 1403 1106 
Q 1403 894 1545 773 
Q 1688 653 1941 653 
Q 2256 653 2472 879 
Q 2688 1106 2688 1447 
L 2688 1575 
L 2106 1575 
z
M 3816 1997 
L 3816 0 
L 2688 0 
L 2688 519 
Q 2463 200 2181 54 
Q 1900 -91 1497 -91 
Q 953 -91 614 226 
Q 275 544 275 1050 
Q 275 1666 698 1953 
Q 1122 2241 2028 2241 
L 2688 2241 
L 2688 2328 
Q 2688 2594 2478 2717 
Q 2269 2841 1825 2841 
Q 1466 2841 1156 2769 
Q 847 2697 581 2553 
L 581 3406 
Q 941 3494 1303 3539 
Q 1666 3584 2028 3584 
Q 2975 3584 3395 3211 
Q 3816 2838 3816 1997 
z
" transform="scale(0.015625)"/>
       <path id="DejaVuSans-Bold-74" d="M 1759 4494 
L 1759 3500 
L 2913 3500 
L 2913 2700 
L 1759 2700 
L 1759 1216 
Q 1759 972 1856 886 
Q 1953 800 2241 800 
L 2816 800 
L 2816 0 
L 1856 0 
Q 1194 0 917 276 
Q 641 553 641 1216 
L 641 2700 
L 84 2700 
L 84 3500 
L 641 3500 
L 641 4494 
L 1759 4494 
z
" transform="scale(0.015625)"/>
       <path id="DejaVuSans-Bold-65" d="M 4031 1759 
L 4031 1441 
L 1416 1441 
Q 1456 1047 1700 850 
Q 1944 653 2381 653 
Q 2734 653 3104 758 
Q 3475 863 3866 1075 
L 3866 213 
Q 3469 63 3072 -14 
Q 2675 -91 2278 -91 
Q 1328 -91 801 392 
Q 275 875 275 1747 
Q 275 2603 792 3093 
Q 1309 3584 2216 3584 
Q 3041 3584 3536 3087 
Q 4031 2591 4031 1759 
z
M 2881 2131 
Q 2881 2450 2695 2645 
Q 2509 2841 2209 2841 
Q 1884 2841 1681 2658 
Q 1478 2475 1428 2131 
L 2881 2131 
z
" transform="scale(0.015625)"/>
      </defs>
      <use xlink:href="#DejaVuSans-Bold-44"/>
      <use xlink:href="#DejaVuSans-Bold-61" transform="translate(83.007812 0)"/>
      <use xlink:href="#DejaVuSans-Bold-74" transform="translate(150.488281 0)"/>
      <use xlink:href="#DejaVuSans-Bold-65" transform="translate(198.291016 0)"/>
     </g>
    </g>
   </g>
   <g id="matplotlib.axis_2">
    <g id="ytick_1">
     <g id="line2d_9">
      <path d="M 119.265 548.803705 
L 1112.757898 548.803705 
" clip-path="url(#p66382e8792)" style="fill: none; stroke: #ffffff; stroke-width: 0.8; stroke-linecap: round"/>
     </g>
     <g id="text_10">
      <!-- 0 -->
      <g style="fill: #262626" transform="translate(95.695 557.92183) scale(0.24 -0.24)">
       <use xlink:href="#DejaVuSans-30"/>
      </g>
     </g>
    </g>
    <g id="ytick_2">
     <g id="line2d_10">
      <path d="M 119.265 466.872459 
L 1112.757898 466.872459 
" clip-path="url(#p66382e8792)" style="fill: none; stroke: #ffffff; stroke-width: 0.8; stroke-linecap: round"/>
     </g>
     <g id="text_11">
      <!-- 2000 -->
      <g style="fill: #262626" transform="translate(49.885 475.990584) scale(0.24 -0.24)">
       <use xlink:href="#DejaVuSans-32"/>
       <use xlink:href="#DejaVuSans-30" transform="translate(63.623047 0)"/>
       <use xlink:href="#DejaVuSans-30" transform="translate(127.246094 0)"/>
       <use xlink:href="#DejaVuSans-30" transform="translate(190.869141 0)"/>
      </g>
     </g>
    </g>
    <g id="ytick_3">
     <g id="line2d_11">
      <path d="M 119.265 384.941214 
L 1112.757898 384.941214 
" clip-path="url(#p66382e8792)" style="fill: none; stroke: #ffffff; stroke-width: 0.8; stroke-linecap: round"/>
     </g>
     <g id="text_12">
      <!-- 4000 -->
      <g style="fill: #262626" transform="translate(49.885 394.059339) scale(0.24 -0.24)">
       <use xlink:href="#DejaVuSans-34"/>
       <use xlink:href="#DejaVuSans-30" transform="translate(63.623047 0)"/>
       <use xlink:href="#DejaVuSans-30" transform="translate(127.246094 0)"/>
       <use xlink:href="#DejaVuSans-30" transform="translate(190.869141 0)"/>
      </g>
     </g>
    </g>
    <g id="ytick_4">
     <g id="line2d_12">
      <path d="M 119.265 303.009968 
L 1112.757898 303.009968 
" clip-path="url(#p66382e8792)" style="fill: none; stroke: #ffffff; stroke-width: 0.8; stroke-linecap: round"/>
     </g>
     <g id="text_13">
      <!-- 6000 -->
      <g style="fill: #262626" transform="translate(49.885 312.128093) scale(0.24 -0.24)">
       <use xlink:href="#DejaVuSans-36"/>
       <use xlink:href="#DejaVuSans-30" transform="translate(63.623047 0)"/>
       <use xlink:href="#DejaVuSans-30" transform="translate(127.246094 0)"/>
       <use xlink:href="#DejaVuSans-30" transform="translate(190.869141 0)"/>
      </g>
     </g>
    </g>
    <g id="ytick_5">
     <g id="line2d_13">
      <path d="M 119.265 221.078723 
L 1112.757898 221.078723 
" clip-path="url(#p66382e8792)" style="fill: none; stroke: #ffffff; stroke-width: 0.8; stroke-linecap: round"/>
     </g>
     <g id="text_14">
      <!-- 8000 -->
      <g style="fill: #262626" transform="translate(49.885 230.196848) scale(0.24 -0.24)">
       <use xlink:href="#DejaVuSans-38"/>
       <use xlink:href="#DejaVuSans-30" transform="translate(63.623047 0)"/>
       <use xlink:href="#DejaVuSans-30" transform="translate(127.246094 0)"/>
       <use xlink:href="#DejaVuSans-30" transform="translate(190.869141 0)"/>
      </g>
     </g>
    </g>
    <g id="ytick_6">
     <g id="line2d_14">
      <path d="M 119.265 139.147478 
L 1112.757898 139.147478 
" clip-path="url(#p66382e8792)" style="fill: none; stroke: #ffffff; stroke-width: 0.8; stroke-linecap: round"/>
     </g>
     <g id="text_15">
      <!-- 10000 -->
      <g style="fill: #262626" transform="translate(34.615 148.265603) scale(0.24 -0.24)">
       <defs>
        <path id="DejaVuSans-31" d="M 794 531 
L 1825 531 
L 1825 4091 
L 703 3866 
L 703 4441 
L 1819 4666 
L 2450 4666 
L 2450 531 
L 3481 531 
L 3481 0 
L 794 0 
L 794 531 
z
" transform="scale(0.015625)"/>
       </defs>
       <use xlink:href="#DejaVuSans-31"/>
       <use xlink:href="#DejaVuSans-30" transform="translate(63.623047 0)"/>
       <use xlink:href="#DejaVuSans-30" transform="translate(127.246094 0)"/>
       <use xlink:href="#DejaVuSans-30" transform="translate(190.869141 0)"/>
       <use xlink:href="#DejaVuSans-30" transform="translate(254.492188 0)"/>
      </g>
     </g>
    </g>
    <g id="ytick_7">
     <g id="line2d_15">
      <path d="M 119.265 57.216232 
L 1112.757898 57.216232 
" clip-path="url(#p66382e8792)" style="fill: none; stroke: #ffffff; stroke-width: 0.8; stroke-linecap: round"/>
     </g>
     <g id="text_16">
      <!-- 12000 -->
      <g style="fill: #262626" transform="translate(34.615 66.334357) scale(0.24 -0.24)">
       <use xlink:href="#DejaVuSans-31"/>
       <use xlink:href="#DejaVuSans-32" transform="translate(63.623047 0)"/>
       <use xlink:href="#DejaVuSans-30" transform="translate(127.246094 0)"/>
       <use xlink:href="#DejaVuSans-30" transform="translate(190.869141 0)"/>
       <use xlink:href="#DejaVuSans-30" transform="translate(254.492188 0)"/>
      </g>
     </g>
    </g>
    <g id="text_17">
     <!-- FOPR [Sm³/day] -->
     <g style="fill: #262626" transform="translate(25.43625 408.940125) rotate(-90) scale(0.24 -0.24)">
      <defs>
       <path id="DejaVuSans-Bold-46" d="M 588 4666 
L 3834 4666 
L 3834 3756 
L 1791 3756 
L 1791 2888 
L 3713 2888 
L 3713 1978 
L 1791 1978 
L 1791 0 
L 588 0 
L 588 4666 
z
" transform="scale(0.015625)"/>
       <path id="DejaVuSans-Bold-4f" d="M 2719 3878 
Q 2169 3878 1866 3472 
Q 1563 3066 1563 2328 
Q 1563 1594 1866 1187 
Q 2169 781 2719 781 
Q 3272 781 3575 1187 
Q 3878 1594 3878 2328 
Q 3878 3066 3575 3472 
Q 3272 3878 2719 3878 
z
M 2719 4750 
Q 3844 4750 4481 4106 
Q 5119 3463 5119 2328 
Q 5119 1197 4481 553 
Q 3844 -91 2719 -91 
Q 1597 -91 958 553 
Q 319 1197 319 2328 
Q 319 3463 958 4106 
Q 1597 4750 2719 4750 
z
" transform="scale(0.015625)"/>
       <path id="DejaVuSans-Bold-50" d="M 588 4666 
L 2584 4666 
Q 3475 4666 3951 4270 
Q 4428 3875 4428 3144 
Q 4428 2409 3951 2014 
Q 3475 1619 2584 1619 
L 1791 1619 
L 1791 0 
L 588 0 
L 588 4666 
z
M 1791 3794 
L 1791 2491 
L 2456 2491 
Q 2806 2491 2997 2661 
Q 3188 2831 3188 3144 
Q 3188 3456 2997 3625 
Q 2806 3794 2456 3794 
L 1791 3794 
z
" transform="scale(0.015625)"/>
       <path id="DejaVuSans-Bold-52" d="M 2297 2597 
Q 2675 2597 2839 2737 
Q 3003 2878 3003 3200 
Q 3003 3519 2839 3656 
Q 2675 3794 2297 3794 
L 1791 3794 
L 1791 2597 
L 2297 2597 
z
M 1791 1766 
L 1791 0 
L 588 0 
L 588 4666 
L 2425 4666 
Q 3347 4666 3776 4356 
Q 4206 4047 4206 3378 
Q 4206 2916 3982 2619 
Q 3759 2322 3309 2181 
Q 3556 2125 3751 1926 
Q 3947 1728 4147 1325 
L 4800 0 
L 3519 0 
L 2950 1159 
Q 2778 1509 2601 1637 
Q 2425 1766 2131 1766 
L 1791 1766 
z
" transform="scale(0.015625)"/>
       <path id="DejaVuSans-Bold-20" transform="scale(0.015625)"/>
       <path id="DejaVuSans-Bold-5b" d="M 550 4863 
L 2491 4863 
L 2491 4159 
L 1613 4159 
L 1613 -141 
L 2491 -141 
L 2491 -844 
L 550 -844 
L 550 4863 
z
" transform="scale(0.015625)"/>
       <path id="DejaVuSans-Bold-53" d="M 3834 4519 
L 3834 3531 
Q 3450 3703 3084 3790 
Q 2719 3878 2394 3878 
Q 1963 3878 1756 3759 
Q 1550 3641 1550 3391 
Q 1550 3203 1689 3098 
Q 1828 2994 2194 2919 
L 2706 2816 
Q 3484 2659 3812 2340 
Q 4141 2022 4141 1434 
Q 4141 663 3683 286 
Q 3225 -91 2284 -91 
Q 1841 -91 1394 -6 
Q 947 78 500 244 
L 500 1259 
Q 947 1022 1364 901 
Q 1781 781 2169 781 
Q 2563 781 2772 912 
Q 2981 1044 2981 1288 
Q 2981 1506 2839 1625 
Q 2697 1744 2272 1838 
L 1806 1941 
Q 1106 2091 782 2419 
Q 459 2747 459 3303 
Q 459 4000 909 4375 
Q 1359 4750 2203 4750 
Q 2588 4750 2994 4692 
Q 3400 4634 3834 4519 
z
" transform="scale(0.015625)"/>
       <path id="DejaVuSans-Bold-6d" d="M 3781 2919 
Q 3994 3244 4286 3414 
Q 4578 3584 4928 3584 
Q 5531 3584 5847 3212 
Q 6163 2841 6163 2131 
L 6163 0 
L 5038 0 
L 5038 1825 
Q 5041 1866 5042 1909 
Q 5044 1953 5044 2034 
Q 5044 2406 4934 2573 
Q 4825 2741 4581 2741 
Q 4263 2741 4089 2478 
Q 3916 2216 3909 1719 
L 3909 0 
L 2784 0 
L 2784 1825 
Q 2784 2406 2684 2573 
Q 2584 2741 2328 2741 
Q 2006 2741 1831 2477 
Q 1656 2213 1656 1722 
L 1656 0 
L 531 0 
L 531 3500 
L 1656 3500 
L 1656 2988 
Q 1863 3284 2130 3434 
Q 2397 3584 2719 3584 
Q 3081 3584 3359 3409 
Q 3638 3234 3781 2919 
z
" transform="scale(0.015625)"/>
       <path id="DejaVuSans-Bold-b3" d="M 1850 3500 
Q 2138 3444 2297 3272 
Q 2456 3100 2456 2847 
Q 2456 2444 2147 2242 
Q 1838 2041 1209 2041 
Q 956 2041 725 2077 
Q 494 2113 281 2181 
L 281 2725 
Q 488 2613 688 2555 
Q 888 2497 1075 2497 
Q 1372 2497 1534 2597 
Q 1697 2697 1697 2881 
Q 1697 3081 1530 3176 
Q 1363 3272 1006 3272 
L 775 3272 
L 775 3700 
L 1038 3700 
Q 1344 3700 1484 3773 
Q 1625 3847 1625 4006 
Q 1625 4147 1503 4217 
Q 1381 4288 1131 4288 
Q 969 4288 776 4247 
Q 584 4206 366 4122 
L 366 4641 
Q 569 4694 805 4722 
Q 1041 4750 1313 4750 
Q 1834 4750 2111 4575 
Q 2388 4400 2388 4072 
Q 2388 3856 2247 3706 
Q 2106 3556 1850 3500 
z
" transform="scale(0.015625)"/>
       <path id="DejaVuSans-Bold-2f" d="M 1644 4666 
L 2338 4666 
L 691 -594 
L 0 -594 
L 1644 4666 
z
" transform="scale(0.015625)"/>
       <path id="DejaVuSans-Bold-64" d="M 2919 2988 
L 2919 4863 
L 4044 4863 
L 4044 0 
L 2919 0 
L 2919 506 
Q 2688 197 2409 53 
Q 2131 -91 1766 -91 
Q 1119 -91 703 423 
Q 288 938 288 1747 
Q 288 2556 703 3070 
Q 1119 3584 1766 3584 
Q 2128 3584 2408 3439 
Q 2688 3294 2919 2988 
z
M 2181 722 
Q 2541 722 2730 984 
Q 2919 1247 2919 1747 
Q 2919 2247 2730 2509 
Q 2541 2772 2181 2772 
Q 1825 2772 1636 2509 
Q 1447 2247 1447 1747 
Q 1447 1247 1636 984 
Q 1825 722 2181 722 
z
" transform="scale(0.015625)"/>
       <path id="DejaVuSans-Bold-79" d="M 78 3500 
L 1197 3500 
L 2138 1125 
L 2938 3500 
L 4056 3500 
L 2584 -331 
Q 2363 -916 2067 -1148 
Q 1772 -1381 1288 -1381 
L 641 -1381 
L 641 -647 
L 991 -647 
Q 1275 -647 1404 -556 
Q 1534 -466 1606 -231 
L 1638 -134 
L 78 3500 
z
" transform="scale(0.015625)"/>
       <path id="DejaVuSans-Bold-5d" d="M 2375 -844 
L 434 -844 
L 434 -141 
L 1313 -141 
L 1313 4159 
L 434 4159 
L 434 4863 
L 2375 4863 
L 2375 -844 
z
" transform="scale(0.015625)"/>
      </defs>
      <use xlink:href="#DejaVuSans-Bold-46"/>
      <use xlink:href="#DejaVuSans-Bold-4f" transform="translate(68.310547 0)"/>
      <use xlink:href="#DejaVuSans-Bold-50" transform="translate(153.320312 0)"/>
      <use xlink:href="#DejaVuSans-Bold-52" transform="translate(226.611328 0)"/>
      <use xlink:href="#DejaVuSans-Bold-20" transform="translate(303.613281 0)"/>
      <use xlink:href="#DejaVuSans-Bold-5b" transform="translate(338.427734 0)"/>
      <use xlink:href="#DejaVuSans-Bold-53" transform="translate(384.130859 0)"/>
      <use xlink:href="#DejaVuSans-Bold-6d" transform="translate(456.152344 0)"/>
      <use xlink:href="#DejaVuSans-Bold-b3" transform="translate(560.351562 0)"/>
      <use xlink:href="#DejaVuSans-Bold-2f" transform="translate(604.150391 0)"/>
      <use xlink:href="#DejaVuSans-Bold-64" transform="translate(640.673828 0)"/>
      <use xlink:href="#DejaVuSans-Bold-61" transform="translate(712.255859 0)"/>
      <use xlink:href="#DejaVuSans-Bold-79" transform="translate(776.611328 0)"/>
      <use xlink:href="#DejaVuSans-Bold-5d" transform="translate(841.796875 0)"/>
     </g>
    </g>
   </g>
   <g id="FillBetweenPolyCollection_1">
    <defs>
     <path id="m6b437cc842" d="M 78.54178 -92.52717 
L 78.54178 -92.52717 
L 79.694324 -92.52717 
L 83.151956 -92.52717 
L 93.524851 -92.52717 
L 105.050291 -92.52717 
L 116.575731 -92.52717 
L 124.259357 -92.52717 
L 158.835676 -255.460754 
L 164.790487 -255.443891 
L 170.745297 -255.448642 
L 193.796176 -319.093247 
L 217.231237 -293.02951 
L 229.140858 -387.020751 
L 263.717177 -354.411635 
L 264.48554 -505.951514 
L 299.44604 -397.628707 
L 310.203117 -353.250736 
L 334.40654 -319.969588 
L 356.689057 -290.70049 
L 369.751222 -281.876519 
L 405.095903 -255.761395 
L 439.672222 -235.32388 
L 474.632723 -226.775086 
L 509.977404 -216.345305 
L 545.322086 -209.453969 
L 579.898405 -198.889009 
L 614.858905 -189.927619 
L 650.203587 -181.212643 
L 685.548268 -175.051517 
L 720.124587 -171.997838 
L 731.650027 -171.006202 
L 743.175466 -169.738368 
L 749.130277 -169.091944 
L 755.085087 -168.454992 
L 790.429769 -164.133989 
L 825.774451 -162.121458 
L 837.29989 -161.851515 
L 860.734951 -160.063905 
L 872.260391 -159.024342 
L 895.695451 -157.012506 
L 907.220891 -156.080223 
L 931.040133 -154.253018 
L 942.565572 -153.365646 
L 954.091012 -152.474753 
L 960.237913 -152.011365 
L 966.384814 -151.557423 
L 1000.961133 -149.172235 
L 1035.921634 -146.944034 
L 1071.266315 -144.840081 
L 1082.791755 -144.334051 
L 1094.317194 -144.233487 
L 1100.464096 -144.116511 
L 1106.610997 -143.829402 
L 1106.610997 -171.840176 
L 1106.610997 -171.840176 
L 1100.464096 -172.382446 
L 1094.317194 -172.930431 
L 1082.791755 -173.974804 
L 1071.266315 -175.03836 
L 1035.921634 -178.148292 
L 1000.961133 -181.147834 
L 966.384814 -184.10535 
L 960.237913 -184.39415 
L 954.091012 -184.656556 
L 942.565572 -186.032864 
L 931.040133 -187.977531 
L 907.220891 -192.788262 
L 895.695451 -194.812549 
L 872.260391 -200.125329 
L 860.734951 -201.728349 
L 837.29989 -205.23658 
L 825.774451 -207.1305 
L 790.429769 -214.448665 
L 755.085087 -222.57818 
L 749.130277 -224.733306 
L 743.175466 -227.247001 
L 731.650027 -230.80819 
L 720.124587 -234.338135 
L 685.548268 -243.214403 
L 650.203587 -253.148576 
L 614.858905 -263.985084 
L 579.898405 -271.399901 
L 545.322086 -285.582408 
L 509.977404 -309.816974 
L 474.632723 -344.596748 
L 439.672222 -390.180224 
L 405.095903 -423.335495 
L 369.751222 -451.904496 
L 356.689057 -477.012542 
L 334.40654 -502.614536 
L 310.203117 -525.650938 
L 299.44604 -539.422388 
L 264.48554 -585.25808 
L 263.717177 -424.373758 
L 229.140858 -458.99999 
L 217.231237 -358.247662 
L 193.796176 -358.584428 
L 170.745297 -256.319382 
L 164.790487 -256.313011 
L 158.835676 -256.317721 
L 124.259357 -92.52717 
L 116.575731 -92.52717 
L 105.050291 -92.52717 
L 93.524851 -92.52717 
L 83.151956 -92.52717 
L 79.694324 -92.52717 
L 78.54178 -92.52717 
z
" style="stroke: #58508d; stroke-opacity: 0.7; stroke-width: 0.8"/>
    </defs>
    <g clip-path="url(#p66382e8792)">
     <use xlink:href="#m6b437cc842" x="0" y="641.330875" style="fill: #58508d; fill-opacity: 0.7; stroke: #58508d; stroke-opacity: 0.7; stroke-width: 0.8"/>
    </g>
   </g>
   <g id="FillBetweenPolyCollection_2">
    <defs>
     <path id="m8dd0fb70af" d="M 78.54178 -92.52717 
L 78.54178 -92.52717 
L 79.694324 -92.52717 
L 83.151956 -92.52717 
L 93.524851 -92.52717 
L 105.050291 -92.52717 
L 116.575731 -92.52717 
L 124.259357 -92.52717 
L 158.835676 -255.460754 
L 164.790487 -255.443891 
L 170.745297 -255.448642 
L 193.796176 -412.481285 
L 217.231237 -393.93996 
L 229.140858 -381.589305 
L 263.717177 -343.851526 
L 264.48554 -443.682168 
L 299.44604 -375.379353 
L 310.203117 -355.02738 
L 334.40654 -408.394224 
L 356.689057 -349.556429 
L 369.751222 -322.288326 
L 405.095903 -276.452955 
L 439.672222 -249.803717 
L 474.632723 -229.321976 
L 509.977404 -211.451053 
L 545.322086 -200.323316 
L 579.898405 -191.932064 
L 614.858905 -185.135481 
L 650.203587 -179.645258 
L 685.548268 -174.884354 
L 720.124587 -170.411935 
L 731.650027 -169.117818 
L 743.175466 -167.898245 
L 749.130277 -167.287027 
L 755.085087 -167.105867 
L 790.429769 -164.135159 
L 825.774451 -160.807687 
L 837.29989 -160.008192 
L 860.734951 -158.465426 
L 872.260391 -157.631846 
L 895.695451 -155.998337 
L 907.220891 -155.236378 
L 931.040133 -153.700147 
L 942.565572 -152.951239 
L 954.091012 -152.22913 
L 960.237913 -151.852383 
L 966.384814 -151.477827 
L 1000.961133 -149.374423 
L 1035.921634 -147.395481 
L 1071.266315 -145.56179 
L 1082.791755 -144.979415 
L 1094.317194 -144.415877 
L 1100.464096 -144.126498 
L 1106.610997 -143.844284 
L 1106.610997 -171.108856 
L 1106.610997 -171.108856 
L 1100.464096 -171.502235 
L 1094.317194 -171.895989 
L 1082.791755 -172.644967 
L 1071.266315 -173.416713 
L 1035.921634 -176.300339 
L 1000.961133 -179.062118 
L 966.384814 -181.320728 
L 960.237913 -181.839539 
L 954.091012 -182.369022 
L 942.565572 -183.385911 
L 931.040133 -184.431575 
L 907.220891 -186.899163 
L 895.695451 -188.775701 
L 872.260391 -192.029427 
L 860.734951 -194.120665 
L 837.29989 -199.936653 
L 825.774451 -202.68656 
L 790.429769 -209.177651 
L 755.085087 -217.733866 
L 749.130277 -218.839797 
L 743.175466 -220.031941 
L 731.650027 -222.528094 
L 720.124587 -224.000056 
L 685.548268 -232.860232 
L 650.203587 -242.451398 
L 614.858905 -252.709116 
L 579.898405 -263.202456 
L 545.322086 -278.552363 
L 509.977404 -304.272233 
L 474.632723 -332.527431 
L 439.672222 -369.38445 
L 405.095903 -424.996143 
L 369.751222 -501.133533 
L 356.689057 -540.464772 
L 334.40654 -574.321538 
L 310.203117 -492.046086 
L 299.44604 -508.403971 
L 264.48554 -517.704288 
L 263.717177 -415.93684 
L 229.140858 -418.936211 
L 217.231237 -419.309763 
L 193.796176 -419.65581 
L 170.745297 -256.319382 
L 164.790487 -256.313011 
L 158.835676 -256.317721 
L 124.259357 -92.52717 
L 116.575731 -92.52717 
L 105.050291 -92.52717 
L 93.524851 -92.52717 
L 83.151956 -92.52717 
L 79.694324 -92.52717 
L 78.54178 -92.52717 
z
" style="stroke: #ffa600; stroke-opacity: 0.7; stroke-width: 0.8"/>
    </defs>
    <g clip-path="url(#p66382e8792)">
     <use xlink:href="#m8dd0fb70af" x="0" y="641.330875" style="fill: #ffa600; fill-opacity: 0.7; stroke: #ffa600; stroke-opacity: 0.7; stroke-width: 0.8"/>
    </g>
   </g>
   <g id="line2d_16">
    <path d="M 78.54178 548.803705 
L 79.694324 548.803705 
L 83.151956 548.803705 
L 93.524851 548.803705 
L 105.050291 548.803705 
L 116.575731 548.803705 
L 124.259357 548.803705 
L 158.835676 385.380218 
L 164.790487 385.372176 
L 170.745297 385.367585 
L 193.796176 294.330072 
L 217.231237 310.078156 
L 229.140858 216.578944 
L 263.717177 250.073125 
L 264.48554 91.798105 
L 299.44604 162.972376 
L 310.203117 185.882557 
L 334.40654 222.163224 
L 356.689057 254.806346 
L 369.751222 273.561441 
L 405.095903 315.253941 
L 439.672222 341.81078 
L 474.632723 362.594949 
L 509.977404 380.728359 
L 545.322086 395.518445 
L 579.898405 407.50474 
L 614.858905 418.139776 
L 650.203587 427.650844 
L 685.548268 435.911078 
L 720.124587 442.771937 
L 731.650027 444.840528 
L 743.175466 446.822288 
L 749.130277 447.829587 
L 755.085087 448.811686 
L 790.429769 454.154002 
L 825.774451 458.832757 
L 837.29989 460.229692 
L 860.734951 462.932786 
L 872.260391 464.185561 
L 895.695451 466.676691 
L 907.220891 467.876815 
L 931.040133 470.218146 
L 942.565572 471.26897 
L 954.091012 472.280315 
L 960.237913 472.80638 
L 966.384814 473.323282 
L 1000.961133 476.104822 
L 1035.921634 478.733232 
L 1071.266315 481.216921 
L 1082.791755 481.985184 
L 1094.317194 482.730829 
L 1100.464096 483.121313 
L 1106.610997 483.505451 
" clip-path="url(#p66382e8792)" style="fill: none; stroke: #000000; stroke-width: 4; stroke-linecap: round"/>
   </g>
   <g id="line2d_17">
    <path d="M 78.54178 548.803705 
L 79.694324 548.803705 
L 83.151956 548.803705 
L 93.524851 548.803705 
L 105.050291 548.803705 
L 116.575731 548.803705 
L 124.259357 548.803705 
L 158.835676 385.013154 
L 164.790487 385.017864 
L 170.745297 385.011493 
L 193.796176 282.746447 
L 217.231237 283.083213 
L 229.140858 182.330885 
L 263.717177 216.957117 
L 264.48554 56.072795 
L 299.44604 101.908487 
L 310.203117 115.679937 
L 334.40654 138.716339 
L 356.689057 164.318333 
L 369.751222 189.426379 
L 405.095903 217.99538 
L 439.672222 251.150651 
L 474.632723 296.734127 
L 509.977404 331.513901 
L 545.322086 355.748467 
L 579.898405 369.930974 
L 614.858905 377.345791 
L 650.203587 388.182299 
L 685.548268 398.116472 
L 720.124587 406.99274 
L 731.650027 410.522685 
L 743.175466 414.083874 
L 749.130277 416.597569 
L 755.085087 418.752695 
L 790.429769 426.88221 
L 825.774451 434.200375 
L 837.29989 436.094295 
L 860.734951 439.602526 
L 872.260391 441.205546 
L 895.695451 446.518326 
L 907.220891 448.542613 
L 931.040133 453.353344 
L 942.565572 455.298011 
L 954.091012 456.674319 
L 960.237913 456.936725 
L 966.384814 457.225525 
L 1000.961133 460.183041 
L 1035.921634 463.182583 
L 1071.266315 466.292515 
L 1082.791755 467.356071 
L 1094.317194 468.400444 
L 1100.464096 468.948429 
L 1106.610997 469.490699 
" clip-path="url(#p66382e8792)" style="fill: none; stroke-dasharray: 7.4,3.2; stroke-dashoffset: 0; stroke: #000000; stroke-width: 2"/>
   </g>
   <g id="line2d_18">
    <path d="M 78.54178 548.803705 
L 79.694324 548.803705 
L 83.151956 548.803705 
L 93.524851 548.803705 
L 105.050291 548.803705 
L 116.575731 548.803705 
L 124.259357 548.803705 
L 158.835676 385.870121 
L 164.790487 385.886984 
L 170.745297 385.882233 
L 193.796176 322.237628 
L 217.231237 348.301365 
L 229.140858 254.310124 
L 263.717177 286.91924 
L 264.48554 135.379361 
L 299.44604 243.702168 
L 310.203117 288.080139 
L 334.40654 321.361287 
L 356.689057 350.630385 
L 369.751222 359.454356 
L 405.095903 385.56948 
L 439.672222 406.006995 
L 474.632723 414.555789 
L 509.977404 424.98557 
L 545.322086 431.876906 
L 579.898405 442.441866 
L 614.858905 451.403256 
L 650.203587 460.118232 
L 685.548268 466.279358 
L 720.124587 469.333037 
L 731.650027 470.324673 
L 743.175466 471.592507 
L 749.130277 472.238931 
L 755.085087 472.875883 
L 790.429769 477.196886 
L 825.774451 479.209417 
L 837.29989 479.47936 
L 860.734951 481.26697 
L 872.260391 482.306533 
L 895.695451 484.318369 
L 907.220891 485.250652 
L 931.040133 487.077857 
L 942.565572 487.965229 
L 954.091012 488.856122 
L 960.237913 489.31951 
L 966.384814 489.773452 
L 1000.961133 492.15864 
L 1035.921634 494.386841 
L 1071.266315 496.490794 
L 1082.791755 496.996824 
L 1094.317194 497.097388 
L 1100.464096 497.214364 
L 1106.610997 497.501473 
" clip-path="url(#p66382e8792)" style="fill: none; stroke-dasharray: 2,3.3; stroke-dashoffset: 0; stroke: #000000; stroke-width: 2"/>
   </g>
   <g id="line2d_19">
    <path d="M 78.54178 548.803705 
L 79.694324 548.803705 
L 83.151956 548.803705 
L 93.524851 548.803705 
L 105.050291 548.803705 
L 116.575731 548.803705 
L 124.259357 548.803705 
L 158.835676 385.380218 
L 164.790487 385.372176 
L 170.745297 385.367585 
L 193.796176 224.681805 
L 217.231237 231.287457 
L 229.140858 237.146568 
L 263.717177 255.492573 
L 264.48554 155.025347 
L 299.44604 201.347289 
L 310.203117 217.731484 
L 334.40654 155.565678 
L 356.689057 203.428754 
L 369.751222 234.126983 
L 405.095903 299.250147 
L 439.672222 338.081263 
L 474.632723 364.678308 
L 509.977404 385.028907 
L 545.322086 401.038932 
L 579.898405 413.82086 
L 614.858905 424.474983 
L 650.203587 433.298088 
L 685.548268 440.656367 
L 720.124587 446.827221 
L 731.650027 448.684623 
L 743.175466 450.449059 
L 749.130277 451.332554 
L 755.085087 452.196202 
L 790.429769 456.940353 
L 825.774451 461.259211 
L 837.29989 462.642712 
L 860.734951 465.324327 
L 872.260391 466.551681 
L 895.695451 468.890081 
L 907.220891 469.977078 
L 931.040133 472.127578 
L 942.565572 473.127563 
L 954.091012 474.101366 
L 960.237913 474.613197 
L 966.384814 475.119108 
L 1000.961133 477.806471 
L 1035.921634 480.309318 
L 1071.266315 482.654808 
L 1082.791755 483.380275 
L 1094.317194 484.086189 
L 1100.464096 484.457083 
L 1106.610997 484.824275 
" clip-path="url(#p66382e8792)" style="fill: none; stroke: #808080; stroke-width: 4; stroke-linecap: round"/>
   </g>
   <g id="line2d_20">
    <path d="M 78.54178 548.803705 
L 79.694324 548.803705 
L 83.151956 548.803705 
L 93.524851 548.803705 
L 105.050291 548.803705 
L 116.575731 548.803705 
L 124.259357 548.803705 
L 158.835676 385.013154 
L 164.790487 385.017864 
L 170.745297 385.011493 
L 193.796176 221.675065 
L 217.231237 222.021112 
L 229.140858 222.394664 
L 263.717177 225.394035 
L 264.48554 123.626587 
L 299.44604 132.926904 
L 310.203117 149.284789 
L 334.40654 67.009337 
L 356.689057 100.866103 
L 369.751222 140.197342 
L 405.095903 216.334732 
L 439.672222 271.946425 
L 474.632723 308.803444 
L 509.977404 337.058642 
L 545.322086 362.778512 
L 579.898405 378.128419 
L 614.858905 388.621759 
L 650.203587 398.879477 
L 685.548268 408.470643 
L 720.124587 417.330819 
L 731.650027 418.802781 
L 743.175466 421.298934 
L 749.130277 422.491078 
L 755.085087 423.597009 
L 790.429769 432.153224 
L 825.774451 438.644315 
L 837.29989 441.394222 
L 860.734951 447.21021 
L 872.260391 449.301448 
L 895.695451 452.555174 
L 907.220891 454.431712 
L 931.040133 456.8993 
L 942.565572 457.944964 
L 954.091012 458.961853 
L 960.237913 459.491336 
L 966.384814 460.010147 
L 1000.961133 462.268757 
L 1035.921634 465.030536 
L 1071.266315 467.914162 
L 1082.791755 468.685908 
L 1094.317194 469.434886 
L 1100.464096 469.82864 
L 1106.610997 470.222019 
" clip-path="url(#p66382e8792)" style="fill: none; stroke-dasharray: 7.4,3.2; stroke-dashoffset: 0; stroke: #808080; stroke-width: 2"/>
   </g>
   <g id="line2d_21">
    <path d="M 78.54178 548.803705 
L 79.694324 548.803705 
L 83.151956 548.803705 
L 93.524851 548.803705 
L 105.050291 548.803705 
L 116.575731 548.803705 
L 124.259357 548.803705 
L 158.835676 385.870121 
L 164.790487 385.886984 
L 170.745297 385.882233 
L 193.796176 228.84959 
L 217.231237 247.390915 
L 229.140858 259.74157 
L 263.717177 297.479349 
L 264.48554 197.648707 
L 299.44604 265.951522 
L 310.203117 286.303495 
L 334.40654 232.936651 
L 356.689057 291.774446 
L 369.751222 319.042549 
L 405.095903 364.87792 
L 439.672222 391.527158 
L 474.632723 412.008899 
L 509.977404 429.879822 
L 545.322086 441.007559 
L 579.898405 449.398811 
L 614.858905 456.195394 
L 650.203587 461.685617 
L 685.548268 466.446521 
L 720.124587 470.91894 
L 731.650027 472.213057 
L 743.175466 473.43263 
L 749.130277 474.043848 
L 755.085087 474.225008 
L 790.429769 477.195716 
L 825.774451 480.523188 
L 837.29989 481.322683 
L 860.734951 482.865449 
L 872.260391 483.699029 
L 895.695451 485.332538 
L 907.220891 486.094497 
L 931.040133 487.630728 
L 942.565572 488.379636 
L 954.091012 489.101745 
L 960.237913 489.478492 
L 966.384814 489.853048 
L 1000.961133 491.956452 
L 1035.921634 493.935394 
L 1071.266315 495.769085 
L 1082.791755 496.35146 
L 1094.317194 496.914998 
L 1100.464096 497.204377 
L 1106.610997 497.486591 
" clip-path="url(#p66382e8792)" style="fill: none; stroke-dasharray: 2,3.3; stroke-dashoffset: 0; stroke: #808080; stroke-width: 2"/>
   </g>
   <g id="patch_3">
    <path d="M 119.265 573.44025 
L 119.265 31.43625 
" style="fill: none; stroke: #ffffff; stroke-linejoin: miter; stroke-linecap: square"/>
   </g>
   <g id="patch_4">
    <path d="M 1112.757898 573.44025 
L 1112.757898 31.43625 
" style="fill: none; stroke: #ffffff; stroke-linejoin: miter; stroke-linecap: square"/>
   </g>
   <g id="patch_5">
    <path d="M 119.265 573.44025 
L 1112.757898 573.44025 
" style="fill: none; stroke: #ffffff; stroke-linejoin: miter; stroke-linecap: square"/>
   </g>
   <g id="patch_6">
    <path d="M 119.265 31.43625 
L 1112.757898 31.43625 
" style="fill: none; stroke: #ffffff; stroke-linejoin: miter; stroke-linecap: square"/>
   </g>
   <g id="text_18">
    <!-- FOPR -->
    <g style="fill: #262626" transform="translate(579.576449 25.43625) scale(0.24 -0.24)">
     <use xlink:href="#DejaVuSans-Bold-46"/>
     <use xlink:href="#DejaVuSans-Bold-4f" transform="translate(68.310547 0)"/>
     <use xlink:href="#DejaVuSans-Bold-50" transform="translate(153.320312 0)"/>
     <use xlink:href="#DejaVuSans-Bold-52" transform="translate(226.611328 0)"/>
    </g>
   </g>
   <g id="legend_1">
    <g id="patch_7">
     <path d="M 870.19071 210.495625 
L 1097.357898 210.495625 
Q 1101.757898 210.495625 1101.757898 206.095625 
L 1101.757898 46.83625 
Q 1101.757898 42.43625 1097.357898 42.43625 
L 870.19071 42.43625 
Q 865.79071 42.43625 865.79071 46.83625 
L 865.79071 206.095625 
Q 865.79071 210.495625 870.19071 210.495625 
z
" style="fill: #eaeaf2; opacity: 0.8; stroke: #cccccc; stroke-width: 0.8; stroke-linejoin: miter"/>
    </g>
    <g id="line2d_22">
     <path d="M 874.59071 60.252813 
L 896.59071 60.252813 
L 918.59071 60.252813 
" style="fill: none; stroke: #000000; stroke-width: 4; stroke-linecap: round"/>
    </g>
    <g id="text_19">
     <!-- Mean -->
     <g style="fill: #262626" transform="translate(936.19071 67.952813) scale(0.22 -0.22)">
      <defs>
       <path id="DejaVuSans-4d" d="M 628 4666 
L 1569 4666 
L 2759 1491 
L 3956 4666 
L 4897 4666 
L 4897 0 
L 4281 0 
L 4281 4097 
L 3078 897 
L 2444 897 
L 1241 4097 
L 1241 0 
L 628 0 
L 628 4666 
z
" transform="scale(0.015625)"/>
       <path id="DejaVuSans-65" d="M 3597 1894 
L 3597 1613 
L 953 1613 
Q 991 1019 1311 708 
Q 1631 397 2203 397 
Q 2534 397 2845 478 
Q 3156 559 3463 722 
L 3463 178 
Q 3153 47 2828 -22 
Q 2503 -91 2169 -91 
Q 1331 -91 842 396 
Q 353 884 353 1716 
Q 353 2575 817 3079 
Q 1281 3584 2069 3584 
Q 2775 3584 3186 3129 
Q 3597 2675 3597 1894 
z
M 3022 2063 
Q 3016 2534 2758 2815 
Q 2500 3097 2075 3097 
Q 1594 3097 1305 2825 
Q 1016 2553 972 2059 
L 3022 2063 
z
" transform="scale(0.015625)"/>
       <path id="DejaVuSans-61" d="M 2194 1759 
Q 1497 1759 1228 1600 
Q 959 1441 959 1056 
Q 959 750 1161 570 
Q 1363 391 1709 391 
Q 2188 391 2477 730 
Q 2766 1069 2766 1631 
L 2766 1759 
L 2194 1759 
z
M 3341 1997 
L 3341 0 
L 2766 0 
L 2766 531 
Q 2569 213 2275 61 
Q 1981 -91 1556 -91 
Q 1019 -91 701 211 
Q 384 513 384 1019 
Q 384 1609 779 1909 
Q 1175 2209 1959 2209 
L 2766 2209 
L 2766 2266 
Q 2766 2663 2505 2880 
Q 2244 3097 1772 3097 
Q 1472 3097 1187 3025 
Q 903 2953 641 2809 
L 641 3341 
Q 956 3463 1253 3523 
Q 1550 3584 1831 3584 
Q 2591 3584 2966 3190 
Q 3341 2797 3341 1997 
z
" transform="scale(0.015625)"/>
       <path id="DejaVuSans-6e" d="M 3513 2113 
L 3513 0 
L 2938 0 
L 2938 2094 
Q 2938 2591 2744 2837 
Q 2550 3084 2163 3084 
Q 1697 3084 1428 2787 
Q 1159 2491 1159 1978 
L 1159 0 
L 581 0 
L 581 3500 
L 1159 3500 
L 1159 2956 
Q 1366 3272 1645 3428 
Q 1925 3584 2291 3584 
Q 2894 3584 3203 3211 
Q 3513 2838 3513 2113 
z
" transform="scale(0.015625)"/>
      </defs>
      <use xlink:href="#DejaVuSans-4d"/>
      <use xlink:href="#DejaVuSans-65" transform="translate(86.279297 0)"/>
      <use xlink:href="#DejaVuSans-61" transform="translate(147.802734 0)"/>
      <use xlink:href="#DejaVuSans-6e" transform="translate(209.082031 0)"/>
     </g>
    </g>
    <g id="line2d_23">
     <path d="M 874.59071 92.544688 
L 896.59071 92.544688 
L 918.59071 92.544688 
" style="fill: none; stroke-dasharray: 7.4,3.2; stroke-dashoffset: 0; stroke: #000000; stroke-width: 2"/>
    </g>
    <g id="text_20">
     <!-- P10 Percentile -->
     <g style="fill: #262626" transform="translate(936.19071 100.244688) scale(0.22 -0.22)">
      <defs>
       <path id="DejaVuSans-50" d="M 1259 4147 
L 1259 2394 
L 2053 2394 
Q 2494 2394 2734 2622 
Q 2975 2850 2975 3272 
Q 2975 3691 2734 3919 
Q 2494 4147 2053 4147 
L 1259 4147 
z
M 628 4666 
L 2053 4666 
Q 2838 4666 3239 4311 
Q 3641 3956 3641 3272 
Q 3641 2581 3239 2228 
Q 2838 1875 2053 1875 
L 1259 1875 
L 1259 0 
L 628 0 
L 628 4666 
z
" transform="scale(0.015625)"/>
       <path id="DejaVuSans-20" transform="scale(0.015625)"/>
       <path id="DejaVuSans-72" d="M 2631 2963 
Q 2534 3019 2420 3045 
Q 2306 3072 2169 3072 
Q 1681 3072 1420 2755 
Q 1159 2438 1159 1844 
L 1159 0 
L 581 0 
L 581 3500 
L 1159 3500 
L 1159 2956 
Q 1341 3275 1631 3429 
Q 1922 3584 2338 3584 
Q 2397 3584 2469 3576 
Q 2541 3569 2628 3553 
L 2631 2963 
z
" transform="scale(0.015625)"/>
       <path id="DejaVuSans-63" d="M 3122 3366 
L 3122 2828 
Q 2878 2963 2633 3030 
Q 2388 3097 2138 3097 
Q 1578 3097 1268 2742 
Q 959 2388 959 1747 
Q 959 1106 1268 751 
Q 1578 397 2138 397 
Q 2388 397 2633 464 
Q 2878 531 3122 666 
L 3122 134 
Q 2881 22 2623 -34 
Q 2366 -91 2075 -91 
Q 1284 -91 818 406 
Q 353 903 353 1747 
Q 353 2603 823 3093 
Q 1294 3584 2113 3584 
Q 2378 3584 2631 3529 
Q 2884 3475 3122 3366 
z
" transform="scale(0.015625)"/>
       <path id="DejaVuSans-74" d="M 1172 4494 
L 1172 3500 
L 2356 3500 
L 2356 3053 
L 1172 3053 
L 1172 1153 
Q 1172 725 1289 603 
Q 1406 481 1766 481 
L 2356 481 
L 2356 0 
L 1766 0 
Q 1100 0 847 248 
Q 594 497 594 1153 
L 594 3053 
L 172 3053 
L 172 3500 
L 594 3500 
L 594 4494 
L 1172 4494 
z
" transform="scale(0.015625)"/>
       <path id="DejaVuSans-69" d="M 603 3500 
L 1178 3500 
L 1178 0 
L 603 0 
L 603 3500 
z
M 603 4863 
L 1178 4863 
L 1178 4134 
L 603 4134 
L 603 4863 
z
" transform="scale(0.015625)"/>
       <path id="DejaVuSans-6c" d="M 603 4863 
L 1178 4863 
L 1178 0 
L 603 0 
L 603 4863 
z
" transform="scale(0.015625)"/>
      </defs>
      <use xlink:href="#DejaVuSans-50"/>
      <use xlink:href="#DejaVuSans-31" transform="translate(60.302734 0)"/>
      <use xlink:href="#DejaVuSans-30" transform="translate(123.925781 0)"/>
      <use xlink:href="#DejaVuSans-20" transform="translate(187.548828 0)"/>
      <use xlink:href="#DejaVuSans-50" transform="translate(219.335938 0)"/>
      <use xlink:href="#DejaVuSans-65" transform="translate(276.013672 0)"/>
      <use xlink:href="#DejaVuSans-72" transform="translate(337.537109 0)"/>
      <use xlink:href="#DejaVuSans-63" transform="translate(376.400391 0)"/>
      <use xlink:href="#DejaVuSans-65" transform="translate(431.380859 0)"/>
      <use xlink:href="#DejaVuSans-6e" transform="translate(492.904297 0)"/>
      <use xlink:href="#DejaVuSans-74" transform="translate(556.283203 0)"/>
      <use xlink:href="#DejaVuSans-69" transform="translate(595.492188 0)"/>
      <use xlink:href="#DejaVuSans-6c" transform="translate(623.275391 0)"/>
      <use xlink:href="#DejaVuSans-65" transform="translate(651.058594 0)"/>
     </g>
    </g>
    <g id="line2d_24">
     <path d="M 874.59071 124.836563 
L 896.59071 124.836563 
L 918.59071 124.836563 
" style="fill: none; stroke-dasharray: 2,3.3; stroke-dashoffset: 0; stroke: #000000; stroke-width: 2"/>
    </g>
    <g id="text_21">
     <!-- P90 Percentile -->
     <g style="fill: #262626" transform="translate(936.19071 132.536563) scale(0.22 -0.22)">
      <use xlink:href="#DejaVuSans-50"/>
      <use xlink:href="#DejaVuSans-39" transform="translate(60.302734 0)"/>
      <use xlink:href="#DejaVuSans-30" transform="translate(123.925781 0)"/>
      <use xlink:href="#DejaVuSans-20" transform="translate(187.548828 0)"/>
      <use xlink:href="#DejaVuSans-50" transform="translate(219.335938 0)"/>
      <use xlink:href="#DejaVuSans-65" transform="translate(276.013672 0)"/>
      <use xlink:href="#DejaVuSans-72" transform="translate(337.537109 0)"/>
      <use xlink:href="#DejaVuSans-63" transform="translate(376.400391 0)"/>
      <use xlink:href="#DejaVuSans-65" transform="translate(431.380859 0)"/>
      <use xlink:href="#DejaVuSans-6e" transform="translate(492.904297 0)"/>
      <use xlink:href="#DejaVuSans-74" transform="translate(556.283203 0)"/>
      <use xlink:href="#DejaVuSans-69" transform="translate(595.492188 0)"/>
      <use xlink:href="#DejaVuSans-6c" transform="translate(623.275391 0)"/>
      <use xlink:href="#DejaVuSans-65" transform="translate(651.058594 0)"/>
     </g>
    </g>
    <g id="patch_8">
     <path d="M 874.59071 164.828438 
L 918.59071 164.828438 
L 918.59071 149.428438 
L 874.59071 149.428438 
z
" style="fill: #58508d; fill-opacity: 0.7; stroke: #58508d; stroke-opacity: 0.7; stroke-width: 0.8; stroke-linejoin: miter"/>
    </g>
    <g id="text_22">
     <!-- Batch 0 -->
     <g style="fill: #262626" transform="translate(936.19071 164.828438) scale(0.22 -0.22)">
      <defs>
       <path id="DejaVuSans-42" d="M 1259 2228 
L 1259 519 
L 2272 519 
Q 2781 519 3026 730 
Q 3272 941 3272 1375 
Q 3272 1813 3026 2020 
Q 2781 2228 2272 2228 
L 1259 2228 
z
M 1259 4147 
L 1259 2741 
L 2194 2741 
Q 2656 2741 2882 2914 
Q 3109 3088 3109 3444 
Q 3109 3797 2882 3972 
Q 2656 4147 2194 4147 
L 1259 4147 
z
M 628 4666 
L 2241 4666 
Q 2963 4666 3353 4366 
Q 3744 4066 3744 3513 
Q 3744 3084 3544 2831 
Q 3344 2578 2956 2516 
Q 3422 2416 3680 2098 
Q 3938 1781 3938 1306 
Q 3938 681 3513 340 
Q 3088 0 2303 0 
L 628 0 
L 628 4666 
z
" transform="scale(0.015625)"/>
       <path id="DejaVuSans-68" d="M 3513 2113 
L 3513 0 
L 2938 0 
L 2938 2094 
Q 2938 2591 2744 2837 
Q 2550 3084 2163 3084 
Q 1697 3084 1428 2787 
Q 1159 2491 1159 1978 
L 1159 0 
L 581 0 
L 581 4863 
L 1159 4863 
L 1159 2956 
Q 1366 3272 1645 3428 
Q 1925 3584 2291 3584 
Q 2894 3584 3203 3211 
Q 3513 2838 3513 2113 
z
" transform="scale(0.015625)"/>
      </defs>
      <use xlink:href="#DejaVuSans-42"/>
      <use xlink:href="#DejaVuSans-61" transform="translate(68.603516 0)"/>
      <use xlink:href="#DejaVuSans-74" transform="translate(129.882812 0)"/>
      <use xlink:href="#DejaVuSans-63" transform="translate(169.091797 0)"/>
      <use xlink:href="#DejaVuSans-68" transform="translate(224.072266 0)"/>
      <use xlink:href="#DejaVuSans-20" transform="translate(287.451172 0)"/>
      <use xlink:href="#DejaVuSans-30" transform="translate(319.238281 0)"/>
     </g>
    </g>
    <g id="patch_9">
     <path d="M 874.59071 197.120313 
L 918.59071 197.120313 
L 918.59071 181.720313 
L 874.59071 181.720313 
z
" style="fill: #ffa600; fill-opacity: 0.7; stroke: #ffa600; stroke-opacity: 0.7; stroke-width: 0.8; stroke-linejoin: miter"/>
    </g>
    <g id="text_23">
     <!-- Batch 5 -->
     <g style="fill: #262626" transform="translate(936.19071 197.120313) scale(0.22 -0.22)">
      <use xlink:href="#DejaVuSans-42"/>
      <use xlink:href="#DejaVuSans-61" transform="translate(68.603516 0)"/>
      <use xlink:href="#DejaVuSans-74" transform="translate(129.882812 0)"/>
      <use xlink:href="#DejaVuSans-63" transform="translate(169.091797 0)"/>
      <use xlink:href="#DejaVuSans-68" transform="translate(224.072266 0)"/>
      <use xlink:href="#DejaVuSans-20" transform="translate(287.451172 0)"/>
      <use xlink:href="#DejaVuSans-35" transform="translate(319.238281 0)"/>
     </g>
    </g>
   </g>
  </g>
 </g>
 <defs>
  <clipPath id="p66382e8792">
   <rect x="119.265" y="31.43625" width="993.492898" height="542.004"/>
  </clipPath>
 </defs>
</svg>
