<?xml version="1.0" encoding="utf-8" standalone="no"?>
<!DOCTYPE svg PUBLIC "-//W3C//DTD SVG 1.1//EN"
  "http://www.w3.org/Graphics/SVG/1.1/DTD/svg11.dtd">
<svg xmlns:xlink="http://www.w3.org/1999/xlink" width="1143.944726pt" height="641.330875pt" viewBox="0 0 1143.944726 641.330875" xmlns="http://www.w3.org/2000/svg" version="1.1">
 <metadata>
  <rdf:RDF xmlns:dc="http://purl.org/dc/elements/1.1/" xmlns:cc="http://creativecommons.org/ns#" xmlns:rdf="http://www.w3.org/1999/02/22-rdf-syntax-ns#">
   <cc:Work>
    <dc:type rdf:resource="http://purl.org/dc/dcmitype/StillImage"/>
    <dc:date>2025-07-08T08:17:41.846033</dc:date>
    <dc:format>image/svg+xml</dc:format>
    <dc:creator>
     <cc:Agent>
      <dc:title>Matplotlib v3.10.3, https://matplotlib.org/</dc:title>
     </cc:Agent>
    </dc:creator>
   </cc:Work>
  </rdf:RDF>
 </metadata>
 <defs>
  <style type="text/css">*{stroke-linejoin: round; stroke-linecap: butt}</style>
 </defs>
 <g id="figure_1">
  <g id="patch_1">
   <path d="M 0 641.330875 
L 1143.944726 641.330875 
L 1143.944726 0 
L 0 0 
z
" style="fill: #ffffff"/>
  </g>
  <g id="axes_1">
   <g id="patch_2">
    <path d="M 88.5375 573.44025 
L 1112.540398 573.44025 
L 1112.540398 31.43625 
L 88.5375 31.43625 
z
" style="fill: #eaeaf2"/>
   </g>
   <g id="matplotlib.axis_1">
    <g id="xtick_1">
     <g id="line2d_1">
      <path d="M 93.685233 573.44025 
L 93.685233 31.43625 
" clip-path="url(#p508d0b4103)" style="fill: none; stroke: #ffffff; stroke-width: 0.8; stroke-linecap: round"/>
     </g>
     <g id="text_1">
      <!-- 2023 -->
      <g style="fill: #262626" transform="translate(63.145233 599.9765) scale(0.24 -0.24)">
       <defs>
        <path id="DejaVuSans-32" d="M 1228 531 
L 3431 531 
L 3431 0 
L 469 0 
L 469 531 
Q 828 903 1448 1529 
Q 2069 2156 2228 2338 
Q 2531 2678 2651 2914 
Q 2772 3150 2772 3378 
Q 2772 3750 2511 3984 
Q 2250 4219 1831 4219 
Q 1534 4219 1204 4116 
Q 875 4013 500 3803 
L 500 4441 
Q 881 4594 1212 4672 
Q 1544 4750 1819 4750 
Q 2544 4750 2975 4387 
Q 3406 4025 3406 3419 
Q 3406 3131 3298 2873 
Q 3191 2616 2906 2266 
Q 2828 2175 2409 1742 
Q 1991 1309 1228 531 
z
" transform="scale(0.015625)"/>
        <path id="DejaVuSans-30" d="M 2034 4250 
Q 1547 4250 1301 3770 
Q 1056 3291 1056 2328 
Q 1056 1369 1301 889 
Q 1547 409 2034 409 
Q 2525 409 2770 889 
Q 3016 1369 3016 2328 
Q 3016 3291 2770 3770 
Q 2525 4250 2034 4250 
z
M 2034 4750 
Q 2819 4750 3233 4129 
Q 3647 3509 3647 2328 
Q 3647 1150 3233 529 
Q 2819 -91 2034 -91 
Q 1250 -91 836 529 
Q 422 1150 422 2328 
Q 422 3509 836 4129 
Q 1250 4750 2034 4750 
z
" transform="scale(0.015625)"/>
        <path id="DejaVuSans-33" d="M 2597 2516 
Q 3050 2419 3304 2112 
Q 3559 1806 3559 1356 
Q 3559 666 3084 287 
Q 2609 -91 1734 -91 
Q 1441 -91 1130 -33 
Q 819 25 488 141 
L 488 750 
Q 750 597 1062 519 
Q 1375 441 1716 441 
Q 2309 441 2620 675 
Q 2931 909 2931 1356 
Q 2931 1769 2642 2001 
Q 2353 2234 1838 2234 
L 1294 2234 
L 1294 2753 
L 1863 2753 
Q 2328 2753 2575 2939 
Q 2822 3125 2822 3475 
Q 2822 3834 2567 4026 
Q 2313 4219 1838 4219 
Q 1578 4219 1281 4162 
Q 984 4106 628 3988 
L 628 4550 
Q 988 4650 1302 4700 
Q 1616 4750 1894 4750 
Q 2613 4750 3031 4423 
Q 3450 4097 3450 3541 
Q 3450 3153 3228 2886 
Q 3006 2619 2597 2516 
z
" transform="scale(0.015625)"/>
       </defs>
       <use xlink:href="#DejaVuSans-32"/>
       <use xlink:href="#DejaVuSans-30" transform="translate(63.623047 0)"/>
       <use xlink:href="#DejaVuSans-32" transform="translate(127.246094 0)"/>
       <use xlink:href="#DejaVuSans-33" transform="translate(190.869141 0)"/>
      </g>
     </g>
    </g>
    <g id="xtick_2">
     <g id="line2d_2">
      <path d="M 238.217738 573.44025 
L 238.217738 31.43625 
" clip-path="url(#p508d0b4103)" style="fill: none; stroke: #ffffff; stroke-width: 0.8; stroke-linecap: round"/>
     </g>
     <g id="text_2">
      <!-- 2024 -->
      <g style="fill: #262626" transform="translate(207.677738 599.9765) scale(0.24 -0.24)">
       <defs>
        <path id="DejaVuSans-34" d="M 2419 4116 
L 825 1625 
L 2419 1625 
L 2419 4116 
z
M 2253 4666 
L 3047 4666 
L 3047 1625 
L 3713 1625 
L 3713 1100 
L 3047 1100 
L 3047 0 
L 2419 0 
L 2419 1100 
L 313 1100 
L 313 1709 
L 2253 4666 
z
" transform="scale(0.015625)"/>
       </defs>
       <use xlink:href="#DejaVuSans-32"/>
       <use xlink:href="#DejaVuSans-30" transform="translate(63.623047 0)"/>
       <use xlink:href="#DejaVuSans-32" transform="translate(127.246094 0)"/>
       <use xlink:href="#DejaVuSans-34" transform="translate(190.869141 0)"/>
      </g>
     </g>
    </g>
    <g id="xtick_3">
     <g id="line2d_3">
      <path d="M 383.146222 573.44025 
L 383.146222 31.43625 
" clip-path="url(#p508d0b4103)" style="fill: none; stroke: #ffffff; stroke-width: 0.8; stroke-linecap: round"/>
     </g>
     <g id="text_3">
      <!-- 2025 -->
      <g style="fill: #262626" transform="translate(352.606222 599.9765) scale(0.24 -0.24)">
       <defs>
        <path id="DejaVuSans-35" d="M 691 4666 
L 3169 4666 
L 3169 4134 
L 1269 4134 
L 1269 2991 
Q 1406 3038 1543 3061 
Q 1681 3084 1819 3084 
Q 2600 3084 3056 2656 
Q 3513 2228 3513 1497 
Q 3513 744 3044 326 
Q 2575 -91 1722 -91 
Q 1428 -91 1123 -41 
Q 819 9 494 109 
L 494 744 
Q 775 591 1075 516 
Q 1375 441 1709 441 
Q 2250 441 2565 725 
Q 2881 1009 2881 1497 
Q 2881 1984 2565 2268 
Q 2250 2553 1709 2553 
Q 1456 2553 1204 2497 
Q 953 2441 691 2322 
L 691 4666 
z
" transform="scale(0.015625)"/>
       </defs>
       <use xlink:href="#DejaVuSans-32"/>
       <use xlink:href="#DejaVuSans-30" transform="translate(63.623047 0)"/>
       <use xlink:href="#DejaVuSans-32" transform="translate(127.246094 0)"/>
       <use xlink:href="#DejaVuSans-35" transform="translate(190.869141 0)"/>
      </g>
     </g>
    </g>
    <g id="xtick_4">
     <g id="line2d_4">
      <path d="M 527.678727 573.44025 
L 527.678727 31.43625 
" clip-path="url(#p508d0b4103)" style="fill: none; stroke: #ffffff; stroke-width: 0.8; stroke-linecap: round"/>
     </g>
     <g id="text_4">
      <!-- 2026 -->
      <g style="fill: #262626" transform="translate(497.138727 599.9765) scale(0.24 -0.24)">
       <defs>
        <path id="DejaVuSans-36" d="M 2113 2584 
Q 1688 2584 1439 2293 
Q 1191 2003 1191 1497 
Q 1191 994 1439 701 
Q 1688 409 2113 409 
Q 2538 409 2786 701 
Q 3034 994 3034 1497 
Q 3034 2003 2786 2293 
Q 2538 2584 2113 2584 
z
M 3366 4563 
L 3366 3988 
Q 3128 4100 2886 4159 
Q 2644 4219 2406 4219 
Q 1781 4219 1451 3797 
Q 1122 3375 1075 2522 
Q 1259 2794 1537 2939 
Q 1816 3084 2150 3084 
Q 2853 3084 3261 2657 
Q 3669 2231 3669 1497 
Q 3669 778 3244 343 
Q 2819 -91 2113 -91 
Q 1303 -91 875 529 
Q 447 1150 447 2328 
Q 447 3434 972 4092 
Q 1497 4750 2381 4750 
Q 2619 4750 2861 4703 
Q 3103 4656 3366 4563 
z
" transform="scale(0.015625)"/>
       </defs>
       <use xlink:href="#DejaVuSans-32"/>
       <use xlink:href="#DejaVuSans-30" transform="translate(63.623047 0)"/>
       <use xlink:href="#DejaVuSans-32" transform="translate(127.246094 0)"/>
       <use xlink:href="#DejaVuSans-36" transform="translate(190.869141 0)"/>
      </g>
     </g>
    </g>
    <g id="xtick_5">
     <g id="line2d_5">
      <path d="M 672.211232 573.44025 
L 672.211232 31.43625 
" clip-path="url(#p508d0b4103)" style="fill: none; stroke: #ffffff; stroke-width: 0.8; stroke-linecap: round"/>
     </g>
     <g id="text_5">
      <!-- 2027 -->
      <g style="fill: #262626" transform="translate(641.671232 599.9765) scale(0.24 -0.24)">
       <defs>
        <path id="DejaVuSans-37" d="M 525 4666 
L 3525 4666 
L 3525 4397 
L 1831 0 
L 1172 0 
L 2766 4134 
L 525 4134 
L 525 4666 
z
" transform="scale(0.015625)"/>
       </defs>
       <use xlink:href="#DejaVuSans-32"/>
       <use xlink:href="#DejaVuSans-30" transform="translate(63.623047 0)"/>
       <use xlink:href="#DejaVuSans-32" transform="translate(127.246094 0)"/>
       <use xlink:href="#DejaVuSans-37" transform="translate(190.869141 0)"/>
      </g>
     </g>
    </g>
    <g id="xtick_6">
     <g id="line2d_6">
      <path d="M 816.743737 573.44025 
L 816.743737 31.43625 
" clip-path="url(#p508d0b4103)" style="fill: none; stroke: #ffffff; stroke-width: 0.8; stroke-linecap: round"/>
     </g>
     <g id="text_6">
      <!-- 2028 -->
      <g style="fill: #262626" transform="translate(786.203737 599.9765) scale(0.24 -0.24)">
       <defs>
        <path id="DejaVuSans-38" d="M 2034 2216 
Q 1584 2216 1326 1975 
Q 1069 1734 1069 1313 
Q 1069 891 1326 650 
Q 1584 409 2034 409 
Q 2484 409 2743 651 
Q 3003 894 3003 1313 
Q 3003 1734 2745 1975 
Q 2488 2216 2034 2216 
z
M 1403 2484 
Q 997 2584 770 2862 
Q 544 3141 544 3541 
Q 544 4100 942 4425 
Q 1341 4750 2034 4750 
Q 2731 4750 3128 4425 
Q 3525 4100 3525 3541 
Q 3525 3141 3298 2862 
Q 3072 2584 2669 2484 
Q 3125 2378 3379 2068 
Q 3634 1759 3634 1313 
Q 3634 634 3220 271 
Q 2806 -91 2034 -91 
Q 1263 -91 848 271 
Q 434 634 434 1313 
Q 434 1759 690 2068 
Q 947 2378 1403 2484 
z
M 1172 3481 
Q 1172 3119 1398 2916 
Q 1625 2713 2034 2713 
Q 2441 2713 2670 2916 
Q 2900 3119 2900 3481 
Q 2900 3844 2670 4047 
Q 2441 4250 2034 4250 
Q 1625 4250 1398 4047 
Q 1172 3844 1172 3481 
z
" transform="scale(0.015625)"/>
       </defs>
       <use xlink:href="#DejaVuSans-32"/>
       <use xlink:href="#DejaVuSans-30" transform="translate(63.623047 0)"/>
       <use xlink:href="#DejaVuSans-32" transform="translate(127.246094 0)"/>
       <use xlink:href="#DejaVuSans-38" transform="translate(190.869141 0)"/>
      </g>
     </g>
    </g>
    <g id="xtick_7">
     <g id="line2d_7">
      <path d="M 961.672222 573.44025 
L 961.672222 31.43625 
" clip-path="url(#p508d0b4103)" style="fill: none; stroke: #ffffff; stroke-width: 0.8; stroke-linecap: round"/>
     </g>
     <g id="text_7">
      <!-- 2029 -->
      <g style="fill: #262626" transform="translate(931.132222 599.9765) scale(0.24 -0.24)">
       <defs>
        <path id="DejaVuSans-39" d="M 703 97 
L 703 672 
Q 941 559 1184 500 
Q 1428 441 1663 441 
Q 2288 441 2617 861 
Q 2947 1281 2994 2138 
Q 2813 1869 2534 1725 
Q 2256 1581 1919 1581 
Q 1219 1581 811 2004 
Q 403 2428 403 3163 
Q 403 3881 828 4315 
Q 1253 4750 1959 4750 
Q 2769 4750 3195 4129 
Q 3622 3509 3622 2328 
Q 3622 1225 3098 567 
Q 2575 -91 1691 -91 
Q 1453 -91 1209 -44 
Q 966 3 703 97 
z
M 1959 2075 
Q 2384 2075 2632 2365 
Q 2881 2656 2881 3163 
Q 2881 3666 2632 3958 
Q 2384 4250 1959 4250 
Q 1534 4250 1286 3958 
Q 1038 3666 1038 3163 
Q 1038 2656 1286 2365 
Q 1534 2075 1959 2075 
z
" transform="scale(0.015625)"/>
       </defs>
       <use xlink:href="#DejaVuSans-32"/>
       <use xlink:href="#DejaVuSans-30" transform="translate(63.623047 0)"/>
       <use xlink:href="#DejaVuSans-32" transform="translate(127.246094 0)"/>
       <use xlink:href="#DejaVuSans-39" transform="translate(190.869141 0)"/>
      </g>
     </g>
    </g>
    <g id="xtick_8">
     <g id="line2d_8">
      <path d="M 1106.204726 573.44025 
L 1106.204726 31.43625 
" clip-path="url(#p508d0b4103)" style="fill: none; stroke: #ffffff; stroke-width: 0.8; stroke-linecap: round"/>
     </g>
     <g id="text_8">
      <!-- 2030 -->
      <g style="fill: #262626" transform="translate(1075.664726 599.9765) scale(0.24 -0.24)">
       <use xlink:href="#DejaVuSans-32"/>
       <use xlink:href="#DejaVuSans-30" transform="translate(63.623047 0)"/>
       <use xlink:href="#DejaVuSans-33" transform="translate(127.246094 0)"/>
       <use xlink:href="#DejaVuSans-30" transform="translate(190.869141 0)"/>
      </g>
     </g>
    </g>
    <g id="text_9">
     <!-- Date -->
     <g style="fill: #262626" transform="translate(565.942699 628.723687) scale(0.26 -0.26)">
      <defs>
       <path id="DejaVuSans-Bold-44" d="M 1791 3756 
L 1791 909 
L 2222 909 
Q 2959 909 3348 1275 
Q 3738 1641 3738 2338 
Q 3738 3031 3350 3393 
Q 2963 3756 2222 3756 
L 1791 3756 
z
M 588 4666 
L 1856 4666 
Q 2919 4666 3439 4514 
Q 3959 4363 4331 4000 
Q 4659 3684 4818 3271 
Q 4978 2859 4978 2338 
Q 4978 1809 4818 1395 
Q 4659 981 4331 666 
Q 3956 303 3431 151 
Q 2906 0 1856 0 
L 588 0 
L 588 4666 
z
" transform="scale(0.015625)"/>
       <path id="DejaVuSans-Bold-61" d="M 2106 1575 
Q 1756 1575 1579 1456 
Q 1403 1338 1403 1106 
Q 1403 894 1545 773 
Q 1688 653 1941 653 
Q 2256 653 2472 879 
Q 2688 1106 2688 1447 
L 2688 1575 
L 2106 1575 
z
M 3816 1997 
L 3816 0 
L 2688 0 
L 2688 519 
Q 2463 200 2181 54 
Q 1900 -91 1497 -91 
Q 953 -91 614 226 
Q 275 544 275 1050 
Q 275 1666 698 1953 
Q 1122 2241 2028 2241 
L 2688 2241 
L 2688 2328 
Q 2688 2594 2478 2717 
Q 2269 2841 1825 2841 
Q 1466 2841 1156 2769 
Q 847 2697 581 2553 
L 581 3406 
Q 941 3494 1303 3539 
Q 1666 3584 2028 3584 
Q 2975 3584 3395 3211 
Q 3816 2838 3816 1997 
z
" transform="scale(0.015625)"/>
       <path id="DejaVuSans-Bold-74" d="M 1759 4494 
L 1759 3500 
L 2913 3500 
L 2913 2700 
L 1759 2700 
L 1759 1216 
Q 1759 972 1856 886 
Q 1953 800 2241 800 
L 2816 800 
L 2816 0 
L 1856 0 
Q 1194 0 917 276 
Q 641 553 641 1216 
L 641 2700 
L 84 2700 
L 84 3500 
L 641 3500 
L 641 4494 
L 1759 4494 
z
" transform="scale(0.015625)"/>
       <path id="DejaVuSans-Bold-65" d="M 4031 1759 
L 4031 1441 
L 1416 1441 
Q 1456 1047 1700 850 
Q 1944 653 2381 653 
Q 2734 653 3104 758 
Q 3475 863 3866 1075 
L 3866 213 
Q 3469 63 3072 -14 
Q 2675 -91 2278 -91 
Q 1328 -91 801 392 
Q 275 875 275 1747 
Q 275 2603 792 3093 
Q 1309 3584 2216 3584 
Q 3041 3584 3536 3087 
Q 4031 2591 4031 1759 
z
M 2881 2131 
Q 2881 2450 2695 2645 
Q 2509 2841 2209 2841 
Q 1884 2841 1681 2658 
Q 1478 2475 1428 2131 
L 2881 2131 
z
" transform="scale(0.015625)"/>
      </defs>
      <use xlink:href="#DejaVuSans-Bold-44"/>
      <use xlink:href="#DejaVuSans-Bold-61" transform="translate(83.007812 0)"/>
      <use xlink:href="#DejaVuSans-Bold-74" transform="translate(150.488281 0)"/>
      <use xlink:href="#DejaVuSans-Bold-65" transform="translate(198.291016 0)"/>
     </g>
    </g>
   </g>
   <g id="matplotlib.axis_2">
    <g id="ytick_1">
     <g id="line2d_9">
      <path d="M 88.5375 505.048712 
L 1112.540398 505.048712 
" clip-path="url(#p508d0b4103)" style="fill: none; stroke: #ffffff; stroke-width: 0.8; stroke-linecap: round"/>
     </g>
     <g id="text_10">
      <!-- 220 -->
      <g style="fill: #262626" transform="translate(34.4275 514.166837) scale(0.24 -0.24)">
       <use xlink:href="#DejaVuSans-32"/>
       <use xlink:href="#DejaVuSans-32" transform="translate(63.623047 0)"/>
       <use xlink:href="#DejaVuSans-30" transform="translate(127.246094 0)"/>
      </g>
     </g>
    </g>
    <g id="ytick_2">
     <g id="line2d_10">
      <path d="M 88.5375 393.894338 
L 1112.540398 393.894338 
" clip-path="url(#p508d0b4103)" style="fill: none; stroke: #ffffff; stroke-width: 0.8; stroke-linecap: round"/>
     </g>
     <g id="text_11">
      <!-- 240 -->
      <g style="fill: #262626" transform="translate(34.4275 403.012463) scale(0.24 -0.24)">
       <use xlink:href="#DejaVuSans-32"/>
       <use xlink:href="#DejaVuSans-34" transform="translate(63.623047 0)"/>
       <use xlink:href="#DejaVuSans-30" transform="translate(127.246094 0)"/>
      </g>
     </g>
    </g>
    <g id="ytick_3">
     <g id="line2d_11">
      <path d="M 88.5375 282.739964 
L 1112.540398 282.739964 
" clip-path="url(#p508d0b4103)" style="fill: none; stroke: #ffffff; stroke-width: 0.8; stroke-linecap: round"/>
     </g>
     <g id="text_12">
      <!-- 260 -->
      <g style="fill: #262626" transform="translate(34.4275 291.858089) scale(0.24 -0.24)">
       <use xlink:href="#DejaVuSans-32"/>
       <use xlink:href="#DejaVuSans-36" transform="translate(63.623047 0)"/>
       <use xlink:href="#DejaVuSans-30" transform="translate(127.246094 0)"/>
      </g>
     </g>
    </g>
    <g id="ytick_4">
     <g id="line2d_12">
      <path d="M 88.5375 171.585589 
L 1112.540398 171.585589 
" clip-path="url(#p508d0b4103)" style="fill: none; stroke: #ffffff; stroke-width: 0.8; stroke-linecap: round"/>
     </g>
     <g id="text_13">
      <!-- 280 -->
      <g style="fill: #262626" transform="translate(34.4275 180.703714) scale(0.24 -0.24)">
       <use xlink:href="#DejaVuSans-32"/>
       <use xlink:href="#DejaVuSans-38" transform="translate(63.623047 0)"/>
       <use xlink:href="#DejaVuSans-30" transform="translate(127.246094 0)"/>
      </g>
     </g>
    </g>
    <g id="ytick_5">
     <g id="line2d_13">
      <path d="M 88.5375 60.431215 
L 1112.540398 60.431215 
" clip-path="url(#p508d0b4103)" style="fill: none; stroke: #ffffff; stroke-width: 0.8; stroke-linecap: round"/>
     </g>
     <g id="text_14">
      <!-- 300 -->
      <g style="fill: #262626" transform="translate(34.4275 69.54934) scale(0.24 -0.24)">
       <use xlink:href="#DejaVuSans-33"/>
       <use xlink:href="#DejaVuSans-30" transform="translate(63.623047 0)"/>
       <use xlink:href="#DejaVuSans-30" transform="translate(127.246094 0)"/>
      </g>
     </g>
    </g>
    <g id="text_15">
     <!-- FPR [Bar] -->
     <g style="fill: #262626" transform="translate(25.43625 366.9795) rotate(-90) scale(0.24 -0.24)">
      <defs>
       <path id="DejaVuSans-Bold-46" d="M 588 4666 
L 3834 4666 
L 3834 3756 
L 1791 3756 
L 1791 2888 
L 3713 2888 
L 3713 1978 
L 1791 1978 
L 1791 0 
L 588 0 
L 588 4666 
z
" transform="scale(0.015625)"/>
       <path id="DejaVuSans-Bold-50" d="M 588 4666 
L 2584 4666 
Q 3475 4666 3951 4270 
Q 4428 3875 4428 3144 
Q 4428 2409 3951 2014 
Q 3475 1619 2584 1619 
L 1791 1619 
L 1791 0 
L 588 0 
L 588 4666 
z
M 1791 3794 
L 1791 2491 
L 2456 2491 
Q 2806 2491 2997 2661 
Q 3188 2831 3188 3144 
Q 3188 3456 2997 3625 
Q 2806 3794 2456 3794 
L 1791 3794 
z
" transform="scale(0.015625)"/>
       <path id="DejaVuSans-Bold-52" d="M 2297 2597 
Q 2675 2597 2839 2737 
Q 3003 2878 3003 3200 
Q 3003 3519 2839 3656 
Q 2675 3794 2297 3794 
L 1791 3794 
L 1791 2597 
L 2297 2597 
z
M 1791 1766 
L 1791 0 
L 588 0 
L 588 4666 
L 2425 4666 
Q 3347 4666 3776 4356 
Q 4206 4047 4206 3378 
Q 4206 2916 3982 2619 
Q 3759 2322 3309 2181 
Q 3556 2125 3751 1926 
Q 3947 1728 4147 1325 
L 4800 0 
L 3519 0 
L 2950 1159 
Q 2778 1509 2601 1637 
Q 2425 1766 2131 1766 
L 1791 1766 
z
" transform="scale(0.015625)"/>
       <path id="DejaVuSans-Bold-20" transform="scale(0.015625)"/>
       <path id="DejaVuSans-Bold-5b" d="M 550 4863 
L 2491 4863 
L 2491 4159 
L 1613 4159 
L 1613 -141 
L 2491 -141 
L 2491 -844 
L 550 -844 
L 550 4863 
z
" transform="scale(0.015625)"/>
       <path id="DejaVuSans-Bold-42" d="M 2456 2859 
Q 2741 2859 2887 2984 
Q 3034 3109 3034 3353 
Q 3034 3594 2887 3720 
Q 2741 3847 2456 3847 
L 1791 3847 
L 1791 2859 
L 2456 2859 
z
M 2497 819 
Q 2859 819 3042 972 
Q 3225 1125 3225 1434 
Q 3225 1738 3044 1889 
Q 2863 2041 2497 2041 
L 1791 2041 
L 1791 819 
L 2497 819 
z
M 3616 2497 
Q 4003 2384 4215 2081 
Q 4428 1778 4428 1338 
Q 4428 663 3972 331 
Q 3516 0 2584 0 
L 588 0 
L 588 4666 
L 2394 4666 
Q 3366 4666 3802 4372 
Q 4238 4078 4238 3431 
Q 4238 3091 4078 2852 
Q 3919 2613 3616 2497 
z
" transform="scale(0.015625)"/>
       <path id="DejaVuSans-Bold-72" d="M 3138 2547 
Q 2991 2616 2845 2648 
Q 2700 2681 2553 2681 
Q 2122 2681 1889 2404 
Q 1656 2128 1656 1613 
L 1656 0 
L 538 0 
L 538 3500 
L 1656 3500 
L 1656 2925 
Q 1872 3269 2151 3426 
Q 2431 3584 2822 3584 
Q 2878 3584 2943 3579 
Q 3009 3575 3134 3559 
L 3138 2547 
z
" transform="scale(0.015625)"/>
       <path id="DejaVuSans-Bold-5d" d="M 2375 -844 
L 434 -844 
L 434 -141 
L 1313 -141 
L 1313 4159 
L 434 4159 
L 434 4863 
L 2375 4863 
L 2375 -844 
z
" transform="scale(0.015625)"/>
      </defs>
      <use xlink:href="#DejaVuSans-Bold-46"/>
      <use xlink:href="#DejaVuSans-Bold-50" transform="translate(68.310547 0)"/>
      <use xlink:href="#DejaVuSans-Bold-52" transform="translate(141.601562 0)"/>
      <use xlink:href="#DejaVuSans-Bold-20" transform="translate(218.603516 0)"/>
      <use xlink:href="#DejaVuSans-Bold-5b" transform="translate(253.417969 0)"/>
      <use xlink:href="#DejaVuSans-Bold-42" transform="translate(299.121094 0)"/>
      <use xlink:href="#DejaVuSans-Bold-61" transform="translate(375.341797 0)"/>
      <use xlink:href="#DejaVuSans-Bold-72" transform="translate(442.822266 0)"/>
      <use xlink:href="#DejaVuSans-Bold-5d" transform="translate(492.138672 0)"/>
     </g>
    </g>
   </g>
   <g id="FillBetweenPolyCollection_1">
    <defs>
     <path id="m245d3641f8" d="M 46.563677 -585.25808 
L 46.563677 -582.53994 
L 47.751615 -582.53994 
L 51.31543 -582.53994 
L 62.006876 -582.53994 
L 73.88626 -582.53994 
L 85.765644 -582.53994 
L 93.685233 -582.53994 
L 129.323385 -486.738662 
L 135.461067 -477.948382 
L 141.598748 -469.909806 
L 165.357516 -421.62475 
L 189.512264 -384.216154 
L 201.787627 -351.170048 
L 237.425779 -284.598184 
L 238.217738 -280.229503 
L 274.251869 -173.832212 
L 285.339294 -147.333234 
L 310.286001 -114.634825 
L 333.25281 -98.477193 
L 346.716112 -96.881689 
L 383.146222 -92.52717 
L 418.784374 -95.680355 
L 454.818506 -100.903691 
L 491.248616 -107.135517 
L 527.678727 -112.153628 
L 563.316879 -114.1567 
L 599.351011 -116.085907 
L 635.781121 -119.394029 
L 672.211232 -120.820857 
L 707.849384 -122.868705 
L 719.728768 -123.729382 
L 731.608152 -124.655527 
L 737.745834 -125.152139 
L 743.883515 -125.664017 
L 780.313626 -128.982315 
L 816.743737 -132.681298 
L 828.623121 -133.385681 
L 852.777869 -131.845639 
L 864.657252 -131.080706 
L 888.812 -129.514545 
L 900.691384 -128.740369 
L 925.242111 -127.157077 
L 937.121495 -126.421487 
L 949.000879 -125.702857 
L 955.33655 -125.324037 
L 961.672222 -124.949797 
L 997.310373 -122.926033 
L 1033.344505 -120.980034 
L 1069.774616 -119.097978 
L 1081.654 -118.4996 
L 1093.533384 -117.90665 
L 1099.869055 -117.97602 
L 1106.204726 -118.46059 
L 1106.204726 -308.059905 
L 1106.204726 -308.059905 
L 1099.869055 -306.795392 
L 1093.533384 -305.532574 
L 1081.654 -304.2924 
L 1069.774616 -303.274836 
L 1033.344505 -299.139027 
L 997.310373 -292.297799 
L 961.672222 -287.269088 
L 955.33655 -286.421047 
L 949.000879 -285.568512 
L 937.121495 -283.767868 
L 925.242111 -281.299815 
L 900.691384 -278.407064 
L 888.812 -276.984561 
L 864.657252 -273.762854 
L 852.777869 -272.012075 
L 828.623121 -268.335819 
L 816.743737 -266.483529 
L 780.313626 -260.572092 
L 743.883515 -254.379021 
L 737.745834 -253.263848 
L 731.608152 -252.443284 
L 719.728768 -251.472193 
L 707.849384 -250.401202 
L 672.211232 -246.478421 
L 635.781121 -235.349924 
L 599.351011 -223.909856 
L 563.316879 -221.052808 
L 527.678727 -215.794363 
L 491.248616 -207.761383 
L 454.818506 -199.586102 
L 418.784374 -192.624198 
L 383.146222 -187.178675 
L 346.716112 -190.836613 
L 333.25281 -194.241411 
L 310.286001 -205.371011 
L 285.339294 -223.4107 
L 274.251869 -245.596204 
L 238.217738 -320.745235 
L 237.425779 -324.215502 
L 201.787627 -382.826215 
L 189.512264 -413.054791 
L 165.357516 -444.983688 
L 141.598748 -489.860978 
L 135.461067 -497.288456 
L 129.323385 -504.978658 
L 93.685233 -585.25808 
L 85.765644 -585.25808 
L 73.88626 -585.25808 
L 62.006876 -585.25808 
L 51.31543 -585.25808 
L 47.751615 -585.25808 
L 46.563677 -585.25808 
z
" style="stroke: #58508d; stroke-opacity: 0.7; stroke-width: 0.8"/>
    </defs>
    <g clip-path="url(#p508d0b4103)">
     <use xlink:href="#m245d3641f8" x="0" y="641.330875" style="fill: #58508d; fill-opacity: 0.7; stroke: #58508d; stroke-opacity: 0.7; stroke-width: 0.8"/>
    </g>
   </g>
   <g id="FillBetweenPolyCollection_2">
    <defs>
     <path id="m6c6dcd3f5e" d="M 46.563677 -585.25808 
L 46.563677 -582.53994 
L 47.751615 -582.53994 
L 51.31543 -582.53994 
L 62.006876 -582.53994 
L 73.88626 -582.53994 
L 85.765644 -582.53994 
L 93.685233 -582.53994 
L 129.323385 -486.738662 
L 135.461067 -477.948382 
L 141.598748 -469.909806 
L 165.357516 -399.258358 
L 189.512264 -351.217029 
L 201.787627 -340.526969 
L 237.425779 -319.105464 
L 238.217738 -316.543024 
L 274.251869 -277.906805 
L 285.339294 -266.594876 
L 310.286001 -224.714817 
L 333.25281 -196.577424 
L 346.716112 -186.781538 
L 383.146222 -171.75358 
L 418.784374 -168.888899 
L 454.818506 -169.430627 
L 491.248616 -169.748982 
L 527.678727 -168.153309 
L 563.316879 -170.359317 
L 599.351011 -175.613183 
L 635.781121 -176.577829 
L 672.211232 -175.602752 
L 707.849384 -178.779851 
L 719.728768 -178.999578 
L 731.608152 -178.751272 
L 737.745834 -178.626271 
L 743.883515 -178.503729 
L 780.313626 -177.409926 
L 816.743737 -177.172729 
L 828.623121 -176.802305 
L 852.777869 -174.952898 
L 864.657252 -174.058131 
L 888.812 -172.25808 
L 900.691384 -171.384683 
L 925.242111 -169.594808 
L 937.121495 -168.7371 
L 949.000879 -167.88236 
L 955.33655 -167.427386 
L 961.672222 -166.973345 
L 997.310373 -164.434057 
L 1033.344505 -161.886459 
L 1069.774616 -159.330803 
L 1081.654 -158.499639 
L 1093.533384 -157.670764 
L 1099.869055 -157.22902 
L 1106.204726 -156.787954 
L 1106.204726 -345.399132 
L 1106.204726 -345.399132 
L 1099.869055 -344.514456 
L 1093.533384 -343.623335 
L 1081.654 -341.944045 
L 1069.774616 -340.244571 
L 1033.344505 -335.56008 
L 997.310373 -331.92012 
L 961.672222 -328.140743 
L 955.33655 -327.418212 
L 949.000879 -326.684572 
L 937.121495 -325.289969 
L 925.242111 -323.852032 
L 900.691384 -320.749984 
L 888.812 -319.439083 
L 864.657252 -317.465777 
L 852.777869 -316.487054 
L 828.623121 -313.196063 
L 816.743737 -310.818835 
L 780.313626 -304.993814 
L 743.883515 -300.365802 
L 737.745834 -299.605025 
L 731.608152 -298.85222 
L 719.728768 -297.414367 
L 707.849384 -295.751783 
L 672.211232 -288.113058 
L 635.781121 -281.902263 
L 599.351011 -273.808988 
L 563.316879 -265.810354 
L 527.678727 -258.989733 
L 491.248616 -252.66988 
L 454.818506 -250.291296 
L 418.784374 -249.009229 
L 383.146222 -250.624067 
L 346.716112 -259.33107 
L 333.25281 -264.756494 
L 310.286001 -287.175379 
L 285.339294 -320.891522 
L 274.251869 -328.038978 
L 238.217738 -364.970042 
L 237.425779 -367.158835 
L 201.787627 -384.779252 
L 189.512264 -387.888169 
L 165.357516 -428.771357 
L 141.598748 -489.860978 
L 135.461067 -497.288456 
L 129.323385 -504.978658 
L 93.685233 -585.25808 
L 85.765644 -585.25808 
L 73.88626 -585.25808 
L 62.006876 -585.25808 
L 51.31543 -585.25808 
L 47.751615 -585.25808 
L 46.563677 -585.25808 
z
" style="stroke: #ffa600; stroke-opacity: 0.7; stroke-width: 0.8"/>
    </defs>
    <g clip-path="url(#p508d0b4103)">
     <use xlink:href="#m6c6dcd3f5e" x="0" y="641.330875" style="fill: #ffa600; fill-opacity: 0.7; stroke: #ffa600; stroke-opacity: 0.7; stroke-width: 0.8"/>
    </g>
   </g>
   <g id="line2d_14">
    <path d="M 46.563677 57.505935 
L 47.751615 57.505935 
L 51.31543 57.505935 
L 62.006876 57.505935 
L 73.88626 57.505935 
L 85.765644 57.505935 
L 93.685233 57.505935 
L 129.323385 145.968705 
L 135.461067 154.247875 
L 141.598748 161.862579 
L 165.357516 207.737347 
L 189.512264 241.92479 
L 201.787627 273.958836 
L 237.425779 337.981701 
L 238.217738 341.996754 
L 274.251869 428.096152 
L 285.339294 450.63661 
L 310.286001 475.384612 
L 333.25281 494.165801 
L 346.716112 498.140621 
L 383.146222 499.947266 
L 418.784374 496.838612 
L 454.818506 492.2334 
L 491.248616 487.196066 
L 527.678727 482.100283 
L 563.316879 477.182005 
L 599.351011 472.33894 
L 635.781121 467.552971 
L 672.211232 462.917286 
L 707.849384 458.56254 
L 719.728768 457.151341 
L 731.608152 455.761742 
L 737.745834 455.046008 
L 743.883515 454.336343 
L 780.313626 450.247814 
L 816.743737 446.319957 
L 828.623121 445.080055 
L 852.777869 442.605673 
L 864.657252 441.420196 
L 888.812 439.055388 
L 900.691384 437.923537 
L 925.242111 435.637153 
L 937.121495 434.563624 
L 949.000879 433.507979 
L 955.33655 432.949044 
L 961.672222 432.396039 
L 997.310373 429.40106 
L 1033.344505 426.519318 
L 1069.774616 423.737429 
L 1081.654 422.858194 
L 1093.533384 421.990101 
L 1099.869055 421.52923 
L 1106.204726 421.071689 
" clip-path="url(#p508d0b4103)" style="fill: none; stroke: #000000; stroke-width: 4; stroke-linecap: round"/>
   </g>
   <g id="line2d_15">
    <path d="M 46.563677 56.072795 
L 47.751615 56.072795 
L 51.31543 56.072795 
L 62.006876 56.072795 
L 73.88626 56.072795 
L 85.765644 56.072795 
L 93.685233 56.072795 
L 129.323385 136.352217 
L 135.461067 144.042419 
L 141.598748 151.469897 
L 165.357516 196.347187 
L 189.512264 228.276084 
L 201.787627 258.50466 
L 237.425779 317.115373 
L 238.217738 320.58564 
L 274.251869 395.734671 
L 285.339294 417.920175 
L 310.286001 435.959864 
L 333.25281 447.089464 
L 346.716112 450.494262 
L 383.146222 454.1522 
L 418.784374 448.706677 
L 454.818506 441.744773 
L 491.248616 433.569492 
L 527.678727 425.536512 
L 563.316879 420.278067 
L 599.351011 417.421019 
L 635.781121 405.980951 
L 672.211232 394.852454 
L 707.849384 390.929673 
L 719.728768 389.858682 
L 731.608152 388.887591 
L 737.745834 388.067027 
L 743.883515 386.951854 
L 780.313626 380.758783 
L 816.743737 374.847346 
L 828.623121 372.995056 
L 852.777869 369.3188 
L 864.657252 367.568021 
L 888.812 364.346314 
L 900.691384 362.923811 
L 925.242111 360.03106 
L 937.121495 357.563007 
L 949.000879 355.762363 
L 955.33655 354.909828 
L 961.672222 354.061787 
L 997.310373 349.033076 
L 1033.344505 342.191848 
L 1069.774616 338.056039 
L 1081.654 337.038475 
L 1093.533384 335.798301 
L 1099.869055 334.535483 
L 1106.204726 333.27097 
" clip-path="url(#p508d0b4103)" style="fill: none; stroke-dasharray: 7.4,3.2; stroke-dashoffset: 0; stroke: #000000; stroke-width: 2"/>
   </g>
   <g id="line2d_16">
    <path d="M 46.563677 58.790935 
L 47.751615 58.790935 
L 51.31543 58.790935 
L 62.006876 58.790935 
L 73.88626 58.790935 
L 85.765644 58.790935 
L 93.685233 58.790935 
L 129.323385 154.592213 
L 135.461067 163.382493 
L 141.598748 171.421069 
L 165.357516 219.706125 
L 189.512264 257.114721 
L 201.787627 290.160827 
L 237.425779 356.732691 
L 238.217738 361.101372 
L 274.251869 467.498663 
L 285.339294 493.997641 
L 310.286001 526.69605 
L 333.25281 542.853682 
L 346.716112 544.449186 
L 383.146222 548.803705 
L 418.784374 545.65052 
L 454.818506 540.427184 
L 491.248616 534.195358 
L 527.678727 529.177247 
L 563.316879 527.174175 
L 599.351011 525.244968 
L 635.781121 521.936846 
L 672.211232 520.510018 
L 707.849384 518.46217 
L 719.728768 517.601493 
L 731.608152 516.675348 
L 737.745834 516.178736 
L 743.883515 515.666858 
L 780.313626 512.34856 
L 816.743737 508.649577 
L 828.623121 507.945194 
L 852.777869 509.485236 
L 864.657252 510.250169 
L 888.812 511.81633 
L 900.691384 512.590506 
L 925.242111 514.173798 
L 937.121495 514.909388 
L 949.000879 515.628018 
L 955.33655 516.006838 
L 961.672222 516.381078 
L 997.310373 518.404842 
L 1033.344505 520.350841 
L 1069.774616 522.232897 
L 1081.654 522.831275 
L 1093.533384 523.424225 
L 1099.869055 523.354855 
L 1106.204726 522.870285 
" clip-path="url(#p508d0b4103)" style="fill: none; stroke-dasharray: 2,3.3; stroke-dashoffset: 0; stroke: #000000; stroke-width: 2"/>
   </g>
   <g id="line2d_17">
    <path d="M 46.563677 57.505935 
L 47.751615 57.505935 
L 51.31543 57.505935 
L 62.006876 57.505935 
L 73.88626 57.505935 
L 85.765644 57.505935 
L 93.685233 57.505935 
L 129.323385 145.968705 
L 135.461067 154.247875 
L 141.598748 161.862579 
L 165.357516 226.417816 
L 189.512264 270.600481 
L 201.787627 275.771413 
L 237.425779 293.603319 
L 238.217738 295.847754 
L 274.251869 335.665169 
L 285.339294 344.837384 
L 310.286001 382.226551 
L 333.25281 409.545141 
L 346.716112 416.79285 
L 383.146222 426.142596 
L 418.784374 428.78064 
L 454.818506 428.785053 
L 491.248616 427.400192 
L 527.678727 425.292774 
L 563.316879 422.807359 
L 599.351011 420.047807 
L 635.781121 417.159689 
L 672.211232 414.28013 
L 707.849384 411.526671 
L 719.728768 410.62445 
L 731.608152 409.733088 
L 737.745834 409.272708 
L 743.883515 408.815645 
L 780.313626 406.188551 
L 816.743737 403.695842 
L 828.623121 402.906102 
L 852.777869 401.319063 
L 864.657252 400.554712 
L 888.812 399.023191 
L 900.691384 398.288272 
L 925.242111 396.800082 
L 937.121495 396.101411 
L 949.000879 395.414333 
L 955.33655 395.049276 
L 961.672222 394.68777 
L 997.310373 392.726802 
L 1033.344505 390.825844 
L 1069.774616 388.983059 
L 1081.654 388.402449 
L 1093.533384 387.830612 
L 1099.869055 387.526903 
L 1106.204726 387.225868 
" clip-path="url(#p508d0b4103)" style="fill: none; stroke: #808080; stroke-width: 4; stroke-linecap: round"/>
   </g>
   <g id="line2d_18">
    <path d="M 46.563677 56.072795 
L 47.751615 56.072795 
L 51.31543 56.072795 
L 62.006876 56.072795 
L 73.88626 56.072795 
L 85.765644 56.072795 
L 93.685233 56.072795 
L 129.323385 136.352217 
L 135.461067 144.042419 
L 141.598748 151.469897 
L 165.357516 212.559518 
L 189.512264 253.442706 
L 201.787627 256.551623 
L 237.425779 274.17204 
L 238.217738 276.360833 
L 274.251869 313.291897 
L 285.339294 320.439353 
L 310.286001 354.155496 
L 333.25281 376.574381 
L 346.716112 381.999805 
L 383.146222 390.706808 
L 418.784374 392.321646 
L 454.818506 391.039579 
L 491.248616 388.660995 
L 527.678727 382.341142 
L 563.316879 375.520521 
L 599.351011 367.521887 
L 635.781121 359.428612 
L 672.211232 353.217817 
L 707.849384 345.579092 
L 719.728768 343.916508 
L 731.608152 342.478655 
L 737.745834 341.72585 
L 743.883515 340.965073 
L 780.313626 336.337061 
L 816.743737 330.51204 
L 828.623121 328.134812 
L 852.777869 324.843821 
L 864.657252 323.865098 
L 888.812 321.891792 
L 900.691384 320.580891 
L 925.242111 317.478843 
L 937.121495 316.040906 
L 949.000879 314.646303 
L 955.33655 313.912663 
L 961.672222 313.190132 
L 997.310373 309.410755 
L 1033.344505 305.770795 
L 1069.774616 301.086304 
L 1081.654 299.38683 
L 1093.533384 297.70754 
L 1099.869055 296.816419 
L 1106.204726 295.931743 
" clip-path="url(#p508d0b4103)" style="fill: none; stroke-dasharray: 7.4,3.2; stroke-dashoffset: 0; stroke: #808080; stroke-width: 2"/>
   </g>
   <g id="line2d_19">
    <path d="M 46.563677 58.790935 
L 47.751615 58.790935 
L 51.31543 58.790935 
L 62.006876 58.790935 
L 73.88626 58.790935 
L 85.765644 58.790935 
L 93.685233 58.790935 
L 129.323385 154.592213 
L 135.461067 163.382493 
L 141.598748 171.421069 
L 165.357516 242.072517 
L 189.512264 290.113846 
L 201.787627 300.803906 
L 237.425779 322.225411 
L 238.217738 324.787851 
L 274.251869 363.42407 
L 285.339294 374.735999 
L 310.286001 416.616058 
L 333.25281 444.753451 
L 346.716112 454.549337 
L 383.146222 469.577295 
L 418.784374 472.441976 
L 454.818506 471.900248 
L 491.248616 471.581893 
L 527.678727 473.177566 
L 563.316879 470.971558 
L 599.351011 465.717692 
L 635.781121 464.753046 
L 672.211232 465.728123 
L 707.849384 462.551024 
L 719.728768 462.331297 
L 731.608152 462.579603 
L 737.745834 462.704604 
L 743.883515 462.827146 
L 780.313626 463.920949 
L 816.743737 464.158146 
L 828.623121 464.52857 
L 852.777869 466.377977 
L 864.657252 467.272744 
L 888.812 469.072795 
L 900.691384 469.946192 
L 925.242111 471.736067 
L 937.121495 472.593775 
L 949.000879 473.448515 
L 955.33655 473.903489 
L 961.672222 474.35753 
L 997.310373 476.896818 
L 1033.344505 479.444416 
L 1069.774616 482.000072 
L 1081.654 482.831236 
L 1093.533384 483.660111 
L 1099.869055 484.101855 
L 1106.204726 484.542921 
" clip-path="url(#p508d0b4103)" style="fill: none; stroke-dasharray: 2,3.3; stroke-dashoffset: 0; stroke: #808080; stroke-width: 2"/>
   </g>
   <g id="patch_3">
    <path d="M 88.5375 573.44025 
L 88.5375 31.43625 
" style="fill: none; stroke: #ffffff; stroke-linejoin: miter; stroke-linecap: square"/>
   </g>
   <g id="patch_4">
    <path d="M 1112.540398 573.44025 
L 1112.540398 31.43625 
" style="fill: none; stroke: #ffffff; stroke-linejoin: miter; stroke-linecap: square"/>
   </g>
   <g id="patch_5">
    <path d="M 88.5375 573.44025 
L 1112.540398 573.44025 
" style="fill: none; stroke: #ffffff; stroke-linejoin: miter; stroke-linecap: square"/>
   </g>
   <g id="patch_6">
    <path d="M 88.5375 31.43625 
L 1112.540398 31.43625 
" style="fill: none; stroke: #ffffff; stroke-linejoin: miter; stroke-linecap: square"/>
   </g>
   <g id="text_16">
    <!-- FPR -->
    <g style="fill: #262626" transform="translate(574.305824 25.43625) scale(0.24 -0.24)">
     <use xlink:href="#DejaVuSans-Bold-46"/>
     <use xlink:href="#DejaVuSans-Bold-50" transform="translate(68.310547 0)"/>
     <use xlink:href="#DejaVuSans-Bold-52" transform="translate(141.601562 0)"/>
    </g>
   </g>
   <g id="legend_1">
    <g id="patch_7">
     <path d="M 869.97321 210.495625 
L 1097.140398 210.495625 
Q 1101.540398 210.495625 1101.540398 206.095625 
L 1101.540398 46.83625 
Q 1101.540398 42.43625 1097.140398 42.43625 
L 869.97321 42.43625 
Q 865.57321 42.43625 865.57321 46.83625 
L 865.57321 206.095625 
Q 865.57321 210.495625 869.97321 210.495625 
z
" style="fill: #eaeaf2; opacity: 0.8; stroke: #cccccc; stroke-width: 0.8; stroke-linejoin: miter"/>
    </g>
    <g id="line2d_20">
     <path d="M 874.37321 60.252813 
L 896.37321 60.252813 
L 918.37321 60.252813 
" style="fill: none; stroke: #000000; stroke-width: 4; stroke-linecap: round"/>
    </g>
    <g id="text_17">
     <!-- Mean -->
     <g style="fill: #262626" transform="translate(935.97321 67.952813) scale(0.22 -0.22)">
      <defs>
       <path id="DejaVuSans-4d" d="M 628 4666 
L 1569 4666 
L 2759 1491 
L 3956 4666 
L 4897 4666 
L 4897 0 
L 4281 0 
L 4281 4097 
L 3078 897 
L 2444 897 
L 1241 4097 
L 1241 0 
L 628 0 
L 628 4666 
z
" transform="scale(0.015625)"/>
       <path id="DejaVuSans-65" d="M 3597 1894 
L 3597 1613 
L 953 1613 
Q 991 1019 1311 708 
Q 1631 397 2203 397 
Q 2534 397 2845 478 
Q 3156 559 3463 722 
L 3463 178 
Q 3153 47 2828 -22 
Q 2503 -91 2169 -91 
Q 1331 -91 842 396 
Q 353 884 353 1716 
Q 353 2575 817 3079 
Q 1281 3584 2069 3584 
Q 2775 3584 3186 3129 
Q 3597 2675 3597 1894 
z
M 3022 2063 
Q 3016 2534 2758 2815 
Q 2500 3097 2075 3097 
Q 1594 3097 1305 2825 
Q 1016 2553 972 2059 
L 3022 2063 
z
" transform="scale(0.015625)"/>
       <path id="DejaVuSans-61" d="M 2194 1759 
Q 1497 1759 1228 1600 
Q 959 1441 959 1056 
Q 959 750 1161 570 
Q 1363 391 1709 391 
Q 2188 391 2477 730 
Q 2766 1069 2766 1631 
L 2766 1759 
L 2194 1759 
z
M 3341 1997 
L 3341 0 
L 2766 0 
L 2766 531 
Q 2569 213 2275 61 
Q 1981 -91 1556 -91 
Q 1019 -91 701 211 
Q 384 513 384 1019 
Q 384 1609 779 1909 
Q 1175 2209 1959 2209 
L 2766 2209 
L 2766 2266 
Q 2766 2663 2505 2880 
Q 2244 3097 1772 3097 
Q 1472 3097 1187 3025 
Q 903 2953 641 2809 
L 641 3341 
Q 956 3463 1253 3523 
Q 1550 3584 1831 3584 
Q 2591 3584 2966 3190 
Q 3341 2797 3341 1997 
z
" transform="scale(0.015625)"/>
       <path id="DejaVuSans-6e" d="M 3513 2113 
L 3513 0 
L 2938 0 
L 2938 2094 
Q 2938 2591 2744 2837 
Q 2550 3084 2163 3084 
Q 1697 3084 1428 2787 
Q 1159 2491 1159 1978 
L 1159 0 
L 581 0 
L 581 3500 
L 1159 3500 
L 1159 2956 
Q 1366 3272 1645 3428 
Q 1925 3584 2291 3584 
Q 2894 3584 3203 3211 
Q 3513 2838 3513 2113 
z
" transform="scale(0.015625)"/>
      </defs>
      <use xlink:href="#DejaVuSans-4d"/>
      <use xlink:href="#DejaVuSans-65" transform="translate(86.279297 0)"/>
      <use xlink:href="#DejaVuSans-61" transform="translate(147.802734 0)"/>
      <use xlink:href="#DejaVuSans-6e" transform="translate(209.082031 0)"/>
     </g>
    </g>
    <g id="line2d_21">
     <path d="M 874.37321 92.544688 
L 896.37321 92.544688 
L 918.37321 92.544688 
" style="fill: none; stroke-dasharray: 7.4,3.2; stroke-dashoffset: 0; stroke: #000000; stroke-width: 2"/>
    </g>
    <g id="text_18">
     <!-- P10 Percentile -->
     <g style="fill: #262626" transform="translate(935.97321 100.244688) scale(0.22 -0.22)">
      <defs>
       <path id="DejaVuSans-50" d="M 1259 4147 
L 1259 2394 
L 2053 2394 
Q 2494 2394 2734 2622 
Q 2975 2850 2975 3272 
Q 2975 3691 2734 3919 
Q 2494 4147 2053 4147 
L 1259 4147 
z
M 628 4666 
L 2053 4666 
Q 2838 4666 3239 4311 
Q 3641 3956 3641 3272 
Q 3641 2581 3239 2228 
Q 2838 1875 2053 1875 
L 1259 1875 
L 1259 0 
L 628 0 
L 628 4666 
z
" transform="scale(0.015625)"/>
       <path id="DejaVuSans-31" d="M 794 531 
L 1825 531 
L 1825 4091 
L 703 3866 
L 703 4441 
L 1819 4666 
L 2450 4666 
L 2450 531 
L 3481 531 
L 3481 0 
L 794 0 
L 794 531 
z
" transform="scale(0.015625)"/>
       <path id="DejaVuSans-20" transform="scale(0.015625)"/>
       <path id="DejaVuSans-72" d="M 2631 2963 
Q 2534 3019 2420 3045 
Q 2306 3072 2169 3072 
Q 1681 3072 1420 2755 
Q 1159 2438 1159 1844 
L 1159 0 
L 581 0 
L 581 3500 
L 1159 3500 
L 1159 2956 
Q 1341 3275 1631 3429 
Q 1922 3584 2338 3584 
Q 2397 3584 2469 3576 
Q 2541 3569 2628 3553 
L 2631 2963 
z
" transform="scale(0.015625)"/>
       <path id="DejaVuSans-63" d="M 3122 3366 
L 3122 2828 
Q 2878 2963 2633 3030 
Q 2388 3097 2138 3097 
Q 1578 3097 1268 2742 
Q 959 2388 959 1747 
Q 959 1106 1268 751 
Q 1578 397 2138 397 
Q 2388 397 2633 464 
Q 2878 531 3122 666 
L 3122 134 
Q 2881 22 2623 -34 
Q 2366 -91 2075 -91 
Q 1284 -91 818 406 
Q 353 903 353 1747 
Q 353 2603 823 3093 
Q 1294 3584 2113 3584 
Q 2378 3584 2631 3529 
Q 2884 3475 3122 3366 
z
" transform="scale(0.015625)"/>
       <path id="DejaVuSans-74" d="M 1172 4494 
L 1172 3500 
L 2356 3500 
L 2356 3053 
L 1172 3053 
L 1172 1153 
Q 1172 725 1289 603 
Q 1406 481 1766 481 
L 2356 481 
L 2356 0 
L 1766 0 
Q 1100 0 847 248 
Q 594 497 594 1153 
L 594 3053 
L 172 3053 
L 172 3500 
L 594 3500 
L 594 4494 
L 1172 4494 
z
" transform="scale(0.015625)"/>
       <path id="DejaVuSans-69" d="M 603 3500 
L 1178 3500 
L 1178 0 
L 603 0 
L 603 3500 
z
M 603 4863 
L 1178 4863 
L 1178 4134 
L 603 4134 
L 603 4863 
z
" transform="scale(0.015625)"/>
       <path id="DejaVuSans-6c" d="M 603 4863 
L 1178 4863 
L 1178 0 
L 603 0 
L 603 4863 
z
" transform="scale(0.015625)"/>
      </defs>
      <use xlink:href="#DejaVuSans-50"/>
      <use xlink:href="#DejaVuSans-31" transform="translate(60.302734 0)"/>
      <use xlink:href="#DejaVuSans-30" transform="translate(123.925781 0)"/>
      <use xlink:href="#DejaVuSans-20" transform="translate(187.548828 0)"/>
      <use xlink:href="#DejaVuSans-50" transform="translate(219.335938 0)"/>
      <use xlink:href="#DejaVuSans-65" transform="translate(276.013672 0)"/>
      <use xlink:href="#DejaVuSans-72" transform="translate(337.537109 0)"/>
      <use xlink:href="#DejaVuSans-63" transform="translate(376.400391 0)"/>
      <use xlink:href="#DejaVuSans-65" transform="translate(431.380859 0)"/>
      <use xlink:href="#DejaVuSans-6e" transform="translate(492.904297 0)"/>
      <use xlink:href="#DejaVuSans-74" transform="translate(556.283203 0)"/>
      <use xlink:href="#DejaVuSans-69" transform="translate(595.492188 0)"/>
      <use xlink:href="#DejaVuSans-6c" transform="translate(623.275391 0)"/>
      <use xlink:href="#DejaVuSans-65" transform="translate(651.058594 0)"/>
     </g>
    </g>
    <g id="line2d_22">
     <path d="M 874.37321 124.836563 
L 896.37321 124.836563 
L 918.37321 124.836563 
" style="fill: none; stroke-dasharray: 2,3.3; stroke-dashoffset: 0; stroke: #000000; stroke-width: 2"/>
    </g>
    <g id="text_19">
     <!-- P90 Percentile -->
     <g style="fill: #262626" transform="translate(935.97321 132.536563) scale(0.22 -0.22)">
      <use xlink:href="#DejaVuSans-50"/>
      <use xlink:href="#DejaVuSans-39" transform="translate(60.302734 0)"/>
      <use xlink:href="#DejaVuSans-30" transform="translate(123.925781 0)"/>
      <use xlink:href="#DejaVuSans-20" transform="translate(187.548828 0)"/>
      <use xlink:href="#DejaVuSans-50" transform="translate(219.335938 0)"/>
      <use xlink:href="#DejaVuSans-65" transform="translate(276.013672 0)"/>
      <use xlink:href="#DejaVuSans-72" transform="translate(337.537109 0)"/>
      <use xlink:href="#DejaVuSans-63" transform="translate(376.400391 0)"/>
      <use xlink:href="#DejaVuSans-65" transform="translate(431.380859 0)"/>
      <use xlink:href="#DejaVuSans-6e" transform="translate(492.904297 0)"/>
      <use xlink:href="#DejaVuSans-74" transform="translate(556.283203 0)"/>
      <use xlink:href="#DejaVuSans-69" transform="translate(595.492188 0)"/>
      <use xlink:href="#DejaVuSans-6c" transform="translate(623.275391 0)"/>
      <use xlink:href="#DejaVuSans-65" transform="translate(651.058594 0)"/>
     </g>
    </g>
    <g id="patch_8">
     <path d="M 874.37321 164.828438 
L 918.37321 164.828438 
L 918.37321 149.428438 
L 874.37321 149.428438 
z
" style="fill: #58508d; fill-opacity: 0.7; stroke: #58508d; stroke-opacity: 0.7; stroke-width: 0.8; stroke-linejoin: miter"/>
    </g>
    <g id="text_20">
     <!-- Batch 0 -->
     <g style="fill: #262626" transform="translate(935.97321 164.828438) scale(0.22 -0.22)">
      <defs>
       <path id="DejaVuSans-42" d="M 1259 2228 
L 1259 519 
L 2272 519 
Q 2781 519 3026 730 
Q 3272 941 3272 1375 
Q 3272 1813 3026 2020 
Q 2781 2228 2272 2228 
L 1259 2228 
z
M 1259 4147 
L 1259 2741 
L 2194 2741 
Q 2656 2741 2882 2914 
Q 3109 3088 3109 3444 
Q 3109 3797 2882 3972 
Q 2656 4147 2194 4147 
L 1259 4147 
z
M 628 4666 
L 2241 4666 
Q 2963 4666 3353 4366 
Q 3744 4066 3744 3513 
Q 3744 3084 3544 2831 
Q 3344 2578 2956 2516 
Q 3422 2416 3680 2098 
Q 3938 1781 3938 1306 
Q 3938 681 3513 340 
Q 3088 0 2303 0 
L 628 0 
L 628 4666 
z
" transform="scale(0.015625)"/>
       <path id="DejaVuSans-68" d="M 3513 2113 
L 3513 0 
L 2938 0 
L 2938 2094 
Q 2938 2591 2744 2837 
Q 2550 3084 2163 3084 
Q 1697 3084 1428 2787 
Q 1159 2491 1159 1978 
L 1159 0 
L 581 0 
L 581 4863 
L 1159 4863 
L 1159 2956 
Q 1366 3272 1645 3428 
Q 1925 3584 2291 3584 
Q 2894 3584 3203 3211 
Q 3513 2838 3513 2113 
z
" transform="scale(0.015625)"/>
      </defs>
      <use xlink:href="#DejaVuSans-42"/>
      <use xlink:href="#DejaVuSans-61" transform="translate(68.603516 0)"/>
      <use xlink:href="#DejaVuSans-74" transform="translate(129.882812 0)"/>
      <use xlink:href="#DejaVuSans-63" transform="translate(169.091797 0)"/>
      <use xlink:href="#DejaVuSans-68" transform="translate(224.072266 0)"/>
      <use xlink:href="#DejaVuSans-20" transform="translate(287.451172 0)"/>
      <use xlink:href="#DejaVuSans-30" transform="translate(319.238281 0)"/>
     </g>
    </g>
    <g id="patch_9">
     <path d="M 874.37321 197.120313 
L 918.37321 197.120313 
L 918.37321 181.720313 
L 874.37321 181.720313 
z
" style="fill: #ffa600; fill-opacity: 0.7; stroke: #ffa600; stroke-opacity: 0.7; stroke-width: 0.8; stroke-linejoin: miter"/>
    </g>
    <g id="text_21">
     <!-- Batch 5 -->
     <g style="fill: #262626" transform="translate(935.97321 197.120313) scale(0.22 -0.22)">
      <use xlink:href="#DejaVuSans-42"/>
      <use xlink:href="#DejaVuSans-61" transform="translate(68.603516 0)"/>
      <use xlink:href="#DejaVuSans-74" transform="translate(129.882812 0)"/>
      <use xlink:href="#DejaVuSans-63" transform="translate(169.091797 0)"/>
      <use xlink:href="#DejaVuSans-68" transform="translate(224.072266 0)"/>
      <use xlink:href="#DejaVuSans-20" transform="translate(287.451172 0)"/>
      <use xlink:href="#DejaVuSans-35" transform="translate(319.238281 0)"/>
     </g>
    </g>
   </g>
  </g>
 </g>
 <defs>
  <clipPath id="p508d0b4103">
   <rect x="88.5375" y="31.43625" width="1024.002898" height="542.004"/>
  </clipPath>
 </defs>
</svg>
