<?xml version="1.0" encoding="utf-8" standalone="no"?>
<!DOCTYPE svg PUBLIC "-//W3C//DTD SVG 1.1//EN"
  "http://www.w3.org/Graphics/SVG/1.1/DTD/svg11.dtd">
<svg xmlns:xlink="http://www.w3.org/1999/xlink" width="1144.092395pt" height="641.330875pt" viewBox="0 0 1144.092395 641.330875" xmlns="http://www.w3.org/2000/svg" version="1.1">
 <metadata>
  <rdf:RDF xmlns:dc="http://purl.org/dc/elements/1.1/" xmlns:cc="http://creativecommons.org/ns#" xmlns:rdf="http://www.w3.org/1999/02/22-rdf-syntax-ns#">
   <cc:Work>
    <dc:type rdf:resource="http://purl.org/dc/dcmitype/StillImage"/>
    <dc:date>2025-07-08T08:17:40.399971</dc:date>
    <dc:format>image/svg+xml</dc:format>
    <dc:creator>
     <cc:Agent>
      <dc:title>Matplotlib v3.10.3, https://matplotlib.org/</dc:title>
     </cc:Agent>
    </dc:creator>
   </cc:Work>
  </rdf:RDF>
 </metadata>
 <defs>
  <style type="text/css">*{stroke-linejoin: round; stroke-linecap: butt}</style>
 </defs>
 <g id="figure_1">
  <g id="patch_1">
   <path d="M 0 641.330875 
L 1144.092395 641.330875 
L 1144.092395 0 
L 0 0 
z
" style="fill: #ffffff"/>
  </g>
  <g id="axes_1">
   <g id="patch_2">
    <path d="M 81.0825 573.44025 
L 1112.735398 573.44025 
L 1112.735398 31.43625 
L 81.0825 31.43625 
z
" style="fill: #eaeaf2"/>
   </g>
   <g id="matplotlib.axis_1">
    <g id="xtick_1">
     <g id="line2d_1">
      <path d="M 86.26869 573.44025 
L 86.26869 31.43625 
" clip-path="url(#pb21827e237)" style="fill: none; stroke: #ffffff; stroke-width: 0.8; stroke-linecap: round"/>
     </g>
     <g id="text_1">
      <!-- 2023 -->
      <g style="fill: #262626" transform="translate(55.72869 599.9765) scale(0.24 -0.24)">
       <defs>
        <path id="DejaVuSans-32" d="M 1228 531 
L 3431 531 
L 3431 0 
L 469 0 
L 469 531 
Q 828 903 1448 1529 
Q 2069 2156 2228 2338 
Q 2531 2678 2651 2914 
Q 2772 3150 2772 3378 
Q 2772 3750 2511 3984 
Q 2250 4219 1831 4219 
Q 1534 4219 1204 4116 
Q 875 4013 500 3803 
L 500 4441 
Q 881 4594 1212 4672 
Q 1544 4750 1819 4750 
Q 2544 4750 2975 4387 
Q 3406 4025 3406 3419 
Q 3406 3131 3298 2873 
Q 3191 2616 2906 2266 
Q 2828 2175 2409 1742 
Q 1991 1309 1228 531 
z
" transform="scale(0.015625)"/>
        <path id="DejaVuSans-30" d="M 2034 4250 
Q 1547 4250 1301 3770 
Q 1056 3291 1056 2328 
Q 1056 1369 1301 889 
Q 1547 409 2034 409 
Q 2525 409 2770 889 
Q 3016 1369 3016 2328 
Q 3016 3291 2770 3770 
Q 2525 4250 2034 4250 
z
M 2034 4750 
Q 2819 4750 3233 4129 
Q 3647 3509 3647 2328 
Q 3647 1150 3233 529 
Q 2819 -91 2034 -91 
Q 1250 -91 836 529 
Q 422 1150 422 2328 
Q 422 3509 836 4129 
Q 1250 4750 2034 4750 
z
" transform="scale(0.015625)"/>
        <path id="DejaVuSans-33" d="M 2597 2516 
Q 3050 2419 3304 2112 
Q 3559 1806 3559 1356 
Q 3559 666 3084 287 
Q 2609 -91 1734 -91 
Q 1441 -91 1130 -33 
Q 819 25 488 141 
L 488 750 
Q 750 597 1062 519 
Q 1375 441 1716 441 
Q 2309 441 2620 675 
Q 2931 909 2931 1356 
Q 2931 1769 2642 2001 
Q 2353 2234 1838 2234 
L 1294 2234 
L 1294 2753 
L 1863 2753 
Q 2328 2753 2575 2939 
Q 2822 3125 2822 3475 
Q 2822 3834 2567 4026 
Q 2313 4219 1838 4219 
Q 1578 4219 1281 4162 
Q 984 4106 628 3988 
L 628 4550 
Q 988 4650 1302 4700 
Q 1616 4750 1894 4750 
Q 2613 4750 3031 4423 
Q 3450 4097 3450 3541 
Q 3450 3153 3228 2886 
Q 3006 2619 2597 2516 
z
" transform="scale(0.015625)"/>
       </defs>
       <use xlink:href="#DejaVuSans-32"/>
       <use xlink:href="#DejaVuSans-30" transform="translate(63.623047 0)"/>
       <use xlink:href="#DejaVuSans-32" transform="translate(127.246094 0)"/>
       <use xlink:href="#DejaVuSans-33" transform="translate(190.869141 0)"/>
      </g>
     </g>
    </g>
    <g id="xtick_2">
     <g id="line2d_2">
      <path d="M 231.880951 573.44025 
L 231.880951 31.43625 
" clip-path="url(#pb21827e237)" style="fill: none; stroke: #ffffff; stroke-width: 0.8; stroke-linecap: round"/>
     </g>
     <g id="text_2">
      <!-- 2024 -->
      <g style="fill: #262626" transform="translate(201.340951 599.9765) scale(0.24 -0.24)">
       <defs>
        <path id="DejaVuSans-34" d="M 2419 4116 
L 825 1625 
L 2419 1625 
L 2419 4116 
z
M 2253 4666 
L 3047 4666 
L 3047 1625 
L 3713 1625 
L 3713 1100 
L 3047 1100 
L 3047 0 
L 2419 0 
L 2419 1100 
L 313 1100 
L 313 1709 
L 2253 4666 
z
" transform="scale(0.015625)"/>
       </defs>
       <use xlink:href="#DejaVuSans-32"/>
       <use xlink:href="#DejaVuSans-30" transform="translate(63.623047 0)"/>
       <use xlink:href="#DejaVuSans-32" transform="translate(127.246094 0)"/>
       <use xlink:href="#DejaVuSans-34" transform="translate(190.869141 0)"/>
      </g>
     </g>
    </g>
    <g id="xtick_3">
     <g id="line2d_3">
      <path d="M 377.89215 573.44025 
L 377.89215 31.43625 
" clip-path="url(#pb21827e237)" style="fill: none; stroke: #ffffff; stroke-width: 0.8; stroke-linecap: round"/>
     </g>
     <g id="text_3">
      <!-- 2025 -->
      <g style="fill: #262626" transform="translate(347.35215 599.9765) scale(0.24 -0.24)">
       <defs>
        <path id="DejaVuSans-35" d="M 691 4666 
L 3169 4666 
L 3169 4134 
L 1269 4134 
L 1269 2991 
Q 1406 3038 1543 3061 
Q 1681 3084 1819 3084 
Q 2600 3084 3056 2656 
Q 3513 2228 3513 1497 
Q 3513 744 3044 326 
Q 2575 -91 1722 -91 
Q 1428 -91 1123 -41 
Q 819 9 494 109 
L 494 744 
Q 775 591 1075 516 
Q 1375 441 1709 441 
Q 2250 441 2565 725 
Q 2881 1009 2881 1497 
Q 2881 1984 2565 2268 
Q 2250 2553 1709 2553 
Q 1456 2553 1204 2497 
Q 953 2441 691 2322 
L 691 4666 
z
" transform="scale(0.015625)"/>
       </defs>
       <use xlink:href="#DejaVuSans-32"/>
       <use xlink:href="#DejaVuSans-30" transform="translate(63.623047 0)"/>
       <use xlink:href="#DejaVuSans-32" transform="translate(127.246094 0)"/>
       <use xlink:href="#DejaVuSans-35" transform="translate(190.869141 0)"/>
      </g>
     </g>
    </g>
    <g id="xtick_4">
     <g id="line2d_4">
      <path d="M 523.504412 573.44025 
L 523.504412 31.43625 
" clip-path="url(#pb21827e237)" style="fill: none; stroke: #ffffff; stroke-width: 0.8; stroke-linecap: round"/>
     </g>
     <g id="text_4">
      <!-- 2026 -->
      <g style="fill: #262626" transform="translate(492.964412 599.9765) scale(0.24 -0.24)">
       <defs>
        <path id="DejaVuSans-36" d="M 2113 2584 
Q 1688 2584 1439 2293 
Q 1191 2003 1191 1497 
Q 1191 994 1439 701 
Q 1688 409 2113 409 
Q 2538 409 2786 701 
Q 3034 994 3034 1497 
Q 3034 2003 2786 2293 
Q 2538 2584 2113 2584 
z
M 3366 4563 
L 3366 3988 
Q 3128 4100 2886 4159 
Q 2644 4219 2406 4219 
Q 1781 4219 1451 3797 
Q 1122 3375 1075 2522 
Q 1259 2794 1537 2939 
Q 1816 3084 2150 3084 
Q 2853 3084 3261 2657 
Q 3669 2231 3669 1497 
Q 3669 778 3244 343 
Q 2819 -91 2113 -91 
Q 1303 -91 875 529 
Q 447 1150 447 2328 
Q 447 3434 972 4092 
Q 1497 4750 2381 4750 
Q 2619 4750 2861 4703 
Q 3103 4656 3366 4563 
z
" transform="scale(0.015625)"/>
       </defs>
       <use xlink:href="#DejaVuSans-32"/>
       <use xlink:href="#DejaVuSans-30" transform="translate(63.623047 0)"/>
       <use xlink:href="#DejaVuSans-32" transform="translate(127.246094 0)"/>
       <use xlink:href="#DejaVuSans-36" transform="translate(190.869141 0)"/>
      </g>
     </g>
    </g>
    <g id="xtick_5">
     <g id="line2d_5">
      <path d="M 669.116673 573.44025 
L 669.116673 31.43625 
" clip-path="url(#pb21827e237)" style="fill: none; stroke: #ffffff; stroke-width: 0.8; stroke-linecap: round"/>
     </g>
     <g id="text_5">
      <!-- 2027 -->
      <g style="fill: #262626" transform="translate(638.576673 599.9765) scale(0.24 -0.24)">
       <defs>
        <path id="DejaVuSans-37" d="M 525 4666 
L 3525 4666 
L 3525 4397 
L 1831 0 
L 1172 0 
L 2766 4134 
L 525 4134 
L 525 4666 
z
" transform="scale(0.015625)"/>
       </defs>
       <use xlink:href="#DejaVuSans-32"/>
       <use xlink:href="#DejaVuSans-30" transform="translate(63.623047 0)"/>
       <use xlink:href="#DejaVuSans-32" transform="translate(127.246094 0)"/>
       <use xlink:href="#DejaVuSans-37" transform="translate(190.869141 0)"/>
      </g>
     </g>
    </g>
    <g id="xtick_6">
     <g id="line2d_6">
      <path d="M 814.728934 573.44025 
L 814.728934 31.43625 
" clip-path="url(#pb21827e237)" style="fill: none; stroke: #ffffff; stroke-width: 0.8; stroke-linecap: round"/>
     </g>
     <g id="text_6">
      <!-- 2028 -->
      <g style="fill: #262626" transform="translate(784.188934 599.9765) scale(0.24 -0.24)">
       <defs>
        <path id="DejaVuSans-38" d="M 2034 2216 
Q 1584 2216 1326 1975 
Q 1069 1734 1069 1313 
Q 1069 891 1326 650 
Q 1584 409 2034 409 
Q 2484 409 2743 651 
Q 3003 894 3003 1313 
Q 3003 1734 2745 1975 
Q 2488 2216 2034 2216 
z
M 1403 2484 
Q 997 2584 770 2862 
Q 544 3141 544 3541 
Q 544 4100 942 4425 
Q 1341 4750 2034 4750 
Q 2731 4750 3128 4425 
Q 3525 4100 3525 3541 
Q 3525 3141 3298 2862 
Q 3072 2584 2669 2484 
Q 3125 2378 3379 2068 
Q 3634 1759 3634 1313 
Q 3634 634 3220 271 
Q 2806 -91 2034 -91 
Q 1263 -91 848 271 
Q 434 634 434 1313 
Q 434 1759 690 2068 
Q 947 2378 1403 2484 
z
M 1172 3481 
Q 1172 3119 1398 2916 
Q 1625 2713 2034 2713 
Q 2441 2713 2670 2916 
Q 2900 3119 2900 3481 
Q 2900 3844 2670 4047 
Q 2441 4250 2034 4250 
Q 1625 4250 1398 4047 
Q 1172 3844 1172 3481 
z
" transform="scale(0.015625)"/>
       </defs>
       <use xlink:href="#DejaVuSans-32"/>
       <use xlink:href="#DejaVuSans-30" transform="translate(63.623047 0)"/>
       <use xlink:href="#DejaVuSans-32" transform="translate(127.246094 0)"/>
       <use xlink:href="#DejaVuSans-38" transform="translate(190.869141 0)"/>
      </g>
     </g>
    </g>
    <g id="xtick_7">
     <g id="line2d_7">
      <path d="M 960.740133 573.44025 
L 960.740133 31.43625 
" clip-path="url(#pb21827e237)" style="fill: none; stroke: #ffffff; stroke-width: 0.8; stroke-linecap: round"/>
     </g>
     <g id="text_7">
      <!-- 2029 -->
      <g style="fill: #262626" transform="translate(930.200133 599.9765) scale(0.24 -0.24)">
       <defs>
        <path id="DejaVuSans-39" d="M 703 97 
L 703 672 
Q 941 559 1184 500 
Q 1428 441 1663 441 
Q 2288 441 2617 861 
Q 2947 1281 2994 2138 
Q 2813 1869 2534 1725 
Q 2256 1581 1919 1581 
Q 1219 1581 811 2004 
Q 403 2428 403 3163 
Q 403 3881 828 4315 
Q 1253 4750 1959 4750 
Q 2769 4750 3195 4129 
Q 3622 3509 3622 2328 
Q 3622 1225 3098 567 
Q 2575 -91 1691 -91 
Q 1453 -91 1209 -44 
Q 966 3 703 97 
z
M 1959 2075 
Q 2384 2075 2632 2365 
Q 2881 2656 2881 3163 
Q 2881 3666 2632 3958 
Q 2384 4250 1959 4250 
Q 1534 4250 1286 3958 
Q 1038 3666 1038 3163 
Q 1038 2656 1286 2365 
Q 1534 2075 1959 2075 
z
" transform="scale(0.015625)"/>
       </defs>
       <use xlink:href="#DejaVuSans-32"/>
       <use xlink:href="#DejaVuSans-30" transform="translate(63.623047 0)"/>
       <use xlink:href="#DejaVuSans-32" transform="translate(127.246094 0)"/>
       <use xlink:href="#DejaVuSans-39" transform="translate(190.869141 0)"/>
      </g>
     </g>
    </g>
    <g id="xtick_8">
     <g id="line2d_8">
      <path d="M 1106.352395 573.44025 
L 1106.352395 31.43625 
" clip-path="url(#pb21827e237)" style="fill: none; stroke: #ffffff; stroke-width: 0.8; stroke-linecap: round"/>
     </g>
     <g id="text_8">
      <!-- 2030 -->
      <g style="fill: #262626" transform="translate(1075.812395 599.9765) scale(0.24 -0.24)">
       <use xlink:href="#DejaVuSans-32"/>
       <use xlink:href="#DejaVuSans-30" transform="translate(63.623047 0)"/>
       <use xlink:href="#DejaVuSans-33" transform="translate(127.246094 0)"/>
       <use xlink:href="#DejaVuSans-30" transform="translate(190.869141 0)"/>
      </g>
     </g>
    </g>
    <g id="text_9">
     <!-- Date -->
     <g style="fill: #262626" transform="translate(562.312699 628.723687) scale(0.26 -0.26)">
      <defs>
       <path id="DejaVuSans-Bold-44" d="M 1791 3756 
L 1791 909 
L 2222 909 
Q 2959 909 3348 1275 
Q 3738 1641 3738 2338 
Q 3738 3031 3350 3393 
Q 2963 3756 2222 3756 
L 1791 3756 
z
M 588 4666 
L 1856 4666 
Q 2919 4666 3439 4514 
Q 3959 4363 4331 4000 
Q 4659 3684 4818 3271 
Q 4978 2859 4978 2338 
Q 4978 1809 4818 1395 
Q 4659 981 4331 666 
Q 3956 303 3431 151 
Q 2906 0 1856 0 
L 588 0 
L 588 4666 
z
" transform="scale(0.015625)"/>
       <path id="DejaVuSans-Bold-61" d="M 2106 1575 
Q 1756 1575 1579 1456 
Q 1403 1338 1403 1106 
Q 1403 894 1545 773 
Q 1688 653 1941 653 
Q 2256 653 2472 879 
Q 2688 1106 2688 1447 
L 2688 1575 
L 2106 1575 
z
M 3816 1997 
L 3816 0 
L 2688 0 
L 2688 519 
Q 2463 200 2181 54 
Q 1900 -91 1497 -91 
Q 953 -91 614 226 
Q 275 544 275 1050 
Q 275 1666 698 1953 
Q 1122 2241 2028 2241 
L 2688 2241 
L 2688 2328 
Q 2688 2594 2478 2717 
Q 2269 2841 1825 2841 
Q 1466 2841 1156 2769 
Q 847 2697 581 2553 
L 581 3406 
Q 941 3494 1303 3539 
Q 1666 3584 2028 3584 
Q 2975 3584 3395 3211 
Q 3816 2838 3816 1997 
z
" transform="scale(0.015625)"/>
       <path id="DejaVuSans-Bold-74" d="M 1759 4494 
L 1759 3500 
L 2913 3500 
L 2913 2700 
L 1759 2700 
L 1759 1216 
Q 1759 972 1856 886 
Q 1953 800 2241 800 
L 2816 800 
L 2816 0 
L 1856 0 
Q 1194 0 917 276 
Q 641 553 641 1216 
L 641 2700 
L 84 2700 
L 84 3500 
L 641 3500 
L 641 4494 
L 1759 4494 
z
" transform="scale(0.015625)"/>
       <path id="DejaVuSans-Bold-65" d="M 4031 1759 
L 4031 1441 
L 1416 1441 
Q 1456 1047 1700 850 
Q 1944 653 2381 653 
Q 2734 653 3104 758 
Q 3475 863 3866 1075 
L 3866 213 
Q 3469 63 3072 -14 
Q 2675 -91 2278 -91 
Q 1328 -91 801 392 
Q 275 875 275 1747 
Q 275 2603 792 3093 
Q 1309 3584 2216 3584 
Q 3041 3584 3536 3087 
Q 4031 2591 4031 1759 
z
M 2881 2131 
Q 2881 2450 2695 2645 
Q 2509 2841 2209 2841 
Q 1884 2841 1681 2658 
Q 1478 2475 1428 2131 
L 2881 2131 
z
" transform="scale(0.015625)"/>
      </defs>
      <use xlink:href="#DejaVuSans-Bold-44"/>
      <use xlink:href="#DejaVuSans-Bold-61" transform="translate(83.007812 0)"/>
      <use xlink:href="#DejaVuSans-Bold-74" transform="translate(150.488281 0)"/>
      <use xlink:href="#DejaVuSans-Bold-65" transform="translate(198.291016 0)"/>
     </g>
    </g>
   </g>
   <g id="matplotlib.axis_2">
    <g id="ytick_1">
     <g id="line2d_9">
      <path d="M 81.0825 548.803705 
L 1112.735398 548.803705 
" clip-path="url(#pb21827e237)" style="fill: none; stroke: #ffffff; stroke-width: 0.8; stroke-linecap: round"/>
     </g>
     <g id="text_10">
      <!-- 0.0 -->
      <g style="fill: #262626" transform="translate(34.615 557.92183) scale(0.24 -0.24)">
       <defs>
        <path id="DejaVuSans-2e" d="M 684 794 
L 1344 794 
L 1344 0 
L 684 0 
L 684 794 
z
" transform="scale(0.015625)"/>
       </defs>
       <use xlink:href="#DejaVuSans-30"/>
       <use xlink:href="#DejaVuSans-2e" transform="translate(63.623047 0)"/>
       <use xlink:href="#DejaVuSans-30" transform="translate(95.410156 0)"/>
      </g>
     </g>
    </g>
    <g id="ytick_2">
     <g id="line2d_10">
      <path d="M 81.0825 446.280344 
L 1112.735398 446.280344 
" clip-path="url(#pb21827e237)" style="fill: none; stroke: #ffffff; stroke-width: 0.8; stroke-linecap: round"/>
     </g>
     <g id="text_11">
      <!-- 0.5 -->
      <g style="fill: #262626" transform="translate(34.615 455.398469) scale(0.24 -0.24)">
       <use xlink:href="#DejaVuSans-30"/>
       <use xlink:href="#DejaVuSans-2e" transform="translate(63.623047 0)"/>
       <use xlink:href="#DejaVuSans-35" transform="translate(95.410156 0)"/>
      </g>
     </g>
    </g>
    <g id="ytick_3">
     <g id="line2d_11">
      <path d="M 81.0825 343.756984 
L 1112.735398 343.756984 
" clip-path="url(#pb21827e237)" style="fill: none; stroke: #ffffff; stroke-width: 0.8; stroke-linecap: round"/>
     </g>
     <g id="text_12">
      <!-- 1.0 -->
      <g style="fill: #262626" transform="translate(34.615 352.875109) scale(0.24 -0.24)">
       <defs>
        <path id="DejaVuSans-31" d="M 794 531 
L 1825 531 
L 1825 4091 
L 703 3866 
L 703 4441 
L 1819 4666 
L 2450 4666 
L 2450 531 
L 3481 531 
L 3481 0 
L 794 0 
L 794 531 
z
" transform="scale(0.015625)"/>
       </defs>
       <use xlink:href="#DejaVuSans-31"/>
       <use xlink:href="#DejaVuSans-2e" transform="translate(63.623047 0)"/>
       <use xlink:href="#DejaVuSans-30" transform="translate(95.410156 0)"/>
      </g>
     </g>
    </g>
    <g id="ytick_4">
     <g id="line2d_12">
      <path d="M 81.0825 241.233624 
L 1112.735398 241.233624 
" clip-path="url(#pb21827e237)" style="fill: none; stroke: #ffffff; stroke-width: 0.8; stroke-linecap: round"/>
     </g>
     <g id="text_13">
      <!-- 1.5 -->
      <g style="fill: #262626" transform="translate(34.615 250.351749) scale(0.24 -0.24)">
       <use xlink:href="#DejaVuSans-31"/>
       <use xlink:href="#DejaVuSans-2e" transform="translate(63.623047 0)"/>
       <use xlink:href="#DejaVuSans-35" transform="translate(95.410156 0)"/>
      </g>
     </g>
    </g>
    <g id="ytick_5">
     <g id="line2d_13">
      <path d="M 81.0825 138.710263 
L 1112.735398 138.710263 
" clip-path="url(#pb21827e237)" style="fill: none; stroke: #ffffff; stroke-width: 0.8; stroke-linecap: round"/>
     </g>
     <g id="text_14">
      <!-- 2.0 -->
      <g style="fill: #262626" transform="translate(34.615 147.828388) scale(0.24 -0.24)">
       <use xlink:href="#DejaVuSans-32"/>
       <use xlink:href="#DejaVuSans-2e" transform="translate(63.623047 0)"/>
       <use xlink:href="#DejaVuSans-30" transform="translate(95.410156 0)"/>
      </g>
     </g>
    </g>
    <g id="ytick_6">
     <g id="line2d_14">
      <path d="M 81.0825 36.186903 
L 1112.735398 36.186903 
" clip-path="url(#pb21827e237)" style="fill: none; stroke: #ffffff; stroke-width: 0.8; stroke-linecap: round"/>
     </g>
     <g id="text_15">
      <!-- 2.5 -->
      <g style="fill: #262626" transform="translate(34.615 45.305028) scale(0.24 -0.24)">
       <use xlink:href="#DejaVuSans-32"/>
       <use xlink:href="#DejaVuSans-2e" transform="translate(63.623047 0)"/>
       <use xlink:href="#DejaVuSans-35" transform="translate(95.410156 0)"/>
      </g>
     </g>
    </g>
    <g id="text_16">
     <!-- FGPR [Sm³/day] -->
     <g style="fill: #262626" transform="translate(25.43625 408.587625) rotate(-90) scale(0.24 -0.24)">
      <defs>
       <path id="DejaVuSans-Bold-46" d="M 588 4666 
L 3834 4666 
L 3834 3756 
L 1791 3756 
L 1791 2888 
L 3713 2888 
L 3713 1978 
L 1791 1978 
L 1791 0 
L 588 0 
L 588 4666 
z
" transform="scale(0.015625)"/>
       <path id="DejaVuSans-Bold-47" d="M 4781 347 
Q 4331 128 3847 18 
Q 3363 -91 2847 -91 
Q 1681 -91 1000 561 
Q 319 1213 319 2328 
Q 319 3456 1012 4103 
Q 1706 4750 2913 4750 
Q 3378 4750 3804 4662 
Q 4231 4575 4609 4403 
L 4609 3438 
Q 4219 3659 3833 3768 
Q 3447 3878 3059 3878 
Q 2341 3878 1952 3476 
Q 1563 3075 1563 2328 
Q 1563 1588 1938 1184 
Q 2313 781 3003 781 
Q 3191 781 3352 804 
Q 3513 828 3641 878 
L 3641 1784 
L 2906 1784 
L 2906 2591 
L 4781 2591 
L 4781 347 
z
" transform="scale(0.015625)"/>
       <path id="DejaVuSans-Bold-50" d="M 588 4666 
L 2584 4666 
Q 3475 4666 3951 4270 
Q 4428 3875 4428 3144 
Q 4428 2409 3951 2014 
Q 3475 1619 2584 1619 
L 1791 1619 
L 1791 0 
L 588 0 
L 588 4666 
z
M 1791 3794 
L 1791 2491 
L 2456 2491 
Q 2806 2491 2997 2661 
Q 3188 2831 3188 3144 
Q 3188 3456 2997 3625 
Q 2806 3794 2456 3794 
L 1791 3794 
z
" transform="scale(0.015625)"/>
       <path id="DejaVuSans-Bold-52" d="M 2297 2597 
Q 2675 2597 2839 2737 
Q 3003 2878 3003 3200 
Q 3003 3519 2839 3656 
Q 2675 3794 2297 3794 
L 1791 3794 
L 1791 2597 
L 2297 2597 
z
M 1791 1766 
L 1791 0 
L 588 0 
L 588 4666 
L 2425 4666 
Q 3347 4666 3776 4356 
Q 4206 4047 4206 3378 
Q 4206 2916 3982 2619 
Q 3759 2322 3309 2181 
Q 3556 2125 3751 1926 
Q 3947 1728 4147 1325 
L 4800 0 
L 3519 0 
L 2950 1159 
Q 2778 1509 2601 1637 
Q 2425 1766 2131 1766 
L 1791 1766 
z
" transform="scale(0.015625)"/>
       <path id="DejaVuSans-Bold-20" transform="scale(0.015625)"/>
       <path id="DejaVuSans-Bold-5b" d="M 550 4863 
L 2491 4863 
L 2491 4159 
L 1613 4159 
L 1613 -141 
L 2491 -141 
L 2491 -844 
L 550 -844 
L 550 4863 
z
" transform="scale(0.015625)"/>
       <path id="DejaVuSans-Bold-53" d="M 3834 4519 
L 3834 3531 
Q 3450 3703 3084 3790 
Q 2719 3878 2394 3878 
Q 1963 3878 1756 3759 
Q 1550 3641 1550 3391 
Q 1550 3203 1689 3098 
Q 1828 2994 2194 2919 
L 2706 2816 
Q 3484 2659 3812 2340 
Q 4141 2022 4141 1434 
Q 4141 663 3683 286 
Q 3225 -91 2284 -91 
Q 1841 -91 1394 -6 
Q 947 78 500 244 
L 500 1259 
Q 947 1022 1364 901 
Q 1781 781 2169 781 
Q 2563 781 2772 912 
Q 2981 1044 2981 1288 
Q 2981 1506 2839 1625 
Q 2697 1744 2272 1838 
L 1806 1941 
Q 1106 2091 782 2419 
Q 459 2747 459 3303 
Q 459 4000 909 4375 
Q 1359 4750 2203 4750 
Q 2588 4750 2994 4692 
Q 3400 4634 3834 4519 
z
" transform="scale(0.015625)"/>
       <path id="DejaVuSans-Bold-6d" d="M 3781 2919 
Q 3994 3244 4286 3414 
Q 4578 3584 4928 3584 
Q 5531 3584 5847 3212 
Q 6163 2841 6163 2131 
L 6163 0 
L 5038 0 
L 5038 1825 
Q 5041 1866 5042 1909 
Q 5044 1953 5044 2034 
Q 5044 2406 4934 2573 
Q 4825 2741 4581 2741 
Q 4263 2741 4089 2478 
Q 3916 2216 3909 1719 
L 3909 0 
L 2784 0 
L 2784 1825 
Q 2784 2406 2684 2573 
Q 2584 2741 2328 2741 
Q 2006 2741 1831 2477 
Q 1656 2213 1656 1722 
L 1656 0 
L 531 0 
L 531 3500 
L 1656 3500 
L 1656 2988 
Q 1863 3284 2130 3434 
Q 2397 3584 2719 3584 
Q 3081 3584 3359 3409 
Q 3638 3234 3781 2919 
z
" transform="scale(0.015625)"/>
       <path id="DejaVuSans-Bold-b3" d="M 1850 3500 
Q 2138 3444 2297 3272 
Q 2456 3100 2456 2847 
Q 2456 2444 2147 2242 
Q 1838 2041 1209 2041 
Q 956 2041 725 2077 
Q 494 2113 281 2181 
L 281 2725 
Q 488 2613 688 2555 
Q 888 2497 1075 2497 
Q 1372 2497 1534 2597 
Q 1697 2697 1697 2881 
Q 1697 3081 1530 3176 
Q 1363 3272 1006 3272 
L 775 3272 
L 775 3700 
L 1038 3700 
Q 1344 3700 1484 3773 
Q 1625 3847 1625 4006 
Q 1625 4147 1503 4217 
Q 1381 4288 1131 4288 
Q 969 4288 776 4247 
Q 584 4206 366 4122 
L 366 4641 
Q 569 4694 805 4722 
Q 1041 4750 1313 4750 
Q 1834 4750 2111 4575 
Q 2388 4400 2388 4072 
Q 2388 3856 2247 3706 
Q 2106 3556 1850 3500 
z
" transform="scale(0.015625)"/>
       <path id="DejaVuSans-Bold-2f" d="M 1644 4666 
L 2338 4666 
L 691 -594 
L 0 -594 
L 1644 4666 
z
" transform="scale(0.015625)"/>
       <path id="DejaVuSans-Bold-64" d="M 2919 2988 
L 2919 4863 
L 4044 4863 
L 4044 0 
L 2919 0 
L 2919 506 
Q 2688 197 2409 53 
Q 2131 -91 1766 -91 
Q 1119 -91 703 423 
Q 288 938 288 1747 
Q 288 2556 703 3070 
Q 1119 3584 1766 3584 
Q 2128 3584 2408 3439 
Q 2688 3294 2919 2988 
z
M 2181 722 
Q 2541 722 2730 984 
Q 2919 1247 2919 1747 
Q 2919 2247 2730 2509 
Q 2541 2772 2181 2772 
Q 1825 2772 1636 2509 
Q 1447 2247 1447 1747 
Q 1447 1247 1636 984 
Q 1825 722 2181 722 
z
" transform="scale(0.015625)"/>
       <path id="DejaVuSans-Bold-79" d="M 78 3500 
L 1197 3500 
L 2138 1125 
L 2938 3500 
L 4056 3500 
L 2584 -331 
Q 2363 -916 2067 -1148 
Q 1772 -1381 1288 -1381 
L 641 -1381 
L 641 -647 
L 991 -647 
Q 1275 -647 1404 -556 
Q 1534 -466 1606 -231 
L 1638 -134 
L 78 3500 
z
" transform="scale(0.015625)"/>
       <path id="DejaVuSans-Bold-5d" d="M 2375 -844 
L 434 -844 
L 434 -141 
L 1313 -141 
L 1313 4159 
L 434 4159 
L 434 4863 
L 2375 4863 
L 2375 -844 
z
" transform="scale(0.015625)"/>
      </defs>
      <use xlink:href="#DejaVuSans-Bold-46"/>
      <use xlink:href="#DejaVuSans-Bold-47" transform="translate(68.310547 0)"/>
      <use xlink:href="#DejaVuSans-Bold-50" transform="translate(150.390625 0)"/>
      <use xlink:href="#DejaVuSans-Bold-52" transform="translate(223.681641 0)"/>
      <use xlink:href="#DejaVuSans-Bold-20" transform="translate(300.683594 0)"/>
      <use xlink:href="#DejaVuSans-Bold-5b" transform="translate(335.498047 0)"/>
      <use xlink:href="#DejaVuSans-Bold-53" transform="translate(381.201172 0)"/>
      <use xlink:href="#DejaVuSans-Bold-6d" transform="translate(453.222656 0)"/>
      <use xlink:href="#DejaVuSans-Bold-b3" transform="translate(557.421875 0)"/>
      <use xlink:href="#DejaVuSans-Bold-2f" transform="translate(601.220703 0)"/>
      <use xlink:href="#DejaVuSans-Bold-64" transform="translate(637.744141 0)"/>
      <use xlink:href="#DejaVuSans-Bold-61" transform="translate(709.326172 0)"/>
      <use xlink:href="#DejaVuSans-Bold-79" transform="translate(773.681641 0)"/>
      <use xlink:href="#DejaVuSans-Bold-5d" transform="translate(838.867188 0)"/>
     </g>
    </g>
    <g id="text_17">
     <!-- 1e6 -->
     <g style="fill: #262626" transform="translate(81.0825 28.43625) scale(0.24 -0.24)">
      <defs>
       <path id="DejaVuSans-65" d="M 3597 1894 
L 3597 1613 
L 953 1613 
Q 991 1019 1311 708 
Q 1631 397 2203 397 
Q 2534 397 2845 478 
Q 3156 559 3463 722 
L 3463 178 
Q 3153 47 2828 -22 
Q 2503 -91 2169 -91 
Q 1331 -91 842 396 
Q 353 884 353 1716 
Q 353 2575 817 3079 
Q 1281 3584 2069 3584 
Q 2775 3584 3186 3129 
Q 3597 2675 3597 1894 
z
M 3022 2063 
Q 3016 2534 2758 2815 
Q 2500 3097 2075 3097 
Q 1594 3097 1305 2825 
Q 1016 2553 972 2059 
L 3022 2063 
z
" transform="scale(0.015625)"/>
      </defs>
      <use xlink:href="#DejaVuSans-31"/>
      <use xlink:href="#DejaVuSans-65" transform="translate(63.623047 0)"/>
      <use xlink:href="#DejaVuSans-36" transform="translate(125.146484 0)"/>
     </g>
    </g>
   </g>
   <g id="FillBetweenPolyCollection_1">
    <defs>
     <path id="m5edefd5efa" d="M 38.795104 -92.52717 
L 38.795104 -92.52717 
L 39.991917 -92.52717 
L 43.582356 -92.52717 
L 54.353674 -92.52717 
L 66.321805 -92.52717 
L 78.289936 -92.52717 
L 86.26869 -92.52717 
L 122.173083 -202.308634 
L 128.356618 -201.858838 
L 134.540152 -200.698671 
L 158.476414 -246.3463 
L 182.811614 -231.951725 
L 195.178683 -294.864673 
L 231.083076 -282.058416 
L 231.880951 -393.142989 
L 268.184282 -348.920614 
L 279.354538 -338.449058 
L 304.487613 -314.518132 
L 327.626 -281.677708 
L 341.189882 -264.365959 
L 377.89215 -223.463112 
L 413.796544 -204.478041 
L 450.099875 -188.305756 
L 486.802143 -175.197529 
L 523.504412 -167.052484 
L 559.408805 -161.927642 
L 595.712136 -156.630401 
L 632.414404 -150.969465 
L 669.116673 -147.24772 
L 705.021066 -144.773709 
L 716.989197 -143.934597 
L 728.957328 -143.652552 
L 735.140863 -143.401911 
L 741.324397 -142.881147 
L 778.026666 -138.879087 
L 814.728934 -136.864916 
L 826.697065 -136.207043 
L 851.032265 -135.617063 
L 863.000396 -135.636683 
L 887.335596 -134.022001 
L 899.303727 -133.265513 
L 924.037865 -132.324999 
L 936.005996 -131.943526 
L 947.974127 -131.566096 
L 954.35713 -131.377879 
L 960.740133 -131.18757 
L 996.644527 -130.173838 
L 1032.947857 -129.099611 
L 1069.650126 -128.1271 
L 1081.618257 -127.828683 
L 1093.586388 -127.536015 
L 1099.969391 -127.368773 
L 1106.352395 -127.218067 
L 1106.352395 -153.44609 
L 1106.352395 -153.44609 
L 1099.969391 -153.578044 
L 1093.586388 -153.660178 
L 1081.618257 -153.68982 
L 1069.650126 -153.761875 
L 1032.947857 -155.32146 
L 996.644527 -156.805607 
L 960.740133 -158.704257 
L 954.35713 -159.08483 
L 947.974127 -159.483056 
L 936.005996 -160.265277 
L 924.037865 -161.569688 
L 899.303727 -164.879027 
L 887.335596 -166.483153 
L 863.000396 -168.120342 
L 851.032265 -168.679011 
L 826.697065 -170.549357 
L 814.728934 -171.472804 
L 778.026666 -176.283751 
L 741.324397 -181.769635 
L 735.140863 -182.77999 
L 728.957328 -182.812682 
L 716.989197 -184.158 
L 705.021066 -185.680921 
L 669.116673 -192.579481 
L 632.414404 -198.088259 
L 595.712136 -204.954621 
L 559.408805 -216.22213 
L 523.504412 -231.583077 
L 486.802143 -252.976716 
L 450.099875 -277.058723 
L 413.796544 -307.166938 
L 377.89215 -346.514417 
L 341.189882 -453.123256 
L 327.626 -524.93805 
L 304.487613 -553.791764 
L 279.354538 -585.25808 
L 268.184282 -577.19918 
L 231.880951 -567.609093 
L 231.083076 -455.781123 
L 195.178683 -380.973236 
L 182.811614 -300.26759 
L 158.476414 -281.715578 
L 134.540152 -206.402173 
L 128.356618 -205.826941 
L 122.173083 -206.042355 
L 86.26869 -92.52717 
L 78.289936 -92.52717 
L 66.321805 -92.52717 
L 54.353674 -92.52717 
L 43.582356 -92.52717 
L 39.991917 -92.52717 
L 38.795104 -92.52717 
z
" style="stroke: #58508d; stroke-opacity: 0.7; stroke-width: 0.8"/>
    </defs>
    <g clip-path="url(#pb21827e237)">
     <use xlink:href="#m5edefd5efa" x="0" y="641.330875" style="fill: #58508d; fill-opacity: 0.7; stroke: #58508d; stroke-opacity: 0.7; stroke-width: 0.8"/>
    </g>
   </g>
   <g id="FillBetweenPolyCollection_2">
    <defs>
     <path id="mbf738c642b" d="M 38.795104 -92.52717 
L 38.795104 -92.52717 
L 39.991917 -92.52717 
L 43.582356 -92.52717 
L 54.353674 -92.52717 
L 66.321805 -92.52717 
L 78.289936 -92.52717 
L 86.26869 -92.52717 
L 122.173083 -202.308634 
L 128.356618 -201.858838 
L 134.540152 -200.698671 
L 158.476414 -303.585425 
L 182.811614 -292.454067 
L 195.178683 -290.653308 
L 231.083076 -270.173306 
L 231.880951 -338.475432 
L 268.184282 -295.179868 
L 279.354538 -279.211406 
L 304.487613 -325.228593 
L 327.626 -301.203474 
L 341.189882 -282.3305 
L 377.89215 -231.02544 
L 413.796544 -206.503877 
L 450.099875 -186.001063 
L 486.802143 -175.077109 
L 523.504412 -167.346079 
L 559.408805 -160.524206 
L 595.712136 -155.515389 
L 632.414404 -151.439265 
L 669.116673 -147.81898 
L 705.021066 -143.551419 
L 716.989197 -142.056241 
L 728.957328 -141.135287 
L 735.140863 -141.126719 
L 741.324397 -141.112555 
L 778.026666 -139.237518 
L 814.728934 -138.344367 
L 826.697065 -137.610078 
L 851.032265 -136.559634 
L 863.000396 -136.010493 
L 887.335596 -134.993926 
L 899.303727 -134.518567 
L 924.037865 -133.55742 
L 936.005996 -133.113756 
L 947.974127 -132.716184 
L 954.35713 -132.509362 
L 960.740133 -132.297356 
L 996.644527 -131.175174 
L 1032.947857 -130.137189 
L 1069.650126 -129.212944 
L 1081.618257 -129.014228 
L 1093.586388 -128.582237 
L 1099.969391 -128.354513 
L 1106.352395 -128.189252 
L 1106.352395 -156.035529 
L 1106.352395 -156.035529 
L 1099.969391 -156.354242 
L 1093.586388 -156.674012 
L 1081.618257 -157.275254 
L 1069.650126 -157.885454 
L 1032.947857 -159.26868 
L 996.644527 -161.361444 
L 960.740133 -162.61947 
L 954.35713 -162.73181 
L 947.974127 -162.933794 
L 936.005996 -163.66203 
L 924.037865 -164.46077 
L 899.303727 -166.350269 
L 887.335596 -167.369441 
L 863.000396 -169.74517 
L 851.032265 -170.973573 
L 826.697065 -173.65898 
L 814.728934 -175.091943 
L 778.026666 -178.861105 
L 741.324397 -183.275165 
L 735.140863 -184.184599 
L 728.957328 -185.180991 
L 716.989197 -186.888684 
L 705.021066 -187.785905 
L 669.116673 -193.204348 
L 632.414404 -200.647243 
L 595.712136 -212.342928 
L 559.408805 -225.067154 
L 523.504412 -239.669851 
L 486.802143 -254.405751 
L 450.099875 -277.689934 
L 413.796544 -307.150291 
L 377.89215 -370.338949 
L 341.189882 -456.219461 
L 327.626 -493.879316 
L 304.487613 -503.967743 
L 279.354538 -402.167941 
L 268.184282 -402.672997 
L 231.880951 -412.733768 
L 231.083076 -342.275255 
L 195.178683 -390.655978 
L 182.811614 -391.242181 
L 158.476414 -329.524912 
L 134.540152 -206.402173 
L 128.356618 -205.826941 
L 122.173083 -206.042355 
L 86.26869 -92.52717 
L 78.289936 -92.52717 
L 66.321805 -92.52717 
L 54.353674 -92.52717 
L 43.582356 -92.52717 
L 39.991917 -92.52717 
L 38.795104 -92.52717 
z
" style="stroke: #ffa600; stroke-opacity: 0.7; stroke-width: 0.8"/>
    </defs>
    <g clip-path="url(#pb21827e237)">
     <use xlink:href="#mbf738c642b" x="0" y="641.330875" style="fill: #ffa600; fill-opacity: 0.7; stroke: #ffa600; stroke-opacity: 0.7; stroke-width: 0.8"/>
    </g>
   </g>
   <g id="line2d_15">
    <path d="M 38.795104 548.803705 
L 39.991917 548.803705 
L 43.582356 548.803705 
L 54.353674 548.803705 
L 66.321805 548.803705 
L 78.289936 548.803705 
L 86.26869 548.803705 
L 122.173083 437.01294 
L 128.356618 437.409571 
L 134.540152 437.505697 
L 158.476414 372.5487 
L 182.811614 375.533219 
L 195.178683 307.526945 
L 231.083076 294.477276 
L 231.880951 183.428061 
L 268.184282 192.440664 
L 279.354538 196.65177 
L 304.487613 234.045488 
L 327.626 272.919381 
L 341.189882 299.866674 
L 377.89215 360.169974 
L 413.796544 391.944188 
L 450.099875 413.271758 
L 486.802143 429.512001 
L 523.504412 442.248951 
L 559.408805 452.092738 
L 595.712136 460.233899 
L 632.414404 467.12882 
L 669.116673 472.683748 
L 705.021066 477.12343 
L 716.989197 478.445553 
L 728.957328 479.683779 
L 735.140863 480.311347 
L 741.324397 480.916348 
L 778.026666 484.179645 
L 814.728934 486.998588 
L 826.697065 487.825107 
L 851.032265 489.431796 
L 863.000396 490.172766 
L 887.335596 491.646729 
L 899.303727 492.365217 
L 924.037865 493.7687 
L 936.005996 494.394292 
L 947.974127 495.001128 
L 954.35713 495.318115 
L 960.740133 495.627903 
L 996.644527 497.295198 
L 1032.947857 498.870237 
L 1069.650126 500.379158 
L 1081.618257 500.840111 
L 1093.586388 501.29203 
L 1099.969391 501.528674 
L 1106.352395 501.762536 
" clip-path="url(#pb21827e237)" style="fill: none; stroke: #000000; stroke-width: 4; stroke-linecap: round"/>
   </g>
   <g id="line2d_16">
    <path d="M 38.795104 548.803705 
L 39.991917 548.803705 
L 43.582356 548.803705 
L 54.353674 548.803705 
L 66.321805 548.803705 
L 78.289936 548.803705 
L 86.26869 548.803705 
L 122.173083 435.28852 
L 128.356618 435.503934 
L 134.540152 434.928702 
L 158.476414 359.615297 
L 182.811614 341.063285 
L 195.178683 260.357639 
L 231.083076 185.549752 
L 231.880951 73.721782 
L 268.184282 64.131695 
L 279.354538 56.072795 
L 304.487613 87.539111 
L 327.626 116.392825 
L 341.189882 188.207619 
L 377.89215 294.816458 
L 413.796544 334.163937 
L 450.099875 364.272152 
L 486.802143 388.354159 
L 523.504412 409.747798 
L 559.408805 425.108745 
L 595.712136 436.376254 
L 632.414404 443.242616 
L 669.116673 448.751394 
L 705.021066 455.649954 
L 716.989197 457.172875 
L 728.957328 458.518193 
L 735.140863 458.550885 
L 741.324397 459.56124 
L 778.026666 465.047124 
L 814.728934 469.858071 
L 826.697065 470.781518 
L 851.032265 472.651864 
L 863.000396 473.210533 
L 887.335596 474.847722 
L 899.303727 476.451848 
L 924.037865 479.761187 
L 936.005996 481.065598 
L 947.974127 481.847819 
L 954.35713 482.246045 
L 960.740133 482.626618 
L 996.644527 484.525268 
L 1032.947857 486.009415 
L 1069.650126 487.569 
L 1081.618257 487.641055 
L 1093.586388 487.670697 
L 1099.969391 487.752831 
L 1106.352395 487.884785 
" clip-path="url(#pb21827e237)" style="fill: none; stroke-dasharray: 7.4,3.2; stroke-dashoffset: 0; stroke: #000000; stroke-width: 2"/>
   </g>
   <g id="line2d_17">
    <path d="M 38.795104 548.803705 
L 39.991917 548.803705 
L 43.582356 548.803705 
L 54.353674 548.803705 
L 66.321805 548.803705 
L 78.289936 548.803705 
L 86.26869 548.803705 
L 122.173083 439.022241 
L 128.356618 439.472037 
L 134.540152 440.632204 
L 158.476414 394.984575 
L 182.811614 409.37915 
L 195.178683 346.466202 
L 231.083076 359.272459 
L 231.880951 248.187886 
L 268.184282 292.410261 
L 279.354538 302.881817 
L 304.487613 326.812743 
L 327.626 359.653167 
L 341.189882 376.964916 
L 377.89215 417.867763 
L 413.796544 436.852834 
L 450.099875 453.025119 
L 486.802143 466.133346 
L 523.504412 474.278391 
L 559.408805 479.403233 
L 595.712136 484.700474 
L 632.414404 490.36141 
L 669.116673 494.083155 
L 705.021066 496.557166 
L 716.989197 497.396278 
L 728.957328 497.678323 
L 735.140863 497.928964 
L 741.324397 498.449728 
L 778.026666 502.451788 
L 814.728934 504.465959 
L 826.697065 505.123832 
L 851.032265 505.713812 
L 863.000396 505.694192 
L 887.335596 507.308874 
L 899.303727 508.065362 
L 924.037865 509.005876 
L 936.005996 509.387349 
L 947.974127 509.764779 
L 954.35713 509.952996 
L 960.740133 510.143305 
L 996.644527 511.157037 
L 1032.947857 512.231264 
L 1069.650126 513.203775 
L 1081.618257 513.502192 
L 1093.586388 513.79486 
L 1099.969391 513.962102 
L 1106.352395 514.112808 
" clip-path="url(#pb21827e237)" style="fill: none; stroke-dasharray: 2,3.3; stroke-dashoffset: 0; stroke: #000000; stroke-width: 2"/>
   </g>
   <g id="line2d_18">
    <path d="M 38.795104 548.803705 
L 39.991917 548.803705 
L 43.582356 548.803705 
L 54.353674 548.803705 
L 66.321805 548.803705 
L 78.289936 548.803705 
L 86.26869 548.803705 
L 122.173083 437.01294 
L 128.356618 437.409571 
L 134.540152 437.505697 
L 158.476414 324.65778 
L 182.811614 312.052756 
L 195.178683 317.555375 
L 231.083076 335.436825 
L 231.880951 265.362546 
L 268.184282 293.566766 
L 279.354538 302.223852 
L 304.487613 238.149041 
L 327.626 258.657136 
L 341.189882 287.514284 
L 377.89215 351.30854 
L 413.796544 389.149352 
L 450.099875 413.329121 
L 486.802143 430.689897 
L 523.504412 443.603001 
L 559.408805 453.42901 
L 595.712136 461.232612 
L 632.414404 467.427936 
L 669.116673 472.413514 
L 705.021066 476.435062 
L 716.989197 477.625286 
L 728.957328 478.744861 
L 735.140863 479.303126 
L 741.324397 479.842982 
L 778.026666 482.738462 
L 814.728934 485.355957 
L 826.697065 486.205273 
L 851.032265 487.871339 
L 863.000396 488.629713 
L 887.335596 490.07423 
L 899.303727 490.744303 
L 924.037865 492.088962 
L 936.005996 492.717103 
L 947.974127 493.336033 
L 954.35713 493.6609 
L 960.740133 493.981688 
L 996.644527 495.692185 
L 1032.947857 497.333295 
L 1069.650126 498.861017 
L 1081.618257 499.323705 
L 1093.586388 499.782483 
L 1099.969391 500.024502 
L 1106.352395 500.26039 
" clip-path="url(#pb21827e237)" style="fill: none; stroke: #808080; stroke-width: 4; stroke-linecap: round"/>
   </g>
   <g id="line2d_19">
    <path d="M 38.795104 548.803705 
L 39.991917 548.803705 
L 43.582356 548.803705 
L 54.353674 548.803705 
L 66.321805 548.803705 
L 78.289936 548.803705 
L 86.26869 548.803705 
L 122.173083 435.28852 
L 128.356618 435.503934 
L 134.540152 434.928702 
L 158.476414 311.805963 
L 182.811614 250.088694 
L 195.178683 250.674897 
L 231.083076 299.05562 
L 231.880951 228.597107 
L 268.184282 238.657878 
L 279.354538 239.162934 
L 304.487613 137.363132 
L 327.626 147.451559 
L 341.189882 185.111414 
L 377.89215 270.991926 
L 413.796544 334.180584 
L 450.099875 363.640941 
L 486.802143 386.925124 
L 523.504412 401.661024 
L 559.408805 416.263721 
L 595.712136 428.987947 
L 632.414404 440.683632 
L 669.116673 448.126527 
L 705.021066 453.54497 
L 716.989197 454.442191 
L 728.957328 456.149884 
L 735.140863 457.146276 
L 741.324397 458.05571 
L 778.026666 462.46977 
L 814.728934 466.238932 
L 826.697065 467.671895 
L 851.032265 470.357302 
L 863.000396 471.585705 
L 887.335596 473.961434 
L 899.303727 474.980606 
L 924.037865 476.870105 
L 936.005996 477.668845 
L 947.974127 478.397081 
L 954.35713 478.599065 
L 960.740133 478.711405 
L 996.644527 479.969431 
L 1032.947857 482.062195 
L 1069.650126 483.445421 
L 1081.618257 484.055621 
L 1093.586388 484.656863 
L 1099.969391 484.976633 
L 1106.352395 485.295346 
" clip-path="url(#pb21827e237)" style="fill: none; stroke-dasharray: 7.4,3.2; stroke-dashoffset: 0; stroke: #808080; stroke-width: 2"/>
   </g>
   <g id="line2d_20">
    <path d="M 38.795104 548.803705 
L 39.991917 548.803705 
L 43.582356 548.803705 
L 54.353674 548.803705 
L 66.321805 548.803705 
L 78.289936 548.803705 
L 86.26869 548.803705 
L 122.173083 439.022241 
L 128.356618 439.472037 
L 134.540152 440.632204 
L 158.476414 337.74545 
L 182.811614 348.876808 
L 195.178683 350.677567 
L 231.083076 371.157569 
L 231.880951 302.855443 
L 268.184282 346.151007 
L 279.354538 362.119469 
L 304.487613 316.102282 
L 327.626 340.127401 
L 341.189882 359.000375 
L 377.89215 410.305435 
L 413.796544 434.826998 
L 450.099875 455.329812 
L 486.802143 466.253766 
L 523.504412 473.984796 
L 559.408805 480.806669 
L 595.712136 485.815486 
L 632.414404 489.89161 
L 669.116673 493.511895 
L 705.021066 497.779456 
L 716.989197 499.274634 
L 728.957328 500.195588 
L 735.140863 500.204156 
L 741.324397 500.21832 
L 778.026666 502.093357 
L 814.728934 502.986508 
L 826.697065 503.720797 
L 851.032265 504.771241 
L 863.000396 505.320382 
L 887.335596 506.336949 
L 899.303727 506.812308 
L 924.037865 507.773455 
L 936.005996 508.217119 
L 947.974127 508.614691 
L 954.35713 508.821513 
L 960.740133 509.033519 
L 996.644527 510.155701 
L 1032.947857 511.193686 
L 1069.650126 512.117931 
L 1081.618257 512.316647 
L 1093.586388 512.748638 
L 1099.969391 512.976362 
L 1106.352395 513.141623 
" clip-path="url(#pb21827e237)" style="fill: none; stroke-dasharray: 2,3.3; stroke-dashoffset: 0; stroke: #808080; stroke-width: 2"/>
   </g>
   <g id="patch_3">
    <path d="M 81.0825 573.44025 
L 81.0825 31.43625 
" style="fill: none; stroke: #ffffff; stroke-linejoin: miter; stroke-linecap: square"/>
   </g>
   <g id="patch_4">
    <path d="M 1112.735398 573.44025 
L 1112.735398 31.43625 
" style="fill: none; stroke: #ffffff; stroke-linejoin: miter; stroke-linecap: square"/>
   </g>
   <g id="patch_5">
    <path d="M 81.0825 573.44025 
L 1112.735398 573.44025 
" style="fill: none; stroke: #ffffff; stroke-linejoin: miter; stroke-linecap: square"/>
   </g>
   <g id="patch_6">
    <path d="M 81.0825 31.43625 
L 1112.735398 31.43625 
" style="fill: none; stroke: #ffffff; stroke-linejoin: miter; stroke-linecap: square"/>
   </g>
   <g id="text_18">
    <!-- FGPR -->
    <g style="fill: #262626" transform="translate(560.826449 25.43625) scale(0.24 -0.24)">
     <use xlink:href="#DejaVuSans-Bold-46"/>
     <use xlink:href="#DejaVuSans-Bold-47" transform="translate(68.310547 0)"/>
     <use xlink:href="#DejaVuSans-Bold-50" transform="translate(150.390625 0)"/>
     <use xlink:href="#DejaVuSans-Bold-52" transform="translate(223.681641 0)"/>
    </g>
   </g>
   <g id="legend_1">
    <g id="patch_7">
     <path d="M 870.16821 210.495625 
L 1097.335398 210.495625 
Q 1101.735398 210.495625 1101.735398 206.095625 
L 1101.735398 46.83625 
Q 1101.735398 42.43625 1097.335398 42.43625 
L 870.16821 42.43625 
Q 865.76821 42.43625 865.76821 46.83625 
L 865.76821 206.095625 
Q 865.76821 210.495625 870.16821 210.495625 
z
" style="fill: #eaeaf2; opacity: 0.8; stroke: #cccccc; stroke-width: 0.8; stroke-linejoin: miter"/>
    </g>
    <g id="line2d_21">
     <path d="M 874.56821 60.252813 
L 896.56821 60.252813 
L 918.56821 60.252813 
" style="fill: none; stroke: #000000; stroke-width: 4; stroke-linecap: round"/>
    </g>
    <g id="text_19">
     <!-- Mean -->
     <g style="fill: #262626" transform="translate(936.16821 67.952813) scale(0.22 -0.22)">
      <defs>
       <path id="DejaVuSans-4d" d="M 628 4666 
L 1569 4666 
L 2759 1491 
L 3956 4666 
L 4897 4666 
L 4897 0 
L 4281 0 
L 4281 4097 
L 3078 897 
L 2444 897 
L 1241 4097 
L 1241 0 
L 628 0 
L 628 4666 
z
" transform="scale(0.015625)"/>
       <path id="DejaVuSans-61" d="M 2194 1759 
Q 1497 1759 1228 1600 
Q 959 1441 959 1056 
Q 959 750 1161 570 
Q 1363 391 1709 391 
Q 2188 391 2477 730 
Q 2766 1069 2766 1631 
L 2766 1759 
L 2194 1759 
z
M 3341 1997 
L 3341 0 
L 2766 0 
L 2766 531 
Q 2569 213 2275 61 
Q 1981 -91 1556 -91 
Q 1019 -91 701 211 
Q 384 513 384 1019 
Q 384 1609 779 1909 
Q 1175 2209 1959 2209 
L 2766 2209 
L 2766 2266 
Q 2766 2663 2505 2880 
Q 2244 3097 1772 3097 
Q 1472 3097 1187 3025 
Q 903 2953 641 2809 
L 641 3341 
Q 956 3463 1253 3523 
Q 1550 3584 1831 3584 
Q 2591 3584 2966 3190 
Q 3341 2797 3341 1997 
z
" transform="scale(0.015625)"/>
       <path id="DejaVuSans-6e" d="M 3513 2113 
L 3513 0 
L 2938 0 
L 2938 2094 
Q 2938 2591 2744 2837 
Q 2550 3084 2163 3084 
Q 1697 3084 1428 2787 
Q 1159 2491 1159 1978 
L 1159 0 
L 581 0 
L 581 3500 
L 1159 3500 
L 1159 2956 
Q 1366 3272 1645 3428 
Q 1925 3584 2291 3584 
Q 2894 3584 3203 3211 
Q 3513 2838 3513 2113 
z
" transform="scale(0.015625)"/>
      </defs>
      <use xlink:href="#DejaVuSans-4d"/>
      <use xlink:href="#DejaVuSans-65" transform="translate(86.279297 0)"/>
      <use xlink:href="#DejaVuSans-61" transform="translate(147.802734 0)"/>
      <use xlink:href="#DejaVuSans-6e" transform="translate(209.082031 0)"/>
     </g>
    </g>
    <g id="line2d_22">
     <path d="M 874.56821 92.544688 
L 896.56821 92.544688 
L 918.56821 92.544688 
" style="fill: none; stroke-dasharray: 7.4,3.2; stroke-dashoffset: 0; stroke: #000000; stroke-width: 2"/>
    </g>
    <g id="text_20">
     <!-- P10 Percentile -->
     <g style="fill: #262626" transform="translate(936.16821 100.244688) scale(0.22 -0.22)">
      <defs>
       <path id="DejaVuSans-50" d="M 1259 4147 
L 1259 2394 
L 2053 2394 
Q 2494 2394 2734 2622 
Q 2975 2850 2975 3272 
Q 2975 3691 2734 3919 
Q 2494 4147 2053 4147 
L 1259 4147 
z
M 628 4666 
L 2053 4666 
Q 2838 4666 3239 4311 
Q 3641 3956 3641 3272 
Q 3641 2581 3239 2228 
Q 2838 1875 2053 1875 
L 1259 1875 
L 1259 0 
L 628 0 
L 628 4666 
z
" transform="scale(0.015625)"/>
       <path id="DejaVuSans-20" transform="scale(0.015625)"/>
       <path id="DejaVuSans-72" d="M 2631 2963 
Q 2534 3019 2420 3045 
Q 2306 3072 2169 3072 
Q 1681 3072 1420 2755 
Q 1159 2438 1159 1844 
L 1159 0 
L 581 0 
L 581 3500 
L 1159 3500 
L 1159 2956 
Q 1341 3275 1631 3429 
Q 1922 3584 2338 3584 
Q 2397 3584 2469 3576 
Q 2541 3569 2628 3553 
L 2631 2963 
z
" transform="scale(0.015625)"/>
       <path id="DejaVuSans-63" d="M 3122 3366 
L 3122 2828 
Q 2878 2963 2633 3030 
Q 2388 3097 2138 3097 
Q 1578 3097 1268 2742 
Q 959 2388 959 1747 
Q 959 1106 1268 751 
Q 1578 397 2138 397 
Q 2388 397 2633 464 
Q 2878 531 3122 666 
L 3122 134 
Q 2881 22 2623 -34 
Q 2366 -91 2075 -91 
Q 1284 -91 818 406 
Q 353 903 353 1747 
Q 353 2603 823 3093 
Q 1294 3584 2113 3584 
Q 2378 3584 2631 3529 
Q 2884 3475 3122 3366 
z
" transform="scale(0.015625)"/>
       <path id="DejaVuSans-74" d="M 1172 4494 
L 1172 3500 
L 2356 3500 
L 2356 3053 
L 1172 3053 
L 1172 1153 
Q 1172 725 1289 603 
Q 1406 481 1766 481 
L 2356 481 
L 2356 0 
L 1766 0 
Q 1100 0 847 248 
Q 594 497 594 1153 
L 594 3053 
L 172 3053 
L 172 3500 
L 594 3500 
L 594 4494 
L 1172 4494 
z
" transform="scale(0.015625)"/>
       <path id="DejaVuSans-69" d="M 603 3500 
L 1178 3500 
L 1178 0 
L 603 0 
L 603 3500 
z
M 603 4863 
L 1178 4863 
L 1178 4134 
L 603 4134 
L 603 4863 
z
" transform="scale(0.015625)"/>
       <path id="DejaVuSans-6c" d="M 603 4863 
L 1178 4863 
L 1178 0 
L 603 0 
L 603 4863 
z
" transform="scale(0.015625)"/>
      </defs>
      <use xlink:href="#DejaVuSans-50"/>
      <use xlink:href="#DejaVuSans-31" transform="translate(60.302734 0)"/>
      <use xlink:href="#DejaVuSans-30" transform="translate(123.925781 0)"/>
      <use xlink:href="#DejaVuSans-20" transform="translate(187.548828 0)"/>
      <use xlink:href="#DejaVuSans-50" transform="translate(219.335938 0)"/>
      <use xlink:href="#DejaVuSans-65" transform="translate(276.013672 0)"/>
      <use xlink:href="#DejaVuSans-72" transform="translate(337.537109 0)"/>
      <use xlink:href="#DejaVuSans-63" transform="translate(376.400391 0)"/>
      <use xlink:href="#DejaVuSans-65" transform="translate(431.380859 0)"/>
      <use xlink:href="#DejaVuSans-6e" transform="translate(492.904297 0)"/>
      <use xlink:href="#DejaVuSans-74" transform="translate(556.283203 0)"/>
      <use xlink:href="#DejaVuSans-69" transform="translate(595.492188 0)"/>
      <use xlink:href="#DejaVuSans-6c" transform="translate(623.275391 0)"/>
      <use xlink:href="#DejaVuSans-65" transform="translate(651.058594 0)"/>
     </g>
    </g>
    <g id="line2d_23">
     <path d="M 874.56821 124.836563 
L 896.56821 124.836563 
L 918.56821 124.836563 
" style="fill: none; stroke-dasharray: 2,3.3; stroke-dashoffset: 0; stroke: #000000; stroke-width: 2"/>
    </g>
    <g id="text_21">
     <!-- P90 Percentile -->
     <g style="fill: #262626" transform="translate(936.16821 132.536563) scale(0.22 -0.22)">
      <use xlink:href="#DejaVuSans-50"/>
      <use xlink:href="#DejaVuSans-39" transform="translate(60.302734 0)"/>
      <use xlink:href="#DejaVuSans-30" transform="translate(123.925781 0)"/>
      <use xlink:href="#DejaVuSans-20" transform="translate(187.548828 0)"/>
      <use xlink:href="#DejaVuSans-50" transform="translate(219.335938 0)"/>
      <use xlink:href="#DejaVuSans-65" transform="translate(276.013672 0)"/>
      <use xlink:href="#DejaVuSans-72" transform="translate(337.537109 0)"/>
      <use xlink:href="#DejaVuSans-63" transform="translate(376.400391 0)"/>
      <use xlink:href="#DejaVuSans-65" transform="translate(431.380859 0)"/>
      <use xlink:href="#DejaVuSans-6e" transform="translate(492.904297 0)"/>
      <use xlink:href="#DejaVuSans-74" transform="translate(556.283203 0)"/>
      <use xlink:href="#DejaVuSans-69" transform="translate(595.492188 0)"/>
      <use xlink:href="#DejaVuSans-6c" transform="translate(623.275391 0)"/>
      <use xlink:href="#DejaVuSans-65" transform="translate(651.058594 0)"/>
     </g>
    </g>
    <g id="patch_8">
     <path d="M 874.56821 164.828438 
L 918.56821 164.828438 
L 918.56821 149.428438 
L 874.56821 149.428438 
z
" style="fill: #58508d; fill-opacity: 0.7; stroke: #58508d; stroke-opacity: 0.7; stroke-width: 0.8; stroke-linejoin: miter"/>
    </g>
    <g id="text_22">
     <!-- Batch 0 -->
     <g style="fill: #262626" transform="translate(936.16821 164.828438) scale(0.22 -0.22)">
      <defs>
       <path id="DejaVuSans-42" d="M 1259 2228 
L 1259 519 
L 2272 519 
Q 2781 519 3026 730 
Q 3272 941 3272 1375 
Q 3272 1813 3026 2020 
Q 2781 2228 2272 2228 
L 1259 2228 
z
M 1259 4147 
L 1259 2741 
L 2194 2741 
Q 2656 2741 2882 2914 
Q 3109 3088 3109 3444 
Q 3109 3797 2882 3972 
Q 2656 4147 2194 4147 
L 1259 4147 
z
M 628 4666 
L 2241 4666 
Q 2963 4666 3353 4366 
Q 3744 4066 3744 3513 
Q 3744 3084 3544 2831 
Q 3344 2578 2956 2516 
Q 3422 2416 3680 2098 
Q 3938 1781 3938 1306 
Q 3938 681 3513 340 
Q 3088 0 2303 0 
L 628 0 
L 628 4666 
z
" transform="scale(0.015625)"/>
       <path id="DejaVuSans-68" d="M 3513 2113 
L 3513 0 
L 2938 0 
L 2938 2094 
Q 2938 2591 2744 2837 
Q 2550 3084 2163 3084 
Q 1697 3084 1428 2787 
Q 1159 2491 1159 1978 
L 1159 0 
L 581 0 
L 581 4863 
L 1159 4863 
L 1159 2956 
Q 1366 3272 1645 3428 
Q 1925 3584 2291 3584 
Q 2894 3584 3203 3211 
Q 3513 2838 3513 2113 
z
" transform="scale(0.015625)"/>
      </defs>
      <use xlink:href="#DejaVuSans-42"/>
      <use xlink:href="#DejaVuSans-61" transform="translate(68.603516 0)"/>
      <use xlink:href="#DejaVuSans-74" transform="translate(129.882812 0)"/>
      <use xlink:href="#DejaVuSans-63" transform="translate(169.091797 0)"/>
      <use xlink:href="#DejaVuSans-68" transform="translate(224.072266 0)"/>
      <use xlink:href="#DejaVuSans-20" transform="translate(287.451172 0)"/>
      <use xlink:href="#DejaVuSans-30" transform="translate(319.238281 0)"/>
     </g>
    </g>
    <g id="patch_9">
     <path d="M 874.56821 197.120313 
L 918.56821 197.120313 
L 918.56821 181.720313 
L 874.56821 181.720313 
z
" style="fill: #ffa600; fill-opacity: 0.7; stroke: #ffa600; stroke-opacity: 0.7; stroke-width: 0.8; stroke-linejoin: miter"/>
    </g>
    <g id="text_23">
     <!-- Batch 5 -->
     <g style="fill: #262626" transform="translate(936.16821 197.120313) scale(0.22 -0.22)">
      <use xlink:href="#DejaVuSans-42"/>
      <use xlink:href="#DejaVuSans-61" transform="translate(68.603516 0)"/>
      <use xlink:href="#DejaVuSans-74" transform="translate(129.882812 0)"/>
      <use xlink:href="#DejaVuSans-63" transform="translate(169.091797 0)"/>
      <use xlink:href="#DejaVuSans-68" transform="translate(224.072266 0)"/>
      <use xlink:href="#DejaVuSans-20" transform="translate(287.451172 0)"/>
      <use xlink:href="#DejaVuSans-35" transform="translate(319.238281 0)"/>
     </g>
    </g>
   </g>
  </g>
 </g>
 <defs>
  <clipPath id="pb21827e237">
   <rect x="81.0825" y="31.43625" width="1031.652898" height="542.004"/>
  </clipPath>
 </defs>
</svg>
