<?xml version="1.0" encoding="utf-8" standalone="no"?>
<!DOCTYPE svg PUBLIC "-//W3C//DTD SVG 1.1//EN"
  "http://www.w3.org/Graphics/SVG/1.1/DTD/svg11.dtd">
<svg xmlns:xlink="http://www.w3.org/1999/xlink" width="1144.41566pt" height="641.330875pt" viewBox="0 0 1144.41566 641.330875" xmlns="http://www.w3.org/2000/svg" version="1.1">
 <metadata>
  <rdf:RDF xmlns:dc="http://purl.org/dc/elements/1.1/" xmlns:cc="http://creativecommons.org/ns#" xmlns:rdf="http://www.w3.org/1999/02/22-rdf-syntax-ns#">
   <cc:Work>
    <dc:type rdf:resource="http://purl.org/dc/dcmitype/StillImage"/>
    <dc:date>2025-07-08T08:17:43.637440</dc:date>
    <dc:format>image/svg+xml</dc:format>
    <dc:creator>
     <cc:Agent>
      <dc:title>Matplotlib v3.10.3, https://matplotlib.org/</dc:title>
     </cc:Agent>
    </dc:creator>
   </cc:Work>
  </rdf:RDF>
 </metadata>
 <defs>
  <style type="text/css">*{stroke-linejoin: round; stroke-linecap: butt}</style>
 </defs>
 <g id="figure_1">
  <g id="patch_1">
   <path d="M 0 641.330875 
L 1144.41566 641.330875 
L 1144.41566 0 
L 0 0 
z
" style="fill: #ffffff"/>
  </g>
  <g id="axes_1">
   <g id="patch_2">
    <path d="M 134.535 573.44025 
L 1112.727898 573.44025 
L 1112.727898 31.43625 
L 134.535 31.43625 
z
" style="fill: #eaeaf2"/>
   </g>
   <g id="matplotlib.axis_1">
    <g id="xtick_1">
     <g id="line2d_1">
      <path d="M 139.452443 573.44025 
L 139.452443 31.43625 
" clip-path="url(#p23eb504158)" style="fill: none; stroke: #ffffff; stroke-width: 0.8; stroke-linecap: round"/>
     </g>
     <g id="text_1">
      <!-- 2023 -->
      <g style="fill: #262626" transform="translate(108.912443 599.9765) scale(0.24 -0.24)">
       <defs>
        <path id="DejaVuSans-32" d="M 1228 531 
L 3431 531 
L 3431 0 
L 469 0 
L 469 531 
Q 828 903 1448 1529 
Q 2069 2156 2228 2338 
Q 2531 2678 2651 2914 
Q 2772 3150 2772 3378 
Q 2772 3750 2511 3984 
Q 2250 4219 1831 4219 
Q 1534 4219 1204 4116 
Q 875 4013 500 3803 
L 500 4441 
Q 881 4594 1212 4672 
Q 1544 4750 1819 4750 
Q 2544 4750 2975 4387 
Q 3406 4025 3406 3419 
Q 3406 3131 3298 2873 
Q 3191 2616 2906 2266 
Q 2828 2175 2409 1742 
Q 1991 1309 1228 531 
z
" transform="scale(0.015625)"/>
        <path id="DejaVuSans-30" d="M 2034 4250 
Q 1547 4250 1301 3770 
Q 1056 3291 1056 2328 
Q 1056 1369 1301 889 
Q 1547 409 2034 409 
Q 2525 409 2770 889 
Q 3016 1369 3016 2328 
Q 3016 3291 2770 3770 
Q 2525 4250 2034 4250 
z
M 2034 4750 
Q 2819 4750 3233 4129 
Q 3647 3509 3647 2328 
Q 3647 1150 3233 529 
Q 2819 -91 2034 -91 
Q 1250 -91 836 529 
Q 422 1150 422 2328 
Q 422 3509 836 4129 
Q 1250 4750 2034 4750 
z
" transform="scale(0.015625)"/>
        <path id="DejaVuSans-33" d="M 2597 2516 
Q 3050 2419 3304 2112 
Q 3559 1806 3559 1356 
Q 3559 666 3084 287 
Q 2609 -91 1734 -91 
Q 1441 -91 1130 -33 
Q 819 25 488 141 
L 488 750 
Q 750 597 1062 519 
Q 1375 441 1716 441 
Q 2309 441 2620 675 
Q 2931 909 2931 1356 
Q 2931 1769 2642 2001 
Q 2353 2234 1838 2234 
L 1294 2234 
L 1294 2753 
L 1863 2753 
Q 2328 2753 2575 2939 
Q 2822 3125 2822 3475 
Q 2822 3834 2567 4026 
Q 2313 4219 1838 4219 
Q 1578 4219 1281 4162 
Q 984 4106 628 3988 
L 628 4550 
Q 988 4650 1302 4700 
Q 1616 4750 1894 4750 
Q 2613 4750 3031 4423 
Q 3450 4097 3450 3541 
Q 3450 3153 3228 2886 
Q 3006 2619 2597 2516 
z
" transform="scale(0.015625)"/>
       </defs>
       <use xlink:href="#DejaVuSans-32"/>
       <use xlink:href="#DejaVuSans-30" transform="translate(63.623047 0)"/>
       <use xlink:href="#DejaVuSans-32" transform="translate(127.246094 0)"/>
       <use xlink:href="#DejaVuSans-33" transform="translate(190.869141 0)"/>
      </g>
     </g>
    </g>
    <g id="xtick_2">
     <g id="line2d_2">
      <path d="M 277.519113 573.44025 
L 277.519113 31.43625 
" clip-path="url(#p23eb504158)" style="fill: none; stroke: #ffffff; stroke-width: 0.8; stroke-linecap: round"/>
     </g>
     <g id="text_2">
      <!-- 2024 -->
      <g style="fill: #262626" transform="translate(246.979113 599.9765) scale(0.24 -0.24)">
       <defs>
        <path id="DejaVuSans-34" d="M 2419 4116 
L 825 1625 
L 2419 1625 
L 2419 4116 
z
M 2253 4666 
L 3047 4666 
L 3047 1625 
L 3713 1625 
L 3713 1100 
L 3047 1100 
L 3047 0 
L 2419 0 
L 2419 1100 
L 313 1100 
L 313 1709 
L 2253 4666 
z
" transform="scale(0.015625)"/>
       </defs>
       <use xlink:href="#DejaVuSans-32"/>
       <use xlink:href="#DejaVuSans-30" transform="translate(63.623047 0)"/>
       <use xlink:href="#DejaVuSans-32" transform="translate(127.246094 0)"/>
       <use xlink:href="#DejaVuSans-34" transform="translate(190.869141 0)"/>
      </g>
     </g>
    </g>
    <g id="xtick_3">
     <g id="line2d_3">
      <path d="M 415.964047 573.44025 
L 415.964047 31.43625 
" clip-path="url(#p23eb504158)" style="fill: none; stroke: #ffffff; stroke-width: 0.8; stroke-linecap: round"/>
     </g>
     <g id="text_3">
      <!-- 2025 -->
      <g style="fill: #262626" transform="translate(385.424047 599.9765) scale(0.24 -0.24)">
       <defs>
        <path id="DejaVuSans-35" d="M 691 4666 
L 3169 4666 
L 3169 4134 
L 1269 4134 
L 1269 2991 
Q 1406 3038 1543 3061 
Q 1681 3084 1819 3084 
Q 2600 3084 3056 2656 
Q 3513 2228 3513 1497 
Q 3513 744 3044 326 
Q 2575 -91 1722 -91 
Q 1428 -91 1123 -41 
Q 819 9 494 109 
L 494 744 
Q 775 591 1075 516 
Q 1375 441 1709 441 
Q 2250 441 2565 725 
Q 2881 1009 2881 1497 
Q 2881 1984 2565 2268 
Q 2250 2553 1709 2553 
Q 1456 2553 1204 2497 
Q 953 2441 691 2322 
L 691 4666 
z
" transform="scale(0.015625)"/>
       </defs>
       <use xlink:href="#DejaVuSans-32"/>
       <use xlink:href="#DejaVuSans-30" transform="translate(63.623047 0)"/>
       <use xlink:href="#DejaVuSans-32" transform="translate(127.246094 0)"/>
       <use xlink:href="#DejaVuSans-35" transform="translate(190.869141 0)"/>
      </g>
     </g>
    </g>
    <g id="xtick_4">
     <g id="line2d_4">
      <path d="M 554.030717 573.44025 
L 554.030717 31.43625 
" clip-path="url(#p23eb504158)" style="fill: none; stroke: #ffffff; stroke-width: 0.8; stroke-linecap: round"/>
     </g>
     <g id="text_4">
      <!-- 2026 -->
      <g style="fill: #262626" transform="translate(523.490717 599.9765) scale(0.24 -0.24)">
       <defs>
        <path id="DejaVuSans-36" d="M 2113 2584 
Q 1688 2584 1439 2293 
Q 1191 2003 1191 1497 
Q 1191 994 1439 701 
Q 1688 409 2113 409 
Q 2538 409 2786 701 
Q 3034 994 3034 1497 
Q 3034 2003 2786 2293 
Q 2538 2584 2113 2584 
z
M 3366 4563 
L 3366 3988 
Q 3128 4100 2886 4159 
Q 2644 4219 2406 4219 
Q 1781 4219 1451 3797 
Q 1122 3375 1075 2522 
Q 1259 2794 1537 2939 
Q 1816 3084 2150 3084 
Q 2853 3084 3261 2657 
Q 3669 2231 3669 1497 
Q 3669 778 3244 343 
Q 2819 -91 2113 -91 
Q 1303 -91 875 529 
Q 447 1150 447 2328 
Q 447 3434 972 4092 
Q 1497 4750 2381 4750 
Q 2619 4750 2861 4703 
Q 3103 4656 3366 4563 
z
" transform="scale(0.015625)"/>
       </defs>
       <use xlink:href="#DejaVuSans-32"/>
       <use xlink:href="#DejaVuSans-30" transform="translate(63.623047 0)"/>
       <use xlink:href="#DejaVuSans-32" transform="translate(127.246094 0)"/>
       <use xlink:href="#DejaVuSans-36" transform="translate(190.869141 0)"/>
      </g>
     </g>
    </g>
    <g id="xtick_5">
     <g id="line2d_5">
      <path d="M 692.097387 573.44025 
L 692.097387 31.43625 
" clip-path="url(#p23eb504158)" style="fill: none; stroke: #ffffff; stroke-width: 0.8; stroke-linecap: round"/>
     </g>
     <g id="text_5">
      <!-- 2027 -->
      <g style="fill: #262626" transform="translate(661.557387 599.9765) scale(0.24 -0.24)">
       <defs>
        <path id="DejaVuSans-37" d="M 525 4666 
L 3525 4666 
L 3525 4397 
L 1831 0 
L 1172 0 
L 2766 4134 
L 525 4134 
L 525 4666 
z
" transform="scale(0.015625)"/>
       </defs>
       <use xlink:href="#DejaVuSans-32"/>
       <use xlink:href="#DejaVuSans-30" transform="translate(63.623047 0)"/>
       <use xlink:href="#DejaVuSans-32" transform="translate(127.246094 0)"/>
       <use xlink:href="#DejaVuSans-37" transform="translate(190.869141 0)"/>
      </g>
     </g>
    </g>
    <g id="xtick_6">
     <g id="line2d_6">
      <path d="M 830.164056 573.44025 
L 830.164056 31.43625 
" clip-path="url(#p23eb504158)" style="fill: none; stroke: #ffffff; stroke-width: 0.8; stroke-linecap: round"/>
     </g>
     <g id="text_6">
      <!-- 2028 -->
      <g style="fill: #262626" transform="translate(799.624056 599.9765) scale(0.24 -0.24)">
       <defs>
        <path id="DejaVuSans-38" d="M 2034 2216 
Q 1584 2216 1326 1975 
Q 1069 1734 1069 1313 
Q 1069 891 1326 650 
Q 1584 409 2034 409 
Q 2484 409 2743 651 
Q 3003 894 3003 1313 
Q 3003 1734 2745 1975 
Q 2488 2216 2034 2216 
z
M 1403 2484 
Q 997 2584 770 2862 
Q 544 3141 544 3541 
Q 544 4100 942 4425 
Q 1341 4750 2034 4750 
Q 2731 4750 3128 4425 
Q 3525 4100 3525 3541 
Q 3525 3141 3298 2862 
Q 3072 2584 2669 2484 
Q 3125 2378 3379 2068 
Q 3634 1759 3634 1313 
Q 3634 634 3220 271 
Q 2806 -91 2034 -91 
Q 1263 -91 848 271 
Q 434 634 434 1313 
Q 434 1759 690 2068 
Q 947 2378 1403 2484 
z
M 1172 3481 
Q 1172 3119 1398 2916 
Q 1625 2713 2034 2713 
Q 2441 2713 2670 2916 
Q 2900 3119 2900 3481 
Q 2900 3844 2670 4047 
Q 2441 4250 2034 4250 
Q 1625 4250 1398 4047 
Q 1172 3844 1172 3481 
z
" transform="scale(0.015625)"/>
       </defs>
       <use xlink:href="#DejaVuSans-32"/>
       <use xlink:href="#DejaVuSans-30" transform="translate(63.623047 0)"/>
       <use xlink:href="#DejaVuSans-32" transform="translate(127.246094 0)"/>
       <use xlink:href="#DejaVuSans-38" transform="translate(190.869141 0)"/>
      </g>
     </g>
    </g>
    <g id="xtick_7">
     <g id="line2d_7">
      <path d="M 968.608991 573.44025 
L 968.608991 31.43625 
" clip-path="url(#p23eb504158)" style="fill: none; stroke: #ffffff; stroke-width: 0.8; stroke-linecap: round"/>
     </g>
     <g id="text_7">
      <!-- 2029 -->
      <g style="fill: #262626" transform="translate(938.068991 599.9765) scale(0.24 -0.24)">
       <defs>
        <path id="DejaVuSans-39" d="M 703 97 
L 703 672 
Q 941 559 1184 500 
Q 1428 441 1663 441 
Q 2288 441 2617 861 
Q 2947 1281 2994 2138 
Q 2813 1869 2534 1725 
Q 2256 1581 1919 1581 
Q 1219 1581 811 2004 
Q 403 2428 403 3163 
Q 403 3881 828 4315 
Q 1253 4750 1959 4750 
Q 2769 4750 3195 4129 
Q 3622 3509 3622 2328 
Q 3622 1225 3098 567 
Q 2575 -91 1691 -91 
Q 1453 -91 1209 -44 
Q 966 3 703 97 
z
M 1959 2075 
Q 2384 2075 2632 2365 
Q 2881 2656 2881 3163 
Q 2881 3666 2632 3958 
Q 2384 4250 1959 4250 
Q 1534 4250 1286 3958 
Q 1038 3666 1038 3163 
Q 1038 2656 1286 2365 
Q 1534 2075 1959 2075 
z
" transform="scale(0.015625)"/>
       </defs>
       <use xlink:href="#DejaVuSans-32"/>
       <use xlink:href="#DejaVuSans-30" transform="translate(63.623047 0)"/>
       <use xlink:href="#DejaVuSans-32" transform="translate(127.246094 0)"/>
       <use xlink:href="#DejaVuSans-39" transform="translate(190.869141 0)"/>
      </g>
     </g>
    </g>
    <g id="xtick_8">
     <g id="line2d_8">
      <path d="M 1106.67566 573.44025 
L 1106.67566 31.43625 
" clip-path="url(#p23eb504158)" style="fill: none; stroke: #ffffff; stroke-width: 0.8; stroke-linecap: round"/>
     </g>
     <g id="text_8">
      <!-- 2030 -->
      <g style="fill: #262626" transform="translate(1076.13566 599.9765) scale(0.24 -0.24)">
       <use xlink:href="#DejaVuSans-32"/>
       <use xlink:href="#DejaVuSans-30" transform="translate(63.623047 0)"/>
       <use xlink:href="#DejaVuSans-33" transform="translate(127.246094 0)"/>
       <use xlink:href="#DejaVuSans-30" transform="translate(190.869141 0)"/>
      </g>
     </g>
    </g>
    <g id="text_9">
     <!-- Date -->
     <g style="fill: #262626" transform="translate(589.035199 628.723687) scale(0.26 -0.26)">
      <defs>
       <path id="DejaVuSans-Bold-44" d="M 1791 3756 
L 1791 909 
L 2222 909 
Q 2959 909 3348 1275 
Q 3738 1641 3738 2338 
Q 3738 3031 3350 3393 
Q 2963 3756 2222 3756 
L 1791 3756 
z
M 588 4666 
L 1856 4666 
Q 2919 4666 3439 4514 
Q 3959 4363 4331 4000 
Q 4659 3684 4818 3271 
Q 4978 2859 4978 2338 
Q 4978 1809 4818 1395 
Q 4659 981 4331 666 
Q 3956 303 3431 151 
Q 2906 0 1856 0 
L 588 0 
L 588 4666 
z
" transform="scale(0.015625)"/>
       <path id="DejaVuSans-Bold-61" d="M 2106 1575 
Q 1756 1575 1579 1456 
Q 1403 1338 1403 1106 
Q 1403 894 1545 773 
Q 1688 653 1941 653 
Q 2256 653 2472 879 
Q 2688 1106 2688 1447 
L 2688 1575 
L 2106 1575 
z
M 3816 1997 
L 3816 0 
L 2688 0 
L 2688 519 
Q 2463 200 2181 54 
Q 1900 -91 1497 -91 
Q 953 -91 614 226 
Q 275 544 275 1050 
Q 275 1666 698 1953 
Q 1122 2241 2028 2241 
L 2688 2241 
L 2688 2328 
Q 2688 2594 2478 2717 
Q 2269 2841 1825 2841 
Q 1466 2841 1156 2769 
Q 847 2697 581 2553 
L 581 3406 
Q 941 3494 1303 3539 
Q 1666 3584 2028 3584 
Q 2975 3584 3395 3211 
Q 3816 2838 3816 1997 
z
" transform="scale(0.015625)"/>
       <path id="DejaVuSans-Bold-74" d="M 1759 4494 
L 1759 3500 
L 2913 3500 
L 2913 2700 
L 1759 2700 
L 1759 1216 
Q 1759 972 1856 886 
Q 1953 800 2241 800 
L 2816 800 
L 2816 0 
L 1856 0 
Q 1194 0 917 276 
Q 641 553 641 1216 
L 641 2700 
L 84 2700 
L 84 3500 
L 641 3500 
L 641 4494 
L 1759 4494 
z
" transform="scale(0.015625)"/>
       <path id="DejaVuSans-Bold-65" d="M 4031 1759 
L 4031 1441 
L 1416 1441 
Q 1456 1047 1700 850 
Q 1944 653 2381 653 
Q 2734 653 3104 758 
Q 3475 863 3866 1075 
L 3866 213 
Q 3469 63 3072 -14 
Q 2675 -91 2278 -91 
Q 1328 -91 801 392 
Q 275 875 275 1747 
Q 275 2603 792 3093 
Q 1309 3584 2216 3584 
Q 3041 3584 3536 3087 
Q 4031 2591 4031 1759 
z
M 2881 2131 
Q 2881 2450 2695 2645 
Q 2509 2841 2209 2841 
Q 1884 2841 1681 2658 
Q 1478 2475 1428 2131 
L 2881 2131 
z
" transform="scale(0.015625)"/>
      </defs>
      <use xlink:href="#DejaVuSans-Bold-44"/>
      <use xlink:href="#DejaVuSans-Bold-61" transform="translate(83.007812 0)"/>
      <use xlink:href="#DejaVuSans-Bold-74" transform="translate(150.488281 0)"/>
      <use xlink:href="#DejaVuSans-Bold-65" transform="translate(198.291016 0)"/>
     </g>
    </g>
   </g>
   <g id="matplotlib.axis_2">
    <g id="ytick_1">
     <g id="line2d_9">
      <path d="M 134.535 548.803705 
L 1112.727898 548.803705 
" clip-path="url(#p23eb504158)" style="fill: none; stroke: #ffffff; stroke-width: 0.8; stroke-linecap: round"/>
     </g>
     <g id="text_10">
      <!-- 0 -->
      <g style="fill: #262626" transform="translate(110.965 557.92183) scale(0.24 -0.24)">
       <use xlink:href="#DejaVuSans-30"/>
      </g>
     </g>
    </g>
    <g id="ytick_2">
     <g id="line2d_10">
      <path d="M 134.535 473.309781 
L 1112.727898 473.309781 
" clip-path="url(#p23eb504158)" style="fill: none; stroke: #ffffff; stroke-width: 0.8; stroke-linecap: round"/>
     </g>
     <g id="text_11">
      <!-- 100000 -->
      <g style="fill: #262626" transform="translate(34.615 482.427906) scale(0.24 -0.24)">
       <defs>
        <path id="DejaVuSans-31" d="M 794 531 
L 1825 531 
L 1825 4091 
L 703 3866 
L 703 4441 
L 1819 4666 
L 2450 4666 
L 2450 531 
L 3481 531 
L 3481 0 
L 794 0 
L 794 531 
z
" transform="scale(0.015625)"/>
       </defs>
       <use xlink:href="#DejaVuSans-31"/>
       <use xlink:href="#DejaVuSans-30" transform="translate(63.623047 0)"/>
       <use xlink:href="#DejaVuSans-30" transform="translate(127.246094 0)"/>
       <use xlink:href="#DejaVuSans-30" transform="translate(190.869141 0)"/>
       <use xlink:href="#DejaVuSans-30" transform="translate(254.492188 0)"/>
       <use xlink:href="#DejaVuSans-30" transform="translate(318.115234 0)"/>
      </g>
     </g>
    </g>
    <g id="ytick_3">
     <g id="line2d_11">
      <path d="M 134.535 397.815857 
L 1112.727898 397.815857 
" clip-path="url(#p23eb504158)" style="fill: none; stroke: #ffffff; stroke-width: 0.8; stroke-linecap: round"/>
     </g>
     <g id="text_12">
      <!-- 200000 -->
      <g style="fill: #262626" transform="translate(34.615 406.933982) scale(0.24 -0.24)">
       <use xlink:href="#DejaVuSans-32"/>
       <use xlink:href="#DejaVuSans-30" transform="translate(63.623047 0)"/>
       <use xlink:href="#DejaVuSans-30" transform="translate(127.246094 0)"/>
       <use xlink:href="#DejaVuSans-30" transform="translate(190.869141 0)"/>
       <use xlink:href="#DejaVuSans-30" transform="translate(254.492188 0)"/>
       <use xlink:href="#DejaVuSans-30" transform="translate(318.115234 0)"/>
      </g>
     </g>
    </g>
    <g id="ytick_4">
     <g id="line2d_12">
      <path d="M 134.535 322.321934 
L 1112.727898 322.321934 
" clip-path="url(#p23eb504158)" style="fill: none; stroke: #ffffff; stroke-width: 0.8; stroke-linecap: round"/>
     </g>
     <g id="text_13">
      <!-- 300000 -->
      <g style="fill: #262626" transform="translate(34.615 331.440059) scale(0.24 -0.24)">
       <use xlink:href="#DejaVuSans-33"/>
       <use xlink:href="#DejaVuSans-30" transform="translate(63.623047 0)"/>
       <use xlink:href="#DejaVuSans-30" transform="translate(127.246094 0)"/>
       <use xlink:href="#DejaVuSans-30" transform="translate(190.869141 0)"/>
       <use xlink:href="#DejaVuSans-30" transform="translate(254.492188 0)"/>
       <use xlink:href="#DejaVuSans-30" transform="translate(318.115234 0)"/>
      </g>
     </g>
    </g>
    <g id="ytick_5">
     <g id="line2d_13">
      <path d="M 134.535 246.82801 
L 1112.727898 246.82801 
" clip-path="url(#p23eb504158)" style="fill: none; stroke: #ffffff; stroke-width: 0.8; stroke-linecap: round"/>
     </g>
     <g id="text_14">
      <!-- 400000 -->
      <g style="fill: #262626" transform="translate(34.615 255.946135) scale(0.24 -0.24)">
       <use xlink:href="#DejaVuSans-34"/>
       <use xlink:href="#DejaVuSans-30" transform="translate(63.623047 0)"/>
       <use xlink:href="#DejaVuSans-30" transform="translate(127.246094 0)"/>
       <use xlink:href="#DejaVuSans-30" transform="translate(190.869141 0)"/>
       <use xlink:href="#DejaVuSans-30" transform="translate(254.492188 0)"/>
       <use xlink:href="#DejaVuSans-30" transform="translate(318.115234 0)"/>
      </g>
     </g>
    </g>
    <g id="ytick_6">
     <g id="line2d_14">
      <path d="M 134.535 171.334087 
L 1112.727898 171.334087 
" clip-path="url(#p23eb504158)" style="fill: none; stroke: #ffffff; stroke-width: 0.8; stroke-linecap: round"/>
     </g>
     <g id="text_15">
      <!-- 500000 -->
      <g style="fill: #262626" transform="translate(34.615 180.452212) scale(0.24 -0.24)">
       <use xlink:href="#DejaVuSans-35"/>
       <use xlink:href="#DejaVuSans-30" transform="translate(63.623047 0)"/>
       <use xlink:href="#DejaVuSans-30" transform="translate(127.246094 0)"/>
       <use xlink:href="#DejaVuSans-30" transform="translate(190.869141 0)"/>
       <use xlink:href="#DejaVuSans-30" transform="translate(254.492188 0)"/>
       <use xlink:href="#DejaVuSans-30" transform="translate(318.115234 0)"/>
      </g>
     </g>
    </g>
    <g id="ytick_7">
     <g id="line2d_15">
      <path d="M 134.535 95.840163 
L 1112.727898 95.840163 
" clip-path="url(#p23eb504158)" style="fill: none; stroke: #ffffff; stroke-width: 0.8; stroke-linecap: round"/>
     </g>
     <g id="text_16">
      <!-- 600000 -->
      <g style="fill: #262626" transform="translate(34.615 104.958288) scale(0.24 -0.24)">
       <use xlink:href="#DejaVuSans-36"/>
       <use xlink:href="#DejaVuSans-30" transform="translate(63.623047 0)"/>
       <use xlink:href="#DejaVuSans-30" transform="translate(127.246094 0)"/>
       <use xlink:href="#DejaVuSans-30" transform="translate(190.869141 0)"/>
       <use xlink:href="#DejaVuSans-30" transform="translate(254.492188 0)"/>
       <use xlink:href="#DejaVuSans-30" transform="translate(318.115234 0)"/>
      </g>
     </g>
    </g>
    <g id="text_17">
     <!-- WGPR:A3 [Sm³/day] -->
     <g style="fill: #262626" transform="translate(25.43625 436.060125) rotate(-90) scale(0.24 -0.24)">
      <defs>
       <path id="DejaVuSans-Bold-57" d="M 191 4666 
L 1344 4666 
L 2150 1275 
L 2950 4666 
L 4109 4666 
L 4909 1275 
L 5716 4666 
L 6859 4666 
L 5759 0 
L 4372 0 
L 3525 3547 
L 2688 0 
L 1300 0 
L 191 4666 
z
" transform="scale(0.015625)"/>
       <path id="DejaVuSans-Bold-47" d="M 4781 347 
Q 4331 128 3847 18 
Q 3363 -91 2847 -91 
Q 1681 -91 1000 561 
Q 319 1213 319 2328 
Q 319 3456 1012 4103 
Q 1706 4750 2913 4750 
Q 3378 4750 3804 4662 
Q 4231 4575 4609 4403 
L 4609 3438 
Q 4219 3659 3833 3768 
Q 3447 3878 3059 3878 
Q 2341 3878 1952 3476 
Q 1563 3075 1563 2328 
Q 1563 1588 1938 1184 
Q 2313 781 3003 781 
Q 3191 781 3352 804 
Q 3513 828 3641 878 
L 3641 1784 
L 2906 1784 
L 2906 2591 
L 4781 2591 
L 4781 347 
z
" transform="scale(0.015625)"/>
       <path id="DejaVuSans-Bold-50" d="M 588 4666 
L 2584 4666 
Q 3475 4666 3951 4270 
Q 4428 3875 4428 3144 
Q 4428 2409 3951 2014 
Q 3475 1619 2584 1619 
L 1791 1619 
L 1791 0 
L 588 0 
L 588 4666 
z
M 1791 3794 
L 1791 2491 
L 2456 2491 
Q 2806 2491 2997 2661 
Q 3188 2831 3188 3144 
Q 3188 3456 2997 3625 
Q 2806 3794 2456 3794 
L 1791 3794 
z
" transform="scale(0.015625)"/>
       <path id="DejaVuSans-Bold-52" d="M 2297 2597 
Q 2675 2597 2839 2737 
Q 3003 2878 3003 3200 
Q 3003 3519 2839 3656 
Q 2675 3794 2297 3794 
L 1791 3794 
L 1791 2597 
L 2297 2597 
z
M 1791 1766 
L 1791 0 
L 588 0 
L 588 4666 
L 2425 4666 
Q 3347 4666 3776 4356 
Q 4206 4047 4206 3378 
Q 4206 2916 3982 2619 
Q 3759 2322 3309 2181 
Q 3556 2125 3751 1926 
Q 3947 1728 4147 1325 
L 4800 0 
L 3519 0 
L 2950 1159 
Q 2778 1509 2601 1637 
Q 2425 1766 2131 1766 
L 1791 1766 
z
" transform="scale(0.015625)"/>
       <path id="DejaVuSans-Bold-3a" d="M 716 3500 
L 1844 3500 
L 1844 2291 
L 716 2291 
L 716 3500 
z
M 716 1209 
L 1844 1209 
L 1844 0 
L 716 0 
L 716 1209 
z
" transform="scale(0.015625)"/>
       <path id="DejaVuSans-Bold-41" d="M 3419 850 
L 1538 850 
L 1241 0 
L 31 0 
L 1759 4666 
L 3194 4666 
L 4922 0 
L 3713 0 
L 3419 850 
z
M 1838 1716 
L 3116 1716 
L 2478 3572 
L 1838 1716 
z
" transform="scale(0.015625)"/>
       <path id="DejaVuSans-Bold-33" d="M 2981 2516 
Q 3453 2394 3698 2092 
Q 3944 1791 3944 1325 
Q 3944 631 3412 270 
Q 2881 -91 1863 -91 
Q 1503 -91 1142 -33 
Q 781 25 428 141 
L 428 1069 
Q 766 900 1098 814 
Q 1431 728 1753 728 
Q 2231 728 2486 893 
Q 2741 1059 2741 1369 
Q 2741 1688 2480 1852 
Q 2219 2016 1709 2016 
L 1228 2016 
L 1228 2791 
L 1734 2791 
Q 2188 2791 2409 2933 
Q 2631 3075 2631 3366 
Q 2631 3634 2415 3781 
Q 2200 3928 1806 3928 
Q 1516 3928 1219 3862 
Q 922 3797 628 3669 
L 628 4550 
Q 984 4650 1334 4700 
Q 1684 4750 2022 4750 
Q 2931 4750 3382 4451 
Q 3834 4153 3834 3553 
Q 3834 3144 3618 2883 
Q 3403 2622 2981 2516 
z
" transform="scale(0.015625)"/>
       <path id="DejaVuSans-Bold-20" transform="scale(0.015625)"/>
       <path id="DejaVuSans-Bold-5b" d="M 550 4863 
L 2491 4863 
L 2491 4159 
L 1613 4159 
L 1613 -141 
L 2491 -141 
L 2491 -844 
L 550 -844 
L 550 4863 
z
" transform="scale(0.015625)"/>
       <path id="DejaVuSans-Bold-53" d="M 3834 4519 
L 3834 3531 
Q 3450 3703 3084 3790 
Q 2719 3878 2394 3878 
Q 1963 3878 1756 3759 
Q 1550 3641 1550 3391 
Q 1550 3203 1689 3098 
Q 1828 2994 2194 2919 
L 2706 2816 
Q 3484 2659 3812 2340 
Q 4141 2022 4141 1434 
Q 4141 663 3683 286 
Q 3225 -91 2284 -91 
Q 1841 -91 1394 -6 
Q 947 78 500 244 
L 500 1259 
Q 947 1022 1364 901 
Q 1781 781 2169 781 
Q 2563 781 2772 912 
Q 2981 1044 2981 1288 
Q 2981 1506 2839 1625 
Q 2697 1744 2272 1838 
L 1806 1941 
Q 1106 2091 782 2419 
Q 459 2747 459 3303 
Q 459 4000 909 4375 
Q 1359 4750 2203 4750 
Q 2588 4750 2994 4692 
Q 3400 4634 3834 4519 
z
" transform="scale(0.015625)"/>
       <path id="DejaVuSans-Bold-6d" d="M 3781 2919 
Q 3994 3244 4286 3414 
Q 4578 3584 4928 3584 
Q 5531 3584 5847 3212 
Q 6163 2841 6163 2131 
L 6163 0 
L 5038 0 
L 5038 1825 
Q 5041 1866 5042 1909 
Q 5044 1953 5044 2034 
Q 5044 2406 4934 2573 
Q 4825 2741 4581 2741 
Q 4263 2741 4089 2478 
Q 3916 2216 3909 1719 
L 3909 0 
L 2784 0 
L 2784 1825 
Q 2784 2406 2684 2573 
Q 2584 2741 2328 2741 
Q 2006 2741 1831 2477 
Q 1656 2213 1656 1722 
L 1656 0 
L 531 0 
L 531 3500 
L 1656 3500 
L 1656 2988 
Q 1863 3284 2130 3434 
Q 2397 3584 2719 3584 
Q 3081 3584 3359 3409 
Q 3638 3234 3781 2919 
z
" transform="scale(0.015625)"/>
       <path id="DejaVuSans-Bold-b3" d="M 1850 3500 
Q 2138 3444 2297 3272 
Q 2456 3100 2456 2847 
Q 2456 2444 2147 2242 
Q 1838 2041 1209 2041 
Q 956 2041 725 2077 
Q 494 2113 281 2181 
L 281 2725 
Q 488 2613 688 2555 
Q 888 2497 1075 2497 
Q 1372 2497 1534 2597 
Q 1697 2697 1697 2881 
Q 1697 3081 1530 3176 
Q 1363 3272 1006 3272 
L 775 3272 
L 775 3700 
L 1038 3700 
Q 1344 3700 1484 3773 
Q 1625 3847 1625 4006 
Q 1625 4147 1503 4217 
Q 1381 4288 1131 4288 
Q 969 4288 776 4247 
Q 584 4206 366 4122 
L 366 4641 
Q 569 4694 805 4722 
Q 1041 4750 1313 4750 
Q 1834 4750 2111 4575 
Q 2388 4400 2388 4072 
Q 2388 3856 2247 3706 
Q 2106 3556 1850 3500 
z
" transform="scale(0.015625)"/>
       <path id="DejaVuSans-Bold-2f" d="M 1644 4666 
L 2338 4666 
L 691 -594 
L 0 -594 
L 1644 4666 
z
" transform="scale(0.015625)"/>
       <path id="DejaVuSans-Bold-64" d="M 2919 2988 
L 2919 4863 
L 4044 4863 
L 4044 0 
L 2919 0 
L 2919 506 
Q 2688 197 2409 53 
Q 2131 -91 1766 -91 
Q 1119 -91 703 423 
Q 288 938 288 1747 
Q 288 2556 703 3070 
Q 1119 3584 1766 3584 
Q 2128 3584 2408 3439 
Q 2688 3294 2919 2988 
z
M 2181 722 
Q 2541 722 2730 984 
Q 2919 1247 2919 1747 
Q 2919 2247 2730 2509 
Q 2541 2772 2181 2772 
Q 1825 2772 1636 2509 
Q 1447 2247 1447 1747 
Q 1447 1247 1636 984 
Q 1825 722 2181 722 
z
" transform="scale(0.015625)"/>
       <path id="DejaVuSans-Bold-79" d="M 78 3500 
L 1197 3500 
L 2138 1125 
L 2938 3500 
L 4056 3500 
L 2584 -331 
Q 2363 -916 2067 -1148 
Q 1772 -1381 1288 -1381 
L 641 -1381 
L 641 -647 
L 991 -647 
Q 1275 -647 1404 -556 
Q 1534 -466 1606 -231 
L 1638 -134 
L 78 3500 
z
" transform="scale(0.015625)"/>
       <path id="DejaVuSans-Bold-5d" d="M 2375 -844 
L 434 -844 
L 434 -141 
L 1313 -141 
L 1313 4159 
L 434 4159 
L 434 4863 
L 2375 4863 
L 2375 -844 
z
" transform="scale(0.015625)"/>
      </defs>
      <use xlink:href="#DejaVuSans-Bold-57"/>
      <use xlink:href="#DejaVuSans-Bold-47" transform="translate(110.302734 0)"/>
      <use xlink:href="#DejaVuSans-Bold-50" transform="translate(192.382812 0)"/>
      <use xlink:href="#DejaVuSans-Bold-52" transform="translate(265.673828 0)"/>
      <use xlink:href="#DejaVuSans-Bold-3a" transform="translate(342.675781 0)"/>
      <use xlink:href="#DejaVuSans-Bold-41" transform="translate(382.666016 0)"/>
      <use xlink:href="#DejaVuSans-Bold-33" transform="translate(460.058594 0)"/>
      <use xlink:href="#DejaVuSans-Bold-20" transform="translate(529.638672 0)"/>
      <use xlink:href="#DejaVuSans-Bold-5b" transform="translate(564.453125 0)"/>
      <use xlink:href="#DejaVuSans-Bold-53" transform="translate(610.15625 0)"/>
      <use xlink:href="#DejaVuSans-Bold-6d" transform="translate(682.177734 0)"/>
      <use xlink:href="#DejaVuSans-Bold-b3" transform="translate(786.376953 0)"/>
      <use xlink:href="#DejaVuSans-Bold-2f" transform="translate(830.175781 0)"/>
      <use xlink:href="#DejaVuSans-Bold-64" transform="translate(866.699219 0)"/>
      <use xlink:href="#DejaVuSans-Bold-61" transform="translate(938.28125 0)"/>
      <use xlink:href="#DejaVuSans-Bold-79" transform="translate(1002.636719 0)"/>
      <use xlink:href="#DejaVuSans-Bold-5d" transform="translate(1067.822266 0)"/>
     </g>
    </g>
   </g>
   <g id="FillBetweenPolyCollection_1">
    <defs>
     <path id="m825388f18d" d="M 94.438926 -92.52717 
L 94.438926 -92.52717 
L 95.573721 -92.52717 
L 98.978104 -92.52717 
L 109.191255 -92.52717 
L 120.539201 -92.52717 
L 131.887146 -92.52717 
L 139.452443 -92.52717 
L 173.496279 -92.52717 
L 179.359385 -92.52717 
L 185.22249 -92.52717 
L 207.918381 -92.52717 
L 230.992536 -92.52717 
L 242.718747 -336.718117 
L 276.762583 -289.548582 
L 277.519113 -288.092728 
L 311.941214 -226.915437 
L 322.53263 -212.060663 
L 346.363315 -183.52304 
L 368.302676 -166.92576 
L 381.163681 -150.513552 
L 415.964047 -134.434986 
L 450.007884 -125.532055 
L 484.429985 -121.616171 
L 519.230351 -117.162492 
L 554.030717 -115.050327 
L 588.074553 -113.534356 
L 622.496654 -111.617502 
L 657.29702 -110.239015 
L 692.097387 -108.813386 
L 726.141223 -107.879007 
L 737.489168 -107.537172 
L 748.837114 -107.292424 
L 754.700219 -107.151533 
L 760.563324 -107.034888 
L 795.36369 -106.531949 
L 830.164056 -106.20036 
L 841.512002 -106.094405 
L 864.586157 -105.60186 
L 875.934103 -105.516443 
L 899.008259 -105.279864 
L 910.356204 -105.315977 
L 933.808625 -104.913576 
L 945.15657 -105.011938 
L 956.504516 -104.854382 
L 962.556753 -104.768013 
L 968.608991 -104.688934 
L 1002.652827 -104.277152 
L 1037.074928 -103.926087 
L 1071.875294 -103.602731 
L 1083.22324 -103.506962 
L 1094.571185 -103.415106 
L 1100.623423 -103.365857 
L 1106.67566 -103.318297 
L 1106.67566 -128.22766 
L 1106.67566 -128.22766 
L 1100.623423 -128.49428 
L 1094.571185 -128.781906 
L 1083.22324 -129.263879 
L 1071.875294 -129.715704 
L 1037.074928 -131.132206 
L 1002.652827 -132.736591 
L 968.608991 -134.447604 
L 962.556753 -134.623915 
L 956.504516 -134.800477 
L 945.15657 -135.183331 
L 933.808625 -135.661786 
L 910.356204 -136.891007 
L 899.008259 -137.726937 
L 875.934103 -139.497446 
L 864.586157 -140.387334 
L 841.512002 -142.220786 
L 830.164056 -143.141334 
L 795.36369 -146.025833 
L 760.563324 -148.973948 
L 754.700219 -149.073611 
L 748.837114 -149.090409 
L 737.489168 -149.592614 
L 726.141223 -150.035711 
L 692.097387 -151.054212 
L 657.29702 -152.008556 
L 622.496654 -154.951138 
L 588.074553 -158.558202 
L 554.030717 -162.845685 
L 519.230351 -168.477425 
L 484.429985 -174.348134 
L 450.007884 -183.878911 
L 415.964047 -202.982118 
L 381.163681 -228.596427 
L 368.302676 -255.896835 
L 346.363315 -285.753939 
L 322.53263 -351.124929 
L 311.941214 -412.027906 
L 277.519113 -476.329195 
L 276.762583 -486.151285 
L 242.718747 -350.838689 
L 230.992536 -92.52717 
L 207.918381 -92.52717 
L 185.22249 -92.52717 
L 179.359385 -92.52717 
L 173.496279 -92.52717 
L 139.452443 -92.52717 
L 131.887146 -92.52717 
L 120.539201 -92.52717 
L 109.191255 -92.52717 
L 98.978104 -92.52717 
L 95.573721 -92.52717 
L 94.438926 -92.52717 
z
" style="stroke: #58508d; stroke-opacity: 0.7; stroke-width: 0.8"/>
    </defs>
    <g clip-path="url(#p23eb504158)">
     <use xlink:href="#m825388f18d" x="0" y="641.330875" style="fill: #58508d; fill-opacity: 0.7; stroke: #58508d; stroke-opacity: 0.7; stroke-width: 0.8"/>
    </g>
   </g>
   <g id="FillBetweenPolyCollection_2">
    <defs>
     <path id="ma69063ab88" d="M 94.438926 -92.52717 
L 94.438926 -92.52717 
L 95.573721 -92.52717 
L 98.978104 -92.52717 
L 109.191255 -92.52717 
L 120.539201 -92.52717 
L 131.887146 -92.52717 
L 139.452443 -92.52717 
L 173.496279 -92.52717 
L 179.359385 -92.52717 
L 185.22249 -92.52717 
L 207.918381 -92.52717 
L 230.992536 -92.52717 
L 242.718747 -92.52717 
L 276.762583 -92.52717 
L 277.519113 -92.52717 
L 311.941214 -92.52717 
L 322.53263 -92.52717 
L 346.363315 -317.469691 
L 368.302676 -306.37961 
L 381.163681 -256.698474 
L 415.964047 -183.797177 
L 450.007884 -155.984473 
L 484.429985 -140.5104 
L 519.230351 -131.088072 
L 554.030717 -124.127172 
L 588.074553 -119.965508 
L 622.496654 -116.241761 
L 657.29702 -113.771245 
L 692.097387 -111.903664 
L 726.141223 -110.399394 
L 737.489168 -109.955593 
L 748.837114 -109.538793 
L 754.700219 -109.318482 
L 760.563324 -109.114698 
L 795.36369 -108.310215 
L 830.164056 -107.611779 
L 841.512002 -107.423512 
L 864.586157 -107.044068 
L 875.934103 -106.874375 
L 899.008259 -106.316103 
L 910.356204 -106.248949 
L 933.808625 -106.11797 
L 945.15657 -105.964213 
L 956.504516 -105.795916 
L 962.556753 -105.707627 
L 968.608991 -105.637949 
L 1002.652827 -105.207245 
L 1037.074928 -104.817018 
L 1071.875294 -104.522656 
L 1083.22324 -104.398451 
L 1094.571185 -104.217882 
L 1100.623423 -104.147351 
L 1106.67566 -104.075834 
L 1106.67566 -133.086959 
L 1106.67566 -133.086959 
L 1100.623423 -133.291613 
L 1094.571185 -133.467917 
L 1083.22324 -133.797731 
L 1071.875294 -134.123777 
L 1037.074928 -135.119786 
L 1002.652827 -136.905922 
L 968.608991 -138.110151 
L 962.556753 -138.290345 
L 956.504516 -138.477615 
L 945.15657 -139.144453 
L 933.808625 -140.002722 
L 910.356204 -141.858179 
L 899.008259 -142.79428 
L 875.934103 -144.82522 
L 864.586157 -145.862247 
L 841.512002 -148.006752 
L 830.164056 -149.077604 
L 795.36369 -152.385471 
L 760.563324 -158.261293 
L 754.700219 -159.507621 
L 748.837114 -159.805214 
L 737.489168 -160.304848 
L 726.141223 -160.834426 
L 692.097387 -162.579917 
L 657.29702 -164.741178 
L 622.496654 -168.946142 
L 588.074553 -173.177606 
L 554.030717 -180.890466 
L 519.230351 -192.00365 
L 484.429985 -207.442145 
L 450.007884 -238.88271 
L 415.964047 -286.371066 
L 381.163681 -441.879572 
L 368.302676 -585.25808 
L 346.363315 -576.992155 
L 322.53263 -92.52717 
L 311.941214 -92.52717 
L 277.519113 -92.52717 
L 276.762583 -92.52717 
L 242.718747 -92.52717 
L 230.992536 -92.52717 
L 207.918381 -92.52717 
L 185.22249 -92.52717 
L 179.359385 -92.52717 
L 173.496279 -92.52717 
L 139.452443 -92.52717 
L 131.887146 -92.52717 
L 120.539201 -92.52717 
L 109.191255 -92.52717 
L 98.978104 -92.52717 
L 95.573721 -92.52717 
L 94.438926 -92.52717 
z
" style="stroke: #ffa600; stroke-opacity: 0.7; stroke-width: 0.8"/>
    </defs>
    <g clip-path="url(#p23eb504158)">
     <use xlink:href="#ma69063ab88" x="0" y="641.330875" style="fill: #ffa600; fill-opacity: 0.7; stroke: #ffa600; stroke-opacity: 0.7; stroke-width: 0.8"/>
    </g>
   </g>
   <g id="line2d_16">
    <path d="M 94.438926 548.803705 
L 95.573721 548.803705 
L 98.978104 548.803705 
L 109.191255 548.803705 
L 120.539201 548.803705 
L 131.887146 548.803705 
L 139.452443 548.803705 
L 173.496279 548.803705 
L 179.359385 548.803705 
L 185.22249 548.803705 
L 207.918381 548.803705 
L 230.992536 548.803705 
L 242.718747 297.411097 
L 276.762583 269.030213 
L 277.519113 269.584774 
L 311.941214 344.242172 
L 322.53263 369.686348 
L 346.363315 412.105862 
L 368.302676 436.661553 
L 381.163681 455.21422 
L 415.964047 477.546739 
L 450.007884 488.985403 
L 484.429985 496.849438 
L 519.230351 502.455888 
L 554.030717 506.576695 
L 588.074553 509.413588 
L 622.496654 511.626769 
L 657.29702 513.429309 
L 692.097387 514.895017 
L 726.141223 516.116774 
L 737.489168 516.505005 
L 748.837114 516.86435 
L 754.700219 517.062768 
L 760.563324 517.248298 
L 795.36369 518.279668 
L 830.164056 519.302221 
L 841.512002 519.605384 
L 864.586157 520.236511 
L 875.934103 520.528653 
L 899.008259 521.133905 
L 910.356204 521.436236 
L 933.808625 522.030275 
L 945.15657 522.300434 
L 956.504516 522.591288 
L 962.556753 522.749812 
L 968.608991 522.902171 
L 1002.652827 523.801782 
L 1037.074928 524.666348 
L 1071.875294 525.495089 
L 1083.22324 525.738969 
L 1094.571185 525.985509 
L 1100.623423 526.119007 
L 1106.67566 526.24552 
" clip-path="url(#p23eb504158)" style="fill: none; stroke: #000000; stroke-width: 4; stroke-linecap: round"/>
   </g>
   <g id="line2d_17">
    <path d="M 94.438926 548.803705 
L 95.573721 548.803705 
L 98.978104 548.803705 
L 109.191255 548.803705 
L 120.539201 548.803705 
L 131.887146 548.803705 
L 139.452443 548.803705 
L 173.496279 548.803705 
L 179.359385 548.803705 
L 185.22249 548.803705 
L 207.918381 548.803705 
L 230.992536 548.803705 
L 242.718747 290.492186 
L 276.762583 155.17959 
L 277.519113 165.00168 
L 311.941214 229.302969 
L 322.53263 290.205946 
L 346.363315 355.576936 
L 368.302676 385.43404 
L 381.163681 412.734448 
L 415.964047 438.348757 
L 450.007884 457.451964 
L 484.429985 466.982741 
L 519.230351 472.85345 
L 554.030717 478.48519 
L 588.074553 482.772673 
L 622.496654 486.379737 
L 657.29702 489.322319 
L 692.097387 490.276663 
L 726.141223 491.295164 
L 737.489168 491.738261 
L 748.837114 492.240466 
L 754.700219 492.257264 
L 760.563324 492.356927 
L 795.36369 495.305042 
L 830.164056 498.189541 
L 841.512002 499.110089 
L 864.586157 500.943541 
L 875.934103 501.833429 
L 899.008259 503.603938 
L 910.356204 504.439868 
L 933.808625 505.669089 
L 945.15657 506.147544 
L 956.504516 506.530398 
L 962.556753 506.70696 
L 968.608991 506.883271 
L 1002.652827 508.594284 
L 1037.074928 510.198669 
L 1071.875294 511.615171 
L 1083.22324 512.066996 
L 1094.571185 512.548969 
L 1100.623423 512.836595 
L 1106.67566 513.103215 
" clip-path="url(#p23eb504158)" style="fill: none; stroke-dasharray: 7.4,3.2; stroke-dashoffset: 0; stroke: #000000; stroke-width: 2"/>
   </g>
   <g id="line2d_18">
    <path d="M 94.438926 548.803705 
L 95.573721 548.803705 
L 98.978104 548.803705 
L 109.191255 548.803705 
L 120.539201 548.803705 
L 131.887146 548.803705 
L 139.452443 548.803705 
L 173.496279 548.803705 
L 179.359385 548.803705 
L 185.22249 548.803705 
L 207.918381 548.803705 
L 230.992536 548.803705 
L 242.718747 304.612758 
L 276.762583 351.782293 
L 277.519113 353.238147 
L 311.941214 414.415438 
L 322.53263 429.270212 
L 346.363315 457.807835 
L 368.302676 474.405115 
L 381.163681 490.817323 
L 415.964047 506.895889 
L 450.007884 515.79882 
L 484.429985 519.714704 
L 519.230351 524.168383 
L 554.030717 526.280548 
L 588.074553 527.796519 
L 622.496654 529.713373 
L 657.29702 531.09186 
L 692.097387 532.517489 
L 726.141223 533.451868 
L 737.489168 533.793703 
L 748.837114 534.038451 
L 754.700219 534.179342 
L 760.563324 534.295987 
L 795.36369 534.798926 
L 830.164056 535.130515 
L 841.512002 535.23647 
L 864.586157 535.729015 
L 875.934103 535.814432 
L 899.008259 536.051011 
L 910.356204 536.014898 
L 933.808625 536.417299 
L 945.15657 536.318937 
L 956.504516 536.476493 
L 962.556753 536.562862 
L 968.608991 536.641941 
L 1002.652827 537.053723 
L 1037.074928 537.404788 
L 1071.875294 537.728144 
L 1083.22324 537.823913 
L 1094.571185 537.915769 
L 1100.623423 537.965018 
L 1106.67566 538.012578 
" clip-path="url(#p23eb504158)" style="fill: none; stroke-dasharray: 2,3.3; stroke-dashoffset: 0; stroke: #000000; stroke-width: 2"/>
   </g>
   <g id="line2d_19">
    <path d="M 94.438926 548.803705 
L 95.573721 548.803705 
L 98.978104 548.803705 
L 109.191255 548.803705 
L 120.539201 548.803705 
L 131.887146 548.803705 
L 139.452443 548.803705 
L 173.496279 548.803705 
L 179.359385 548.803705 
L 185.22249 548.803705 
L 207.918381 548.803705 
L 230.992536 548.803705 
L 242.718747 548.803705 
L 276.762583 548.803705 
L 277.519113 548.803705 
L 311.941214 548.803705 
L 322.53263 548.803705 
L 346.363315 234.365344 
L 368.302676 241.411515 
L 381.163681 305.964294 
L 415.964047 409.231113 
L 450.007884 449.962882 
L 484.429985 472.645243 
L 519.230351 486.117857 
L 554.030717 494.461544 
L 588.074553 499.957396 
L 622.496654 503.834125 
L 657.29702 506.794669 
L 692.097387 509.070823 
L 726.141223 510.829382 
L 737.489168 511.357161 
L 748.837114 511.872589 
L 754.700219 512.13409 
L 760.563324 512.382065 
L 795.36369 513.811864 
L 830.164056 515.093097 
L 841.512002 515.49452 
L 864.586157 516.352188 
L 875.934103 516.755469 
L 899.008259 517.578737 
L 910.356204 517.978044 
L 933.808625 518.805465 
L 945.15657 519.178966 
L 956.504516 519.563548 
L 962.556753 519.762236 
L 968.608991 519.953505 
L 1002.652827 521.001732 
L 1037.074928 522.054976 
L 1071.875294 523.082101 
L 1083.22324 523.392759 
L 1094.571185 523.711829 
L 1100.623423 523.878923 
L 1106.67566 524.041567 
" clip-path="url(#p23eb504158)" style="fill: none; stroke: #808080; stroke-width: 4; stroke-linecap: round"/>
   </g>
   <g id="line2d_20">
    <path d="M 94.438926 548.803705 
L 95.573721 548.803705 
L 98.978104 548.803705 
L 109.191255 548.803705 
L 120.539201 548.803705 
L 131.887146 548.803705 
L 139.452443 548.803705 
L 173.496279 548.803705 
L 179.359385 548.803705 
L 185.22249 548.803705 
L 207.918381 548.803705 
L 230.992536 548.803705 
L 242.718747 548.803705 
L 276.762583 548.803705 
L 277.519113 548.803705 
L 311.941214 548.803705 
L 322.53263 548.803705 
L 346.363315 64.33872 
L 368.302676 56.072795 
L 381.163681 199.451303 
L 415.964047 354.959809 
L 450.007884 402.448165 
L 484.429985 433.88873 
L 519.230351 449.327225 
L 554.030717 460.440409 
L 588.074553 468.153269 
L 622.496654 472.384733 
L 657.29702 476.589697 
L 692.097387 478.750958 
L 726.141223 480.496449 
L 737.489168 481.026027 
L 748.837114 481.525661 
L 754.700219 481.823254 
L 760.563324 483.069582 
L 795.36369 488.945404 
L 830.164056 492.253271 
L 841.512002 493.324123 
L 864.586157 495.468628 
L 875.934103 496.505655 
L 899.008259 498.536595 
L 910.356204 499.472696 
L 933.808625 501.328153 
L 945.15657 502.186422 
L 956.504516 502.85326 
L 962.556753 503.04053 
L 968.608991 503.220724 
L 1002.652827 504.424953 
L 1037.074928 506.211089 
L 1071.875294 507.207098 
L 1083.22324 507.533144 
L 1094.571185 507.862958 
L 1100.623423 508.039262 
L 1106.67566 508.243916 
" clip-path="url(#p23eb504158)" style="fill: none; stroke-dasharray: 7.4,3.2; stroke-dashoffset: 0; stroke: #808080; stroke-width: 2"/>
   </g>
   <g id="line2d_21">
    <path d="M 94.438926 548.803705 
L 95.573721 548.803705 
L 98.978104 548.803705 
L 109.191255 548.803705 
L 120.539201 548.803705 
L 131.887146 548.803705 
L 139.452443 548.803705 
L 173.496279 548.803705 
L 179.359385 548.803705 
L 185.22249 548.803705 
L 207.918381 548.803705 
L 230.992536 548.803705 
L 242.718747 548.803705 
L 276.762583 548.803705 
L 277.519113 548.803705 
L 311.941214 548.803705 
L 322.53263 548.803705 
L 346.363315 323.861184 
L 368.302676 334.951265 
L 381.163681 384.632401 
L 415.964047 457.533698 
L 450.007884 485.346402 
L 484.429985 500.820475 
L 519.230351 510.242803 
L 554.030717 517.203703 
L 588.074553 521.365367 
L 622.496654 525.089114 
L 657.29702 527.55963 
L 692.097387 529.427211 
L 726.141223 530.931481 
L 737.489168 531.375282 
L 748.837114 531.792082 
L 754.700219 532.012393 
L 760.563324 532.216177 
L 795.36369 533.02066 
L 830.164056 533.719096 
L 841.512002 533.907363 
L 864.586157 534.286807 
L 875.934103 534.4565 
L 899.008259 535.014772 
L 910.356204 535.081926 
L 933.808625 535.212905 
L 945.15657 535.366662 
L 956.504516 535.534959 
L 962.556753 535.623248 
L 968.608991 535.692926 
L 1002.652827 536.12363 
L 1037.074928 536.513857 
L 1071.875294 536.808219 
L 1083.22324 536.932424 
L 1094.571185 537.112993 
L 1100.623423 537.183524 
L 1106.67566 537.255041 
" clip-path="url(#p23eb504158)" style="fill: none; stroke-dasharray: 2,3.3; stroke-dashoffset: 0; stroke: #808080; stroke-width: 2"/>
   </g>
   <g id="patch_3">
    <path d="M 134.535 573.44025 
L 134.535 31.43625 
" style="fill: none; stroke: #ffffff; stroke-linejoin: miter; stroke-linecap: square"/>
   </g>
   <g id="patch_4">
    <path d="M 1112.727898 573.44025 
L 1112.727898 31.43625 
" style="fill: none; stroke: #ffffff; stroke-linejoin: miter; stroke-linecap: square"/>
   </g>
   <g id="patch_5">
    <path d="M 134.535 573.44025 
L 1112.727898 573.44025 
" style="fill: none; stroke: #ffffff; stroke-linejoin: miter; stroke-linecap: square"/>
   </g>
   <g id="patch_6">
    <path d="M 134.535 31.43625 
L 1112.727898 31.43625 
" style="fill: none; stroke: #ffffff; stroke-linejoin: miter; stroke-linecap: square"/>
   </g>
   <g id="text_18">
    <!-- WGPR:A3 -->
    <g style="fill: #262626" transform="translate(560.076449 25.43625) scale(0.24 -0.24)">
     <use xlink:href="#DejaVuSans-Bold-57"/>
     <use xlink:href="#DejaVuSans-Bold-47" transform="translate(110.302734 0)"/>
     <use xlink:href="#DejaVuSans-Bold-50" transform="translate(192.382812 0)"/>
     <use xlink:href="#DejaVuSans-Bold-52" transform="translate(265.673828 0)"/>
     <use xlink:href="#DejaVuSans-Bold-3a" transform="translate(342.675781 0)"/>
     <use xlink:href="#DejaVuSans-Bold-41" transform="translate(382.666016 0)"/>
     <use xlink:href="#DejaVuSans-Bold-33" transform="translate(460.058594 0)"/>
    </g>
   </g>
   <g id="legend_1">
    <g id="patch_7">
     <path d="M 870.16071 210.495625 
L 1097.327898 210.495625 
Q 1101.727898 210.495625 1101.727898 206.095625 
L 1101.727898 46.83625 
Q 1101.727898 42.43625 1097.327898 42.43625 
L 870.16071 42.43625 
Q 865.76071 42.43625 865.76071 46.83625 
L 865.76071 206.095625 
Q 865.76071 210.495625 870.16071 210.495625 
z
" style="fill: #eaeaf2; opacity: 0.8; stroke: #cccccc; stroke-width: 0.8; stroke-linejoin: miter"/>
    </g>
    <g id="line2d_22">
     <path d="M 874.56071 60.252813 
L 896.56071 60.252813 
L 918.56071 60.252813 
" style="fill: none; stroke: #000000; stroke-width: 4; stroke-linecap: round"/>
    </g>
    <g id="text_19">
     <!-- Mean -->
     <g style="fill: #262626" transform="translate(936.16071 67.952813) scale(0.22 -0.22)">
      <defs>
       <path id="DejaVuSans-4d" d="M 628 4666 
L 1569 4666 
L 2759 1491 
L 3956 4666 
L 4897 4666 
L 4897 0 
L 4281 0 
L 4281 4097 
L 3078 897 
L 2444 897 
L 1241 4097 
L 1241 0 
L 628 0 
L 628 4666 
z
" transform="scale(0.015625)"/>
       <path id="DejaVuSans-65" d="M 3597 1894 
L 3597 1613 
L 953 1613 
Q 991 1019 1311 708 
Q 1631 397 2203 397 
Q 2534 397 2845 478 
Q 3156 559 3463 722 
L 3463 178 
Q 3153 47 2828 -22 
Q 2503 -91 2169 -91 
Q 1331 -91 842 396 
Q 353 884 353 1716 
Q 353 2575 817 3079 
Q 1281 3584 2069 3584 
Q 2775 3584 3186 3129 
Q 3597 2675 3597 1894 
z
M 3022 2063 
Q 3016 2534 2758 2815 
Q 2500 3097 2075 3097 
Q 1594 3097 1305 2825 
Q 1016 2553 972 2059 
L 3022 2063 
z
" transform="scale(0.015625)"/>
       <path id="DejaVuSans-61" d="M 2194 1759 
Q 1497 1759 1228 1600 
Q 959 1441 959 1056 
Q 959 750 1161 570 
Q 1363 391 1709 391 
Q 2188 391 2477 730 
Q 2766 1069 2766 1631 
L 2766 1759 
L 2194 1759 
z
M 3341 1997 
L 3341 0 
L 2766 0 
L 2766 531 
Q 2569 213 2275 61 
Q 1981 -91 1556 -91 
Q 1019 -91 701 211 
Q 384 513 384 1019 
Q 384 1609 779 1909 
Q 1175 2209 1959 2209 
L 2766 2209 
L 2766 2266 
Q 2766 2663 2505 2880 
Q 2244 3097 1772 3097 
Q 1472 3097 1187 3025 
Q 903 2953 641 2809 
L 641 3341 
Q 956 3463 1253 3523 
Q 1550 3584 1831 3584 
Q 2591 3584 2966 3190 
Q 3341 2797 3341 1997 
z
" transform="scale(0.015625)"/>
       <path id="DejaVuSans-6e" d="M 3513 2113 
L 3513 0 
L 2938 0 
L 2938 2094 
Q 2938 2591 2744 2837 
Q 2550 3084 2163 3084 
Q 1697 3084 1428 2787 
Q 1159 2491 1159 1978 
L 1159 0 
L 581 0 
L 581 3500 
L 1159 3500 
L 1159 2956 
Q 1366 3272 1645 3428 
Q 1925 3584 2291 3584 
Q 2894 3584 3203 3211 
Q 3513 2838 3513 2113 
z
" transform="scale(0.015625)"/>
      </defs>
      <use xlink:href="#DejaVuSans-4d"/>
      <use xlink:href="#DejaVuSans-65" transform="translate(86.279297 0)"/>
      <use xlink:href="#DejaVuSans-61" transform="translate(147.802734 0)"/>
      <use xlink:href="#DejaVuSans-6e" transform="translate(209.082031 0)"/>
     </g>
    </g>
    <g id="line2d_23">
     <path d="M 874.56071 92.544688 
L 896.56071 92.544688 
L 918.56071 92.544688 
" style="fill: none; stroke-dasharray: 7.4,3.2; stroke-dashoffset: 0; stroke: #000000; stroke-width: 2"/>
    </g>
    <g id="text_20">
     <!-- P10 Percentile -->
     <g style="fill: #262626" transform="translate(936.16071 100.244688) scale(0.22 -0.22)">
      <defs>
       <path id="DejaVuSans-50" d="M 1259 4147 
L 1259 2394 
L 2053 2394 
Q 2494 2394 2734 2622 
Q 2975 2850 2975 3272 
Q 2975 3691 2734 3919 
Q 2494 4147 2053 4147 
L 1259 4147 
z
M 628 4666 
L 2053 4666 
Q 2838 4666 3239 4311 
Q 3641 3956 3641 3272 
Q 3641 2581 3239 2228 
Q 2838 1875 2053 1875 
L 1259 1875 
L 1259 0 
L 628 0 
L 628 4666 
z
" transform="scale(0.015625)"/>
       <path id="DejaVuSans-20" transform="scale(0.015625)"/>
       <path id="DejaVuSans-72" d="M 2631 2963 
Q 2534 3019 2420 3045 
Q 2306 3072 2169 3072 
Q 1681 3072 1420 2755 
Q 1159 2438 1159 1844 
L 1159 0 
L 581 0 
L 581 3500 
L 1159 3500 
L 1159 2956 
Q 1341 3275 1631 3429 
Q 1922 3584 2338 3584 
Q 2397 3584 2469 3576 
Q 2541 3569 2628 3553 
L 2631 2963 
z
" transform="scale(0.015625)"/>
       <path id="DejaVuSans-63" d="M 3122 3366 
L 3122 2828 
Q 2878 2963 2633 3030 
Q 2388 3097 2138 3097 
Q 1578 3097 1268 2742 
Q 959 2388 959 1747 
Q 959 1106 1268 751 
Q 1578 397 2138 397 
Q 2388 397 2633 464 
Q 2878 531 3122 666 
L 3122 134 
Q 2881 22 2623 -34 
Q 2366 -91 2075 -91 
Q 1284 -91 818 406 
Q 353 903 353 1747 
Q 353 2603 823 3093 
Q 1294 3584 2113 3584 
Q 2378 3584 2631 3529 
Q 2884 3475 3122 3366 
z
" transform="scale(0.015625)"/>
       <path id="DejaVuSans-74" d="M 1172 4494 
L 1172 3500 
L 2356 3500 
L 2356 3053 
L 1172 3053 
L 1172 1153 
Q 1172 725 1289 603 
Q 1406 481 1766 481 
L 2356 481 
L 2356 0 
L 1766 0 
Q 1100 0 847 248 
Q 594 497 594 1153 
L 594 3053 
L 172 3053 
L 172 3500 
L 594 3500 
L 594 4494 
L 1172 4494 
z
" transform="scale(0.015625)"/>
       <path id="DejaVuSans-69" d="M 603 3500 
L 1178 3500 
L 1178 0 
L 603 0 
L 603 3500 
z
M 603 4863 
L 1178 4863 
L 1178 4134 
L 603 4134 
L 603 4863 
z
" transform="scale(0.015625)"/>
       <path id="DejaVuSans-6c" d="M 603 4863 
L 1178 4863 
L 1178 0 
L 603 0 
L 603 4863 
z
" transform="scale(0.015625)"/>
      </defs>
      <use xlink:href="#DejaVuSans-50"/>
      <use xlink:href="#DejaVuSans-31" transform="translate(60.302734 0)"/>
      <use xlink:href="#DejaVuSans-30" transform="translate(123.925781 0)"/>
      <use xlink:href="#DejaVuSans-20" transform="translate(187.548828 0)"/>
      <use xlink:href="#DejaVuSans-50" transform="translate(219.335938 0)"/>
      <use xlink:href="#DejaVuSans-65" transform="translate(276.013672 0)"/>
      <use xlink:href="#DejaVuSans-72" transform="translate(337.537109 0)"/>
      <use xlink:href="#DejaVuSans-63" transform="translate(376.400391 0)"/>
      <use xlink:href="#DejaVuSans-65" transform="translate(431.380859 0)"/>
      <use xlink:href="#DejaVuSans-6e" transform="translate(492.904297 0)"/>
      <use xlink:href="#DejaVuSans-74" transform="translate(556.283203 0)"/>
      <use xlink:href="#DejaVuSans-69" transform="translate(595.492188 0)"/>
      <use xlink:href="#DejaVuSans-6c" transform="translate(623.275391 0)"/>
      <use xlink:href="#DejaVuSans-65" transform="translate(651.058594 0)"/>
     </g>
    </g>
    <g id="line2d_24">
     <path d="M 874.56071 124.836563 
L 896.56071 124.836563 
L 918.56071 124.836563 
" style="fill: none; stroke-dasharray: 2,3.3; stroke-dashoffset: 0; stroke: #000000; stroke-width: 2"/>
    </g>
    <g id="text_21">
     <!-- P90 Percentile -->
     <g style="fill: #262626" transform="translate(936.16071 132.536563) scale(0.22 -0.22)">
      <use xlink:href="#DejaVuSans-50"/>
      <use xlink:href="#DejaVuSans-39" transform="translate(60.302734 0)"/>
      <use xlink:href="#DejaVuSans-30" transform="translate(123.925781 0)"/>
      <use xlink:href="#DejaVuSans-20" transform="translate(187.548828 0)"/>
      <use xlink:href="#DejaVuSans-50" transform="translate(219.335938 0)"/>
      <use xlink:href="#DejaVuSans-65" transform="translate(276.013672 0)"/>
      <use xlink:href="#DejaVuSans-72" transform="translate(337.537109 0)"/>
      <use xlink:href="#DejaVuSans-63" transform="translate(376.400391 0)"/>
      <use xlink:href="#DejaVuSans-65" transform="translate(431.380859 0)"/>
      <use xlink:href="#DejaVuSans-6e" transform="translate(492.904297 0)"/>
      <use xlink:href="#DejaVuSans-74" transform="translate(556.283203 0)"/>
      <use xlink:href="#DejaVuSans-69" transform="translate(595.492188 0)"/>
      <use xlink:href="#DejaVuSans-6c" transform="translate(623.275391 0)"/>
      <use xlink:href="#DejaVuSans-65" transform="translate(651.058594 0)"/>
     </g>
    </g>
    <g id="patch_8">
     <path d="M 874.56071 164.828438 
L 918.56071 164.828438 
L 918.56071 149.428438 
L 874.56071 149.428438 
z
" style="fill: #58508d; fill-opacity: 0.7; stroke: #58508d; stroke-opacity: 0.7; stroke-width: 0.8; stroke-linejoin: miter"/>
    </g>
    <g id="text_22">
     <!-- Batch 0 -->
     <g style="fill: #262626" transform="translate(936.16071 164.828438) scale(0.22 -0.22)">
      <defs>
       <path id="DejaVuSans-42" d="M 1259 2228 
L 1259 519 
L 2272 519 
Q 2781 519 3026 730 
Q 3272 941 3272 1375 
Q 3272 1813 3026 2020 
Q 2781 2228 2272 2228 
L 1259 2228 
z
M 1259 4147 
L 1259 2741 
L 2194 2741 
Q 2656 2741 2882 2914 
Q 3109 3088 3109 3444 
Q 3109 3797 2882 3972 
Q 2656 4147 2194 4147 
L 1259 4147 
z
M 628 4666 
L 2241 4666 
Q 2963 4666 3353 4366 
Q 3744 4066 3744 3513 
Q 3744 3084 3544 2831 
Q 3344 2578 2956 2516 
Q 3422 2416 3680 2098 
Q 3938 1781 3938 1306 
Q 3938 681 3513 340 
Q 3088 0 2303 0 
L 628 0 
L 628 4666 
z
" transform="scale(0.015625)"/>
       <path id="DejaVuSans-68" d="M 3513 2113 
L 3513 0 
L 2938 0 
L 2938 2094 
Q 2938 2591 2744 2837 
Q 2550 3084 2163 3084 
Q 1697 3084 1428 2787 
Q 1159 2491 1159 1978 
L 1159 0 
L 581 0 
L 581 4863 
L 1159 4863 
L 1159 2956 
Q 1366 3272 1645 3428 
Q 1925 3584 2291 3584 
Q 2894 3584 3203 3211 
Q 3513 2838 3513 2113 
z
" transform="scale(0.015625)"/>
      </defs>
      <use xlink:href="#DejaVuSans-42"/>
      <use xlink:href="#DejaVuSans-61" transform="translate(68.603516 0)"/>
      <use xlink:href="#DejaVuSans-74" transform="translate(129.882812 0)"/>
      <use xlink:href="#DejaVuSans-63" transform="translate(169.091797 0)"/>
      <use xlink:href="#DejaVuSans-68" transform="translate(224.072266 0)"/>
      <use xlink:href="#DejaVuSans-20" transform="translate(287.451172 0)"/>
      <use xlink:href="#DejaVuSans-30" transform="translate(319.238281 0)"/>
     </g>
    </g>
    <g id="patch_9">
     <path d="M 874.56071 197.120313 
L 918.56071 197.120313 
L 918.56071 181.720313 
L 874.56071 181.720313 
z
" style="fill: #ffa600; fill-opacity: 0.7; stroke: #ffa600; stroke-opacity: 0.7; stroke-width: 0.8; stroke-linejoin: miter"/>
    </g>
    <g id="text_23">
     <!-- Batch 5 -->
     <g style="fill: #262626" transform="translate(936.16071 197.120313) scale(0.22 -0.22)">
      <use xlink:href="#DejaVuSans-42"/>
      <use xlink:href="#DejaVuSans-61" transform="translate(68.603516 0)"/>
      <use xlink:href="#DejaVuSans-74" transform="translate(129.882812 0)"/>
      <use xlink:href="#DejaVuSans-63" transform="translate(169.091797 0)"/>
      <use xlink:href="#DejaVuSans-68" transform="translate(224.072266 0)"/>
      <use xlink:href="#DejaVuSans-20" transform="translate(287.451172 0)"/>
      <use xlink:href="#DejaVuSans-35" transform="translate(319.238281 0)"/>
     </g>
    </g>
   </g>
  </g>
 </g>
 <defs>
  <clipPath id="p23eb504158">
   <rect x="134.535" y="31.43625" width="978.192898" height="542.004"/>
  </clipPath>
 </defs>
</svg>
