<?xml version="1.0" encoding="utf-8" standalone="no"?>
<!DOCTYPE svg PUBLIC "-//W3C//DTD SVG 1.1//EN"
  "http://www.w3.org/Graphics/SVG/1.1/DTD/svg11.dtd">
<svg xmlns:xlink="http://www.w3.org/1999/xlink" width="1144.286333pt" height="641.330875pt" viewBox="0 0 1144.286333 641.330875" xmlns="http://www.w3.org/2000/svg" version="1.1">
 <metadata>
  <rdf:RDF xmlns:dc="http://purl.org/dc/elements/1.1/" xmlns:cc="http://creativecommons.org/ns#" xmlns:rdf="http://www.w3.org/1999/02/22-rdf-syntax-ns#">
   <cc:Work>
    <dc:type rdf:resource="http://purl.org/dc/dcmitype/StillImage"/>
    <dc:date>2025-06-25T17:21:55.869156</dc:date>
    <dc:format>image/svg+xml</dc:format>
    <dc:creator>
     <cc:Agent>
      <dc:title>Matplotlib v3.10.3, https://matplotlib.org/</dc:title>
     </cc:Agent>
    </dc:creator>
   </cc:Work>
  </rdf:RDF>
 </metadata>
 <defs>
  <style type="text/css">*{stroke-linejoin: round; stroke-linecap: butt}</style>
 </defs>
 <g id="figure_1">
  <g id="patch_1">
   <path d="M 0 641.330875 
L 1144.286333 641.330875 
L 1144.286333 0 
L 0 0 
z
" style="fill: #ffffff"/>
  </g>
  <g id="axes_1">
   <g id="patch_2">
    <path d="M 103.995 573.44025 
L 1112.787898 573.44025 
L 1112.787898 31.43625 
L 103.995 31.43625 
z
" style="fill: #eaeaf2"/>
   </g>
   <g id="matplotlib.axis_1">
    <g id="xtick_1">
     <g id="line2d_1">
      <path d="M 109.066271 573.44025 
L 109.066271 31.43625 
" clip-path="url(#p5a4c1bc484)" style="fill: none; stroke: #ffffff; stroke-width: 0.8; stroke-linecap: round"/>
     </g>
     <g id="text_1">
      <!-- 2023 -->
      <g style="fill: #262626" transform="translate(78.526271 599.9765) scale(0.24 -0.24)">
       <defs>
        <path id="DejaVuSans-32" d="M 1228 531 
L 3431 531 
L 3431 0 
L 469 0 
L 469 531 
Q 828 903 1448 1529 
Q 2069 2156 2228 2338 
Q 2531 2678 2651 2914 
Q 2772 3150 2772 3378 
Q 2772 3750 2511 3984 
Q 2250 4219 1831 4219 
Q 1534 4219 1204 4116 
Q 875 4013 500 3803 
L 500 4441 
Q 881 4594 1212 4672 
Q 1544 4750 1819 4750 
Q 2544 4750 2975 4387 
Q 3406 4025 3406 3419 
Q 3406 3131 3298 2873 
Q 3191 2616 2906 2266 
Q 2828 2175 2409 1742 
Q 1991 1309 1228 531 
z
" transform="scale(0.015625)"/>
        <path id="DejaVuSans-30" d="M 2034 4250 
Q 1547 4250 1301 3770 
Q 1056 3291 1056 2328 
Q 1056 1369 1301 889 
Q 1547 409 2034 409 
Q 2525 409 2770 889 
Q 3016 1369 3016 2328 
Q 3016 3291 2770 3770 
Q 2525 4250 2034 4250 
z
M 2034 4750 
Q 2819 4750 3233 4129 
Q 3647 3509 3647 2328 
Q 3647 1150 3233 529 
Q 2819 -91 2034 -91 
Q 1250 -91 836 529 
Q 422 1150 422 2328 
Q 422 3509 836 4129 
Q 1250 4750 2034 4750 
z
" transform="scale(0.015625)"/>
        <path id="DejaVuSans-33" d="M 2597 2516 
Q 3050 2419 3304 2112 
Q 3559 1806 3559 1356 
Q 3559 666 3084 287 
Q 2609 -91 1734 -91 
Q 1441 -91 1130 -33 
Q 819 25 488 141 
L 488 750 
Q 750 597 1062 519 
Q 1375 441 1716 441 
Q 2309 441 2620 675 
Q 2931 909 2931 1356 
Q 2931 1769 2642 2001 
Q 2353 2234 1838 2234 
L 1294 2234 
L 1294 2753 
L 1863 2753 
Q 2328 2753 2575 2939 
Q 2822 3125 2822 3475 
Q 2822 3834 2567 4026 
Q 2313 4219 1838 4219 
Q 1578 4219 1281 4162 
Q 984 4106 628 3988 
L 628 4550 
Q 988 4650 1302 4700 
Q 1616 4750 1894 4750 
Q 2613 4750 3031 4423 
Q 3450 4097 3450 3541 
Q 3450 3153 3228 2886 
Q 3006 2619 2597 2516 
z
" transform="scale(0.015625)"/>
       </defs>
       <use xlink:href="#DejaVuSans-32"/>
       <use xlink:href="#DejaVuSans-30" transform="translate(63.623047 0)"/>
       <use xlink:href="#DejaVuSans-32" transform="translate(127.246094 0)"/>
       <use xlink:href="#DejaVuSans-33" transform="translate(190.869141 0)"/>
      </g>
     </g>
    </g>
    <g id="xtick_2">
     <g id="line2d_2">
      <path d="M 251.451967 573.44025 
L 251.451967 31.43625 
" clip-path="url(#p5a4c1bc484)" style="fill: none; stroke: #ffffff; stroke-width: 0.8; stroke-linecap: round"/>
     </g>
     <g id="text_2">
      <!-- 2024 -->
      <g style="fill: #262626" transform="translate(220.911967 599.9765) scale(0.24 -0.24)">
       <defs>
        <path id="DejaVuSans-34" d="M 2419 4116 
L 825 1625 
L 2419 1625 
L 2419 4116 
z
M 2253 4666 
L 3047 4666 
L 3047 1625 
L 3713 1625 
L 3713 1100 
L 3047 1100 
L 3047 0 
L 2419 0 
L 2419 1100 
L 313 1100 
L 313 1709 
L 2253 4666 
z
" transform="scale(0.015625)"/>
       </defs>
       <use xlink:href="#DejaVuSans-32"/>
       <use xlink:href="#DejaVuSans-30" transform="translate(63.623047 0)"/>
       <use xlink:href="#DejaVuSans-32" transform="translate(127.246094 0)"/>
       <use xlink:href="#DejaVuSans-34" transform="translate(190.869141 0)"/>
      </g>
     </g>
    </g>
    <g id="xtick_3">
     <g id="line2d_3">
      <path d="M 394.227759 573.44025 
L 394.227759 31.43625 
" clip-path="url(#p5a4c1bc484)" style="fill: none; stroke: #ffffff; stroke-width: 0.8; stroke-linecap: round"/>
     </g>
     <g id="text_3">
      <!-- 2025 -->
      <g style="fill: #262626" transform="translate(363.687759 599.9765) scale(0.24 -0.24)">
       <defs>
        <path id="DejaVuSans-35" d="M 691 4666 
L 3169 4666 
L 3169 4134 
L 1269 4134 
L 1269 2991 
Q 1406 3038 1543 3061 
Q 1681 3084 1819 3084 
Q 2600 3084 3056 2656 
Q 3513 2228 3513 1497 
Q 3513 744 3044 326 
Q 2575 -91 1722 -91 
Q 1428 -91 1123 -41 
Q 819 9 494 109 
L 494 744 
Q 775 591 1075 516 
Q 1375 441 1709 441 
Q 2250 441 2565 725 
Q 2881 1009 2881 1497 
Q 2881 1984 2565 2268 
Q 2250 2553 1709 2553 
Q 1456 2553 1204 2497 
Q 953 2441 691 2322 
L 691 4666 
z
" transform="scale(0.015625)"/>
       </defs>
       <use xlink:href="#DejaVuSans-32"/>
       <use xlink:href="#DejaVuSans-30" transform="translate(63.623047 0)"/>
       <use xlink:href="#DejaVuSans-32" transform="translate(127.246094 0)"/>
       <use xlink:href="#DejaVuSans-35" transform="translate(190.869141 0)"/>
      </g>
     </g>
    </g>
    <g id="xtick_4">
     <g id="line2d_4">
      <path d="M 536.613455 573.44025 
L 536.613455 31.43625 
" clip-path="url(#p5a4c1bc484)" style="fill: none; stroke: #ffffff; stroke-width: 0.8; stroke-linecap: round"/>
     </g>
     <g id="text_4">
      <!-- 2026 -->
      <g style="fill: #262626" transform="translate(506.073455 599.9765) scale(0.24 -0.24)">
       <defs>
        <path id="DejaVuSans-36" d="M 2113 2584 
Q 1688 2584 1439 2293 
Q 1191 2003 1191 1497 
Q 1191 994 1439 701 
Q 1688 409 2113 409 
Q 2538 409 2786 701 
Q 3034 994 3034 1497 
Q 3034 2003 2786 2293 
Q 2538 2584 2113 2584 
z
M 3366 4563 
L 3366 3988 
Q 3128 4100 2886 4159 
Q 2644 4219 2406 4219 
Q 1781 4219 1451 3797 
Q 1122 3375 1075 2522 
Q 1259 2794 1537 2939 
Q 1816 3084 2150 3084 
Q 2853 3084 3261 2657 
Q 3669 2231 3669 1497 
Q 3669 778 3244 343 
Q 2819 -91 2113 -91 
Q 1303 -91 875 529 
Q 447 1150 447 2328 
Q 447 3434 972 4092 
Q 1497 4750 2381 4750 
Q 2619 4750 2861 4703 
Q 3103 4656 3366 4563 
z
" transform="scale(0.015625)"/>
       </defs>
       <use xlink:href="#DejaVuSans-32"/>
       <use xlink:href="#DejaVuSans-30" transform="translate(63.623047 0)"/>
       <use xlink:href="#DejaVuSans-32" transform="translate(127.246094 0)"/>
       <use xlink:href="#DejaVuSans-36" transform="translate(190.869141 0)"/>
      </g>
     </g>
    </g>
    <g id="xtick_5">
     <g id="line2d_5">
      <path d="M 678.99915 573.44025 
L 678.99915 31.43625 
" clip-path="url(#p5a4c1bc484)" style="fill: none; stroke: #ffffff; stroke-width: 0.8; stroke-linecap: round"/>
     </g>
     <g id="text_5">
      <!-- 2027 -->
      <g style="fill: #262626" transform="translate(648.45915 599.9765) scale(0.24 -0.24)">
       <defs>
        <path id="DejaVuSans-37" d="M 525 4666 
L 3525 4666 
L 3525 4397 
L 1831 0 
L 1172 0 
L 2766 4134 
L 525 4134 
L 525 4666 
z
" transform="scale(0.015625)"/>
       </defs>
       <use xlink:href="#DejaVuSans-32"/>
       <use xlink:href="#DejaVuSans-30" transform="translate(63.623047 0)"/>
       <use xlink:href="#DejaVuSans-32" transform="translate(127.246094 0)"/>
       <use xlink:href="#DejaVuSans-37" transform="translate(190.869141 0)"/>
      </g>
     </g>
    </g>
    <g id="xtick_6">
     <g id="line2d_6">
      <path d="M 821.384845 573.44025 
L 821.384845 31.43625 
" clip-path="url(#p5a4c1bc484)" style="fill: none; stroke: #ffffff; stroke-width: 0.8; stroke-linecap: round"/>
     </g>
     <g id="text_6">
      <!-- 2028 -->
      <g style="fill: #262626" transform="translate(790.844845 599.9765) scale(0.24 -0.24)">
       <defs>
        <path id="DejaVuSans-38" d="M 2034 2216 
Q 1584 2216 1326 1975 
Q 1069 1734 1069 1313 
Q 1069 891 1326 650 
Q 1584 409 2034 409 
Q 2484 409 2743 651 
Q 3003 894 3003 1313 
Q 3003 1734 2745 1975 
Q 2488 2216 2034 2216 
z
M 1403 2484 
Q 997 2584 770 2862 
Q 544 3141 544 3541 
Q 544 4100 942 4425 
Q 1341 4750 2034 4750 
Q 2731 4750 3128 4425 
Q 3525 4100 3525 3541 
Q 3525 3141 3298 2862 
Q 3072 2584 2669 2484 
Q 3125 2378 3379 2068 
Q 3634 1759 3634 1313 
Q 3634 634 3220 271 
Q 2806 -91 2034 -91 
Q 1263 -91 848 271 
Q 434 634 434 1313 
Q 434 1759 690 2068 
Q 947 2378 1403 2484 
z
M 1172 3481 
Q 1172 3119 1398 2916 
Q 1625 2713 2034 2713 
Q 2441 2713 2670 2916 
Q 2900 3119 2900 3481 
Q 2900 3844 2670 4047 
Q 2441 4250 2034 4250 
Q 1625 4250 1398 4047 
Q 1172 3844 1172 3481 
z
" transform="scale(0.015625)"/>
       </defs>
       <use xlink:href="#DejaVuSans-32"/>
       <use xlink:href="#DejaVuSans-30" transform="translate(63.623047 0)"/>
       <use xlink:href="#DejaVuSans-32" transform="translate(127.246094 0)"/>
       <use xlink:href="#DejaVuSans-38" transform="translate(190.869141 0)"/>
      </g>
     </g>
    </g>
    <g id="xtick_7">
     <g id="line2d_7">
      <path d="M 964.160638 573.44025 
L 964.160638 31.43625 
" clip-path="url(#p5a4c1bc484)" style="fill: none; stroke: #ffffff; stroke-width: 0.8; stroke-linecap: round"/>
     </g>
     <g id="text_7">
      <!-- 2029 -->
      <g style="fill: #262626" transform="translate(933.620638 599.9765) scale(0.24 -0.24)">
       <defs>
        <path id="DejaVuSans-39" d="M 703 97 
L 703 672 
Q 941 559 1184 500 
Q 1428 441 1663 441 
Q 2288 441 2617 861 
Q 2947 1281 2994 2138 
Q 2813 1869 2534 1725 
Q 2256 1581 1919 1581 
Q 1219 1581 811 2004 
Q 403 2428 403 3163 
Q 403 3881 828 4315 
Q 1253 4750 1959 4750 
Q 2769 4750 3195 4129 
Q 3622 3509 3622 2328 
Q 3622 1225 3098 567 
Q 2575 -91 1691 -91 
Q 1453 -91 1209 -44 
Q 966 3 703 97 
z
M 1959 2075 
Q 2384 2075 2632 2365 
Q 2881 2656 2881 3163 
Q 2881 3666 2632 3958 
Q 2384 4250 1959 4250 
Q 1534 4250 1286 3958 
Q 1038 3666 1038 3163 
Q 1038 2656 1286 2365 
Q 1534 2075 1959 2075 
z
" transform="scale(0.015625)"/>
       </defs>
       <use xlink:href="#DejaVuSans-32"/>
       <use xlink:href="#DejaVuSans-30" transform="translate(63.623047 0)"/>
       <use xlink:href="#DejaVuSans-32" transform="translate(127.246094 0)"/>
       <use xlink:href="#DejaVuSans-39" transform="translate(190.869141 0)"/>
      </g>
     </g>
    </g>
    <g id="xtick_8">
     <g id="line2d_8">
      <path d="M 1106.546333 573.44025 
L 1106.546333 31.43625 
" clip-path="url(#p5a4c1bc484)" style="fill: none; stroke: #ffffff; stroke-width: 0.8; stroke-linecap: round"/>
     </g>
     <g id="text_8">
      <!-- 2030 -->
      <g style="fill: #262626" transform="translate(1076.006333 599.9765) scale(0.24 -0.24)">
       <use xlink:href="#DejaVuSans-32"/>
       <use xlink:href="#DejaVuSans-30" transform="translate(63.623047 0)"/>
       <use xlink:href="#DejaVuSans-33" transform="translate(127.246094 0)"/>
       <use xlink:href="#DejaVuSans-30" transform="translate(190.869141 0)"/>
      </g>
     </g>
    </g>
    <g id="text_9">
     <!-- Date -->
     <g style="fill: #262626" transform="translate(573.795199 628.723687) scale(0.26 -0.26)">
      <defs>
       <path id="DejaVuSans-Bold-44" d="M 1791 3756 
L 1791 909 
L 2222 909 
Q 2959 909 3348 1275 
Q 3738 1641 3738 2338 
Q 3738 3031 3350 3393 
Q 2963 3756 2222 3756 
L 1791 3756 
z
M 588 4666 
L 1856 4666 
Q 2919 4666 3439 4514 
Q 3959 4363 4331 4000 
Q 4659 3684 4818 3271 
Q 4978 2859 4978 2338 
Q 4978 1809 4818 1395 
Q 4659 981 4331 666 
Q 3956 303 3431 151 
Q 2906 0 1856 0 
L 588 0 
L 588 4666 
z
" transform="scale(0.015625)"/>
       <path id="DejaVuSans-Bold-61" d="M 2106 1575 
Q 1756 1575 1579 1456 
Q 1403 1338 1403 1106 
Q 1403 894 1545 773 
Q 1688 653 1941 653 
Q 2256 653 2472 879 
Q 2688 1106 2688 1447 
L 2688 1575 
L 2106 1575 
z
M 3816 1997 
L 3816 0 
L 2688 0 
L 2688 519 
Q 2463 200 2181 54 
Q 1900 -91 1497 -91 
Q 953 -91 614 226 
Q 275 544 275 1050 
Q 275 1666 698 1953 
Q 1122 2241 2028 2241 
L 2688 2241 
L 2688 2328 
Q 2688 2594 2478 2717 
Q 2269 2841 1825 2841 
Q 1466 2841 1156 2769 
Q 847 2697 581 2553 
L 581 3406 
Q 941 3494 1303 3539 
Q 1666 3584 2028 3584 
Q 2975 3584 3395 3211 
Q 3816 2838 3816 1997 
z
" transform="scale(0.015625)"/>
       <path id="DejaVuSans-Bold-74" d="M 1759 4494 
L 1759 3500 
L 2913 3500 
L 2913 2700 
L 1759 2700 
L 1759 1216 
Q 1759 972 1856 886 
Q 1953 800 2241 800 
L 2816 800 
L 2816 0 
L 1856 0 
Q 1194 0 917 276 
Q 641 553 641 1216 
L 641 2700 
L 84 2700 
L 84 3500 
L 641 3500 
L 641 4494 
L 1759 4494 
z
" transform="scale(0.015625)"/>
       <path id="DejaVuSans-Bold-65" d="M 4031 1759 
L 4031 1441 
L 1416 1441 
Q 1456 1047 1700 850 
Q 1944 653 2381 653 
Q 2734 653 3104 758 
Q 3475 863 3866 1075 
L 3866 213 
Q 3469 63 3072 -14 
Q 2675 -91 2278 -91 
Q 1328 -91 801 392 
Q 275 875 275 1747 
Q 275 2603 792 3093 
Q 1309 3584 2216 3584 
Q 3041 3584 3536 3087 
Q 4031 2591 4031 1759 
z
M 2881 2131 
Q 2881 2450 2695 2645 
Q 2509 2841 2209 2841 
Q 1884 2841 1681 2658 
Q 1478 2475 1428 2131 
L 2881 2131 
z
" transform="scale(0.015625)"/>
      </defs>
      <use xlink:href="#DejaVuSans-Bold-44"/>
      <use xlink:href="#DejaVuSans-Bold-61" transform="translate(83.007812 0)"/>
      <use xlink:href="#DejaVuSans-Bold-74" transform="translate(150.488281 0)"/>
      <use xlink:href="#DejaVuSans-Bold-65" transform="translate(198.291016 0)"/>
     </g>
    </g>
   </g>
   <g id="matplotlib.axis_2">
    <g id="ytick_1">
     <g id="line2d_9">
      <path d="M 103.995 548.803705 
L 1112.787898 548.803705 
" clip-path="url(#p5a4c1bc484)" style="fill: none; stroke: #ffffff; stroke-width: 0.8; stroke-linecap: round"/>
     </g>
     <g id="text_10">
      <!-- 0 -->
      <g style="fill: #262626" transform="translate(80.425 557.92183) scale(0.24 -0.24)">
       <use xlink:href="#DejaVuSans-30"/>
      </g>
     </g>
    </g>
    <g id="ytick_2">
     <g id="line2d_10">
      <path d="M 103.995 481.814906 
L 1112.787898 481.814906 
" clip-path="url(#p5a4c1bc484)" style="fill: none; stroke: #ffffff; stroke-width: 0.8; stroke-linecap: round"/>
     </g>
     <g id="text_11">
      <!-- 500 -->
      <g style="fill: #262626" transform="translate(49.885 490.933031) scale(0.24 -0.24)">
       <use xlink:href="#DejaVuSans-35"/>
       <use xlink:href="#DejaVuSans-30" transform="translate(63.623047 0)"/>
       <use xlink:href="#DejaVuSans-30" transform="translate(127.246094 0)"/>
      </g>
     </g>
    </g>
    <g id="ytick_3">
     <g id="line2d_11">
      <path d="M 103.995 414.826107 
L 1112.787898 414.826107 
" clip-path="url(#p5a4c1bc484)" style="fill: none; stroke: #ffffff; stroke-width: 0.8; stroke-linecap: round"/>
     </g>
     <g id="text_12">
      <!-- 1000 -->
      <g style="fill: #262626" transform="translate(34.615 423.944232) scale(0.24 -0.24)">
       <defs>
        <path id="DejaVuSans-31" d="M 794 531 
L 1825 531 
L 1825 4091 
L 703 3866 
L 703 4441 
L 1819 4666 
L 2450 4666 
L 2450 531 
L 3481 531 
L 3481 0 
L 794 0 
L 794 531 
z
" transform="scale(0.015625)"/>
       </defs>
       <use xlink:href="#DejaVuSans-31"/>
       <use xlink:href="#DejaVuSans-30" transform="translate(63.623047 0)"/>
       <use xlink:href="#DejaVuSans-30" transform="translate(127.246094 0)"/>
       <use xlink:href="#DejaVuSans-30" transform="translate(190.869141 0)"/>
      </g>
     </g>
    </g>
    <g id="ytick_4">
     <g id="line2d_12">
      <path d="M 103.995 347.837308 
L 1112.787898 347.837308 
" clip-path="url(#p5a4c1bc484)" style="fill: none; stroke: #ffffff; stroke-width: 0.8; stroke-linecap: round"/>
     </g>
     <g id="text_13">
      <!-- 1500 -->
      <g style="fill: #262626" transform="translate(34.615 356.955433) scale(0.24 -0.24)">
       <use xlink:href="#DejaVuSans-31"/>
       <use xlink:href="#DejaVuSans-35" transform="translate(63.623047 0)"/>
       <use xlink:href="#DejaVuSans-30" transform="translate(127.246094 0)"/>
       <use xlink:href="#DejaVuSans-30" transform="translate(190.869141 0)"/>
      </g>
     </g>
    </g>
    <g id="ytick_5">
     <g id="line2d_13">
      <path d="M 103.995 280.848509 
L 1112.787898 280.848509 
" clip-path="url(#p5a4c1bc484)" style="fill: none; stroke: #ffffff; stroke-width: 0.8; stroke-linecap: round"/>
     </g>
     <g id="text_14">
      <!-- 2000 -->
      <g style="fill: #262626" transform="translate(34.615 289.966634) scale(0.24 -0.24)">
       <use xlink:href="#DejaVuSans-32"/>
       <use xlink:href="#DejaVuSans-30" transform="translate(63.623047 0)"/>
       <use xlink:href="#DejaVuSans-30" transform="translate(127.246094 0)"/>
       <use xlink:href="#DejaVuSans-30" transform="translate(190.869141 0)"/>
      </g>
     </g>
    </g>
    <g id="ytick_6">
     <g id="line2d_14">
      <path d="M 103.995 213.85971 
L 1112.787898 213.85971 
" clip-path="url(#p5a4c1bc484)" style="fill: none; stroke: #ffffff; stroke-width: 0.8; stroke-linecap: round"/>
     </g>
     <g id="text_15">
      <!-- 2500 -->
      <g style="fill: #262626" transform="translate(34.615 222.977835) scale(0.24 -0.24)">
       <use xlink:href="#DejaVuSans-32"/>
       <use xlink:href="#DejaVuSans-35" transform="translate(63.623047 0)"/>
       <use xlink:href="#DejaVuSans-30" transform="translate(127.246094 0)"/>
       <use xlink:href="#DejaVuSans-30" transform="translate(190.869141 0)"/>
      </g>
     </g>
    </g>
    <g id="ytick_7">
     <g id="line2d_15">
      <path d="M 103.995 146.870911 
L 1112.787898 146.870911 
" clip-path="url(#p5a4c1bc484)" style="fill: none; stroke: #ffffff; stroke-width: 0.8; stroke-linecap: round"/>
     </g>
     <g id="text_16">
      <!-- 3000 -->
      <g style="fill: #262626" transform="translate(34.615 155.989036) scale(0.24 -0.24)">
       <use xlink:href="#DejaVuSans-33"/>
       <use xlink:href="#DejaVuSans-30" transform="translate(63.623047 0)"/>
       <use xlink:href="#DejaVuSans-30" transform="translate(127.246094 0)"/>
       <use xlink:href="#DejaVuSans-30" transform="translate(190.869141 0)"/>
      </g>
     </g>
    </g>
    <g id="ytick_8">
     <g id="line2d_16">
      <path d="M 103.995 79.882113 
L 1112.787898 79.882113 
" clip-path="url(#p5a4c1bc484)" style="fill: none; stroke: #ffffff; stroke-width: 0.8; stroke-linecap: round"/>
     </g>
     <g id="text_17">
      <!-- 3500 -->
      <g style="fill: #262626" transform="translate(34.615 89.000238) scale(0.24 -0.24)">
       <use xlink:href="#DejaVuSans-33"/>
       <use xlink:href="#DejaVuSans-35" transform="translate(63.623047 0)"/>
       <use xlink:href="#DejaVuSans-30" transform="translate(127.246094 0)"/>
       <use xlink:href="#DejaVuSans-30" transform="translate(190.869141 0)"/>
      </g>
     </g>
    </g>
    <g id="text_18">
     <!-- WWPR:A4 [Sm³/day] -->
     <g style="fill: #262626" transform="translate(25.43625 439.446375) rotate(-90) scale(0.24 -0.24)">
      <defs>
       <path id="DejaVuSans-Bold-57" d="M 191 4666 
L 1344 4666 
L 2150 1275 
L 2950 4666 
L 4109 4666 
L 4909 1275 
L 5716 4666 
L 6859 4666 
L 5759 0 
L 4372 0 
L 3525 3547 
L 2688 0 
L 1300 0 
L 191 4666 
z
" transform="scale(0.015625)"/>
       <path id="DejaVuSans-Bold-50" d="M 588 4666 
L 2584 4666 
Q 3475 4666 3951 4270 
Q 4428 3875 4428 3144 
Q 4428 2409 3951 2014 
Q 3475 1619 2584 1619 
L 1791 1619 
L 1791 0 
L 588 0 
L 588 4666 
z
M 1791 3794 
L 1791 2491 
L 2456 2491 
Q 2806 2491 2997 2661 
Q 3188 2831 3188 3144 
Q 3188 3456 2997 3625 
Q 2806 3794 2456 3794 
L 1791 3794 
z
" transform="scale(0.015625)"/>
       <path id="DejaVuSans-Bold-52" d="M 2297 2597 
Q 2675 2597 2839 2737 
Q 3003 2878 3003 3200 
Q 3003 3519 2839 3656 
Q 2675 3794 2297 3794 
L 1791 3794 
L 1791 2597 
L 2297 2597 
z
M 1791 1766 
L 1791 0 
L 588 0 
L 588 4666 
L 2425 4666 
Q 3347 4666 3776 4356 
Q 4206 4047 4206 3378 
Q 4206 2916 3982 2619 
Q 3759 2322 3309 2181 
Q 3556 2125 3751 1926 
Q 3947 1728 4147 1325 
L 4800 0 
L 3519 0 
L 2950 1159 
Q 2778 1509 2601 1637 
Q 2425 1766 2131 1766 
L 1791 1766 
z
" transform="scale(0.015625)"/>
       <path id="DejaVuSans-Bold-3a" d="M 716 3500 
L 1844 3500 
L 1844 2291 
L 716 2291 
L 716 3500 
z
M 716 1209 
L 1844 1209 
L 1844 0 
L 716 0 
L 716 1209 
z
" transform="scale(0.015625)"/>
       <path id="DejaVuSans-Bold-41" d="M 3419 850 
L 1538 850 
L 1241 0 
L 31 0 
L 1759 4666 
L 3194 4666 
L 4922 0 
L 3713 0 
L 3419 850 
z
M 1838 1716 
L 3116 1716 
L 2478 3572 
L 1838 1716 
z
" transform="scale(0.015625)"/>
       <path id="DejaVuSans-Bold-34" d="M 2356 3675 
L 1038 1722 
L 2356 1722 
L 2356 3675 
z
M 2156 4666 
L 3494 4666 
L 3494 1722 
L 4159 1722 
L 4159 850 
L 3494 850 
L 3494 0 
L 2356 0 
L 2356 850 
L 288 850 
L 288 1881 
L 2156 4666 
z
" transform="scale(0.015625)"/>
       <path id="DejaVuSans-Bold-20" transform="scale(0.015625)"/>
       <path id="DejaVuSans-Bold-5b" d="M 550 4863 
L 2491 4863 
L 2491 4159 
L 1613 4159 
L 1613 -141 
L 2491 -141 
L 2491 -844 
L 550 -844 
L 550 4863 
z
" transform="scale(0.015625)"/>
       <path id="DejaVuSans-Bold-53" d="M 3834 4519 
L 3834 3531 
Q 3450 3703 3084 3790 
Q 2719 3878 2394 3878 
Q 1963 3878 1756 3759 
Q 1550 3641 1550 3391 
Q 1550 3203 1689 3098 
Q 1828 2994 2194 2919 
L 2706 2816 
Q 3484 2659 3812 2340 
Q 4141 2022 4141 1434 
Q 4141 663 3683 286 
Q 3225 -91 2284 -91 
Q 1841 -91 1394 -6 
Q 947 78 500 244 
L 500 1259 
Q 947 1022 1364 901 
Q 1781 781 2169 781 
Q 2563 781 2772 912 
Q 2981 1044 2981 1288 
Q 2981 1506 2839 1625 
Q 2697 1744 2272 1838 
L 1806 1941 
Q 1106 2091 782 2419 
Q 459 2747 459 3303 
Q 459 4000 909 4375 
Q 1359 4750 2203 4750 
Q 2588 4750 2994 4692 
Q 3400 4634 3834 4519 
z
" transform="scale(0.015625)"/>
       <path id="DejaVuSans-Bold-6d" d="M 3781 2919 
Q 3994 3244 4286 3414 
Q 4578 3584 4928 3584 
Q 5531 3584 5847 3212 
Q 6163 2841 6163 2131 
L 6163 0 
L 5038 0 
L 5038 1825 
Q 5041 1866 5042 1909 
Q 5044 1953 5044 2034 
Q 5044 2406 4934 2573 
Q 4825 2741 4581 2741 
Q 4263 2741 4089 2478 
Q 3916 2216 3909 1719 
L 3909 0 
L 2784 0 
L 2784 1825 
Q 2784 2406 2684 2573 
Q 2584 2741 2328 2741 
Q 2006 2741 1831 2477 
Q 1656 2213 1656 1722 
L 1656 0 
L 531 0 
L 531 3500 
L 1656 3500 
L 1656 2988 
Q 1863 3284 2130 3434 
Q 2397 3584 2719 3584 
Q 3081 3584 3359 3409 
Q 3638 3234 3781 2919 
z
" transform="scale(0.015625)"/>
       <path id="DejaVuSans-Bold-b3" d="M 1850 3500 
Q 2138 3444 2297 3272 
Q 2456 3100 2456 2847 
Q 2456 2444 2147 2242 
Q 1838 2041 1209 2041 
Q 956 2041 725 2077 
Q 494 2113 281 2181 
L 281 2725 
Q 488 2613 688 2555 
Q 888 2497 1075 2497 
Q 1372 2497 1534 2597 
Q 1697 2697 1697 2881 
Q 1697 3081 1530 3176 
Q 1363 3272 1006 3272 
L 775 3272 
L 775 3700 
L 1038 3700 
Q 1344 3700 1484 3773 
Q 1625 3847 1625 4006 
Q 1625 4147 1503 4217 
Q 1381 4288 1131 4288 
Q 969 4288 776 4247 
Q 584 4206 366 4122 
L 366 4641 
Q 569 4694 805 4722 
Q 1041 4750 1313 4750 
Q 1834 4750 2111 4575 
Q 2388 4400 2388 4072 
Q 2388 3856 2247 3706 
Q 2106 3556 1850 3500 
z
" transform="scale(0.015625)"/>
       <path id="DejaVuSans-Bold-2f" d="M 1644 4666 
L 2338 4666 
L 691 -594 
L 0 -594 
L 1644 4666 
z
" transform="scale(0.015625)"/>
       <path id="DejaVuSans-Bold-64" d="M 2919 2988 
L 2919 4863 
L 4044 4863 
L 4044 0 
L 2919 0 
L 2919 506 
Q 2688 197 2409 53 
Q 2131 -91 1766 -91 
Q 1119 -91 703 423 
Q 288 938 288 1747 
Q 288 2556 703 3070 
Q 1119 3584 1766 3584 
Q 2128 3584 2408 3439 
Q 2688 3294 2919 2988 
z
M 2181 722 
Q 2541 722 2730 984 
Q 2919 1247 2919 1747 
Q 2919 2247 2730 2509 
Q 2541 2772 2181 2772 
Q 1825 2772 1636 2509 
Q 1447 2247 1447 1747 
Q 1447 1247 1636 984 
Q 1825 722 2181 722 
z
" transform="scale(0.015625)"/>
       <path id="DejaVuSans-Bold-79" d="M 78 3500 
L 1197 3500 
L 2138 1125 
L 2938 3500 
L 4056 3500 
L 2584 -331 
Q 2363 -916 2067 -1148 
Q 1772 -1381 1288 -1381 
L 641 -1381 
L 641 -647 
L 991 -647 
Q 1275 -647 1404 -556 
Q 1534 -466 1606 -231 
L 1638 -134 
L 78 3500 
z
" transform="scale(0.015625)"/>
       <path id="DejaVuSans-Bold-5d" d="M 2375 -844 
L 434 -844 
L 434 -141 
L 1313 -141 
L 1313 4159 
L 434 4159 
L 434 4863 
L 2375 4863 
L 2375 -844 
z
" transform="scale(0.015625)"/>
      </defs>
      <use xlink:href="#DejaVuSans-Bold-57"/>
      <use xlink:href="#DejaVuSans-Bold-57" transform="translate(110.302734 0)"/>
      <use xlink:href="#DejaVuSans-Bold-50" transform="translate(220.605469 0)"/>
      <use xlink:href="#DejaVuSans-Bold-52" transform="translate(293.896484 0)"/>
      <use xlink:href="#DejaVuSans-Bold-3a" transform="translate(370.898438 0)"/>
      <use xlink:href="#DejaVuSans-Bold-41" transform="translate(410.888672 0)"/>
      <use xlink:href="#DejaVuSans-Bold-34" transform="translate(488.28125 0)"/>
      <use xlink:href="#DejaVuSans-Bold-20" transform="translate(557.861328 0)"/>
      <use xlink:href="#DejaVuSans-Bold-5b" transform="translate(592.675781 0)"/>
      <use xlink:href="#DejaVuSans-Bold-53" transform="translate(638.378906 0)"/>
      <use xlink:href="#DejaVuSans-Bold-6d" transform="translate(710.400391 0)"/>
      <use xlink:href="#DejaVuSans-Bold-b3" transform="translate(814.599609 0)"/>
      <use xlink:href="#DejaVuSans-Bold-2f" transform="translate(858.398438 0)"/>
      <use xlink:href="#DejaVuSans-Bold-64" transform="translate(894.921875 0)"/>
      <use xlink:href="#DejaVuSans-Bold-61" transform="translate(966.503906 0)"/>
      <use xlink:href="#DejaVuSans-Bold-79" transform="translate(1030.859375 0)"/>
      <use xlink:href="#DejaVuSans-Bold-5d" transform="translate(1096.044922 0)"/>
     </g>
    </g>
   </g>
   <g id="FillBetweenPolyCollection_1">
    <defs>
     <path id="m3c5b71a9d0" d="M 62.644634 -92.52717 
L 62.644634 -92.52717 
L 63.814927 -92.52717 
L 67.325807 -92.52717 
L 77.858448 -92.52717 
L 89.561382 -92.52717 
L 101.264315 -92.52717 
L 109.066271 -92.52717 
L 120.769205 -92.52717 
L 144.175073 -92.52717 
L 150.221589 -92.52717 
L 156.268105 -92.52717 
L 179.673972 -92.52717 
L 203.469938 -92.52717 
L 215.562969 -92.52717 
L 250.671771 -92.52717 
L 251.451967 -93.108217 
L 253.792553 -93.887428 
L 286.950866 -101.999073 
L 297.873604 -102.678569 
L 322.449765 -112.437048 
L 345.075437 -122.838884 
L 358.338762 -125.711215 
L 394.227759 -149.666359 
L 429.336561 -164.336652 
L 464.83546 -202.871509 
L 500.724458 -224.00161 
L 536.613455 -262.80048 
L 571.722256 -292.823385 
L 607.221156 -326.310866 
L 643.110153 -352.550899 
L 678.99915 -383.955398 
L 714.107951 -402.163071 
L 749.606851 -422.49813 
L 785.495848 -436.284313 
L 821.384845 -447.896664 
L 856.883744 -457.643698 
L 892.382644 -465.710909 
L 928.271641 -471.352786 
L 939.974575 -472.969119 
L 964.160638 -476.076608 
L 975.863572 -477.371932 
L 999.26944 -479.709573 
L 1010.972373 -480.745021 
L 1022.675307 -481.700494 
L 1028.721823 -482.188845 
L 1034.768339 -482.646548 
L 1070.657336 -484.996782 
L 1082.36027 -484.737854 
L 1094.063204 -484.511931 
L 1100.304768 -484.399836 
L 1106.546333 -484.28097 
L 1106.546333 -580.437732 
L 1106.546333 -580.437732 
L 1100.304768 -580.068279 
L 1094.063204 -579.708771 
L 1082.36027 -578.945301 
L 1070.657336 -578.422049 
L 1034.768339 -576.320047 
L 1028.721823 -575.96744 
L 1022.675307 -575.730526 
L 1010.972373 -574.887049 
L 999.26944 -574.015442 
L 975.863572 -572.239781 
L 964.160638 -571.296181 
L 939.974575 -569.616195 
L 928.271641 -568.726696 
L 892.382644 -564.836243 
L 856.883744 -561.044638 
L 821.384845 -556.682581 
L 785.495848 -551.668823 
L 749.606851 -545.797196 
L 714.107951 -539.373794 
L 678.99915 -532.467733 
L 643.110153 -523.650071 
L 607.221156 -511.616161 
L 571.722256 -495.810795 
L 536.613455 -473.044416 
L 500.724458 -447.123284 
L 464.83546 -406.676507 
L 429.336561 -350.345551 
L 394.227759 -309.645521 
L 358.338762 -279.924361 
L 345.075437 -274.217998 
L 322.449765 -262.116969 
L 297.873604 -238.791587 
L 286.950866 -212.956251 
L 253.792553 -137.285579 
L 251.451967 -118.955754 
L 250.671771 -92.52717 
L 215.562969 -92.52717 
L 203.469938 -92.52717 
L 179.673972 -92.52717 
L 156.268105 -92.52717 
L 150.221589 -92.52717 
L 144.175073 -92.52717 
L 120.769205 -92.52717 
L 109.066271 -92.52717 
L 101.264315 -92.52717 
L 89.561382 -92.52717 
L 77.858448 -92.52717 
L 67.325807 -92.52717 
L 63.814927 -92.52717 
L 62.644634 -92.52717 
z
" style="stroke: #58508d; stroke-opacity: 0.7; stroke-width: 0.8"/>
    </defs>
    <g clip-path="url(#p5a4c1bc484)">
     <use xlink:href="#m3c5b71a9d0" x="0" y="641.330875" style="fill: #58508d; fill-opacity: 0.7; stroke: #58508d; stroke-opacity: 0.7; stroke-width: 0.8"/>
    </g>
   </g>
   <g id="FillBetweenPolyCollection_2">
    <defs>
     <path id="m7c229e8edc" d="M 62.644634 -92.52717 
L 62.644634 -92.52717 
L 63.814927 -92.52717 
L 67.325807 -92.52717 
L 77.858448 -92.52717 
L 89.561382 -92.52717 
L 101.264315 -92.52717 
L 109.066271 -92.52717 
L 120.769205 -92.52717 
L 144.175073 -92.52717 
L 150.221589 -92.52717 
L 156.268105 -92.52717 
L 179.673972 -93.701922 
L 203.469938 -95.564907 
L 215.562969 -96.889175 
L 250.671771 -106.394425 
L 251.451967 -106.498921 
L 253.792553 -106.825366 
L 286.950866 -126.832664 
L 297.873604 -133.231808 
L 322.449765 -152.246066 
L 345.075437 -170.612322 
L 358.338762 -185.599937 
L 394.227759 -219.068055 
L 429.336561 -245.25491 
L 464.83546 -287.802479 
L 500.724458 -333.697477 
L 536.613455 -352.565094 
L 571.722256 -381.275388 
L 607.221156 -405.495764 
L 643.110153 -413.938315 
L 678.99915 -435.054081 
L 714.107951 -442.438516 
L 749.606851 -453.685144 
L 785.495848 -462.104603 
L 821.384845 -470.878238 
L 856.883744 -473.199426 
L 892.382644 -477.979999 
L 928.271641 -488.527693 
L 939.974575 -491.46964 
L 964.160638 -494.342275 
L 975.863572 -494.651248 
L 999.26944 -495.092563 
L 1010.972373 -494.497121 
L 1022.675307 -493.765903 
L 1028.721823 -493.402011 
L 1034.768339 -492.993995 
L 1070.657336 -495.621015 
L 1082.36027 -495.674888 
L 1094.063204 -495.710835 
L 1100.304768 -495.732522 
L 1106.546333 -495.747045 
L 1106.546333 -585.251178 
L 1106.546333 -585.251178 
L 1100.304768 -585.25808 
L 1094.063204 -584.74572 
L 1082.36027 -583.886575 
L 1070.657336 -583.393482 
L 1034.768339 -582.489002 
L 1028.721823 -582.141203 
L 1022.675307 -581.950148 
L 1010.972373 -581.571471 
L 999.26944 -581.174412 
L 975.863572 -580.219299 
L 964.160638 -579.517846 
L 939.974575 -577.951852 
L 928.271641 -577.14465 
L 892.382644 -575.119384 
L 856.883744 -571.79948 
L 821.384845 -569.635624 
L 785.495848 -566.565882 
L 749.606851 -561.944833 
L 714.107951 -558.649658 
L 678.99915 -553.272204 
L 643.110153 -549.47422 
L 607.221156 -546.218002 
L 571.722256 -538.650426 
L 536.613455 -529.739542 
L 500.724458 -517.227127 
L 464.83546 -502.458354 
L 429.336561 -486.063761 
L 394.227759 -450.887904 
L 358.338762 -401.248157 
L 345.075437 -381.304499 
L 322.449765 -342.677574 
L 297.873604 -314.615825 
L 286.950866 -299.602893 
L 253.792553 -256.634518 
L 251.451967 -254.235301 
L 250.671771 -252.773111 
L 215.562969 -192.943478 
L 203.469938 -163.252026 
L 179.673972 -126.608973 
L 156.268105 -92.52717 
L 150.221589 -92.52717 
L 144.175073 -92.52717 
L 120.769205 -92.52717 
L 109.066271 -92.52717 
L 101.264315 -92.52717 
L 89.561382 -92.52717 
L 77.858448 -92.52717 
L 67.325807 -92.52717 
L 63.814927 -92.52717 
L 62.644634 -92.52717 
z
" style="stroke: #ffa600; stroke-opacity: 0.7; stroke-width: 0.8"/>
    </defs>
    <g clip-path="url(#p5a4c1bc484)">
     <use xlink:href="#m7c229e8edc" x="0" y="641.330875" style="fill: #ffa600; fill-opacity: 0.7; stroke: #ffa600; stroke-opacity: 0.7; stroke-width: 0.8"/>
    </g>
   </g>
   <g id="line2d_17">
    <path d="M 62.644634 548.803705 
L 63.814927 548.803705 
L 67.325807 548.803705 
L 77.858448 548.803705 
L 89.561382 548.803705 
L 101.264315 548.803705 
L 109.066271 548.803705 
L 120.769205 548.803705 
L 144.175073 548.803705 
L 150.221589 548.803705 
L 156.268105 548.803705 
L 179.673972 548.803705 
L 203.469938 548.803705 
L 215.562969 548.803705 
L 250.671771 548.803705 
L 251.451967 537.18713 
L 253.792553 529.373211 
L 286.950866 490.948029 
L 297.873604 478.913824 
L 322.449765 456.255458 
L 345.075437 443.503109 
L 358.338762 435.143919 
L 394.227759 405.875695 
L 429.336561 372.374489 
L 464.83546 333.500864 
L 500.724458 296.82349 
L 536.613455 263.338628 
L 571.722256 234.055054 
L 607.221156 209.152601 
L 643.110153 188.224374 
L 678.99915 170.592642 
L 714.107951 156.898381 
L 749.606851 145.246008 
L 785.495848 135.752869 
L 821.384845 128.274845 
L 856.883744 122.187087 
L 892.382644 117.066764 
L 928.271641 112.742464 
L 939.974575 111.491132 
L 964.160638 109.116022 
L 975.863572 108.064595 
L 999.26944 106.123363 
L 1010.972373 105.226224 
L 1022.675307 104.370115 
L 1028.721823 103.943948 
L 1034.768339 103.526044 
L 1070.657336 101.245295 
L 1082.36027 100.562761 
L 1094.063204 99.907453 
L 1100.304768 99.567887 
L 1106.546333 99.232967 
" clip-path="url(#p5a4c1bc484)" style="fill: none; stroke: #000000; stroke-width: 4; stroke-linecap: round"/>
   </g>
   <g id="line2d_18">
    <path d="M 62.644634 548.803705 
L 63.814927 548.803705 
L 67.325807 548.803705 
L 77.858448 548.803705 
L 89.561382 548.803705 
L 101.264315 548.803705 
L 109.066271 548.803705 
L 120.769205 548.803705 
L 144.175073 548.803705 
L 150.221589 548.803705 
L 156.268105 548.803705 
L 179.673972 548.803705 
L 203.469938 548.803705 
L 215.562969 548.803705 
L 250.671771 548.803705 
L 251.451967 522.375121 
L 253.792553 504.045296 
L 286.950866 428.374624 
L 297.873604 402.539288 
L 322.449765 379.213906 
L 345.075437 367.112877 
L 358.338762 361.406514 
L 394.227759 331.685354 
L 429.336561 290.985324 
L 464.83546 234.654368 
L 500.724458 194.207591 
L 536.613455 168.286459 
L 571.722256 145.52008 
L 607.221156 129.714714 
L 643.110153 117.680804 
L 678.99915 108.863142 
L 714.107951 101.957081 
L 749.606851 95.533679 
L 785.495848 89.662052 
L 821.384845 84.648294 
L 856.883744 80.286237 
L 892.382644 76.494632 
L 928.271641 72.604179 
L 939.974575 71.71468 
L 964.160638 70.034694 
L 975.863572 69.091094 
L 999.26944 67.315433 
L 1010.972373 66.443826 
L 1022.675307 65.600349 
L 1028.721823 65.363435 
L 1034.768339 65.010828 
L 1070.657336 62.908826 
L 1082.36027 62.385574 
L 1094.063204 61.622104 
L 1100.304768 61.262596 
L 1106.546333 60.893143 
" clip-path="url(#p5a4c1bc484)" style="fill: none; stroke-dasharray: 7.4,3.2; stroke-dashoffset: 0; stroke: #000000; stroke-width: 2"/>
   </g>
   <g id="line2d_19">
    <path d="M 62.644634 548.803705 
L 63.814927 548.803705 
L 67.325807 548.803705 
L 77.858448 548.803705 
L 89.561382 548.803705 
L 101.264315 548.803705 
L 109.066271 548.803705 
L 120.769205 548.803705 
L 144.175073 548.803705 
L 150.221589 548.803705 
L 156.268105 548.803705 
L 179.673972 548.803705 
L 203.469938 548.803705 
L 215.562969 548.803705 
L 250.671771 548.803705 
L 251.451967 548.222658 
L 253.792553 547.443447 
L 286.950866 539.331802 
L 297.873604 538.652306 
L 322.449765 528.893827 
L 345.075437 518.491991 
L 358.338762 515.61966 
L 394.227759 491.664516 
L 429.336561 476.994223 
L 464.83546 438.459366 
L 500.724458 417.329265 
L 536.613455 378.530395 
L 571.722256 348.50749 
L 607.221156 315.020009 
L 643.110153 288.779976 
L 678.99915 257.375477 
L 714.107951 239.167804 
L 749.606851 218.832745 
L 785.495848 205.046562 
L 821.384845 193.434211 
L 856.883744 183.687177 
L 892.382644 175.619966 
L 928.271641 169.978089 
L 939.974575 168.361756 
L 964.160638 165.254267 
L 975.863572 163.958943 
L 999.26944 161.621302 
L 1010.972373 160.585854 
L 1022.675307 159.630381 
L 1028.721823 159.14203 
L 1034.768339 158.684327 
L 1070.657336 156.334093 
L 1082.36027 156.593021 
L 1094.063204 156.818944 
L 1100.304768 156.931039 
L 1106.546333 157.049905 
" clip-path="url(#p5a4c1bc484)" style="fill: none; stroke-dasharray: 2,3.3; stroke-dashoffset: 0; stroke: #000000; stroke-width: 2"/>
   </g>
   <g id="line2d_20">
    <path d="M 62.644634 548.803705 
L 63.814927 548.803705 
L 67.325807 548.803705 
L 77.858448 548.803705 
L 89.561382 548.803705 
L 101.264315 548.803705 
L 109.066271 548.803705 
L 120.769205 548.803705 
L 144.175073 548.803705 
L 150.221589 548.803705 
L 156.268105 548.803705 
L 179.673972 535.461446 
L 203.469938 515.959914 
L 215.562969 502.070801 
L 250.671771 462.116668 
L 251.451967 461.219054 
L 253.792553 458.63463 
L 286.950866 427.435875 
L 297.873604 418.051111 
L 322.449765 389.732539 
L 345.075437 359.720986 
L 358.338762 342.18516 
L 394.227759 298.719344 
L 429.336561 262.851115 
L 464.83546 231.417357 
L 500.724458 206.259231 
L 536.613455 186.29079 
L 571.722256 170.081844 
L 607.221156 156.485295 
L 643.110153 145.257634 
L 678.99915 135.434136 
L 714.107951 127.843773 
L 749.606851 121.522433 
L 785.495848 116.099426 
L 821.384845 111.472098 
L 856.883744 107.620458 
L 892.382644 104.404808 
L 928.271641 101.780827 
L 939.974575 101.022165 
L 964.160638 99.56629 
L 975.863572 98.916307 
L 999.26944 97.697414 
L 1010.972373 97.123493 
L 1022.675307 96.570957 
L 1028.721823 96.292666 
L 1034.768339 96.019615 
L 1070.657336 94.578208 
L 1082.36027 94.141967 
L 1094.063204 93.721088 
L 1100.304768 93.505095 
L 1106.546333 93.28507 
" clip-path="url(#p5a4c1bc484)" style="fill: none; stroke: #808080; stroke-width: 4; stroke-linecap: round"/>
   </g>
   <g id="line2d_21">
    <path d="M 62.644634 548.803705 
L 63.814927 548.803705 
L 67.325807 548.803705 
L 77.858448 548.803705 
L 89.561382 548.803705 
L 101.264315 548.803705 
L 109.066271 548.803705 
L 120.769205 548.803705 
L 144.175073 548.803705 
L 150.221589 548.803705 
L 156.268105 548.803705 
L 179.673972 514.721902 
L 203.469938 478.078849 
L 215.562969 448.387397 
L 250.671771 388.557764 
L 251.451967 387.095574 
L 253.792553 384.696357 
L 286.950866 341.727982 
L 297.873604 326.71505 
L 322.449765 298.653301 
L 345.075437 260.026376 
L 358.338762 240.082718 
L 394.227759 190.442971 
L 429.336561 155.267114 
L 464.83546 138.872521 
L 500.724458 124.103748 
L 536.613455 111.591333 
L 571.722256 102.680449 
L 607.221156 95.112873 
L 643.110153 91.856655 
L 678.99915 88.058671 
L 714.107951 82.681217 
L 749.606851 79.386042 
L 785.495848 74.764993 
L 821.384845 71.695251 
L 856.883744 69.531395 
L 892.382644 66.211491 
L 928.271641 64.186225 
L 939.974575 63.379023 
L 964.160638 61.813029 
L 975.863572 61.111576 
L 999.26944 60.156463 
L 1010.972373 59.759404 
L 1022.675307 59.380727 
L 1028.721823 59.189672 
L 1034.768339 58.841873 
L 1070.657336 57.937393 
L 1082.36027 57.4443 
L 1094.063204 56.585155 
L 1100.304768 56.072795 
L 1106.546333 56.079697 
" clip-path="url(#p5a4c1bc484)" style="fill: none; stroke-dasharray: 7.4,3.2; stroke-dashoffset: 0; stroke: #808080; stroke-width: 2"/>
   </g>
   <g id="line2d_22">
    <path d="M 62.644634 548.803705 
L 63.814927 548.803705 
L 67.325807 548.803705 
L 77.858448 548.803705 
L 89.561382 548.803705 
L 101.264315 548.803705 
L 109.066271 548.803705 
L 120.769205 548.803705 
L 144.175073 548.803705 
L 150.221589 548.803705 
L 156.268105 548.803705 
L 179.673972 547.628953 
L 203.469938 545.765968 
L 215.562969 544.4417 
L 250.671771 534.93645 
L 251.451967 534.831954 
L 253.792553 534.505509 
L 286.950866 514.498211 
L 297.873604 508.099067 
L 322.449765 489.084809 
L 345.075437 470.718553 
L 358.338762 455.730938 
L 394.227759 422.26282 
L 429.336561 396.075965 
L 464.83546 353.528396 
L 500.724458 307.633398 
L 536.613455 288.765781 
L 571.722256 260.055487 
L 607.221156 235.835111 
L 643.110153 227.39256 
L 678.99915 206.276794 
L 714.107951 198.892359 
L 749.606851 187.645731 
L 785.495848 179.226272 
L 821.384845 170.452637 
L 856.883744 168.131449 
L 892.382644 163.350876 
L 928.271641 152.803182 
L 939.974575 149.861235 
L 964.160638 146.9886 
L 975.863572 146.679627 
L 999.26944 146.238312 
L 1010.972373 146.833754 
L 1022.675307 147.564972 
L 1028.721823 147.928864 
L 1034.768339 148.33688 
L 1070.657336 145.70986 
L 1082.36027 145.655987 
L 1094.063204 145.62004 
L 1100.304768 145.598353 
L 1106.546333 145.58383 
" clip-path="url(#p5a4c1bc484)" style="fill: none; stroke-dasharray: 2,3.3; stroke-dashoffset: 0; stroke: #808080; stroke-width: 2"/>
   </g>
   <g id="patch_3">
    <path d="M 103.995 573.44025 
L 103.995 31.43625 
" style="fill: none; stroke: #ffffff; stroke-linejoin: miter; stroke-linecap: square"/>
   </g>
   <g id="patch_4">
    <path d="M 1112.787898 573.44025 
L 1112.787898 31.43625 
" style="fill: none; stroke: #ffffff; stroke-linejoin: miter; stroke-linecap: square"/>
   </g>
   <g id="patch_5">
    <path d="M 103.995 573.44025 
L 1112.787898 573.44025 
" style="fill: none; stroke: #ffffff; stroke-linejoin: miter; stroke-linecap: square"/>
   </g>
   <g id="patch_6">
    <path d="M 103.995 31.43625 
L 1112.787898 31.43625 
" style="fill: none; stroke: #ffffff; stroke-linejoin: miter; stroke-linecap: square"/>
   </g>
   <g id="text_19">
    <!-- WWPR:A4 -->
    <g style="fill: #262626" transform="translate(541.450199 25.43625) scale(0.24 -0.24)">
     <use xlink:href="#DejaVuSans-Bold-57"/>
     <use xlink:href="#DejaVuSans-Bold-57" transform="translate(110.302734 0)"/>
     <use xlink:href="#DejaVuSans-Bold-50" transform="translate(220.605469 0)"/>
     <use xlink:href="#DejaVuSans-Bold-52" transform="translate(293.896484 0)"/>
     <use xlink:href="#DejaVuSans-Bold-3a" transform="translate(370.898438 0)"/>
     <use xlink:href="#DejaVuSans-Bold-41" transform="translate(410.888672 0)"/>
     <use xlink:href="#DejaVuSans-Bold-34" transform="translate(488.28125 0)"/>
    </g>
   </g>
   <g id="legend_1">
    <g id="patch_7">
     <path d="M 119.395 210.495625 
L 346.562188 210.495625 
Q 350.962188 210.495625 350.962188 206.095625 
L 350.962188 46.83625 
Q 350.962188 42.43625 346.562188 42.43625 
L 119.395 42.43625 
Q 114.995 42.43625 114.995 46.83625 
L 114.995 206.095625 
Q 114.995 210.495625 119.395 210.495625 
z
" style="fill: #eaeaf2; opacity: 0.8; stroke: #cccccc; stroke-width: 0.8; stroke-linejoin: miter"/>
    </g>
    <g id="line2d_23">
     <path d="M 123.795 60.252813 
L 145.795 60.252813 
L 167.795 60.252813 
" style="fill: none; stroke: #000000; stroke-width: 4; stroke-linecap: round"/>
    </g>
    <g id="text_20">
     <!-- Mean -->
     <g style="fill: #262626" transform="translate(185.395 67.952813) scale(0.22 -0.22)">
      <defs>
       <path id="DejaVuSans-4d" d="M 628 4666 
L 1569 4666 
L 2759 1491 
L 3956 4666 
L 4897 4666 
L 4897 0 
L 4281 0 
L 4281 4097 
L 3078 897 
L 2444 897 
L 1241 4097 
L 1241 0 
L 628 0 
L 628 4666 
z
" transform="scale(0.015625)"/>
       <path id="DejaVuSans-65" d="M 3597 1894 
L 3597 1613 
L 953 1613 
Q 991 1019 1311 708 
Q 1631 397 2203 397 
Q 2534 397 2845 478 
Q 3156 559 3463 722 
L 3463 178 
Q 3153 47 2828 -22 
Q 2503 -91 2169 -91 
Q 1331 -91 842 396 
Q 353 884 353 1716 
Q 353 2575 817 3079 
Q 1281 3584 2069 3584 
Q 2775 3584 3186 3129 
Q 3597 2675 3597 1894 
z
M 3022 2063 
Q 3016 2534 2758 2815 
Q 2500 3097 2075 3097 
Q 1594 3097 1305 2825 
Q 1016 2553 972 2059 
L 3022 2063 
z
" transform="scale(0.015625)"/>
       <path id="DejaVuSans-61" d="M 2194 1759 
Q 1497 1759 1228 1600 
Q 959 1441 959 1056 
Q 959 750 1161 570 
Q 1363 391 1709 391 
Q 2188 391 2477 730 
Q 2766 1069 2766 1631 
L 2766 1759 
L 2194 1759 
z
M 3341 1997 
L 3341 0 
L 2766 0 
L 2766 531 
Q 2569 213 2275 61 
Q 1981 -91 1556 -91 
Q 1019 -91 701 211 
Q 384 513 384 1019 
Q 384 1609 779 1909 
Q 1175 2209 1959 2209 
L 2766 2209 
L 2766 2266 
Q 2766 2663 2505 2880 
Q 2244 3097 1772 3097 
Q 1472 3097 1187 3025 
Q 903 2953 641 2809 
L 641 3341 
Q 956 3463 1253 3523 
Q 1550 3584 1831 3584 
Q 2591 3584 2966 3190 
Q 3341 2797 3341 1997 
z
" transform="scale(0.015625)"/>
       <path id="DejaVuSans-6e" d="M 3513 2113 
L 3513 0 
L 2938 0 
L 2938 2094 
Q 2938 2591 2744 2837 
Q 2550 3084 2163 3084 
Q 1697 3084 1428 2787 
Q 1159 2491 1159 1978 
L 1159 0 
L 581 0 
L 581 3500 
L 1159 3500 
L 1159 2956 
Q 1366 3272 1645 3428 
Q 1925 3584 2291 3584 
Q 2894 3584 3203 3211 
Q 3513 2838 3513 2113 
z
" transform="scale(0.015625)"/>
      </defs>
      <use xlink:href="#DejaVuSans-4d"/>
      <use xlink:href="#DejaVuSans-65" transform="translate(86.279297 0)"/>
      <use xlink:href="#DejaVuSans-61" transform="translate(147.802734 0)"/>
      <use xlink:href="#DejaVuSans-6e" transform="translate(209.082031 0)"/>
     </g>
    </g>
    <g id="line2d_24">
     <path d="M 123.795 92.544688 
L 145.795 92.544688 
L 167.795 92.544688 
" style="fill: none; stroke-dasharray: 7.4,3.2; stroke-dashoffset: 0; stroke: #000000; stroke-width: 2"/>
    </g>
    <g id="text_21">
     <!-- P10 Percentile -->
     <g style="fill: #262626" transform="translate(185.395 100.244688) scale(0.22 -0.22)">
      <defs>
       <path id="DejaVuSans-50" d="M 1259 4147 
L 1259 2394 
L 2053 2394 
Q 2494 2394 2734 2622 
Q 2975 2850 2975 3272 
Q 2975 3691 2734 3919 
Q 2494 4147 2053 4147 
L 1259 4147 
z
M 628 4666 
L 2053 4666 
Q 2838 4666 3239 4311 
Q 3641 3956 3641 3272 
Q 3641 2581 3239 2228 
Q 2838 1875 2053 1875 
L 1259 1875 
L 1259 0 
L 628 0 
L 628 4666 
z
" transform="scale(0.015625)"/>
       <path id="DejaVuSans-20" transform="scale(0.015625)"/>
       <path id="DejaVuSans-72" d="M 2631 2963 
Q 2534 3019 2420 3045 
Q 2306 3072 2169 3072 
Q 1681 3072 1420 2755 
Q 1159 2438 1159 1844 
L 1159 0 
L 581 0 
L 581 3500 
L 1159 3500 
L 1159 2956 
Q 1341 3275 1631 3429 
Q 1922 3584 2338 3584 
Q 2397 3584 2469 3576 
Q 2541 3569 2628 3553 
L 2631 2963 
z
" transform="scale(0.015625)"/>
       <path id="DejaVuSans-63" d="M 3122 3366 
L 3122 2828 
Q 2878 2963 2633 3030 
Q 2388 3097 2138 3097 
Q 1578 3097 1268 2742 
Q 959 2388 959 1747 
Q 959 1106 1268 751 
Q 1578 397 2138 397 
Q 2388 397 2633 464 
Q 2878 531 3122 666 
L 3122 134 
Q 2881 22 2623 -34 
Q 2366 -91 2075 -91 
Q 1284 -91 818 406 
Q 353 903 353 1747 
Q 353 2603 823 3093 
Q 1294 3584 2113 3584 
Q 2378 3584 2631 3529 
Q 2884 3475 3122 3366 
z
" transform="scale(0.015625)"/>
       <path id="DejaVuSans-74" d="M 1172 4494 
L 1172 3500 
L 2356 3500 
L 2356 3053 
L 1172 3053 
L 1172 1153 
Q 1172 725 1289 603 
Q 1406 481 1766 481 
L 2356 481 
L 2356 0 
L 1766 0 
Q 1100 0 847 248 
Q 594 497 594 1153 
L 594 3053 
L 172 3053 
L 172 3500 
L 594 3500 
L 594 4494 
L 1172 4494 
z
" transform="scale(0.015625)"/>
       <path id="DejaVuSans-69" d="M 603 3500 
L 1178 3500 
L 1178 0 
L 603 0 
L 603 3500 
z
M 603 4863 
L 1178 4863 
L 1178 4134 
L 603 4134 
L 603 4863 
z
" transform="scale(0.015625)"/>
       <path id="DejaVuSans-6c" d="M 603 4863 
L 1178 4863 
L 1178 0 
L 603 0 
L 603 4863 
z
" transform="scale(0.015625)"/>
      </defs>
      <use xlink:href="#DejaVuSans-50"/>
      <use xlink:href="#DejaVuSans-31" transform="translate(60.302734 0)"/>
      <use xlink:href="#DejaVuSans-30" transform="translate(123.925781 0)"/>
      <use xlink:href="#DejaVuSans-20" transform="translate(187.548828 0)"/>
      <use xlink:href="#DejaVuSans-50" transform="translate(219.335938 0)"/>
      <use xlink:href="#DejaVuSans-65" transform="translate(276.013672 0)"/>
      <use xlink:href="#DejaVuSans-72" transform="translate(337.537109 0)"/>
      <use xlink:href="#DejaVuSans-63" transform="translate(376.400391 0)"/>
      <use xlink:href="#DejaVuSans-65" transform="translate(431.380859 0)"/>
      <use xlink:href="#DejaVuSans-6e" transform="translate(492.904297 0)"/>
      <use xlink:href="#DejaVuSans-74" transform="translate(556.283203 0)"/>
      <use xlink:href="#DejaVuSans-69" transform="translate(595.492188 0)"/>
      <use xlink:href="#DejaVuSans-6c" transform="translate(623.275391 0)"/>
      <use xlink:href="#DejaVuSans-65" transform="translate(651.058594 0)"/>
     </g>
    </g>
    <g id="line2d_25">
     <path d="M 123.795 124.836563 
L 145.795 124.836563 
L 167.795 124.836563 
" style="fill: none; stroke-dasharray: 2,3.3; stroke-dashoffset: 0; stroke: #000000; stroke-width: 2"/>
    </g>
    <g id="text_22">
     <!-- P90 Percentile -->
     <g style="fill: #262626" transform="translate(185.395 132.536563) scale(0.22 -0.22)">
      <use xlink:href="#DejaVuSans-50"/>
      <use xlink:href="#DejaVuSans-39" transform="translate(60.302734 0)"/>
      <use xlink:href="#DejaVuSans-30" transform="translate(123.925781 0)"/>
      <use xlink:href="#DejaVuSans-20" transform="translate(187.548828 0)"/>
      <use xlink:href="#DejaVuSans-50" transform="translate(219.335938 0)"/>
      <use xlink:href="#DejaVuSans-65" transform="translate(276.013672 0)"/>
      <use xlink:href="#DejaVuSans-72" transform="translate(337.537109 0)"/>
      <use xlink:href="#DejaVuSans-63" transform="translate(376.400391 0)"/>
      <use xlink:href="#DejaVuSans-65" transform="translate(431.380859 0)"/>
      <use xlink:href="#DejaVuSans-6e" transform="translate(492.904297 0)"/>
      <use xlink:href="#DejaVuSans-74" transform="translate(556.283203 0)"/>
      <use xlink:href="#DejaVuSans-69" transform="translate(595.492188 0)"/>
      <use xlink:href="#DejaVuSans-6c" transform="translate(623.275391 0)"/>
      <use xlink:href="#DejaVuSans-65" transform="translate(651.058594 0)"/>
     </g>
    </g>
    <g id="patch_8">
     <path d="M 123.795 164.828438 
L 167.795 164.828438 
L 167.795 149.428438 
L 123.795 149.428438 
z
" style="fill: #58508d; fill-opacity: 0.7; stroke: #58508d; stroke-opacity: 0.7; stroke-width: 0.8; stroke-linejoin: miter"/>
    </g>
    <g id="text_23">
     <!-- Batch 0 -->
     <g style="fill: #262626" transform="translate(185.395 164.828438) scale(0.22 -0.22)">
      <defs>
       <path id="DejaVuSans-42" d="M 1259 2228 
L 1259 519 
L 2272 519 
Q 2781 519 3026 730 
Q 3272 941 3272 1375 
Q 3272 1813 3026 2020 
Q 2781 2228 2272 2228 
L 1259 2228 
z
M 1259 4147 
L 1259 2741 
L 2194 2741 
Q 2656 2741 2882 2914 
Q 3109 3088 3109 3444 
Q 3109 3797 2882 3972 
Q 2656 4147 2194 4147 
L 1259 4147 
z
M 628 4666 
L 2241 4666 
Q 2963 4666 3353 4366 
Q 3744 4066 3744 3513 
Q 3744 3084 3544 2831 
Q 3344 2578 2956 2516 
Q 3422 2416 3680 2098 
Q 3938 1781 3938 1306 
Q 3938 681 3513 340 
Q 3088 0 2303 0 
L 628 0 
L 628 4666 
z
" transform="scale(0.015625)"/>
       <path id="DejaVuSans-68" d="M 3513 2113 
L 3513 0 
L 2938 0 
L 2938 2094 
Q 2938 2591 2744 2837 
Q 2550 3084 2163 3084 
Q 1697 3084 1428 2787 
Q 1159 2491 1159 1978 
L 1159 0 
L 581 0 
L 581 4863 
L 1159 4863 
L 1159 2956 
Q 1366 3272 1645 3428 
Q 1925 3584 2291 3584 
Q 2894 3584 3203 3211 
Q 3513 2838 3513 2113 
z
" transform="scale(0.015625)"/>
      </defs>
      <use xlink:href="#DejaVuSans-42"/>
      <use xlink:href="#DejaVuSans-61" transform="translate(68.603516 0)"/>
      <use xlink:href="#DejaVuSans-74" transform="translate(129.882812 0)"/>
      <use xlink:href="#DejaVuSans-63" transform="translate(169.091797 0)"/>
      <use xlink:href="#DejaVuSans-68" transform="translate(224.072266 0)"/>
      <use xlink:href="#DejaVuSans-20" transform="translate(287.451172 0)"/>
      <use xlink:href="#DejaVuSans-30" transform="translate(319.238281 0)"/>
     </g>
    </g>
    <g id="patch_9">
     <path d="M 123.795 197.120313 
L 167.795 197.120313 
L 167.795 181.720313 
L 123.795 181.720313 
z
" style="fill: #ffa600; fill-opacity: 0.7; stroke: #ffa600; stroke-opacity: 0.7; stroke-width: 0.8; stroke-linejoin: miter"/>
    </g>
    <g id="text_24">
     <!-- Batch 5 -->
     <g style="fill: #262626" transform="translate(185.395 197.120313) scale(0.22 -0.22)">
      <use xlink:href="#DejaVuSans-42"/>
      <use xlink:href="#DejaVuSans-61" transform="translate(68.603516 0)"/>
      <use xlink:href="#DejaVuSans-74" transform="translate(129.882812 0)"/>
      <use xlink:href="#DejaVuSans-63" transform="translate(169.091797 0)"/>
      <use xlink:href="#DejaVuSans-68" transform="translate(224.072266 0)"/>
      <use xlink:href="#DejaVuSans-20" transform="translate(287.451172 0)"/>
      <use xlink:href="#DejaVuSans-35" transform="translate(319.238281 0)"/>
     </g>
    </g>
   </g>
  </g>
 </g>
 <defs>
  <clipPath id="p5a4c1bc484">
   <rect x="103.995" y="31.43625" width="1008.792898" height="542.004"/>
  </clipPath>
 </defs>
</svg>
