<?xml version="1.0" encoding="utf-8" standalone="no"?>
<!DOCTYPE svg PUBLIC "-//W3C//DTD SVG 1.1//EN"
  "http://www.w3.org/Graphics/SVG/1.1/DTD/svg11.dtd">
<svg xmlns:xlink="http://www.w3.org/1999/xlink" width="1144.092395pt" height="641.330875pt" viewBox="0 0 1144.092395 641.330875" xmlns="http://www.w3.org/2000/svg" version="1.1">
 <metadata>
  <rdf:RDF xmlns:dc="http://purl.org/dc/elements/1.1/" xmlns:cc="http://creativecommons.org/ns#" xmlns:rdf="http://www.w3.org/1999/02/22-rdf-syntax-ns#">
   <cc:Work>
    <dc:type rdf:resource="http://purl.org/dc/dcmitype/StillImage"/>
    <dc:date>2025-07-08T08:17:43.887064</dc:date>
    <dc:format>image/svg+xml</dc:format>
    <dc:creator>
     <cc:Agent>
      <dc:title>Matplotlib v3.10.3, https://matplotlib.org/</dc:title>
     </cc:Agent>
    </dc:creator>
   </cc:Work>
  </rdf:RDF>
 </metadata>
 <defs>
  <style type="text/css">*{stroke-linejoin: round; stroke-linecap: butt}</style>
 </defs>
 <g id="figure_1">
  <g id="patch_1">
   <path d="M 0 641.330875 
L 1144.092395 641.330875 
L 1144.092395 0 
L 0 0 
z
" style="fill: #ffffff"/>
  </g>
  <g id="axes_1">
   <g id="patch_2">
    <path d="M 81.0825 573.44025 
L 1112.735398 573.44025 
L 1112.735398 31.43625 
L 81.0825 31.43625 
z
" style="fill: #eaeaf2"/>
   </g>
   <g id="matplotlib.axis_1">
    <g id="xtick_1">
     <g id="line2d_1">
      <path d="M 86.26869 573.44025 
L 86.26869 31.43625 
" clip-path="url(#p5a49f7f8b5)" style="fill: none; stroke: #ffffff; stroke-width: 0.8; stroke-linecap: round"/>
     </g>
     <g id="text_1">
      <!-- 2023 -->
      <g style="fill: #262626" transform="translate(55.72869 599.9765) scale(0.24 -0.24)">
       <defs>
        <path id="DejaVuSans-32" d="M 1228 531 
L 3431 531 
L 3431 0 
L 469 0 
L 469 531 
Q 828 903 1448 1529 
Q 2069 2156 2228 2338 
Q 2531 2678 2651 2914 
Q 2772 3150 2772 3378 
Q 2772 3750 2511 3984 
Q 2250 4219 1831 4219 
Q 1534 4219 1204 4116 
Q 875 4013 500 3803 
L 500 4441 
Q 881 4594 1212 4672 
Q 1544 4750 1819 4750 
Q 2544 4750 2975 4387 
Q 3406 4025 3406 3419 
Q 3406 3131 3298 2873 
Q 3191 2616 2906 2266 
Q 2828 2175 2409 1742 
Q 1991 1309 1228 531 
z
" transform="scale(0.015625)"/>
        <path id="DejaVuSans-30" d="M 2034 4250 
Q 1547 4250 1301 3770 
Q 1056 3291 1056 2328 
Q 1056 1369 1301 889 
Q 1547 409 2034 409 
Q 2525 409 2770 889 
Q 3016 1369 3016 2328 
Q 3016 3291 2770 3770 
Q 2525 4250 2034 4250 
z
M 2034 4750 
Q 2819 4750 3233 4129 
Q 3647 3509 3647 2328 
Q 3647 1150 3233 529 
Q 2819 -91 2034 -91 
Q 1250 -91 836 529 
Q 422 1150 422 2328 
Q 422 3509 836 4129 
Q 1250 4750 2034 4750 
z
" transform="scale(0.015625)"/>
        <path id="DejaVuSans-33" d="M 2597 2516 
Q 3050 2419 3304 2112 
Q 3559 1806 3559 1356 
Q 3559 666 3084 287 
Q 2609 -91 1734 -91 
Q 1441 -91 1130 -33 
Q 819 25 488 141 
L 488 750 
Q 750 597 1062 519 
Q 1375 441 1716 441 
Q 2309 441 2620 675 
Q 2931 909 2931 1356 
Q 2931 1769 2642 2001 
Q 2353 2234 1838 2234 
L 1294 2234 
L 1294 2753 
L 1863 2753 
Q 2328 2753 2575 2939 
Q 2822 3125 2822 3475 
Q 2822 3834 2567 4026 
Q 2313 4219 1838 4219 
Q 1578 4219 1281 4162 
Q 984 4106 628 3988 
L 628 4550 
Q 988 4650 1302 4700 
Q 1616 4750 1894 4750 
Q 2613 4750 3031 4423 
Q 3450 4097 3450 3541 
Q 3450 3153 3228 2886 
Q 3006 2619 2597 2516 
z
" transform="scale(0.015625)"/>
       </defs>
       <use xlink:href="#DejaVuSans-32"/>
       <use xlink:href="#DejaVuSans-30" transform="translate(63.623047 0)"/>
       <use xlink:href="#DejaVuSans-32" transform="translate(127.246094 0)"/>
       <use xlink:href="#DejaVuSans-33" transform="translate(190.869141 0)"/>
      </g>
     </g>
    </g>
    <g id="xtick_2">
     <g id="line2d_2">
      <path d="M 231.880951 573.44025 
L 231.880951 31.43625 
" clip-path="url(#p5a49f7f8b5)" style="fill: none; stroke: #ffffff; stroke-width: 0.8; stroke-linecap: round"/>
     </g>
     <g id="text_2">
      <!-- 2024 -->
      <g style="fill: #262626" transform="translate(201.340951 599.9765) scale(0.24 -0.24)">
       <defs>
        <path id="DejaVuSans-34" d="M 2419 4116 
L 825 1625 
L 2419 1625 
L 2419 4116 
z
M 2253 4666 
L 3047 4666 
L 3047 1625 
L 3713 1625 
L 3713 1100 
L 3047 1100 
L 3047 0 
L 2419 0 
L 2419 1100 
L 313 1100 
L 313 1709 
L 2253 4666 
z
" transform="scale(0.015625)"/>
       </defs>
       <use xlink:href="#DejaVuSans-32"/>
       <use xlink:href="#DejaVuSans-30" transform="translate(63.623047 0)"/>
       <use xlink:href="#DejaVuSans-32" transform="translate(127.246094 0)"/>
       <use xlink:href="#DejaVuSans-34" transform="translate(190.869141 0)"/>
      </g>
     </g>
    </g>
    <g id="xtick_3">
     <g id="line2d_3">
      <path d="M 377.89215 573.44025 
L 377.89215 31.43625 
" clip-path="url(#p5a49f7f8b5)" style="fill: none; stroke: #ffffff; stroke-width: 0.8; stroke-linecap: round"/>
     </g>
     <g id="text_3">
      <!-- 2025 -->
      <g style="fill: #262626" transform="translate(347.35215 599.9765) scale(0.24 -0.24)">
       <defs>
        <path id="DejaVuSans-35" d="M 691 4666 
L 3169 4666 
L 3169 4134 
L 1269 4134 
L 1269 2991 
Q 1406 3038 1543 3061 
Q 1681 3084 1819 3084 
Q 2600 3084 3056 2656 
Q 3513 2228 3513 1497 
Q 3513 744 3044 326 
Q 2575 -91 1722 -91 
Q 1428 -91 1123 -41 
Q 819 9 494 109 
L 494 744 
Q 775 591 1075 516 
Q 1375 441 1709 441 
Q 2250 441 2565 725 
Q 2881 1009 2881 1497 
Q 2881 1984 2565 2268 
Q 2250 2553 1709 2553 
Q 1456 2553 1204 2497 
Q 953 2441 691 2322 
L 691 4666 
z
" transform="scale(0.015625)"/>
       </defs>
       <use xlink:href="#DejaVuSans-32"/>
       <use xlink:href="#DejaVuSans-30" transform="translate(63.623047 0)"/>
       <use xlink:href="#DejaVuSans-32" transform="translate(127.246094 0)"/>
       <use xlink:href="#DejaVuSans-35" transform="translate(190.869141 0)"/>
      </g>
     </g>
    </g>
    <g id="xtick_4">
     <g id="line2d_4">
      <path d="M 523.504412 573.44025 
L 523.504412 31.43625 
" clip-path="url(#p5a49f7f8b5)" style="fill: none; stroke: #ffffff; stroke-width: 0.8; stroke-linecap: round"/>
     </g>
     <g id="text_4">
      <!-- 2026 -->
      <g style="fill: #262626" transform="translate(492.964412 599.9765) scale(0.24 -0.24)">
       <defs>
        <path id="DejaVuSans-36" d="M 2113 2584 
Q 1688 2584 1439 2293 
Q 1191 2003 1191 1497 
Q 1191 994 1439 701 
Q 1688 409 2113 409 
Q 2538 409 2786 701 
Q 3034 994 3034 1497 
Q 3034 2003 2786 2293 
Q 2538 2584 2113 2584 
z
M 3366 4563 
L 3366 3988 
Q 3128 4100 2886 4159 
Q 2644 4219 2406 4219 
Q 1781 4219 1451 3797 
Q 1122 3375 1075 2522 
Q 1259 2794 1537 2939 
Q 1816 3084 2150 3084 
Q 2853 3084 3261 2657 
Q 3669 2231 3669 1497 
Q 3669 778 3244 343 
Q 2819 -91 2113 -91 
Q 1303 -91 875 529 
Q 447 1150 447 2328 
Q 447 3434 972 4092 
Q 1497 4750 2381 4750 
Q 2619 4750 2861 4703 
Q 3103 4656 3366 4563 
z
" transform="scale(0.015625)"/>
       </defs>
       <use xlink:href="#DejaVuSans-32"/>
       <use xlink:href="#DejaVuSans-30" transform="translate(63.623047 0)"/>
       <use xlink:href="#DejaVuSans-32" transform="translate(127.246094 0)"/>
       <use xlink:href="#DejaVuSans-36" transform="translate(190.869141 0)"/>
      </g>
     </g>
    </g>
    <g id="xtick_5">
     <g id="line2d_5">
      <path d="M 669.116673 573.44025 
L 669.116673 31.43625 
" clip-path="url(#p5a49f7f8b5)" style="fill: none; stroke: #ffffff; stroke-width: 0.8; stroke-linecap: round"/>
     </g>
     <g id="text_5">
      <!-- 2027 -->
      <g style="fill: #262626" transform="translate(638.576673 599.9765) scale(0.24 -0.24)">
       <defs>
        <path id="DejaVuSans-37" d="M 525 4666 
L 3525 4666 
L 3525 4397 
L 1831 0 
L 1172 0 
L 2766 4134 
L 525 4134 
L 525 4666 
z
" transform="scale(0.015625)"/>
       </defs>
       <use xlink:href="#DejaVuSans-32"/>
       <use xlink:href="#DejaVuSans-30" transform="translate(63.623047 0)"/>
       <use xlink:href="#DejaVuSans-32" transform="translate(127.246094 0)"/>
       <use xlink:href="#DejaVuSans-37" transform="translate(190.869141 0)"/>
      </g>
     </g>
    </g>
    <g id="xtick_6">
     <g id="line2d_6">
      <path d="M 814.728934 573.44025 
L 814.728934 31.43625 
" clip-path="url(#p5a49f7f8b5)" style="fill: none; stroke: #ffffff; stroke-width: 0.8; stroke-linecap: round"/>
     </g>
     <g id="text_6">
      <!-- 2028 -->
      <g style="fill: #262626" transform="translate(784.188934 599.9765) scale(0.24 -0.24)">
       <defs>
        <path id="DejaVuSans-38" d="M 2034 2216 
Q 1584 2216 1326 1975 
Q 1069 1734 1069 1313 
Q 1069 891 1326 650 
Q 1584 409 2034 409 
Q 2484 409 2743 651 
Q 3003 894 3003 1313 
Q 3003 1734 2745 1975 
Q 2488 2216 2034 2216 
z
M 1403 2484 
Q 997 2584 770 2862 
Q 544 3141 544 3541 
Q 544 4100 942 4425 
Q 1341 4750 2034 4750 
Q 2731 4750 3128 4425 
Q 3525 4100 3525 3541 
Q 3525 3141 3298 2862 
Q 3072 2584 2669 2484 
Q 3125 2378 3379 2068 
Q 3634 1759 3634 1313 
Q 3634 634 3220 271 
Q 2806 -91 2034 -91 
Q 1263 -91 848 271 
Q 434 634 434 1313 
Q 434 1759 690 2068 
Q 947 2378 1403 2484 
z
M 1172 3481 
Q 1172 3119 1398 2916 
Q 1625 2713 2034 2713 
Q 2441 2713 2670 2916 
Q 2900 3119 2900 3481 
Q 2900 3844 2670 4047 
Q 2441 4250 2034 4250 
Q 1625 4250 1398 4047 
Q 1172 3844 1172 3481 
z
" transform="scale(0.015625)"/>
       </defs>
       <use xlink:href="#DejaVuSans-32"/>
       <use xlink:href="#DejaVuSans-30" transform="translate(63.623047 0)"/>
       <use xlink:href="#DejaVuSans-32" transform="translate(127.246094 0)"/>
       <use xlink:href="#DejaVuSans-38" transform="translate(190.869141 0)"/>
      </g>
     </g>
    </g>
    <g id="xtick_7">
     <g id="line2d_7">
      <path d="M 960.740133 573.44025 
L 960.740133 31.43625 
" clip-path="url(#p5a49f7f8b5)" style="fill: none; stroke: #ffffff; stroke-width: 0.8; stroke-linecap: round"/>
     </g>
     <g id="text_7">
      <!-- 2029 -->
      <g style="fill: #262626" transform="translate(930.200133 599.9765) scale(0.24 -0.24)">
       <defs>
        <path id="DejaVuSans-39" d="M 703 97 
L 703 672 
Q 941 559 1184 500 
Q 1428 441 1663 441 
Q 2288 441 2617 861 
Q 2947 1281 2994 2138 
Q 2813 1869 2534 1725 
Q 2256 1581 1919 1581 
Q 1219 1581 811 2004 
Q 403 2428 403 3163 
Q 403 3881 828 4315 
Q 1253 4750 1959 4750 
Q 2769 4750 3195 4129 
Q 3622 3509 3622 2328 
Q 3622 1225 3098 567 
Q 2575 -91 1691 -91 
Q 1453 -91 1209 -44 
Q 966 3 703 97 
z
M 1959 2075 
Q 2384 2075 2632 2365 
Q 2881 2656 2881 3163 
Q 2881 3666 2632 3958 
Q 2384 4250 1959 4250 
Q 1534 4250 1286 3958 
Q 1038 3666 1038 3163 
Q 1038 2656 1286 2365 
Q 1534 2075 1959 2075 
z
" transform="scale(0.015625)"/>
       </defs>
       <use xlink:href="#DejaVuSans-32"/>
       <use xlink:href="#DejaVuSans-30" transform="translate(63.623047 0)"/>
       <use xlink:href="#DejaVuSans-32" transform="translate(127.246094 0)"/>
       <use xlink:href="#DejaVuSans-39" transform="translate(190.869141 0)"/>
      </g>
     </g>
    </g>
    <g id="xtick_8">
     <g id="line2d_8">
      <path d="M 1106.352395 573.44025 
L 1106.352395 31.43625 
" clip-path="url(#p5a49f7f8b5)" style="fill: none; stroke: #ffffff; stroke-width: 0.8; stroke-linecap: round"/>
     </g>
     <g id="text_8">
      <!-- 2030 -->
      <g style="fill: #262626" transform="translate(1075.812395 599.9765) scale(0.24 -0.24)">
       <use xlink:href="#DejaVuSans-32"/>
       <use xlink:href="#DejaVuSans-30" transform="translate(63.623047 0)"/>
       <use xlink:href="#DejaVuSans-33" transform="translate(127.246094 0)"/>
       <use xlink:href="#DejaVuSans-30" transform="translate(190.869141 0)"/>
      </g>
     </g>
    </g>
    <g id="text_9">
     <!-- Date -->
     <g style="fill: #262626" transform="translate(562.312699 628.723687) scale(0.26 -0.26)">
      <defs>
       <path id="DejaVuSans-Bold-44" d="M 1791 3756 
L 1791 909 
L 2222 909 
Q 2959 909 3348 1275 
Q 3738 1641 3738 2338 
Q 3738 3031 3350 3393 
Q 2963 3756 2222 3756 
L 1791 3756 
z
M 588 4666 
L 1856 4666 
Q 2919 4666 3439 4514 
Q 3959 4363 4331 4000 
Q 4659 3684 4818 3271 
Q 4978 2859 4978 2338 
Q 4978 1809 4818 1395 
Q 4659 981 4331 666 
Q 3956 303 3431 151 
Q 2906 0 1856 0 
L 588 0 
L 588 4666 
z
" transform="scale(0.015625)"/>
       <path id="DejaVuSans-Bold-61" d="M 2106 1575 
Q 1756 1575 1579 1456 
Q 1403 1338 1403 1106 
Q 1403 894 1545 773 
Q 1688 653 1941 653 
Q 2256 653 2472 879 
Q 2688 1106 2688 1447 
L 2688 1575 
L 2106 1575 
z
M 3816 1997 
L 3816 0 
L 2688 0 
L 2688 519 
Q 2463 200 2181 54 
Q 1900 -91 1497 -91 
Q 953 -91 614 226 
Q 275 544 275 1050 
Q 275 1666 698 1953 
Q 1122 2241 2028 2241 
L 2688 2241 
L 2688 2328 
Q 2688 2594 2478 2717 
Q 2269 2841 1825 2841 
Q 1466 2841 1156 2769 
Q 847 2697 581 2553 
L 581 3406 
Q 941 3494 1303 3539 
Q 1666 3584 2028 3584 
Q 2975 3584 3395 3211 
Q 3816 2838 3816 1997 
z
" transform="scale(0.015625)"/>
       <path id="DejaVuSans-Bold-74" d="M 1759 4494 
L 1759 3500 
L 2913 3500 
L 2913 2700 
L 1759 2700 
L 1759 1216 
Q 1759 972 1856 886 
Q 1953 800 2241 800 
L 2816 800 
L 2816 0 
L 1856 0 
Q 1194 0 917 276 
Q 641 553 641 1216 
L 641 2700 
L 84 2700 
L 84 3500 
L 641 3500 
L 641 4494 
L 1759 4494 
z
" transform="scale(0.015625)"/>
       <path id="DejaVuSans-Bold-65" d="M 4031 1759 
L 4031 1441 
L 1416 1441 
Q 1456 1047 1700 850 
Q 1944 653 2381 653 
Q 2734 653 3104 758 
Q 3475 863 3866 1075 
L 3866 213 
Q 3469 63 3072 -14 
Q 2675 -91 2278 -91 
Q 1328 -91 801 392 
Q 275 875 275 1747 
Q 275 2603 792 3093 
Q 1309 3584 2216 3584 
Q 3041 3584 3536 3087 
Q 4031 2591 4031 1759 
z
M 2881 2131 
Q 2881 2450 2695 2645 
Q 2509 2841 2209 2841 
Q 1884 2841 1681 2658 
Q 1478 2475 1428 2131 
L 2881 2131 
z
" transform="scale(0.015625)"/>
      </defs>
      <use xlink:href="#DejaVuSans-Bold-44"/>
      <use xlink:href="#DejaVuSans-Bold-61" transform="translate(83.007812 0)"/>
      <use xlink:href="#DejaVuSans-Bold-74" transform="translate(150.488281 0)"/>
      <use xlink:href="#DejaVuSans-Bold-65" transform="translate(198.291016 0)"/>
     </g>
    </g>
   </g>
   <g id="matplotlib.axis_2">
    <g id="ytick_1">
     <g id="line2d_9">
      <path d="M 81.0825 548.803705 
L 1112.735398 548.803705 
" clip-path="url(#p5a49f7f8b5)" style="fill: none; stroke: #ffffff; stroke-width: 0.8; stroke-linecap: round"/>
     </g>
     <g id="text_10">
      <!-- 0.0 -->
      <g style="fill: #262626" transform="translate(34.615 557.92183) scale(0.24 -0.24)">
       <defs>
        <path id="DejaVuSans-2e" d="M 684 794 
L 1344 794 
L 1344 0 
L 684 0 
L 684 794 
z
" transform="scale(0.015625)"/>
       </defs>
       <use xlink:href="#DejaVuSans-30"/>
       <use xlink:href="#DejaVuSans-2e" transform="translate(63.623047 0)"/>
       <use xlink:href="#DejaVuSans-30" transform="translate(95.410156 0)"/>
      </g>
     </g>
    </g>
    <g id="ytick_2">
     <g id="line2d_10">
      <path d="M 81.0825 448.054696 
L 1112.735398 448.054696 
" clip-path="url(#p5a49f7f8b5)" style="fill: none; stroke: #ffffff; stroke-width: 0.8; stroke-linecap: round"/>
     </g>
     <g id="text_11">
      <!-- 0.2 -->
      <g style="fill: #262626" transform="translate(34.615 457.172821) scale(0.24 -0.24)">
       <use xlink:href="#DejaVuSans-30"/>
       <use xlink:href="#DejaVuSans-2e" transform="translate(63.623047 0)"/>
       <use xlink:href="#DejaVuSans-32" transform="translate(95.410156 0)"/>
      </g>
     </g>
    </g>
    <g id="ytick_3">
     <g id="line2d_11">
      <path d="M 81.0825 347.305688 
L 1112.735398 347.305688 
" clip-path="url(#p5a49f7f8b5)" style="fill: none; stroke: #ffffff; stroke-width: 0.8; stroke-linecap: round"/>
     </g>
     <g id="text_12">
      <!-- 0.4 -->
      <g style="fill: #262626" transform="translate(34.615 356.423813) scale(0.24 -0.24)">
       <use xlink:href="#DejaVuSans-30"/>
       <use xlink:href="#DejaVuSans-2e" transform="translate(63.623047 0)"/>
       <use xlink:href="#DejaVuSans-34" transform="translate(95.410156 0)"/>
      </g>
     </g>
    </g>
    <g id="ytick_4">
     <g id="line2d_12">
      <path d="M 81.0825 246.556679 
L 1112.735398 246.556679 
" clip-path="url(#p5a49f7f8b5)" style="fill: none; stroke: #ffffff; stroke-width: 0.8; stroke-linecap: round"/>
     </g>
     <g id="text_13">
      <!-- 0.6 -->
      <g style="fill: #262626" transform="translate(34.615 255.674804) scale(0.24 -0.24)">
       <use xlink:href="#DejaVuSans-30"/>
       <use xlink:href="#DejaVuSans-2e" transform="translate(63.623047 0)"/>
       <use xlink:href="#DejaVuSans-36" transform="translate(95.410156 0)"/>
      </g>
     </g>
    </g>
    <g id="ytick_5">
     <g id="line2d_13">
      <path d="M 81.0825 145.80767 
L 1112.735398 145.80767 
" clip-path="url(#p5a49f7f8b5)" style="fill: none; stroke: #ffffff; stroke-width: 0.8; stroke-linecap: round"/>
     </g>
     <g id="text_14">
      <!-- 0.8 -->
      <g style="fill: #262626" transform="translate(34.615 154.925795) scale(0.24 -0.24)">
       <use xlink:href="#DejaVuSans-30"/>
       <use xlink:href="#DejaVuSans-2e" transform="translate(63.623047 0)"/>
       <use xlink:href="#DejaVuSans-38" transform="translate(95.410156 0)"/>
      </g>
     </g>
    </g>
    <g id="ytick_6">
     <g id="line2d_14">
      <path d="M 81.0825 45.058662 
L 1112.735398 45.058662 
" clip-path="url(#p5a49f7f8b5)" style="fill: none; stroke: #ffffff; stroke-width: 0.8; stroke-linecap: round"/>
     </g>
     <g id="text_15">
      <!-- 1.0 -->
      <g style="fill: #262626" transform="translate(34.615 54.176787) scale(0.24 -0.24)">
       <defs>
        <path id="DejaVuSans-31" d="M 794 531 
L 1825 531 
L 1825 4091 
L 703 3866 
L 703 4441 
L 1819 4666 
L 2450 4666 
L 2450 531 
L 3481 531 
L 3481 0 
L 794 0 
L 794 531 
z
" transform="scale(0.015625)"/>
       </defs>
       <use xlink:href="#DejaVuSans-31"/>
       <use xlink:href="#DejaVuSans-2e" transform="translate(63.623047 0)"/>
       <use xlink:href="#DejaVuSans-30" transform="translate(95.410156 0)"/>
      </g>
     </g>
    </g>
    <g id="text_16">
     <!-- WGPR:A4 [Sm³/day] -->
     <g style="fill: #262626" transform="translate(25.43625 436.060125) rotate(-90) scale(0.24 -0.24)">
      <defs>
       <path id="DejaVuSans-Bold-57" d="M 191 4666 
L 1344 4666 
L 2150 1275 
L 2950 4666 
L 4109 4666 
L 4909 1275 
L 5716 4666 
L 6859 4666 
L 5759 0 
L 4372 0 
L 3525 3547 
L 2688 0 
L 1300 0 
L 191 4666 
z
" transform="scale(0.015625)"/>
       <path id="DejaVuSans-Bold-47" d="M 4781 347 
Q 4331 128 3847 18 
Q 3363 -91 2847 -91 
Q 1681 -91 1000 561 
Q 319 1213 319 2328 
Q 319 3456 1012 4103 
Q 1706 4750 2913 4750 
Q 3378 4750 3804 4662 
Q 4231 4575 4609 4403 
L 4609 3438 
Q 4219 3659 3833 3768 
Q 3447 3878 3059 3878 
Q 2341 3878 1952 3476 
Q 1563 3075 1563 2328 
Q 1563 1588 1938 1184 
Q 2313 781 3003 781 
Q 3191 781 3352 804 
Q 3513 828 3641 878 
L 3641 1784 
L 2906 1784 
L 2906 2591 
L 4781 2591 
L 4781 347 
z
" transform="scale(0.015625)"/>
       <path id="DejaVuSans-Bold-50" d="M 588 4666 
L 2584 4666 
Q 3475 4666 3951 4270 
Q 4428 3875 4428 3144 
Q 4428 2409 3951 2014 
Q 3475 1619 2584 1619 
L 1791 1619 
L 1791 0 
L 588 0 
L 588 4666 
z
M 1791 3794 
L 1791 2491 
L 2456 2491 
Q 2806 2491 2997 2661 
Q 3188 2831 3188 3144 
Q 3188 3456 2997 3625 
Q 2806 3794 2456 3794 
L 1791 3794 
z
" transform="scale(0.015625)"/>
       <path id="DejaVuSans-Bold-52" d="M 2297 2597 
Q 2675 2597 2839 2737 
Q 3003 2878 3003 3200 
Q 3003 3519 2839 3656 
Q 2675 3794 2297 3794 
L 1791 3794 
L 1791 2597 
L 2297 2597 
z
M 1791 1766 
L 1791 0 
L 588 0 
L 588 4666 
L 2425 4666 
Q 3347 4666 3776 4356 
Q 4206 4047 4206 3378 
Q 4206 2916 3982 2619 
Q 3759 2322 3309 2181 
Q 3556 2125 3751 1926 
Q 3947 1728 4147 1325 
L 4800 0 
L 3519 0 
L 2950 1159 
Q 2778 1509 2601 1637 
Q 2425 1766 2131 1766 
L 1791 1766 
z
" transform="scale(0.015625)"/>
       <path id="DejaVuSans-Bold-3a" d="M 716 3500 
L 1844 3500 
L 1844 2291 
L 716 2291 
L 716 3500 
z
M 716 1209 
L 1844 1209 
L 1844 0 
L 716 0 
L 716 1209 
z
" transform="scale(0.015625)"/>
       <path id="DejaVuSans-Bold-41" d="M 3419 850 
L 1538 850 
L 1241 0 
L 31 0 
L 1759 4666 
L 3194 4666 
L 4922 0 
L 3713 0 
L 3419 850 
z
M 1838 1716 
L 3116 1716 
L 2478 3572 
L 1838 1716 
z
" transform="scale(0.015625)"/>
       <path id="DejaVuSans-Bold-34" d="M 2356 3675 
L 1038 1722 
L 2356 1722 
L 2356 3675 
z
M 2156 4666 
L 3494 4666 
L 3494 1722 
L 4159 1722 
L 4159 850 
L 3494 850 
L 3494 0 
L 2356 0 
L 2356 850 
L 288 850 
L 288 1881 
L 2156 4666 
z
" transform="scale(0.015625)"/>
       <path id="DejaVuSans-Bold-20" transform="scale(0.015625)"/>
       <path id="DejaVuSans-Bold-5b" d="M 550 4863 
L 2491 4863 
L 2491 4159 
L 1613 4159 
L 1613 -141 
L 2491 -141 
L 2491 -844 
L 550 -844 
L 550 4863 
z
" transform="scale(0.015625)"/>
       <path id="DejaVuSans-Bold-53" d="M 3834 4519 
L 3834 3531 
Q 3450 3703 3084 3790 
Q 2719 3878 2394 3878 
Q 1963 3878 1756 3759 
Q 1550 3641 1550 3391 
Q 1550 3203 1689 3098 
Q 1828 2994 2194 2919 
L 2706 2816 
Q 3484 2659 3812 2340 
Q 4141 2022 4141 1434 
Q 4141 663 3683 286 
Q 3225 -91 2284 -91 
Q 1841 -91 1394 -6 
Q 947 78 500 244 
L 500 1259 
Q 947 1022 1364 901 
Q 1781 781 2169 781 
Q 2563 781 2772 912 
Q 2981 1044 2981 1288 
Q 2981 1506 2839 1625 
Q 2697 1744 2272 1838 
L 1806 1941 
Q 1106 2091 782 2419 
Q 459 2747 459 3303 
Q 459 4000 909 4375 
Q 1359 4750 2203 4750 
Q 2588 4750 2994 4692 
Q 3400 4634 3834 4519 
z
" transform="scale(0.015625)"/>
       <path id="DejaVuSans-Bold-6d" d="M 3781 2919 
Q 3994 3244 4286 3414 
Q 4578 3584 4928 3584 
Q 5531 3584 5847 3212 
Q 6163 2841 6163 2131 
L 6163 0 
L 5038 0 
L 5038 1825 
Q 5041 1866 5042 1909 
Q 5044 1953 5044 2034 
Q 5044 2406 4934 2573 
Q 4825 2741 4581 2741 
Q 4263 2741 4089 2478 
Q 3916 2216 3909 1719 
L 3909 0 
L 2784 0 
L 2784 1825 
Q 2784 2406 2684 2573 
Q 2584 2741 2328 2741 
Q 2006 2741 1831 2477 
Q 1656 2213 1656 1722 
L 1656 0 
L 531 0 
L 531 3500 
L 1656 3500 
L 1656 2988 
Q 1863 3284 2130 3434 
Q 2397 3584 2719 3584 
Q 3081 3584 3359 3409 
Q 3638 3234 3781 2919 
z
" transform="scale(0.015625)"/>
       <path id="DejaVuSans-Bold-b3" d="M 1850 3500 
Q 2138 3444 2297 3272 
Q 2456 3100 2456 2847 
Q 2456 2444 2147 2242 
Q 1838 2041 1209 2041 
Q 956 2041 725 2077 
Q 494 2113 281 2181 
L 281 2725 
Q 488 2613 688 2555 
Q 888 2497 1075 2497 
Q 1372 2497 1534 2597 
Q 1697 2697 1697 2881 
Q 1697 3081 1530 3176 
Q 1363 3272 1006 3272 
L 775 3272 
L 775 3700 
L 1038 3700 
Q 1344 3700 1484 3773 
Q 1625 3847 1625 4006 
Q 1625 4147 1503 4217 
Q 1381 4288 1131 4288 
Q 969 4288 776 4247 
Q 584 4206 366 4122 
L 366 4641 
Q 569 4694 805 4722 
Q 1041 4750 1313 4750 
Q 1834 4750 2111 4575 
Q 2388 4400 2388 4072 
Q 2388 3856 2247 3706 
Q 2106 3556 1850 3500 
z
" transform="scale(0.015625)"/>
       <path id="DejaVuSans-Bold-2f" d="M 1644 4666 
L 2338 4666 
L 691 -594 
L 0 -594 
L 1644 4666 
z
" transform="scale(0.015625)"/>
       <path id="DejaVuSans-Bold-64" d="M 2919 2988 
L 2919 4863 
L 4044 4863 
L 4044 0 
L 2919 0 
L 2919 506 
Q 2688 197 2409 53 
Q 2131 -91 1766 -91 
Q 1119 -91 703 423 
Q 288 938 288 1747 
Q 288 2556 703 3070 
Q 1119 3584 1766 3584 
Q 2128 3584 2408 3439 
Q 2688 3294 2919 2988 
z
M 2181 722 
Q 2541 722 2730 984 
Q 2919 1247 2919 1747 
Q 2919 2247 2730 2509 
Q 2541 2772 2181 2772 
Q 1825 2772 1636 2509 
Q 1447 2247 1447 1747 
Q 1447 1247 1636 984 
Q 1825 722 2181 722 
z
" transform="scale(0.015625)"/>
       <path id="DejaVuSans-Bold-79" d="M 78 3500 
L 1197 3500 
L 2138 1125 
L 2938 3500 
L 4056 3500 
L 2584 -331 
Q 2363 -916 2067 -1148 
Q 1772 -1381 1288 -1381 
L 641 -1381 
L 641 -647 
L 991 -647 
Q 1275 -647 1404 -556 
Q 1534 -466 1606 -231 
L 1638 -134 
L 78 3500 
z
" transform="scale(0.015625)"/>
       <path id="DejaVuSans-Bold-5d" d="M 2375 -844 
L 434 -844 
L 434 -141 
L 1313 -141 
L 1313 4159 
L 434 4159 
L 434 4863 
L 2375 4863 
L 2375 -844 
z
" transform="scale(0.015625)"/>
      </defs>
      <use xlink:href="#DejaVuSans-Bold-57"/>
      <use xlink:href="#DejaVuSans-Bold-47" transform="translate(110.302734 0)"/>
      <use xlink:href="#DejaVuSans-Bold-50" transform="translate(192.382812 0)"/>
      <use xlink:href="#DejaVuSans-Bold-52" transform="translate(265.673828 0)"/>
      <use xlink:href="#DejaVuSans-Bold-3a" transform="translate(342.675781 0)"/>
      <use xlink:href="#DejaVuSans-Bold-41" transform="translate(382.666016 0)"/>
      <use xlink:href="#DejaVuSans-Bold-34" transform="translate(460.058594 0)"/>
      <use xlink:href="#DejaVuSans-Bold-20" transform="translate(529.638672 0)"/>
      <use xlink:href="#DejaVuSans-Bold-5b" transform="translate(564.453125 0)"/>
      <use xlink:href="#DejaVuSans-Bold-53" transform="translate(610.15625 0)"/>
      <use xlink:href="#DejaVuSans-Bold-6d" transform="translate(682.177734 0)"/>
      <use xlink:href="#DejaVuSans-Bold-b3" transform="translate(786.376953 0)"/>
      <use xlink:href="#DejaVuSans-Bold-2f" transform="translate(830.175781 0)"/>
      <use xlink:href="#DejaVuSans-Bold-64" transform="translate(866.699219 0)"/>
      <use xlink:href="#DejaVuSans-Bold-61" transform="translate(938.28125 0)"/>
      <use xlink:href="#DejaVuSans-Bold-79" transform="translate(1002.636719 0)"/>
      <use xlink:href="#DejaVuSans-Bold-5d" transform="translate(1067.822266 0)"/>
     </g>
    </g>
    <g id="text_17">
     <!-- 1e6 -->
     <g style="fill: #262626" transform="translate(81.0825 28.43625) scale(0.24 -0.24)">
      <defs>
       <path id="DejaVuSans-65" d="M 3597 1894 
L 3597 1613 
L 953 1613 
Q 991 1019 1311 708 
Q 1631 397 2203 397 
Q 2534 397 2845 478 
Q 3156 559 3463 722 
L 3463 178 
Q 3153 47 2828 -22 
Q 2503 -91 2169 -91 
Q 1331 -91 842 396 
Q 353 884 353 1716 
Q 353 2575 817 3079 
Q 1281 3584 2069 3584 
Q 2775 3584 3186 3129 
Q 3597 2675 3597 1894 
z
M 3022 2063 
Q 3016 2534 2758 2815 
Q 2500 3097 2075 3097 
Q 1594 3097 1305 2825 
Q 1016 2553 972 2059 
L 3022 2063 
z
" transform="scale(0.015625)"/>
      </defs>
      <use xlink:href="#DejaVuSans-31"/>
      <use xlink:href="#DejaVuSans-65" transform="translate(63.623047 0)"/>
      <use xlink:href="#DejaVuSans-36" transform="translate(125.146484 0)"/>
     </g>
    </g>
   </g>
   <g id="FillBetweenPolyCollection_1">
    <defs>
     <path id="m7f06c767fc" d="M 38.795104 -92.52717 
L 38.795104 -92.52717 
L 39.991917 -92.52717 
L 43.582356 -92.52717 
L 54.353674 -92.52717 
L 66.321805 -92.52717 
L 78.289936 -92.52717 
L 86.26869 -92.52717 
L 122.173083 -92.52717 
L 128.356618 -92.52717 
L 134.540152 -92.52717 
L 158.476414 -92.52717 
L 182.811614 -92.52717 
L 195.178683 -92.52717 
L 231.083076 -92.52717 
L 231.880951 -357.558394 
L 268.184282 -299.285388 
L 279.354538 -288.98026 
L 304.487613 -265.282267 
L 327.626 -245.241353 
L 341.189882 -238.76327 
L 377.89215 -216.167833 
L 413.796544 -193.405216 
L 450.099875 -180.559616 
L 486.802143 -168.449364 
L 523.504412 -158.793461 
L 559.408805 -148.9917 
L 595.712136 -142.201209 
L 632.414404 -137.342498 
L 669.116673 -133.788049 
L 705.021066 -130.482356 
L 716.989197 -129.726384 
L 728.957328 -129.217177 
L 735.140863 -128.967445 
L 741.324397 -128.729327 
L 778.026666 -126.173616 
L 814.728934 -123.962492 
L 826.697065 -123.828907 
L 851.032265 -122.409019 
L 863.000396 -121.739214 
L 887.335596 -120.502608 
L 899.303727 -120.164609 
L 924.037865 -119.533969 
L 936.005996 -119.056939 
L 947.974127 -118.599939 
L 954.35713 -118.362552 
L 960.740133 -118.11904 
L 996.644527 -116.690866 
L 1032.947857 -115.707679 
L 1069.650126 -114.853359 
L 1081.618257 -114.626757 
L 1093.586388 -114.377395 
L 1099.969391 -114.236028 
L 1106.352395 -114.097655 
L 1106.352395 -153.134818 
L 1106.352395 -153.134818 
L 1099.969391 -153.203497 
L 1093.586388 -153.272518 
L 1081.618257 -153.402095 
L 1069.650126 -153.528306 
L 1032.947857 -154.89586 
L 996.644527 -155.981088 
L 960.740133 -157.035529 
L 954.35713 -157.613812 
L 947.974127 -157.841509 
L 936.005996 -158.25018 
L 924.037865 -158.605391 
L 899.303727 -159.835489 
L 887.335596 -160.437992 
L 863.000396 -161.722778 
L 851.032265 -161.782676 
L 826.697065 -163.602369 
L 814.728934 -164.610937 
L 778.026666 -168.206835 
L 741.324397 -173.474528 
L 735.140863 -174.11038 
L 728.957328 -174.740849 
L 716.989197 -175.922627 
L 705.021066 -178.045353 
L 669.116673 -184.43273 
L 632.414404 -194.098181 
L 595.712136 -207.894435 
L 559.408805 -221.728817 
L 523.504412 -240.562584 
L 486.802143 -246.914841 
L 450.099875 -277.315681 
L 413.796544 -303.390548 
L 377.89215 -343.263636 
L 341.189882 -495.015083 
L 327.626 -558.315213 
L 304.487613 -585.25808 
L 279.354538 -546.766889 
L 268.184282 -511.389095 
L 231.880951 -374.293025 
L 231.083076 -92.52717 
L 195.178683 -92.52717 
L 182.811614 -92.52717 
L 158.476414 -92.52717 
L 134.540152 -92.52717 
L 128.356618 -92.52717 
L 122.173083 -92.52717 
L 86.26869 -92.52717 
L 78.289936 -92.52717 
L 66.321805 -92.52717 
L 54.353674 -92.52717 
L 43.582356 -92.52717 
L 39.991917 -92.52717 
L 38.795104 -92.52717 
z
" style="stroke: #58508d; stroke-opacity: 0.7; stroke-width: 0.8"/>
    </defs>
    <g clip-path="url(#p5a49f7f8b5)">
     <use xlink:href="#m7f06c767fc" x="0" y="641.330875" style="fill: #58508d; fill-opacity: 0.7; stroke: #58508d; stroke-opacity: 0.7; stroke-width: 0.8"/>
    </g>
   </g>
   <g id="FillBetweenPolyCollection_2">
    <defs>
     <path id="m8d662ec8b2" d="M 38.795104 -92.52717 
L 38.795104 -92.52717 
L 39.991917 -92.52717 
L 43.582356 -92.52717 
L 54.353674 -92.52717 
L 66.321805 -92.52717 
L 78.289936 -92.52717 
L 86.26869 -92.52717 
L 122.173083 -92.52717 
L 128.356618 -92.52717 
L 134.540152 -92.52717 
L 158.476414 -350.661164 
L 182.811614 -326.571982 
L 195.178683 -312.560785 
L 231.083076 -269.233359 
L 231.880951 -266.257738 
L 268.184282 -247.722549 
L 279.354538 -239.778836 
L 304.487613 -227.07448 
L 327.626 -219.907377 
L 341.189882 -214.213263 
L 377.89215 -194.994044 
L 413.796544 -176.755829 
L 450.099875 -166.00916 
L 486.802143 -155.665933 
L 523.504412 -145.820948 
L 559.408805 -138.844803 
L 595.712136 -135.016939 
L 632.414404 -133.074404 
L 669.116673 -131.561051 
L 705.021066 -128.773334 
L 716.989197 -127.808064 
L 728.957328 -126.939175 
L 735.140863 -126.550705 
L 741.324397 -126.514392 
L 778.026666 -124.196811 
L 814.728934 -122.116546 
L 826.697065 -121.53706 
L 851.032265 -120.499637 
L 863.000396 -120.46186 
L 887.335596 -119.723708 
L 899.303727 -119.092336 
L 924.037865 -117.902335 
L 936.005996 -117.537905 
L 947.974127 -117.221451 
L 954.35713 -117.008471 
L 960.740133 -116.812904 
L 996.644527 -115.873539 
L 1032.947857 -114.952339 
L 1069.650126 -114.213499 
L 1081.618257 -113.920943 
L 1093.586388 -113.633045 
L 1099.969391 -113.507943 
L 1106.352395 -113.384671 
L 1106.352395 -154.116055 
L 1106.352395 -154.116055 
L 1099.969391 -154.196465 
L 1093.586388 -154.42121 
L 1081.618257 -154.689997 
L 1069.650126 -155.067247 
L 1032.947857 -155.797532 
L 996.644527 -156.788202 
L 960.740133 -157.924135 
L 954.35713 -158.326348 
L 947.974127 -158.723834 
L 936.005996 -159.459452 
L 924.037865 -160.159209 
L 899.303727 -161.479343 
L 887.335596 -162.052456 
L 863.000396 -163.046321 
L 851.032265 -163.472237 
L 826.697065 -164.225879 
L 814.728934 -164.387424 
L 778.026666 -165.639939 
L 741.324397 -168.326246 
L 735.140863 -168.951968 
L 728.957328 -169.581697 
L 716.989197 -170.95304 
L 705.021066 -172.374609 
L 669.116673 -176.435896 
L 632.414404 -183.511506 
L 595.712136 -190.855007 
L 559.408805 -201.301349 
L 523.504412 -215.659051 
L 486.802143 -233.016043 
L 450.099875 -250.846681 
L 413.796544 -268.106073 
L 377.89215 -310.617857 
L 341.189882 -372.803671 
L 327.626 -381.434555 
L 304.487613 -384.996536 
L 279.354538 -390.238224 
L 268.184282 -389.227617 
L 231.880951 -395.28619 
L 231.083076 -398.056567 
L 195.178683 -422.590494 
L 182.811614 -400.104543 
L 158.476414 -374.557554 
L 134.540152 -92.52717 
L 128.356618 -92.52717 
L 122.173083 -92.52717 
L 86.26869 -92.52717 
L 78.289936 -92.52717 
L 66.321805 -92.52717 
L 54.353674 -92.52717 
L 43.582356 -92.52717 
L 39.991917 -92.52717 
L 38.795104 -92.52717 
z
" style="stroke: #ffa600; stroke-opacity: 0.7; stroke-width: 0.8"/>
    </defs>
    <g clip-path="url(#p5a49f7f8b5)">
     <use xlink:href="#m8d662ec8b2" x="0" y="641.330875" style="fill: #ffa600; fill-opacity: 0.7; stroke: #ffa600; stroke-opacity: 0.7; stroke-width: 0.8"/>
    </g>
   </g>
   <g id="line2d_15">
    <path d="M 38.795104 548.803705 
L 39.991917 548.803705 
L 43.582356 548.803705 
L 54.353674 548.803705 
L 66.321805 548.803705 
L 78.289936 548.803705 
L 86.26869 548.803705 
L 122.173083 548.803705 
L 128.356618 548.803705 
L 134.540152 548.803705 
L 158.476414 548.803705 
L 182.811614 548.803705 
L 195.178683 548.803705 
L 231.083076 548.803705 
L 231.880951 275.8772 
L 268.184282 262.755831 
L 279.354538 258.073017 
L 304.487613 244.859234 
L 327.626 271.411048 
L 341.189882 295.885462 
L 377.89215 363.811246 
L 413.796544 396.636677 
L 450.099875 418.631869 
L 486.802143 436.358776 
L 523.504412 449.954435 
L 559.408805 460.526104 
L 595.712136 468.990501 
L 632.414404 476.323166 
L 669.116673 482.346447 
L 705.021066 487.315133 
L 716.989197 488.801751 
L 728.957328 490.194241 
L 735.140863 490.901694 
L 741.324397 491.58663 
L 778.026666 495.13149 
L 814.728934 497.924938 
L 826.697065 498.715269 
L 851.032265 500.212173 
L 863.000396 500.885564 
L 887.335596 502.254727 
L 899.303727 502.932277 
L 924.037865 504.20029 
L 936.005996 504.70934 
L 947.974127 505.17739 
L 954.35713 505.414309 
L 960.740133 505.644179 
L 996.644527 506.838657 
L 1032.947857 507.929726 
L 1069.650126 508.97377 
L 1081.618257 509.281322 
L 1093.586388 509.588446 
L 1099.969391 509.745509 
L 1106.352395 509.904002 
" clip-path="url(#p5a49f7f8b5)" style="fill: none; stroke: #000000; stroke-width: 4; stroke-linecap: round"/>
   </g>
   <g id="line2d_16">
    <path d="M 38.795104 548.803705 
L 39.991917 548.803705 
L 43.582356 548.803705 
L 54.353674 548.803705 
L 66.321805 548.803705 
L 78.289936 548.803705 
L 86.26869 548.803705 
L 122.173083 548.803705 
L 128.356618 548.803705 
L 134.540152 548.803705 
L 158.476414 548.803705 
L 182.811614 548.803705 
L 195.178683 548.803705 
L 231.083076 548.803705 
L 231.880951 267.03785 
L 268.184282 129.94178 
L 279.354538 94.563986 
L 304.487613 56.072795 
L 327.626 83.015662 
L 341.189882 146.315792 
L 377.89215 298.067239 
L 413.796544 337.940327 
L 450.099875 364.015194 
L 486.802143 394.416034 
L 523.504412 400.768291 
L 559.408805 419.602058 
L 595.712136 433.43644 
L 632.414404 447.232694 
L 669.116673 456.898145 
L 705.021066 463.285522 
L 716.989197 465.408248 
L 728.957328 466.590026 
L 735.140863 467.220495 
L 741.324397 467.856347 
L 778.026666 473.12404 
L 814.728934 476.719938 
L 826.697065 477.728506 
L 851.032265 479.548199 
L 863.000396 479.608097 
L 887.335596 480.892883 
L 899.303727 481.495386 
L 924.037865 482.725484 
L 936.005996 483.080695 
L 947.974127 483.489366 
L 954.35713 483.717063 
L 960.740133 484.295346 
L 996.644527 485.349787 
L 1032.947857 486.435015 
L 1069.650126 487.802569 
L 1081.618257 487.92878 
L 1093.586388 488.058357 
L 1099.969391 488.127378 
L 1106.352395 488.196057 
" clip-path="url(#p5a49f7f8b5)" style="fill: none; stroke-dasharray: 7.4,3.2; stroke-dashoffset: 0; stroke: #000000; stroke-width: 2"/>
   </g>
   <g id="line2d_17">
    <path d="M 38.795104 548.803705 
L 39.991917 548.803705 
L 43.582356 548.803705 
L 54.353674 548.803705 
L 66.321805 548.803705 
L 78.289936 548.803705 
L 86.26869 548.803705 
L 122.173083 548.803705 
L 128.356618 548.803705 
L 134.540152 548.803705 
L 158.476414 548.803705 
L 182.811614 548.803705 
L 195.178683 548.803705 
L 231.083076 548.803705 
L 231.880951 283.772481 
L 268.184282 342.045487 
L 279.354538 352.350615 
L 304.487613 376.048608 
L 327.626 396.089522 
L 341.189882 402.567605 
L 377.89215 425.163042 
L 413.796544 447.925659 
L 450.099875 460.771259 
L 486.802143 472.881511 
L 523.504412 482.537414 
L 559.408805 492.339175 
L 595.712136 499.129666 
L 632.414404 503.988377 
L 669.116673 507.542826 
L 705.021066 510.848519 
L 716.989197 511.604491 
L 728.957328 512.113698 
L 735.140863 512.36343 
L 741.324397 512.601548 
L 778.026666 515.157259 
L 814.728934 517.368383 
L 826.697065 517.501968 
L 851.032265 518.921856 
L 863.000396 519.591661 
L 887.335596 520.828267 
L 899.303727 521.166266 
L 924.037865 521.796906 
L 936.005996 522.273936 
L 947.974127 522.730936 
L 954.35713 522.968323 
L 960.740133 523.211835 
L 996.644527 524.640009 
L 1032.947857 525.623196 
L 1069.650126 526.477516 
L 1081.618257 526.704118 
L 1093.586388 526.95348 
L 1099.969391 527.094847 
L 1106.352395 527.23322 
" clip-path="url(#p5a49f7f8b5)" style="fill: none; stroke-dasharray: 2,3.3; stroke-dashoffset: 0; stroke: #000000; stroke-width: 2"/>
   </g>
   <g id="line2d_18">
    <path d="M 38.795104 548.803705 
L 39.991917 548.803705 
L 43.582356 548.803705 
L 54.353674 548.803705 
L 66.321805 548.803705 
L 78.289936 548.803705 
L 86.26869 548.803705 
L 122.173083 548.803705 
L 128.356618 548.803705 
L 134.540152 548.803705 
L 158.476414 276.617202 
L 182.811614 271.320474 
L 195.178683 279.938276 
L 231.083076 308.153652 
L 231.880951 308.608803 
L 268.184282 329.639442 
L 279.354538 334.338176 
L 304.487613 342.27276 
L 327.626 345.192687 
L 341.189882 354.486962 
L 377.89215 393.833834 
L 413.796544 420.779125 
L 450.099875 438.969941 
L 486.802143 452.953276 
L 523.504412 463.578173 
L 559.408805 471.735557 
L 595.712136 478.389456 
L 632.414404 483.883325 
L 669.116673 488.372787 
L 705.021066 491.951204 
L 716.989197 492.986328 
L 728.957328 493.941913 
L 735.140863 494.415969 
L 741.324397 494.872309 
L 778.026666 497.319116 
L 814.728934 499.511436 
L 826.697065 500.227261 
L 851.032265 501.615964 
L 863.000396 502.17871 
L 887.335596 503.197503 
L 899.303727 503.647077 
L 924.037865 504.5355 
L 936.005996 504.942798 
L 947.974127 505.340004 
L 954.35713 505.550379 
L 960.740133 505.755683 
L 996.644527 506.805128 
L 1032.947857 507.777363 
L 1069.650126 508.66949 
L 1081.618257 508.937864 
L 1093.586388 509.203081 
L 1099.969391 509.343911 
L 1106.352395 509.478335 
" clip-path="url(#p5a49f7f8b5)" style="fill: none; stroke: #808080; stroke-width: 4; stroke-linecap: round"/>
   </g>
   <g id="line2d_19">
    <path d="M 38.795104 548.803705 
L 39.991917 548.803705 
L 43.582356 548.803705 
L 54.353674 548.803705 
L 66.321805 548.803705 
L 78.289936 548.803705 
L 86.26869 548.803705 
L 122.173083 548.803705 
L 128.356618 548.803705 
L 134.540152 548.803705 
L 158.476414 266.773321 
L 182.811614 241.226332 
L 195.178683 218.740381 
L 231.083076 243.274308 
L 231.880951 246.044685 
L 268.184282 252.103258 
L 279.354538 251.092651 
L 304.487613 256.334339 
L 327.626 259.89632 
L 341.189882 268.527204 
L 377.89215 330.713018 
L 413.796544 373.224802 
L 450.099875 390.484194 
L 486.802143 408.314832 
L 523.504412 425.671824 
L 559.408805 440.029526 
L 595.712136 450.475868 
L 632.414404 457.819369 
L 669.116673 464.894979 
L 705.021066 468.956266 
L 716.989197 470.377835 
L 728.957328 471.749178 
L 735.140863 472.378907 
L 741.324397 473.004629 
L 778.026666 475.690936 
L 814.728934 476.943451 
L 826.697065 477.104996 
L 851.032265 477.858638 
L 863.000396 478.284554 
L 887.335596 479.278419 
L 899.303727 479.851532 
L 924.037865 481.171666 
L 936.005996 481.871423 
L 947.974127 482.607041 
L 954.35713 483.004527 
L 960.740133 483.40674 
L 996.644527 484.542673 
L 1032.947857 485.533343 
L 1069.650126 486.263628 
L 1081.618257 486.640878 
L 1093.586388 486.909665 
L 1099.969391 487.13441 
L 1106.352395 487.21482 
" clip-path="url(#p5a49f7f8b5)" style="fill: none; stroke-dasharray: 7.4,3.2; stroke-dashoffset: 0; stroke: #808080; stroke-width: 2"/>
   </g>
   <g id="line2d_20">
    <path d="M 38.795104 548.803705 
L 39.991917 548.803705 
L 43.582356 548.803705 
L 54.353674 548.803705 
L 66.321805 548.803705 
L 78.289936 548.803705 
L 86.26869 548.803705 
L 122.173083 548.803705 
L 128.356618 548.803705 
L 134.540152 548.803705 
L 158.476414 290.669711 
L 182.811614 314.758893 
L 195.178683 328.77009 
L 231.083076 372.097516 
L 231.880951 375.073137 
L 268.184282 393.608326 
L 279.354538 401.552039 
L 304.487613 414.256395 
L 327.626 421.423498 
L 341.189882 427.117612 
L 377.89215 446.336831 
L 413.796544 464.575046 
L 450.099875 475.321715 
L 486.802143 485.664942 
L 523.504412 495.509927 
L 559.408805 502.486072 
L 595.712136 506.313936 
L 632.414404 508.256471 
L 669.116673 509.769824 
L 705.021066 512.557541 
L 716.989197 513.522811 
L 728.957328 514.3917 
L 735.140863 514.78017 
L 741.324397 514.816483 
L 778.026666 517.134064 
L 814.728934 519.214329 
L 826.697065 519.793815 
L 851.032265 520.831238 
L 863.000396 520.869015 
L 887.335596 521.607167 
L 899.303727 522.238539 
L 924.037865 523.42854 
L 936.005996 523.79297 
L 947.974127 524.109424 
L 954.35713 524.322404 
L 960.740133 524.517971 
L 996.644527 525.457336 
L 1032.947857 526.378536 
L 1069.650126 527.117376 
L 1081.618257 527.409932 
L 1093.586388 527.69783 
L 1099.969391 527.822932 
L 1106.352395 527.946204 
" clip-path="url(#p5a49f7f8b5)" style="fill: none; stroke-dasharray: 2,3.3; stroke-dashoffset: 0; stroke: #808080; stroke-width: 2"/>
   </g>
   <g id="patch_3">
    <path d="M 81.0825 573.44025 
L 81.0825 31.43625 
" style="fill: none; stroke: #ffffff; stroke-linejoin: miter; stroke-linecap: square"/>
   </g>
   <g id="patch_4">
    <path d="M 1112.735398 573.44025 
L 1112.735398 31.43625 
" style="fill: none; stroke: #ffffff; stroke-linejoin: miter; stroke-linecap: square"/>
   </g>
   <g id="patch_5">
    <path d="M 81.0825 573.44025 
L 1112.735398 573.44025 
" style="fill: none; stroke: #ffffff; stroke-linejoin: miter; stroke-linecap: square"/>
   </g>
   <g id="patch_6">
    <path d="M 81.0825 31.43625 
L 1112.735398 31.43625 
" style="fill: none; stroke: #ffffff; stroke-linejoin: miter; stroke-linecap: square"/>
   </g>
   <g id="text_18">
    <!-- WGPR:A4 -->
    <g style="fill: #262626" transform="translate(533.353949 25.43625) scale(0.24 -0.24)">
     <use xlink:href="#DejaVuSans-Bold-57"/>
     <use xlink:href="#DejaVuSans-Bold-47" transform="translate(110.302734 0)"/>
     <use xlink:href="#DejaVuSans-Bold-50" transform="translate(192.382812 0)"/>
     <use xlink:href="#DejaVuSans-Bold-52" transform="translate(265.673828 0)"/>
     <use xlink:href="#DejaVuSans-Bold-3a" transform="translate(342.675781 0)"/>
     <use xlink:href="#DejaVuSans-Bold-41" transform="translate(382.666016 0)"/>
     <use xlink:href="#DejaVuSans-Bold-34" transform="translate(460.058594 0)"/>
    </g>
   </g>
   <g id="legend_1">
    <g id="patch_7">
     <path d="M 870.16821 210.495625 
L 1097.335398 210.495625 
Q 1101.735398 210.495625 1101.735398 206.095625 
L 1101.735398 46.83625 
Q 1101.735398 42.43625 1097.335398 42.43625 
L 870.16821 42.43625 
Q 865.76821 42.43625 865.76821 46.83625 
L 865.76821 206.095625 
Q 865.76821 210.495625 870.16821 210.495625 
z
" style="fill: #eaeaf2; opacity: 0.8; stroke: #cccccc; stroke-width: 0.8; stroke-linejoin: miter"/>
    </g>
    <g id="line2d_21">
     <path d="M 874.56821 60.252813 
L 896.56821 60.252813 
L 918.56821 60.252813 
" style="fill: none; stroke: #000000; stroke-width: 4; stroke-linecap: round"/>
    </g>
    <g id="text_19">
     <!-- Mean -->
     <g style="fill: #262626" transform="translate(936.16821 67.952813) scale(0.22 -0.22)">
      <defs>
       <path id="DejaVuSans-4d" d="M 628 4666 
L 1569 4666 
L 2759 1491 
L 3956 4666 
L 4897 4666 
L 4897 0 
L 4281 0 
L 4281 4097 
L 3078 897 
L 2444 897 
L 1241 4097 
L 1241 0 
L 628 0 
L 628 4666 
z
" transform="scale(0.015625)"/>
       <path id="DejaVuSans-61" d="M 2194 1759 
Q 1497 1759 1228 1600 
Q 959 1441 959 1056 
Q 959 750 1161 570 
Q 1363 391 1709 391 
Q 2188 391 2477 730 
Q 2766 1069 2766 1631 
L 2766 1759 
L 2194 1759 
z
M 3341 1997 
L 3341 0 
L 2766 0 
L 2766 531 
Q 2569 213 2275 61 
Q 1981 -91 1556 -91 
Q 1019 -91 701 211 
Q 384 513 384 1019 
Q 384 1609 779 1909 
Q 1175 2209 1959 2209 
L 2766 2209 
L 2766 2266 
Q 2766 2663 2505 2880 
Q 2244 3097 1772 3097 
Q 1472 3097 1187 3025 
Q 903 2953 641 2809 
L 641 3341 
Q 956 3463 1253 3523 
Q 1550 3584 1831 3584 
Q 2591 3584 2966 3190 
Q 3341 2797 3341 1997 
z
" transform="scale(0.015625)"/>
       <path id="DejaVuSans-6e" d="M 3513 2113 
L 3513 0 
L 2938 0 
L 2938 2094 
Q 2938 2591 2744 2837 
Q 2550 3084 2163 3084 
Q 1697 3084 1428 2787 
Q 1159 2491 1159 1978 
L 1159 0 
L 581 0 
L 581 3500 
L 1159 3500 
L 1159 2956 
Q 1366 3272 1645 3428 
Q 1925 3584 2291 3584 
Q 2894 3584 3203 3211 
Q 3513 2838 3513 2113 
z
" transform="scale(0.015625)"/>
      </defs>
      <use xlink:href="#DejaVuSans-4d"/>
      <use xlink:href="#DejaVuSans-65" transform="translate(86.279297 0)"/>
      <use xlink:href="#DejaVuSans-61" transform="translate(147.802734 0)"/>
      <use xlink:href="#DejaVuSans-6e" transform="translate(209.082031 0)"/>
     </g>
    </g>
    <g id="line2d_22">
     <path d="M 874.56821 92.544688 
L 896.56821 92.544688 
L 918.56821 92.544688 
" style="fill: none; stroke-dasharray: 7.4,3.2; stroke-dashoffset: 0; stroke: #000000; stroke-width: 2"/>
    </g>
    <g id="text_20">
     <!-- P10 Percentile -->
     <g style="fill: #262626" transform="translate(936.16821 100.244688) scale(0.22 -0.22)">
      <defs>
       <path id="DejaVuSans-50" d="M 1259 4147 
L 1259 2394 
L 2053 2394 
Q 2494 2394 2734 2622 
Q 2975 2850 2975 3272 
Q 2975 3691 2734 3919 
Q 2494 4147 2053 4147 
L 1259 4147 
z
M 628 4666 
L 2053 4666 
Q 2838 4666 3239 4311 
Q 3641 3956 3641 3272 
Q 3641 2581 3239 2228 
Q 2838 1875 2053 1875 
L 1259 1875 
L 1259 0 
L 628 0 
L 628 4666 
z
" transform="scale(0.015625)"/>
       <path id="DejaVuSans-20" transform="scale(0.015625)"/>
       <path id="DejaVuSans-72" d="M 2631 2963 
Q 2534 3019 2420 3045 
Q 2306 3072 2169 3072 
Q 1681 3072 1420 2755 
Q 1159 2438 1159 1844 
L 1159 0 
L 581 0 
L 581 3500 
L 1159 3500 
L 1159 2956 
Q 1341 3275 1631 3429 
Q 1922 3584 2338 3584 
Q 2397 3584 2469 3576 
Q 2541 3569 2628 3553 
L 2631 2963 
z
" transform="scale(0.015625)"/>
       <path id="DejaVuSans-63" d="M 3122 3366 
L 3122 2828 
Q 2878 2963 2633 3030 
Q 2388 3097 2138 3097 
Q 1578 3097 1268 2742 
Q 959 2388 959 1747 
Q 959 1106 1268 751 
Q 1578 397 2138 397 
Q 2388 397 2633 464 
Q 2878 531 3122 666 
L 3122 134 
Q 2881 22 2623 -34 
Q 2366 -91 2075 -91 
Q 1284 -91 818 406 
Q 353 903 353 1747 
Q 353 2603 823 3093 
Q 1294 3584 2113 3584 
Q 2378 3584 2631 3529 
Q 2884 3475 3122 3366 
z
" transform="scale(0.015625)"/>
       <path id="DejaVuSans-74" d="M 1172 4494 
L 1172 3500 
L 2356 3500 
L 2356 3053 
L 1172 3053 
L 1172 1153 
Q 1172 725 1289 603 
Q 1406 481 1766 481 
L 2356 481 
L 2356 0 
L 1766 0 
Q 1100 0 847 248 
Q 594 497 594 1153 
L 594 3053 
L 172 3053 
L 172 3500 
L 594 3500 
L 594 4494 
L 1172 4494 
z
" transform="scale(0.015625)"/>
       <path id="DejaVuSans-69" d="M 603 3500 
L 1178 3500 
L 1178 0 
L 603 0 
L 603 3500 
z
M 603 4863 
L 1178 4863 
L 1178 4134 
L 603 4134 
L 603 4863 
z
" transform="scale(0.015625)"/>
       <path id="DejaVuSans-6c" d="M 603 4863 
L 1178 4863 
L 1178 0 
L 603 0 
L 603 4863 
z
" transform="scale(0.015625)"/>
      </defs>
      <use xlink:href="#DejaVuSans-50"/>
      <use xlink:href="#DejaVuSans-31" transform="translate(60.302734 0)"/>
      <use xlink:href="#DejaVuSans-30" transform="translate(123.925781 0)"/>
      <use xlink:href="#DejaVuSans-20" transform="translate(187.548828 0)"/>
      <use xlink:href="#DejaVuSans-50" transform="translate(219.335938 0)"/>
      <use xlink:href="#DejaVuSans-65" transform="translate(276.013672 0)"/>
      <use xlink:href="#DejaVuSans-72" transform="translate(337.537109 0)"/>
      <use xlink:href="#DejaVuSans-63" transform="translate(376.400391 0)"/>
      <use xlink:href="#DejaVuSans-65" transform="translate(431.380859 0)"/>
      <use xlink:href="#DejaVuSans-6e" transform="translate(492.904297 0)"/>
      <use xlink:href="#DejaVuSans-74" transform="translate(556.283203 0)"/>
      <use xlink:href="#DejaVuSans-69" transform="translate(595.492188 0)"/>
      <use xlink:href="#DejaVuSans-6c" transform="translate(623.275391 0)"/>
      <use xlink:href="#DejaVuSans-65" transform="translate(651.058594 0)"/>
     </g>
    </g>
    <g id="line2d_23">
     <path d="M 874.56821 124.836563 
L 896.56821 124.836563 
L 918.56821 124.836563 
" style="fill: none; stroke-dasharray: 2,3.3; stroke-dashoffset: 0; stroke: #000000; stroke-width: 2"/>
    </g>
    <g id="text_21">
     <!-- P90 Percentile -->
     <g style="fill: #262626" transform="translate(936.16821 132.536563) scale(0.22 -0.22)">
      <use xlink:href="#DejaVuSans-50"/>
      <use xlink:href="#DejaVuSans-39" transform="translate(60.302734 0)"/>
      <use xlink:href="#DejaVuSans-30" transform="translate(123.925781 0)"/>
      <use xlink:href="#DejaVuSans-20" transform="translate(187.548828 0)"/>
      <use xlink:href="#DejaVuSans-50" transform="translate(219.335938 0)"/>
      <use xlink:href="#DejaVuSans-65" transform="translate(276.013672 0)"/>
      <use xlink:href="#DejaVuSans-72" transform="translate(337.537109 0)"/>
      <use xlink:href="#DejaVuSans-63" transform="translate(376.400391 0)"/>
      <use xlink:href="#DejaVuSans-65" transform="translate(431.380859 0)"/>
      <use xlink:href="#DejaVuSans-6e" transform="translate(492.904297 0)"/>
      <use xlink:href="#DejaVuSans-74" transform="translate(556.283203 0)"/>
      <use xlink:href="#DejaVuSans-69" transform="translate(595.492188 0)"/>
      <use xlink:href="#DejaVuSans-6c" transform="translate(623.275391 0)"/>
      <use xlink:href="#DejaVuSans-65" transform="translate(651.058594 0)"/>
     </g>
    </g>
    <g id="patch_8">
     <path d="M 874.56821 164.828438 
L 918.56821 164.828438 
L 918.56821 149.428438 
L 874.56821 149.428438 
z
" style="fill: #58508d; fill-opacity: 0.7; stroke: #58508d; stroke-opacity: 0.7; stroke-width: 0.8; stroke-linejoin: miter"/>
    </g>
    <g id="text_22">
     <!-- Batch 0 -->
     <g style="fill: #262626" transform="translate(936.16821 164.828438) scale(0.22 -0.22)">
      <defs>
       <path id="DejaVuSans-42" d="M 1259 2228 
L 1259 519 
L 2272 519 
Q 2781 519 3026 730 
Q 3272 941 3272 1375 
Q 3272 1813 3026 2020 
Q 2781 2228 2272 2228 
L 1259 2228 
z
M 1259 4147 
L 1259 2741 
L 2194 2741 
Q 2656 2741 2882 2914 
Q 3109 3088 3109 3444 
Q 3109 3797 2882 3972 
Q 2656 4147 2194 4147 
L 1259 4147 
z
M 628 4666 
L 2241 4666 
Q 2963 4666 3353 4366 
Q 3744 4066 3744 3513 
Q 3744 3084 3544 2831 
Q 3344 2578 2956 2516 
Q 3422 2416 3680 2098 
Q 3938 1781 3938 1306 
Q 3938 681 3513 340 
Q 3088 0 2303 0 
L 628 0 
L 628 4666 
z
" transform="scale(0.015625)"/>
       <path id="DejaVuSans-68" d="M 3513 2113 
L 3513 0 
L 2938 0 
L 2938 2094 
Q 2938 2591 2744 2837 
Q 2550 3084 2163 3084 
Q 1697 3084 1428 2787 
Q 1159 2491 1159 1978 
L 1159 0 
L 581 0 
L 581 4863 
L 1159 4863 
L 1159 2956 
Q 1366 3272 1645 3428 
Q 1925 3584 2291 3584 
Q 2894 3584 3203 3211 
Q 3513 2838 3513 2113 
z
" transform="scale(0.015625)"/>
      </defs>
      <use xlink:href="#DejaVuSans-42"/>
      <use xlink:href="#DejaVuSans-61" transform="translate(68.603516 0)"/>
      <use xlink:href="#DejaVuSans-74" transform="translate(129.882812 0)"/>
      <use xlink:href="#DejaVuSans-63" transform="translate(169.091797 0)"/>
      <use xlink:href="#DejaVuSans-68" transform="translate(224.072266 0)"/>
      <use xlink:href="#DejaVuSans-20" transform="translate(287.451172 0)"/>
      <use xlink:href="#DejaVuSans-30" transform="translate(319.238281 0)"/>
     </g>
    </g>
    <g id="patch_9">
     <path d="M 874.56821 197.120313 
L 918.56821 197.120313 
L 918.56821 181.720313 
L 874.56821 181.720313 
z
" style="fill: #ffa600; fill-opacity: 0.7; stroke: #ffa600; stroke-opacity: 0.7; stroke-width: 0.8; stroke-linejoin: miter"/>
    </g>
    <g id="text_23">
     <!-- Batch 5 -->
     <g style="fill: #262626" transform="translate(936.16821 197.120313) scale(0.22 -0.22)">
      <use xlink:href="#DejaVuSans-42"/>
      <use xlink:href="#DejaVuSans-61" transform="translate(68.603516 0)"/>
      <use xlink:href="#DejaVuSans-74" transform="translate(129.882812 0)"/>
      <use xlink:href="#DejaVuSans-63" transform="translate(169.091797 0)"/>
      <use xlink:href="#DejaVuSans-68" transform="translate(224.072266 0)"/>
      <use xlink:href="#DejaVuSans-20" transform="translate(287.451172 0)"/>
      <use xlink:href="#DejaVuSans-35" transform="translate(319.238281 0)"/>
     </g>
    </g>
   </g>
  </g>
 </g>
 <defs>
  <clipPath id="p5a49f7f8b5">
   <rect x="81.0825" y="31.43625" width="1031.652898" height="542.004"/>
  </clipPath>
 </defs>
</svg>
