<?xml version="1.0" encoding="utf-8" standalone="no"?>
<!DOCTYPE svg PUBLIC "-//W3C//DTD SVG 1.1//EN"
  "http://www.w3.org/Graphics/SVG/1.1/DTD/svg11.dtd">
<svg xmlns:xlink="http://www.w3.org/1999/xlink" width="1144.286333pt" height="641.330875pt" viewBox="0 0 1144.286333 641.330875" xmlns="http://www.w3.org/2000/svg" version="1.1">
 <metadata>
  <rdf:RDF xmlns:dc="http://purl.org/dc/elements/1.1/" xmlns:cc="http://creativecommons.org/ns#" xmlns:rdf="http://www.w3.org/1999/02/22-rdf-syntax-ns#">
   <cc:Work>
    <dc:type rdf:resource="http://purl.org/dc/dcmitype/StillImage"/>
    <dc:date>2025-07-08T08:17:44.683153</dc:date>
    <dc:format>image/svg+xml</dc:format>
    <dc:creator>
     <cc:Agent>
      <dc:title>Matplotlib v3.10.3, https://matplotlib.org/</dc:title>
     </cc:Agent>
    </dc:creator>
   </cc:Work>
  </rdf:RDF>
 </metadata>
 <defs>
  <style type="text/css">*{stroke-linejoin: round; stroke-linecap: butt}</style>
 </defs>
 <g id="figure_1">
  <g id="patch_1">
   <path d="M 0 641.330875 
L 1144.286333 641.330875 
L 1144.286333 0 
L 0 0 
z
" style="fill: #ffffff"/>
  </g>
  <g id="axes_1">
   <g id="patch_2">
    <path d="M 103.995 573.44025 
L 1112.787898 573.44025 
L 1112.787898 31.43625 
L 103.995 31.43625 
z
" style="fill: #eaeaf2"/>
   </g>
   <g id="matplotlib.axis_1">
    <g id="xtick_1">
     <g id="line2d_1">
      <path d="M 109.066271 573.44025 
L 109.066271 31.43625 
" clip-path="url(#p493ebc6ecf)" style="fill: none; stroke: #ffffff; stroke-width: 0.8; stroke-linecap: round"/>
     </g>
     <g id="text_1">
      <!-- 2023 -->
      <g style="fill: #262626" transform="translate(78.526271 599.9765) scale(0.24 -0.24)">
       <defs>
        <path id="DejaVuSans-32" d="M 1228 531 
L 3431 531 
L 3431 0 
L 469 0 
L 469 531 
Q 828 903 1448 1529 
Q 2069 2156 2228 2338 
Q 2531 2678 2651 2914 
Q 2772 3150 2772 3378 
Q 2772 3750 2511 3984 
Q 2250 4219 1831 4219 
Q 1534 4219 1204 4116 
Q 875 4013 500 3803 
L 500 4441 
Q 881 4594 1212 4672 
Q 1544 4750 1819 4750 
Q 2544 4750 2975 4387 
Q 3406 4025 3406 3419 
Q 3406 3131 3298 2873 
Q 3191 2616 2906 2266 
Q 2828 2175 2409 1742 
Q 1991 1309 1228 531 
z
" transform="scale(0.015625)"/>
        <path id="DejaVuSans-30" d="M 2034 4250 
Q 1547 4250 1301 3770 
Q 1056 3291 1056 2328 
Q 1056 1369 1301 889 
Q 1547 409 2034 409 
Q 2525 409 2770 889 
Q 3016 1369 3016 2328 
Q 3016 3291 2770 3770 
Q 2525 4250 2034 4250 
z
M 2034 4750 
Q 2819 4750 3233 4129 
Q 3647 3509 3647 2328 
Q 3647 1150 3233 529 
Q 2819 -91 2034 -91 
Q 1250 -91 836 529 
Q 422 1150 422 2328 
Q 422 3509 836 4129 
Q 1250 4750 2034 4750 
z
" transform="scale(0.015625)"/>
        <path id="DejaVuSans-33" d="M 2597 2516 
Q 3050 2419 3304 2112 
Q 3559 1806 3559 1356 
Q 3559 666 3084 287 
Q 2609 -91 1734 -91 
Q 1441 -91 1130 -33 
Q 819 25 488 141 
L 488 750 
Q 750 597 1062 519 
Q 1375 441 1716 441 
Q 2309 441 2620 675 
Q 2931 909 2931 1356 
Q 2931 1769 2642 2001 
Q 2353 2234 1838 2234 
L 1294 2234 
L 1294 2753 
L 1863 2753 
Q 2328 2753 2575 2939 
Q 2822 3125 2822 3475 
Q 2822 3834 2567 4026 
Q 2313 4219 1838 4219 
Q 1578 4219 1281 4162 
Q 984 4106 628 3988 
L 628 4550 
Q 988 4650 1302 4700 
Q 1616 4750 1894 4750 
Q 2613 4750 3031 4423 
Q 3450 4097 3450 3541 
Q 3450 3153 3228 2886 
Q 3006 2619 2597 2516 
z
" transform="scale(0.015625)"/>
       </defs>
       <use xlink:href="#DejaVuSans-32"/>
       <use xlink:href="#DejaVuSans-30" transform="translate(63.623047 0)"/>
       <use xlink:href="#DejaVuSans-32" transform="translate(127.246094 0)"/>
       <use xlink:href="#DejaVuSans-33" transform="translate(190.869141 0)"/>
      </g>
     </g>
    </g>
    <g id="xtick_2">
     <g id="line2d_2">
      <path d="M 251.451967 573.44025 
L 251.451967 31.43625 
" clip-path="url(#p493ebc6ecf)" style="fill: none; stroke: #ffffff; stroke-width: 0.8; stroke-linecap: round"/>
     </g>
     <g id="text_2">
      <!-- 2024 -->
      <g style="fill: #262626" transform="translate(220.911967 599.9765) scale(0.24 -0.24)">
       <defs>
        <path id="DejaVuSans-34" d="M 2419 4116 
L 825 1625 
L 2419 1625 
L 2419 4116 
z
M 2253 4666 
L 3047 4666 
L 3047 1625 
L 3713 1625 
L 3713 1100 
L 3047 1100 
L 3047 0 
L 2419 0 
L 2419 1100 
L 313 1100 
L 313 1709 
L 2253 4666 
z
" transform="scale(0.015625)"/>
       </defs>
       <use xlink:href="#DejaVuSans-32"/>
       <use xlink:href="#DejaVuSans-30" transform="translate(63.623047 0)"/>
       <use xlink:href="#DejaVuSans-32" transform="translate(127.246094 0)"/>
       <use xlink:href="#DejaVuSans-34" transform="translate(190.869141 0)"/>
      </g>
     </g>
    </g>
    <g id="xtick_3">
     <g id="line2d_3">
      <path d="M 394.227759 573.44025 
L 394.227759 31.43625 
" clip-path="url(#p493ebc6ecf)" style="fill: none; stroke: #ffffff; stroke-width: 0.8; stroke-linecap: round"/>
     </g>
     <g id="text_3">
      <!-- 2025 -->
      <g style="fill: #262626" transform="translate(363.687759 599.9765) scale(0.24 -0.24)">
       <defs>
        <path id="DejaVuSans-35" d="M 691 4666 
L 3169 4666 
L 3169 4134 
L 1269 4134 
L 1269 2991 
Q 1406 3038 1543 3061 
Q 1681 3084 1819 3084 
Q 2600 3084 3056 2656 
Q 3513 2228 3513 1497 
Q 3513 744 3044 326 
Q 2575 -91 1722 -91 
Q 1428 -91 1123 -41 
Q 819 9 494 109 
L 494 744 
Q 775 591 1075 516 
Q 1375 441 1709 441 
Q 2250 441 2565 725 
Q 2881 1009 2881 1497 
Q 2881 1984 2565 2268 
Q 2250 2553 1709 2553 
Q 1456 2553 1204 2497 
Q 953 2441 691 2322 
L 691 4666 
z
" transform="scale(0.015625)"/>
       </defs>
       <use xlink:href="#DejaVuSans-32"/>
       <use xlink:href="#DejaVuSans-30" transform="translate(63.623047 0)"/>
       <use xlink:href="#DejaVuSans-32" transform="translate(127.246094 0)"/>
       <use xlink:href="#DejaVuSans-35" transform="translate(190.869141 0)"/>
      </g>
     </g>
    </g>
    <g id="xtick_4">
     <g id="line2d_4">
      <path d="M 536.613455 573.44025 
L 536.613455 31.43625 
" clip-path="url(#p493ebc6ecf)" style="fill: none; stroke: #ffffff; stroke-width: 0.8; stroke-linecap: round"/>
     </g>
     <g id="text_4">
      <!-- 2026 -->
      <g style="fill: #262626" transform="translate(506.073455 599.9765) scale(0.24 -0.24)">
       <defs>
        <path id="DejaVuSans-36" d="M 2113 2584 
Q 1688 2584 1439 2293 
Q 1191 2003 1191 1497 
Q 1191 994 1439 701 
Q 1688 409 2113 409 
Q 2538 409 2786 701 
Q 3034 994 3034 1497 
Q 3034 2003 2786 2293 
Q 2538 2584 2113 2584 
z
M 3366 4563 
L 3366 3988 
Q 3128 4100 2886 4159 
Q 2644 4219 2406 4219 
Q 1781 4219 1451 3797 
Q 1122 3375 1075 2522 
Q 1259 2794 1537 2939 
Q 1816 3084 2150 3084 
Q 2853 3084 3261 2657 
Q 3669 2231 3669 1497 
Q 3669 778 3244 343 
Q 2819 -91 2113 -91 
Q 1303 -91 875 529 
Q 447 1150 447 2328 
Q 447 3434 972 4092 
Q 1497 4750 2381 4750 
Q 2619 4750 2861 4703 
Q 3103 4656 3366 4563 
z
" transform="scale(0.015625)"/>
       </defs>
       <use xlink:href="#DejaVuSans-32"/>
       <use xlink:href="#DejaVuSans-30" transform="translate(63.623047 0)"/>
       <use xlink:href="#DejaVuSans-32" transform="translate(127.246094 0)"/>
       <use xlink:href="#DejaVuSans-36" transform="translate(190.869141 0)"/>
      </g>
     </g>
    </g>
    <g id="xtick_5">
     <g id="line2d_5">
      <path d="M 678.99915 573.44025 
L 678.99915 31.43625 
" clip-path="url(#p493ebc6ecf)" style="fill: none; stroke: #ffffff; stroke-width: 0.8; stroke-linecap: round"/>
     </g>
     <g id="text_5">
      <!-- 2027 -->
      <g style="fill: #262626" transform="translate(648.45915 599.9765) scale(0.24 -0.24)">
       <defs>
        <path id="DejaVuSans-37" d="M 525 4666 
L 3525 4666 
L 3525 4397 
L 1831 0 
L 1172 0 
L 2766 4134 
L 525 4134 
L 525 4666 
z
" transform="scale(0.015625)"/>
       </defs>
       <use xlink:href="#DejaVuSans-32"/>
       <use xlink:href="#DejaVuSans-30" transform="translate(63.623047 0)"/>
       <use xlink:href="#DejaVuSans-32" transform="translate(127.246094 0)"/>
       <use xlink:href="#DejaVuSans-37" transform="translate(190.869141 0)"/>
      </g>
     </g>
    </g>
    <g id="xtick_6">
     <g id="line2d_6">
      <path d="M 821.384845 573.44025 
L 821.384845 31.43625 
" clip-path="url(#p493ebc6ecf)" style="fill: none; stroke: #ffffff; stroke-width: 0.8; stroke-linecap: round"/>
     </g>
     <g id="text_6">
      <!-- 2028 -->
      <g style="fill: #262626" transform="translate(790.844845 599.9765) scale(0.24 -0.24)">
       <defs>
        <path id="DejaVuSans-38" d="M 2034 2216 
Q 1584 2216 1326 1975 
Q 1069 1734 1069 1313 
Q 1069 891 1326 650 
Q 1584 409 2034 409 
Q 2484 409 2743 651 
Q 3003 894 3003 1313 
Q 3003 1734 2745 1975 
Q 2488 2216 2034 2216 
z
M 1403 2484 
Q 997 2584 770 2862 
Q 544 3141 544 3541 
Q 544 4100 942 4425 
Q 1341 4750 2034 4750 
Q 2731 4750 3128 4425 
Q 3525 4100 3525 3541 
Q 3525 3141 3298 2862 
Q 3072 2584 2669 2484 
Q 3125 2378 3379 2068 
Q 3634 1759 3634 1313 
Q 3634 634 3220 271 
Q 2806 -91 2034 -91 
Q 1263 -91 848 271 
Q 434 634 434 1313 
Q 434 1759 690 2068 
Q 947 2378 1403 2484 
z
M 1172 3481 
Q 1172 3119 1398 2916 
Q 1625 2713 2034 2713 
Q 2441 2713 2670 2916 
Q 2900 3119 2900 3481 
Q 2900 3844 2670 4047 
Q 2441 4250 2034 4250 
Q 1625 4250 1398 4047 
Q 1172 3844 1172 3481 
z
" transform="scale(0.015625)"/>
       </defs>
       <use xlink:href="#DejaVuSans-32"/>
       <use xlink:href="#DejaVuSans-30" transform="translate(63.623047 0)"/>
       <use xlink:href="#DejaVuSans-32" transform="translate(127.246094 0)"/>
       <use xlink:href="#DejaVuSans-38" transform="translate(190.869141 0)"/>
      </g>
     </g>
    </g>
    <g id="xtick_7">
     <g id="line2d_7">
      <path d="M 964.160638 573.44025 
L 964.160638 31.43625 
" clip-path="url(#p493ebc6ecf)" style="fill: none; stroke: #ffffff; stroke-width: 0.8; stroke-linecap: round"/>
     </g>
     <g id="text_7">
      <!-- 2029 -->
      <g style="fill: #262626" transform="translate(933.620638 599.9765) scale(0.24 -0.24)">
       <defs>
        <path id="DejaVuSans-39" d="M 703 97 
L 703 672 
Q 941 559 1184 500 
Q 1428 441 1663 441 
Q 2288 441 2617 861 
Q 2947 1281 2994 2138 
Q 2813 1869 2534 1725 
Q 2256 1581 1919 1581 
Q 1219 1581 811 2004 
Q 403 2428 403 3163 
Q 403 3881 828 4315 
Q 1253 4750 1959 4750 
Q 2769 4750 3195 4129 
Q 3622 3509 3622 2328 
Q 3622 1225 3098 567 
Q 2575 -91 1691 -91 
Q 1453 -91 1209 -44 
Q 966 3 703 97 
z
M 1959 2075 
Q 2384 2075 2632 2365 
Q 2881 2656 2881 3163 
Q 2881 3666 2632 3958 
Q 2384 4250 1959 4250 
Q 1534 4250 1286 3958 
Q 1038 3666 1038 3163 
Q 1038 2656 1286 2365 
Q 1534 2075 1959 2075 
z
" transform="scale(0.015625)"/>
       </defs>
       <use xlink:href="#DejaVuSans-32"/>
       <use xlink:href="#DejaVuSans-30" transform="translate(63.623047 0)"/>
       <use xlink:href="#DejaVuSans-32" transform="translate(127.246094 0)"/>
       <use xlink:href="#DejaVuSans-39" transform="translate(190.869141 0)"/>
      </g>
     </g>
    </g>
    <g id="xtick_8">
     <g id="line2d_8">
      <path d="M 1106.546333 573.44025 
L 1106.546333 31.43625 
" clip-path="url(#p493ebc6ecf)" style="fill: none; stroke: #ffffff; stroke-width: 0.8; stroke-linecap: round"/>
     </g>
     <g id="text_8">
      <!-- 2030 -->
      <g style="fill: #262626" transform="translate(1076.006333 599.9765) scale(0.24 -0.24)">
       <use xlink:href="#DejaVuSans-32"/>
       <use xlink:href="#DejaVuSans-30" transform="translate(63.623047 0)"/>
       <use xlink:href="#DejaVuSans-33" transform="translate(127.246094 0)"/>
       <use xlink:href="#DejaVuSans-30" transform="translate(190.869141 0)"/>
      </g>
     </g>
    </g>
    <g id="text_9">
     <!-- Date -->
     <g style="fill: #262626" transform="translate(573.795199 628.723687) scale(0.26 -0.26)">
      <defs>
       <path id="DejaVuSans-Bold-44" d="M 1791 3756 
L 1791 909 
L 2222 909 
Q 2959 909 3348 1275 
Q 3738 1641 3738 2338 
Q 3738 3031 3350 3393 
Q 2963 3756 2222 3756 
L 1791 3756 
z
M 588 4666 
L 1856 4666 
Q 2919 4666 3439 4514 
Q 3959 4363 4331 4000 
Q 4659 3684 4818 3271 
Q 4978 2859 4978 2338 
Q 4978 1809 4818 1395 
Q 4659 981 4331 666 
Q 3956 303 3431 151 
Q 2906 0 1856 0 
L 588 0 
L 588 4666 
z
" transform="scale(0.015625)"/>
       <path id="DejaVuSans-Bold-61" d="M 2106 1575 
Q 1756 1575 1579 1456 
Q 1403 1338 1403 1106 
Q 1403 894 1545 773 
Q 1688 653 1941 653 
Q 2256 653 2472 879 
Q 2688 1106 2688 1447 
L 2688 1575 
L 2106 1575 
z
M 3816 1997 
L 3816 0 
L 2688 0 
L 2688 519 
Q 2463 200 2181 54 
Q 1900 -91 1497 -91 
Q 953 -91 614 226 
Q 275 544 275 1050 
Q 275 1666 698 1953 
Q 1122 2241 2028 2241 
L 2688 2241 
L 2688 2328 
Q 2688 2594 2478 2717 
Q 2269 2841 1825 2841 
Q 1466 2841 1156 2769 
Q 847 2697 581 2553 
L 581 3406 
Q 941 3494 1303 3539 
Q 1666 3584 2028 3584 
Q 2975 3584 3395 3211 
Q 3816 2838 3816 1997 
z
" transform="scale(0.015625)"/>
       <path id="DejaVuSans-Bold-74" d="M 1759 4494 
L 1759 3500 
L 2913 3500 
L 2913 2700 
L 1759 2700 
L 1759 1216 
Q 1759 972 1856 886 
Q 1953 800 2241 800 
L 2816 800 
L 2816 0 
L 1856 0 
Q 1194 0 917 276 
Q 641 553 641 1216 
L 641 2700 
L 84 2700 
L 84 3500 
L 641 3500 
L 641 4494 
L 1759 4494 
z
" transform="scale(0.015625)"/>
       <path id="DejaVuSans-Bold-65" d="M 4031 1759 
L 4031 1441 
L 1416 1441 
Q 1456 1047 1700 850 
Q 1944 653 2381 653 
Q 2734 653 3104 758 
Q 3475 863 3866 1075 
L 3866 213 
Q 3469 63 3072 -14 
Q 2675 -91 2278 -91 
Q 1328 -91 801 392 
Q 275 875 275 1747 
Q 275 2603 792 3093 
Q 1309 3584 2216 3584 
Q 3041 3584 3536 3087 
Q 4031 2591 4031 1759 
z
M 2881 2131 
Q 2881 2450 2695 2645 
Q 2509 2841 2209 2841 
Q 1884 2841 1681 2658 
Q 1478 2475 1428 2131 
L 2881 2131 
z
" transform="scale(0.015625)"/>
      </defs>
      <use xlink:href="#DejaVuSans-Bold-44"/>
      <use xlink:href="#DejaVuSans-Bold-61" transform="translate(83.007812 0)"/>
      <use xlink:href="#DejaVuSans-Bold-74" transform="translate(150.488281 0)"/>
      <use xlink:href="#DejaVuSans-Bold-65" transform="translate(198.291016 0)"/>
     </g>
    </g>
   </g>
   <g id="matplotlib.axis_2">
    <g id="ytick_1">
     <g id="line2d_9">
      <path d="M 103.995 548.803705 
L 1112.787898 548.803705 
" clip-path="url(#p493ebc6ecf)" style="fill: none; stroke: #ffffff; stroke-width: 0.8; stroke-linecap: round"/>
     </g>
     <g id="text_10">
      <!-- 0 -->
      <g style="fill: #262626" transform="translate(80.425 557.92183) scale(0.24 -0.24)">
       <use xlink:href="#DejaVuSans-30"/>
      </g>
     </g>
    </g>
    <g id="ytick_2">
     <g id="line2d_10">
      <path d="M 103.995 444.469437 
L 1112.787898 444.469437 
" clip-path="url(#p493ebc6ecf)" style="fill: none; stroke: #ffffff; stroke-width: 0.8; stroke-linecap: round"/>
     </g>
     <g id="text_11">
      <!-- 500 -->
      <g style="fill: #262626" transform="translate(49.885 453.587562) scale(0.24 -0.24)">
       <use xlink:href="#DejaVuSans-35"/>
       <use xlink:href="#DejaVuSans-30" transform="translate(63.623047 0)"/>
       <use xlink:href="#DejaVuSans-30" transform="translate(127.246094 0)"/>
      </g>
     </g>
    </g>
    <g id="ytick_3">
     <g id="line2d_11">
      <path d="M 103.995 340.135169 
L 1112.787898 340.135169 
" clip-path="url(#p493ebc6ecf)" style="fill: none; stroke: #ffffff; stroke-width: 0.8; stroke-linecap: round"/>
     </g>
     <g id="text_12">
      <!-- 1000 -->
      <g style="fill: #262626" transform="translate(34.615 349.253294) scale(0.24 -0.24)">
       <defs>
        <path id="DejaVuSans-31" d="M 794 531 
L 1825 531 
L 1825 4091 
L 703 3866 
L 703 4441 
L 1819 4666 
L 2450 4666 
L 2450 531 
L 3481 531 
L 3481 0 
L 794 0 
L 794 531 
z
" transform="scale(0.015625)"/>
       </defs>
       <use xlink:href="#DejaVuSans-31"/>
       <use xlink:href="#DejaVuSans-30" transform="translate(63.623047 0)"/>
       <use xlink:href="#DejaVuSans-30" transform="translate(127.246094 0)"/>
       <use xlink:href="#DejaVuSans-30" transform="translate(190.869141 0)"/>
      </g>
     </g>
    </g>
    <g id="ytick_4">
     <g id="line2d_12">
      <path d="M 103.995 235.800901 
L 1112.787898 235.800901 
" clip-path="url(#p493ebc6ecf)" style="fill: none; stroke: #ffffff; stroke-width: 0.8; stroke-linecap: round"/>
     </g>
     <g id="text_13">
      <!-- 1500 -->
      <g style="fill: #262626" transform="translate(34.615 244.919026) scale(0.24 -0.24)">
       <use xlink:href="#DejaVuSans-31"/>
       <use xlink:href="#DejaVuSans-35" transform="translate(63.623047 0)"/>
       <use xlink:href="#DejaVuSans-30" transform="translate(127.246094 0)"/>
       <use xlink:href="#DejaVuSans-30" transform="translate(190.869141 0)"/>
      </g>
     </g>
    </g>
    <g id="ytick_5">
     <g id="line2d_13">
      <path d="M 103.995 131.466633 
L 1112.787898 131.466633 
" clip-path="url(#p493ebc6ecf)" style="fill: none; stroke: #ffffff; stroke-width: 0.8; stroke-linecap: round"/>
     </g>
     <g id="text_14">
      <!-- 2000 -->
      <g style="fill: #262626" transform="translate(34.615 140.584758) scale(0.24 -0.24)">
       <use xlink:href="#DejaVuSans-32"/>
       <use xlink:href="#DejaVuSans-30" transform="translate(63.623047 0)"/>
       <use xlink:href="#DejaVuSans-30" transform="translate(127.246094 0)"/>
       <use xlink:href="#DejaVuSans-30" transform="translate(190.869141 0)"/>
      </g>
     </g>
    </g>
    <g id="text_15">
     <!-- WWPR:A3 [Sm³/day] -->
     <g style="fill: #262626" transform="translate(25.43625 439.446375) rotate(-90) scale(0.24 -0.24)">
      <defs>
       <path id="DejaVuSans-Bold-57" d="M 191 4666 
L 1344 4666 
L 2150 1275 
L 2950 4666 
L 4109 4666 
L 4909 1275 
L 5716 4666 
L 6859 4666 
L 5759 0 
L 4372 0 
L 3525 3547 
L 2688 0 
L 1300 0 
L 191 4666 
z
" transform="scale(0.015625)"/>
       <path id="DejaVuSans-Bold-50" d="M 588 4666 
L 2584 4666 
Q 3475 4666 3951 4270 
Q 4428 3875 4428 3144 
Q 4428 2409 3951 2014 
Q 3475 1619 2584 1619 
L 1791 1619 
L 1791 0 
L 588 0 
L 588 4666 
z
M 1791 3794 
L 1791 2491 
L 2456 2491 
Q 2806 2491 2997 2661 
Q 3188 2831 3188 3144 
Q 3188 3456 2997 3625 
Q 2806 3794 2456 3794 
L 1791 3794 
z
" transform="scale(0.015625)"/>
       <path id="DejaVuSans-Bold-52" d="M 2297 2597 
Q 2675 2597 2839 2737 
Q 3003 2878 3003 3200 
Q 3003 3519 2839 3656 
Q 2675 3794 2297 3794 
L 1791 3794 
L 1791 2597 
L 2297 2597 
z
M 1791 1766 
L 1791 0 
L 588 0 
L 588 4666 
L 2425 4666 
Q 3347 4666 3776 4356 
Q 4206 4047 4206 3378 
Q 4206 2916 3982 2619 
Q 3759 2322 3309 2181 
Q 3556 2125 3751 1926 
Q 3947 1728 4147 1325 
L 4800 0 
L 3519 0 
L 2950 1159 
Q 2778 1509 2601 1637 
Q 2425 1766 2131 1766 
L 1791 1766 
z
" transform="scale(0.015625)"/>
       <path id="DejaVuSans-Bold-3a" d="M 716 3500 
L 1844 3500 
L 1844 2291 
L 716 2291 
L 716 3500 
z
M 716 1209 
L 1844 1209 
L 1844 0 
L 716 0 
L 716 1209 
z
" transform="scale(0.015625)"/>
       <path id="DejaVuSans-Bold-41" d="M 3419 850 
L 1538 850 
L 1241 0 
L 31 0 
L 1759 4666 
L 3194 4666 
L 4922 0 
L 3713 0 
L 3419 850 
z
M 1838 1716 
L 3116 1716 
L 2478 3572 
L 1838 1716 
z
" transform="scale(0.015625)"/>
       <path id="DejaVuSans-Bold-33" d="M 2981 2516 
Q 3453 2394 3698 2092 
Q 3944 1791 3944 1325 
Q 3944 631 3412 270 
Q 2881 -91 1863 -91 
Q 1503 -91 1142 -33 
Q 781 25 428 141 
L 428 1069 
Q 766 900 1098 814 
Q 1431 728 1753 728 
Q 2231 728 2486 893 
Q 2741 1059 2741 1369 
Q 2741 1688 2480 1852 
Q 2219 2016 1709 2016 
L 1228 2016 
L 1228 2791 
L 1734 2791 
Q 2188 2791 2409 2933 
Q 2631 3075 2631 3366 
Q 2631 3634 2415 3781 
Q 2200 3928 1806 3928 
Q 1516 3928 1219 3862 
Q 922 3797 628 3669 
L 628 4550 
Q 984 4650 1334 4700 
Q 1684 4750 2022 4750 
Q 2931 4750 3382 4451 
Q 3834 4153 3834 3553 
Q 3834 3144 3618 2883 
Q 3403 2622 2981 2516 
z
" transform="scale(0.015625)"/>
       <path id="DejaVuSans-Bold-20" transform="scale(0.015625)"/>
       <path id="DejaVuSans-Bold-5b" d="M 550 4863 
L 2491 4863 
L 2491 4159 
L 1613 4159 
L 1613 -141 
L 2491 -141 
L 2491 -844 
L 550 -844 
L 550 4863 
z
" transform="scale(0.015625)"/>
       <path id="DejaVuSans-Bold-53" d="M 3834 4519 
L 3834 3531 
Q 3450 3703 3084 3790 
Q 2719 3878 2394 3878 
Q 1963 3878 1756 3759 
Q 1550 3641 1550 3391 
Q 1550 3203 1689 3098 
Q 1828 2994 2194 2919 
L 2706 2816 
Q 3484 2659 3812 2340 
Q 4141 2022 4141 1434 
Q 4141 663 3683 286 
Q 3225 -91 2284 -91 
Q 1841 -91 1394 -6 
Q 947 78 500 244 
L 500 1259 
Q 947 1022 1364 901 
Q 1781 781 2169 781 
Q 2563 781 2772 912 
Q 2981 1044 2981 1288 
Q 2981 1506 2839 1625 
Q 2697 1744 2272 1838 
L 1806 1941 
Q 1106 2091 782 2419 
Q 459 2747 459 3303 
Q 459 4000 909 4375 
Q 1359 4750 2203 4750 
Q 2588 4750 2994 4692 
Q 3400 4634 3834 4519 
z
" transform="scale(0.015625)"/>
       <path id="DejaVuSans-Bold-6d" d="M 3781 2919 
Q 3994 3244 4286 3414 
Q 4578 3584 4928 3584 
Q 5531 3584 5847 3212 
Q 6163 2841 6163 2131 
L 6163 0 
L 5038 0 
L 5038 1825 
Q 5041 1866 5042 1909 
Q 5044 1953 5044 2034 
Q 5044 2406 4934 2573 
Q 4825 2741 4581 2741 
Q 4263 2741 4089 2478 
Q 3916 2216 3909 1719 
L 3909 0 
L 2784 0 
L 2784 1825 
Q 2784 2406 2684 2573 
Q 2584 2741 2328 2741 
Q 2006 2741 1831 2477 
Q 1656 2213 1656 1722 
L 1656 0 
L 531 0 
L 531 3500 
L 1656 3500 
L 1656 2988 
Q 1863 3284 2130 3434 
Q 2397 3584 2719 3584 
Q 3081 3584 3359 3409 
Q 3638 3234 3781 2919 
z
" transform="scale(0.015625)"/>
       <path id="DejaVuSans-Bold-b3" d="M 1850 3500 
Q 2138 3444 2297 3272 
Q 2456 3100 2456 2847 
Q 2456 2444 2147 2242 
Q 1838 2041 1209 2041 
Q 956 2041 725 2077 
Q 494 2113 281 2181 
L 281 2725 
Q 488 2613 688 2555 
Q 888 2497 1075 2497 
Q 1372 2497 1534 2597 
Q 1697 2697 1697 2881 
Q 1697 3081 1530 3176 
Q 1363 3272 1006 3272 
L 775 3272 
L 775 3700 
L 1038 3700 
Q 1344 3700 1484 3773 
Q 1625 3847 1625 4006 
Q 1625 4147 1503 4217 
Q 1381 4288 1131 4288 
Q 969 4288 776 4247 
Q 584 4206 366 4122 
L 366 4641 
Q 569 4694 805 4722 
Q 1041 4750 1313 4750 
Q 1834 4750 2111 4575 
Q 2388 4400 2388 4072 
Q 2388 3856 2247 3706 
Q 2106 3556 1850 3500 
z
" transform="scale(0.015625)"/>
       <path id="DejaVuSans-Bold-2f" d="M 1644 4666 
L 2338 4666 
L 691 -594 
L 0 -594 
L 1644 4666 
z
" transform="scale(0.015625)"/>
       <path id="DejaVuSans-Bold-64" d="M 2919 2988 
L 2919 4863 
L 4044 4863 
L 4044 0 
L 2919 0 
L 2919 506 
Q 2688 197 2409 53 
Q 2131 -91 1766 -91 
Q 1119 -91 703 423 
Q 288 938 288 1747 
Q 288 2556 703 3070 
Q 1119 3584 1766 3584 
Q 2128 3584 2408 3439 
Q 2688 3294 2919 2988 
z
M 2181 722 
Q 2541 722 2730 984 
Q 2919 1247 2919 1747 
Q 2919 2247 2730 2509 
Q 2541 2772 2181 2772 
Q 1825 2772 1636 2509 
Q 1447 2247 1447 1747 
Q 1447 1247 1636 984 
Q 1825 722 2181 722 
z
" transform="scale(0.015625)"/>
       <path id="DejaVuSans-Bold-79" d="M 78 3500 
L 1197 3500 
L 2138 1125 
L 2938 3500 
L 4056 3500 
L 2584 -331 
Q 2363 -916 2067 -1148 
Q 1772 -1381 1288 -1381 
L 641 -1381 
L 641 -647 
L 991 -647 
Q 1275 -647 1404 -556 
Q 1534 -466 1606 -231 
L 1638 -134 
L 78 3500 
z
" transform="scale(0.015625)"/>
       <path id="DejaVuSans-Bold-5d" d="M 2375 -844 
L 434 -844 
L 434 -141 
L 1313 -141 
L 1313 4159 
L 434 4159 
L 434 4863 
L 2375 4863 
L 2375 -844 
z
" transform="scale(0.015625)"/>
      </defs>
      <use xlink:href="#DejaVuSans-Bold-57"/>
      <use xlink:href="#DejaVuSans-Bold-57" transform="translate(110.302734 0)"/>
      <use xlink:href="#DejaVuSans-Bold-50" transform="translate(220.605469 0)"/>
      <use xlink:href="#DejaVuSans-Bold-52" transform="translate(293.896484 0)"/>
      <use xlink:href="#DejaVuSans-Bold-3a" transform="translate(370.898438 0)"/>
      <use xlink:href="#DejaVuSans-Bold-41" transform="translate(410.888672 0)"/>
      <use xlink:href="#DejaVuSans-Bold-33" transform="translate(488.28125 0)"/>
      <use xlink:href="#DejaVuSans-Bold-20" transform="translate(557.861328 0)"/>
      <use xlink:href="#DejaVuSans-Bold-5b" transform="translate(592.675781 0)"/>
      <use xlink:href="#DejaVuSans-Bold-53" transform="translate(638.378906 0)"/>
      <use xlink:href="#DejaVuSans-Bold-6d" transform="translate(710.400391 0)"/>
      <use xlink:href="#DejaVuSans-Bold-b3" transform="translate(814.599609 0)"/>
      <use xlink:href="#DejaVuSans-Bold-2f" transform="translate(858.398438 0)"/>
      <use xlink:href="#DejaVuSans-Bold-64" transform="translate(894.921875 0)"/>
      <use xlink:href="#DejaVuSans-Bold-61" transform="translate(966.503906 0)"/>
      <use xlink:href="#DejaVuSans-Bold-79" transform="translate(1030.859375 0)"/>
      <use xlink:href="#DejaVuSans-Bold-5d" transform="translate(1096.044922 0)"/>
     </g>
    </g>
   </g>
   <g id="FillBetweenPolyCollection_1">
    <defs>
     <path id="me86c864430" d="M 62.644634 -92.52717 
L 62.644634 -92.52717 
L 63.814927 -92.52717 
L 67.325807 -92.52717 
L 77.858448 -92.52717 
L 89.561382 -92.52717 
L 101.264315 -92.52717 
L 109.066271 -92.52717 
L 144.175073 -92.52717 
L 150.221589 -92.52717 
L 156.268105 -92.52717 
L 179.673972 -92.52717 
L 203.469938 -92.52717 
L 215.562969 -92.809562 
L 250.671771 -94.205342 
L 251.451967 -94.399597 
L 286.950866 -158.755168 
L 297.873604 -175.717778 
L 322.449765 -196.118987 
L 345.075437 -213.963203 
L 358.338762 -222.755123 
L 394.227759 -252.526751 
L 429.336561 -273.695055 
L 464.83546 -294.181583 
L 500.724458 -304.831473 
L 536.613455 -308.488076 
L 571.722256 -311.777815 
L 607.221156 -315.003898 
L 643.110153 -322.983279 
L 678.99915 -333.297471 
L 714.107951 -341.375658 
L 725.810885 -343.71564 
L 737.513819 -347.215805 
L 743.560335 -349.840897 
L 749.606851 -352.484481 
L 785.495848 -368.016609 
L 821.384845 -375.952177 
L 833.087779 -377.169317 
L 856.883744 -379.625452 
L 868.586678 -381.400866 
L 892.382644 -389.378388 
L 904.085578 -391.29902 
L 928.271641 -394.337373 
L 939.974575 -395.796372 
L 951.677509 -397.2718 
L 957.919073 -398.048856 
L 964.160638 -398.848837 
L 999.26944 -404.451098 
L 1034.768339 -408.175419 
L 1070.657336 -412.185054 
L 1082.36027 -413.63827 
L 1094.063204 -415.118895 
L 1100.304768 -415.903185 
L 1106.546333 -416.693079 
L 1106.546333 -585.249164 
L 1106.546333 -585.249164 
L 1100.304768 -585.038713 
L 1094.063204 -584.832031 
L 1082.36027 -584.44633 
L 1070.657336 -584.059713 
L 1034.768339 -582.910202 
L 999.26944 -581.809292 
L 964.160638 -579.433395 
L 957.919073 -579.273582 
L 951.677509 -579.105669 
L 939.974575 -578.78263 
L 928.271641 -578.443951 
L 904.085578 -578.599077 
L 892.382644 -578.973927 
L 868.586678 -578.524902 
L 856.883744 -578.318475 
L 833.087779 -576.291395 
L 821.384845 -576.202853 
L 785.495848 -575.940693 
L 749.606851 -572.803074 
L 743.560335 -572.760892 
L 737.513819 -572.718863 
L 725.810885 -572.625176 
L 714.107951 -572.505559 
L 678.99915 -569.904844 
L 643.110153 -564.104561 
L 607.221156 -560.516084 
L 571.722256 -556.062977 
L 536.613455 -549.000648 
L 500.724458 -538.907021 
L 464.83546 -524.873196 
L 429.336561 -513.649773 
L 394.227759 -493.691386 
L 358.338762 -454.722919 
L 345.075437 -432.233357 
L 322.449765 -399.222464 
L 297.873604 -362.602715 
L 286.950866 -343.832099 
L 251.451967 -233.169471 
L 250.671771 -229.671585 
L 215.562969 -97.902924 
L 203.469938 -92.52717 
L 179.673972 -92.52717 
L 156.268105 -92.52717 
L 150.221589 -92.52717 
L 144.175073 -92.52717 
L 109.066271 -92.52717 
L 101.264315 -92.52717 
L 89.561382 -92.52717 
L 77.858448 -92.52717 
L 67.325807 -92.52717 
L 63.814927 -92.52717 
L 62.644634 -92.52717 
z
" style="stroke: #58508d; stroke-opacity: 0.7; stroke-width: 0.8"/>
    </defs>
    <g clip-path="url(#p493ebc6ecf)">
     <use xlink:href="#me86c864430" x="0" y="641.330875" style="fill: #58508d; fill-opacity: 0.7; stroke: #58508d; stroke-opacity: 0.7; stroke-width: 0.8"/>
    </g>
   </g>
   <g id="FillBetweenPolyCollection_2">
    <defs>
     <path id="mda5f012f91" d="M 62.644634 -92.52717 
L 62.644634 -92.52717 
L 63.814927 -92.52717 
L 67.325807 -92.52717 
L 77.858448 -92.52717 
L 89.561382 -92.52717 
L 101.264315 -92.52717 
L 109.066271 -92.52717 
L 144.175073 -92.52717 
L 150.221589 -92.52717 
L 156.268105 -92.52717 
L 179.673972 -92.52717 
L 203.469938 -92.52717 
L 215.562969 -92.52717 
L 250.671771 -92.52717 
L 251.451967 -92.52717 
L 286.950866 -92.52717 
L 297.873604 -92.52717 
L 322.449765 -92.939849 
L 345.075437 -93.79952 
L 358.338762 -100.655026 
L 394.227759 -174.805586 
L 429.336561 -234.883039 
L 464.83546 -274.332485 
L 500.724458 -299.669117 
L 536.613455 -313.065487 
L 571.722256 -324.402083 
L 607.221156 -338.036809 
L 643.110153 -352.128532 
L 678.99915 -363.834832 
L 714.107951 -372.643487 
L 725.810885 -374.824394 
L 737.513819 -376.81994 
L 743.560335 -377.823826 
L 749.606851 -378.810697 
L 785.495848 -384.094581 
L 821.384845 -389.055425 
L 833.087779 -390.852924 
L 856.883744 -394.686266 
L 868.586678 -396.74911 
L 892.382644 -401.465829 
L 904.085578 -404.139292 
L 928.271641 -409.692239 
L 939.974575 -412.288216 
L 951.677509 -414.70166 
L 957.919073 -415.594792 
L 964.160638 -415.713595 
L 999.26944 -423.530387 
L 1034.768339 -430.553438 
L 1070.657336 -433.860855 
L 1082.36027 -434.884635 
L 1094.063204 -435.913586 
L 1100.304768 -436.454488 
L 1106.546333 -437.005529 
L 1106.546333 -584.270674 
L 1106.546333 -584.270674 
L 1100.304768 -584.145401 
L 1094.063204 -584.316167 
L 1082.36027 -584.737223 
L 1070.657336 -585.187929 
L 1034.768339 -585.25808 
L 999.26944 -584.819142 
L 964.160638 -580.299807 
L 957.919073 -579.556935 
L 951.677509 -579.300583 
L 939.974575 -579.195637 
L 928.271641 -579.075459 
L 904.085578 -575.602982 
L 892.382644 -573.731843 
L 868.586678 -572.880918 
L 856.883744 -570.200474 
L 833.087779 -569.003891 
L 821.384845 -568.387514 
L 785.495848 -566.756068 
L 749.606851 -565.516844 
L 743.560335 -565.27496 
L 737.513819 -564.964453 
L 725.810885 -564.554401 
L 714.107951 -564.147151 
L 678.99915 -561.859897 
L 643.110153 -559.145321 
L 607.221156 -554.678103 
L 571.722256 -549.617942 
L 536.613455 -541.926754 
L 500.724458 -516.137671 
L 464.83546 -495.235259 
L 429.336561 -455.008514 
L 394.227759 -368.633062 
L 358.338762 -260.053732 
L 345.075437 -200.072646 
L 322.449765 -110.822433 
L 297.873604 -92.52717 
L 286.950866 -92.52717 
L 251.451967 -92.52717 
L 250.671771 -92.52717 
L 215.562969 -92.52717 
L 203.469938 -92.52717 
L 179.673972 -92.52717 
L 156.268105 -92.52717 
L 150.221589 -92.52717 
L 144.175073 -92.52717 
L 109.066271 -92.52717 
L 101.264315 -92.52717 
L 89.561382 -92.52717 
L 77.858448 -92.52717 
L 67.325807 -92.52717 
L 63.814927 -92.52717 
L 62.644634 -92.52717 
z
" style="stroke: #ffa600; stroke-opacity: 0.7; stroke-width: 0.8"/>
    </defs>
    <g clip-path="url(#p493ebc6ecf)">
     <use xlink:href="#mda5f012f91" x="0" y="641.330875" style="fill: #ffa600; fill-opacity: 0.7; stroke: #ffa600; stroke-opacity: 0.7; stroke-width: 0.8"/>
    </g>
   </g>
   <g id="line2d_14">
    <path d="M 62.644634 548.803705 
L 63.814927 548.803705 
L 67.325807 548.803705 
L 77.858448 548.803705 
L 89.561382 548.803705 
L 101.264315 548.803705 
L 109.066271 548.803705 
L 144.175073 548.803705 
L 150.221589 548.803705 
L 156.268105 548.803705 
L 179.673972 548.803705 
L 203.469938 548.803705 
L 215.562969 546.280368 
L 250.671771 496.754636 
L 251.451967 494.176084 
L 286.950866 395.608683 
L 297.873604 378.789226 
L 322.449765 355.767288 
L 345.075437 345.905083 
L 358.338762 330.013462 
L 394.227759 297.112525 
L 429.336561 274.261466 
L 464.83546 255.594503 
L 500.724458 239.748186 
L 536.613455 226.338823 
L 571.722256 215.047434 
L 607.221156 205.113932 
L 643.110153 196.209119 
L 678.99915 188.155943 
L 714.107951 180.864769 
L 725.810885 178.545924 
L 737.513819 176.263967 
L 743.560335 175.103807 
L 749.606851 173.94919 
L 785.495848 167.368085 
L 821.384845 161.311133 
L 833.087779 159.428995 
L 856.883744 155.820873 
L 868.586678 154.074564 
L 892.382644 150.542041 
L 904.085578 148.818335 
L 928.271641 145.310886 
L 939.974575 143.637567 
L 951.677509 141.97996 
L 957.919073 141.106336 
L 964.160638 140.236253 
L 999.26944 135.575953 
L 1034.768339 131.113872 
L 1070.657336 127.032444 
L 1082.36027 125.765268 
L 1094.063204 124.525751 
L 1100.304768 123.866419 
L 1106.546333 123.207483 
" clip-path="url(#p493ebc6ecf)" style="fill: none; stroke: #000000; stroke-width: 4; stroke-linecap: round"/>
   </g>
   <g id="line2d_15">
    <path d="M 62.644634 548.803705 
L 63.814927 548.803705 
L 67.325807 548.803705 
L 77.858448 548.803705 
L 89.561382 548.803705 
L 101.264315 548.803705 
L 109.066271 548.803705 
L 144.175073 548.803705 
L 150.221589 548.803705 
L 156.268105 548.803705 
L 179.673972 548.803705 
L 203.469938 548.803705 
L 215.562969 543.427951 
L 250.671771 411.65929 
L 251.451967 408.161404 
L 286.950866 297.498776 
L 297.873604 278.72816 
L 322.449765 242.108411 
L 345.075437 209.097518 
L 358.338762 186.607956 
L 394.227759 147.639489 
L 429.336561 127.681102 
L 464.83546 116.457679 
L 500.724458 102.423854 
L 536.613455 92.330227 
L 571.722256 85.267898 
L 607.221156 80.814791 
L 643.110153 77.226314 
L 678.99915 71.426031 
L 714.107951 68.825316 
L 725.810885 68.705699 
L 737.513819 68.612012 
L 743.560335 68.569983 
L 749.606851 68.527801 
L 785.495848 65.390182 
L 821.384845 65.128022 
L 833.087779 65.03948 
L 856.883744 63.0124 
L 868.586678 62.805973 
L 892.382644 62.356948 
L 904.085578 62.731798 
L 928.271641 62.886924 
L 939.974575 62.548245 
L 951.677509 62.225206 
L 957.919073 62.057293 
L 964.160638 61.89748 
L 999.26944 59.521583 
L 1034.768339 58.420673 
L 1070.657336 57.271162 
L 1082.36027 56.884545 
L 1094.063204 56.498844 
L 1100.304768 56.292162 
L 1106.546333 56.081711 
" clip-path="url(#p493ebc6ecf)" style="fill: none; stroke-dasharray: 7.4,3.2; stroke-dashoffset: 0; stroke: #000000; stroke-width: 2"/>
   </g>
   <g id="line2d_16">
    <path d="M 62.644634 548.803705 
L 63.814927 548.803705 
L 67.325807 548.803705 
L 77.858448 548.803705 
L 89.561382 548.803705 
L 101.264315 548.803705 
L 109.066271 548.803705 
L 144.175073 548.803705 
L 150.221589 548.803705 
L 156.268105 548.803705 
L 179.673972 548.803705 
L 203.469938 548.803705 
L 215.562969 548.521313 
L 250.671771 547.125533 
L 251.451967 546.931278 
L 286.950866 482.575707 
L 297.873604 465.613097 
L 322.449765 445.211888 
L 345.075437 427.367672 
L 358.338762 418.575752 
L 394.227759 388.804124 
L 429.336561 367.63582 
L 464.83546 347.149292 
L 500.724458 336.499402 
L 536.613455 332.842799 
L 571.722256 329.55306 
L 607.221156 326.326977 
L 643.110153 318.347596 
L 678.99915 308.033404 
L 714.107951 299.955217 
L 725.810885 297.615235 
L 737.513819 294.11507 
L 743.560335 291.489978 
L 749.606851 288.846394 
L 785.495848 273.314266 
L 821.384845 265.378698 
L 833.087779 264.161558 
L 856.883744 261.705423 
L 868.586678 259.930009 
L 892.382644 251.952487 
L 904.085578 250.031855 
L 928.271641 246.993502 
L 939.974575 245.534503 
L 951.677509 244.059075 
L 957.919073 243.282019 
L 964.160638 242.482038 
L 999.26944 236.879777 
L 1034.768339 233.155456 
L 1070.657336 229.145821 
L 1082.36027 227.692605 
L 1094.063204 226.21198 
L 1100.304768 225.42769 
L 1106.546333 224.637796 
" clip-path="url(#p493ebc6ecf)" style="fill: none; stroke-dasharray: 2,3.3; stroke-dashoffset: 0; stroke: #000000; stroke-width: 2"/>
   </g>
   <g id="line2d_17">
    <path d="M 62.644634 548.803705 
L 63.814927 548.803705 
L 67.325807 548.803705 
L 77.858448 548.803705 
L 89.561382 548.803705 
L 101.264315 548.803705 
L 109.066271 548.803705 
L 144.175073 548.803705 
L 150.221589 548.803705 
L 156.268105 548.803705 
L 179.673972 548.803705 
L 203.469938 548.803705 
L 215.562969 548.803705 
L 250.671771 548.803705 
L 251.451967 548.803705 
L 286.950866 548.803705 
L 297.873604 548.803705 
L 322.449765 542.798383 
L 345.075437 510.36926 
L 358.338762 470.816619 
L 394.227759 372.869996 
L 429.336561 315.063107 
L 464.83546 276.038962 
L 500.724458 247.270352 
L 536.613455 225.23209 
L 571.722256 209.217624 
L 607.221156 196.604378 
L 643.110153 186.335078 
L 678.99915 177.705995 
L 714.107951 170.277279 
L 725.810885 167.958044 
L 737.513819 165.749893 
L 743.560335 164.633596 
L 749.606851 163.527249 
L 785.495848 157.259871 
L 821.384845 151.492775 
L 833.087779 149.686159 
L 856.883744 146.151317 
L 868.586678 144.452275 
L 892.382644 141.074621 
L 904.085578 139.471415 
L 928.271641 136.240831 
L 939.974575 134.71392 
L 951.677509 133.228538 
L 957.919073 132.464348 
L 964.160638 131.692228 
L 999.26944 127.461355 
L 1034.768339 123.513185 
L 1070.657336 119.845642 
L 1082.36027 118.679764 
L 1094.063204 117.529803 
L 1100.304768 116.936332 
L 1106.546333 116.340289 
" clip-path="url(#p493ebc6ecf)" style="fill: none; stroke: #808080; stroke-width: 4; stroke-linecap: round"/>
   </g>
   <g id="line2d_18">
    <path d="M 62.644634 548.803705 
L 63.814927 548.803705 
L 67.325807 548.803705 
L 77.858448 548.803705 
L 89.561382 548.803705 
L 101.264315 548.803705 
L 109.066271 548.803705 
L 144.175073 548.803705 
L 150.221589 548.803705 
L 156.268105 548.803705 
L 179.673972 548.803705 
L 203.469938 548.803705 
L 215.562969 548.803705 
L 250.671771 548.803705 
L 251.451967 548.803705 
L 286.950866 548.803705 
L 297.873604 548.803705 
L 322.449765 530.508442 
L 345.075437 441.258229 
L 358.338762 381.277143 
L 394.227759 272.697813 
L 429.336561 186.322361 
L 464.83546 146.095616 
L 500.724458 125.193204 
L 536.613455 99.404121 
L 571.722256 91.712933 
L 607.221156 86.652772 
L 643.110153 82.185554 
L 678.99915 79.470978 
L 714.107951 77.183724 
L 725.810885 76.776474 
L 737.513819 76.366422 
L 743.560335 76.055915 
L 749.606851 75.814031 
L 785.495848 74.574807 
L 821.384845 72.943361 
L 833.087779 72.326984 
L 856.883744 71.130401 
L 868.586678 68.449957 
L 892.382644 67.599032 
L 904.085578 65.727893 
L 928.271641 62.255416 
L 939.974575 62.135238 
L 951.677509 62.030292 
L 957.919073 61.77394 
L 964.160638 61.031068 
L 999.26944 56.511733 
L 1034.768339 56.072795 
L 1070.657336 56.142946 
L 1082.36027 56.593652 
L 1094.063204 57.014708 
L 1100.304768 57.185474 
L 1106.546333 57.060201 
" clip-path="url(#p493ebc6ecf)" style="fill: none; stroke-dasharray: 7.4,3.2; stroke-dashoffset: 0; stroke: #808080; stroke-width: 2"/>
   </g>
   <g id="line2d_19">
    <path d="M 62.644634 548.803705 
L 63.814927 548.803705 
L 67.325807 548.803705 
L 77.858448 548.803705 
L 89.561382 548.803705 
L 101.264315 548.803705 
L 109.066271 548.803705 
L 144.175073 548.803705 
L 150.221589 548.803705 
L 156.268105 548.803705 
L 179.673972 548.803705 
L 203.469938 548.803705 
L 215.562969 548.803705 
L 250.671771 548.803705 
L 251.451967 548.803705 
L 286.950866 548.803705 
L 297.873604 548.803705 
L 322.449765 548.391026 
L 345.075437 547.531355 
L 358.338762 540.675849 
L 394.227759 466.525289 
L 429.336561 406.447836 
L 464.83546 366.99839 
L 500.724458 341.661758 
L 536.613455 328.265388 
L 571.722256 316.928792 
L 607.221156 303.294066 
L 643.110153 289.202343 
L 678.99915 277.496043 
L 714.107951 268.687388 
L 725.810885 266.506481 
L 737.513819 264.510935 
L 743.560335 263.507049 
L 749.606851 262.520178 
L 785.495848 257.236294 
L 821.384845 252.27545 
L 833.087779 250.477951 
L 856.883744 246.644609 
L 868.586678 244.581765 
L 892.382644 239.865046 
L 904.085578 237.191583 
L 928.271641 231.638636 
L 939.974575 229.042659 
L 951.677509 226.629215 
L 957.919073 225.736083 
L 964.160638 225.61728 
L 999.26944 217.800488 
L 1034.768339 210.777437 
L 1070.657336 207.47002 
L 1082.36027 206.44624 
L 1094.063204 205.417289 
L 1100.304768 204.876387 
L 1106.546333 204.325346 
" clip-path="url(#p493ebc6ecf)" style="fill: none; stroke-dasharray: 2,3.3; stroke-dashoffset: 0; stroke: #808080; stroke-width: 2"/>
   </g>
   <g id="patch_3">
    <path d="M 103.995 573.44025 
L 103.995 31.43625 
" style="fill: none; stroke: #ffffff; stroke-linejoin: miter; stroke-linecap: square"/>
   </g>
   <g id="patch_4">
    <path d="M 1112.787898 573.44025 
L 1112.787898 31.43625 
" style="fill: none; stroke: #ffffff; stroke-linejoin: miter; stroke-linecap: square"/>
   </g>
   <g id="patch_5">
    <path d="M 103.995 573.44025 
L 1112.787898 573.44025 
" style="fill: none; stroke: #ffffff; stroke-linejoin: miter; stroke-linecap: square"/>
   </g>
   <g id="patch_6">
    <path d="M 103.995 31.43625 
L 1112.787898 31.43625 
" style="fill: none; stroke: #ffffff; stroke-linejoin: miter; stroke-linecap: square"/>
   </g>
   <g id="text_16">
    <!-- WWPR:A3 -->
    <g style="fill: #262626" transform="translate(541.450199 25.43625) scale(0.24 -0.24)">
     <use xlink:href="#DejaVuSans-Bold-57"/>
     <use xlink:href="#DejaVuSans-Bold-57" transform="translate(110.302734 0)"/>
     <use xlink:href="#DejaVuSans-Bold-50" transform="translate(220.605469 0)"/>
     <use xlink:href="#DejaVuSans-Bold-52" transform="translate(293.896484 0)"/>
     <use xlink:href="#DejaVuSans-Bold-3a" transform="translate(370.898438 0)"/>
     <use xlink:href="#DejaVuSans-Bold-41" transform="translate(410.888672 0)"/>
     <use xlink:href="#DejaVuSans-Bold-33" transform="translate(488.28125 0)"/>
    </g>
   </g>
   <g id="legend_1">
    <g id="patch_7">
     <path d="M 870.22071 562.44025 
L 1097.387898 562.44025 
Q 1101.787898 562.44025 1101.787898 558.04025 
L 1101.787898 398.780875 
Q 1101.787898 394.380875 1097.387898 394.380875 
L 870.22071 394.380875 
Q 865.82071 394.380875 865.82071 398.780875 
L 865.82071 558.04025 
Q 865.82071 562.44025 870.22071 562.44025 
z
" style="fill: #eaeaf2; opacity: 0.8; stroke: #cccccc; stroke-width: 0.8; stroke-linejoin: miter"/>
    </g>
    <g id="line2d_20">
     <path d="M 874.62071 412.197437 
L 896.62071 412.197437 
L 918.62071 412.197437 
" style="fill: none; stroke: #000000; stroke-width: 4; stroke-linecap: round"/>
    </g>
    <g id="text_17">
     <!-- Mean -->
     <g style="fill: #262626" transform="translate(936.22071 419.897437) scale(0.22 -0.22)">
      <defs>
       <path id="DejaVuSans-4d" d="M 628 4666 
L 1569 4666 
L 2759 1491 
L 3956 4666 
L 4897 4666 
L 4897 0 
L 4281 0 
L 4281 4097 
L 3078 897 
L 2444 897 
L 1241 4097 
L 1241 0 
L 628 0 
L 628 4666 
z
" transform="scale(0.015625)"/>
       <path id="DejaVuSans-65" d="M 3597 1894 
L 3597 1613 
L 953 1613 
Q 991 1019 1311 708 
Q 1631 397 2203 397 
Q 2534 397 2845 478 
Q 3156 559 3463 722 
L 3463 178 
Q 3153 47 2828 -22 
Q 2503 -91 2169 -91 
Q 1331 -91 842 396 
Q 353 884 353 1716 
Q 353 2575 817 3079 
Q 1281 3584 2069 3584 
Q 2775 3584 3186 3129 
Q 3597 2675 3597 1894 
z
M 3022 2063 
Q 3016 2534 2758 2815 
Q 2500 3097 2075 3097 
Q 1594 3097 1305 2825 
Q 1016 2553 972 2059 
L 3022 2063 
z
" transform="scale(0.015625)"/>
       <path id="DejaVuSans-61" d="M 2194 1759 
Q 1497 1759 1228 1600 
Q 959 1441 959 1056 
Q 959 750 1161 570 
Q 1363 391 1709 391 
Q 2188 391 2477 730 
Q 2766 1069 2766 1631 
L 2766 1759 
L 2194 1759 
z
M 3341 1997 
L 3341 0 
L 2766 0 
L 2766 531 
Q 2569 213 2275 61 
Q 1981 -91 1556 -91 
Q 1019 -91 701 211 
Q 384 513 384 1019 
Q 384 1609 779 1909 
Q 1175 2209 1959 2209 
L 2766 2209 
L 2766 2266 
Q 2766 2663 2505 2880 
Q 2244 3097 1772 3097 
Q 1472 3097 1187 3025 
Q 903 2953 641 2809 
L 641 3341 
Q 956 3463 1253 3523 
Q 1550 3584 1831 3584 
Q 2591 3584 2966 3190 
Q 3341 2797 3341 1997 
z
" transform="scale(0.015625)"/>
       <path id="DejaVuSans-6e" d="M 3513 2113 
L 3513 0 
L 2938 0 
L 2938 2094 
Q 2938 2591 2744 2837 
Q 2550 3084 2163 3084 
Q 1697 3084 1428 2787 
Q 1159 2491 1159 1978 
L 1159 0 
L 581 0 
L 581 3500 
L 1159 3500 
L 1159 2956 
Q 1366 3272 1645 3428 
Q 1925 3584 2291 3584 
Q 2894 3584 3203 3211 
Q 3513 2838 3513 2113 
z
" transform="scale(0.015625)"/>
      </defs>
      <use xlink:href="#DejaVuSans-4d"/>
      <use xlink:href="#DejaVuSans-65" transform="translate(86.279297 0)"/>
      <use xlink:href="#DejaVuSans-61" transform="translate(147.802734 0)"/>
      <use xlink:href="#DejaVuSans-6e" transform="translate(209.082031 0)"/>
     </g>
    </g>
    <g id="line2d_21">
     <path d="M 874.62071 444.489312 
L 896.62071 444.489312 
L 918.62071 444.489312 
" style="fill: none; stroke-dasharray: 7.4,3.2; stroke-dashoffset: 0; stroke: #000000; stroke-width: 2"/>
    </g>
    <g id="text_18">
     <!-- P10 Percentile -->
     <g style="fill: #262626" transform="translate(936.22071 452.189312) scale(0.22 -0.22)">
      <defs>
       <path id="DejaVuSans-50" d="M 1259 4147 
L 1259 2394 
L 2053 2394 
Q 2494 2394 2734 2622 
Q 2975 2850 2975 3272 
Q 2975 3691 2734 3919 
Q 2494 4147 2053 4147 
L 1259 4147 
z
M 628 4666 
L 2053 4666 
Q 2838 4666 3239 4311 
Q 3641 3956 3641 3272 
Q 3641 2581 3239 2228 
Q 2838 1875 2053 1875 
L 1259 1875 
L 1259 0 
L 628 0 
L 628 4666 
z
" transform="scale(0.015625)"/>
       <path id="DejaVuSans-20" transform="scale(0.015625)"/>
       <path id="DejaVuSans-72" d="M 2631 2963 
Q 2534 3019 2420 3045 
Q 2306 3072 2169 3072 
Q 1681 3072 1420 2755 
Q 1159 2438 1159 1844 
L 1159 0 
L 581 0 
L 581 3500 
L 1159 3500 
L 1159 2956 
Q 1341 3275 1631 3429 
Q 1922 3584 2338 3584 
Q 2397 3584 2469 3576 
Q 2541 3569 2628 3553 
L 2631 2963 
z
" transform="scale(0.015625)"/>
       <path id="DejaVuSans-63" d="M 3122 3366 
L 3122 2828 
Q 2878 2963 2633 3030 
Q 2388 3097 2138 3097 
Q 1578 3097 1268 2742 
Q 959 2388 959 1747 
Q 959 1106 1268 751 
Q 1578 397 2138 397 
Q 2388 397 2633 464 
Q 2878 531 3122 666 
L 3122 134 
Q 2881 22 2623 -34 
Q 2366 -91 2075 -91 
Q 1284 -91 818 406 
Q 353 903 353 1747 
Q 353 2603 823 3093 
Q 1294 3584 2113 3584 
Q 2378 3584 2631 3529 
Q 2884 3475 3122 3366 
z
" transform="scale(0.015625)"/>
       <path id="DejaVuSans-74" d="M 1172 4494 
L 1172 3500 
L 2356 3500 
L 2356 3053 
L 1172 3053 
L 1172 1153 
Q 1172 725 1289 603 
Q 1406 481 1766 481 
L 2356 481 
L 2356 0 
L 1766 0 
Q 1100 0 847 248 
Q 594 497 594 1153 
L 594 3053 
L 172 3053 
L 172 3500 
L 594 3500 
L 594 4494 
L 1172 4494 
z
" transform="scale(0.015625)"/>
       <path id="DejaVuSans-69" d="M 603 3500 
L 1178 3500 
L 1178 0 
L 603 0 
L 603 3500 
z
M 603 4863 
L 1178 4863 
L 1178 4134 
L 603 4134 
L 603 4863 
z
" transform="scale(0.015625)"/>
       <path id="DejaVuSans-6c" d="M 603 4863 
L 1178 4863 
L 1178 0 
L 603 0 
L 603 4863 
z
" transform="scale(0.015625)"/>
      </defs>
      <use xlink:href="#DejaVuSans-50"/>
      <use xlink:href="#DejaVuSans-31" transform="translate(60.302734 0)"/>
      <use xlink:href="#DejaVuSans-30" transform="translate(123.925781 0)"/>
      <use xlink:href="#DejaVuSans-20" transform="translate(187.548828 0)"/>
      <use xlink:href="#DejaVuSans-50" transform="translate(219.335938 0)"/>
      <use xlink:href="#DejaVuSans-65" transform="translate(276.013672 0)"/>
      <use xlink:href="#DejaVuSans-72" transform="translate(337.537109 0)"/>
      <use xlink:href="#DejaVuSans-63" transform="translate(376.400391 0)"/>
      <use xlink:href="#DejaVuSans-65" transform="translate(431.380859 0)"/>
      <use xlink:href="#DejaVuSans-6e" transform="translate(492.904297 0)"/>
      <use xlink:href="#DejaVuSans-74" transform="translate(556.283203 0)"/>
      <use xlink:href="#DejaVuSans-69" transform="translate(595.492188 0)"/>
      <use xlink:href="#DejaVuSans-6c" transform="translate(623.275391 0)"/>
      <use xlink:href="#DejaVuSans-65" transform="translate(651.058594 0)"/>
     </g>
    </g>
    <g id="line2d_22">
     <path d="M 874.62071 476.781187 
L 896.62071 476.781187 
L 918.62071 476.781187 
" style="fill: none; stroke-dasharray: 2,3.3; stroke-dashoffset: 0; stroke: #000000; stroke-width: 2"/>
    </g>
    <g id="text_19">
     <!-- P90 Percentile -->
     <g style="fill: #262626" transform="translate(936.22071 484.481187) scale(0.22 -0.22)">
      <use xlink:href="#DejaVuSans-50"/>
      <use xlink:href="#DejaVuSans-39" transform="translate(60.302734 0)"/>
      <use xlink:href="#DejaVuSans-30" transform="translate(123.925781 0)"/>
      <use xlink:href="#DejaVuSans-20" transform="translate(187.548828 0)"/>
      <use xlink:href="#DejaVuSans-50" transform="translate(219.335938 0)"/>
      <use xlink:href="#DejaVuSans-65" transform="translate(276.013672 0)"/>
      <use xlink:href="#DejaVuSans-72" transform="translate(337.537109 0)"/>
      <use xlink:href="#DejaVuSans-63" transform="translate(376.400391 0)"/>
      <use xlink:href="#DejaVuSans-65" transform="translate(431.380859 0)"/>
      <use xlink:href="#DejaVuSans-6e" transform="translate(492.904297 0)"/>
      <use xlink:href="#DejaVuSans-74" transform="translate(556.283203 0)"/>
      <use xlink:href="#DejaVuSans-69" transform="translate(595.492188 0)"/>
      <use xlink:href="#DejaVuSans-6c" transform="translate(623.275391 0)"/>
      <use xlink:href="#DejaVuSans-65" transform="translate(651.058594 0)"/>
     </g>
    </g>
    <g id="patch_8">
     <path d="M 874.62071 516.773062 
L 918.62071 516.773062 
L 918.62071 501.373062 
L 874.62071 501.373062 
z
" style="fill: #58508d; fill-opacity: 0.7; stroke: #58508d; stroke-opacity: 0.7; stroke-width: 0.8; stroke-linejoin: miter"/>
    </g>
    <g id="text_20">
     <!-- Batch 0 -->
     <g style="fill: #262626" transform="translate(936.22071 516.773062) scale(0.22 -0.22)">
      <defs>
       <path id="DejaVuSans-42" d="M 1259 2228 
L 1259 519 
L 2272 519 
Q 2781 519 3026 730 
Q 3272 941 3272 1375 
Q 3272 1813 3026 2020 
Q 2781 2228 2272 2228 
L 1259 2228 
z
M 1259 4147 
L 1259 2741 
L 2194 2741 
Q 2656 2741 2882 2914 
Q 3109 3088 3109 3444 
Q 3109 3797 2882 3972 
Q 2656 4147 2194 4147 
L 1259 4147 
z
M 628 4666 
L 2241 4666 
Q 2963 4666 3353 4366 
Q 3744 4066 3744 3513 
Q 3744 3084 3544 2831 
Q 3344 2578 2956 2516 
Q 3422 2416 3680 2098 
Q 3938 1781 3938 1306 
Q 3938 681 3513 340 
Q 3088 0 2303 0 
L 628 0 
L 628 4666 
z
" transform="scale(0.015625)"/>
       <path id="DejaVuSans-68" d="M 3513 2113 
L 3513 0 
L 2938 0 
L 2938 2094 
Q 2938 2591 2744 2837 
Q 2550 3084 2163 3084 
Q 1697 3084 1428 2787 
Q 1159 2491 1159 1978 
L 1159 0 
L 581 0 
L 581 4863 
L 1159 4863 
L 1159 2956 
Q 1366 3272 1645 3428 
Q 1925 3584 2291 3584 
Q 2894 3584 3203 3211 
Q 3513 2838 3513 2113 
z
" transform="scale(0.015625)"/>
      </defs>
      <use xlink:href="#DejaVuSans-42"/>
      <use xlink:href="#DejaVuSans-61" transform="translate(68.603516 0)"/>
      <use xlink:href="#DejaVuSans-74" transform="translate(129.882812 0)"/>
      <use xlink:href="#DejaVuSans-63" transform="translate(169.091797 0)"/>
      <use xlink:href="#DejaVuSans-68" transform="translate(224.072266 0)"/>
      <use xlink:href="#DejaVuSans-20" transform="translate(287.451172 0)"/>
      <use xlink:href="#DejaVuSans-30" transform="translate(319.238281 0)"/>
     </g>
    </g>
    <g id="patch_9">
     <path d="M 874.62071 549.064938 
L 918.62071 549.064938 
L 918.62071 533.664938 
L 874.62071 533.664938 
z
" style="fill: #ffa600; fill-opacity: 0.7; stroke: #ffa600; stroke-opacity: 0.7; stroke-width: 0.8; stroke-linejoin: miter"/>
    </g>
    <g id="text_21">
     <!-- Batch 5 -->
     <g style="fill: #262626" transform="translate(936.22071 549.064938) scale(0.22 -0.22)">
      <use xlink:href="#DejaVuSans-42"/>
      <use xlink:href="#DejaVuSans-61" transform="translate(68.603516 0)"/>
      <use xlink:href="#DejaVuSans-74" transform="translate(129.882812 0)"/>
      <use xlink:href="#DejaVuSans-63" transform="translate(169.091797 0)"/>
      <use xlink:href="#DejaVuSans-68" transform="translate(224.072266 0)"/>
      <use xlink:href="#DejaVuSans-20" transform="translate(287.451172 0)"/>
      <use xlink:href="#DejaVuSans-35" transform="translate(319.238281 0)"/>
     </g>
    </g>
   </g>
  </g>
 </g>
 <defs>
  <clipPath id="p493ebc6ecf">
   <rect x="103.995" y="31.43625" width="1008.792898" height="542.004"/>
  </clipPath>
 </defs>
</svg>
