<?xml version="1.0" encoding="utf-8" standalone="no"?>
<!DOCTYPE svg PUBLIC "-//W3C//DTD SVG 1.1//EN"
  "http://www.w3.org/Graphics/SVG/1.1/DTD/svg11.dtd">
<svg xmlns:xlink="http://www.w3.org/1999/xlink" width="1143.904895pt" height="641.330875pt" viewBox="0 0 1143.904895 641.330875" xmlns="http://www.w3.org/2000/svg" version="1.1">
 <metadata>
  <rdf:RDF xmlns:dc="http://purl.org/dc/elements/1.1/" xmlns:cc="http://creativecommons.org/ns#" xmlns:rdf="http://www.w3.org/1999/02/22-rdf-syntax-ns#">
   <cc:Work>
    <dc:type rdf:resource="http://purl.org/dc/dcmitype/StillImage"/>
    <dc:date>2025-12-17T09:27:31.502626</dc:date>
    <dc:format>image/svg+xml</dc:format>
    <dc:creator>
     <cc:Agent>
      <dc:title>Matplotlib v3.10.7, https://matplotlib.org/</dc:title>
     </cc:Agent>
    </dc:creator>
   </cc:Work>
  </rdf:RDF>
 </metadata>
 <defs>
  <style type="text/css">*{stroke-linejoin: round; stroke-linecap: butt}</style>
 </defs>
 <g id="figure_1">
  <g id="patch_1">
   <path d="M 0 641.330875 
L 1143.904895 641.330875 
L 1143.904895 0 
L 0 0 
z
" style="fill: #ffffff"/>
  </g>
  <g id="axes_1">
   <g id="patch_2">
    <path d="M 80.895 573.44025 
L 1112.547898 573.44025 
L 1112.547898 31.43625 
L 80.895 31.43625 
z
" style="fill: #eaeaf2"/>
   </g>
   <g id="matplotlib.axis_1">
    <g id="xtick_1">
     <g id="line2d_1">
      <path d="M 86.08119 573.44025 
L 86.08119 31.43625 
" clip-path="url(#p89a9914b7a)" style="fill: none; stroke: #ffffff; stroke-width: 0.8; stroke-linecap: round"/>
     </g>
     <g id="text_1">
      <!-- 2023 -->
      <g style="fill: #262626" transform="translate(55.54119 599.9765) scale(0.24 -0.24)">
       <defs>
        <path id="DejaVuSans-32" d="M 1228 531 
L 3431 531 
L 3431 0 
L 469 0 
L 469 531 
Q 828 903 1448 1529 
Q 2069 2156 2228 2338 
Q 2531 2678 2651 2914 
Q 2772 3150 2772 3378 
Q 2772 3750 2511 3984 
Q 2250 4219 1831 4219 
Q 1534 4219 1204 4116 
Q 875 4013 500 3803 
L 500 4441 
Q 881 4594 1212 4672 
Q 1544 4750 1819 4750 
Q 2544 4750 2975 4387 
Q 3406 4025 3406 3419 
Q 3406 3131 3298 2873 
Q 3191 2616 2906 2266 
Q 2828 2175 2409 1742 
Q 1991 1309 1228 531 
z
" transform="scale(0.015625)"/>
        <path id="DejaVuSans-30" d="M 2034 4250 
Q 1547 4250 1301 3770 
Q 1056 3291 1056 2328 
Q 1056 1369 1301 889 
Q 1547 409 2034 409 
Q 2525 409 2770 889 
Q 3016 1369 3016 2328 
Q 3016 3291 2770 3770 
Q 2525 4250 2034 4250 
z
M 2034 4750 
Q 2819 4750 3233 4129 
Q 3647 3509 3647 2328 
Q 3647 1150 3233 529 
Q 2819 -91 2034 -91 
Q 1250 -91 836 529 
Q 422 1150 422 2328 
Q 422 3509 836 4129 
Q 1250 4750 2034 4750 
z
" transform="scale(0.015625)"/>
        <path id="DejaVuSans-33" d="M 2597 2516 
Q 3050 2419 3304 2112 
Q 3559 1806 3559 1356 
Q 3559 666 3084 287 
Q 2609 -91 1734 -91 
Q 1441 -91 1130 -33 
Q 819 25 488 141 
L 488 750 
Q 750 597 1062 519 
Q 1375 441 1716 441 
Q 2309 441 2620 675 
Q 2931 909 2931 1356 
Q 2931 1769 2642 2001 
Q 2353 2234 1838 2234 
L 1294 2234 
L 1294 2753 
L 1863 2753 
Q 2328 2753 2575 2939 
Q 2822 3125 2822 3475 
Q 2822 3834 2567 4026 
Q 2313 4219 1838 4219 
Q 1578 4219 1281 4162 
Q 984 4106 628 3988 
L 628 4550 
Q 988 4650 1302 4700 
Q 1616 4750 1894 4750 
Q 2613 4750 3031 4423 
Q 3450 4097 3450 3541 
Q 3450 3153 3228 2886 
Q 3006 2619 2597 2516 
z
" transform="scale(0.015625)"/>
       </defs>
       <use xlink:href="#DejaVuSans-32"/>
       <use xlink:href="#DejaVuSans-30" transform="translate(63.623047 0)"/>
       <use xlink:href="#DejaVuSans-32" transform="translate(127.246094 0)"/>
       <use xlink:href="#DejaVuSans-33" transform="translate(190.869141 0)"/>
      </g>
     </g>
    </g>
    <g id="xtick_2">
     <g id="line2d_2">
      <path d="M 231.693451 573.44025 
L 231.693451 31.43625 
" clip-path="url(#p89a9914b7a)" style="fill: none; stroke: #ffffff; stroke-width: 0.8; stroke-linecap: round"/>
     </g>
     <g id="text_2">
      <!-- 2024 -->
      <g style="fill: #262626" transform="translate(201.153451 599.9765) scale(0.24 -0.24)">
       <defs>
        <path id="DejaVuSans-34" d="M 2419 4116 
L 825 1625 
L 2419 1625 
L 2419 4116 
z
M 2253 4666 
L 3047 4666 
L 3047 1625 
L 3713 1625 
L 3713 1100 
L 3047 1100 
L 3047 0 
L 2419 0 
L 2419 1100 
L 313 1100 
L 313 1709 
L 2253 4666 
z
" transform="scale(0.015625)"/>
       </defs>
       <use xlink:href="#DejaVuSans-32"/>
       <use xlink:href="#DejaVuSans-30" transform="translate(63.623047 0)"/>
       <use xlink:href="#DejaVuSans-32" transform="translate(127.246094 0)"/>
       <use xlink:href="#DejaVuSans-34" transform="translate(190.869141 0)"/>
      </g>
     </g>
    </g>
    <g id="xtick_3">
     <g id="line2d_3">
      <path d="M 377.70465 573.44025 
L 377.70465 31.43625 
" clip-path="url(#p89a9914b7a)" style="fill: none; stroke: #ffffff; stroke-width: 0.8; stroke-linecap: round"/>
     </g>
     <g id="text_3">
      <!-- 2025 -->
      <g style="fill: #262626" transform="translate(347.16465 599.9765) scale(0.24 -0.24)">
       <defs>
        <path id="DejaVuSans-35" d="M 691 4666 
L 3169 4666 
L 3169 4134 
L 1269 4134 
L 1269 2991 
Q 1406 3038 1543 3061 
Q 1681 3084 1819 3084 
Q 2600 3084 3056 2656 
Q 3513 2228 3513 1497 
Q 3513 744 3044 326 
Q 2575 -91 1722 -91 
Q 1428 -91 1123 -41 
Q 819 9 494 109 
L 494 744 
Q 775 591 1075 516 
Q 1375 441 1709 441 
Q 2250 441 2565 725 
Q 2881 1009 2881 1497 
Q 2881 1984 2565 2268 
Q 2250 2553 1709 2553 
Q 1456 2553 1204 2497 
Q 953 2441 691 2322 
L 691 4666 
z
" transform="scale(0.015625)"/>
       </defs>
       <use xlink:href="#DejaVuSans-32"/>
       <use xlink:href="#DejaVuSans-30" transform="translate(63.623047 0)"/>
       <use xlink:href="#DejaVuSans-32" transform="translate(127.246094 0)"/>
       <use xlink:href="#DejaVuSans-35" transform="translate(190.869141 0)"/>
      </g>
     </g>
    </g>
    <g id="xtick_4">
     <g id="line2d_4">
      <path d="M 523.316912 573.44025 
L 523.316912 31.43625 
" clip-path="url(#p89a9914b7a)" style="fill: none; stroke: #ffffff; stroke-width: 0.8; stroke-linecap: round"/>
     </g>
     <g id="text_4">
      <!-- 2026 -->
      <g style="fill: #262626" transform="translate(492.776912 599.9765) scale(0.24 -0.24)">
       <defs>
        <path id="DejaVuSans-36" d="M 2113 2584 
Q 1688 2584 1439 2293 
Q 1191 2003 1191 1497 
Q 1191 994 1439 701 
Q 1688 409 2113 409 
Q 2538 409 2786 701 
Q 3034 994 3034 1497 
Q 3034 2003 2786 2293 
Q 2538 2584 2113 2584 
z
M 3366 4563 
L 3366 3988 
Q 3128 4100 2886 4159 
Q 2644 4219 2406 4219 
Q 1781 4219 1451 3797 
Q 1122 3375 1075 2522 
Q 1259 2794 1537 2939 
Q 1816 3084 2150 3084 
Q 2853 3084 3261 2657 
Q 3669 2231 3669 1497 
Q 3669 778 3244 343 
Q 2819 -91 2113 -91 
Q 1303 -91 875 529 
Q 447 1150 447 2328 
Q 447 3434 972 4092 
Q 1497 4750 2381 4750 
Q 2619 4750 2861 4703 
Q 3103 4656 3366 4563 
z
" transform="scale(0.015625)"/>
       </defs>
       <use xlink:href="#DejaVuSans-32"/>
       <use xlink:href="#DejaVuSans-30" transform="translate(63.623047 0)"/>
       <use xlink:href="#DejaVuSans-32" transform="translate(127.246094 0)"/>
       <use xlink:href="#DejaVuSans-36" transform="translate(190.869141 0)"/>
      </g>
     </g>
    </g>
    <g id="xtick_5">
     <g id="line2d_5">
      <path d="M 668.929173 573.44025 
L 668.929173 31.43625 
" clip-path="url(#p89a9914b7a)" style="fill: none; stroke: #ffffff; stroke-width: 0.8; stroke-linecap: round"/>
     </g>
     <g id="text_5">
      <!-- 2027 -->
      <g style="fill: #262626" transform="translate(638.389173 599.9765) scale(0.24 -0.24)">
       <defs>
        <path id="DejaVuSans-37" d="M 525 4666 
L 3525 4666 
L 3525 4397 
L 1831 0 
L 1172 0 
L 2766 4134 
L 525 4134 
L 525 4666 
z
" transform="scale(0.015625)"/>
       </defs>
       <use xlink:href="#DejaVuSans-32"/>
       <use xlink:href="#DejaVuSans-30" transform="translate(63.623047 0)"/>
       <use xlink:href="#DejaVuSans-32" transform="translate(127.246094 0)"/>
       <use xlink:href="#DejaVuSans-37" transform="translate(190.869141 0)"/>
      </g>
     </g>
    </g>
    <g id="xtick_6">
     <g id="line2d_6">
      <path d="M 814.541434 573.44025 
L 814.541434 31.43625 
" clip-path="url(#p89a9914b7a)" style="fill: none; stroke: #ffffff; stroke-width: 0.8; stroke-linecap: round"/>
     </g>
     <g id="text_6">
      <!-- 2028 -->
      <g style="fill: #262626" transform="translate(784.001434 599.9765) scale(0.24 -0.24)">
       <defs>
        <path id="DejaVuSans-38" d="M 2034 2216 
Q 1584 2216 1326 1975 
Q 1069 1734 1069 1313 
Q 1069 891 1326 650 
Q 1584 409 2034 409 
Q 2484 409 2743 651 
Q 3003 894 3003 1313 
Q 3003 1734 2745 1975 
Q 2488 2216 2034 2216 
z
M 1403 2484 
Q 997 2584 770 2862 
Q 544 3141 544 3541 
Q 544 4100 942 4425 
Q 1341 4750 2034 4750 
Q 2731 4750 3128 4425 
Q 3525 4100 3525 3541 
Q 3525 3141 3298 2862 
Q 3072 2584 2669 2484 
Q 3125 2378 3379 2068 
Q 3634 1759 3634 1313 
Q 3634 634 3220 271 
Q 2806 -91 2034 -91 
Q 1263 -91 848 271 
Q 434 634 434 1313 
Q 434 1759 690 2068 
Q 947 2378 1403 2484 
z
M 1172 3481 
Q 1172 3119 1398 2916 
Q 1625 2713 2034 2713 
Q 2441 2713 2670 2916 
Q 2900 3119 2900 3481 
Q 2900 3844 2670 4047 
Q 2441 4250 2034 4250 
Q 1625 4250 1398 4047 
Q 1172 3844 1172 3481 
z
" transform="scale(0.015625)"/>
       </defs>
       <use xlink:href="#DejaVuSans-32"/>
       <use xlink:href="#DejaVuSans-30" transform="translate(63.623047 0)"/>
       <use xlink:href="#DejaVuSans-32" transform="translate(127.246094 0)"/>
       <use xlink:href="#DejaVuSans-38" transform="translate(190.869141 0)"/>
      </g>
     </g>
    </g>
    <g id="xtick_7">
     <g id="line2d_7">
      <path d="M 960.552633 573.44025 
L 960.552633 31.43625 
" clip-path="url(#p89a9914b7a)" style="fill: none; stroke: #ffffff; stroke-width: 0.8; stroke-linecap: round"/>
     </g>
     <g id="text_7">
      <!-- 2029 -->
      <g style="fill: #262626" transform="translate(930.012633 599.9765) scale(0.24 -0.24)">
       <defs>
        <path id="DejaVuSans-39" d="M 703 97 
L 703 672 
Q 941 559 1184 500 
Q 1428 441 1663 441 
Q 2288 441 2617 861 
Q 2947 1281 2994 2138 
Q 2813 1869 2534 1725 
Q 2256 1581 1919 1581 
Q 1219 1581 811 2004 
Q 403 2428 403 3163 
Q 403 3881 828 4315 
Q 1253 4750 1959 4750 
Q 2769 4750 3195 4129 
Q 3622 3509 3622 2328 
Q 3622 1225 3098 567 
Q 2575 -91 1691 -91 
Q 1453 -91 1209 -44 
Q 966 3 703 97 
z
M 1959 2075 
Q 2384 2075 2632 2365 
Q 2881 2656 2881 3163 
Q 2881 3666 2632 3958 
Q 2384 4250 1959 4250 
Q 1534 4250 1286 3958 
Q 1038 3666 1038 3163 
Q 1038 2656 1286 2365 
Q 1534 2075 1959 2075 
z
" transform="scale(0.015625)"/>
       </defs>
       <use xlink:href="#DejaVuSans-32"/>
       <use xlink:href="#DejaVuSans-30" transform="translate(63.623047 0)"/>
       <use xlink:href="#DejaVuSans-32" transform="translate(127.246094 0)"/>
       <use xlink:href="#DejaVuSans-39" transform="translate(190.869141 0)"/>
      </g>
     </g>
    </g>
    <g id="xtick_8">
     <g id="line2d_8">
      <path d="M 1106.164895 573.44025 
L 1106.164895 31.43625 
" clip-path="url(#p89a9914b7a)" style="fill: none; stroke: #ffffff; stroke-width: 0.8; stroke-linecap: round"/>
     </g>
     <g id="text_8">
      <!-- 2030 -->
      <g style="fill: #262626" transform="translate(1075.624895 599.9765) scale(0.24 -0.24)">
       <use xlink:href="#DejaVuSans-32"/>
       <use xlink:href="#DejaVuSans-30" transform="translate(63.623047 0)"/>
       <use xlink:href="#DejaVuSans-33" transform="translate(127.246094 0)"/>
       <use xlink:href="#DejaVuSans-30" transform="translate(190.869141 0)"/>
      </g>
     </g>
    </g>
    <g id="text_9">
     <!-- Date -->
     <g style="fill: #262626" transform="translate(562.125199 628.723687) scale(0.26 -0.26)">
      <defs>
       <path id="DejaVuSans-Bold-44" d="M 1791 3756 
L 1791 909 
L 2222 909 
Q 2959 909 3348 1275 
Q 3738 1641 3738 2338 
Q 3738 3031 3350 3393 
Q 2963 3756 2222 3756 
L 1791 3756 
z
M 588 4666 
L 1856 4666 
Q 2919 4666 3439 4514 
Q 3959 4363 4331 4000 
Q 4659 3684 4818 3271 
Q 4978 2859 4978 2338 
Q 4978 1809 4818 1395 
Q 4659 981 4331 666 
Q 3956 303 3431 151 
Q 2906 0 1856 0 
L 588 0 
L 588 4666 
z
" transform="scale(0.015625)"/>
       <path id="DejaVuSans-Bold-61" d="M 2106 1575 
Q 1756 1575 1579 1456 
Q 1403 1338 1403 1106 
Q 1403 894 1545 773 
Q 1688 653 1941 653 
Q 2256 653 2472 879 
Q 2688 1106 2688 1447 
L 2688 1575 
L 2106 1575 
z
M 3816 1997 
L 3816 0 
L 2688 0 
L 2688 519 
Q 2463 200 2181 54 
Q 1900 -91 1497 -91 
Q 953 -91 614 226 
Q 275 544 275 1050 
Q 275 1666 698 1953 
Q 1122 2241 2028 2241 
L 2688 2241 
L 2688 2328 
Q 2688 2594 2478 2717 
Q 2269 2841 1825 2841 
Q 1466 2841 1156 2769 
Q 847 2697 581 2553 
L 581 3406 
Q 941 3494 1303 3539 
Q 1666 3584 2028 3584 
Q 2975 3584 3395 3211 
Q 3816 2838 3816 1997 
z
" transform="scale(0.015625)"/>
       <path id="DejaVuSans-Bold-74" d="M 1759 4494 
L 1759 3500 
L 2913 3500 
L 2913 2700 
L 1759 2700 
L 1759 1216 
Q 1759 972 1856 886 
Q 1953 800 2241 800 
L 2816 800 
L 2816 0 
L 1856 0 
Q 1194 0 917 276 
Q 641 553 641 1216 
L 641 2700 
L 84 2700 
L 84 3500 
L 641 3500 
L 641 4494 
L 1759 4494 
z
" transform="scale(0.015625)"/>
       <path id="DejaVuSans-Bold-65" d="M 4031 1759 
L 4031 1441 
L 1416 1441 
Q 1456 1047 1700 850 
Q 1944 653 2381 653 
Q 2734 653 3104 758 
Q 3475 863 3866 1075 
L 3866 213 
Q 3469 63 3072 -14 
Q 2675 -91 2278 -91 
Q 1328 -91 801 392 
Q 275 875 275 1747 
Q 275 2603 792 3093 
Q 1309 3584 2216 3584 
Q 3041 3584 3536 3087 
Q 4031 2591 4031 1759 
z
M 2881 2131 
Q 2881 2450 2695 2645 
Q 2509 2841 2209 2841 
Q 1884 2841 1681 2658 
Q 1478 2475 1428 2131 
L 2881 2131 
z
" transform="scale(0.015625)"/>
      </defs>
      <use xlink:href="#DejaVuSans-Bold-44"/>
      <use xlink:href="#DejaVuSans-Bold-61" transform="translate(83.007812 0)"/>
      <use xlink:href="#DejaVuSans-Bold-74" transform="translate(150.488281 0)"/>
      <use xlink:href="#DejaVuSans-Bold-65" transform="translate(198.291016 0)"/>
     </g>
    </g>
   </g>
   <g id="matplotlib.axis_2">
    <g id="ytick_1">
     <g id="line2d_9">
      <path d="M 80.895 548.803705 
L 1112.547898 548.803705 
" clip-path="url(#p89a9914b7a)" style="fill: none; stroke: #ffffff; stroke-width: 0.8; stroke-linecap: round"/>
     </g>
     <g id="text_10">
      <!-- 0.0 -->
      <g style="fill: #262626" transform="translate(34.4275 557.92183) scale(0.24 -0.24)">
       <defs>
        <path id="DejaVuSans-2e" d="M 684 794 
L 1344 794 
L 1344 0 
L 684 0 
L 684 794 
z
" transform="scale(0.015625)"/>
       </defs>
       <use xlink:href="#DejaVuSans-30"/>
       <use xlink:href="#DejaVuSans-2e" transform="translate(63.623047 0)"/>
       <use xlink:href="#DejaVuSans-30" transform="translate(95.410156 0)"/>
      </g>
     </g>
    </g>
    <g id="ytick_2">
     <g id="line2d_10">
      <path d="M 80.895 471.292342 
L 1112.547898 471.292342 
" clip-path="url(#p89a9914b7a)" style="fill: none; stroke: #ffffff; stroke-width: 0.8; stroke-linecap: round"/>
     </g>
     <g id="text_11">
      <!-- 0.2 -->
      <g style="fill: #262626" transform="translate(34.4275 480.410467) scale(0.24 -0.24)">
       <use xlink:href="#DejaVuSans-30"/>
       <use xlink:href="#DejaVuSans-2e" transform="translate(63.623047 0)"/>
       <use xlink:href="#DejaVuSans-32" transform="translate(95.410156 0)"/>
      </g>
     </g>
    </g>
    <g id="ytick_3">
     <g id="line2d_11">
      <path d="M 80.895 393.780979 
L 1112.547898 393.780979 
" clip-path="url(#p89a9914b7a)" style="fill: none; stroke: #ffffff; stroke-width: 0.8; stroke-linecap: round"/>
     </g>
     <g id="text_12">
      <!-- 0.4 -->
      <g style="fill: #262626" transform="translate(34.4275 402.899104) scale(0.24 -0.24)">
       <use xlink:href="#DejaVuSans-30"/>
       <use xlink:href="#DejaVuSans-2e" transform="translate(63.623047 0)"/>
       <use xlink:href="#DejaVuSans-34" transform="translate(95.410156 0)"/>
      </g>
     </g>
    </g>
    <g id="ytick_4">
     <g id="line2d_12">
      <path d="M 80.895 316.269616 
L 1112.547898 316.269616 
" clip-path="url(#p89a9914b7a)" style="fill: none; stroke: #ffffff; stroke-width: 0.8; stroke-linecap: round"/>
     </g>
     <g id="text_13">
      <!-- 0.6 -->
      <g style="fill: #262626" transform="translate(34.4275 325.387741) scale(0.24 -0.24)">
       <use xlink:href="#DejaVuSans-30"/>
       <use xlink:href="#DejaVuSans-2e" transform="translate(63.623047 0)"/>
       <use xlink:href="#DejaVuSans-36" transform="translate(95.410156 0)"/>
      </g>
     </g>
    </g>
    <g id="ytick_5">
     <g id="line2d_13">
      <path d="M 80.895 238.758253 
L 1112.547898 238.758253 
" clip-path="url(#p89a9914b7a)" style="fill: none; stroke: #ffffff; stroke-width: 0.8; stroke-linecap: round"/>
     </g>
     <g id="text_14">
      <!-- 0.8 -->
      <g style="fill: #262626" transform="translate(34.4275 247.876378) scale(0.24 -0.24)">
       <use xlink:href="#DejaVuSans-30"/>
       <use xlink:href="#DejaVuSans-2e" transform="translate(63.623047 0)"/>
       <use xlink:href="#DejaVuSans-38" transform="translate(95.410156 0)"/>
      </g>
     </g>
    </g>
    <g id="ytick_6">
     <g id="line2d_14">
      <path d="M 80.895 161.24689 
L 1112.547898 161.24689 
" clip-path="url(#p89a9914b7a)" style="fill: none; stroke: #ffffff; stroke-width: 0.8; stroke-linecap: round"/>
     </g>
     <g id="text_15">
      <!-- 1.0 -->
      <g style="fill: #262626" transform="translate(34.4275 170.365015) scale(0.24 -0.24)">
       <defs>
        <path id="DejaVuSans-31" d="M 794 531 
L 1825 531 
L 1825 4091 
L 703 3866 
L 703 4441 
L 1819 4666 
L 2450 4666 
L 2450 531 
L 3481 531 
L 3481 0 
L 794 0 
L 794 531 
z
" transform="scale(0.015625)"/>
       </defs>
       <use xlink:href="#DejaVuSans-31"/>
       <use xlink:href="#DejaVuSans-2e" transform="translate(63.623047 0)"/>
       <use xlink:href="#DejaVuSans-30" transform="translate(95.410156 0)"/>
      </g>
     </g>
    </g>
    <g id="ytick_7">
     <g id="line2d_15">
      <path d="M 80.895 83.735527 
L 1112.547898 83.735527 
" clip-path="url(#p89a9914b7a)" style="fill: none; stroke: #ffffff; stroke-width: 0.8; stroke-linecap: round"/>
     </g>
     <g id="text_16">
      <!-- 1.2 -->
      <g style="fill: #262626" transform="translate(34.4275 92.853652) scale(0.24 -0.24)">
       <use xlink:href="#DejaVuSans-31"/>
       <use xlink:href="#DejaVuSans-2e" transform="translate(63.623047 0)"/>
       <use xlink:href="#DejaVuSans-32" transform="translate(95.410156 0)"/>
      </g>
     </g>
    </g>
    <g id="text_17">
     <!-- FOPT [Sm³] -->
     <g style="fill: #262626" transform="translate(25.43625 379.367625) rotate(-90) scale(0.24 -0.24)">
      <defs>
       <path id="DejaVuSans-Bold-46" d="M 588 4666 
L 3834 4666 
L 3834 3756 
L 1791 3756 
L 1791 2888 
L 3713 2888 
L 3713 1978 
L 1791 1978 
L 1791 0 
L 588 0 
L 588 4666 
z
" transform="scale(0.015625)"/>
       <path id="DejaVuSans-Bold-4f" d="M 2719 3878 
Q 2169 3878 1866 3472 
Q 1563 3066 1563 2328 
Q 1563 1594 1866 1187 
Q 2169 781 2719 781 
Q 3272 781 3575 1187 
Q 3878 1594 3878 2328 
Q 3878 3066 3575 3472 
Q 3272 3878 2719 3878 
z
M 2719 4750 
Q 3844 4750 4481 4106 
Q 5119 3463 5119 2328 
Q 5119 1197 4481 553 
Q 3844 -91 2719 -91 
Q 1597 -91 958 553 
Q 319 1197 319 2328 
Q 319 3463 958 4106 
Q 1597 4750 2719 4750 
z
" transform="scale(0.015625)"/>
       <path id="DejaVuSans-Bold-50" d="M 588 4666 
L 2584 4666 
Q 3475 4666 3951 4270 
Q 4428 3875 4428 3144 
Q 4428 2409 3951 2014 
Q 3475 1619 2584 1619 
L 1791 1619 
L 1791 0 
L 588 0 
L 588 4666 
z
M 1791 3794 
L 1791 2491 
L 2456 2491 
Q 2806 2491 2997 2661 
Q 3188 2831 3188 3144 
Q 3188 3456 2997 3625 
Q 2806 3794 2456 3794 
L 1791 3794 
z
" transform="scale(0.015625)"/>
       <path id="DejaVuSans-Bold-54" d="M 31 4666 
L 4331 4666 
L 4331 3756 
L 2784 3756 
L 2784 0 
L 1581 0 
L 1581 3756 
L 31 3756 
L 31 4666 
z
" transform="scale(0.015625)"/>
       <path id="DejaVuSans-Bold-20" transform="scale(0.015625)"/>
       <path id="DejaVuSans-Bold-5b" d="M 550 4863 
L 2491 4863 
L 2491 4159 
L 1613 4159 
L 1613 -141 
L 2491 -141 
L 2491 -844 
L 550 -844 
L 550 4863 
z
" transform="scale(0.015625)"/>
       <path id="DejaVuSans-Bold-53" d="M 3834 4519 
L 3834 3531 
Q 3450 3703 3084 3790 
Q 2719 3878 2394 3878 
Q 1963 3878 1756 3759 
Q 1550 3641 1550 3391 
Q 1550 3203 1689 3098 
Q 1828 2994 2194 2919 
L 2706 2816 
Q 3484 2659 3812 2340 
Q 4141 2022 4141 1434 
Q 4141 663 3683 286 
Q 3225 -91 2284 -91 
Q 1841 -91 1394 -6 
Q 947 78 500 244 
L 500 1259 
Q 947 1022 1364 901 
Q 1781 781 2169 781 
Q 2563 781 2772 912 
Q 2981 1044 2981 1288 
Q 2981 1506 2839 1625 
Q 2697 1744 2272 1838 
L 1806 1941 
Q 1106 2091 782 2419 
Q 459 2747 459 3303 
Q 459 4000 909 4375 
Q 1359 4750 2203 4750 
Q 2588 4750 2994 4692 
Q 3400 4634 3834 4519 
z
" transform="scale(0.015625)"/>
       <path id="DejaVuSans-Bold-6d" d="M 3781 2919 
Q 3994 3244 4286 3414 
Q 4578 3584 4928 3584 
Q 5531 3584 5847 3212 
Q 6163 2841 6163 2131 
L 6163 0 
L 5038 0 
L 5038 1825 
Q 5041 1866 5042 1909 
Q 5044 1953 5044 2034 
Q 5044 2406 4934 2573 
Q 4825 2741 4581 2741 
Q 4263 2741 4089 2478 
Q 3916 2216 3909 1719 
L 3909 0 
L 2784 0 
L 2784 1825 
Q 2784 2406 2684 2573 
Q 2584 2741 2328 2741 
Q 2006 2741 1831 2477 
Q 1656 2213 1656 1722 
L 1656 0 
L 531 0 
L 531 3500 
L 1656 3500 
L 1656 2988 
Q 1863 3284 2130 3434 
Q 2397 3584 2719 3584 
Q 3081 3584 3359 3409 
Q 3638 3234 3781 2919 
z
" transform="scale(0.015625)"/>
       <path id="DejaVuSans-Bold-b3" d="M 1850 3500 
Q 2138 3444 2297 3272 
Q 2456 3100 2456 2847 
Q 2456 2444 2147 2242 
Q 1838 2041 1209 2041 
Q 956 2041 725 2077 
Q 494 2113 281 2181 
L 281 2725 
Q 488 2613 688 2555 
Q 888 2497 1075 2497 
Q 1372 2497 1534 2597 
Q 1697 2697 1697 2881 
Q 1697 3081 1530 3176 
Q 1363 3272 1006 3272 
L 775 3272 
L 775 3700 
L 1038 3700 
Q 1344 3700 1484 3773 
Q 1625 3847 1625 4006 
Q 1625 4147 1503 4217 
Q 1381 4288 1131 4288 
Q 969 4288 776 4247 
Q 584 4206 366 4122 
L 366 4641 
Q 569 4694 805 4722 
Q 1041 4750 1313 4750 
Q 1834 4750 2111 4575 
Q 2388 4400 2388 4072 
Q 2388 3856 2247 3706 
Q 2106 3556 1850 3500 
z
" transform="scale(0.015625)"/>
       <path id="DejaVuSans-Bold-5d" d="M 2375 -844 
L 434 -844 
L 434 -141 
L 1313 -141 
L 1313 4159 
L 434 4159 
L 434 4863 
L 2375 4863 
L 2375 -844 
z
" transform="scale(0.015625)"/>
      </defs>
      <use xlink:href="#DejaVuSans-Bold-46"/>
      <use xlink:href="#DejaVuSans-Bold-4f" transform="translate(68.310547 0)"/>
      <use xlink:href="#DejaVuSans-Bold-50" transform="translate(153.320312 0)"/>
      <use xlink:href="#DejaVuSans-Bold-54" transform="translate(226.611328 0)"/>
      <use xlink:href="#DejaVuSans-Bold-20" transform="translate(294.824219 0)"/>
      <use xlink:href="#DejaVuSans-Bold-5b" transform="translate(329.638672 0)"/>
      <use xlink:href="#DejaVuSans-Bold-53" transform="translate(375.341797 0)"/>
      <use xlink:href="#DejaVuSans-Bold-6d" transform="translate(447.363281 0)"/>
      <use xlink:href="#DejaVuSans-Bold-b3" transform="translate(551.5625 0)"/>
      <use xlink:href="#DejaVuSans-Bold-5d" transform="translate(595.361328 0)"/>
     </g>
    </g>
    <g id="text_18">
     <!-- 1e7 -->
     <g style="fill: #262626" transform="translate(80.895 28.43625) scale(0.24 -0.24)">
      <defs>
       <path id="DejaVuSans-65" d="M 3597 1894 
L 3597 1613 
L 953 1613 
Q 991 1019 1311 708 
Q 1631 397 2203 397 
Q 2534 397 2845 478 
Q 3156 559 3463 722 
L 3463 178 
Q 3153 47 2828 -22 
Q 2503 -91 2169 -91 
Q 1331 -91 842 396 
Q 353 884 353 1716 
Q 353 2575 817 3079 
Q 1281 3584 2069 3584 
Q 2775 3584 3186 3129 
Q 3597 2675 3597 1894 
z
M 3022 2063 
Q 3016 2534 2758 2815 
Q 2500 3097 2075 3097 
Q 1594 3097 1305 2825 
Q 1016 2553 972 2059 
L 3022 2063 
z
" transform="scale(0.015625)"/>
      </defs>
      <use xlink:href="#DejaVuSans-31"/>
      <use xlink:href="#DejaVuSans-65" transform="translate(63.623047 0)"/>
      <use xlink:href="#DejaVuSans-37" transform="translate(125.146484 0)"/>
     </g>
    </g>
   </g>
   <g id="FillBetweenPolyCollection_1">
    <defs>
     <path id="m01c45829f3" d="M 38.607604 -92.52717 
L 38.607604 -92.52717 
L 39.804417 -92.52717 
L 43.394856 -92.52717 
L 54.166174 -92.52717 
L 66.134305 -92.52717 
L 78.102436 -92.52717 
L 86.08119 -92.52717 
L 121.985583 -106.400411 
L 128.169118 -108.789365 
L 134.352652 -111.178121 
L 158.288914 -124.546821 
L 182.624114 -136.955 
L 188.807648 -141.30076 
L 194.991183 -145.596468 
L 206.959314 -153.841876 
L 218.927445 -162.001192 
L 230.895576 -168.919219 
L 231.693451 -169.690528 
L 267.996782 -200.89122 
L 279.167038 -208.432168 
L 304.300113 -225.876804 
L 327.4385 -237.716568 
L 341.002382 -244.851944 
L 377.70465 -260.546924 
L 413.609044 -272.733094 
L 449.912375 -285.042933 
L 478.635889 -293.250204 
L 486.614643 -295.355237 
L 523.316912 -304.326479 
L 526.907351 -305.158457 
L 559.221305 -312.261379 
L 595.524636 -319.700794 
L 632.226904 -327.012617 
L 668.929173 -334.32203 
L 678.10474 -335.901806 
L 704.833566 -340.384697 
L 726.376202 -344.562556 
L 733.75655 -346.054274 
L 741.136897 -347.526862 
L 777.839166 -354.770853 
L 814.541434 -361.733208 
L 850.844765 -368.996676 
L 887.148096 -375.930672 
L 923.850365 -382.574396 
L 960.552633 -387.491451 
L 996.457027 -391.577356 
L 1032.760357 -395.553305 
L 1044.728489 -396.830605 
L 1069.462626 -399.426387 
L 1081.430757 -400.656334 
L 1106.164895 -403.440691 
L 1106.164895 -550.019069 
L 1106.164895 -550.019069 
L 1081.430757 -546.041853 
L 1069.462626 -544.088671 
L 1044.728489 -539.979422 
L 1032.760357 -537.945337 
L 996.457027 -531.50045 
L 960.552633 -524.900346 
L 923.850365 -517.874956 
L 887.148096 -510.01523 
L 850.844765 -501.765285 
L 814.541434 -493.08445 
L 777.839166 -483.810072 
L 741.136897 -473.932288 
L 733.75655 -471.833982 
L 726.376202 -469.713081 
L 704.833566 -463.404636 
L 678.10474 -455.306164 
L 668.929173 -452.460113 
L 632.226904 -440.722684 
L 595.524636 -427.776724 
L 559.221305 -413.909628 
L 526.907351 -399.417809 
L 523.316912 -397.974847 
L 486.614643 -382.18344 
L 478.635889 -378.398812 
L 449.912375 -363.249898 
L 413.609044 -341.113996 
L 377.70465 -317.995856 
L 341.002382 -290.358699 
L 327.4385 -278.778219 
L 304.300113 -258.141378 
L 279.167038 -233.919366 
L 267.996782 -222.381941 
L 231.693451 -182.979652 
L 230.895576 -182.040911 
L 218.927445 -172.680696 
L 206.959314 -162.694026 
L 194.991183 -152.456163 
L 188.807648 -147.081297 
L 182.624114 -141.695921 
L 158.288914 -126.369081 
L 134.352652 -111.277167 
L 128.169118 -108.875418 
L 121.985583 -106.473637 
L 86.08119 -92.52717 
L 78.102436 -92.52717 
L 66.134305 -92.52717 
L 54.166174 -92.52717 
L 43.394856 -92.52717 
L 39.804417 -92.52717 
L 38.607604 -92.52717 
z
" style="stroke: #58508d; stroke-opacity: 0.7; stroke-width: 0.8"/>
    </defs>
    <g clip-path="url(#p89a9914b7a)">
     <use xlink:href="#m01c45829f3" x="0" y="641.330875" style="fill: #58508d; fill-opacity: 0.7; stroke: #58508d; stroke-opacity: 0.7; stroke-width: 0.8"/>
    </g>
   </g>
   <g id="FillBetweenPolyCollection_2">
    <defs>
     <path id="me30c16fc2d" d="M 38.607604 -92.52717 
L 38.607604 -92.52717 
L 39.804417 -92.52717 
L 43.394856 -92.52717 
L 54.166174 -92.52717 
L 66.134305 -92.52717 
L 78.102436 -92.52717 
L 86.08119 -92.52717 
L 121.985583 -106.400411 
L 128.169118 -108.789365 
L 134.352652 -111.178121 
L 158.288914 -124.546821 
L 182.624114 -136.955 
L 188.807648 -141.30076 
L 194.991183 -145.596468 
L 206.959314 -153.841876 
L 218.927445 -162.001192 
L 230.895576 -168.919219 
L 231.693451 -169.690528 
L 267.996782 -200.89122 
L 279.167038 -208.432168 
L 304.300113 -225.787949 
L 327.4385 -239.507797 
L 341.002382 -246.46481 
L 377.70465 -262.202449 
L 413.609044 -277.49782 
L 449.912375 -289.233883 
L 478.635889 -297.065186 
L 486.614643 -300.012433 
L 523.316912 -311.884504 
L 526.907351 -312.770517 
L 559.221305 -320.471999 
L 595.524636 -328.570687 
L 632.226904 -338.492837 
L 668.929173 -348.809187 
L 678.10474 -351.45651 
L 704.833566 -358.439751 
L 726.376202 -362.702159 
L 733.75655 -364.465819 
L 741.136897 -366.221775 
L 777.839166 -374.822655 
L 814.541434 -383.208613 
L 850.844765 -391.278645 
L 887.148096 -398.990649 
L 923.850365 -406.454246 
L 960.552633 -413.336224 
L 996.457027 -419.413865 
L 1032.760357 -424.89598 
L 1044.728489 -426.568904 
L 1069.462626 -429.870403 
L 1081.430757 -431.386998 
L 1106.164895 -434.395187 
L 1106.164895 -585.25808 
L 1106.164895 -585.25808 
L 1081.430757 -579.002874 
L 1069.462626 -575.919111 
L 1044.728489 -569.392128 
L 1032.760357 -566.164787 
L 996.457027 -557.278849 
L 960.552633 -550.992147 
L 923.850365 -543.969637 
L 887.148096 -536.26529 
L 850.844765 -527.075915 
L 814.541434 -517.600449 
L 777.839166 -508.0323 
L 741.136897 -496.423438 
L 733.75655 -493.960367 
L 726.376202 -491.456247 
L 704.833566 -483.959003 
L 678.10474 -474.273318 
L 668.929173 -470.847525 
L 632.226904 -456.541703 
L 595.524636 -440.408414 
L 559.221305 -425.232581 
L 526.907351 -410.414921 
L 523.316912 -408.65559 
L 486.614643 -389.536298 
L 478.635889 -385.083396 
L 449.912375 -368.097893 
L 413.609044 -345.647109 
L 377.70465 -320.225724 
L 341.002382 -290.838392 
L 327.4385 -278.866035 
L 304.300113 -258.185411 
L 279.167038 -233.919366 
L 267.996782 -222.381941 
L 231.693451 -182.979652 
L 230.895576 -182.040911 
L 218.927445 -172.680696 
L 206.959314 -162.694026 
L 194.991183 -152.456163 
L 188.807648 -147.081297 
L 182.624114 -141.695921 
L 158.288914 -126.369081 
L 134.352652 -111.277167 
L 128.169118 -108.875418 
L 121.985583 -106.473637 
L 86.08119 -92.52717 
L 78.102436 -92.52717 
L 66.134305 -92.52717 
L 54.166174 -92.52717 
L 43.394856 -92.52717 
L 39.804417 -92.52717 
L 38.607604 -92.52717 
z
" style="stroke: #ffa600; stroke-opacity: 0.7; stroke-width: 0.8"/>
    </defs>
    <g clip-path="url(#p89a9914b7a)">
     <use xlink:href="#me30c16fc2d" x="0" y="641.330875" style="fill: #ffa600; fill-opacity: 0.7; stroke: #ffa600; stroke-opacity: 0.7; stroke-width: 0.8"/>
    </g>
   </g>
   <g id="line2d_16">
    <path d="M 38.607604 548.803705 
L 39.804417 548.803705 
L 43.394856 548.803705 
L 54.166174 548.803705 
L 66.134305 548.803705 
L 78.102436 548.803705 
L 86.08119 548.803705 
L 121.985583 534.892321 
L 128.169118 532.495831 
L 134.352652 530.099276 
L 158.288914 515.46813 
L 182.624114 501.400462 
L 188.807648 496.468346 
L 194.991183 491.599806 
L 206.959314 482.412171 
L 218.927445 473.518273 
L 230.895576 465.043086 
L 231.693451 464.175666 
L 267.996782 428.427925 
L 279.167038 418.746863 
L 304.300113 398.783329 
L 327.4385 382.587265 
L 341.002382 373.848259 
L 377.70465 352.865316 
L 413.609044 335.101101 
L 449.912375 319.168383 
L 478.635889 307.802971 
L 486.614643 304.806109 
L 523.316912 291.854521 
L 526.907351 290.642921 
L 559.221305 280.260261 
L 595.524636 269.387298 
L 632.226904 259.147358 
L 668.929173 249.584701 
L 678.10474 247.289694 
L 704.833566 240.813971 
L 726.376202 235.817525 
L 733.75655 234.143777 
L 741.136897 232.491159 
L 777.839166 224.579846 
L 814.541434 217.099194 
L 850.844765 210.074394 
L 887.148096 203.393704 
L 923.850365 196.967071 
L 960.552633 190.834616 
L 996.457027 185.100071 
L 1032.760357 179.536025 
L 1044.728489 177.754465 
L 1069.462626 174.143136 
L 1081.430757 172.434325 
L 1106.164895 168.967826 
" clip-path="url(#p89a9914b7a)" style="fill: none; stroke: #000000; stroke-width: 4; stroke-linecap: round"/>
   </g>
   <g id="line2d_17">
    <path d="M 38.607604 548.803705 
L 39.804417 548.803705 
L 43.394856 548.803705 
L 54.166174 548.803705 
L 66.134305 548.803705 
L 78.102436 548.803705 
L 86.08119 548.803705 
L 121.985583 534.857238 
L 128.169118 532.455457 
L 134.352652 530.053708 
L 158.288914 514.961794 
L 182.624114 499.634954 
L 188.807648 494.249578 
L 194.991183 488.874712 
L 206.959314 478.636849 
L 218.927445 468.650179 
L 230.895576 459.289964 
L 231.693451 458.351223 
L 267.996782 418.948934 
L 279.167038 407.411509 
L 304.300113 383.189497 
L 327.4385 362.552656 
L 341.002382 350.972176 
L 377.70465 323.335019 
L 413.609044 300.216879 
L 449.912375 278.080977 
L 478.635889 262.932063 
L 486.614643 259.147435 
L 523.316912 243.356028 
L 526.907351 241.913066 
L 559.221305 227.421247 
L 595.524636 213.554151 
L 632.226904 200.608191 
L 668.929173 188.870762 
L 678.10474 186.024711 
L 704.833566 177.926239 
L 726.376202 171.617794 
L 733.75655 169.496893 
L 741.136897 167.398587 
L 777.839166 157.520803 
L 814.541434 148.246425 
L 850.844765 139.56559 
L 887.148096 131.315645 
L 923.850365 123.455919 
L 960.552633 116.430529 
L 996.457027 109.830425 
L 1032.760357 103.385538 
L 1044.728489 101.351453 
L 1069.462626 97.242204 
L 1081.430757 95.289022 
L 1106.164895 91.311806 
" clip-path="url(#p89a9914b7a)" style="fill: none; stroke-dasharray: 7.4,3.2; stroke-dashoffset: 0; stroke: #000000; stroke-width: 2"/>
   </g>
   <g id="line2d_18">
    <path d="M 38.607604 548.803705 
L 39.804417 548.803705 
L 43.394856 548.803705 
L 54.166174 548.803705 
L 66.134305 548.803705 
L 78.102436 548.803705 
L 86.08119 548.803705 
L 121.985583 534.930464 
L 128.169118 532.54151 
L 134.352652 530.152754 
L 158.288914 516.784054 
L 182.624114 504.375875 
L 188.807648 500.030115 
L 194.991183 495.734407 
L 206.959314 487.488999 
L 218.927445 479.329683 
L 230.895576 472.411656 
L 231.693451 471.640347 
L 267.996782 440.439655 
L 279.167038 432.898707 
L 304.300113 415.454071 
L 327.4385 403.614307 
L 341.002382 396.478931 
L 377.70465 380.783951 
L 413.609044 368.597781 
L 449.912375 356.287942 
L 478.635889 348.080671 
L 486.614643 345.975638 
L 523.316912 337.004396 
L 526.907351 336.172418 
L 559.221305 329.069496 
L 595.524636 321.630081 
L 632.226904 314.318258 
L 668.929173 307.008845 
L 678.10474 305.429069 
L 704.833566 300.946178 
L 726.376202 296.768319 
L 733.75655 295.276601 
L 741.136897 293.804013 
L 777.839166 286.560022 
L 814.541434 279.597667 
L 850.844765 272.334199 
L 887.148096 265.400203 
L 923.850365 258.756479 
L 960.552633 253.839424 
L 996.457027 249.753519 
L 1032.760357 245.77757 
L 1044.728489 244.50027 
L 1069.462626 241.904488 
L 1081.430757 240.674541 
L 1106.164895 237.890184 
" clip-path="url(#p89a9914b7a)" style="fill: none; stroke-dasharray: 2,3.3; stroke-dashoffset: 0; stroke: #000000; stroke-width: 2"/>
   </g>
   <g id="line2d_19">
    <path d="M 38.607604 548.803705 
L 39.804417 548.803705 
L 43.394856 548.803705 
L 54.166174 548.803705 
L 66.134305 548.803705 
L 78.102436 548.803705 
L 86.08119 548.803705 
L 121.985583 534.892321 
L 128.169118 532.495831 
L 134.352652 530.099276 
L 158.288914 515.46813 
L 182.624114 501.400462 
L 188.807648 496.468346 
L 194.991183 491.599806 
L 206.959314 482.412171 
L 218.927445 473.518273 
L 230.895576 465.043086 
L 231.693451 464.175666 
L 267.996782 428.427925 
L 279.167038 418.746863 
L 304.300113 398.500339 
L 327.4385 381.714893 
L 341.002382 372.537669 
L 377.70465 350.101275 
L 413.609044 330.559114 
L 449.912375 312.66895 
L 478.635889 299.75312 
L 486.614643 296.33394 
L 523.316912 281.57848 
L 526.907351 280.203108 
L 559.221305 268.466456 
L 595.524636 256.203363 
L 632.226904 244.671801 
L 668.929173 233.871419 
L 678.10474 231.270136 
L 704.833566 223.906668 
L 726.376202 218.191899 
L 733.75655 216.262869 
L 741.136897 214.345396 
L 777.839166 204.970956 
L 814.541434 195.877931 
L 850.844765 187.198546 
L 887.148096 178.883254 
L 923.850365 170.866374 
L 960.552633 163.237971 
L 996.457027 156.153722 
L 1032.760357 149.362616 
L 1044.728489 147.213807 
L 1069.462626 142.901568 
L 1081.430757 140.886681 
L 1106.164895 136.846059 
" clip-path="url(#p89a9914b7a)" style="fill: none; stroke: #808080; stroke-width: 4; stroke-linecap: round"/>
   </g>
   <g id="line2d_20">
    <path d="M 38.607604 548.803705 
L 39.804417 548.803705 
L 43.394856 548.803705 
L 54.166174 548.803705 
L 66.134305 548.803705 
L 78.102436 548.803705 
L 86.08119 548.803705 
L 121.985583 534.857238 
L 128.169118 532.455457 
L 134.352652 530.053708 
L 158.288914 514.961794 
L 182.624114 499.634954 
L 188.807648 494.249578 
L 194.991183 488.874712 
L 206.959314 478.636849 
L 218.927445 468.650179 
L 230.895576 459.289964 
L 231.693451 458.351223 
L 267.996782 418.948934 
L 279.167038 407.411509 
L 304.300113 383.145464 
L 327.4385 362.46484 
L 341.002382 350.492483 
L 377.70465 321.105151 
L 413.609044 295.683766 
L 449.912375 273.232982 
L 478.635889 256.247479 
L 486.614643 251.794577 
L 523.316912 232.675285 
L 526.907351 230.915954 
L 559.221305 216.098294 
L 595.524636 200.922461 
L 632.226904 184.789172 
L 668.929173 170.48335 
L 678.10474 167.057557 
L 704.833566 157.371872 
L 726.376202 149.874628 
L 733.75655 147.370508 
L 741.136897 144.907437 
L 777.839166 133.298575 
L 814.541434 123.730426 
L 850.844765 114.25496 
L 887.148096 105.065585 
L 923.850365 97.361238 
L 960.552633 90.338728 
L 996.457027 84.052026 
L 1032.760357 75.166088 
L 1044.728489 71.938747 
L 1069.462626 65.411764 
L 1081.430757 62.328001 
L 1106.164895 56.072795 
" clip-path="url(#p89a9914b7a)" style="fill: none; stroke-dasharray: 7.4,3.2; stroke-dashoffset: 0; stroke: #808080; stroke-width: 2"/>
   </g>
   <g id="line2d_21">
    <path d="M 38.607604 548.803705 
L 39.804417 548.803705 
L 43.394856 548.803705 
L 54.166174 548.803705 
L 66.134305 548.803705 
L 78.102436 548.803705 
L 86.08119 548.803705 
L 121.985583 534.930464 
L 128.169118 532.54151 
L 134.352652 530.152754 
L 158.288914 516.784054 
L 182.624114 504.375875 
L 188.807648 500.030115 
L 194.991183 495.734407 
L 206.959314 487.488999 
L 218.927445 479.329683 
L 230.895576 472.411656 
L 231.693451 471.640347 
L 267.996782 440.439655 
L 279.167038 432.898707 
L 304.300113 415.542926 
L 327.4385 401.823078 
L 341.002382 394.866065 
L 377.70465 379.128426 
L 413.609044 363.833055 
L 449.912375 352.096992 
L 478.635889 344.265689 
L 486.614643 341.318442 
L 523.316912 329.446371 
L 526.907351 328.560358 
L 559.221305 320.858876 
L 595.524636 312.760188 
L 632.226904 302.838038 
L 668.929173 292.521688 
L 678.10474 289.874365 
L 704.833566 282.891124 
L 726.376202 278.628716 
L 733.75655 276.865056 
L 741.136897 275.1091 
L 777.839166 266.50822 
L 814.541434 258.122262 
L 850.844765 250.05223 
L 887.148096 242.340226 
L 923.850365 234.876629 
L 960.552633 227.994651 
L 996.457027 221.91701 
L 1032.760357 216.434895 
L 1044.728489 214.761971 
L 1069.462626 211.460472 
L 1081.430757 209.943877 
L 1106.164895 206.935688 
" clip-path="url(#p89a9914b7a)" style="fill: none; stroke-dasharray: 2,3.3; stroke-dashoffset: 0; stroke: #808080; stroke-width: 2"/>
   </g>
   <g id="patch_3">
    <path d="M 80.895 573.44025 
L 80.895 31.43625 
" style="fill: none; stroke: #ffffff; stroke-linejoin: miter; stroke-linecap: square"/>
   </g>
   <g id="patch_4">
    <path d="M 1112.547898 573.44025 
L 1112.547898 31.43625 
" style="fill: none; stroke: #ffffff; stroke-linejoin: miter; stroke-linecap: square"/>
   </g>
   <g id="patch_5">
    <path d="M 80.895 573.44025 
L 1112.547898 573.44025 
" style="fill: none; stroke: #ffffff; stroke-linejoin: miter; stroke-linecap: square"/>
   </g>
   <g id="patch_6">
    <path d="M 80.895 31.43625 
L 1112.547898 31.43625 
" style="fill: none; stroke: #ffffff; stroke-linejoin: miter; stroke-linecap: square"/>
   </g>
   <g id="text_19">
    <!-- FOPT -->
    <g style="fill: #262626" transform="translate(561.340199 25.43625) scale(0.24 -0.24)">
     <use xlink:href="#DejaVuSans-Bold-46"/>
     <use xlink:href="#DejaVuSans-Bold-4f" transform="translate(68.310547 0)"/>
     <use xlink:href="#DejaVuSans-Bold-50" transform="translate(153.320312 0)"/>
     <use xlink:href="#DejaVuSans-Bold-54" transform="translate(226.611328 0)"/>
    </g>
   </g>
   <g id="legend_1">
    <g id="patch_7">
     <path d="M 96.295 210.495625 
L 323.462188 210.495625 
Q 327.862188 210.495625 327.862188 206.095625 
L 327.862188 46.83625 
Q 327.862188 42.43625 323.462188 42.43625 
L 96.295 42.43625 
Q 91.895 42.43625 91.895 46.83625 
L 91.895 206.095625 
Q 91.895 210.495625 96.295 210.495625 
z
" style="fill: #eaeaf2; opacity: 0.8; stroke: #cccccc; stroke-width: 0.8; stroke-linejoin: miter"/>
    </g>
    <g id="line2d_22">
     <path d="M 100.695 60.252813 
L 122.695 60.252813 
L 144.695 60.252813 
" style="fill: none; stroke: #000000; stroke-width: 4; stroke-linecap: round"/>
    </g>
    <g id="text_20">
     <!-- Mean -->
     <g style="fill: #262626" transform="translate(162.295 67.952813) scale(0.22 -0.22)">
      <defs>
       <path id="DejaVuSans-4d" d="M 628 4666 
L 1569 4666 
L 2759 1491 
L 3956 4666 
L 4897 4666 
L 4897 0 
L 4281 0 
L 4281 4097 
L 3078 897 
L 2444 897 
L 1241 4097 
L 1241 0 
L 628 0 
L 628 4666 
z
" transform="scale(0.015625)"/>
       <path id="DejaVuSans-61" d="M 2194 1759 
Q 1497 1759 1228 1600 
Q 959 1441 959 1056 
Q 959 750 1161 570 
Q 1363 391 1709 391 
Q 2188 391 2477 730 
Q 2766 1069 2766 1631 
L 2766 1759 
L 2194 1759 
z
M 3341 1997 
L 3341 0 
L 2766 0 
L 2766 531 
Q 2569 213 2275 61 
Q 1981 -91 1556 -91 
Q 1019 -91 701 211 
Q 384 513 384 1019 
Q 384 1609 779 1909 
Q 1175 2209 1959 2209 
L 2766 2209 
L 2766 2266 
Q 2766 2663 2505 2880 
Q 2244 3097 1772 3097 
Q 1472 3097 1187 3025 
Q 903 2953 641 2809 
L 641 3341 
Q 956 3463 1253 3523 
Q 1550 3584 1831 3584 
Q 2591 3584 2966 3190 
Q 3341 2797 3341 1997 
z
" transform="scale(0.015625)"/>
       <path id="DejaVuSans-6e" d="M 3513 2113 
L 3513 0 
L 2938 0 
L 2938 2094 
Q 2938 2591 2744 2837 
Q 2550 3084 2163 3084 
Q 1697 3084 1428 2787 
Q 1159 2491 1159 1978 
L 1159 0 
L 581 0 
L 581 3500 
L 1159 3500 
L 1159 2956 
Q 1366 3272 1645 3428 
Q 1925 3584 2291 3584 
Q 2894 3584 3203 3211 
Q 3513 2838 3513 2113 
z
" transform="scale(0.015625)"/>
      </defs>
      <use xlink:href="#DejaVuSans-4d"/>
      <use xlink:href="#DejaVuSans-65" transform="translate(86.279297 0)"/>
      <use xlink:href="#DejaVuSans-61" transform="translate(147.802734 0)"/>
      <use xlink:href="#DejaVuSans-6e" transform="translate(209.082031 0)"/>
     </g>
    </g>
    <g id="line2d_23">
     <path d="M 100.695 92.544688 
L 122.695 92.544688 
L 144.695 92.544688 
" style="fill: none; stroke-dasharray: 7.4,3.2; stroke-dashoffset: 0; stroke: #000000; stroke-width: 2"/>
    </g>
    <g id="text_21">
     <!-- P10 Percentile -->
     <g style="fill: #262626" transform="translate(162.295 100.244688) scale(0.22 -0.22)">
      <defs>
       <path id="DejaVuSans-50" d="M 1259 4147 
L 1259 2394 
L 2053 2394 
Q 2494 2394 2734 2622 
Q 2975 2850 2975 3272 
Q 2975 3691 2734 3919 
Q 2494 4147 2053 4147 
L 1259 4147 
z
M 628 4666 
L 2053 4666 
Q 2838 4666 3239 4311 
Q 3641 3956 3641 3272 
Q 3641 2581 3239 2228 
Q 2838 1875 2053 1875 
L 1259 1875 
L 1259 0 
L 628 0 
L 628 4666 
z
" transform="scale(0.015625)"/>
       <path id="DejaVuSans-20" transform="scale(0.015625)"/>
       <path id="DejaVuSans-72" d="M 2631 2963 
Q 2534 3019 2420 3045 
Q 2306 3072 2169 3072 
Q 1681 3072 1420 2755 
Q 1159 2438 1159 1844 
L 1159 0 
L 581 0 
L 581 3500 
L 1159 3500 
L 1159 2956 
Q 1341 3275 1631 3429 
Q 1922 3584 2338 3584 
Q 2397 3584 2469 3576 
Q 2541 3569 2628 3553 
L 2631 2963 
z
" transform="scale(0.015625)"/>
       <path id="DejaVuSans-63" d="M 3122 3366 
L 3122 2828 
Q 2878 2963 2633 3030 
Q 2388 3097 2138 3097 
Q 1578 3097 1268 2742 
Q 959 2388 959 1747 
Q 959 1106 1268 751 
Q 1578 397 2138 397 
Q 2388 397 2633 464 
Q 2878 531 3122 666 
L 3122 134 
Q 2881 22 2623 -34 
Q 2366 -91 2075 -91 
Q 1284 -91 818 406 
Q 353 903 353 1747 
Q 353 2603 823 3093 
Q 1294 3584 2113 3584 
Q 2378 3584 2631 3529 
Q 2884 3475 3122 3366 
z
" transform="scale(0.015625)"/>
       <path id="DejaVuSans-74" d="M 1172 4494 
L 1172 3500 
L 2356 3500 
L 2356 3053 
L 1172 3053 
L 1172 1153 
Q 1172 725 1289 603 
Q 1406 481 1766 481 
L 2356 481 
L 2356 0 
L 1766 0 
Q 1100 0 847 248 
Q 594 497 594 1153 
L 594 3053 
L 172 3053 
L 172 3500 
L 594 3500 
L 594 4494 
L 1172 4494 
z
" transform="scale(0.015625)"/>
       <path id="DejaVuSans-69" d="M 603 3500 
L 1178 3500 
L 1178 0 
L 603 0 
L 603 3500 
z
M 603 4863 
L 1178 4863 
L 1178 4134 
L 603 4134 
L 603 4863 
z
" transform="scale(0.015625)"/>
       <path id="DejaVuSans-6c" d="M 603 4863 
L 1178 4863 
L 1178 0 
L 603 0 
L 603 4863 
z
" transform="scale(0.015625)"/>
      </defs>
      <use xlink:href="#DejaVuSans-50"/>
      <use xlink:href="#DejaVuSans-31" transform="translate(60.302734 0)"/>
      <use xlink:href="#DejaVuSans-30" transform="translate(123.925781 0)"/>
      <use xlink:href="#DejaVuSans-20" transform="translate(187.548828 0)"/>
      <use xlink:href="#DejaVuSans-50" transform="translate(219.335938 0)"/>
      <use xlink:href="#DejaVuSans-65" transform="translate(276.013672 0)"/>
      <use xlink:href="#DejaVuSans-72" transform="translate(337.537109 0)"/>
      <use xlink:href="#DejaVuSans-63" transform="translate(376.400391 0)"/>
      <use xlink:href="#DejaVuSans-65" transform="translate(431.380859 0)"/>
      <use xlink:href="#DejaVuSans-6e" transform="translate(492.904297 0)"/>
      <use xlink:href="#DejaVuSans-74" transform="translate(556.283203 0)"/>
      <use xlink:href="#DejaVuSans-69" transform="translate(595.492188 0)"/>
      <use xlink:href="#DejaVuSans-6c" transform="translate(623.275391 0)"/>
      <use xlink:href="#DejaVuSans-65" transform="translate(651.058594 0)"/>
     </g>
    </g>
    <g id="line2d_24">
     <path d="M 100.695 124.836563 
L 122.695 124.836563 
L 144.695 124.836563 
" style="fill: none; stroke-dasharray: 2,3.3; stroke-dashoffset: 0; stroke: #000000; stroke-width: 2"/>
    </g>
    <g id="text_22">
     <!-- P90 Percentile -->
     <g style="fill: #262626" transform="translate(162.295 132.536563) scale(0.22 -0.22)">
      <use xlink:href="#DejaVuSans-50"/>
      <use xlink:href="#DejaVuSans-39" transform="translate(60.302734 0)"/>
      <use xlink:href="#DejaVuSans-30" transform="translate(123.925781 0)"/>
      <use xlink:href="#DejaVuSans-20" transform="translate(187.548828 0)"/>
      <use xlink:href="#DejaVuSans-50" transform="translate(219.335938 0)"/>
      <use xlink:href="#DejaVuSans-65" transform="translate(276.013672 0)"/>
      <use xlink:href="#DejaVuSans-72" transform="translate(337.537109 0)"/>
      <use xlink:href="#DejaVuSans-63" transform="translate(376.400391 0)"/>
      <use xlink:href="#DejaVuSans-65" transform="translate(431.380859 0)"/>
      <use xlink:href="#DejaVuSans-6e" transform="translate(492.904297 0)"/>
      <use xlink:href="#DejaVuSans-74" transform="translate(556.283203 0)"/>
      <use xlink:href="#DejaVuSans-69" transform="translate(595.492188 0)"/>
      <use xlink:href="#DejaVuSans-6c" transform="translate(623.275391 0)"/>
      <use xlink:href="#DejaVuSans-65" transform="translate(651.058594 0)"/>
     </g>
    </g>
    <g id="patch_8">
     <path d="M 100.695 164.828438 
L 144.695 164.828438 
L 144.695 149.428438 
L 100.695 149.428438 
z
" style="fill: #58508d; fill-opacity: 0.7; stroke: #58508d; stroke-opacity: 0.7; stroke-width: 0.8; stroke-linejoin: miter"/>
    </g>
    <g id="text_23">
     <!-- Batch 0 -->
     <g style="fill: #262626" transform="translate(162.295 164.828438) scale(0.22 -0.22)">
      <defs>
       <path id="DejaVuSans-42" d="M 1259 2228 
L 1259 519 
L 2272 519 
Q 2781 519 3026 730 
Q 3272 941 3272 1375 
Q 3272 1813 3026 2020 
Q 2781 2228 2272 2228 
L 1259 2228 
z
M 1259 4147 
L 1259 2741 
L 2194 2741 
Q 2656 2741 2882 2914 
Q 3109 3088 3109 3444 
Q 3109 3797 2882 3972 
Q 2656 4147 2194 4147 
L 1259 4147 
z
M 628 4666 
L 2241 4666 
Q 2963 4666 3353 4366 
Q 3744 4066 3744 3513 
Q 3744 3084 3544 2831 
Q 3344 2578 2956 2516 
Q 3422 2416 3680 2098 
Q 3938 1781 3938 1306 
Q 3938 681 3513 340 
Q 3088 0 2303 0 
L 628 0 
L 628 4666 
z
" transform="scale(0.015625)"/>
       <path id="DejaVuSans-68" d="M 3513 2113 
L 3513 0 
L 2938 0 
L 2938 2094 
Q 2938 2591 2744 2837 
Q 2550 3084 2163 3084 
Q 1697 3084 1428 2787 
Q 1159 2491 1159 1978 
L 1159 0 
L 581 0 
L 581 4863 
L 1159 4863 
L 1159 2956 
Q 1366 3272 1645 3428 
Q 1925 3584 2291 3584 
Q 2894 3584 3203 3211 
Q 3513 2838 3513 2113 
z
" transform="scale(0.015625)"/>
      </defs>
      <use xlink:href="#DejaVuSans-42"/>
      <use xlink:href="#DejaVuSans-61" transform="translate(68.603516 0)"/>
      <use xlink:href="#DejaVuSans-74" transform="translate(129.882812 0)"/>
      <use xlink:href="#DejaVuSans-63" transform="translate(169.091797 0)"/>
      <use xlink:href="#DejaVuSans-68" transform="translate(224.072266 0)"/>
      <use xlink:href="#DejaVuSans-20" transform="translate(287.451172 0)"/>
      <use xlink:href="#DejaVuSans-30" transform="translate(319.238281 0)"/>
     </g>
    </g>
    <g id="patch_9">
     <path d="M 100.695 197.120313 
L 144.695 197.120313 
L 144.695 181.720313 
L 100.695 181.720313 
z
" style="fill: #ffa600; fill-opacity: 0.7; stroke: #ffa600; stroke-opacity: 0.7; stroke-width: 0.8; stroke-linejoin: miter"/>
    </g>
    <g id="text_24">
     <!-- Batch 9 -->
     <g style="fill: #262626" transform="translate(162.295 197.120313) scale(0.22 -0.22)">
      <use xlink:href="#DejaVuSans-42"/>
      <use xlink:href="#DejaVuSans-61" transform="translate(68.603516 0)"/>
      <use xlink:href="#DejaVuSans-74" transform="translate(129.882812 0)"/>
      <use xlink:href="#DejaVuSans-63" transform="translate(169.091797 0)"/>
      <use xlink:href="#DejaVuSans-68" transform="translate(224.072266 0)"/>
      <use xlink:href="#DejaVuSans-20" transform="translate(287.451172 0)"/>
      <use xlink:href="#DejaVuSans-39" transform="translate(319.238281 0)"/>
     </g>
    </g>
   </g>
  </g>
 </g>
 <defs>
  <clipPath id="p89a9914b7a">
   <rect x="80.895" y="31.43625" width="1031.652898" height="542.004"/>
  </clipPath>
 </defs>
</svg>
